<svg width="32" height="32" viewBox="0 0 32 32" fill="none" xmlns="http://www.w3.org/2000/svg">
<path d="M26.8473 12.0325L25.9199 11.4875L26.3361 11.135C26.6886 10.8475 26.8799 10.4313 26.8799 9.98252V7.32627C26.8799 6.81375 26.5924 6.33375 26.1761 6.07878L17.7598 1.02374C17.216 0.703739 16.5435 0.736238 16.0635 1.15124L5.05617 10.0162C4.70366 10.3037 4.51243 10.7199 4.51243 11.1687V13.825C4.51243 14.3375 4.79993 14.8175 5.21617 15.105L6.14366 15.6487L5.7274 15.9687C5.37489 16.2562 5.18366 16.6725 5.18366 17.1212V19.7775C5.18366 20.29 5.47116 20.77 5.91992 21.0575L4.86366 22.1775C4.54366 22.4975 4.38366 22.945 4.4474 23.3937L4.7674 26.0175C4.83115 26.53 5.15115 26.9775 5.63115 27.17L14.2385 31.01C14.4948 31.1375 14.7823 31.2025 15.071 31.2025C15.6148 31.2025 16.1585 30.9787 16.5435 30.595L26.1109 20.7076C26.4309 20.3876 26.5584 19.9402 26.5271 19.4914L26.3034 17.6989L27.0397 17.1226C27.3922 16.8351 27.5834 16.4189 27.5834 15.9701V13.3138C27.5521 12.7676 27.2959 12.3201 26.8471 12.0326L26.8473 12.0325ZM15.1037 5.37622L16.6399 4.15996C16.8324 3.99996 17.1199 3.96746 17.3437 4.12746L21.76 6.78372C22.1437 7.00747 22.1762 7.51998 21.8237 7.80746L20.2875 9.02372C20.095 9.18372 19.8075 9.21622 19.5837 9.08747L15.1674 6.39998C14.8161 6.17623 14.7837 5.66373 15.1037 5.37624V5.37622ZM5.8563 14.0799C5.76005 14.0474 5.7288 13.9524 5.7288 13.8236V11.8074L13.6651 16.5748C13.8889 16.7023 14.1776 16.7985 14.4326 16.7985C14.7526 16.7985 15.0726 16.671 15.3601 16.4785L25.6964 8.12586V10.0134C25.6964 10.1096 25.6639 10.1734 25.6002 10.2371L14.9128 18.8771C14.6253 19.1009 14.2403 19.1333 13.9528 18.9408L5.8563 14.0799ZM25.2477 19.8725L15.6803 29.7599C15.4241 30.0161 15.0403 30.0799 14.7203 29.9524L6.14398 26.1124C6.04773 26.0799 5.98398 25.9849 5.95148 25.8886L5.72773 23.9049L14.1751 27.6812C14.3676 27.7775 14.5913 27.8087 14.7826 27.8087C15.1663 27.8087 15.5501 27.6487 15.8388 27.3612L21.0552 21.9849L25.2152 18.6249L25.3427 19.6812C25.3439 19.7124 25.3127 19.8074 25.2477 19.8724L25.2477 19.8725ZM26.3677 15.9676C26.3677 16.0638 26.3352 16.1276 26.2714 16.1913L15.5841 24.8313C15.2965 25.0551 14.9115 25.0876 14.6241 24.8951L6.52773 20.0327C6.43148 20.0002 6.40023 19.9052 6.40023 19.7764V17.7602L14.3365 22.5275C14.5603 22.655 14.8491 22.7513 15.104 22.7513C15.424 22.7513 15.7765 22.655 16.0315 22.4313L26.3989 14.0786L26.4001 15.9674L26.3677 15.9676Z" fill="black"/>
</svg>
