<svg width="33" height="32" viewBox="0 0 33 32" fill="none" xmlns="http://www.w3.org/2000/svg">
<path d="M28.18 3.36006H23.9563V2.81631C23.9563 2.17631 23.4438 1.63257 22.7726 1.63257C22.1001 1.63257 21.6201 2.17631 21.6201 2.81631V3.36006H11.3801V2.81631C11.3801 2.17631 10.8676 1.63257 10.1963 1.63257C9.52381 1.63257 9.01258 2.14508 9.01258 2.81631V3.36006H4.81994C2.89994 3.36006 1.29994 4.92754 1.29994 6.88006V26.8474C1.29994 28.7674 2.86743 30.3674 4.81994 30.3674H28.2126C30.1326 30.3674 31.7326 28.7999 31.7326 26.8474V6.88006C31.7001 4.96006 30.1326 3.36006 28.1799 3.36006H28.18ZM4.82001 5.72754H9.04369V6.27129C9.04369 6.91129 9.5562 7.45503 10.2274 7.45503C10.8999 7.45503 11.4112 6.94252 11.4112 6.27129V5.72754H21.6512V6.27129C21.6512 6.91129 22.1637 7.45503 22.8349 7.45503C23.5074 7.45503 24.0187 6.94252 24.0187 6.27129V5.72754H28.2423C28.8823 5.72754 29.4261 6.24006 29.4261 6.91129V9.27878L3.63601 9.28003V6.91254C3.63601 6.24003 4.14727 5.72755 4.81975 5.72755L4.82001 5.72754ZM28.18 28.0002H4.82001C4.18001 28.0002 3.63626 27.4877 3.63626 26.8164V11.5838H29.3636V26.8475C29.3636 27.4875 28.8524 28 28.1799 28L28.18 28.0002Z" fill="black"/>
<path d="M10.2926 13.9526H7.22014C6.58014 13.9526 6.03639 14.4651 6.03639 15.1364C6.03639 15.7764 6.5489 16.3201 7.22014 16.3201H10.3239C10.9639 16.3201 11.5076 15.8076 11.5076 15.1364C11.4764 14.4639 10.9639 13.9526 10.2926 13.9526H10.2926Z" fill="black"/>
<path d="M18.0363 13.9526H14.9326C14.2926 13.9526 13.7488 14.4651 13.7488 15.1364C13.7488 15.7764 14.2614 16.3201 14.9326 16.3201H18.0363C18.6763 16.3201 19.2201 15.8076 19.2201 15.1364C19.2201 14.4639 18.7076 13.9526 18.0363 13.9526Z" fill="black"/>
<path d="M25.78 13.9526H22.6763C22.0363 13.9526 21.4925 14.4651 21.4925 15.1364C21.4925 15.7764 22.005 16.3201 22.6763 16.3201H25.78C26.42 16.3201 26.9638 15.8076 26.9638 15.1364C26.9638 14.4639 26.4525 13.9526 25.78 13.9526Z" fill="black"/>
<path d="M10.2926 18.6238H7.22014C6.58014 18.6238 6.03639 19.1363 6.03639 19.8075C6.03639 20.4475 6.5489 20.9913 7.22014 20.9913H10.3239C10.9639 20.9913 11.5076 20.4788 11.5076 19.8075C11.4764 19.1675 10.9639 18.6238 10.2926 18.6238H10.2926Z" fill="black"/>
<path d="M18.0363 18.6238H14.9326C14.2926 18.6238 13.7488 19.1363 13.7488 19.8075C13.7488 20.4475 14.2614 20.9913 14.9326 20.9913H18.0363C18.6763 20.9913 19.2201 20.4788 19.2201 19.8075C19.2201 19.1675 18.7076 18.6238 18.0363 18.6238Z" fill="black"/>
<path d="M25.78 18.6238H22.6763C22.0363 18.6238 21.4925 19.1363 21.4925 19.8075C21.4925 20.4475 22.005 20.9913 22.6763 20.9913L25.78 20.9925C26.42 20.9925 26.9638 20.48 26.9638 19.8088C26.9638 19.1675 26.4525 18.6238 25.78 18.6238V18.6238Z" fill="black"/>
<path d="M10.2926 23.3274H7.22014C6.58014 23.3274 6.03639 23.8399 6.03639 24.5111C6.03639 25.1836 6.5489 25.6949 7.22014 25.6949H10.3239C10.9639 25.6949 11.5076 25.1824 11.5076 24.5111C11.5076 23.8399 10.9639 23.3274 10.2926 23.3274H10.2926Z" fill="black"/>
<path d="M18.0363 23.3274H14.9326C14.2926 23.3274 13.7488 23.8399 13.7488 24.5111C13.7488 25.1836 14.2614 25.6949 14.9326 25.6949H18.0363C18.6763 25.6949 19.2201 25.1824 19.2201 24.5111C19.2201 23.8399 18.7076 23.3274 18.0363 23.3274Z" fill="black"/>
<path d="M25.78 23.3274H22.6763C22.0363 23.3274 21.4925 23.8399 21.4925 24.5111C21.4925 25.1836 22.005 25.6949 22.6763 25.6949L25.78 25.6961C26.42 25.6961 26.9638 25.1836 26.9638 24.5124C26.9638 23.8399 26.4525 23.3274 25.78 23.3274Z" fill="black"/>
</svg>
