<svg width="24" height="24" viewBox="0 0 24 24" fill="none" xmlns="http://www.w3.org/2000/svg">
<path d="M11.9779 0C15.3345 0 18.1924 1.17187 20.5493 3.5145C21.6773 4.64288 22.5349 5.9325 23.1206 7.38225C23.706 8.83238 23.9996 10.3714 23.9996 12C23.9996 13.6429 23.7098 15.1823 23.1319 16.6174C22.5533 18.0529 21.6994 19.3211 20.5714 20.421C19.4003 21.5779 18.0716 22.464 16.5855 23.0783C15.1001 23.6925 13.5641 23.9996 11.9786 23.9996C10.3931 23.9996 8.87513 23.6966 7.425 23.0888C5.97525 22.482 4.67513 21.6034 3.525 20.4536C2.37488 19.3039 1.5 18.0071 0.9 16.5641C0.3 15.1211 0 13.6001 0 12C0 10.4141 0.303375 8.88938 0.9105 7.425C1.51763 5.96063 2.4 4.65 3.55688 3.49275C5.8425 1.16475 8.64938 0 11.9779 0ZM12.0214 2.1645C9.27863 2.1645 6.97125 3.12188 5.09963 5.03588C4.1565 5.99325 3.43163 7.068 2.92463 8.26088C2.41688 9.45375 2.16375 10.7003 2.16375 12.0004C2.16375 13.2863 2.41688 14.5256 2.92463 15.7178C3.432 16.9114 4.1565 17.9756 5.09963 18.9113C6.04238 19.8473 7.10625 20.5609 8.29275 21.0544C9.47813 21.5471 10.7213 21.7935 12.0214 21.7935C13.3069 21.7935 14.5526 21.5441 15.7613 21.0439C16.9684 20.5433 18.0566 19.8225 19.0286 18.8798C20.8999 17.0513 21.8351 14.7585 21.8351 12.0008C21.8351 10.6721 21.5921 9.41513 21.1065 8.22938C20.6216 7.04363 19.914 5.98688 18.9863 5.05763C17.0565 3.129 14.7356 2.1645 12.0214 2.1645ZM11.871 10.0076L10.2634 10.8435C10.0916 10.4869 9.88125 10.2364 9.6315 10.0935C9.38138 9.951 9.14925 9.87938 8.93475 9.87938C7.86375 9.87938 7.3275 10.5863 7.3275 12.0008C7.3275 12.6435 7.46325 13.1573 7.73438 13.5431C8.00588 13.929 8.406 14.1221 8.93475 14.1221C9.63488 14.1221 10.1276 13.779 10.4138 13.0935L11.892 13.8435C11.5778 14.4296 11.142 14.8901 10.5848 15.2258C10.0283 15.5618 9.41363 15.7294 8.742 15.7294C7.67063 15.7294 6.80588 15.4013 6.14888 14.7435C5.49188 14.0865 5.16337 13.1723 5.16337 12.0011C5.16337 10.8581 5.49563 9.95138 6.15975 9.27975C6.82388 8.6085 7.66313 8.2725 8.67788 8.2725C10.164 8.27175 11.2279 8.85038 11.871 10.0076ZM18.7924 10.0076L17.2065 10.8435C17.0351 10.4869 16.824 10.2364 16.5743 10.0935C16.3238 9.951 16.0841 9.87938 15.8565 9.87938C14.7851 9.87938 14.2489 10.5863 14.2489 12.0008C14.2489 12.6435 14.385 13.1573 14.6561 13.5431C14.9273 13.929 15.327 14.1221 15.8565 14.1221C16.5559 14.1221 17.049 13.779 17.3344 13.0935L18.8344 13.8435C18.5063 14.4296 18.063 14.8901 17.5065 15.2258C16.9493 15.5618 16.3421 15.7294 15.6851 15.7294C14.5991 15.7294 13.7318 15.4013 13.0823 14.7435C12.4313 14.0865 12.1065 13.1723 12.1065 12.0011C12.1065 10.8581 12.4384 9.95138 13.1033 9.27975C13.767 8.6085 14.6063 8.2725 15.6206 8.2725C17.1064 8.27175 18.1643 8.85038 18.7924 10.0076Z" fill="#4D4F51"/>
</svg>
