<svg width="16" height="10" viewBox="0 0 16 10" fill="none" xmlns="http://www.w3.org/2000/svg">
<path d="M15.8832 1.41305L14.1619 0.0717036C14.0946 0.019577 14.0079 -0.00224341 13.9186 0.000181086C13.8306 0.00624232 13.7486 0.0444281 13.6913 0.106253L7.99808 6.1984L2.30889 0.106253C2.25089 0.0444281 2.16889 0.00624232 2.0809 0.000181086C1.99557 -0.00163728 1.9049 0.019577 1.83757 0.0717036L0.116278 1.41305C0.0489467 1.46579 0.0076144 1.54034 0.000947899 1.62095C-0.0057186 1.70157 0.0229474 1.78097 0.0816126 1.84158L7.74676 9.89514C7.81009 9.96121 7.90208 10 7.99875 10C8.09541 10 8.18741 9.96181 8.25074 9.89514L15.9186 1.84158C15.9766 1.78036 16.0052 1.70157 15.9992 1.62095C15.9926 1.54034 15.9506 1.46579 15.8832 1.41305Z" fill="#475758"/>
</svg>
