<svg width="20" height="20" viewBox="0 0 20 20" fill="none" xmlns="http://www.w3.org/2000/svg">
<path d="M0.262131 0.483876L0.366117 0.366117C0.816722 -0.0844882 1.52576 -0.119151 2.01612 0.262131L2.13388 0.366117L10 8.23125L17.8661 0.366117C18.3543 -0.122039 19.1457 -0.122039 19.6339 0.366117C20.122 0.854272 20.122 1.64573 19.6339 2.13388L11.7688 10L19.6339 17.8661C20.0845 18.3167 20.1192 19.0258 19.7379 19.5161L19.6339 19.6339C19.1833 20.0845 18.4742 20.1192 17.9839 19.7379L17.8661 19.6339L10 11.7688L2.13388 19.6339C1.64573 20.122 0.854272 20.122 0.366117 19.6339C-0.122039 19.1457 -0.122039 18.3543 0.366117 17.8661L8.23125 10L0.366117 2.13388C-0.0844882 1.68328 -0.119151 0.97424 0.262131 0.483876L0.366117 0.366117L0.262131 0.483876Z" fill="#044F54"/>
</svg>
