<svg width="21" height="20" viewBox="0 0 21 20" fill="none" xmlns="http://www.w3.org/2000/svg">
<path d="M0.962135 0.483876L1.06612 0.366117C1.51673 -0.0844882 2.22576 -0.119151 2.71613 0.262131L2.83389 0.366117L10.7 8.23125L18.5661 0.366117C19.0543 -0.122039 19.8457 -0.122039 20.3339 0.366117C20.822 0.854272 20.822 1.64573 20.3339 2.13388L12.4688 10L20.3339 17.8661C20.7845 18.3167 20.8192 19.0258 20.4379 19.5161L20.3339 19.6339C19.8833 20.0845 19.1742 20.1192 18.6839 19.7379L18.5661 19.6339L10.7 11.7688L2.83389 19.6339C2.34573 20.122 1.55428 20.122 1.06612 19.6339C0.577966 19.1457 0.577966 18.3543 1.06612 17.8661L8.93125 10L1.06612 2.13388C0.615516 1.68328 0.580854 0.97424 0.962135 0.483876L1.06612 0.366117L0.962135 0.483876Z" fill="#CC2955"/>
</svg>
