<svg width="32" height="24" viewBox="0 0 32 24" fill="none" xmlns="http://www.w3.org/2000/svg">
<path d="M29.7164 0.402354L29.6927 0.378685L29.6843 0.38704C29.172 0.144784 28.6039 0.00139227 27.9996 0.00139227L4.00014 0C3.45294 0 2.93362 0.111381 2.45885 0.310474L2.41708 0.270099L2.29316 0.398189C0.942592 1.04142 0 2.40722 0 3.99982V19.9999C0 22.2052 1.79472 24 4.00027 24H27.9997C30.2052 24 32 22.2054 32 19.9999V3.99982C32.0014 2.41125 31.0616 1.0468 29.7166 0.40211L29.7164 0.402354ZM27.3452 2.66758L17.1255 12.6278C16.5756 13.1666 15.6427 13.1652 15.09 12.6264L4.87599 2.66762L27.3452 2.66758ZM28.001 21.3323H4.00012C3.26498 21.3323 2.66627 20.7336 2.66627 19.9985V4.2379L13.2257 14.5338C14.0207 15.3093 15.0635 15.6977 16.1077 15.6977C17.1506 15.6977 18.1935 15.3093 18.9885 14.5352L29.3333 4.45386V19.9999C29.3333 20.735 28.7359 21.3323 28.0008 21.3323H28.001Z" fill="#141415"/>
</svg>
