<svg width="16" height="16" viewBox="0 0 16 16" fill="none" xmlns="http://www.w3.org/2000/svg">
<path d="M4.04762 2.52381C4.04762 3.3619 3.51429 4.04762 2.52381 4.04762C1.60952 4.04762 1 3.3619 1 2.6C1 1.7619 1.60952 1 2.52381 1C3.4381 1 4.04762 1.68571 4.04762 2.52381ZM1 14.7143H4.04762V4.80952H1V14.7143ZM11.3619 4.9619C9.76191 4.9619 8.84762 5.87619 8.46667 6.48571H8.39048L8.2381 5.19048H5.49524C5.49524 6.02857 5.57143 7.01905 5.57143 8.1619V14.7143H8.61905V9.30476C8.61905 9 8.61905 8.77143 8.69524 8.54286C8.92381 8.00952 9.30476 7.32381 10.1429 7.32381C11.2095 7.32381 11.6667 8.2381 11.6667 9.45714V14.7143H14.7143V9.07619C14.7143 6.25714 13.2667 4.9619 11.3619 4.9619Z" fill="#75777A"/>
</svg>
