<svg width="151" height="30" viewBox="0 0 151 30" fill="none" xmlns="http://www.w3.org/2000/svg">
<path d="M100.726 6.84375H99.2518C99.1916 6.84375 99.1615 6.87477 99.1615 6.93682V19.9052C99.1615 19.9672 99.1916 19.9983 99.2518 19.9983H100.726C100.786 19.9983 100.816 19.9672 100.816 19.9052V6.93682C100.786 6.87477 100.756 6.84375 100.726 6.84375Z" fill="#75777A"/>
<path d="M127.593 10.877H129.248C129.278 10.877 129.338 10.939 129.338 10.97V12.4903C129.338 12.5523 129.308 12.5833 129.248 12.5833H127.593C127.563 12.5833 127.533 12.6144 127.533 12.6454V19.9052C127.533 19.9672 127.503 19.9983 127.443 19.9983H125.968C125.908 19.9983 125.878 19.9672 125.878 19.9052V12.6454C125.878 12.6144 125.848 12.5833 125.818 12.5833H124.193C124.133 12.5833 124.103 12.5523 124.103 12.4903V10.97C124.103 10.908 124.133 10.877 124.193 10.877H125.818C125.848 10.877 125.878 10.8459 125.878 10.8149V6.93682C125.878 6.87477 125.908 6.84375 125.968 6.84375H127.443C127.503 6.84375 127.533 6.87477 127.533 6.93682V10.8149C127.533 10.8459 127.563 10.877 127.593 10.877Z" fill="#75777A"/>
<path d="M130.812 7.96069H132.286C132.347 7.96069 132.377 7.99171 132.377 8.05376V9.57398C132.377 9.63603 132.347 9.66705 132.286 9.66705H130.812C130.752 9.66705 130.722 9.63603 130.722 9.57398V8.05376C130.722 7.99171 130.752 7.96069 130.812 7.96069Z" fill="#75777A"/>
<path d="M130.812 10.877H132.286C132.347 10.877 132.377 10.9391 132.377 10.9701V19.9052C132.377 19.9673 132.347 19.9983 132.286 19.9983H130.812C130.752 19.9983 130.722 19.9673 130.722 19.9052V10.9701C130.722 10.908 130.752 10.877 130.812 10.877Z" fill="#75777A"/>
<path fill-rule="evenodd" clip-rule="evenodd" d="M146.547 18.4471C145.675 18.4471 144.923 18.0748 144.381 17.4543C144.351 17.3922 144.351 17.3302 144.411 17.2991L149.466 15.0964L150.94 14.4449C151 14.4138 151 14.3828 151 14.3518C150.519 12.2111 148.623 10.6288 146.397 10.7219C144.05 10.815 142.094 12.7695 142.004 15.1895C141.884 17.8886 143.96 20.1224 146.577 20.1224C148.473 20.1224 150.097 18.9124 150.789 17.2061C150.819 17.144 150.789 17.082 150.729 17.082L149.255 16.8027C149.225 16.8027 149.165 16.8027 149.165 16.8648C148.623 17.7955 147.66 18.4471 146.547 18.4471ZM146.547 12.4283C147.42 12.4283 148.202 12.8316 148.713 13.4521C148.743 13.5142 148.743 13.5762 148.683 13.6072C148.683 13.6072 143.809 15.7479 143.749 15.779C143.689 15.81 143.629 15.7479 143.629 15.7169V15.4687C143.599 13.7624 144.923 12.4283 146.547 12.4283Z" fill="#75777A"/>
<path d="M140.349 10.877H141.794C141.854 10.877 141.884 10.9391 141.824 11.0011L138.845 19.9362C138.815 19.9673 138.785 19.9983 138.755 19.9983H136.709C136.649 19.9983 136.619 19.9673 136.619 19.9362L133.64 11.0011C133.64 10.9391 133.67 10.877 133.731 10.877H135.175C135.235 10.877 135.265 10.908 135.265 10.9391L137.612 18.0437C137.672 18.1989 137.852 18.1989 137.912 18.0437L140.259 10.9391C140.289 10.908 140.319 10.877 140.349 10.877Z" fill="#75777A"/>
<path d="M119.59 18.447C117.785 18.447 116.371 16.7717 116.702 14.8481C116.882 13.7933 117.905 12.7074 118.928 12.4902C120.041 12.2421 121.094 12.6454 121.756 13.421C121.786 13.452 121.847 13.452 121.877 13.421L122.93 12.3351C122.96 12.3041 122.96 12.2421 122.93 12.211C122.057 11.2182 120.763 10.6288 119.349 10.6908C117.033 10.8149 115.107 12.7695 114.987 15.1584C114.867 17.8575 116.942 20.0913 119.56 20.0913C120.884 20.0913 122.087 19.5019 122.93 18.5711C122.96 18.5401 122.96 18.5091 122.93 18.478L121.877 17.3922C121.847 17.3611 121.786 17.3611 121.756 17.3922C121.245 18.0747 120.463 18.447 119.59 18.447Z" fill="#75777A"/>
<path fill-rule="evenodd" clip-rule="evenodd" d="M109.752 18.447C108.879 18.447 108.127 18.0747 107.586 17.4542C107.556 17.3922 107.556 17.3301 107.616 17.2991L112.67 15.0963L114.144 14.4448C114.205 14.4138 114.205 14.3828 114.205 14.3517C113.723 12.211 111.828 10.6288 109.601 10.7218C107.255 10.8149 105.299 12.7695 105.209 15.1894C105.088 17.8886 107.164 20.1223 109.782 20.1223C111.677 20.1223 113.302 18.9124 113.994 17.206C114.024 17.144 113.994 17.0819 113.934 17.0819L112.46 16.8027C112.429 16.8027 112.369 16.8027 112.369 16.8647C111.828 17.7955 110.835 18.447 109.752 18.447ZM109.752 12.4282C110.624 12.4282 111.407 12.8315 111.918 13.452C111.948 13.5141 111.948 13.5761 111.888 13.6072C111.888 13.6072 107.014 15.7479 106.954 15.7789C106.894 15.8099 106.833 15.7479 106.833 15.7168V15.4686C106.803 13.7623 108.127 12.4282 109.752 12.4282Z" fill="#75777A"/>
<path d="M102.471 6.84375H103.945C103.975 6.84375 104.035 6.87477 104.035 6.93682V19.9052C104.035 19.9672 104.005 19.9983 103.945 19.9983H102.471C102.411 19.9983 102.381 19.9672 102.381 19.9052V6.93682C102.381 6.87477 102.411 6.84375 102.471 6.84375Z" fill="#75777A"/>
<path fill-rule="evenodd" clip-rule="evenodd" d="M88.9322 15.4376C88.9322 12.8315 90.978 10.7219 93.5053 10.7219C96.0325 10.7219 98.0784 12.8315 98.0784 15.4376C98.0784 18.0437 96.0325 20.1534 93.5053 20.1534C90.978 20.1534 88.9322 18.0437 88.9322 15.4376ZM96.4236 15.4376C96.4236 13.7933 95.1299 12.4282 93.5053 12.4282C91.8806 12.4282 90.5869 13.7933 90.5869 15.4376C90.5869 17.0819 91.9107 18.447 93.5053 18.447C95.0998 18.447 96.4236 17.0819 96.4236 15.4376Z" fill="#75777A"/>
<path d="M82.2229 14.8481C81.892 16.7717 83.306 18.447 85.1112 18.447C85.9837 18.447 86.766 18.0747 87.2774 17.3922C87.3075 17.3611 87.3677 17.3611 87.3978 17.3922L88.4508 18.478C88.4809 18.5091 88.4809 18.5401 88.4508 18.5711C87.6084 19.5019 86.4049 20.0913 85.0811 20.0913C82.4636 20.0913 80.3877 17.8575 80.508 15.1584C80.6284 12.7695 82.5539 10.8149 84.8705 10.6908C86.2846 10.6288 87.5783 11.2182 88.4508 12.211C88.4809 12.2421 88.4809 12.3041 88.4508 12.3351L87.3978 13.421C87.3677 13.452 87.3075 13.452 87.2774 13.421C86.6155 12.6454 85.5625 12.2421 84.4493 12.4902C83.4264 12.7074 82.4035 13.7933 82.2229 14.8481Z" fill="#75777A"/>
<path d="M71.9279 10.7219C70.9652 10.7219 69.852 11.3424 69.3405 12.087C69.3104 12.149 69.1901 12.118 69.1901 12.0559V10.9701C69.1901 10.939 69.16 10.877 69.0998 10.877H67.6256C67.5955 10.877 67.5353 10.908 67.5353 10.9701V19.9362C67.5353 19.9672 67.5654 20.0293 67.6256 20.0293H69.0998C69.1299 20.0293 69.1901 19.9983 69.1901 19.9362V15.4687C69.1901 13.7623 70.3033 12.5523 71.8978 12.5523C74.0039 12.5523 74.6357 13.9795 74.6357 15.6548V19.9362C74.6357 19.9672 74.6658 20.0293 74.7259 20.0293H76.2002C76.2302 20.0293 76.2904 19.9983 76.2904 19.9362V15.6548C76.3205 13.0487 75.1171 10.7219 71.9279 10.7219Z" fill="#75777A"/>
<path fill-rule="evenodd" clip-rule="evenodd" d="M62.2101 18.447C61.3376 18.447 60.5854 18.0747 60.0439 17.4542C60.0138 17.3922 60.0138 17.3301 60.0739 17.2991L65.1284 15.0963L66.6026 14.4448C66.6628 14.4138 66.6628 14.3828 66.6628 14.3517C66.1814 12.211 64.286 10.6288 62.0596 10.7218C59.7129 10.8149 57.7573 12.7695 57.6671 15.1894C57.5467 17.8886 59.6227 20.1223 62.2402 20.1223C64.1356 20.1223 65.7602 18.9124 66.4522 17.206C66.4823 17.144 66.4522 17.0819 66.392 17.0819L64.9178 16.8027C64.8877 16.8027 64.8276 16.8027 64.8276 16.8647C64.286 17.7955 63.3233 18.447 62.2101 18.447ZM62.2101 12.4282C63.0826 12.4282 63.8648 12.8315 64.3763 13.452C64.4064 13.5141 64.4064 13.5761 64.3462 13.6072C64.3462 13.6072 59.4722 15.7479 59.4121 15.7789C59.3519 15.8099 59.2917 15.7479 59.2917 15.7168V15.4686C59.2917 13.7623 60.6155 12.4282 62.2101 12.4282Z" fill="#75777A"/>
<path fill-rule="evenodd" clip-rule="evenodd" d="M49.5438 11.9008C50.1756 11.1252 51.0782 10.6598 52.2215 10.6288C54.4178 10.5977 56.4034 12.211 56.7645 14.4758C57.306 17.4542 55.0797 20.0603 52.2816 20.0603C51.0782 20.0603 50.1455 19.5639 49.5137 18.7883C49.4535 18.7262 49.3633 18.7573 49.3633 18.8503V23.9694C49.3633 24.0315 49.3332 24.0625 49.273 24.0625H47.8289C47.7687 24.0625 47.7386 24.0315 47.7386 23.9694V10.97C47.7386 10.908 47.7687 10.877 47.8289 10.877H49.3031C49.3633 10.877 49.3934 10.908 49.3934 10.97V11.8387C49.3934 11.9318 49.4836 11.9628 49.5438 11.9008ZM49.4234 14.8481C49.0925 16.8958 50.8074 18.6642 52.7931 18.3229C53.9966 18.1057 54.9894 17.1129 55.1699 15.8719C55.5009 13.8243 53.7859 12.0559 51.8003 12.3972C50.5968 12.5833 49.6341 13.6071 49.4234 14.8481Z" fill="#75777A"/>
<path fill-rule="evenodd" clip-rule="evenodd" d="M42.3231 10.7219C39.7959 10.7219 37.75 12.8315 37.75 15.4376C37.75 18.0437 39.7959 20.1534 42.3231 20.1534C44.8503 20.1534 46.8962 18.0437 46.8962 15.4376C46.8962 12.8315 44.8503 10.7219 42.3231 10.7219ZM42.3231 12.4282C43.9477 12.4282 45.2415 13.7933 45.2415 15.4376C45.2415 17.0819 43.9177 18.447 42.3231 18.447C40.7285 18.447 39.4047 17.0819 39.4047 15.4376C39.4047 13.7933 40.7285 12.4282 42.3231 12.4282Z" fill="#75777A"/>
<path fill-rule="evenodd" clip-rule="evenodd" d="M26.6258 6.74219C28.2651 9.08583 29.2258 11.9317 29.2258 15.0005C29.2258 18.0693 28.2651 20.9154 26.6258 23.2588L22.8406 19.5028C23.5839 18.1682 24.007 16.6332 24.007 15.0005C24.007 13.3678 23.5839 11.8331 22.8406 10.4985L26.6258 6.74219Z" fill="#323334" fill-opacity="0.5"/>
<path fill-rule="evenodd" clip-rule="evenodd" d="M22.9355 3.07996L19.15 6.83594C17.805 6.09831 16.2583 5.67847 14.6129 5.67847C9.4248 5.67847 5.21879 9.85198 5.21879 15C5.21879 20.148 9.4248 24.3215 14.6129 24.3215C16.2583 24.3215 17.805 23.9017 19.15 23.1641L22.9355 26.92C20.5736 28.5466 17.7056 29.5 14.6129 29.5C6.54249 29.5 0 23.0081 0 15C0 6.99193 6.54249 0.5 14.6129 0.5C17.7056 0.5 20.5736 1.45335 22.9355 3.07996Z" fill="#323334" fill-opacity="0.6"/>
</svg>
