<?xml version="1.0" encoding="utf-8"?>
<!-- Generator: Adobe Illustrator 25.2.1, SVG Export Plug-In . SVG Version: 6.00 Build 0)  -->
<svg version="1.1" id="Layer_1" xmlns="http://www.w3.org/2000/svg" xmlns:xlink="http://www.w3.org/1999/xlink" x="0px" y="0px"
	 viewBox="0 0 857.3 300" style="enable-background:new 0 0 857.3 300;" xml:space="preserve">
<style type="text/css">
	.st0{fill:#07464A;}
	.st1{opacity:0.8;fill:#1F595D;}
	.st2{fill:#045257;}
	.st3{opacity:0.3;clip-path:url(#SVGID_2_);}
	.st4{opacity:0.8;}
	.st5{fill:#88C8C3;}
	.st6{fill:#0C5559;}
</style>
<g>
	<path class="st0" d="M397.6-1954.7H237.7c-10.9,0-19.8,8.8-19.8,19.8v154.7C306.1-1799.3,376-1867.5,397.6-1954.7z"/>
	<path class="st1" d="M460.7-1933.6c0-0.4,0.1-0.9,0.1-1.4c0-10.9-8.8-19.8-19.8-19.8h-43.4c-21.6,87.2-91.5,155.4-179.7,174.5v42.4
		h0c0,0,0,0,0,0c0,10.8,8.7,19.6,19.4,19.7c0.1,0,0.2,0,0.3,0c0.2,0,0.5,0,0.7,0c0.5,0,1.1,0,1.6-0.1
		C356.7-1725.6,450.5-1817.6,460.7-1933.6C460.8-1933.6,460.7-1933.6,460.7-1933.6z"/>
	<path class="st2" d="M217.9-1935c0-10.9,8.8-19.8,19.8-19.8h159.9c2.9-11.7,4.9-23.7,6-36c0,0,0,0-0.1,0c0-0.5,0.1-0.9,0.1-1.4
		c0-10.9-8.8-19.8-19.8-19.8H180.5c-10.9,0-19.8,8.8-19.8,19.8v197.1h0c0,0,0,0,0,0c0,10.8,8.7,19.6,19.4,19.7c0.1,0,0.2,0,0.3,0
		c0.2,0,0.5,0,0.7,0c0.5,0,1.1,0,1.6-0.1c12-0.8,23.7-2.4,35.1-4.9V-1935z"/>
</g>
<text transform="matrix(1 0 0 1 1300.3658 1107.4276)" style="fill:#313233; font-family:'Archia-Medium'; font-size:217.7147px;">OCF</text>
<g>
	<path class="st0" d="M1237.2,958.6h-109.4c-7.5,0-13.5,6-13.5,13.5v105.8C1174.6,1064.8,1222.4,1018.2,1237.2,958.6z"/>
	<path class="st1" d="M1280.3,973c0-0.3,0-0.6,0-0.9c0-7.5-6-13.5-13.5-13.5h-29.7c-14.8,59.6-62.6,106.2-122.9,119.3v29h0
		c0,0,0,0,0,0c0,7.4,5.9,13.4,13.3,13.5c0.1,0,0.1,0,0.2,0c0.2,0,0.3,0,0.5,0c0.4,0,0.7,0,1.1-0.1
		C1209.2,1115.2,1273.4,1052.3,1280.3,973C1280.3,973,1280.3,973,1280.3,973z"/>
	<path class="st2" d="M1114.3,972.1c0-7.5,6-13.5,13.5-13.5h109.4c2-8,3.4-16.2,4.1-24.6c0,0,0,0,0,0c0-0.3,0-0.6,0-0.9
		c0-7.5-6-13.5-13.5-13.5h-139c-7.5,0-13.5,6-13.5,13.5v134.8h0c0,0,0,0,0,0c0,7.4,5.9,13.4,13.3,13.5c0.1,0,0.1,0,0.2,0
		c0.2,0,0.3,0,0.5,0c0.4,0,0.7,0,1.1-0.1c8.2-0.5,16.2-1.7,24-3.3V972.1z"/>
</g>
<text transform="matrix(1 0 0 1 268.2526 1088.9133)" style="fill:#313233; font-family:'Archia-Medium'; font-size:217.7147px;">OCF</text>
<g>
	<path class="st0" d="M214.3,1103.9c0,0-19.2,19.2-36.2,36.2s-8.5,25.6-8.5,25.6l-25.6-25.6l-17.4-17.4c-11.8-11.8-11.8-30.9,0-42.6
		l53.3-53.3l34.5,34.5C226.1,1073,226.1,1092.1,214.3,1103.9z"/>
	<g>
		<defs>
			<path id="SVGID_1_" d="M214.3,1103.9c0,0-19.2,19.2-36.2,36.2s-8.5,25.6-8.5,25.6l-25.6-25.6l-17.4-17.4
				c-11.8-11.8-11.8-30.9,0-42.6l53.3-53.3l34.5,34.5C226.1,1073,226.1,1092.1,214.3,1103.9z"/>
		</defs>
		<clipPath id="SVGID_2_">
			<use xlink:href="#SVGID_1_"  style="overflow:visible;"/>
		</clipPath>
		<g class="st3">
			
				<image style="overflow:visible;" width="825" height="1003" xlink:href="686BEF1713A4F44D.png"  transform="matrix(0.3508 0 0 0.3508 -17.0947 826.623)">
			</image>
		</g>
	</g>
	<path class="st1" d="M198.8,1008.5c0,0-33.6,33.6-63.4,63.4s-11.2,48.5-11.2,48.5l-48.5-48.5L45.9,1042c-20.6-20.6-20.6-54,0-74.6
		l93.3-93.3l59.7,59.7C219.4,954.4,219.4,987.9,198.8,1008.5z"/>
</g>
<path class="st1" d="M-741.1,1019c0-0.3,0-0.6,0-0.9c0-7.6-6.2-13.8-13.8-13.8h-27.9c-0.5,68.6-56.3,124.1-125,124.1
	c-1.1,0-2.2,0-3.3,0v27.7h0c0,0,0,0,0,0c0,7.6,6.1,13.7,13.6,13.8c0.1,0,0.1,0,0.2,0c0.2,0,0.3,0,0.5,0c0.4,0,0.8,0,1.1-0.1
	C-813.9,1164.6-748.2,1100.3-741.1,1019C-741,1019.1-741.1,1019.1-741.1,1019z"/>
<path class="st2" d="M-907.8,878.4c-69,0-125,56-125,125c0,69,56,125,125,125s125-56,125-125C-782.8,934.3-838.7,878.4-907.8,878.4z
	 M-907.8,1048.4c-24.9,0-45-20.1-45-45c0-24.9,20.1-45,45-45s45,20.1,45,45C-862.8,1028.2-882.9,1048.4-907.8,1048.4z"/>
<g class="st4">
	<path class="st1" d="M-813.5,1085.5c0.6-0.7,1.3-1.5,1.9-2.2C-812.3,1084-812.9,1084.8-813.5,1085.5z"/>
	<path class="st1" d="M-876.6,1124.5c0.6-0.1,1.1-0.3,1.7-0.5C-875.5,1124.2-876,1124.3-876.6,1124.5z"/>
	<path class="st1" d="M-870.7,1122.8c0.6-0.2,1.1-0.4,1.7-0.6C-869.5,1122.4-870.1,1122.6-870.7,1122.8z"/>
	<path class="st1" d="M-867.8,1121.8c0.6-0.2,1.2-0.4,1.7-0.6C-866.6,1121.4-867.2,1121.6-867.8,1121.8z"/>
	<path class="st1" d="M-807.9,1078.6c15.6-20.7,24.9-46.4,25.1-74.3C-783,1032.1-792.3,1057.9-807.9,1078.6z"/>
	<path class="st1" d="M-809.7,1080.9c0.6-0.8,1.2-1.6,1.8-2.4C-808.5,1079.4-809.1,1080.1-809.7,1080.9z"/>
	<path class="st1" d="M-811.6,1083.2c0.6-0.7,1.2-1.5,1.8-2.3C-810.4,1081.7-811,1082.5-811.6,1083.2z"/>
	<path class="st1" d="M-819.6,1092c0.7-0.6,1.3-1.3,1.9-2C-818.4,1090.7-819,1091.4-819.6,1092z"/>
	<path class="st1" d="M-904.5,1128.3c0.3,0,0.7,0,1,0C-903.9,1128.3-904.2,1128.3-904.5,1128.3z"/>
	<path class="st1" d="M-873.6,1123.7c0.6-0.2,1.1-0.3,1.7-0.5C-872.5,1123.3-873.1,1123.5-873.6,1123.7z"/>
	<path class="st1" d="M-879.6,1125.2c0.6-0.1,1.1-0.3,1.7-0.4C-878.5,1124.9-879,1125.1-879.6,1125.2z"/>
	<path class="st1" d="M-901.3,1128.2c0.4,0,0.8-0.1,1.3-0.1C-900.5,1128.2-900.9,1128.2-901.3,1128.2z"/>
	<path class="st1" d="M-882.6,1125.9c0.5-0.1,1.1-0.2,1.6-0.4C-881.5,1125.6-882.1,1125.7-882.6,1125.9z"/>
	<path class="st1" d="M-911,1128.3c1.1,0,2.2,0,3.3,0C-908.9,1128.4-909.9,1128.4-911,1128.3L-911,1128.3z"/>
	<path class="st1" d="M-885.7,1126.4c0.5-0.1,1.1-0.2,1.6-0.3C-884.6,1126.2-885.1,1126.3-885.7,1126.4z"/>
	<path class="st1" d="M-888.8,1126.9c0.5-0.1,1.1-0.2,1.6-0.3C-887.7,1126.8-888.2,1126.9-888.8,1126.9z"/>
	<path class="st1" d="M-895,1127.7c0.5-0.1,1-0.1,1.5-0.2C-894,1127.6-894.5,1127.7-895,1127.7z"/>
	<path class="st1" d="M-898.2,1128c0.5,0,0.9-0.1,1.4-0.1C-897.2,1127.9-897.7,1128-898.2,1128z"/>
	<path class="st1" d="M-891.9,1127.4c0.5-0.1,1-0.1,1.5-0.2C-890.9,1127.2-891.4,1127.3-891.9,1127.4z"/>
	<path class="st1" d="M-864.9,1120.8c0.6-0.2,1.2-0.4,1.8-0.7C-863.7,1120.4-864.3,1120.6-864.9,1120.8z"/>
	<path class="st1" d="M-845.7,1111.9c0.6-0.4,1.3-0.7,1.9-1.1C-844.4,1111.2-845.1,1111.5-845.7,1111.9z"/>
	<path class="st1" d="M-840.6,1108.8c0.7-0.4,1.3-0.8,1.9-1.3C-839.3,1108-839.9,1108.4-840.6,1108.8z"/>
	<path class="st1" d="M-848.3,1113.4c0.6-0.3,1.3-0.7,1.9-1.1C-847.1,1112.7-847.7,1113-848.3,1113.4z"/>
	<path class="st1" d="M-843.1,1110.4c0.6-0.4,1.3-0.8,1.9-1.2C-841.8,1109.6-842.5,1110-843.1,1110.4z"/>
	<path class="st1" d="M-851,1114.8c0.6-0.3,1.3-0.7,1.9-1C-849.8,1114.1-850.4,1114.5-851,1114.8z"/>
	<path class="st1" d="M-859.2,1118.6c0.6-0.3,1.2-0.5,1.8-0.8C-858,1118.1-858.6,1118.3-859.2,1118.6z"/>
	<path class="st1" d="M-862,1119.8c0.6-0.2,1.2-0.5,1.8-0.7C-860.9,1119.3-861.4,1119.5-862,1119.8z"/>
	<path class="st1" d="M-853.7,1116.1c0.6-0.3,1.2-0.6,1.9-0.9C-852.5,1115.5-853.1,1115.8-853.7,1116.1z"/>
	<path class="st1" d="M-856.5,1117.4c0.6-0.3,1.2-0.6,1.9-0.9C-855.2,1116.8-855.8,1117.1-856.5,1117.4z"/>
	<path class="st1" d="M-835.6,1105.5c0.7-0.5,1.3-0.9,2-1.4C-834.3,1104.5-835,1105-835.6,1105.5z"/>
	<path class="st1" d="M-838.1,1107.2c0.7-0.4,1.3-0.9,1.9-1.3C-836.8,1106.3-837.4,1106.7-838.1,1107.2z"/>
	<path class="st1" d="M-821.8,1094.1c0.7-0.6,1.3-1.3,2-1.9C-820.5,1092.9-821.1,1093.5-821.8,1094.1z"/>
	<path class="st1" d="M-824,1096.1c0.7-0.6,1.3-1.2,2-1.8C-822.7,1094.9-823.3,1095.5-824,1096.1z"/>
	<path class="st1" d="M-817.6,1089.9c0.6-0.7,1.3-1.4,1.9-2C-816.3,1088.6-816.9,1089.2-817.6,1089.9z"/>
	<path class="st1" d="M-826.2,1098.1c0.7-0.6,1.3-1.1,2-1.7C-824.9,1097-825.5,1097.5-826.2,1098.1z"/>
	<path class="st1" d="M-833.2,1103.7c0.7-0.5,1.3-1,2-1.5C-831.9,1102.7-832.5,1103.2-833.2,1103.7z"/>
	<path class="st1" d="M-815.5,1087.7c0.6-0.7,1.3-1.4,1.9-2.1C-814.3,1086.3-814.9,1087-815.5,1087.7z"/>
	<path class="st1" d="M-828.5,1100c0.7-0.5,1.3-1.1,2-1.7C-827.2,1098.9-827.8,1099.5-828.5,1100z"/>
	<path class="st1" d="M-830.8,1101.9c0.7-0.5,1.3-1,2-1.6C-829.5,1100.9-830.2,1101.4-830.8,1101.9z"/>
</g>
<path class="st1" d="M-862.8,1004.3c-0.5,24.4-20.4,44.1-45,44.1c-1.1,0-2.2-0.1-3.3-0.1v80.1c1.1,0,2.2,0,3.3,0
	c68.7,0,124.5-55.5,125-124.1H-862.8z"/>
<path class="st1" d="M-867.8,1004.3h-29.4c-7.6,0-13.8,6.2-13.8,13.8v25.1v5c1.1,0.1,2.2,0.1,3.3,0.1c24.6,0,44.5-19.7,45-44.1
	H-867.8z"/>
<text transform="matrix(1 0 0 1 -700.9371 1088.9133)" style="fill:#313233; font-family:'Archia-Medium'; font-size:217.7147px;">OCF</text>
<g>
	<circle class="st5" cx="198.4" cy="150" r="47.7"/>
	<path class="st6" d="M198.4,4.9c-80.1,0-145.1,65-145.1,145.1c0,80.1,65,145.1,145.1,145.1s145.1-65,145.1-145.1
		C343.5,69.9,278.6,4.9,198.4,4.9z M198.4,245.6c-52.8,0-95.6-42.8-95.6-95.6c0-52.8,42.8-95.6,95.6-95.6
		c52.8,0,95.6,42.8,95.6,95.6C294.1,202.8,251.2,245.6,198.4,245.6z"/>
	<path class="st6" d="M557.4,236.1c-12.6,6.1-26.7,9.5-41.7,9.5c-52.8,0-95.6-42.8-95.6-95.6c0-52.8,42.8-95.6,95.6-95.6
		c15.2,0,29.6,3.6,42.4,9.9L594.3,28c-22.7-14.6-49.6-23.1-78.6-23.1c-80.1,0-145.1,65-145.1,145.1c0,80.1,65,145.1,145.1,145.1
		c28,0,54.1-7.9,76.2-21.6L557.4,236.1z"/>
	<polygon class="st6" points="804,4.9 687.4,4.9 655.7,4.9 639.7,4.9 639.7,295.1 687.4,295.1 687.4,52.6 804,52.6 	"/>
	
		<rect x="709" y="126.1" transform="matrix(6.123234e-17 -1 1 6.123234e-17 582.8094 882.8094)" class="st5" width="47.7" height="47.7"/>
</g>
</svg>
