<svg width="25" height="24" viewBox="0 0 25 24" fill="none" xmlns="http://www.w3.org/2000/svg">
<path fill-rule="evenodd" clip-rule="evenodd" d="M5.54833 6.6414L5.30051 7.44682C5.30046 7.44698 5.30046 7.44715 5.30051 7.44731C5.3006 7.44759 5.30082 7.4478 5.30109 7.44788L8.32834 8.27766C8.78134 8.40183 9.25106 8.14377 9.38919 7.69483C9.76014 6.3322 10.8757 5.58851 12.2383 5.58851C13.8488 5.58851 15.3353 6.70332 15.3353 8.37579C15.3353 9.86243 14.0966 10.9771 12.61 11.1631C11.2467 11.2862 10.2559 12.4637 10.2559 13.8263V14.2291C10.2559 15.3411 11.1573 16.2425 12.2693 16.2425H13.5088C13.9362 16.2425 14.2826 15.896 14.2826 15.4687C14.2826 15.1208 14.5166 14.8198 14.843 14.6993C17.4601 13.7327 19.3 11.2705 19.3 8.37593C19.3 4.53508 16.0171 1.56201 12.2383 1.56201C9.07919 1.56201 6.354 3.54433 5.54833 6.6414ZM12.3001 22.4374C13.7027 22.4374 14.8403 21.3007 14.8403 19.8973C14.8403 18.4948 13.7027 17.358 12.3001 17.358C10.8976 17.358 9.76004 18.4947 9.76004 19.8973C9.76004 21.3007 10.8976 22.4374 12.3001 22.4374Z" fill="#CC2955"/>
</svg>
