<svg width="24" height="24" viewBox="0 0 24 24" fill="none" xmlns="http://www.w3.org/2000/svg">
<path d="M2.87998 16.88C2.31818 17.4425 2.00262 18.205 2.00262 19C2.00262 19.795 2.31818 20.5575 2.87998 21.12C3.44249 21.6818 4.20498 21.9974 4.99998 21.9974C5.79499 21.9974 6.55748 21.6818 7.11998 21.12C7.6499 20.5513 7.9384 19.7991 7.92468 19.0219C7.91097 18.2447 7.59612 17.5032 7.04647 16.9535C6.49682 16.4039 5.75528 16.089 4.97808 16.0753C4.20087 16.0616 3.44868 16.3501 2.87998 16.88ZM5.70998 19.71C5.52168 19.8983 5.26629 20.0041 4.99998 20.0041C4.73368 20.0041 4.47829 19.8983 4.28998 19.71C4.10168 19.5217 3.99589 19.2663 3.99589 19C3.99589 18.7337 4.10168 18.4783 4.28998 18.29C4.38295 18.1963 4.49355 18.1219 4.61541 18.0711C4.73727 18.0203 4.86797 17.9942 4.99998 17.9942C5.132 17.9942 5.2627 18.0203 5.38456 18.0711C5.50642 18.1219 5.61702 18.1963 5.70998 18.29C5.80371 18.383 5.87811 18.4936 5.92888 18.6154C5.97964 18.7373 6.00578 18.868 6.00578 19C6.00578 19.132 5.97964 19.2627 5.92888 19.3846C5.87811 19.5064 5.80371 19.617 5.70998 19.71ZM4.99998 12C4.73477 12 4.48041 12.1054 4.29288 12.2929C4.10534 12.4804 3.99998 12.7348 3.99998 13C3.99998 13.2652 4.10534 13.5196 4.29288 13.7071C4.48041 13.8946 4.73477 14 4.99998 14C6.32607 14 7.59784 14.5268 8.53552 15.4645C9.4732 16.4021 9.99998 17.6739 9.99998 19C9.99998 19.2652 10.1053 19.5196 10.2929 19.7071C10.4804 19.8946 10.7348 20 11 20C11.2652 20 11.5196 19.8946 11.7071 19.7071C11.8946 19.5196 12 19.2652 12 19C12 17.1435 11.2625 15.363 9.94973 14.0503C8.63698 12.7375 6.8565 12 4.99998 12ZM4.99998 8C4.73477 8 4.48041 8.10536 4.29288 8.29289C4.10534 8.48043 3.99998 8.73478 3.99998 9C3.99998 9.26522 4.10534 9.51957 4.29288 9.70711C4.48041 9.89464 4.73477 10 4.99998 10C7.38693 10 9.67612 10.9482 11.3639 12.636C13.0518 14.3239 14 16.6131 14 19C14 19.2652 14.1053 19.5196 14.2929 19.7071C14.4804 19.8946 14.7348 20 15 20C15.2652 20 15.5196 19.8946 15.7071 19.7071C15.8946 19.5196 16 19.2652 16 19C15.9922 16.084 14.8353 13.2886 12.78 11.22C10.7114 9.16472 7.916 8.00775 4.99998 8ZM15.61 8.39C12.7888 5.58754 8.97653 4.01018 4.99998 4C4.73477 4 4.48041 4.10536 4.29288 4.29289C4.10534 4.48043 3.99998 4.73478 3.99998 5C3.99998 5.26522 4.10534 5.51957 4.29288 5.70711C4.48041 5.89464 4.73477 6 4.99998 6C8.4478 6 11.7544 7.36964 14.1924 9.80761C16.6303 12.2456 18 15.5522 18 19C18 19.2652 18.1053 19.5196 18.2929 19.7071C18.4804 19.8946 18.7348 20 19 20C19.2652 20 19.5196 19.8946 19.7071 19.7071C19.8946 19.5196 20 19.2652 20 19C19.9898 15.0235 18.4124 11.2112 15.61 8.39Z" fill="#044F54"/>
</svg>
