<svg width="28" height="28" viewBox="0 0 28 28" fill="none" xmlns="http://www.w3.org/2000/svg">
<path d="M0.666687 17.5598C0.666687 18.2671 0.947638 18.9454 1.44774 19.4455C1.94783 19.9456 2.62611 20.2265 3.33335 20.2265C4.0406 20.2265 4.71887 19.9456 5.21897 19.4455C5.71907 18.9454 6.00002 18.2671 6.00002 17.5598V14.8932H3.33335C2.62611 14.8932 1.94783 15.1741 1.44774 15.6742C0.947638 16.1743 0.666687 16.8526 0.666687 17.5598ZM17.52 13.1065C18.2273 13.1065 18.9055 12.8256 19.4056 12.3255C19.9057 11.8254 20.1867 11.1471 20.1867 10.4398V3.33317C20.1867 2.62593 19.9057 1.94765 19.4056 1.44755C18.9055 0.947455 18.2273 0.666504 17.52 0.666504C16.8128 0.666504 16.1345 0.947455 15.6344 1.44755C15.1343 1.94765 14.8534 2.62593 14.8534 3.33317V10.4398C14.8533 10.7923 14.9232 11.1412 15.0589 11.4665C15.1945 11.7918 15.3934 12.087 15.6438 12.3349C15.8943 12.5829 16.1914 12.7788 16.518 12.9112C16.8446 13.0437 17.1943 13.11 17.5467 13.1065H17.52ZM27.28 10.4398C27.28 9.73259 26.9991 9.05432 26.499 8.55422C25.9989 8.05412 25.3206 7.77317 24.6134 7.77317C23.9061 7.77317 23.2278 8.05412 22.7277 8.55422C22.2276 9.05432 21.9467 9.73259 21.9467 10.4398V13.1065H24.6134C24.968 13.1136 25.3205 13.0499 25.6502 12.919C25.9799 12.7882 26.2802 12.5929 26.5335 12.3446C26.7868 12.0962 26.9881 11.7999 27.1254 11.4728C27.2627 11.1457 27.3334 10.7946 27.3334 10.4398H27.28ZM10.4534 14.8932C9.74611 14.8932 9.06783 15.1741 8.56774 15.6742C8.06764 16.1743 7.78669 16.8526 7.78669 17.5598V24.6665C7.78669 25.3737 8.06764 26.052 8.56774 26.5521C9.06783 27.0522 9.74611 27.3332 10.4534 27.3332C11.1606 27.3332 11.8389 27.0522 12.339 26.5521C12.8391 26.052 13.12 25.3737 13.12 24.6665V17.5598C13.12 16.8526 12.8391 16.1743 12.339 15.6742C11.8389 15.1741 11.1606 14.8932 10.4534 14.8932ZM17.5467 21.9998H14.88V24.6665C14.88 25.1939 15.0364 25.7095 15.3294 26.148C15.6225 26.5866 16.0389 26.9284 16.5262 27.1302C17.0135 27.332 17.5496 27.3848 18.0669 27.2819C18.5842 27.179 19.0594 26.9251 19.4323 26.5521C19.8052 26.1792 20.0592 25.704 20.1621 25.1867C20.265 24.6695 20.2122 24.1333 20.0104 23.646C19.8085 23.1587 19.4667 22.7423 19.0282 22.4493C18.5897 22.1562 18.0741 21.9998 17.5467 21.9998ZM24.6667 14.8932H17.5467C16.8394 14.8932 16.1612 15.1741 15.6611 15.6742C15.161 16.1743 14.88 16.8526 14.88 17.5598C14.88 18.2671 15.161 18.9454 15.6611 19.4455C16.1612 19.9456 16.8394 20.2265 17.5467 20.2265H24.6667C25.3739 20.2265 26.0522 19.9456 26.5523 19.4455C27.0524 18.9454 27.3334 18.2671 27.3334 17.5598C27.3334 16.8526 27.0524 16.1743 26.5523 15.6742C26.0522 15.1741 25.3739 14.8932 24.6667 14.8932ZM10.4534 7.77317H3.33335C2.62611 7.77317 1.94783 8.05412 1.44774 8.55422C0.947638 9.05432 0.666687 9.73259 0.666687 10.4398C0.666687 11.1471 0.947638 11.8254 1.44774 12.3255C1.94783 12.8256 2.62611 13.1065 3.33335 13.1065H10.4534C11.1606 13.1065 11.8389 12.8256 12.339 12.3255C12.8391 11.8254 13.12 11.1471 13.12 10.4398C13.12 9.73259 12.8391 9.05432 12.339 8.55422C11.8389 8.05412 11.1606 7.77317 10.4534 7.77317ZM10.4534 0.666504C9.74611 0.666504 9.06783 0.947455 8.56774 1.44755C8.06764 1.94765 7.78669 2.62593 7.78669 3.33317C7.78669 4.04041 8.06764 4.71869 8.56774 5.21879C9.06783 5.71889 9.74611 5.99984 10.4534 5.99984H13.12V3.33317C13.12 2.62593 12.8391 1.94765 12.339 1.44755C11.8389 0.947455 11.1606 0.666504 10.4534 0.666504Z" fill="black"/>
</svg>
