<svg width="22" height="25" viewBox="0 0 22 25" fill="none" xmlns="http://www.w3.org/2000/svg">
<path d="M4.30266 16.7093C4.30249 17.1981 4.39862 17.6822 4.58555 18.1338C4.77249 18.5855 5.04657 18.9959 5.39215 19.3416C5.73772 19.6873 6.14802 19.9615 6.5996 20.1486C7.05118 20.3357 7.53519 20.432 8.024 20.432C9.02129 20.4469 9.98472 20.0704 10.7076 19.3832C11.4305 18.6959 11.8552 17.7528 11.8907 16.756L11.9333 0H15.3707C15.5268 1.49319 16.2028 2.88398 17.2806 3.92913C18.3584 4.97427 19.7694 5.60724 21.2667 5.71733V9.71067C21.0707 9.72933 20.8733 9.74 20.676 9.74C19.6123 9.74074 18.5652 9.47633 17.6293 8.97069C16.6934 8.46505 15.8984 7.73413 15.316 6.844V16.7107C15.316 18.1529 14.8883 19.5627 14.0871 20.7619C13.2858 21.961 12.147 22.8957 10.8145 23.4476C9.48209 23.9995 8.01591 24.1439 6.6014 23.8626C5.18689 23.5812 3.88758 22.8867 2.86778 21.8669C1.84797 20.8471 1.15347 19.5478 0.872112 18.1333C0.590748 16.7188 0.735154 15.2526 1.28707 13.9201C1.83898 12.5877 2.77362 11.4488 3.97278 10.6476C5.17194 9.84634 6.58178 9.41867 8.024 9.41867C8.176 9.41867 8.32533 9.432 8.47466 9.44133V13.0413C8.32545 13.0175 8.17497 13.0023 8.024 12.996C7.03842 12.996 6.0931 13.387 5.39544 14.0831C4.69779 14.7793 4.30478 15.7238 4.30266 16.7093Z" fill="black"/>
</svg>
