<svg width="16" height="16" viewBox="0 0 16 16" fill="none" xmlns="http://www.w3.org/2000/svg">
<path d="M8 15C4.1335 15 1 11.8666 1 8C1 4.13336 4.1328 1 8 1C11.8528 1 15 4.14719 15 8C15 11.8665 11.8528 15 8 15ZM8 2.00226C7.73209 2.00226 7.30872 2.48185 6.94158 3.56901C6.77234 4.07728 6.64499 4.65555 6.53254 5.27688C7.01214 5.30445 7.49174 5.31878 7.99994 5.31878C8.49388 5.31878 8.98781 5.30445 9.45366 5.26255C9.35498 4.64183 9.21386 4.063 9.04462 3.55468C8.69127 2.48191 8.25411 2.00232 7.99999 2.00232L8 2.00226ZM8 6.3346C7.46362 6.3346 6.92724 6.30649 6.41956 6.27837C6.36333 6.82853 6.33467 7.4217 6.33467 8.01433C6.33467 8.60694 6.36278 9.18577 6.41956 9.75029C6.92783 9.70784 7.46365 9.69406 8 9.69406C8.53635 9.69406 9.07276 9.72218 9.58044 9.75029C9.63667 9.20014 9.66534 8.60697 9.66534 8.01433C9.66534 7.42173 9.63722 6.82912 9.58044 6.27837C9.07272 6.30649 8.53635 6.3346 8 6.3346ZM2.00226 8C2.00226 8.93164 2.21394 9.80652 2.59486 10.5964C3.34293 10.2579 4.31643 10.0038 5.41733 9.84832C5.3611 9.24138 5.33244 8.62066 5.33244 7.99932C5.33244 7.37861 5.36055 6.75733 5.41733 6.15032C4.30268 5.99486 3.32856 5.74129 2.59486 5.40226C2.21394 6.19332 2.00226 7.06822 2.00226 7.99977V8ZM8 13.9977C8.26791 13.9977 8.69128 13.5181 9.05843 12.431C9.22766 11.9227 9.35501 11.3445 9.46746 10.7231C8.98786 10.6956 8.49393 10.6812 8.00006 10.6812C7.50618 10.6812 7.01219 10.6956 6.54635 10.7374C6.64502 11.3582 6.78614 11.937 6.95538 12.4453C7.2944 13.5181 7.73211 13.9977 8.00001 13.9977L8 13.9977ZM10.5683 9.849C11.683 10.0045 12.6571 10.258 13.3908 10.5971C13.7717 9.80655 13.9834 8.93167 13.9834 8.00068C13.9834 7.06904 13.7717 6.19416 13.3908 5.40429C12.6427 5.74276 11.6692 5.9969 10.5683 6.15236C10.6245 6.7593 10.6532 7.38002 10.6532 8.00136C10.667 8.62097 10.6389 9.24225 10.5683 9.84922V9.849ZM12.883 11.4719C12.248 11.1897 11.4012 10.978 10.4414 10.8512C10.2722 12.0077 9.97561 13.038 9.56658 13.7861C10.921 13.419 12.0924 12.5866 12.883 11.472L12.883 11.4719ZM6.43325 13.7861C6.02422 13.038 5.72763 11.9939 5.54406 10.8369C4.58431 10.978 3.73754 11.1897 3.10248 11.4576C3.893 12.5866 5.06438 13.4189 6.43328 13.7861L6.43325 13.7861ZM3.10302 4.52808C3.73808 4.79599 4.58482 5.02201 5.5446 5.1488C5.72817 3.9917 6.02419 2.94699 6.43379 2.1996C5.06445 2.58107 3.893 3.41349 3.10299 4.52814L3.10302 4.52808ZM9.56661 2.21394C9.97564 2.96201 10.2722 4.00607 10.4558 5.16314C11.4156 5.02201 12.2623 4.81033 12.8974 4.54242C12.0925 3.41343 10.9211 2.58109 9.56658 2.21389L9.56661 2.21394Z" fill="#75777A"/>
</svg>
