<svg width="468" height="451" viewBox="0 0 468 451" fill="none" xmlns="http://www.w3.org/2000/svg">
<path fill-rule="evenodd" clip-rule="evenodd" d="M214.575 2.83914C212.665 5.52085 212.058 8.22946 211.374 17.1285C210.323 30.7988 209.364 35.3767 205.378 45.7267C203.639 50.2425 202.215 54.7624 202.215 55.7715C202.215 60.4145 200.312 56.4774 196.22 43.3721C192.077 30.1002 187.753 18.4791 185.813 15.4062C185.146 14.3464 183.512 14.3971 177.485 15.665C173.361 16.5323 169.116 17.707 168.053 18.2763C166.989 18.8455 165.188 19.3113 164.051 19.3113C162.913 19.3113 161.082 20.5926 159.979 22.1576C158.102 24.8248 158.001 26.6122 158.362 50.6234C158.647 69.4905 159.145 77.3928 160.252 80.6075C161.438 84.0479 161.518 85.9223 160.626 89.4589C160.005 91.9264 159.742 96.8302 160.041 100.358C160.808 109.397 165.978 129.834 167.661 130.479C168.693 130.876 168.815 130.552 168.13 129.243C166.749 126.606 161.925 105.398 161.505 100.109C160.883 92.3052 165.187 76.2367 167.899 76.2367C169.696 76.2367 173.09 81.3621 177.84 91.2443C180.576 96.9369 184.71 105.553 187.027 110.392C191.982 120.742 191.673 120.243 192.582 119.333C192.977 118.939 190.832 113.621 187.816 107.518C184.801 101.413 180.169 92.0402 177.522 86.6871C172.401 76.3288 167.762 71.3173 165.949 74.1864C165.417 75.0289 164.796 76.1849 164.57 76.7542C164.345 77.3245 163.325 76.9933 162.301 76.0173C160.635 74.4306 160.403 71.662 160.067 49.4155L159.692 24.5857L162.061 23.0477C165.231 20.9901 172.652 18.6365 178.559 17.8147C183.046 17.1916 183.519 17.352 185.539 20.1869C188.042 23.7028 199.379 57.3695 198.524 58.7513C198.21 59.2605 199.028 59.6755 200.343 59.6745C202.321 59.6735 203.025 58.7357 204.424 54.2407C205.353 51.2537 207.346 45.4038 208.851 41.2431C210.852 35.713 211.851 30.2513 212.562 20.9466C213.228 12.2111 214.099 7.23067 215.334 5.07786L217.135 1.94074L225.463 2.44376C236.245 3.09375 237.28 4.16704 240.28 17.8271C242.04 25.8432 242.63 32.5563 242.954 48.2915C243.183 59.3919 243.66 68.5911 244.015 68.7329C247.334 70.0639 249.461 64.6922 254.978 41.0464C256.557 34.2816 259.739 27.4941 265.727 18.119C269.475 12.2505 270.399 11.3873 271.982 12.2732C273.65 13.2068 273.772 14.3857 273.182 23.8156C272.821 29.592 271.594 40.6066 270.457 48.2915C269.319 55.9764 267.965 65.5244 267.447 69.5092C266.93 73.4939 265.791 79.7816 264.915 83.4818C263.116 91.0932 262.96 92.7978 264.07 92.7947C264.497 92.7937 265.731 88.9507 266.812 84.2559C267.893 79.5611 270.509 69.8973 272.627 62.7816C274.744 55.6659 277.265 46.8166 278.228 43.1165C280.874 32.9548 282.606 29.0207 287.139 22.8862C291.999 16.3098 301.565 6.8943 303.389 6.89223C304.09 6.8912 304.944 8.17252 305.287 9.73746C305.63 11.3024 306.084 13.1499 306.296 13.8423C306.913 15.8575 303.947 33.9059 301.544 42.7583C296.252 62.2548 295.504 65.3153 295.926 65.7366C296.461 66.2727 296.366 66.5687 300.892 50.3615C307.196 27.7901 309.123 14.4902 307.156 7.14994C306.134 3.33387 302.609 4.34921 296.388 10.255C283.326 22.6544 280.455 28.0416 274.179 51.913C272.085 59.8815 270.116 66.6349 269.805 66.9206C269.052 67.6109 269.911 60.0854 272.522 43.1165C274.614 29.5165 275.323 14.9425 274.053 11.6336C273.707 10.7331 272.427 10.0035 271.206 10.0128C269.592 10.0242 267.683 12.0683 264.199 17.5166C256.825 29.0455 255.122 33.0127 252.411 44.9753C249.111 59.5379 246.116 68.8861 245.38 66.9216C245.06 66.0677 244.542 56.1689 244.227 44.9256C243.782 28.9855 243.157 22.379 241.387 14.9394C238.475 2.68906 236.508 0.475183 228.871 0.853996C225.883 1.002 221.974 0.764987 220.185 0.327178C217.29 -0.381802 216.672 -0.105455 214.575 2.83914ZM331.319 24.8672C327.901 26.99 321.726 34.4907 309.151 51.7929C303.812 59.1404 295.719 75.8807 296.925 77.0854C297.648 77.8079 297.689 77.7333 301.09 69.5092C302.738 65.5244 305.581 60.1682 307.407 57.6066C313.989 48.3743 320.324 39.3946 323.899 34.233C327.37 29.2194 333.762 24.4863 337.059 24.4863C339.381 24.4863 339.995 30.9344 338.295 37.4612C336.669 43.7043 333.448 50.4867 327.331 60.5584C325.134 64.1747 323.337 67.464 323.337 67.8687C323.337 68.2734 322.115 71.1362 320.622 74.2319C319.128 77.3265 316.862 82.188 315.585 85.0343C314.309 87.8805 312.051 91.325 310.568 92.6881C307.693 95.3326 307.755 97.2039 310.689 96.2962C311.94 95.9091 311.853 96.1171 310.397 97C309.258 97.6903 307.28 99.2015 306.001 100.36C302.284 103.725 302.558 102.042 306.746 95.7849C315.043 83.3907 315.792 76.098 308.522 78.5261C303.778 80.1097 301.29 82.7003 293.704 93.9478C289.995 99.4457 286.166 104.812 285.192 105.874C281.67 109.716 272.648 123.194 273.218 123.763C273.538 124.085 274.191 123.652 274.666 122.804C275.141 121.954 276.97 119.449 278.729 117.235C280.489 115.023 281.928 112.844 281.928 112.394C281.928 111.943 282.52 110.959 283.244 110.207C286.664 106.65 292.28 99.1952 292.28 98.2099C292.28 97.6044 292.657 96.9544 293.117 96.764C293.577 96.5746 295.523 94.0906 297.44 91.2443C302.302 84.0272 306.303 80.3767 309.352 80.3767C310.781 80.3767 311.949 80.888 311.949 81.5142C311.949 83.2509 308.791 89.7291 305.692 94.3493C295.587 109.413 286.996 123.104 284.585 127.987C282.19 132.84 267.093 156.461 265.403 158.002C265.09 158.287 263.456 160.383 261.773 162.66C260.089 164.937 258.227 167.366 257.637 168.057C251.857 174.836 248.599 180.842 252.424 177.667C253.278 176.958 253.977 176.02 253.977 175.58C253.977 175.141 255.375 173.284 257.084 171.455C260.176 168.146 261.688 166.047 272.365 150.24C275.442 145.686 279.39 140.466 281.138 138.64L284.317 135.322L286.847 137.605C288.239 138.862 290.111 140.678 291.008 141.642C292.165 142.885 293.153 143.118 294.414 142.444C296.217 141.478 307.66 123.638 311.319 116.084C312.423 113.807 313.883 111.246 314.567 110.392C315.249 109.538 316.631 106.632 317.638 103.935C319.667 98.4976 318.897 96.3169 314.721 95.6845C312.773 95.3895 313.529 94.2945 320.311 87.6011C334.91 73.1907 342.078 68.1668 350.516 66.4279C357.798 64.9282 361.33 65.6051 365.792 69.3591C367.467 70.7688 370.246 72.2302 371.968 72.609C373.689 72.9868 375.088 73.6088 375.076 73.9897C375.041 74.9843 365.304 84.2704 358.017 90.2569C350.367 96.5415 349.607 97.4202 347.186 102.774C344.737 108.188 343.907 108.669 340.267 106.772C336.828 104.979 331.883 105.575 326.443 108.439C320.979 111.314 319.984 112.404 316.158 119.707C314.219 123.407 312.246 126.59 311.773 126.779C311.3 126.97 310.914 127.598 310.914 128.176C310.914 129.578 303.764 141.109 301.974 142.594C300.477 143.836 300.03 146.641 301.338 146.583C302.342 146.539 312.05 131.45 312.718 128.898C312.997 127.828 313.578 126.952 314.008 126.952C314.436 126.952 316.362 123.865 318.286 120.091C322.109 112.594 323.988 110.928 331.003 108.818C335.057 107.597 336.207 107.629 339.852 109.061C342.156 109.966 344.042 111.027 344.042 111.42C344.042 114.408 340.406 122.838 336.588 128.703C334.065 132.578 331.253 136.956 330.34 138.432C328.752 140.998 314.483 155.932 313.619 155.932C313.391 155.932 311.768 154.592 310.014 152.952C306.99 150.129 301.597 148.078 301.597 149.752C301.597 151.213 267.58 185.402 266.851 184.673C266.451 184.274 267.608 182.185 269.421 180.031C276.178 172.008 283.602 163.874 287.506 160.219C291.767 156.229 295.325 149.717 295.363 145.841C295.376 144.56 294.92 143.512 294.351 143.512C293.781 143.512 293.315 144.458 293.315 145.615C293.315 149.122 290.688 154.143 286.457 158.721C284.251 161.107 280.946 164.717 279.113 166.742C277.28 168.766 275.409 170.422 274.956 170.422C274.502 170.422 272.539 172.868 270.594 175.856C265.108 184.285 261.459 187.775 258.687 187.245C257.379 186.996 255.782 187.416 255.138 188.18C252.302 191.553 246.91 200.416 244.302 205.998C242.739 209.34 241.211 211.826 240.907 211.521C240.382 210.996 242.8 200.671 247.711 182.476C248.917 178.005 250.832 172.649 251.967 170.574C255.67 163.799 258.315 159.619 260.66 156.833C263.92 152.96 272.611 135.841 272.611 133.293C272.611 132.123 271.689 130.672 270.561 130.068C268.577 129.007 268.634 128.719 272.373 120.976C274.497 116.579 279.378 107.458 283.222 100.708C287.066 93.9581 290.21 87.7874 290.21 86.9935C290.21 86.2007 291.024 85.5518 292.021 85.5518C293.512 85.5507 293.88 84.4712 294.095 79.4545C294.347 73.5943 294.245 73.3263 291.507 72.5583C286.109 71.0451 285.304 71.663 274.566 85.5518C268.275 93.69 263.144 102.135 261.831 106.511C261.533 107.506 260.758 108.322 260.109 108.322C259.461 108.322 259.19 107.647 259.507 106.823C259.823 105.998 260.392 99.5947 260.772 92.5919C261.436 80.3374 260.324 68.7132 258.294 66.6836C256.928 65.3184 248.406 70.6756 243.478 75.9976C240.984 78.6907 237.103 84.5975 234.853 89.1236C231.168 96.5363 230.72 98.2989 230.346 106.867C229.968 115.5 229.711 116.496 227.563 117.645C224.122 119.487 222.396 124.535 219.249 141.96C217.707 150.498 216.103 157.863 215.686 158.324C215.268 158.786 214.112 153.779 213.117 147.198C211.658 137.55 210.758 134.473 208.467 131.313C206.905 129.157 205.056 125.662 204.358 123.55C203.661 121.437 202.661 119.707 202.135 119.707C201.61 119.707 201.18 119.008 201.18 118.155C201.18 115.65 196.52 116.258 195.229 118.931C193.395 122.727 191.863 128.121 191.863 130.781C191.863 132.147 191.081 134.755 190.123 136.578C188.163 140.309 187.532 147.528 189.001 149.418C189.534 150.105 189.695 151.113 189.358 151.659C189.02 152.204 189.225 152.888 189.812 153.179C190.399 153.469 190.286 153.587 189.56 153.44C188.834 153.293 188.24 152.513 188.24 151.706C188.24 148.331 176.67 137.302 173.13 137.302C172.046 137.302 171.159 136.836 171.159 136.267C171.159 135.698 170.643 135.232 170.014 135.232C169.384 135.232 167.87 133.973 166.649 132.432C162.632 127.365 155.653 117.136 155.642 116.3C155.635 115.849 155.174 114.917 154.616 114.23C154.058 113.543 151.199 109.719 148.265 105.734C139.574 93.9343 138 93.3888 135.725 101.385C134.365 106.163 134.347 108.1 135.581 116.438C136.872 125.157 140.005 140.37 141.768 146.476C142.406 148.684 142.233 148.848 139.994 148.149C137.028 147.225 130.012 141.905 127.258 138.49C124.712 135.337 117.425 130.057 115.619 130.057C113.199 130.057 114.093 131.587 117.622 133.487C119.492 134.494 124.083 138.21 127.822 141.744C135.88 149.36 144.687 153.471 147.906 151.117C149.722 149.791 149.705 149.722 147.561 149.722C145.938 149.722 144.844 148.633 143.659 145.841C140.877 139.285 137.013 118.602 137.004 110.218C136.991 96.9855 138.279 96.172 145.278 104.994C150.267 111.283 161.842 128.595 161.842 129.768C161.842 130.158 163.324 132.005 165.136 133.873C168.536 137.382 168.566 138.276 165.301 138.797C162.553 139.235 163.207 143.931 167.678 155.871C172.135 167.772 174.346 172.236 177.838 176.385C179.288 178.108 180.476 179.977 180.476 180.536C180.476 181.096 181.124 182.092 181.917 182.749C183.564 184.117 184.827 188.018 183.622 188.018C183.182 188.018 181.59 186.158 180.085 183.884C177.608 180.141 172.961 176.349 166.398 172.715C165.077 171.983 160.727 168.385 156.731 164.719C147.525 156.273 144.975 155.507 141.046 160.006C136.328 165.408 135.733 174.767 139.815 179.352C142.646 182.534 150.436 187.437 155.872 189.458C158.567 190.461 161.828 192.203 163.119 193.33L165.465 195.38L163.136 194.249C161.855 193.628 160.806 193.379 160.806 193.695C160.806 194.011 158.997 193.347 156.786 192.22C154.575 191.092 150.964 190.072 148.763 189.954C146.561 189.836 144.009 189.105 143.09 188.329C142.172 187.554 139.068 186.64 136.192 186.299L130.963 185.68L128.731 190.055C126.58 194.27 126.358 194.406 122.689 193.757C120.594 193.385 118.065 192.843 117.068 192.55C116.071 192.258 115.256 192.476 115.256 193.037C115.256 193.597 117.608 194.561 120.483 195.177C126.594 196.487 129.849 196.611 129.503 195.521C129.367 195.094 129.89 193.232 130.665 191.381C132.367 187.312 135.951 186.899 141.902 190.088C144.026 191.226 147.071 192.158 148.668 192.158C150.266 192.158 153.359 193.069 155.543 194.183C157.728 195.298 159.762 195.962 160.063 195.661C161.154 194.569 168.725 200.344 175.656 207.555C179.552 211.611 183.162 214.928 183.679 214.928C185.669 214.928 184.433 212.996 179.848 208.946C177.17 206.58 175.39 204.233 175.787 203.591C176.525 202.397 167.934 194.076 162.58 190.802C160.895 189.772 157.016 187.993 153.961 186.85C147.139 184.299 140.442 177.949 139.549 173.185C138.586 168.053 142.828 159.037 146.204 159.037C146.797 159.037 150.672 162.105 154.82 165.856C158.967 169.606 164.021 173.531 166.052 174.578C168.083 175.624 170.352 177.214 171.095 178.109C171.839 179.005 173.002 179.737 173.681 179.737C174.359 179.737 176.49 181.84 178.416 184.408C181.979 189.163 186.007 192.493 186.998 191.501C187.927 190.572 184.65 183.813 179.073 175.16C173.692 166.809 167.251 151.308 166.307 144.434C165.859 141.181 166.107 140.614 168.216 140.049C172.454 138.916 175.142 139.315 176.535 141.288C177.279 142.342 179.384 143.975 181.214 144.918C183.573 146.133 184.853 147.758 185.616 150.506C186.208 152.637 188.102 156.45 189.826 158.98C191.549 161.511 193.23 164.654 193.559 165.967C193.888 167.279 194.573 168.352 195.081 168.352C195.589 168.352 196.004 169.256 196.004 170.361C196.004 171.467 196.47 172.658 197.039 173.01C197.609 173.362 198.074 174.629 198.074 175.826C198.074 177.024 199.238 179.988 200.661 182.414C202.082 184.84 202.964 187.559 202.62 188.456C202.21 189.525 202.568 190.088 203.657 190.088C205.46 190.088 205.922 186.973 204.355 185.378C203.824 184.838 202.187 180.801 200.718 176.41C199.249 172.018 197.113 166.841 195.97 164.905C191.183 156.792 189.266 142.315 192.247 136.785C193.168 135.077 193.926 132.515 193.933 131.092C193.95 127.454 196.026 120.355 197.308 119.551C198.392 118.871 203.251 123.841 203.251 125.63C203.251 126.162 204.591 128.657 206.23 131.174C209.275 135.851 210.986 141.885 212.006 151.538C212.322 154.528 213.169 158.72 213.889 160.853C214.802 163.558 214.951 166.898 214.385 171.904C213.774 177.294 213.897 179.28 214.881 179.889C215.769 180.437 215.071 181.089 212.721 181.909L209.251 183.119L209.929 189.966C210.303 193.734 211.112 199.507 211.728 202.798C212.345 206.089 212.644 208.986 212.394 209.236C211.791 209.84 198.074 188.672 198.074 187.138C198.074 186.484 197.325 185.948 196.409 185.948C194.097 185.948 183.58 196.677 183.585 199.031C183.592 202.191 187.371 207.446 195.57 215.698C199.829 219.983 203.129 223.676 202.901 223.902C202.674 224.13 199.98 223.423 196.917 222.332C191.14 220.276 176.646 217.377 175.896 218.127C175.661 218.362 175.16 219.781 174.784 221.279C174.24 223.446 174.746 224.664 177.253 227.228C178.987 229.002 181.093 230.453 181.932 230.453C182.772 230.453 183.789 230.987 184.192 231.639C184.712 232.479 184.091 232.615 182.06 232.106C177.782 231.032 165.065 232.553 163.264 234.354C160.961 236.657 152.094 235.518 137.461 231.043C120.706 225.917 116.505 223.899 115.669 220.571C114.837 217.258 115.529 216.612 121.689 214.956C125.429 213.951 128.091 213.909 133.077 214.779C136.655 215.403 143.078 216.161 147.348 216.464C151.619 216.767 158.605 218.131 162.875 219.496C170.895 222.059 172.194 222.063 172.194 219.524C172.194 218.465 170.948 218.033 167.903 218.033C162.511 218.033 147.571 210.709 138.134 203.44C134.489 200.633 131.285 198.558 131.015 198.828C130.243 199.599 139.027 207.41 142.969 209.46C144.923 210.475 147.988 212.105 149.781 213.083L153.042 214.863L145.278 214.305C141.008 213.997 135.312 213.321 132.621 212.801C126.852 211.686 118.794 212.513 115.515 214.558C113.863 215.588 113.186 217.004 113.186 219.429C113.186 224.857 117.15 227.579 129.232 230.45C132.079 231.127 135.34 232.089 136.479 232.589C137.617 233.09 141.111 234.169 144.243 234.987L149.936 236.475L138.549 236.636C117.551 236.932 108.073 238.475 107.928 241.62C107.878 242.698 107.642 242.885 107.324 242.097C107.015 241.331 104.902 240.803 102.143 240.803C97.379 240.803 82.6384 237.539 77.9882 235.454C76.5647 234.816 72.8379 233.753 69.7063 233.092L64.0126 231.89L64.1057 224.758C64.1627 220.342 64.6555 217.474 65.3998 217.225C66.8864 216.73 66.9992 213.893 65.5333 213.893C64.9453 213.893 64.2134 214.708 63.9049 215.704C63.5964 216.7 62.9121 218.324 62.3842 219.312C61.8562 220.3 61.4244 222.204 61.4244 223.54V225.971L39.9435 226.102C18.153 226.234 9.7387 225.373 6.08642 222.634C2.724 220.113 5.94762 218.337 17.4076 216.394C27.6253 214.663 40.3162 214.73 56.5072 216.6C60.3986 217.05 62.4597 216.913 62.4597 216.205C62.4597 215.609 60.0145 214.799 57.0248 214.406C54.035 214.013 47.6301 212.374 42.7904 210.765C35.1504 208.226 21.8498 204.54 13.9178 202.764C10.8691 202.082 4.15266 195.312 2.45178 191.207C1.44243 188.772 1.47145 187.595 2.59778 185.249C3.97566 182.378 4.16715 182.323 13.302 182.201C29.8677 181.978 45.246 184.391 64.9081 190.297C71.4818 192.271 72.1608 192.751 73.9652 196.693C77.6651 204.773 80.777 206.846 92.7122 209.179C96.8551 209.989 102.309 211.664 104.83 212.903C112.036 216.442 108.284 217.513 95.6947 215.513C85.711 213.926 66.6575 213.259 67.9402 214.543C68.2984 214.9 73.1506 215.383 78.7242 215.617C84.2979 215.85 91.0392 216.528 93.705 217.123C101.131 218.781 107.546 218.47 110.515 216.307C112.904 214.568 114.404 211.982 112.253 213.312C111.741 213.629 108.13 212.549 104.23 210.914C100.33 209.279 93.9668 207.358 90.0889 206.648C84.5121 205.625 82.2688 204.628 79.3567 201.884C75.8649 198.591 75.7126 198.166 76.3938 193.622C76.9259 190.075 76.7976 189.027 75.8979 189.582C75.0977 190.076 74.8132 189.673 75.0637 188.398C75.3712 186.829 76.3162 186.49 80.0803 186.598C87.1613 186.8 97.7455 188.675 101.926 190.467C103.989 191.352 105.985 191.767 106.362 191.39C108.32 189.432 90.6407 184.934 79.541 184.567C75.0802 184.419 74.224 184.717 73.343 186.724C72.1401 189.464 70.0335 189.684 66.7828 187.408C65.4909 186.503 63.7092 186.041 62.822 186.381C61.9359 186.722 58.1294 186.048 54.3622 184.885C43.1765 181.431 6.17961 178.366 2.65674 180.603C1.93415 181.06 0.92369 182.897 0.411252 184.685C-0.93972 189.396 1.05729 194.739 6.11438 199.942C9.93747 203.875 11.3474 204.569 18.5847 206.092C27.3531 207.935 43.8257 212.662 43.8257 213.334C43.8257 213.558 40.2158 213.557 35.8026 213.331C18.9325 212.463 1.9259 216.658 2.6195 221.517C2.79239 222.731 3.53359 223.725 4.2655 223.725C4.99844 223.725 5.93013 224.24 6.33593 224.868C7.77594 227.094 20.71 228.321 40.3741 228.094C57.9119 227.892 62.8779 228.31 61.3292 229.858C61.087 230.1 53.9056 231.479 45.3691 232.922C30.231 235.481 11.0235 241.066 5.96948 244.377C1.85549 247.071 2.66182 250.713 8.66821 256.562C15.6612 263.372 18.9947 264.601 30.5934 264.643L40.2024 264.68L32.7507 267.619C23.473 271.279 17.2016 274.936 13.6663 278.747C10.7966 281.841 7.78112 288.946 8.87329 290.039C9.22734 290.392 12.9065 291.571 17.0505 292.659C23.4379 294.336 25.5373 294.466 30.8408 293.517C39.1309 292.032 51.0805 288.821 58.2297 286.158C61.41 284.973 65.9919 283.493 68.4122 282.868C70.8326 282.244 72.812 281.373 72.812 280.933C72.812 279.63 71.2468 279.959 60.1171 283.603C54.2887 285.51 44.2574 288.393 37.8245 290.007L26.1305 292.944L18.4139 291.023C14.1705 289.966 10.6984 288.932 10.6984 288.725C10.6984 286.745 14.4904 280.162 16.7037 278.299C20.9264 274.745 29.878 270.438 39.6847 267.242C44.5244 265.666 49.6488 263.949 51.0723 263.428L53.6603 262.481L51.0723 264.556C49.6488 265.698 48.1343 266.643 47.7078 266.655C47.2812 266.668 46.9313 267.117 46.9313 267.654C46.9313 269.803 79.1269 269.653 88.1903 267.461C92.7857 266.35 94.3458 266.248 93.3665 267.121C79.0337 279.903 76.1145 282.072 72.281 282.784C57.2795 285.57 16.4149 314.4 14.2761 323.706C13.7502 325.994 14.1364 326.595 16.8539 327.721C18.7049 328.487 21.6758 328.782 23.915 328.422C28.4814 327.687 46.9313 319.556 46.9313 318.277C46.9313 317.055 47.0194 317.027 39.8763 320.486C28.316 326.085 21.9388 327.928 18.7213 326.599C17.155 325.952 15.8745 325.223 15.8745 324.979C15.8745 322.088 23.501 313.859 32.494 307.043C34.3719 305.62 36.4082 303.969 37.02 303.374C39.5729 300.892 64.2611 286.577 67.1183 285.922C68.8264 285.531 70.9983 284.981 71.9445 284.701C73.5097 284.237 73.4974 284.522 71.8079 287.835C70.7861 289.838 69.6276 294.057 69.2332 297.209C68.554 302.646 68.2964 303.05 64.1948 305.11C59.0963 307.67 52.8093 312.231 53.4708 312.891C53.7255 313.146 56.9005 311.473 60.5259 309.173C64.1523 306.875 67.701 304.989 68.4122 304.984C70.7881 304.965 69.7083 308.57 66.7103 310.666C62.2889 313.756 54.3871 320.474 49.6095 325.203C44.4592 330.3 32.4381 344.44 32.4381 345.401C32.4381 345.783 33.3895 347.304 34.5531 348.783C37.2261 352.18 42.3131 353.174 49.5742 351.715C54.6665 350.693 65.5623 346.219 68.1462 344.091C73.3659 339.791 82.129 334.628 82.129 335.853C82.129 336.357 78.2852 340.687 73.5884 345.475C63.116 356.148 56.6003 367.768 57.7256 373.763C58.5268 378.034 59.2971 378.168 70.0189 375.896C76.339 374.557 87.122 369.408 94.4545 364.227C96.8634 362.525 96.909 362.534 95.8438 364.512C95.2371 365.636 93.4855 367.721 91.9492 369.144C87.1002 373.636 83.4666 379.808 81.2087 387.387C78.6983 395.815 78.6672 396.054 80.0586 396.054C80.628 396.054 81.0939 395.522 81.0939 394.872C81.0939 394.222 82.0213 390.576 83.1549 386.769C85.0473 380.418 87.8258 376.056 94.1221 369.552C95.3084 368.325 97.5414 365.17 99.0829 362.54C100.624 359.911 102.025 357.759 102.196 357.759C102.367 357.759 102.463 359.918 102.411 362.557C102.342 366.03 102.805 367.665 104.085 368.476C108.673 371.384 125.42 357.638 134.707 343.341C141.175 333.383 146.442 326.493 147.092 327.141C147.581 327.632 142.345 339.092 134.992 353.619C129.47 364.528 127.926 368.785 127.358 374.673C127.006 378.314 122.669 384.669 120.535 384.669C120.119 384.669 118.761 386.416 117.517 388.55C114.011 394.57 111.098 397.52 104.625 401.602C97.2516 406.253 93.7991 406.395 89.3435 402.234C85.0773 398.25 84.2109 398.88 88.152 403.097C92.2059 407.436 95.9814 408.247 100.635 405.779C102.671 404.699 105.163 403.001 106.173 402.005C109.147 399.072 109.996 399.922 108 403.835C105.934 407.886 106.307 411.227 108.916 412.055C109.861 412.355 111.75 414.644 113.115 417.141C114.869 420.353 116.929 422.33 120.154 423.896L124.713 426.111L128.008 423.824C132.27 420.865 135.19 417.966 137.471 414.425C140.396 409.886 141.112 411.121 138.913 416.907C137.799 419.839 137.028 423.663 137.201 425.407C137.475 428.189 138.085 428.743 142.172 429.918C144.734 430.655 148.228 431.915 149.936 432.718C151.645 433.521 154.793 434.502 156.934 434.898C159.073 435.294 161.999 436.541 163.434 437.671C165.118 438.994 166.675 439.447 167.824 438.946C169.446 438.239 169.428 438.127 167.609 437.7C166.511 437.442 165.021 436.64 164.298 435.918C163.576 435.196 159.117 433.564 154.39 432.29C149.663 431.017 144.165 429.197 142.172 428.246C139.089 426.775 138.592 426.06 138.842 423.447C139.416 417.421 144.417 406.208 149.103 400.438C151.074 398.01 152.506 395.48 152.283 394.814C152.062 394.149 150.511 395.377 148.838 397.544C134.624 415.949 129.515 421.685 126.202 422.954C123.261 424.08 116.752 420.366 115.23 416.692C114.58 415.122 112.706 412.641 111.066 411.181C108.115 408.552 108.1 408.479 109.608 404.206C111.433 399.034 128.714 378.483 128.714 381.484C128.714 383.211 133.142 382.801 135.989 380.81C144.402 374.932 146.706 372.306 151.68 362.934C166.951 334.159 166.799 334.425 167.553 335.179C168.062 335.688 167.066 338.785 158.293 363.969C156.211 369.946 154.298 376.699 154.043 378.976C152.378 393.861 152.55 394.722 156.983 393.609C158.232 393.296 160.181 391.272 161.314 389.112C162.447 386.953 163.637 384.954 163.956 384.669C165.697 383.122 169.076 376.461 167.878 376.939C167.12 377.24 165.103 379.866 163.394 382.773C156.534 394.449 154.595 395.224 154.595 386.292C154.595 381.176 160.833 357.708 162.866 355.171C163.323 354.602 164.167 352.506 164.741 350.514C165.316 348.521 167.24 342.234 169.017 336.541C170.793 330.849 172.499 325.375 172.808 324.38C173.15 323.272 172.839 322.598 172.004 322.643C171.255 322.683 168.527 326.992 165.942 332.217C157.421 349.446 147.892 367.555 146.313 369.522C140.937 376.215 133.268 381.306 130.285 380.162C128.738 379.568 128.579 378.615 129.173 373.53C129.695 369.059 132 363.243 138.5 349.996C143.249 340.319 148.432 329.491 150.019 325.932C151.606 322.375 153.401 319.471 154.009 319.479C155.708 319.504 157.264 320.825 158.028 322.894C158.532 324.257 159.582 324.682 161.866 324.446C164.306 324.194 165.596 323.137 167.618 319.735C170.529 314.837 168.719 314.617 165.465 319.472C163.002 323.149 160.303 323.451 158.632 320.24C157.966 318.959 157.282 317.748 157.113 317.55C156.944 317.351 154.095 316.953 150.783 316.665C143.841 316.06 144.085 316.202 142.573 311.885C141.59 309.081 141.772 307.895 143.799 303.847C147.925 295.612 155.386 286.987 165.982 278.207C167.866 276.646 168.127 276.052 166.944 276.027C165.071 275.988 153.662 286.659 148.015 293.732C143.373 299.546 139.331 307.288 139.607 309.834C140.09 314.295 142.115 317.216 145.191 317.891C146.919 318.271 148.81 318.287 149.394 317.927C151.301 316.748 150.507 318.91 148.066 321.544C145.417 324.402 135.649 338.202 132.182 343.986C130.958 346.028 128.745 349.079 127.265 350.765C125.785 352.451 124.573 354.249 124.573 354.76C124.573 355.271 124.065 355.689 123.444 355.689C122.824 355.689 119.862 357.785 116.863 360.346C113.864 362.908 110.912 365.004 110.302 365.004C109.692 365.004 108.464 365.733 107.574 366.623C105.105 369.091 103.869 367.484 103.869 361.806C103.869 354.77 102.018 354.332 96.1937 359.988C89.9358 366.066 76.1248 373.055 67.728 374.394C62.5043 375.228 60.909 375.167 60.2382 374.11C59.0601 372.253 59.1367 368.109 60.349 368.109C60.8966 368.109 61.8458 366.25 62.4576 363.977C64.319 357.066 83.0337 337.088 86.8972 337.887C87.7233 338.058 91.2432 337.47 94.7195 336.579C101.339 334.884 110.59 328.898 115.119 323.381C118.914 318.758 116.807 318.658 112.429 323.255C104.754 331.311 99.5902 334.134 89.6344 335.715C86.595 336.199 86.2699 336.001 86.2699 333.668C86.2699 329.977 88.1851 326.744 95.6957 317.757C99.3366 313.399 104.913 306.528 108.087 302.487C114.633 294.157 120.068 288.497 123.344 286.602C126.232 284.932 125.877 284.759 128.124 288.931C130.494 293.33 132.553 293.511 139.903 289.966C142.853 288.543 145.525 287.378 145.84 287.378C146.619 287.378 156.135 280.954 161.842 276.576C166.139 273.278 166.678 273.118 168.793 274.498C170.813 275.815 171.556 275.788 175.004 274.279C182.749 270.889 193.446 265.414 194.971 264.062C195.826 263.303 197.922 262.153 199.629 261.507L202.733 260.332L200.447 262.471C199.189 263.647 197.923 264.608 197.632 264.608C197.342 264.608 194.283 266.587 190.833 269.007C187.384 271.426 183.749 273.871 182.756 274.441C174.753 279.028 170.123 283.631 170.123 286.999C170.123 289.405 170.86 289.801 177.37 290.897C181.379 291.573 183.937 292.719 185.876 294.709C187.557 296.434 187.521 296.917 185.226 303.6C183.891 307.486 181.546 313.46 180.015 316.876C176.593 324.51 175.6 331.654 177.594 334.3C178.38 335.345 180.632 336.54 182.597 336.956C187.533 338.002 187.204 339.916 179.293 356.206C175.699 363.607 172.592 370.01 172.391 370.438C172.188 370.865 172.477 371.214 173.032 371.214C173.588 371.214 176.869 365.508 180.323 358.535C183.776 351.562 186.621 346.635 186.644 347.586C186.684 349.197 183.68 367.361 179.995 387.774C177.576 401.186 178.211 407.439 181.992 407.439C183.097 407.439 183.224 408.109 182.533 410.285C180.043 418.121 178.042 422.602 175.16 426.79C173.419 429.319 172.219 431.615 172.494 431.889C172.768 432.163 174.055 430.671 175.352 428.571L177.713 424.754L179.015 429.811C179.73 432.592 182.1 438.024 184.278 441.883C188.08 448.617 188.365 448.869 191.346 448.171C194.95 447.326 199.236 447.234 207.909 447.815C214.887 448.282 218.779 446.783 218.779 443.628C218.779 440.688 219.747 441.081 225.279 446.27C228.45 449.243 231.169 450.909 232.849 450.909C239.537 450.909 252.942 441.27 252.942 436.461C252.942 435.605 251.827 436.545 250.464 438.549C246.991 443.659 240.374 447.962 235.108 448.534C230.927 448.989 230.39 448.725 225.347 443.756C220.836 439.31 219.909 437.734 219.362 433.576C219.006 430.871 219.194 427.03 219.781 425.042C221.184 420.292 221.064 417.573 219.587 420.635C218.969 421.916 218.185 422.962 217.844 422.96C217.505 422.958 216.365 420.862 215.312 418.303C214.259 415.743 212.971 413.649 212.452 413.649C211.931 413.649 212.25 415.396 213.162 417.53C214.073 419.666 215.183 422.343 215.629 423.482C216.075 424.62 216.772 429.591 217.177 434.527C217.904 443.358 217.873 443.532 215.29 445.224C213.005 446.722 211.698 446.794 205.193 445.785C201.083 445.148 195.796 444.915 193.443 445.267C189.168 445.908 189.164 445.905 185.079 439.87C181.238 434.193 180.997 433.389 181.055 426.413C181.09 422.332 181.617 418.373 182.229 417.615C182.841 416.857 183.663 414.735 184.055 412.9C184.506 410.795 186.221 408.413 188.699 406.45C197.673 399.344 204.438 384.529 208.334 363.451C209.491 357.19 211.101 350.22 211.911 347.962C213.705 342.967 216.201 341.561 215.423 345.983C212.446 362.907 211.414 370.726 210.522 383.116C208.905 405.606 208.953 406.258 212.309 407.557C215.711 408.874 224.09 406.338 227.82 402.864C230.09 400.75 230.131 400.257 230.165 374.836C230.2 347.724 231.502 338.199 232.697 356.319C233.81 373.198 234.164 372.692 233.865 354.654L233.583 337.576L240.131 337.602C243.732 337.617 247.176 338.126 247.784 338.733C248.392 339.341 249.642 345.85 250.563 353.198C251.624 361.666 252.77 366.995 253.693 367.756C254.494 368.415 255.079 369.237 254.992 369.582C254.008 373.502 259.67 388.296 265.266 396.429C267.024 398.983 268.918 402.272 269.475 403.738C270.802 407.228 274.044 407.198 277.319 403.665C280.077 400.69 280.226 399.586 279.886 384.669L279.663 374.836L283.048 379.494C290.931 390.341 299.95 396.737 305.488 395.408C307.049 395.035 307.978 395.102 307.554 395.559C307.128 396.017 308.079 397.181 309.666 398.146C314.693 401.202 324.42 413.14 325.05 417.027C325.603 420.428 325.364 420.752 319.295 424.803C315.582 427.282 310.562 429.568 307.156 430.33L301.348 431.629L293.167 422.898C288.668 418.096 284.627 412.802 284.187 411.132C283.746 409.463 282.837 407.914 282.167 407.692C279.679 406.863 283.463 414.427 288.323 420C290.985 423.053 294.684 427.343 296.541 429.535C299.627 433.173 300.251 433.463 303.772 432.9C309.508 431.983 321.1 426.384 324.688 422.797C326.736 420.749 327.019 419.093 326.035 414.928C325.069 410.84 307.577 392.33 305.747 393.46C302.904 395.218 297.499 392.766 291.921 387.189C281.303 376.574 277.089 368.241 272.066 347.926C271.081 343.941 270.051 339.168 269.776 337.317C269.299 334.093 269.423 333.953 272.757 333.939C279.335 333.913 281.132 332.947 280.655 329.692C280.317 327.394 280.512 326.997 281.553 327.863C282.285 328.469 283.188 329.971 283.561 331.201C283.933 332.43 285.464 335.066 286.962 337.059C288.46 339.051 291.937 344.407 294.688 348.961C300.237 358.149 308.741 367.564 313.502 369.792C315.21 370.591 317.307 371.669 318.161 372.188C320.025 373.321 329.211 376.375 332.195 376.856C335.109 377.324 340.936 374.744 340.936 372.986C340.936 372.197 338.956 368.534 336.536 364.845C332.16 358.175 326.116 352.092 319.196 347.396C313.66 343.639 305.509 334.989 307.507 334.989C308.087 334.989 309.673 336.067 311.032 337.386C315.813 342.025 328.364 351.504 332.751 353.791C339.17 357.135 347.447 357.384 353.359 354.411C360.304 350.915 360.194 348.167 352.813 340.788C349.604 337.579 345.502 334.195 343.698 333.266C339.082 330.89 325.13 319.464 326.844 319.464C327.118 319.464 329.585 320.853 332.327 322.553C338.296 326.252 344.616 327.57 358.209 327.946C366.237 328.168 369.184 327.841 372.251 326.385C377.087 324.089 377.152 322.333 372.51 319.464C365.554 315.165 368.482 314.708 381.31 318.09C390.072 320.401 405.15 325.721 408.68 327.748C422.961 335.949 428.872 339.129 429.832 339.129C430.449 339.129 431.737 337.848 432.695 336.282C433.654 334.716 435.562 331.732 436.936 329.649C439.277 326.098 439.335 325.674 437.864 322.829C437.002 321.162 433.447 317.16 429.964 313.936C423.422 307.88 419.507 305.78 401.718 298.78C398.424 297.483 395.924 296.228 396.162 295.99C396.4 295.75 406.329 296.976 418.227 298.712C445.393 302.676 448.322 302.733 449.621 299.315C450.991 295.714 448.339 289.89 444.173 287.349C442.337 286.23 438.39 284.601 435.4 283.73C432.411 282.858 429.965 281.954 429.965 281.72C429.965 281.487 433.669 281.287 438.195 281.277C445.176 281.261 447.05 280.865 450.531 278.668C452.789 277.243 454.934 275.597 455.296 275.01C456.146 273.635 452.966 269.361 449.635 267.4C445.466 264.944 432.593 261.826 417.025 259.499C397.37 256.561 393.565 255.281 405.379 255.581C414.464 255.812 417.368 254.971 411.073 253.934C409.223 253.629 403.864 253.32 399.167 253.247C392.367 253.142 390.627 253.419 390.627 254.604C390.627 255.423 391.907 256.338 393.474 256.64C395.04 256.94 399.582 257.884 403.567 258.736C407.553 259.589 415.938 261.07 422.201 262.029C441.166 264.929 446.484 266.583 451.446 271.119C454.647 274.045 454.35 275.191 449.867 277.224C443.459 280.129 441.019 280.352 428.779 279.142C412.2 277.504 409.954 277.195 398.909 275.033C393.5 273.974 388.717 273.323 388.281 273.587C386.604 274.6 388.832 275.993 392.13 275.993C394.029 275.993 399.009 276.645 403.198 277.443C407.386 278.24 413.994 279.423 417.88 280.071C421.766 280.718 425.726 281.656 426.68 282.155C427.633 282.652 431.441 284.086 435.142 285.339C438.843 286.594 442.749 288.38 443.824 289.311C446.821 291.905 448.604 296.821 447.378 299.111C446.317 301.093 446.499 301.09 435.046 299.34C433.675 299.13 429.991 298.652 426.86 298.275C414.931 296.843 407.902 295.838 394.25 293.612C391.403 293.148 385.813 291.512 381.827 289.977C377.842 288.441 371.003 286.312 366.63 285.245C362.257 284.177 355.691 281.892 352.037 280.166C348.383 278.44 344.418 277.028 343.226 277.028C342.033 277.028 340.785 276.585 340.45 276.045C339.918 275.185 356.814 274.433 368.887 274.779C378.832 275.065 399.135 269.62 399.732 266.507C400.014 265.031 398.645 264.068 394.768 263.017C394.483 262.94 393.551 262.616 392.697 262.296C379.283 257.279 360.965 252.838 360.017 254.372C359.756 254.794 362.227 255.672 365.509 256.321C374.556 258.109 381.089 259.955 389.053 262.97C396.907 265.943 399.561 267.697 396.269 267.739C395.159 267.752 391.455 268.717 388.039 269.883C376.262 273.899 326.199 274.612 323.841 270.796C323.532 270.295 324.223 268.123 325.379 265.968C328.637 259.888 328.217 258.759 322.022 256.959C310.711 253.672 289.581 249.881 291.245 251.438C291.53 251.704 297.12 252.937 303.668 254.178C310.216 255.418 317.822 257.214 320.573 258.167C325.334 259.818 325.543 260.051 324.949 263.031C324.606 264.752 323.878 266.313 323.332 266.499C322.785 266.686 321.846 268.666 321.244 270.901C320.606 273.269 319.066 275.674 317.551 276.666C315.275 278.157 314.218 278.207 309.051 277.071C305.805 276.356 301.985 275.374 300.562 274.889C299.139 274.402 295.059 273.274 291.495 272.381C287.932 271.488 282.894 269.49 280.297 267.942C275.921 265.33 275.604 264.855 275.921 261.389C276.249 257.791 274.911 255.293 272.654 255.293C272.061 255.293 271.576 254.827 271.576 254.258C271.576 253.689 271.226 253.296 270.799 253.388C270.373 253.478 269.324 253.284 268.47 252.956C267.616 252.629 265.543 252.058 263.865 251.686C258.832 250.572 262.657 249.323 273.574 248.515C282.691 247.841 286.501 246.489 283.869 244.863C282.194 243.828 280.915 236.771 282.253 235.945C282.882 235.555 287.842 234.931 293.274 234.557C300.46 234.062 301.599 233.824 297.456 233.685C287.981 233.368 293.892 231.466 305.98 230.943C313.506 230.617 315.852 230.776 314.02 231.487C311.855 232.326 312.121 232.411 315.642 232.007C317.958 231.741 321.403 231.968 323.297 232.512C327.56 233.734 339.528 234.91 338.637 234.018C338.277 233.66 332.709 232.429 326.26 231.282C311.899 228.726 299.796 228.595 292.798 230.919C287.474 232.686 262.543 234.756 257.709 233.832C254.226 233.167 254.282 231.97 257.859 230.602C261.978 229.026 272.578 222.975 279.752 218.104C286.274 213.676 287.722 213.16 288.349 215.042C288.608 215.816 291.762 215.325 298.012 213.537C314.1 208.935 327.719 205.869 329.734 206.396C331.048 206.74 331.486 207.505 331.088 208.76C330.764 209.781 331.216 213.711 332.094 217.494C334.039 225.879 334.097 224.817 331.568 227.173C329.56 229.043 329.548 229.177 331.344 229.646C332.388 229.919 336.72 229.094 340.971 227.813C356.047 223.268 373.173 219.068 376.625 219.068C384.758 219.068 389.723 232.692 382.748 235.868C381.424 236.471 380.514 237.247 380.726 237.59C380.938 237.934 380.108 238.266 378.882 238.327C377.655 238.388 370.425 240.361 362.816 242.709C355.206 245.058 346.122 247.229 342.63 247.536C339.136 247.842 334.05 248.334 331.326 248.628C328.603 248.923 325.945 248.897 325.418 248.572C323.935 247.656 297.326 247.422 296.77 248.32C296.5 248.758 295.728 248.801 295.056 248.416C294.383 248.031 294.153 248.072 294.543 248.506C294.935 248.94 301.799 249.226 309.799 249.141C322.326 249.007 324.263 249.201 323.75 250.534C323.238 251.869 324.626 252.001 333.858 251.486C340.22 251.132 346.164 251.338 348.516 251.994C351.844 252.922 352.284 252.871 351.287 251.669C350.636 250.885 349.088 250.091 347.848 249.907C346.594 249.721 349.039 248.731 353.359 247.676C368.656 243.943 383.308 239.098 385.634 237.005C388.37 234.544 389.049 228.028 386.911 224.764L385.112 222.02L388.645 222.443C391.841 222.827 392.154 223.157 391.906 225.884C391.647 228.744 391.714 228.798 393.184 226.914C394.644 225.043 402.014 223.751 402.014 225.366C402.014 225.74 407.023 226.267 413.143 226.536C421.707 226.913 426.18 227.687 432.553 229.895C447.37 235.027 447.564 235.156 447.564 239.884C447.564 242.17 446.587 246.313 445.392 249.09C442.82 255.067 441.217 255.659 427.895 255.551C420.356 255.49 419.614 255.628 422.719 256.521C427.979 258.031 442.853 256.621 444.763 254.431C446.685 252.225 448.291 246.82 448.912 240.457C449.371 235.757 449.207 235.337 446.211 233.516C444.459 232.45 438.338 230.061 432.613 228.206C424.292 225.511 420.303 224.802 412.748 224.674C401.188 224.48 398.534 223.316 405.685 221.58C418.725 218.414 426.902 215.953 431.366 213.855C438.244 210.623 443.78 203.962 445.481 196.867C446.241 193.701 446.65 190.899 446.391 190.64C445.27 189.519 421.76 187.872 420.105 188.798C418.873 189.487 422.052 190.073 430.877 190.781C437.764 191.335 443.598 191.988 443.844 192.232C444.089 192.477 443.775 194.921 443.148 197.663C442.237 201.645 440.926 203.636 436.631 207.561C430.955 212.747 425.486 214.931 404.799 220.267L395.68 222.621L387.2 219.778C377.571 216.55 375.351 216.397 368.383 218.494C361.833 220.465 363.501 218.976 373.04 214.335C377.298 212.263 382.065 209.653 383.634 208.538C385.202 207.421 386.486 206.767 386.486 207.084C386.486 207.649 389.412 205.436 392.296 202.693C393.086 201.94 393.732 199.609 393.732 197.51C393.732 194.09 394.219 193.401 398.433 190.857C401.018 189.295 403.506 188.018 403.962 188.018C404.417 188.018 407.542 186.67 410.907 185.023C414.272 183.377 418.889 181.197 421.166 180.179C423.444 179.163 427.73 176.668 430.693 174.636C438.255 169.447 439.814 165.334 436.743 158.676C435.916 156.882 435.101 153.785 434.931 151.792L434.624 148.17L427.329 148.226C420.77 148.276 418.889 148.819 408.695 153.599C402.458 156.524 394.272 159.896 390.503 161.094C386.733 162.29 382.774 163.986 381.703 164.86C379.814 166.404 379.818 166.43 381.827 165.748C382.966 165.362 386.227 164.342 389.074 163.481C391.921 162.618 395.881 161.084 397.873 160.069C399.866 159.055 401.858 158.199 402.3 158.169C402.742 158.139 406.996 156.222 411.752 153.91C424.682 147.623 433.071 147.241 433.071 152.938C433.071 154.63 433.998 157.832 435.131 160.052C436.479 162.693 436.919 164.824 436.405 166.215C435.26 169.31 425.456 176.376 416.507 180.558C412.237 182.554 405.85 185.529 402.313 187.171C398.777 188.811 395.243 190.796 394.459 191.579C393.251 192.787 392.109 192.551 386.913 190.015C382.663 187.942 379.188 187.022 375.546 187.005C369.709 186.979 359.57 189.619 359.57 191.163C359.57 192.472 360.189 192.418 366.232 190.585C371.599 188.957 381.964 189.293 383.826 191.155C384.378 191.706 385.596 192.158 386.532 192.158C389.063 192.158 391.877 195.784 391.486 198.542C390.784 203.495 366.057 217.014 345.591 223.633C336.261 226.65 334.537 226.873 334.857 225.019C334.98 224.308 334.785 221.164 334.423 218.033C332.875 204.612 332.862 202.508 334.334 202.508C335.118 202.508 335.76 202.042 335.76 201.473C335.76 200.903 336.574 200.435 337.571 200.431C338.568 200.427 340.717 199.729 342.348 198.879C343.979 198.028 346.103 197.333 347.068 197.333C348.032 197.333 349.726 196.648 350.832 195.813C353.19 194.03 352.471 193.829 348.767 195.237C346.943 195.93 346.112 195.9 346.112 195.14C346.112 194.532 347.012 193.799 348.111 193.511C349.21 193.224 350.361 192.336 350.666 191.538C351.358 189.739 349.83 189.649 347.997 191.381C346.369 192.921 334.165 199.414 332.97 199.376C332.047 199.347 329.818 194.369 327.185 186.465C325.26 180.689 324.663 181.877 332.648 175.597C334.457 174.174 336.547 172.444 337.293 171.751C340.982 168.322 347.707 166.865 359.993 166.833L372.322 166.8L372.453 169.719C372.587 172.676 370.758 174.743 360.151 183.619C357.827 185.564 356.797 186.983 357.708 186.983C359.36 186.983 363.739 183.77 370.405 177.667C378.304 170.435 378.419 170.284 377.926 167.706C377.57 165.848 378.151 164.693 380.154 163.28C384.996 159.861 398.177 153.607 407.708 150.205C419.26 146.081 420.603 144.229 418.705 135.04C418.027 131.761 416.328 126.62 414.93 123.615C413.531 120.612 412.382 117.608 412.377 116.941C412.371 116.274 410.819 115.217 408.928 114.593C406.217 113.699 404.519 113.801 400.906 115.079C398.384 115.972 394.224 117.168 391.662 117.738C386.863 118.807 370.281 126.569 369.255 128.227C367.96 130.323 369.8 129.742 376.18 126.041C379.877 123.898 385.222 121.572 388.058 120.873C390.894 120.174 395.733 118.674 398.812 117.539C407.049 114.501 409.08 115.366 413.226 123.68C416.014 129.269 416.707 131.946 416.849 137.66L417.025 144.727L407.586 148.117C402.394 149.981 396.105 152.562 393.61 153.854C391.115 155.146 387.676 156.907 385.968 157.768C384.26 158.629 381.246 160.534 379.27 162C375.856 164.533 375.11 164.653 364.26 164.406C356.756 164.234 350.978 164.657 347.406 165.638C344.416 166.458 341.971 166.806 341.971 166.41C341.971 166.013 343.95 163.52 346.371 160.87C360.194 145.73 361.475 143.803 365.472 132.127C367.136 127.266 369.082 125.039 377.686 118.155C380.531 115.877 383.361 113.549 383.972 112.979C384.584 112.41 387.231 110.314 389.854 108.322C392.478 106.33 394.828 103.955 395.076 103.044C395.324 102.135 394.427 99.573 393.082 97.3519C391.738 95.1318 390.635 92.2545 390.632 90.9597C390.615 83.6867 373.483 86.3001 362.563 95.2415C355.541 100.99 348.479 106.252 347.786 106.252C347.492 106.252 348.277 104.332 349.528 101.986C350.817 99.573 355.163 94.9641 359.535 91.3768C370.244 82.5885 379.472 73.3097 378.716 72.0884C378.37 71.5264 376.254 70.7739 374.015 70.4158C371.775 70.0587 368.87 68.6925 367.56 67.3822C364.244 64.0681 361.384 63.5889 351.532 64.6974C343.737 65.5751 342.449 66.0574 337.039 70.1364C333.773 72.5986 328.103 77.398 324.439 80.8021C320.776 84.2063 317.608 86.4812 317.4 85.8581C317.058 84.8324 321.39 75.802 335.174 48.809C340.263 38.8419 342.121 31.691 341.026 26.2903C340.151 21.9785 336.768 21.4827 331.319 24.8672ZM115.172 37.5802C113.057 41.5308 113.373 49.638 116.013 59.1591C117.275 63.7131 119.465 71.6961 120.878 76.9001C123.356 86.0258 132.521 106.931 133.58 105.872C134.415 105.037 131.708 97.7442 129.162 93.9747C126.634 90.231 123.595 81.0143 118.305 61.0552C114.745 47.6177 114.545 40.2785 117.657 37.1672C119.095 35.7296 119.63 35.9708 123.058 39.6026C128.524 45.3945 136.587 57.2826 144.747 71.5792C152.979 86.002 152.339 85.0467 153.196 84.1907C153.565 83.8212 152.739 81.7647 151.359 79.6191C147.505 73.6285 146.565 72.0232 143.314 65.8866C135.894 51.8778 122.288 34.8364 118.525 34.8364C117.488 34.8364 115.98 36.0712 115.172 37.5802ZM202.467 61.4878C200.655 63.0528 198.281 66.6629 197.188 69.5092C194.513 76.4851 191.579 94.2303 192.333 98.8744C192.669 100.94 193.009 104.616 193.091 107.043C193.176 109.564 193.909 112.004 194.801 112.735C196.141 113.832 196.262 113.646 195.653 111.427C191.414 95.9753 196.899 65.9529 204.723 61.7839C207.394 60.3607 207.685 60.4228 209.514 62.8189C210.584 64.2213 211.99 66.7664 212.636 68.4741C213.283 70.1819 214.185 72.5107 214.639 73.6492C216.256 77.693 221.084 95.4941 222.499 102.629C224.749 113.982 224.938 114.532 226.563 114.532C228.243 114.532 228.638 112.918 227.178 112.017C226.332 111.494 225.321 107.476 224.424 101.077C224.019 98.1809 220.6 86.8642 215.669 72.0967C212.49 62.5746 209.995 58.6416 207.137 58.6416C206.38 58.6416 204.279 59.9229 202.467 61.4878ZM82.0928 65.4126C79.5099 68.5238 75.9187 76.6259 75.955 79.2579C75.9902 81.8495 77.6102 88.9756 80.0917 97.4544C81.1911 101.214 86.007 111.198 87.329 112.462C88.7804 113.849 91.3954 118.671 90.6935 118.666C90.2535 118.662 87.4905 116.45 84.5536 113.749C81.6156 111.049 78.1113 107.908 76.7655 106.769C75.4187 105.631 71.5336 102.322 68.1298 99.4178C59.4918 92.0433 48.8537 85.9161 46.8444 87.1581C42.0399 90.1265 54.7463 118.945 66.0427 130.701C70.078 134.901 78.5368 144.986 83.6819 151.732C86.5288 155.465 89.4409 159.136 90.1521 159.888C90.9896 160.773 91.2204 162.669 90.8063 165.26C89.9512 170.608 92.9855 175.484 99.056 178.514C101.579 179.775 106.657 182.825 110.339 185.294C117.05 189.794 122.405 192.2 125.504 192.109C126.416 192.082 125.065 191.237 122.503 190.231C119.941 189.225 114.998 186.456 111.518 184.077C108.039 181.699 103.613 179.086 101.683 178.273C94.5466 175.264 91.2069 169.819 93.1283 164.326C93.9492 161.981 94.7443 161.582 99.1616 161.302C105.785 160.881 107.464 161.373 113.893 165.627C118.561 168.716 121.922 170.609 130.045 174.724C131.18 175.299 132.576 175.261 133.668 174.626C135.321 173.662 135.314 173.588 133.574 173.558C131.206 173.519 120.457 168.216 116.033 164.905C109.513 160.025 106.142 158.887 98.9774 159.147C91.3136 159.424 90.5454 158.957 84.1995 150.139C80.0689 144.4 78.0461 141.936 72.5066 135.895C63.4069 125.971 58.9088 119.885 55.1862 112.462C49.1767 100.481 45.92 88.6568 48.6291 88.6568C48.8724 88.6568 51.2679 89.786 53.9532 91.1667C59.9545 94.251 77.7025 108.868 94.1667 124.287C97.8874 127.771 98.4298 128.807 97.9805 131.572C97.5612 134.157 98.145 135.61 100.926 138.896C102.833 141.15 105.323 144.149 106.46 145.559C113.711 154.555 133.053 171.604 134.438 170.221C134.703 169.955 130.474 166.079 125.039 161.609C115.91 154.099 102.801 139.961 99.8625 134.456C98.5799 132.052 99.1284 131.587 102.678 132.073C103.447 132.179 103.769 131.769 103.394 131.161C102.992 130.511 103.614 130.057 104.904 130.057C106.212 130.057 106.817 129.606 106.405 128.938C106.024 128.322 104.672 128.08 103.399 128.4C100.573 129.109 98.6886 127.21 91.6863 116.585C84.2016 105.229 82.5866 101.629 79.6538 89.7446L77.0099 79.0364L80.0533 72.461C81.7273 68.8457 83.7419 65.8866 84.5297 65.8866C86.6871 65.8866 98.7165 75.4252 102.834 80.4016C111.811 91.2505 114.221 93.8825 114.221 92.8362C114.221 90.4567 98.2114 72.8926 92.0104 68.469C84.8135 63.3343 84.0204 63.09 82.0928 65.4126ZM258.861 81.5701C259.153 87.4603 258.899 97.1697 258.298 103.147C257.696 109.124 257.574 115.645 258.028 117.637L258.851 121.26L259.59 118.155C261.253 111.159 264.809 102.325 267.92 97.4544C271.452 91.9254 280.691 80.3343 284.627 76.4955C286.912 74.266 291.067 73.3149 291.407 74.9429C292.005 77.8089 291.829 81.4117 291.091 81.4117C290.606 81.4117 290.21 82.0369 290.21 82.8017C290.21 84.3832 282.934 99.2325 281.743 100.081C281.053 100.574 279.931 102.522 274.018 113.497C273.251 114.92 272.621 116.667 272.617 117.378C272.614 118.09 272.163 118.672 271.616 118.672C271.068 118.672 270.118 120.535 269.505 122.812C268.649 125.991 267.88 126.952 266.195 126.952C264.026 126.952 254.875 133.244 251.009 137.392C249.912 138.569 248.318 142.174 247.466 145.403C244.398 157.037 240.769 168.516 239.877 169.412C239.352 169.938 239.279 165.184 239.702 158.212C240.107 151.551 240.748 140.507 241.125 133.669L241.814 121.24L238.681 117.885C236.953 116.037 234.508 114.532 233.232 114.532C230.994 114.532 230.94 114.298 231.619 107.546C232.006 103.704 232.76 98.9158 233.293 96.9079C234.64 91.8394 242.261 79.4846 245.96 76.3723C247.647 74.9523 249.559 73.2848 250.208 72.6669C252.23 70.7408 256.522 69.1842 257.448 70.0422C257.933 70.4924 258.569 75.6799 258.861 81.5701ZM386.244 89.313C387.952 89.7715 388.895 91.1553 389.714 94.4042C390.332 96.8582 391.488 99.1155 392.285 99.4219C395.009 100.466 393.731 102.9 388.297 107.011C385.308 109.273 381.422 112.472 379.66 114.121C373.293 120.082 365.483 126.406 364.351 126.52C363.714 126.585 362.379 126.708 361.382 126.795C359.527 126.956 358.758 130.057 360.573 130.057C361.124 130.057 361.276 130.836 360.911 131.79C360.41 133.096 360.666 133.36 361.959 132.864C365.169 131.632 360.193 141.994 353.719 150.022C346.972 158.387 334.562 171.64 334 171.079C333.799 170.877 331.699 172.481 329.332 174.643C325.042 178.564 325.023 178.57 322.372 176.701C320.044 175.058 319.186 174.983 315.465 176.092C313.129 176.79 309.085 178.827 306.479 180.618C303.874 182.411 301.443 183.878 301.078 183.878C299.818 183.878 297.212 187.083 297.907 187.778C298.291 188.161 298.928 187.971 299.324 187.356C299.72 186.74 301.545 185.467 303.38 184.527C305.215 183.588 308.458 181.638 310.585 180.194C315.512 176.852 321.764 176.946 321.818 180.364C321.838 181.561 322.58 183.269 323.468 184.157C324.357 185.045 325.557 187.091 326.136 188.706C328.376 194.95 329.723 199.57 329.385 199.849C329.19 200.009 326.701 200.986 323.855 202.02C321.008 203.053 318.213 204.234 317.643 204.644C317.074 205.053 313.937 205.936 310.673 206.605C307.41 207.275 304.498 208.213 304.202 208.69C303.907 209.168 302.735 209.315 301.598 209.018C300.461 208.721 298.471 209.171 297.177 210.019C295.882 210.867 292.854 211.894 290.446 212.3C286.615 212.948 286.069 212.802 286.069 211.131C286.069 209.853 284.393 208.455 280.991 206.894C271.601 202.587 270.679 202.7 264.309 208.923C261.188 211.971 257.731 215.151 256.625 215.99C254.847 217.339 254.718 217.336 255.507 215.963C255.998 215.109 258.183 212.25 260.364 209.609C262.544 206.969 264.329 204.373 264.329 203.84C264.329 203.308 265.96 200.579 267.952 197.777C269.945 194.975 271.576 192.148 271.576 191.495C271.576 190.088 268.679 188.801 267.353 189.621C266.842 189.936 266.685 189.511 267.006 188.676C267.892 186.368 302.721 151.792 304.16 151.792C304.851 151.792 306.769 152.956 308.423 154.377L311.432 156.96L308.948 161.64C307.583 164.214 306.701 166.556 306.989 166.843C307.749 167.602 310.914 166.226 310.914 165.137C310.914 164.628 311.613 164.212 312.467 164.212C313.321 164.212 314.02 164.678 314.02 165.247C314.02 165.817 313.554 166.282 312.985 166.282C312.415 166.282 311.949 166.942 311.949 167.747C311.949 169.571 303.356 177.237 298.492 179.755C289.931 184.185 273.713 197.869 273.672 200.696C273.635 203.319 275.611 202.92 276.689 200.086C277.951 196.769 285.249 190.534 297.231 182.537C311.372 173.1 314.074 170.451 314.758 165.358C315.199 162.067 316.139 160.536 319.071 158.337C321.133 156.79 323.094 155.128 323.428 154.645C324.055 153.739 331.055 148.683 338.348 143.867C340.625 142.363 342.775 140.695 343.125 140.159C343.475 139.624 344.719 138.645 345.887 137.985C350.533 135.363 357.426 130.535 357.461 129.88C357.533 128.58 348.676 133.871 340.396 140.077C335.853 143.482 330.739 147.144 329.031 148.216C327.323 149.289 323.662 152.162 320.896 154.601C316.521 158.46 314.02 159.939 314.02 158.668C314.02 158.465 317.645 154.622 322.076 150.129C332.085 139.979 342.541 124.408 344.81 116.277C346.475 110.305 347.084 109.555 355.462 103.147C357.323 101.724 360.635 98.9955 362.822 97.0838C367.182 93.2719 377.233 88.7116 381.31 88.6951C382.733 88.6899 384.954 88.9683 386.244 89.313ZM116.907 96.1264C117.992 97.3892 120.59 100.3 122.681 102.595C128.665 109.165 130.9 111.825 131.833 113.489C132.31 114.337 133.042 114.691 133.459 114.274C134.229 113.503 125.915 103.319 119.517 97.1956C115.492 93.3443 113.986 92.7275 116.907 96.1264ZM317.126 100.098C317.126 101.267 315.641 104.876 313.827 108.119C312.014 111.362 309.841 115.412 308.999 117.119C308.158 118.827 306.148 122.171 304.533 124.551C302.918 126.93 301.597 129.162 301.597 129.51C301.597 130.284 297.682 135.966 295.014 139.062L293.052 141.338L289.057 137.18C286.86 134.894 284.59 133.314 284.013 133.671C282.037 134.892 282.971 133.075 289.951 122.138C297.498 110.311 306.409 101.109 312.059 99.3049C317.025 97.7193 317.126 97.7348 317.126 100.098ZM238.498 121.39C239.759 124.706 239.763 137.061 238.505 146.801C237.967 150.969 237.34 160.096 237.11 167.082C236.752 178.025 236.404 180.105 234.602 182.09C233.451 183.358 232.161 186.724 231.736 189.57C229.923 201.696 229.573 203.104 228.906 200.955C228.073 198.277 226.662 185.356 226.736 181.09C226.769 179.202 226.185 177.553 225.374 177.242C224.594 176.942 223.955 177.046 223.955 177.473C223.955 177.899 222.609 178.756 220.963 179.377C218.063 180.472 217.954 180.397 217.379 176.859C216.799 173.281 218.127 155.855 219.369 150.757C219.716 149.334 220.622 144.857 221.382 140.807C223.477 129.645 224.995 124.678 227.296 121.447C231.158 116.024 236.447 115.998 238.498 121.39ZM265.739 130.575C265.303 131.71 265.868 132.127 267.842 132.127C269.326 132.127 270.54 132.669 270.54 133.332C270.54 135.514 263.191 150.069 258.618 156.948C253.302 164.942 248.095 174.004 246.624 177.819C245.88 179.746 244.639 180.693 242.43 181.017C239.412 181.46 239.315 181.353 239.908 178.278C240.602 174.684 248.429 147.785 250.175 142.995C251.4 139.634 259.885 131.092 261.998 131.092C262.711 131.092 263.294 130.626 263.294 130.057C263.294 129.488 263.978 129.022 264.815 129.022C265.74 129.022 266.101 129.629 265.739 130.575ZM8.96643 137.73C7.54403 139.35 8.62067 145.393 10.9696 148.97C13.6332 153.027 18.6913 157.373 25.6978 161.625C34.4371 166.929 42.1475 172.024 53.0898 179.724C57.9005 183.111 62.0798 185.637 62.3769 185.34C62.6741 185.043 62.2319 184.377 61.3944 183.861C59.6004 182.755 59.6345 182.778 46.7656 173.787C38.4051 167.946 26.3076 159.889 19.178 155.415C15.3135 152.99 9.66308 144.394 9.66308 140.94C9.66308 133.193 47.9851 142.042 75.547 156.154C85.2502 161.122 88.6221 162.005 86.8301 159.107C86.4553 158.499 85.3042 158.002 84.2731 158.002C83.242 158.002 78.807 156.122 74.4166 153.824C53.4191 142.831 13.1726 132.935 8.96643 137.73ZM375.473 169.905C375.145 170.759 374.694 171.457 374.47 171.457C374.246 171.457 374.063 170.759 374.063 169.905C374.063 169.051 374.515 168.352 375.066 168.352C375.617 168.352 375.8 169.051 375.473 169.905ZM224.267 182.555C224.154 183.107 224.714 187.592 225.512 192.521C226.309 197.449 227.086 205.322 227.236 210.016C227.386 214.709 227.887 218.818 228.348 219.146C228.809 219.473 228.661 222.19 228.02 225.184C226.274 233.322 226.19 233.835 226.105 236.983C226.059 238.685 225.587 239.619 224.967 239.236C224.324 238.838 224.019 234.329 224.19 227.76L224.473 216.938L220.568 216.315C218.42 215.971 216.402 215.269 216.083 214.754C215.004 213.007 212.576 195.814 212.572 189.889L212.568 183.998L217.485 182.499C222.711 180.906 224.601 180.922 224.267 182.555ZM243.154 192.315C242.208 196.498 240.811 201.783 240.047 204.06C239.283 206.337 238.141 210.127 237.509 212.483C236.536 216.11 235.886 216.835 233.264 217.22C230.248 217.662 230.167 217.56 230.167 213.378C230.167 207.571 233.12 188.165 234.356 185.857C235.363 183.975 242.238 182.668 243.989 184.026C244.474 184.402 244.099 188.132 243.154 192.315ZM196.781 188.855C196.546 189.616 200.827 196.741 208.595 208.511C210.21 210.958 211.532 213.365 211.532 213.859C211.532 214.351 212.115 214.998 212.827 215.294C213.76 215.682 213.599 216.256 212.247 217.351C209.447 219.619 210.449 226.419 214.292 231.255C219.221 237.453 219.265 238.03 214.584 235.076C209.457 231.841 204.222 231.046 201.52 233.093C198.864 235.105 197.515 234.962 189.515 231.824C182.023 228.886 177.37 225.394 177.37 222.711C177.37 221.32 178.399 221.18 184.358 221.761C188.202 222.136 192.976 223.128 194.969 223.967C200.337 226.226 209.428 228.241 210.01 227.3C210.566 226.399 207.75 223.208 206.398 223.208C205.005 223.208 189.415 206.809 187.51 203.341C185.339 199.386 186.17 197.372 192.23 191.915C196.795 187.803 197.187 187.54 196.781 188.855ZM294.868 189.053C294.516 189.622 294.722 190.088 295.325 190.088C295.927 190.088 296.421 189.622 296.421 189.053C296.421 188.483 296.216 188.018 295.964 188.018C295.713 188.018 295.22 188.483 294.868 189.053ZM352.841 189.053C352.489 189.622 352.667 190.088 353.236 190.088C353.806 190.088 354.559 189.622 354.911 189.053C355.263 188.483 355.085 188.018 354.516 188.018C353.947 188.018 353.193 188.483 352.841 189.053ZM260.221 191.381C260.253 193.64 260.3 193.65 261.756 191.725C263.041 190.028 263.646 189.916 265.93 190.956C268.594 192.17 268.596 192.178 266.689 195.011C265.639 196.573 264.018 199.531 263.088 201.584C262.158 203.639 259.262 207.94 256.652 211.144C254.042 214.347 251.906 217.391 251.906 217.908C251.906 218.424 251.159 219.133 250.246 219.483C249.221 219.877 248.834 220.766 249.234 221.811C249.774 223.215 249.62 223.282 248.324 222.208C247.029 221.133 245.847 221.659 241.314 225.332C238.314 227.762 234.797 230.956 233.497 232.43C231.592 234.591 231.275 234.709 231.862 233.04C232.89 230.12 240.412 215.958 242.582 212.858C243.579 211.435 245.669 207.742 247.226 204.651C248.784 201.561 250.708 198.383 251.5 197.591C252.292 196.799 252.942 195.781 252.942 195.33C252.942 194.221 258.173 189.053 259.294 189.053C259.785 189.053 260.203 190.1 260.221 191.381ZM409.668 190.97C400.105 194.805 395.81 196.857 395.807 197.591C395.8 198.946 397.492 198.451 404.148 195.15C407.715 193.38 412.305 191.317 414.348 190.565C416.48 189.78 417.179 189.213 415.99 189.232C414.851 189.25 412.006 190.033 409.668 190.97ZM111.115 192.158C111.969 192.709 113.134 193.16 113.703 193.16C114.273 193.16 114.04 192.709 113.186 192.158C112.332 191.606 111.167 191.155 110.598 191.155C110.028 191.155 110.261 191.606 111.115 192.158ZM292.087 191.829C292.833 192.129 293.726 192.091 294.07 191.748C294.414 191.404 293.803 191.16 292.712 191.204C291.506 191.254 291.26 191.499 292.087 191.829ZM355.947 192.158C355.595 192.727 355.801 193.193 356.403 193.193C357.006 193.193 357.5 192.727 357.5 192.158C357.5 191.588 357.295 191.123 357.043 191.123C356.791 191.123 356.299 191.588 355.947 192.158ZM288.584 193.31C288.193 193.944 285.856 195.354 283.39 196.445C278.891 198.434 276.621 200.438 278.868 200.438C281.023 200.438 290.208 194.78 290.209 193.451C290.21 191.849 289.524 191.789 288.584 193.31ZM327.944 203.402C326.416 204.79 320.231 206.64 320.231 205.709C320.231 205.251 321.746 204.391 323.596 203.798C328.013 202.381 329.184 202.275 327.944 203.402ZM279.599 208.398C281.449 209.272 282.963 210.532 282.963 211.195C282.963 213.166 276.562 218.609 270.5 221.792C267.391 223.424 264.504 225.226 264.086 225.795C263.668 226.365 263.319 226.518 263.309 226.136C263.301 225.754 261.139 226.588 258.504 227.988C255.869 229.389 253.647 230.4 253.566 230.234C253.484 230.07 252.897 228.453 252.26 226.642C250.94 222.883 251.434 222.177 259.739 215.963C262.401 213.97 266.02 210.801 267.778 208.92C271.233 205.225 272.745 205.157 279.599 208.398ZM221.434 221.648C221.807 223.637 221.819 226.432 221.461 227.858C221.023 229.604 221.24 230.458 222.124 230.468C223.154 230.481 223.146 230.67 222.083 231.343C221.192 231.908 220.959 233.23 221.401 235.209L222.074 238.215L220.09 235.361C218.998 233.791 217.752 232.859 217.32 233.291C216.889 233.722 216.67 233.61 216.835 233.04C216.999 232.471 216.34 230.515 215.369 228.693C213.618 225.409 212.886 218.532 214.379 219.395C214.806 219.641 216.087 219.469 217.226 219.011C220.503 217.693 220.717 217.828 221.434 221.648ZM234.782 220.031C235.416 221.059 232.247 228.665 230.943 229.245C230.516 229.435 230.167 230.456 230.167 231.513C230.167 232.57 229.701 233.723 229.131 234.075C228.562 234.427 228.096 234.492 228.096 234.22C228.096 233.255 231.438 220.608 231.894 219.844C232.536 218.772 234.064 218.871 234.782 220.031ZM249.245 225.869C250.139 226.764 250.871 228.115 250.871 228.872C250.871 230.405 244.917 234.23 240.999 235.212C239.604 235.563 238.707 236.245 239.006 236.728C239.554 237.614 228.198 243.319 227.424 242.546C226.666 241.788 236.815 231.654 242.074 227.916C244.915 225.896 247.325 224.243 247.429 224.243C247.532 224.243 248.349 224.975 249.245 225.869ZM62.8872 233.412C63.1895 233.9 66.0975 234.614 69.3502 234.996C72.6029 235.378 75.7748 236.114 76.399 236.633C77.0233 237.15 82.1787 238.808 87.8549 240.316C93.531 241.824 98.3013 243.181 98.4556 243.332C98.6098 243.484 95.3489 243.918 91.209 244.298C83.0348 245.05 76.9673 247.639 65.4204 255.308C61.5155 257.9 58.7454 259.159 58.5083 258.448C58.2267 257.604 57.4554 257.691 55.8446 258.746C49.4024 262.967 24.7277 264.488 17.7275 261.097C13.4572 259.028 5.52221 250.974 5.52221 248.707C5.52221 247.906 6.57086 246.572 7.85144 245.743C11.9002 243.121 28.4391 237.971 38.6495 236.153C44.0586 235.189 50.3476 234.028 52.6251 233.572C58.3768 232.422 62.2381 232.362 62.8872 233.412ZM304.509 233.23C305.256 233.529 306.149 233.492 306.493 233.148C306.836 232.804 306.226 232.56 305.135 232.605C303.929 232.654 303.683 232.9 304.509 233.23ZM308.65 233.23C309.397 233.529 310.29 233.492 310.634 233.148C310.977 232.804 310.367 232.56 309.276 232.605C308.069 232.654 307.824 232.9 308.65 233.23ZM186.513 235.111C193.174 235.76 198.074 237.352 198.074 238.866C198.074 239.326 199.355 240.38 200.921 241.208C202.992 242.303 203.345 242.849 202.215 243.211C196.58 245.019 196.749 244.813 197.33 249.142C197.978 253.971 199.611 256.328 202.311 256.328C204.417 256.328 212.244 252.515 213.151 251.045C213.467 250.535 214.185 250.118 214.746 250.118C215.308 250.118 214.615 251.27 213.208 252.678C211.8 254.085 209.814 256.647 208.796 258.37C207.778 260.093 206.58 261.503 206.133 261.503C204.486 261.503 205.387 264.538 207.468 265.994C209.359 267.319 209.452 267.769 208.245 269.793C207.491 271.056 205.359 273.675 203.509 275.612C201.659 277.551 200.123 279.477 200.096 279.893C200.069 280.31 197.34 283.595 194.032 287.193C188.928 292.745 187.799 293.522 186.576 292.325C184.882 290.666 180.287 288.812 175.558 287.878C173.708 287.513 172.194 286.848 172.194 286.402C172.194 284.629 178.346 279.644 191.133 271.052C204.637 261.979 206.497 260.195 204.514 258.212C203.377 257.075 194.969 261.054 194.969 262.729C194.969 263.193 194.429 263.573 193.769 263.573C193.109 263.573 189.267 265.158 185.228 267.094C169.762 274.513 168.796 274.745 169.827 270.802C170.23 269.266 169.97 268.872 168.84 269.306C167.811 269.7 166.749 268.718 165.609 266.318C164.676 264.351 163.912 262.517 163.912 262.242C163.912 260.839 169.82 258.196 175.064 257.253C180.904 256.204 193.252 252.731 195.012 251.644C195.508 251.337 195.665 250.441 195.363 249.652C194.949 248.575 193.096 248.311 187.903 248.587C184.103 248.79 179.452 248.985 177.568 249.02C175.283 249.062 174.384 249.475 174.87 250.26C175.37 251.07 178.181 251.238 183.882 250.798C188.439 250.447 191.856 250.47 191.476 250.85C190.556 251.771 178.064 255.199 172.061 256.178C166.624 257.065 161.842 259.794 161.842 262.009C161.842 262.831 162.649 265.196 163.637 267.266C165.418 271.001 165.413 271.043 162.86 273.057C161.446 274.174 158.658 276.51 156.665 278.249C151.936 282.379 134.284 290.747 131.899 289.991C130.889 289.671 129.537 288.253 128.893 286.841C128.25 285.428 127.22 284.273 126.604 284.273C125.99 284.273 125.716 283.902 125.997 283.447C126.771 282.195 125.413 280.601 122.115 278.893L119.139 277.353L122.115 275.249C123.751 274.092 126.572 272.825 128.384 272.433C130.195 272.04 132.232 271.051 132.91 270.234C133.589 269.417 134.758 268.748 135.507 268.748C136.887 268.748 155.87 260.26 158.736 258.362C159.59 257.796 161.654 256.799 163.323 256.147L166.357 254.96L163.841 253.935C160.264 252.479 158.819 252.486 153.56 253.989C145.275 256.355 124.191 261.292 119.218 262.031L114.379 262.749L113.654 257.727C113.255 254.965 112.526 252.007 112.035 251.153C111.406 250.059 111.269 250.364 111.57 252.188C111.805 253.611 112.032 257.154 112.074 260.06L112.151 265.345L119.656 263.986C123.783 263.239 134.576 260.744 143.638 258.443C152.701 256.141 160.291 254.433 160.505 254.647C161.005 255.146 153.771 259.433 152.429 259.433C151.872 259.433 150.385 260.079 149.124 260.869C147.068 262.155 132.114 268.666 124.056 271.784C122.348 272.445 119.838 273.905 118.48 275.029C116.134 276.968 116.099 277.17 117.779 279.027C118.753 280.102 120.68 281.265 122.062 281.612C125.009 282.352 125.494 284.555 122.605 284.08C121.522 283.902 119.309 284.92 117.688 286.343C115.013 288.69 111.437 291.244 106.836 294.093C105.905 294.67 103.075 296.418 100.546 297.98C98.0178 299.541 91.558 301.952 86.1924 303.338C80.8258 304.724 75.4517 306.163 74.2488 306.534C71.2187 307.471 70.0934 304.361 72.8409 302.645C73.9642 301.944 74.8824 300.784 74.8824 300.066C74.8824 298.381 73.1236 298.374 72.5221 300.057C72.2685 300.769 71.7229 301.038 71.3109 300.656C70.8979 300.274 71.0883 297.422 71.7333 294.317C72.7851 289.251 73.723 287.868 80.8816 280.832C85.2689 276.52 93.4275 269.425 99.0126 265.067C104.598 260.707 108.951 256.924 108.685 256.658C108.42 256.393 104.253 258.087 99.4266 260.423C86.1343 266.855 71.5583 269.205 57.7681 267.137L53.0587 266.431L57.4171 262.673C59.8147 260.607 62.5126 258.569 63.4122 258.144C64.3118 257.721 68.0064 255.508 71.6215 253.228C75.2375 250.948 78.7553 249.083 79.4375 249.083C80.1208 249.083 81.1425 248.62 81.7078 248.055C82.273 247.49 86.4427 246.745 90.9729 246.4C95.5031 246.056 99.6761 245.417 100.245 244.981C100.815 244.547 102.84 244.204 104.746 244.222C107.355 244.245 108.484 244.85 109.312 246.668C111.154 250.71 113.197 249.751 111.88 245.461C111.269 243.469 110.963 241.645 111.2 241.409C112.219 240.395 121.105 239.775 138.289 239.522C148.395 239.373 156.664 238.871 156.664 238.406C156.665 237.941 157.946 237.708 159.512 237.888C162.154 238.192 162.376 238.585 162.593 243.357C162.722 246.185 163.057 249.095 163.337 249.826C164.001 251.555 167.887 251.46 171.159 249.637C173.619 248.264 173.527 248.222 169.296 248.781L164.846 249.369L165.155 242.24L165.465 235.11L170.641 234.524C173.488 234.201 176.749 234.058 177.888 234.205C179.026 234.352 182.908 234.76 186.513 235.111ZM212.991 236.404C214.258 237.4 215.263 238.677 215.225 239.242C215.118 240.823 209.874 241.058 208.286 239.554C207.51 238.818 205.942 238.055 204.803 237.858C202.18 237.406 201.846 237.063 202.691 235.697C203.769 233.952 210.458 234.412 212.991 236.404ZM340.532 236.07C341.313 238.102 336.2 243.068 330.584 245.734C325.217 248.281 326.68 248.842 332.428 246.441C337.569 244.293 341.971 239.932 341.971 236.987C341.971 235.67 341.52 234.593 340.968 234.593C340.417 234.593 340.221 235.257 340.532 236.07ZM277.925 237.856C278.988 239.082 279.857 241.377 279.857 242.957C279.857 245.67 279.528 245.873 273.905 246.634C262.963 248.114 248.499 246.874 245.479 244.197C244.506 243.335 242.176 242.285 240.302 241.866L236.896 241.102L242.589 238.376C247.86 235.85 249.312 235.648 262.138 235.638C275.038 235.629 276.125 235.781 277.925 237.856ZM218.779 244.534C218.779 244.759 217.847 245.874 216.709 247.013C215.57 248.151 214.638 248.894 214.638 248.663C214.638 248.431 211.991 249.595 208.755 251.25C205.519 252.904 202.566 254.258 202.192 254.258C200.999 254.258 199.143 249.166 199.755 247.571C200.08 246.725 202.047 245.728 204.128 245.356C206.207 244.982 208.482 244.375 209.182 244.004C210.471 243.323 218.779 243.782 218.779 244.534ZM241.554 244.022C242.883 244.977 242.857 245.059 241.371 244.585C239.218 243.898 236.635 246.534 238.664 247.348C239.4 247.643 238.922 247.922 237.604 247.966C236.286 248.011 234.305 247.566 233.204 246.977C230.86 245.722 230.473 243.407 232.754 244.282C233.607 244.61 235.354 244.455 236.636 243.941C239.682 242.717 239.74 242.717 241.554 244.022ZM220.799 259.765C217.712 268.295 215.605 270.691 214.263 267.196C213.936 266.342 213.012 265.643 212.21 265.643C211.407 265.643 210.174 264.949 209.47 264.101C208.036 262.372 208.981 261.054 218.261 251.822C222.654 247.452 223.484 246.984 223.744 248.727C223.913 249.857 222.588 254.824 220.799 259.765ZM229.563 248.824C229.99 249.252 235.585 249.634 241.997 249.674C251.513 249.734 254.779 250.179 259.769 252.097C272.07 256.826 273.645 257.667 273.801 259.59C273.887 260.642 274.003 262.086 274.06 262.797C274.117 263.509 273.582 263.974 272.87 263.832C271.096 263.477 271.242 265.457 273.128 267.344C273.982 268.198 274.681 268.596 274.681 268.229C274.681 267.861 279.224 269.91 284.775 272.783C290.326 275.655 296.965 278.922 299.527 280.044C302.089 281.166 306.732 283.74 309.844 285.766C315.783 289.63 317.126 290.119 317.126 288.413C317.126 287.844 316.622 287.378 316.006 287.378C315.392 287.378 312.442 285.755 309.453 283.771C306.463 281.787 301.493 279.147 298.408 277.905C288.081 273.746 289.396 272.326 300.141 276.031C308.976 279.077 317.315 279.796 319.421 277.691C320.334 276.778 321.24 275.586 321.433 275.044C321.65 274.434 323.366 274.407 325.925 274.972C328.203 275.474 333.793 276.667 338.348 277.623C342.903 278.58 348.493 280.304 350.771 281.456C353.048 282.608 359.803 284.912 365.781 286.576C375.58 289.303 386.558 294.298 388.046 296.705C389.506 299.066 376.13 301.868 363.405 301.868C354.979 301.868 350.649 300.593 337.313 294.184C329.974 290.658 319.811 287.911 318.074 288.985C317.552 289.306 317.126 290.374 317.126 291.356C317.126 294.782 311.122 297.126 303.007 296.869C298.931 296.741 293.747 297.051 291.487 297.559C288.909 298.137 286.652 298.099 285.43 297.454C282.834 296.085 278.822 291.88 278.822 290.529C278.822 289.935 278.457 289.448 278.01 289.448C277.563 289.448 276.435 288.167 275.502 286.602C274.568 285.037 272.839 282.728 271.657 281.473L269.509 279.188L272.205 276.493C273.688 275.011 274.603 273.499 274.237 273.134C273.872 272.769 272.378 273.759 270.918 275.334C268.417 278.029 268.151 278.095 266.356 276.471C265.307 275.522 263.839 274.955 263.095 275.211C262.351 275.466 259.069 273.63 255.804 271.129C252.539 268.628 248.463 266.092 246.747 265.494C245.031 264.896 243.87 264.014 244.166 263.534C244.463 263.055 243.866 261.819 242.84 260.789C241.813 259.758 240.33 257.643 239.545 256.087C238.76 254.53 237.26 252.985 236.212 252.653C235.165 252.321 234.307 251.615 234.307 251.084C234.307 250.553 233.726 250.132 233.013 250.151C232.302 250.169 232.884 251.24 234.307 252.532C239.191 256.962 243.195 266.643 240.169 266.701C239.507 266.713 237.801 267.634 236.378 268.748C233.268 271.18 230.737 271.453 231.577 269.266C231.904 268.412 231.795 267.713 231.333 267.713C230.143 267.713 228.284 260.988 227.543 253.999C226.958 248.493 227.596 246.858 229.563 248.824ZM285.292 249.365C282.303 249.939 279.857 250.824 279.857 251.331C279.857 252.774 283.31 253.735 283.75 252.415C283.991 251.693 285.324 251.47 287.177 251.84C289.488 252.303 290.21 252.065 290.21 250.84C290.21 249.958 291.024 249.022 292.021 248.761C295.366 247.888 290.889 248.289 285.292 249.365ZM226.026 257.296C226.026 258.966 226.527 261.645 227.138 263.247C228.691 267.309 229.241 292.998 227.912 299.353L226.814 304.601L220.691 305.96C217.323 306.706 214.348 307.098 214.079 306.83C213.538 306.288 216.455 288.626 217.316 287.232C218.353 285.556 220.647 273.647 221.276 266.678C221.715 261.809 224.073 254.258 225.154 254.258C225.633 254.258 226.026 255.625 226.026 257.296ZM57.8011 260.468C57.4492 261.037 56.6065 261.496 55.9285 261.488C55.1872 261.477 55.3157 261.07 56.2484 260.468C58.2371 259.183 58.5952 259.183 57.8011 260.468ZM244.66 267.68C244.66 268.231 247.772 272.306 251.576 276.736C255.38 281.166 259.181 285.607 260.022 286.606C261.991 288.943 260.122 293.895 257.631 292.939C256.548 292.524 256.047 292.96 256.047 294.321C256.047 296.358 249.477 300.338 247.812 299.31C247.346 299.022 246.723 299.712 246.427 300.845C245.842 303.082 242.589 303.723 242.589 301.601C242.589 300.885 241.454 298.167 240.066 295.56C236.616 289.081 232.092 272.888 233.733 272.888C234.415 272.888 236.803 271.504 239.041 269.812C243.351 266.551 244.66 266.054 244.66 267.68ZM214.12 269.783C214.472 270.352 215.643 270.818 216.722 270.818C218.362 270.818 218.608 271.412 218.222 274.429C217.968 276.415 217.311 279.792 216.762 281.933C216.215 284.074 215.054 288.62 214.185 292.036C213.314 295.451 212.312 300.903 211.957 304.15L211.312 310.054L215.305 309.496C217.501 309.19 220.648 308.512 222.298 307.991C223.949 307.47 225.76 307.043 226.323 307.043C227.733 307.043 226.447 318.483 224.198 325.936C221.359 335.35 212.201 345.339 206.409 345.339C204.004 345.339 204.003 345.33 204.738 335.247C205.144 329.698 206.133 322.362 206.936 318.946C208.686 311.504 208.893 307.809 207.43 310.123C205.553 313.089 203.13 330.42 203.447 338.611C203.767 346.856 203.781 346.892 206.716 347.229C209.196 347.512 209.559 347.922 209.011 349.816C208.651 351.054 207.499 356.957 206.448 362.934C202.984 382.654 197.809 395.126 189.747 403.185C187.501 405.431 186.153 405.967 183.668 405.603C180.572 405.149 180.477 404.974 180.506 399.818C180.522 396.893 181.684 387.981 183.085 380.011C184.488 372.042 186.647 359.342 187.882 351.791C189.88 339.582 190.334 338.126 191.984 338.649C194.663 339.499 198.489 336.604 199.87 332.683C200.526 330.82 201.774 325.468 202.646 320.789C203.518 316.111 204.526 311.104 204.888 309.663C205.25 308.222 205.127 307.043 204.615 307.043C204.104 307.043 202.829 312.284 201.784 318.687C200.354 327.451 199.254 331.176 197.335 333.745C194.911 336.993 194.554 337.125 189.96 336.464C187.306 336.082 183.62 335.151 181.77 334.397C178.866 333.213 178.405 332.522 178.405 329.36C178.405 325.653 183.163 312.234 184.891 311.068C185.406 310.72 185.681 310.254 185.501 310.033C185.32 309.812 186.018 307.417 187.051 304.712C188.56 300.763 189.254 299.973 190.569 300.709C191.517 301.24 193.548 301.241 195.392 300.712C197.145 300.209 200.568 299.798 203 299.798C206.837 299.798 207.68 299.373 209.378 296.583C210.454 294.815 212.294 289.536 213.469 284.854C214.644 280.172 215.932 275.487 216.333 274.445C216.769 273.309 216.656 272.799 216.051 273.172C215.496 273.514 213.973 277.434 212.663 281.88C208.444 296.217 208.517 296.119 201.066 297.504C197.463 298.174 194.119 298.328 193.635 297.844C192.291 296.5 195.581 289.639 199.899 284.782C210.186 273.213 211.532 271.523 211.532 270.186C211.532 268.521 213.183 268.265 214.12 269.783ZM258.75 275.88C261.659 277.65 264.756 279.098 265.629 279.098C267.494 279.098 276.23 288.662 277.983 292.622C279.101 295.145 280.844 296.584 288.314 301.152C289.975 302.168 291.949 305.02 293.263 308.306C295.377 313.593 295.427 313.637 294.81 309.667C294.46 307.41 293.516 304.292 292.713 302.739C290.723 298.893 291.822 298.423 302.347 298.619C311.961 298.799 317.594 297.006 318.739 293.401C319.206 291.924 320.021 291.493 321.623 291.877C322.85 292.171 325.716 292.75 327.99 293.163C332.573 293.995 334.951 295.318 349.218 304.971C350.641 305.935 353.43 307.563 355.417 308.59C357.402 309.615 360.244 311.668 361.732 313.149C363.219 314.629 366.625 317.426 369.299 319.363C371.973 321.301 373.789 323.253 373.335 323.703C371.425 325.595 363.45 326.262 351.901 325.496C337.625 324.548 332.714 322.565 319.196 312.288C311.67 306.566 302.278 300.833 300.432 300.833C297.784 300.833 300.36 303.173 307.053 306.846C311.192 309.117 317.83 313.968 321.805 317.625C325.779 321.283 330.392 325.405 332.055 326.786C333.718 328.167 335.912 330.092 336.93 331.065C337.947 332.037 340.546 333.752 342.705 334.875C347.46 337.347 355.075 344.664 356.032 347.678C356.907 350.435 353.799 353.142 347.945 354.718C340.498 356.723 333.655 353.679 318.917 341.804C312.165 336.364 307.266 333.11 306.494 333.553C305.794 333.956 305.548 333.923 305.947 333.479C306.651 332.699 304.471 329.814 303.179 329.814C302.828 329.814 301.286 328.649 299.751 327.226C298.216 325.803 296.362 324.639 295.631 324.639C293.72 324.639 297.087 329.557 299.528 330.331C300.566 330.661 303.181 333.125 305.341 335.805C311.268 343.166 313.946 345.76 320.829 350.807C327.23 355.502 332.469 361.307 336.771 368.473C338.745 371.761 338.912 372.619 337.72 373.373C334.047 375.699 322.487 373.363 314.625 368.705C308.151 364.87 301.407 357.208 294.969 346.374C291.754 340.966 288.587 335.774 287.928 334.836C286.946 333.437 287.321 332.543 290.023 329.84C291.834 328.03 293.315 325.747 293.315 324.766C293.315 323.785 293.834 322.464 294.467 321.831C295.1 321.198 295.423 320.092 295.183 319.373C294.944 318.656 293.673 320.362 292.359 323.165C290.102 327.98 288.622 329.762 286.848 329.798C284.689 329.842 277.757 321.875 275.391 316.63C273.912 313.35 271.284 309.124 269.551 307.238C267.818 305.353 266.4 303.443 266.4 302.993C266.4 302.543 264.931 300.639 263.135 298.76C260.291 295.785 260.077 295.194 261.479 294.169C264.319 292.093 263.797 284.273 260.819 284.273C260.148 284.273 258.803 282.926 257.83 281.278C256.857 279.631 254.427 276.65 252.43 274.654C248.422 270.646 247.267 266.98 251.13 270.525C252.41 271.701 255.84 274.11 258.75 275.88ZM233.146 283.102C234.25 288.247 241 304.669 242.775 306.526C243.426 307.207 244.267 306.879 245.236 305.566C246.046 304.469 246.905 303.771 247.145 304.014C247.8 304.675 248.553 330.644 248.001 333.527C247.552 335.878 247.108 336.024 240.398 336.024C236.338 336.024 233.272 335.579 233.272 334.989C233.272 334.419 232.623 333.954 231.83 333.954C229.691 333.954 229.303 332.056 229.588 323.001C229.729 318.494 229.917 306.279 230.006 295.856C230.168 276.799 231.037 273.268 233.146 283.102ZM112.525 294.106C112.197 294.96 111.486 295.658 110.943 295.658C110.401 295.658 110.246 296.124 110.598 296.693C110.95 297.263 110.84 297.728 110.354 297.728C109.868 297.728 107.628 300.161 105.375 303.134C103.123 306.108 100.582 309.268 99.7279 310.157C94.3095 315.797 87.2741 324.731 85.4697 328.261C84.0401 331.06 81.8144 333.232 78.6011 334.967C75.9861 336.379 73.8472 337.892 73.8472 338.331C73.8472 338.77 73.2054 339.129 72.4207 339.129C71.637 339.129 70.4216 339.819 69.7218 340.663C69.022 341.506 64.9928 343.859 60.7681 345.889C52.9345 349.657 45.0265 351.299 40.3618 350.129C37.7209 349.466 34.5085 346.885 34.5085 345.426C34.5085 344.619 42.0667 335.491 48.2905 328.779C50.1384 326.786 56.0672 321.62 61.4669 317.299C71.3844 309.364 75.6806 307.296 87.3052 304.868C93.4047 303.593 104.808 298.299 109.045 294.774C112.126 292.213 113.341 291.979 112.525 294.106ZM397.356 298.368C400.772 300.135 405.896 302.365 408.743 303.325C416.58 305.966 422.177 309.183 428.797 314.847C435.979 320.994 437.568 323.761 435.951 327.307C435.323 328.685 434.512 329.814 434.148 329.814C433.784 329.814 432.897 331.444 432.177 333.436C431.456 335.428 430.314 337.05 429.639 337.04C428.491 337.022 425.767 335.608 412.884 328.338C402.172 322.292 371.185 312.437 367.425 313.88C366.632 314.184 363.097 312.309 359.571 309.713C356.044 307.117 350.872 303.749 348.077 302.229C345.283 300.708 343.132 299.327 343.298 299.162C343.464 298.996 346.749 300.002 350.597 301.4C358.733 304.351 365.243 304.584 378.578 302.399C388.687 300.742 391.01 299.53 390.024 296.425C389.667 295.299 389.773 294.553 390.259 294.767C390.746 294.98 393.939 296.601 397.356 298.368ZM262.009 299.022C263.209 300.303 264.682 302.515 265.282 303.938C265.882 305.362 268.002 309.32 269.993 312.736C276.446 323.81 279.85 330.732 279.069 331.193C278.648 331.442 276.208 331.974 273.646 332.376C271.084 332.779 266.57 334.23 263.617 335.601C254.045 340.044 253.816 339.753 251.414 320.053C250.516 312.692 249.523 305.639 249.206 304.379C248.737 302.512 249.462 301.589 253.115 299.4C258.598 296.115 259.259 296.087 262.009 299.022ZM183.064 298.568C180.479 300.498 171.86 310.144 172.751 310.111C174.396 310.049 184.856 299.995 184.463 298.853C184.263 298.271 183.633 298.142 183.064 298.568ZM129.583 304.715C127.728 307.419 124.121 311.697 121.568 314.221C119.014 316.747 117.455 318.988 118.103 319.205C119.611 319.708 118.707 322.058 115.059 327.123C113.459 329.343 112.151 331.591 112.151 332.119C112.151 333.247 118.597 324.969 120.494 321.404C121.213 320.052 123.543 316.85 125.672 314.288C130.306 308.711 134.926 301.922 134.926 300.688C134.926 298.503 132.686 300.19 129.583 304.715ZM228.827 312.477C228.58 313.759 228.378 312.71 228.378 310.148C228.378 307.587 228.58 306.538 228.827 307.82C229.073 309.101 229.073 311.196 228.827 312.477ZM229.027 336.024C229.907 336.024 229.45 391.862 228.521 397.873C228.089 400.666 227.128 401.685 222.907 403.824C217.419 406.604 213.665 407.087 211.828 405.251C209.163 402.586 213.369 361.127 218.03 344.12C218.758 341.458 220.194 338.354 221.219 337.222C223.198 335.035 226.916 324.236 227.276 319.63C227.394 318.115 227.645 321.185 227.832 326.45C228.021 331.715 228.558 336.024 229.027 336.024ZM253.36 338.352C254.453 340.714 256.74 340.641 261.494 338.094C263.619 336.955 265.76 336.024 266.251 336.024C266.744 336.024 267.396 338.701 267.701 341.975C268.005 345.249 270.143 352.934 272.451 359.054C277.419 372.228 278.822 379.073 278.822 390.133C278.822 396.012 278.321 399.17 277.046 401.328C275.066 404.68 271.863 405.297 270.847 402.523C270.482 401.527 268.422 398.033 266.27 394.76C264.117 391.487 261.678 387.295 260.851 385.445C256.141 374.924 251.366 349.993 250.463 331.224L250.022 322.051L251.272 329.296C251.958 333.281 252.898 337.357 253.36 338.352ZM377.169 326.252C377.169 327.139 377.607 327.596 378.142 327.264C378.677 326.934 379.726 327.395 380.471 328.288C381.218 329.182 382.759 330.947 383.898 332.211C385.037 333.474 386.616 335.326 387.408 336.325C388.687 337.935 388.638 338.06 386.98 337.424C385.651 336.914 385.339 337.075 385.899 337.982C386.333 338.683 387.805 339.681 389.17 340.2C390.536 340.719 393.238 343.622 395.176 346.65C397.114 349.679 399.445 352.775 400.357 353.532C402.75 355.518 402.488 362.07 399.896 365.058C395.75 369.837 379.679 368.531 367.938 362.461C366.239 361.582 364.01 360.9 362.986 360.946C361.098 361.028 370.518 366.001 372.61 366.025C373.234 366.033 375.213 366.771 377.007 367.666C381.455 369.884 390.25 370.649 395.379 369.262C404.799 366.717 406.166 359.135 399.066 348.809C396.784 345.49 395.015 342.676 395.136 342.556C395.256 342.435 399.299 343.933 404.119 345.883C413.749 349.779 427.176 353.151 428.875 352.1C431.507 350.474 422.944 340.599 413.402 334.255C407.015 330.009 398.747 325.49 398.257 325.979C398.036 326.201 402.699 329.488 408.618 333.283C418.397 339.552 426.86 347.171 426.86 349.704C426.86 353.227 391.488 341.271 390.151 337.297C389.334 334.869 379.782 324.639 378.33 324.639C377.692 324.639 377.169 325.365 377.169 326.252ZM465.163 331.884C465.163 332.453 465.629 332.919 466.198 332.919C466.768 332.919 467.234 332.453 467.234 331.884C467.234 331.314 466.768 330.849 466.198 330.849C465.629 330.849 465.163 331.314 465.163 331.884ZM106.515 341.277C105.059 344.293 103.869 347.489 103.87 348.379C103.87 349.269 105.279 347.02 107 343.38C108.723 339.741 109.913 336.546 109.646 336.279C109.379 336.012 107.97 338.261 106.515 341.277ZM350.303 357.728C349.508 358.219 350.44 359.638 353.04 361.891C360.5 368.357 369.922 379.509 369.91 381.857C369.896 384.217 365.467 387.783 360.652 389.312C359.281 389.747 356.73 390.974 354.983 392.039C353.235 393.104 350.757 393.978 349.476 393.98C348.196 393.982 347.147 394.45 347.147 395.019C347.147 396.933 351.285 396.077 357.148 392.949C360.349 391.241 363.484 389.842 364.116 389.839C365.617 389.833 371.993 383.847 371.993 382.444C371.993 380.155 368.52 374.194 365.896 371.978C364.387 370.704 360.533 366.809 357.331 363.322C353.799 359.476 351.035 357.275 350.303 357.728ZM234.408 381.281C234.313 384.453 241.042 404.274 242.585 405.369C244.058 406.414 245.494 410.179 246.729 416.237C247.426 419.652 248.875 424.281 249.951 426.523C251.026 428.764 251.906 431.442 251.906 432.474C251.906 433.506 252.403 434.349 253.011 434.349C254.182 434.349 253.722 432.204 251.265 426.202C248.196 418.707 250.885 421.236 255.676 430.35C260.778 440.058 265.325 443.131 273.144 442.154C280.813 441.197 282.817 438.781 283.077 430.19C283.317 422.237 279.74 407.439 277.579 407.439C276.437 407.439 276.469 407.572 278.964 413.211C280.434 416.534 281.344 421.182 281.675 427.057C282.128 435.09 281.973 436.082 279.991 437.864C278.711 439.015 275.668 440.032 272.632 440.323C268.197 440.75 266.943 440.43 263.877 438.092C261.909 436.591 258.833 432.616 257.043 429.258C255.253 425.901 252.783 422.08 251.553 420.77C249.531 418.613 246.785 411.809 246.746 408.854C246.737 408.208 247.662 407.437 248.801 407.139C249.939 406.842 250.871 406.072 250.871 405.429C250.871 404.596 250.299 404.568 248.87 405.332C247.252 406.198 246.747 406.017 246.229 404.386C245.877 403.277 245.03 402.584 244.347 402.846C242.976 403.372 238.989 394.199 236.22 384.151C234.81 379.038 234.49 378.531 234.408 381.281ZM331.619 380.026C331.619 380.319 333.709 383.229 336.264 386.495C338.818 389.76 341.856 393.682 343.016 395.211C344.175 396.739 345.229 399.739 345.358 401.877C345.549 405.02 345.14 405.996 343.215 406.981C340.394 408.422 331.159 406.822 325.596 403.926C323.707 402.943 321.61 402.347 320.937 402.602C318.607 403.483 332.136 408.796 337.904 409.264C345.154 409.852 347.147 408.228 347.147 401.734C347.147 399.246 346.663 396.912 346.07 396.546C345.477 396.179 343.898 394.172 342.558 392.086C341.22 389.999 339.205 387.331 338.082 386.156C336.959 384.982 335.495 383.003 334.828 381.758C333.757 379.755 331.619 378.602 331.619 380.026Z" fill="black"/>
</svg>
