<svg width="240" height="413" viewBox="0 0 240 413" fill="none" xmlns="http://www.w3.org/2000/svg">
<path fill-rule="evenodd" clip-rule="evenodd" d="M36.742 0.614772C36.489 0.867772 33.572 1.30081 30.258 1.57681C22.332 2.23681 20.459 2.95779 21.965 4.77279C22.596 5.53379 23.845 6.17478 24.74 6.19778C26.548 6.24478 32.155 16.6518 32.709 20.9868C32.897 22.4548 33.105 27.5938 33.172 32.4058C33.239 37.2188 33.6739 41.1558 34.1399 41.1558C34.6049 41.1558 34.643 41.7108 34.224 42.3878C33.805 43.0658 33.366 44.3038 33.249 45.1378C33.131 45.9728 31.897 52.0558 30.506 58.6558C29.114 65.2558 27.7509 71.9248 27.4759 73.4748C25.8239 82.7778 20.754 97.1978 14.402 110.656C4.92896 130.727 1.20598 146.548 0.166979 171.156C-0.410021 184.836 0.349971 190.844 4.97197 209.095C6.56497 215.387 7.86797 221.548 7.86797 222.786C7.86797 224.025 8.32194 225.319 8.87694 225.662C10.2089 226.485 14.04 225.243 13.393 224.197C11.412 220.991 19.209 202.156 22.519 202.156C23.169 202.156 23.851 201.819 24.035 201.406C24.753 199.79 32.591 195.161 35.643 194.551C37.417 194.196 38.868 193.486 38.868 192.972C38.868 192.458 39.251 192.275 39.72 192.565C40.189 192.854 42.309 192.206 44.432 191.124C46.554 190.041 49.035 189.156 49.945 189.156C50.854 189.156 52.742 188.256 54.141 187.156C55.539 186.056 57.175 185.156 57.776 185.156C58.376 185.156 58.868 184.706 58.868 184.156C58.868 183.606 59.552 183.156 60.387 183.156C62.276 183.156 61.622 186.309 58.107 194.156C54.564 202.066 54.432 218.846 57.815 231.406C60.116 239.954 62.187 242.51 63.484 238.406C64.779 234.31 67.179 229.257 67.75 229.422C68.09 229.52 69.625 228.761 71.161 227.735C73.122 226.425 76.102 225.798 81.161 225.631C85.125 225.501 89.156 225.067 90.118 224.668C91.618 224.046 91.868 224.527 91.868 228.038C91.868 230.292 90.765 234.952 89.417 238.395C86.433 246.017 83.356 256.204 83.523 257.906C83.591 258.594 83.2459 259.156 82.7569 259.156C82.2679 259.156 81.868 259.859 81.868 260.718C81.868 262.299 78.009 276.903 75.41 285.156C72.966 292.917 72.633 299.185 74.321 305.656C75.182 308.956 76.3329 311.806 76.8769 311.989C77.4219 312.173 77.868 312.934 77.868 313.68C77.868 316.492 80.082 316.228 83.193 313.046C85.787 310.393 88.1539 309.322 95.3899 307.527C100.328 306.303 108.193 303.922 112.868 302.235C117.543 300.549 122.798 299.167 124.547 299.163C128.118 299.155 131.269 301.669 130.429 303.857C130.125 304.651 130.381 307.306 130.998 309.757C132.613 316.173 139.451 331.656 140.669 331.656C141.237 331.656 142.076 332.066 142.535 332.566C143.027 333.104 142.803 333.149 141.988 332.677C141.049 332.133 140.746 332.321 141.04 333.267C141.277 334.031 143.307 335.556 145.552 336.656C149.535 338.607 161.638 347.546 163.103 349.617C163.507 350.188 163.844 350.231 163.853 349.712C163.861 349.192 164.989 350.287 166.359 352.144C168.647 355.245 171.367 358.251 186.317 374.204C189.177 377.256 192.368 381.193 193.408 382.954C194.448 384.715 195.652 386.156 196.084 386.156C196.515 386.156 196.868 386.831 196.868 387.656C196.868 388.481 197.57 389.156 198.427 389.156C199.284 389.156 199.739 389.555 199.438 390.043C198.704 391.23 201.331 393.339 202.37 392.397C202.82 391.99 202.86 392.226 202.459 392.922C202.015 393.694 203.027 395.525 205.049 397.608C206.874 399.488 210.216 403.036 212.474 405.491C218.172 411.686 222.118 413.634 225.557 411.947C227.004 411.237 229.071 409.463 230.15 408.004C232.002 405.501 232.021 405.169 230.49 402.1C229.598 400.312 228.868 398.449 228.868 397.961C228.868 397.472 227.984 396.123 226.903 394.963C225.822 393.802 225.175 392.468 225.466 391.997C225.757 391.527 225.294 390.873 224.437 390.544C223.58 390.215 223.111 389.572 223.393 389.115C224.011 388.116 222.824 383.243 219.506 373.156C218.15 369.031 215.846 361.606 214.387 356.656C212.928 351.706 211.071 345.913 210.26 343.783C209.449 341.653 208.157 337.153 207.389 333.783C206.621 330.413 205.553 325.856 205.014 323.656C204.476 321.456 203.761 316.056 203.426 311.656C203.091 307.256 202.449 301.033 201.999 297.827C200.369 286.206 204.196 279.34 213.593 277.027C215.669 276.516 218.268 275.873 219.368 275.597C220.468 275.322 224.173 274.876 227.602 274.607C234.25 274.086 238.272 272.93 239.317 271.238C240.931 268.627 232.758 259.55 220.868 250.748C214.034 245.689 211.953 244.644 209.544 245.062C209.09 245.141 208.993 244.764 209.326 244.223C209.66 243.683 208.456 242.49 206.651 241.573C202.097 239.258 190.886 230.841 187.853 227.46C186.469 225.918 184.064 221.956 182.508 218.656C180.952 215.356 179.108 211.531 178.411 210.156C176.115 205.63 177.888 198.728 182.516 194.171C183.535 193.168 186.393 189.451 188.868 185.911C193.383 179.453 196.414 177.156 200.418 177.156C203.843 177.156 208.868 175.08 208.868 173.665C208.868 172.953 209.543 172.111 210.368 171.794C214.824 170.084 209.928 164.326 202.263 162.262C200.015 161.657 196.349 159.838 194.115 158.22C191.634 156.423 187.78 154.861 184.211 154.207C180.997 153.618 177.076 152.897 175.497 152.605C171.695 151.901 165.581 148.731 162.6 145.919C161.281 144.674 158.949 140.986 157.419 137.722C152.295 126.798 155.578 116.578 165.868 111.415C168.893 109.898 171.522 108.306 171.71 107.879C172.493 106.103 180.567 102.901 183.841 103.069C201.914 103.994 205.509 103.433 206.488 99.5338C207.235 96.5588 204.164 90.2668 201.179 88.6558C200.16 88.1058 197.986 86.6958 196.347 85.5218C187.565 79.2318 173.328 73.1498 163.868 71.6468C159.322 70.9248 149.358 66.6318 142.803 62.5728C140.842 61.3578 134.637 58.0098 129.013 55.1328C121.719 51.3998 118.369 49.0908 117.328 47.0778C115.172 42.9098 115.511 41.5528 119.133 39.8348C123.566 37.7308 126.96 33.9258 127.319 30.6558C127.562 28.4358 127.047 27.7108 124.458 26.6288C122.721 25.9028 118.279 25.1628 114.586 24.9828C110.893 24.8028 107.871 24.3948 107.87 24.0748C107.869 23.7548 106.631 22.8688 105.118 22.1058C103.605 21.3418 100.568 19.5378 98.368 18.0968C89.823 12.4998 74.1629 6.15579 68.8899 6.15579C67.2899 6.15579 61.952 4.80579 57.027 3.15579C49.046 0.481787 38.23 -0.873228 36.742 0.614772ZM57.833 7.62381C61.939 9.01581 66.834 10.1558 68.711 10.1558C73.229 10.1558 93.955 18.9868 96.868 22.1528C98.085 23.4758 103.118 25.1198 104.097 24.5138C104.722 24.1278 104.889 24.3118 104.495 24.9508C103.545 26.4868 106.472 27.8428 112.368 28.6008C123.495 30.0308 123.813 30.1298 123.162 31.9428C122.234 34.5298 119.614 36.7518 116.6 37.5078C113.258 38.3468 112.174 41.9168 113.718 46.9968C114.858 50.7438 117.226 52.7768 125.868 57.4248C135.429 62.5668 137.383 63.6748 137.867 64.2308C140.049 66.7338 156.865 73.7008 164.321 75.1908C177.852 77.8958 199.525 89.4998 201.942 95.3338C202.735 97.2488 202.817 98.6068 202.177 99.2468C200.912 100.512 193.856 100.743 186.868 99.7488C181.891 99.0408 181.005 99.2148 177.549 101.578C175.449 103.014 173.311 103.93 172.799 103.614C172.287 103.297 171.868 103.43 171.868 103.91C171.868 104.389 169.116 106.328 165.753 108.219C159.03 111.998 153.868 117.172 153.868 120.132C153.868 121.18 153.418 122.316 152.868 122.656C151.389 123.57 151.654 133.398 153.219 135.683C153.962 136.768 154.872 138.9 155.242 140.421C155.611 141.942 156.691 144.118 157.641 145.256C158.591 146.393 160.065 148.151 160.918 149.162C163.611 152.357 172.982 155.948 180.578 156.696C186.553 157.285 188.344 157.903 191.032 160.302C192.815 161.895 196.096 163.729 198.321 164.378C200.547 165.027 202.593 165.866 202.868 166.242C203.143 166.617 204.231 167.089 205.285 167.29C206.34 167.491 207.372 168.166 207.58 168.79C208.255 170.818 205.214 172.76 199.289 174.086C195.263 174.987 192.548 176.322 190.427 178.444C188.744 180.126 187.352 181.762 187.333 182.079C187.252 183.396 184.418 187.794 182.451 189.656C178.727 193.18 175.971 197.743 174.704 202.48C173.552 206.786 173.659 207.511 176.307 213.374C177.867 216.829 179.644 220.781 180.256 222.156C180.868 223.531 181.818 225.148 182.368 225.749C182.918 226.35 185.298 228.947 187.658 231.52C192.22 236.495 198.523 241.238 205.862 245.218C208.334 246.559 210.809 248.009 211.362 248.441C211.915 248.873 214.585 250.673 217.295 252.441C220.005 254.209 222.911 256.106 223.755 256.656C224.598 257.206 226.129 258.673 227.158 259.916C228.187 261.158 229.512 261.876 230.103 261.511C230.715 261.132 230.889 261.313 230.506 261.932C230.137 262.529 230.968 264.24 232.352 265.733C234.741 268.311 235.734 271.293 234.118 271.038C231.598 270.64 227.821 271.336 226.689 272.406C225.957 273.099 222.362 273.75 218.626 273.867C214.917 273.983 210.951 274.577 209.811 275.187C208.671 275.797 206.788 276.479 205.627 276.702C203.102 277.189 202.474 278.083 199.916 284.827C197.881 290.192 197.885 291.387 199.983 307.156C200.531 311.281 201.149 316.456 201.355 318.656C201.562 320.856 201.907 323.331 202.123 324.156C202.339 324.981 203.094 328.356 203.8 331.656C204.507 334.956 205.451 338.11 205.899 338.665C206.346 339.22 207.424 342.82 208.294 346.665C209.163 350.51 210.496 355.456 211.255 357.656C215.258 369.255 216.12 373.305 214.84 374.487C213.873 375.38 213.731 375.377 214.239 374.473C214.841 373.401 210.548 364.359 208.866 363.156C208.482 362.881 207.586 361.531 206.875 360.156C203.953 354.501 198.615 347.194 197.783 347.709C197.292 348.012 197.131 347.634 197.425 346.868C197.719 346.103 197.264 344.899 196.414 344.194C195.563 343.488 194.868 342.464 194.868 341.918C194.868 341.371 193.347 338.839 191.488 336.29C189.63 333.741 186.978 328.506 185.596 324.656C184.214 320.806 182.418 316.081 181.606 314.156C179.743 309.74 178.054 304.905 176.367 299.156C175.641 296.681 175.007 295.396 174.957 296.301C174.833 298.591 178.386 309.817 181.374 316.573C186.256 327.612 183.293 325.815 177.389 314.156C175.579 310.581 170.448 300.681 165.986 292.156C161.524 283.631 157.872 276.044 157.871 275.296C157.869 274.548 156.588 271.398 155.023 268.296C153.458 265.194 150.213 256.694 147.813 249.406C145.413 242.118 143.192 236.156 142.877 236.156C142.562 236.156 142.211 235.032 142.097 233.658C141.984 232.285 140.958 228.391 139.817 225.006C138.317 220.551 138.06 218.655 138.89 218.143C139.667 217.662 139.486 217.223 138.326 216.778C136.947 216.249 136.707 215.207 137.082 211.389C137.839 203.688 142.799 194.504 147.725 191.683C148.771 191.084 148.925 191.45 148.398 193.281C147.847 195.191 148.102 195.044 149.698 192.535C151.154 190.244 152.705 189.238 155.525 188.753C160.217 187.947 166.868 185.163 166.868 184.004C166.868 182.899 165.522 182.919 164.318 184.042C163.116 185.163 152.593 188.215 151.994 187.616C151.749 187.37 152.07 185.426 152.708 183.296C153.346 181.167 153.824 178.576 153.771 177.54C153.718 176.504 152.931 178.466 152.021 181.901C150.597 187.282 149.884 188.406 146.87 190.019C143.516 191.814 137.658 200.836 136.726 205.641C136.273 207.979 133.868 208.874 133.868 206.704C133.868 205.814 132.794 201.614 131.482 197.371C130.17 193.128 127.515 184.481 125.582 178.156C123.649 171.831 121.032 163.281 119.765 159.156C118.497 155.031 115.531 146.76 113.173 140.777C109.063 130.352 108.86 129.328 108.312 116.277C107.767 103.303 107.85 102.47 110.054 98.7308C111.46 96.3458 114.134 93.8598 116.868 92.3938C120.672 90.3558 122.383 90.0498 127.929 90.4218C131.814 90.6828 135.573 91.5718 137.147 92.6028C138.608 93.5608 140.381 94.1378 141.086 93.8858C141.791 93.6348 140.568 92.6378 138.368 91.6698C136.168 90.7028 133.587 89.5168 132.632 89.0338C129.185 87.2908 122.334 88.1008 116.797 90.9058C112.571 93.0458 110.852 94.6528 109.039 98.1558C106.9 102.289 106.746 103.6 107.139 114.239C107.467 123.091 107.272 125.823 106.313 125.823C105.623 125.823 105.267 125.279 105.522 124.614C106.271 122.663 97.1899 106.657 95.3299 106.649C94.4309 106.645 93.06 105.771 92.282 104.708C90.133 101.768 90.594 100.485 92.907 102.967C97.702 108.115 95.985 104.49 87.311 91.1558C84.986 87.5808 81.616 81.8438 79.823 78.4058C78.03 74.9688 76.181 72.1558 75.715 72.1558C75.249 72.1558 74.868 71.4808 74.868 70.6558C74.868 69.8308 74.418 69.1558 73.868 69.1558C73.318 69.1558 72.868 68.5168 72.868 67.7358C72.868 65.5038 66.509 55.1978 65.118 55.1758C63.083 55.1438 63.677 58.5138 66.72 64.2648C78.888 87.2648 80.8769 91.0938 83.2959 96.1558C84.2149 98.0808 86.059 101.456 87.393 103.656C88.726 105.856 90.978 110.131 92.396 113.156C98.509 126.195 100.191 129.758 101.02 131.418C101.504 132.387 102.612 135.312 103.483 137.918C104.354 140.524 105.658 144.006 106.38 145.656C108.037 149.44 111.482 161.105 112.877 167.656C113.462 170.406 114.184 173.556 114.481 174.656C114.851 176.031 114.344 175.718 112.857 173.656C111.668 172.006 110.929 171.331 111.216 172.156C111.503 172.981 112.289 175.344 112.961 177.406C113.634 179.469 114.526 181.156 114.943 181.156C115.536 181.156 117.868 189.568 117.868 191.705C117.868 191.953 113.931 192.163 109.118 192.171C104.306 192.18 99.693 192.62 98.868 193.149C97.879 193.783 100.138 193.901 105.497 193.495C117.309 192.599 118.423 193.058 119.839 199.4C120.484 202.291 121.409 205.556 121.895 206.656C122.381 207.756 123.941 213.606 125.361 219.656C129.214 236.069 139.181 264.838 147.881 284.656C148.364 285.756 149.741 288.906 150.941 291.656C152.142 294.406 153.413 296.881 153.766 297.156C154.12 297.431 154.959 298.781 155.631 300.156C157.048 303.054 159.122 306.435 159.925 307.156C160.231 307.431 161.071 309.113 161.791 310.893C162.511 312.674 163.404 313.942 163.776 313.713C164.148 313.483 164.513 314.09 164.586 315.062C164.659 316.033 166.592 318.815 168.881 321.242C171.17 323.67 174.382 327.578 176.018 329.927C177.654 332.275 179.409 333.94 179.919 333.625C180.428 333.31 180.614 333.654 180.332 334.389C180.05 335.125 180.73 336.704 181.843 337.899C182.957 339.094 183.868 340.357 183.868 340.705C183.868 341.053 185.356 343.076 187.174 345.201C188.993 347.325 191.117 350.321 191.894 351.86C192.672 353.398 194.676 356.906 196.348 359.656C198.02 362.406 201.808 369.831 204.765 376.156C207.722 382.481 211.993 391.456 214.255 396.1C216.517 400.744 218.536 404.961 218.742 405.471C220.453 409.717 203.075 391.237 196.368 381.678C195.268 380.11 192.118 376.282 189.368 373.171C175.646 357.649 171.258 352.781 170.073 351.766C169.36 351.155 167.335 349.278 165.573 347.593C161.505 343.705 151.14 335.857 147.868 334.187C144.012 332.219 141.274 328.615 138.889 322.367C137.689 319.226 136.257 315.815 135.705 314.787C135.153 313.759 134.515 310.005 134.287 306.444C134.059 302.884 133.615 299.556 133.302 299.049C132.989 298.542 130.914 297.2 128.691 296.066L124.649 294.004L120.009 295.98C112.726 299.082 97.817 303.849 92.868 304.657C88.239 305.414 83.506 307.404 80.868 309.705C79.586 310.823 79.0869 310.437 77.4419 307.053C75.7119 303.496 75.627 302.308 76.604 295.375C77.969 285.7 78.705 282.437 80.376 278.656C81.106 277.006 82.012 273.856 82.391 271.656C83.987 262.387 90.186 242.309 93.329 236.232C95.207 232.6 95.72 222.608 94.11 220.998C93.294 220.182 91.799 220.188 88.49 221.021C86.011 221.645 81.641 222.156 78.78 222.156C72.684 222.156 66.169 225.684 63.302 230.537L61.529 233.539L60.113 229.597C59.334 227.43 58.461 220.931 58.172 215.156C57.68 205.286 57.835 204.122 60.751 195.767C62.457 190.879 64.2459 186.379 64.7259 185.767C65.2069 185.156 65.8269 183.394 66.1059 181.851C66.5799 179.222 66.416 179.066 63.49 179.36C61.773 179.532 55.643 181.98 49.868 184.8C44.093 187.619 37.756 190.209 35.786 190.555C27.302 192.044 14.233 204.109 12.073 212.446C11.635 214.137 10.8469 215.659 10.3219 215.829C9.79695 216 8.01797 210.63 6.36797 203.897C3.64697 192.796 3.37397 190.167 3.42897 175.656C3.46797 165.437 4.10596 156.043 5.19396 149.656C7.84896 134.07 8.41195 132.292 16.913 112.656C24.322 95.5438 26.685 88.8698 28.951 78.6558C32.461 62.8328 34.911 49.8658 34.475 49.4288C34.242 49.1958 34.47 47.5768 34.982 45.8308C36.602 40.3058 37.156 26.7278 35.985 21.2638C35.371 18.4018 33.969 14.1978 32.868 11.9208C31.768 9.6428 30.868 7.39982 30.868 6.93582C30.868 3.41682 46.616 3.81781 57.833 7.62381ZM119.868 15.0378C119.868 15.5878 120.318 16.3158 120.868 16.6558C121.418 16.9958 121.868 16.8238 121.868 16.2738C121.868 15.7238 121.418 14.9958 120.868 14.6558C120.318 14.3158 119.868 14.4878 119.868 15.0378ZM44.311 108.906C45.133 110.419 47.231 113.006 48.972 114.656C50.714 116.306 52.991 119.55 54.032 121.865C55.073 124.179 56.366 126.345 56.904 126.678C59.959 128.566 51.634 114.671 47.754 111.407C46.167 110.071 44.868 108.343 44.868 107.567C44.868 106.791 44.406 106.156 43.842 106.156C43.255 106.156 43.456 107.332 44.311 108.906ZM60.842 131.09L64.316 133.97L58.518 135.655C55.329 136.583 52.949 137.57 53.229 137.85C53.509 138.131 55.905 137.678 58.553 136.844C66.06 134.481 69.054 134.194 73.368 135.421C75.568 136.047 77.593 136.806 77.868 137.109C78.143 137.412 79.609 138.299 81.125 139.08C82.641 139.862 84.548 141.211 85.363 142.079C94.787 152.115 97.03 154.327 97.405 153.952C98.147 153.21 84.587 139.685 80.786 137.376C78.816 136.18 74.316 134.484 70.786 133.608C67.256 132.731 63.1489 131.146 61.6579 130.085C57.5079 127.13 56.928 127.845 60.842 131.09ZM37.599 147.864C35.526 149.287 34.069 150.691 34.361 150.983C34.654 151.275 36.219 150.533 37.84 149.335C39.461 148.137 41.255 147.156 41.828 147.156C42.4 147.156 42.868 146.706 42.868 146.156C42.868 144.652 41.748 145.015 37.599 147.864ZM28.618 151.845C27.656 152.097 26.868 152.75 26.868 153.297C26.868 154.385 30.773 153.487 32.318 152.044C33.317 151.11 31.753 151.026 28.618 151.845ZM106.136 165.176C107.913 167.895 109.688 170.128 110.08 170.138C111.15 170.165 105.557 161.321 104.136 160.738C103.458 160.46 104.358 162.457 106.136 165.176ZM118.793 166.656C118.791 168.037 118.338 167.615 117.329 165.291C116.525 163.441 115.884 161.416 115.903 160.791C115.965 158.815 118.797 164.562 118.793 166.656ZM121.23 173.656C121.546 174.481 121.369 175.156 120.837 175.156C120.304 175.156 119.868 174.481 119.868 173.656C119.868 172.831 120.045 172.156 120.261 172.156C120.477 172.156 120.913 172.831 121.23 173.656ZM94.681 194.839C95.402 195.128 96.265 195.092 96.597 194.76C96.929 194.428 96.339 194.192 95.285 194.235C94.12 194.283 93.883 194.52 94.681 194.839ZM137.551 231.344C137.232 232.141 136.995 231.904 136.947 230.739C136.904 229.685 137.14 229.095 137.472 229.427C137.804 229.759 137.84 230.622 137.551 231.344ZM144.865 250.406C146.359 254.669 147.268 258.156 146.885 258.156C146.502 258.156 145.585 256.243 144.848 253.906C144.111 251.569 143.179 249.206 142.777 248.656C142.376 248.106 141.781 245.856 141.456 243.656C140.776 239.057 141.14 239.776 144.865 250.406ZM172.343 252.656C173.741 261.983 173.769 265.276 172.503 271.156C171.05 277.902 171.871 289.837 174.017 293.148C174.754 294.285 174.872 294.041 174.496 292.156C173.001 284.651 172.812 275.307 174.063 270.656C176.024 263.359 176.996 262.159 181.425 261.56C188.488 260.605 189.868 260.139 189.868 258.714C189.868 257.53 189.436 257.516 187.118 258.622C185.605 259.344 182.23 260.155 179.618 260.423C175.041 260.893 174.866 260.814 174.823 258.283C174.798 256.838 174.129 254.306 173.335 252.656L171.893 249.656L172.343 252.656ZM148.868 261.156C148.868 262.256 148.695 263.156 148.485 263.156C148.274 263.156 147.866 262.256 147.578 261.156C147.291 260.056 147.463 259.156 147.962 259.156C148.46 259.156 148.868 260.056 148.868 261.156ZM126.368 269.156C126.028 269.706 124.652 270.156 123.309 270.156C121.966 270.156 120.868 270.606 120.868 271.156C120.868 272.408 121.098 272.402 124.553 271.073C126.101 270.477 129.168 269.626 131.368 269.182L135.368 268.375L131.177 268.266C128.872 268.205 126.708 268.606 126.368 269.156ZM135.868 270.25C135.868 270.748 136.281 271.156 136.786 271.156C137.291 271.156 138.49 271.457 139.45 271.826C140.548 272.247 140.955 272.106 140.548 271.447C139.693 270.064 135.868 269.086 135.868 270.25ZM114.421 274.465C109.618 277.403 104.658 281.156 105.578 281.156C106.134 281.156 108.221 280.048 110.217 278.694C112.212 277.34 115.087 275.558 116.606 274.734C118.125 273.91 118.693 273.245 117.868 273.255C117.043 273.265 115.492 273.81 114.421 274.465ZM156.551 280.344C156.232 281.141 155.995 280.904 155.947 279.739C155.904 278.685 156.14 278.095 156.472 278.427C156.804 278.759 156.84 279.622 156.551 280.344ZM164.868 303.156C164.868 303.706 164.418 304.156 163.868 304.156C163.318 304.156 162.868 303.706 162.868 303.156C162.868 302.606 163.318 302.156 163.868 302.156C164.418 302.156 164.868 302.606 164.868 303.156ZM172.833 310.597C172.852 311.115 172.207 310.665 171.4 309.597C170.592 308.53 169.933 306.981 169.935 306.156C169.939 304.582 172.769 308.92 172.833 310.597ZM176.439 317.156C176.439 318.256 176.327 319.156 176.189 319.156C176.051 319.156 175.457 318.256 174.868 317.156C174.049 315.625 174.108 315.156 175.119 315.156C175.845 315.156 176.439 316.056 176.439 317.156ZM181.868 325.763C181.868 327.841 180.177 327.445 179.598 325.231C179.245 323.88 179.508 323.464 180.481 323.838C181.244 324.131 181.868 324.997 181.868 325.763Z" fill="black"/>
</svg>
