<svg width="367" height="693" viewBox="0 0 367 693" fill="none" xmlns="http://www.w3.org/2000/svg">
<path fill-rule="evenodd" clip-rule="evenodd" d="M185.577 3.18074C182.849 6.77974 180.803 10.3817 180.803 11.5817C180.803 12.0117 182.386 9.90674 184.32 6.90374C186.255 3.90174 188.617 1.13574 189.57 0.757743C191.082 0.158743 191.094 0.0627397 189.671 0.000739662C188.773 -0.0372603 186.931 1.39374 185.577 3.18074ZM190.622 10.1827C187.46 15.1907 185.336 20.3367 186.805 19.4287C187.353 19.0897 187.803 18.2667 187.803 17.5987C187.803 16.9317 189.351 14.0327 191.245 11.1577C193.138 8.28274 194.375 5.93174 193.995 5.93274C193.614 5.93374 192.096 7.84574 190.622 10.1827ZM211.126 11.1807C211.187 13.7927 211.59 15.9307 212.02 15.9307C212.986 15.9307 212.875 12.2847 211.809 8.93074C211.193 6.99574 211.039 7.50374 211.126 11.1807ZM229.432 8.40574C229.743 9.21774 230.339 14.0547 230.757 19.1557L231.518 28.4307L231.646 19.9307C231.78 11.0737 231.166 6.93074 229.718 6.93074C229.249 6.93074 229.121 7.59474 229.432 8.40574ZM200.428 12.0557C200.084 13.7747 199.863 16.5867 199.937 18.3057C200.045 20.8367 200.206 20.5747 200.783 16.9307C201.175 14.4557 201.838 11.6437 202.257 10.6807C202.689 9.68574 202.593 8.93074 202.035 8.93074C201.495 8.93074 200.772 10.3367 200.428 12.0557ZM238.123 10.3207C239.492 13.8897 240.903 25.5557 240.334 28.6027C240.008 30.3477 240.092 31.9917 240.521 32.2567C241.866 33.0867 241.965 23.8237 240.688 16.6797C240.016 12.9177 239.015 9.56274 238.464 9.22174C237.861 8.84974 237.726 9.28774 238.123 10.3207ZM248.373 10.9307C248.811 12.3057 249.514 15.2307 249.936 17.4307C250.641 21.1037 250.678 20.9967 250.394 16.1217C250.224 13.2017 249.52 10.2767 248.831 9.62174C247.835 8.67574 247.742 8.94474 248.373 10.9307ZM220.536 14.1807C221.28 20.0117 221.803 20.1837 221.803 14.5977C221.803 12.0307 221.396 9.93074 220.898 9.93074C220.4 9.93074 220.237 11.8427 220.536 14.1807ZM254.883 13.2467C254.838 13.6947 255.269 14.9337 255.839 15.9987C256.409 17.0637 257.254 20.5207 257.717 23.6827C258.557 29.4167 258.559 29.4197 258.655 24.9307C258.709 22.4017 257.922 18.6787 256.858 16.4307C255.817 14.2307 254.927 12.7977 254.883 13.2467ZM178.303 15.9307C177.963 16.4807 178.162 16.9307 178.744 16.9307C179.326 16.9307 179.803 16.4807 179.803 15.9307C179.803 15.3807 179.604 14.9307 179.361 14.9307C179.118 14.9307 178.643 15.3807 178.303 15.9307ZM210.919 22.1807C211.04 27.6357 211.433 27.1117 212.045 20.6807C212.241 18.6187 212.042 16.9307 211.602 16.9307C211.163 16.9307 210.855 19.2927 210.919 22.1807ZM184.443 23.1407C184.105 24.4007 183.869 26.3307 183.917 27.4307C183.965 28.5307 184.416 27.6757 184.919 25.5297C185.894 21.3747 185.476 19.2817 184.443 23.1407ZM220.938 24.4307C220.836 26.6307 220.299 30.4027 219.744 32.8127C219.188 35.2227 218.934 37.3957 219.18 37.6417C220.008 38.4697 221.938 27.0177 221.528 23.7077C221.147 20.6267 221.111 20.6707 220.938 24.4307ZM197.803 26.4307C197.101 28.9377 196.756 31.2177 197.037 31.4977C197.317 31.7777 198.073 29.9107 198.719 27.3477C200.246 21.2797 199.464 20.4967 197.803 26.4307ZM173.107 25.0087C167.508 27.7797 166.382 31.1987 162.749 56.4307C162.116 60.8307 160.519 67.7507 159.2 71.8087C157.882 75.8657 156.803 79.5667 156.803 80.0307C156.803 81.2287 153.161 88.9977 139.643 116.642C133.131 129.958 127.803 141.514 127.803 142.321C127.803 143.128 127.113 144.478 126.27 145.321C125.427 146.164 122.966 151.842 120.8 157.94C118.634 164.037 116.64 169.384 116.37 169.821C116.1 170.258 114.554 175.525 112.935 181.524C108.709 197.183 106.46 215.66 107.025 230.075C107.281 236.596 107.417 241.931 107.326 241.931C107.235 241.931 105.098 239.955 102.578 237.54C100.057 235.126 96.2645 232.579 94.1495 231.882C89.9215 230.488 84.3845 226.765 76.5415 220.041L71.4205 215.651L61.3575 216.221C54.2045 216.626 49.8505 217.421 46.2985 218.969C43.5505 220.167 40.0575 221.519 38.5355 221.974C34.5375 223.169 24.5105 230.855 21.7055 234.874C16.9525 241.686 13.8185 247.468 13.8105 249.441C13.8065 250.547 12.6775 252.665 11.3025 254.148C9.92749 255.63 8.80249 257.259 8.80249 257.766C8.80249 258.273 7.4845 259.234 5.8745 259.901C2.2955 261.383 1.0055 263.931 3.8335 263.931C4.9165 263.931 5.80249 263.481 5.80249 262.931C5.80249 262.381 6.2905 261.931 6.8875 261.931C8.8505 261.931 14.1635 254.993 16.3885 249.525C20.8615 238.529 29.2445 229.588 38.8945 225.518C41.3185 224.496 44.8255 222.996 46.6865 222.185C50.9435 220.329 65.3045 219.006 69.3545 220.095C71.0335 220.546 73.7335 222.168 75.3545 223.698C76.9765 225.228 79.9865 227.594 82.0455 228.956C84.1045 230.317 85.7915 231.71 85.7955 232.051C85.7995 232.392 87.9295 233.267 90.5295 233.995C93.1295 234.723 96.1675 236.272 97.2795 237.437C98.3925 238.602 100.397 240.303 101.736 241.217C104.84 243.334 105.283 246.305 103.059 250.082C101.61 252.541 100.863 252.948 98.8025 252.402C97.4275 252.038 94.0525 251.517 91.3025 251.245C87.7605 250.894 85.4275 249.968 83.3025 248.068C78.9725 244.198 71.8025 239.364 71.8025 240.316C71.8025 240.592 75.2415 243.407 79.4435 246.57C85.6475 251.239 87.7195 252.278 90.4605 252.093C94.8775 251.796 102.201 256.067 103.771 259.855C105.539 264.125 104.764 268.174 102.102 268.573C100.893 268.755 99.6295 268.459 99.2935 267.917C98.9585 267.375 97.8045 266.931 96.7295 266.931C95.6545 266.931 93.9935 266.536 93.0385 266.054C89.8415 264.439 84.1885 262.931 81.3275 262.931C77.8055 262.931 65.7605 257.195 63.4765 254.431C62.9415 253.783 62.4715 253.87 62.1435 254.679C61.6095 255.996 57.1115 255.414 55.3525 253.802C54.8295 253.323 53.3675 252.931 52.1025 252.931C50.8375 252.931 49.8025 252.429 49.8025 251.814C49.8025 251.16 48.7585 250.897 47.2785 251.18C45.8905 251.446 44.5435 251.32 44.2845 250.902C43.7235 249.994 37.0145 251.398 32.1005 253.451C30.1695 254.258 28.1875 254.669 27.6965 254.365C27.2045 254.062 26.8025 254.241 26.8025 254.764C26.8025 255.286 25.7145 255.987 24.3855 256.321C23.0565 256.654 19.3435 259.171 16.1355 261.914C12.4865 265.034 8.8795 267.187 6.5015 267.666C2.1375 268.544 1.88149 270.51 6.16249 270.272C8.65549 270.133 17.9815 264.609 21.2635 261.327C24.7515 257.839 37.8375 253.504 43.9965 253.796C46.0285 253.892 50.0785 255.083 52.9965 256.441C55.9145 257.8 59.0895 258.916 60.0525 258.921C61.0155 258.927 61.8025 259.62 61.8025 260.462C61.8025 261.305 61.0155 262.281 60.0525 262.633C57.1315 263.699 53.5795 266.807 52.1635 269.535C47.7565 278.031 46.4995 292.786 49.3155 302.963C53.9555 319.73 55.0435 327.854 53.6735 335.505C52.8085 340.336 48.3755 342.617 37.4345 343.86C27.9145 344.942 26.1395 345.648 21.3395 350.259C17.5885 353.864 15.5085 357.587 13.8945 363.587C13.2795 365.872 10.9825 370.429 8.78949 373.713C6.59649 376.997 4.80249 379.936 4.80249 380.245C4.80249 382.123 10.0125 379.91 14.0875 376.301C20.2065 370.881 26.8915 367.151 33.6515 365.386C46.2775 362.088 59.4455 357.264 63.3025 354.523C64.9525 353.35 67.6285 351.724 69.2495 350.911C73.1335 348.96 78.6805 343.383 79.8835 340.217C80.4255 338.791 80.5825 333.124 80.2435 327.211C79.4775 313.852 80.1315 312.205 87.5755 308.742C92.5325 306.437 94.3535 306.121 101.111 306.397C105.406 306.572 109.006 306.877 109.111 307.073C109.216 307.27 109.143 307.346 108.947 307.241C108.292 306.893 105.253 310.385 102.582 314.556C100 318.586 98.3175 324.425 98.5825 328.431C98.8195 332.023 103.104 344.375 104.948 346.782C107.773 350.47 108.274 355.407 106.339 360.474C105.403 362.925 104.2 364.931 103.667 364.931C101.953 364.931 96.8515 377.286 96.2275 382.948C95.8945 385.964 95.5725 388.656 95.5105 388.931C95.2695 390.001 97.0285 397.485 97.9065 399.125C99.4115 401.938 101.441 400.276 101.01 396.584C100.564 392.77 104.703 386.931 107.85 386.931C110.39 386.931 118.803 381.752 118.803 380.188C118.803 378.524 117.284 378.592 115.542 380.334C114.77 381.106 111.951 382.48 109.277 383.388C106.603 384.296 103.149 386.364 101.6 387.985C100.052 389.605 98.5605 390.931 98.2855 390.931C98.0105 390.931 98.0765 388.344 98.4315 385.181C99.1655 378.66 103.461 368.351 106.605 365.568C107.78 364.528 109.24 361.331 109.912 358.329C110.973 353.588 110.893 352.449 109.236 348.692C108.203 346.348 107.059 344.206 106.693 343.931C105.794 343.255 102.549 335.917 102.05 333.431C101.064 328.517 101.594 322.173 103.262 318.931C105.897 313.809 115.257 301.568 118.85 298.545C122.207 295.72 126.145 295.219 130.256 297.092C134.122 298.853 133.584 302.812 128.479 310.186C123.349 317.594 122.533 318.931 123.145 318.931C123.398 318.931 125.983 315.999 128.891 312.415C132.745 307.665 135.186 305.597 137.899 304.784C142.512 303.402 146.848 304.389 147.524 306.977C147.805 308.051 148.642 308.931 149.383 308.931C151.433 308.931 153.056 312.78 152.489 316.295C151.316 323.558 149.97 325.582 144.436 328.402C142.308 329.486 139.462 331.823 138.11 333.595C135.457 337.073 135.203 339.918 136.331 353.615C137.069 362.585 135.647 365.71 128.787 370.195C126.065 371.975 123.831 373.945 123.821 374.574C123.811 375.203 123.064 376.001 122.16 376.348C121.256 376.694 120.739 377.201 121.011 377.472C122.55 379.011 136.269 368.635 137.899 364.699C138.731 362.69 138.906 358.406 138.469 350.765C138.04 343.266 138.204 339.044 138.981 337.582C140.509 334.707 146.864 328.931 148.498 328.931C149.216 328.931 149.803 328.481 149.803 327.931C149.803 327.381 150.279 326.931 150.861 326.931C151.443 326.931 151.662 327.35 151.346 327.862C151.029 328.374 151.115 329.006 151.537 329.266C152.618 329.934 151.147 359.809 149.963 361.247C149.427 361.898 148.518 364.981 147.945 368.098C145.382 382.02 133.083 411.355 124.671 423.611C123.093 425.91 121.803 428.428 121.803 429.206C121.803 429.984 120.903 431.436 119.803 432.431C118.703 433.426 117.803 434.814 117.803 435.515C117.803 436.215 117.241 437.395 116.553 438.137C114.698 440.137 110.802 445.761 110.802 446.439C110.802 446.762 109.227 449.489 107.302 452.498C105.377 455.508 103.802 458.256 103.802 458.606C103.802 458.956 102.677 460.717 101.302 462.52C99.9275 464.323 98.8025 466.074 98.8025 466.412C98.8025 466.75 97.1475 469.593 95.1245 472.729C89.7725 481.027 78.7195 502.987 79.3665 504.035C79.6715 504.528 79.4965 504.931 78.9785 504.931C77.4165 504.931 70.7425 520.003 66.1365 533.931C64.1525 539.933 60.0095 555.866 58.3365 563.931C57.5945 567.506 56.5115 572.006 55.9305 573.931C50.9975 590.251 50.3945 635.691 54.7225 664.931C56.4155 676.368 59.7035 688.216 61.7655 690.31C64.2635 692.846 72.6935 692.783 74.6145 690.213C76.3485 687.891 75.4655 682.276 72.9345 679.538C71.7295 678.233 71.1105 676.376 71.3095 674.662C71.4865 673.139 71.2285 670.435 70.7365 668.655C69.1705 662.982 66.7475 648.811 65.2275 636.431C63.9375 625.923 63.2445 598.688 64.2245 597.031C64.4205 596.701 64.8885 593.747 65.2645 590.466C65.6415 587.185 66.1785 584.132 66.4575 583.681C66.7365 583.229 67.3925 580.063 67.9155 576.645C68.4385 573.228 69.1175 569.081 69.4245 567.431C69.7305 565.781 69.9625 563.552 69.9385 562.477C69.9155 561.402 70.3805 559.94 70.9715 559.227C71.7445 558.296 71.7155 557.531 70.8695 556.512C69.9525 555.407 70.0055 554.908 71.1085 554.262C71.8885 553.805 73.7785 548.931 75.3095 543.431C76.8405 537.931 78.7035 532.216 79.4485 530.731C80.1935 529.245 80.8025 526.883 80.8025 525.481C80.8025 524.078 81.2525 522.931 81.8025 522.931C82.3525 522.931 82.8025 522.403 82.8025 521.759C82.8025 519.716 92.9205 500.134 94.9035 498.34C95.9475 497.395 96.8025 496.236 96.8025 495.765C96.8025 493.666 101.152 485.931 102.333 485.931C103.053 485.931 103.921 484.666 104.26 483.121C104.6 481.575 107.238 476.963 110.122 472.871C113.006 468.779 116.696 463.181 118.322 460.431C119.947 457.681 121.733 454.708 122.29 453.824C122.847 452.94 124.985 449.115 127.042 445.324C129.098 441.533 131.836 436.631 133.124 434.431C139.829 422.975 145.306 412.429 150.261 401.431C156.937 386.613 159.453 379.982 160.15 375.372C160.488 373.14 161.419 369.99 162.218 368.372C165.396 361.938 171.067 341.26 171.183 335.687C171.249 332.527 171.495 329.94 171.731 329.937C171.967 329.934 173.61 330.455 175.382 331.096C177.992 332.04 178.901 333.176 180.16 337.073C181.665 341.733 181.634 342.056 179.219 347.33C175.54 355.367 175.065 361.564 177.727 366.782C178.914 369.108 180.99 371.515 182.343 372.132C183.695 372.748 184.803 373.656 184.803 374.15C184.803 374.644 186.816 376.88 189.277 379.119C191.738 381.359 194.019 384.039 194.348 385.076C194.677 386.112 195.336 386.719 195.813 386.424C196.904 385.75 196.959 386.414 197.215 403.431C197.331 411.131 197.893 419.025 198.463 420.973C199.204 423.509 199.167 425.64 198.33 428.473C197.687 430.65 197.147 432.656 197.13 432.931C197.113 433.206 196.151 435.288 194.994 437.557C193.836 439.827 193.168 441.964 193.512 442.307C194.601 443.396 196.802 442.98 196.82 441.681C196.829 440.994 198.742 438.388 201.07 435.891C203.398 433.393 206.483 429.793 207.925 427.891C209.367 425.988 211.646 423.306 212.989 421.931C214.332 420.556 216.382 417.856 217.546 415.931C218.71 414.006 221.043 411.109 222.732 409.494C224.42 407.879 225.803 406.186 225.803 405.734C225.803 405.281 227.32 402.752 229.174 400.114C231.028 397.476 232.879 394.218 233.287 392.875C233.696 391.531 234.897 389 235.956 387.25C238.378 383.248 239.555 374.514 237.818 373.441C236.935 372.895 236.77 373.256 237.236 374.722C237.592 375.844 237.415 377.052 236.843 377.406C236.27 377.76 235.803 379.106 235.803 380.397C235.803 381.689 234.003 386.204 231.803 390.431C229.603 394.658 227.803 398.749 227.803 399.524C227.803 400.298 227.157 400.931 226.369 400.931C225.581 400.931 224.653 401.828 224.305 402.925C223.957 404.022 223.116 405.484 222.438 406.175C221.76 406.866 218.847 410.518 215.965 414.291C213.083 418.064 210.061 421.815 209.249 422.627C208.436 423.44 206.601 425.64 205.169 427.518C201.646 432.137 199.935 432.006 200.756 427.181C201.107 425.119 200.948 421.406 200.404 418.931C199.31 413.951 199.274 407.159 200.296 399.187C201.447 390.202 198.975 384.837 189.347 375.431C178.01 364.355 177.426 363.341 178.908 357.292C179.563 354.618 181.157 350.41 182.451 347.939C185.134 342.813 185.233 341.923 183.663 337.002C180.761 327.898 178.614 326.569 166.662 326.477C158.492 326.415 157.187 325.853 156.639 322.168C155.845 316.821 171.957 305.931 180.663 305.931C184.732 305.931 190.087 307.971 191.61 310.102C192.328 311.108 193.319 311.931 193.813 311.931C194.969 311.931 199.452 316.408 200.779 318.887C201.341 319.939 201.803 321.729 201.803 322.865C201.803 325.366 203.754 325.657 203.921 323.181C203.987 322.219 203.987 321.093 203.921 320.681C203.856 320.268 204.224 319.931 204.74 319.931C206.591 319.931 206.261 326.568 204.053 333.719C200.463 345.348 201.465 357.111 205.818 354.421C206.549 353.969 206.312 353.291 205.113 352.412C202.637 350.597 202.929 341.373 205.71 333.524C208.363 326.038 208.327 323.612 205.477 317.431C201.953 309.787 204.066 303.002 211.126 299.289C217.282 296.051 229.593 302.266 231.417 309.532C232.106 312.28 231.26 327.409 230.243 330.504C228.972 334.373 226.264 339.468 224.701 340.931C223.82 341.756 222.392 343.805 221.527 345.484C220.112 348.233 220.108 348.85 221.486 351.696C222.448 353.682 224.64 355.642 227.386 356.971C232.971 359.675 236.803 364.2 236.803 368.091C236.803 370.062 237.234 370.948 238.053 370.663C239.767 370.067 239.07 361.923 237.118 359.743C236.286 358.815 233.214 356.607 230.292 354.836C223.094 350.473 222.149 348.184 225.738 343.811C231.792 336.434 234.885 325.823 234.232 314.681C234.047 311.519 234.213 308.964 234.6 309.004C234.986 309.044 236.627 309.854 238.244 310.803C241.67 312.813 243.032 315.099 248.368 327.786C251.802 335.95 252.778 337.384 256.031 339.045C259.172 340.649 260.474 340.789 264.297 339.932C272.402 338.116 276.327 338.394 279.646 341.021C281.322 342.347 282.717 343.957 282.748 344.599C282.778 345.242 284.491 346.793 286.553 348.047C288.616 349.3 290.528 350.618 290.803 350.976C291.677 352.114 299.199 352.903 303.113 352.268C305.193 351.931 308.214 350.416 309.845 348.892C311.472 347.372 312.803 346.311 312.803 346.535C312.803 346.758 315.053 344.643 317.803 341.835C320.553 339.026 322.803 336.361 322.803 335.913C322.803 335.465 323.157 334.948 323.59 334.764C324.024 334.581 326.672 331.576 329.476 328.087C338.133 317.314 348.486 311.552 352.592 315.222C355.798 318.088 359.634 317.785 363.725 314.342C368.025 310.724 367.733 309.092 362.829 309.342C359.031 309.536 355.737 310.931 359.077 310.931C361.821 310.931 362.041 312.865 359.433 314.054C357.386 314.986 356.366 314.831 353.626 313.168C350.652 311.364 349.816 311.279 345.684 312.354C339.845 313.873 334.076 318.426 328.043 326.278C321.07 335.352 313.918 343.042 309.345 346.382C305.791 348.977 304.546 349.312 299.037 349.157C292.297 348.967 291.937 348.779 284.94 341.816C278.468 335.375 277.431 334.983 269.906 336.135C262.009 337.343 254.904 336.433 254.118 334.111C253.805 333.187 252.535 330.181 251.296 327.431C250.056 324.681 248.698 321.306 248.278 319.931C247.389 317.018 243.366 311.3 240.187 308.431C235.29 304.011 233.241 302.483 231.945 302.284C231.198 302.17 229.623 301.198 228.445 300.125C227.267 299.052 225.045 297.534 223.507 296.751L220.71 295.327L225.507 292.314C231.236 288.714 237.33 286.111 240.917 285.731C243.933 285.412 248.063 289.651 249.175 294.205C249.548 295.731 251.396 299.001 253.282 301.472C255.168 303.942 257.489 308.431 258.44 311.447C259.39 314.463 260.568 316.931 261.057 316.931C261.546 316.931 262.621 317.606 263.446 318.431C264.271 319.256 266.376 319.87 268.124 319.795C270.854 319.678 270.951 319.593 268.816 319.194C264.372 318.364 261.146 315.228 259.803 310.431C259.101 307.922 256.849 303.521 254.801 300.65C252.752 297.78 250.744 294.367 250.337 293.067C248.972 288.713 242.597 280.447 239.433 278.931C236.814 277.676 236.248 276.778 235.973 273.431C235.523 267.961 237.317 262.523 240.041 261.1C241.285 260.45 244.329 259.55 246.805 259.1C250.749 258.383 251.605 258.564 253.732 260.559C255.067 261.812 257.43 263.362 258.981 264.005C260.533 264.648 261.803 265.46 261.803 265.809C261.803 266.159 263.792 268.87 266.222 271.833C268.653 274.796 271.415 279.293 272.359 281.826C273.304 284.359 274.69 287.141 275.44 288.01C276.19 288.878 276.803 290.319 276.803 291.213C276.803 294.918 279.167 297.715 284.13 299.882C293.119 303.807 301.704 301.419 315.303 291.21C325.343 283.673 328.746 281.931 333.432 281.931C337.503 281.931 343.803 283.866 343.803 285.117C343.803 285.548 345.153 288.095 346.803 290.777C348.453 293.458 349.803 296.519 349.803 297.579C349.803 298.639 351.135 301.065 352.762 302.969C355.38 306.031 355.726 306.185 355.762 304.303C355.785 303.133 355.128 301.616 354.303 300.931C353.478 300.246 352.803 298.909 352.803 297.96C352.803 297.011 351.116 293.129 349.053 289.333C346.011 283.734 344.472 282.012 340.901 280.211C333.613 276.534 329.259 277.999 314.513 289.088C304.745 296.435 298.968 299.041 292.147 299.179C285.078 299.322 282.333 297.269 278.697 289.118C277.057 285.44 275.284 281.65 274.759 280.695C274.233 279.74 273.803 278.277 273.803 277.445C273.803 276.612 273.353 275.931 272.803 275.931C272.253 275.931 271.803 275.367 271.803 274.678C271.803 273.988 270.479 272.175 268.861 270.648C267.243 269.12 265.668 267.082 265.362 266.117C265.056 265.153 263.403 263.535 261.69 262.523C259.976 261.511 257.644 259.613 256.508 258.307C254.837 256.385 253.473 255.934 249.373 255.945C242.429 255.963 240.085 256.744 239.428 259.256C238.995 260.911 238.599 261.127 237.678 260.206C236.758 259.286 236.782 258.661 237.787 257.449C238.502 256.588 238.863 255.658 238.588 255.383C237.968 254.763 236.083 256.956 235.635 258.819C235.452 259.579 234.316 261.303 233.11 262.651C231.904 263.998 229.985 266.888 228.846 269.072C227.708 271.257 226.339 273.581 225.805 274.238C221.081 280.041 219.803 281.876 219.803 282.857C219.803 283.482 219.111 284.259 218.266 284.584C217.421 284.908 216.01 286.565 215.13 288.265C212.62 293.12 208.986 295.325 201.357 296.623C197.505 297.279 194.19 297.652 193.99 297.452C193.79 297.252 194.506 295.815 195.58 294.26C199.681 288.319 206.596 276.325 207.298 273.931C207.702 272.556 208.87 269.856 209.895 267.931C212.32 263.376 216.301 251.029 217.792 243.431C218.439 240.131 219.814 234.056 220.846 229.931C224.367 215.861 227.658 201.44 228.834 194.931C230.284 186.902 230.628 185.095 231.303 181.931C232.822 174.816 232.578 176.969 236.393 136.931C237.206 128.406 238.292 115.581 238.809 108.431C240.395 86.4857 241.915 76.8587 245.505 66.0097C250.082 52.1767 252.423 47.3997 255.633 45.3487C257.101 44.4107 257.983 43.9897 257.593 44.4137C257.202 44.8377 257.571 46.5157 258.413 48.1427C260.187 51.5747 259.733 61.0157 257.483 67.4637C256.722 69.6457 255.778 73.9057 255.386 76.9307C254.994 79.9557 253.846 85.5807 252.835 89.4307C251.824 93.2807 250.697 98.4557 250.331 100.931C249.965 103.406 249.035 107.456 248.264 109.931C246.528 115.509 245.878 138.098 246.87 158.431C247.273 166.681 247.922 181.081 248.313 190.431C248.703 199.781 249.198 207.725 249.412 208.085C250.827 210.457 243.43 241.814 239.624 249.582C239.044 250.766 238.774 252.341 239.024 253.082C239.637 254.904 243.576 246.046 245.984 237.431C250.329 221.88 250.755 218.099 250.274 199.431C250.018 189.531 249.609 179.856 249.363 177.931C249.117 176.006 248.813 161.381 248.687 145.431C248.478 118.939 248.638 115.696 250.546 107.931C251.694 103.256 253.142 96.7307 253.762 93.4307C255.049 86.5787 256.773 79.0977 259.855 66.9927C264.673 48.0627 259.961 34.9547 251.887 44.8327L249.106 48.2347L246.955 46.0827C245.771 44.8987 244.318 43.9307 243.726 43.9307C241.864 43.9307 236.626 49.8367 237.391 51.0737C237.863 51.8377 237.674 51.9697 236.843 51.4557C236.025 50.9497 235.75 49.3527 236.072 46.9567L236.571 43.2407L234.337 45.3357C231.937 47.5877 229.427 52.5937 228.275 57.4307L227.562 60.4307L226.258 56.9307C225.541 55.0057 224.92 52.1937 224.878 50.6807C224.803 47.9487 224.496 47.7717 219.303 47.4737C217.219 47.3547 216.862 45.3027 218.249 41.4307C218.883 39.6627 218.812 39.6147 217.635 41.0167C216.425 42.4577 216.126 42.4347 214.378 40.7667C211.705 38.2177 208.968 38.4747 207.635 41.3997C206.539 43.8057 204.605 43.9507 204.895 41.6057C205.157 39.4857 204.787 37.4547 203.88 36.0207C202.407 33.6947 197.427 36.4257 195.281 40.7367L193.441 44.4307L192.635 38.4977C192.192 35.2347 191.261 32.2037 190.566 31.7627C187.496 29.8147 183.604 31.7847 182.324 35.9347L181.555 38.4307L184.128 36.0537C189.541 31.0547 192.194 37.4347 189.412 48.7557C187.143 57.9817 181.946 74.6137 179.825 79.4307C178.856 81.6307 177.714 84.5557 177.287 85.9307C176.861 87.3057 174.843 92.0307 172.803 96.4307C170.763 100.831 168.767 105.556 168.368 106.931C167.968 108.306 166.722 111.456 165.598 113.931C163.568 118.405 159.291 130.699 157.771 136.431C157.333 138.081 156.226 142.131 155.309 145.431C154.393 148.731 153.486 152.189 153.294 153.116C153.101 154.043 152.38 155.843 151.691 157.116C147.973 163.993 144.003 183.402 140.683 210.931C139.202 223.21 140.63 246.447 144.247 268.931C145.707 278.006 147.168 288.273 147.494 291.746L148.087 298.06L143.695 295.452C141.279 294.017 138.582 292.603 137.7 292.309C135.596 291.608 129.157 278.507 127.32 271.191C124.195 258.745 122.699 237.463 123.787 220.931C124.348 212.406 125.207 203.631 125.695 201.431C126.184 199.231 127.313 194.056 128.205 189.931C129.097 185.806 130.237 181.306 130.74 179.931C131.242 178.556 132.617 174.056 133.796 169.931C136.5 160.464 139.678 150.966 140.923 148.632C141.45 147.642 143.045 143.592 144.468 139.632C145.891 135.671 147.337 132.206 147.68 131.931C148.023 131.656 149.375 128.281 150.686 124.431C151.996 120.581 154.414 114.281 156.059 110.431C158.799 104.023 159.962 100.217 161.473 92.7127C161.774 91.2177 162.647 89.4757 163.412 88.8407C164.177 88.2057 164.803 86.8277 164.803 85.7777C164.803 84.0357 168.701 73.5247 170.679 69.9307C172.08 67.3857 178.726 45.6107 179.751 40.2067C180.862 34.3467 180.532 31.6917 178.26 28.2257C177.375 26.8747 176.896 25.1307 177.196 24.3497C177.877 22.5747 178.095 22.5397 173.107 25.0087ZM177.803 36.7997C177.803 38.9007 176.878 43.2777 175.747 46.5257C174.616 49.7737 173.049 54.6807 172.265 57.4307C171.481 60.1807 169.664 65.5807 168.226 69.4307C166.789 73.2807 165.155 78.0057 164.596 79.9307C164.037 81.8557 162.729 85.1007 161.691 87.1407C160.653 89.1817 159.803 91.7827 159.803 92.9227C159.803 95.3177 156.56 105.282 153.822 111.299C149.928 119.859 145.521 130.79 141.675 141.431C139.488 147.481 137.081 154.006 136.327 155.931C133.325 163.595 127.799 183.002 125.791 192.931C124.623 198.706 123.234 205.462 122.704 207.944C121.648 212.886 121.291 250.909 122.262 254.931C122.594 256.306 123.273 260.833 123.769 264.99C124.677 272.594 125.114 274.036 129.442 283.708C130.74 286.611 131.803 289.159 131.803 289.37C131.803 290.128 128.629 289.27 127.973 288.335C127.605 287.809 125.484 285.965 123.262 284.237C118.965 280.895 112.802 270.357 112.802 266.35C112.802 265.084 112.404 263.803 111.917 263.502C110.521 262.639 109.77 255.536 109.204 237.846C108.678 221.358 109.682 207.377 112.287 194.931C113.035 191.356 114.165 185.956 114.796 182.931C115.428 179.906 117.221 174.056 118.782 169.931C120.343 165.806 121.939 161.306 122.331 159.931C123.246 156.712 131.108 139.733 144.55 111.949C147.083 106.714 150.651 99.3327 152.479 95.5467C154.307 91.7597 155.803 88.0417 155.803 87.2827C155.803 86.5247 156.2 85.1217 156.686 84.1667C161.328 75.0427 163.564 66.0057 167.859 39.0177C168.74 33.4827 169.662 30.9797 171.503 29.1387L173.968 26.6737L175.886 29.8267C176.94 31.5607 177.803 34.6987 177.803 36.7997ZM249.055 30.4307C249.066 32.6307 249.271 33.4127 249.51 32.1687C249.749 30.9247 249.74 29.1247 249.49 28.1687C249.24 27.2127 249.044 28.2307 249.055 30.4307ZM209.96 29.9307C209.96 31.3057 210.187 31.8687 210.464 31.1807C210.742 30.4937 210.742 29.3687 210.464 28.6807C210.187 27.9937 209.96 28.5557 209.96 29.9307ZM195.262 33.9977C194.899 34.5837 194.817 35.2787 195.079 35.5407C195.341 35.8027 195.822 35.3227 196.148 34.4737C196.824 32.7117 196.248 32.4017 195.262 33.9977ZM208.426 34.4697C207.461 36.9837 207.746 37.6327 208.925 35.6057C209.509 34.6017 209.776 33.5697 209.518 33.3127C209.261 33.0547 208.768 33.5757 208.426 34.4697ZM257.123 36.6807C256.087 40.0017 256.116 40.2087 257.378 38.4897C258.572 36.8637 259.399 32.9307 258.548 32.9307C258.407 32.9307 257.766 34.6187 257.123 36.6807ZM239.426 35.4697C238.461 37.9837 238.746 38.6327 239.925 36.6057C240.509 35.6017 240.776 34.5697 240.518 34.3127C240.261 34.0547 239.768 34.5757 239.426 35.4697ZM202.39 43.0147C202.627 52.3467 196.637 72.1237 188.727 88.1277C184.593 96.4927 179.895 107.314 179.261 109.931C179.194 110.206 177.772 113.381 176.101 116.986C174.429 120.592 172.75 124.642 172.369 125.986C171.989 127.331 171.303 129.331 170.846 130.431C165.233 143.935 163.148 155.895 162.223 179.931C161.789 191.206 161.508 200.741 161.598 201.12C161.879 202.3 161.636 238.21 161.318 242.431C160.686 250.845 159.685 258.704 158.326 265.931C157.551 270.056 156.406 276.806 155.782 280.931C153.32 297.195 152.531 301.055 151.835 300.259C151.436 299.804 149.391 288.181 147.292 274.431C142.621 243.831 141.262 219.451 143.434 205.236C144.207 200.178 144.739 195.678 144.617 195.236C143.864 192.51 151.164 160.97 153.669 156.123C154.15 155.192 155.756 149.931 157.238 144.431C160.961 130.614 169.078 108.358 175.839 93.4307C177.334 90.1307 179.692 84.7307 181.079 81.4307C184.365 73.6057 191.803 50.3827 191.803 47.9457C191.803 46.9027 192.263 45.7637 192.827 45.4157C193.39 45.0667 193.728 45.2207 193.577 45.7567C193.426 46.2927 193.753 46.8027 194.303 46.8897C194.853 46.9767 195.528 46.1327 195.803 45.0117C196.499 42.1787 199.655 38.7147 201.101 39.1977C201.762 39.4187 202.342 41.1357 202.39 43.0147ZM237.367 40.6377C236.825 42.0627 236.938 42.1777 237.926 41.1977C238.61 40.5187 238.918 39.7117 238.61 39.4047C238.302 39.0967 237.743 39.6517 237.367 40.6377ZM214.352 47.3377C214.701 49.1977 214.516 51.5987 213.941 52.6727C213.275 53.9177 213.244 54.9717 213.855 55.5827C214.824 56.5517 209.247 73.7557 204.99 82.9307C203.842 85.4057 201.077 92.3807 198.846 98.4307C196.616 104.481 194.35 110.331 193.813 111.431C190.562 118.091 183.7 145.426 182.266 157.431C181.937 160.181 181.256 164.681 180.752 167.431C180.247 170.181 179.594 174.906 179.3 177.931C179.007 180.956 178.541 185.231 178.265 187.431C177.989 189.631 177.582 193.681 177.36 196.431C177.138 199.181 176.471 203.857 175.878 206.823C175.285 209.789 174.587 214.361 174.326 216.984C174.065 219.606 173.351 223.93 172.74 226.592C171.717 231.049 169.413 244.552 168.244 252.931C167.976 254.856 167.357 257.781 166.869 259.431C166.382 261.081 165.978 263.106 165.972 263.931C165.961 265.303 164.062 276.075 163.415 278.431C163.263 278.981 162.562 281.456 161.857 283.931C160.775 287.73 159.173 296.019 158.618 300.681C158.537 301.369 157.804 301.931 156.99 301.931C155.756 301.931 155.617 300.66 156.156 294.284C156.511 290.078 157.214 286.14 157.718 285.534C158.221 284.927 158.927 281.056 159.288 276.931C159.649 272.806 160.841 263.902 161.936 257.145C163.865 245.239 164.248 234.208 163.908 200.431C163.747 184.428 165.475 153.889 166.727 150.616C167.319 149.068 167.803 146.495 167.803 144.9C167.803 143.304 168.456 140.521 169.255 138.715C170.054 136.909 172.33 131.156 174.314 125.931C179.991 110.983 184.546 100.321 190.369 88.3397C196.287 76.1647 202.561 59.0807 203.45 52.7217C204.165 47.6117 209.379 41.7407 212.01 43.0837C212.949 43.5627 214.002 45.4767 214.352 47.3377ZM246.576 51.3317C247.383 53.1027 247.186 54.5917 245.712 57.8867C244.662 60.2307 243.803 62.9297 243.803 63.8837C243.803 64.8367 242.975 68.0507 241.965 71.0237C238.853 80.1837 237.236 94.2997 235.217 129.931C234.952 134.606 234.275 141.026 233.714 144.198C233.153 147.37 232.3 155.02 231.818 161.198C230.948 172.362 228.752 185.755 224.813 203.931C223.68 209.156 222.503 214.781 222.196 216.431C221.889 218.081 219.89 226.631 217.757 235.431C213.614 252.518 210.469 262.247 206.36 270.676C204.954 273.561 203.803 276.214 203.803 276.573C203.803 276.931 202.228 279.597 200.303 282.497C198.378 285.397 196.803 288.173 196.803 288.666C196.803 289.16 195.195 290.986 193.231 292.726C191.266 294.465 189.957 296.372 190.322 296.963C190.764 297.679 189.368 298 186.145 297.923C180.98 297.8 175.619 298.888 172.089 300.777C169.593 302.113 168.132 300.733 170.214 299.005C170.978 298.371 172.608 295.283 173.839 292.142C177.45 282.926 187.579 260.973 194.007 248.431C201.043 234.705 211.058 208.011 215.768 190.431C218.239 181.207 221.649 164.149 222.365 157.431C222.599 155.231 223.728 148.031 224.872 141.431C226.015 134.831 227.37 124.931 227.882 119.431C228.395 113.931 228.995 107.631 229.215 105.431C230.639 91.1887 230.907 81.9307 229.895 81.9307C228.64 81.9307 228.639 81.9337 228.223 91.9307C228.051 96.0557 227.661 101.681 227.357 104.431C227.053 107.181 226.354 114.237 225.805 120.111C225.255 125.986 224.418 131.836 223.943 133.111C223.467 134.387 222.764 138.806 222.38 142.931C220.246 165.831 213.177 196.046 205.731 214.104C204.12 218.01 202.803 221.896 202.803 222.74C202.803 223.583 201.405 227.234 199.697 230.852C197.989 234.47 195.109 240.581 193.296 244.431C191.483 248.281 189.416 253.119 188.701 255.181C187.986 257.244 187.042 258.931 186.602 258.931C186.163 258.931 185.803 259.804 185.803 260.872C185.803 261.94 185.388 263.069 184.882 263.382C183.819 264.039 176.09 279.825 172.863 287.931C168.693 298.403 166.125 302.431 163.619 302.431C161.674 302.431 161.329 301.949 161.469 299.431C161.683 295.595 164.516 282.939 164.714 284.931C164.831 286.105 165.095 286.033 165.929 284.599C166.514 283.592 166.768 281.904 166.492 280.848C166.215 279.792 166.325 279.136 166.736 279.39C167.755 280.02 173.068 264.528 172.614 262.252C172.414 261.251 171.183 264.158 169.878 268.714C168.574 273.269 167.047 277.28 166.485 277.628C165.905 277.986 165.691 277.647 165.99 276.845C167.537 272.687 175.993 221.81 178.356 202.431C184.517 151.913 188.391 131.028 194.68 114.431C195.722 111.681 197.765 106.281 199.218 102.431C200.671 98.5807 202.248 94.5307 202.723 93.4307C203.197 92.3307 205.46 86.4807 207.749 80.4307C210.038 74.3807 212.546 67.8557 213.322 65.9307C214.098 64.0057 215.465 59.8137 216.359 56.6147C218.027 50.6417 219.497 49.1767 222.553 50.4397C223.654 50.8957 223.863 51.3287 223.115 51.6097C222.258 51.9317 222.467 53.3127 223.865 56.5757C226.321 62.3037 226.296 65.8167 223.742 73.9307C221.964 79.5817 220.203 88.2267 218.244 100.931C217.01 108.93 215.535 115.781 213.822 121.463C212.822 124.78 212.003 129.135 212.003 131.141C212.003 133.147 211.647 136.732 211.212 139.109C210.293 144.13 210.507 143.232 208.88 148.921C208.174 151.391 207.445 154.541 207.26 155.921C207.074 157.302 205.504 162.931 203.771 168.431C202.038 173.931 199.788 181.131 198.77 184.431C196.588 191.507 189.992 209.678 188.702 212.167C188.207 213.122 187.803 214.945 187.803 216.217C187.803 217.49 187.429 218.959 186.972 219.481C185.94 220.66 183.521 228.982 184.055 229.516C184.501 229.963 188.165 221.155 189.706 215.931C190.274 214.006 192.369 207.931 194.361 202.431C203.889 176.12 213.158 143.053 214.255 131.455C214.465 129.242 215.314 124.506 216.144 120.931C218.692 109.943 222.632 89.7247 223.355 83.9307C223.732 80.9057 224.906 76.1037 225.964 73.2597C227.022 70.4167 228.064 67.2667 228.281 66.2597C229.971 58.4067 232.231 50.9307 232.915 50.9307C233.369 50.9307 233.481 51.6057 233.165 52.4307C232.848 53.2567 233.135 53.9307 233.803 53.9307C234.575 53.9307 234.747 54.5667 234.274 55.6807C233.866 56.6437 232.521 61.5927 231.285 66.6807C229.565 73.7607 229.342 75.9307 230.333 75.9307C231.067 75.9307 231.964 74.0907 232.406 71.6807C232.834 69.3427 233.243 67.2057 233.313 66.9307C237.448 50.8587 243.251 44.0337 246.576 51.3317ZM229.96 78.9307C229.96 80.3057 230.187 80.8687 230.464 80.1807C230.742 79.4937 230.742 78.3687 230.464 77.6807C230.187 76.9937 229.96 77.5557 229.96 78.9307ZM181.729 233.542C181.107 235.131 179.806 239.131 178.837 242.431C177.868 245.731 176.755 249.331 176.364 250.431C175.723 252.232 175.765 252.256 176.786 250.665C178.301 248.306 183.84 231.634 183.291 231.086C183.053 230.848 182.35 231.954 181.729 233.542ZM62.6815 233.933C64.5405 234.372 66.3405 235.114 66.6815 235.581C67.0235 236.049 68.2025 237.089 69.3025 237.893C70.4025 238.697 69.9805 237.909 68.3655 236.143C66.2085 233.784 64.6145 232.958 62.3655 233.033L59.3025 233.136L62.6815 233.933ZM174.469 256.598C174.102 256.964 173.803 257.729 173.803 258.298C173.803 258.924 174.269 258.865 174.986 258.148C175.637 257.497 175.937 256.732 175.653 256.448C175.369 256.164 174.835 256.231 174.469 256.598ZM76.3025 264.906C79.6025 265.535 85.4525 267.135 89.3025 268.46C93.1525 269.786 98.1005 271.241 100.297 271.694C104.538 272.569 105.471 274.131 104.369 278.518C103.767 280.92 103.63 280.947 92.0315 280.908C83.2415 280.878 79.0495 281.315 75.3025 282.65C66.4225 285.813 66.3685 285.882 66.1675 294.098C66.0695 298.131 65.6915 303.006 65.3295 304.931C64.7615 307.944 64.8395 308.161 65.8905 306.493C66.5625 305.427 67.2595 301.152 67.4395 296.993C67.8835 286.725 68.8095 285.259 75.7005 283.917C78.7815 283.317 82.6005 282.416 84.1865 281.915C86.0445 281.328 87.7705 281.379 89.0385 282.057C90.1215 282.637 91.8605 282.887 92.9045 282.615C94.1395 282.292 94.8025 282.637 94.8025 283.604C94.8025 284.773 95.4955 284.924 98.0525 284.314C106.81 282.223 111.115 284.956 110.964 292.508C110.911 295.128 110.169 298.747 109.312 300.551C107.768 303.804 107.711 303.826 102.029 303.3C93.8875 302.546 93.3045 302.603 89.0905 304.564C82.6695 307.553 79.9005 310.108 78.1695 314.641C76.8765 318.027 76.7255 319.825 77.4935 322.714C79.7565 331.225 77.0525 345.931 73.2255 345.931C72.6075 345.931 70.3475 347.171 68.2025 348.687C66.0575 350.202 63.1775 351.982 61.8025 352.642C54.4135 356.187 39.3735 361.398 33.3275 362.508C31.1415 362.91 28.7465 363.844 28.0065 364.584C27.2655 365.325 26.0425 365.931 25.2885 365.931C23.5755 365.931 16.8025 369.868 16.8025 370.863C16.8025 371.267 16.1275 371.598 15.3025 371.598C14.4775 371.598 13.8025 371.558 13.8025 371.51C13.8025 371.462 14.9345 368.302 16.3175 364.489C21.0065 351.561 27.0185 346.95 39.2065 346.937C44.7995 346.93 54.1365 343.027 55.3035 340.207C57.3965 335.152 57.7925 325.217 56.1345 319.392C54.5145 313.703 51.6865 302.176 50.6235 296.931C49.2365 290.091 50.4855 279.229 53.3375 273.331C54.6935 270.527 55.8025 267.726 55.8025 267.107C55.8025 265.58 61.1255 262.931 64.1935 262.931C65.5635 262.931 66.9795 262.454 67.3395 261.871C67.7695 261.176 68.3915 261.319 69.1485 262.286C69.7835 263.097 73.0025 264.276 76.3025 264.906ZM0.385484 265.797C-0.0455157 266.494 -0.127514 267.334 0.202486 267.664C1.09749 268.559 2.07349 267.243 1.58949 265.793C1.25149 264.777 1.01548 264.777 0.385484 265.797ZM233.486 275.119C233.167 275.916 232.93 275.679 232.882 274.514C232.839 273.46 233.075 272.87 233.407 273.202C233.739 273.534 233.775 274.397 233.486 275.119ZM239.532 283.535C239.2 283.867 238.336 283.903 237.615 283.614C236.817 283.295 237.054 283.058 238.219 283.01C239.273 282.967 239.864 283.203 239.532 283.535ZM160.783 312.455C160.087 313.293 159.311 313.773 159.059 313.522C158.366 312.828 159.776 310.931 160.984 310.931C161.648 310.931 161.572 311.505 160.783 312.455ZM201.803 311.931C201.803 312.481 201.604 312.931 201.361 312.931C201.118 312.931 200.643 312.481 200.303 311.931C199.963 311.381 200.162 310.931 200.744 310.931C201.326 310.931 201.803 311.381 201.803 311.931ZM120.675 321.681C119.432 323.267 119.467 323.302 121.053 322.059C122.719 320.752 123.248 319.931 122.425 319.931C122.218 319.931 121.43 320.719 120.675 321.681ZM118.206 326.458C117.749 328.279 118.337 330.14 120.311 333.122C122.711 336.749 122.985 337.95 122.533 342.845C122.041 348.165 122.08 348.288 123.364 345.431C125.288 341.151 125.129 339.497 122.201 333.309C120.771 330.285 119.828 326.938 120.107 325.871C120.386 324.804 120.215 323.931 119.727 323.931C119.239 323.931 118.555 325.068 118.206 326.458ZM163.303 331.931C163.643 332.481 163.443 332.931 162.861 332.931C162.279 332.931 161.803 332.481 161.803 331.931C161.803 331.381 162.001 330.931 162.244 330.931C162.487 330.931 162.963 331.381 163.303 331.931ZM136.26 422.862C136.577 423.374 136.377 424.075 135.818 424.421C135.259 424.766 134.803 424.347 134.803 423.49C134.803 421.733 135.403 421.475 136.26 422.862ZM127.803 435.871C127.803 436.271 127.128 436.598 126.303 436.598C125.478 436.598 124.803 436.012 124.803 435.296C124.803 434.549 125.443 434.239 126.303 434.569C127.128 434.886 127.803 435.472 127.803 435.871ZM128.803 439.431C128.803 440.256 128.367 440.931 127.834 440.931C127.302 440.931 127.125 440.256 127.441 439.431C127.758 438.606 128.194 437.931 128.41 437.931C128.626 437.931 128.803 438.606 128.803 439.431ZM117.486 443.119C117.167 443.916 116.93 443.679 116.882 442.514C116.839 441.46 117.075 440.87 117.407 441.202C117.739 441.534 117.775 442.397 117.486 443.119ZM111.147 451.474C110.821 452.323 110.34 452.803 110.078 452.541C109.816 452.279 109.899 451.584 110.262 450.998C111.248 449.402 111.823 449.712 111.147 451.474ZM97.0025 487.131C96.0695 488.064 95.8025 487.798 95.8025 485.931C95.8025 484.064 96.0695 483.798 97.0025 484.731C97.9355 485.664 97.9355 486.198 97.0025 487.131ZM91.8025 486.372C91.8025 486.615 91.3525 487.091 90.8025 487.431C90.2525 487.771 89.8025 487.572 89.8025 486.99C89.8025 486.408 90.2525 485.931 90.8025 485.931C91.3525 485.931 91.8025 486.129 91.8025 486.372ZM68.3025 559.931C68.6425 560.481 68.4435 560.931 67.8615 560.931C67.2795 560.931 66.8025 560.481 66.8025 559.931C66.8025 559.381 67.0005 558.931 67.2435 558.931C67.4865 558.931 67.9625 559.381 68.3025 559.931ZM57.7875 658.74C57.7755 661.491 57.5255 662.049 56.8025 660.931C55.5125 658.935 55.5125 653.634 56.8025 654.431C57.3525 654.771 57.7955 656.71 57.7875 658.74ZM62.8025 683.49C62.8025 684.347 62.3455 684.766 61.7865 684.421C61.2275 684.075 61.0285 683.374 61.3455 682.862C62.2025 681.475 62.8025 681.733 62.8025 683.49Z" fill="black"/>
</svg>
