<svg width="442" height="871" viewBox="0 0 442 871" fill="none" xmlns="http://www.w3.org/2000/svg">
<path fill-rule="evenodd" clip-rule="evenodd" d="M277.213 0.775373C273.463 2.95717 273.027 8.59176 274.86 31.2408C275.656 41.0796 274.975 43.0896 273.808 34.3407C271.618 17.9027 270.062 10.0232 269.005 10.0232C268.453 10.0232 268.281 9.57099 268.623 9.01829C269.42 7.72867 265.76 6.98536 259.842 7.2379L255.184 7.43565L255.242 12.6107C255.301 17.8572 255.609 20.3971 258.245 37.3164C259.055 42.5132 260.013 50.0262 260.373 54.011C260.733 57.9957 261.433 63.8177 261.927 66.9486C263.049 74.0591 264.286 111.067 263.371 110.152C262.396 109.178 260.947 101.185 259.383 88.1662C255.82 58.4988 248.084 29.4667 241.927 22.6667C240.344 20.9165 240.286 20.1922 241.448 16.6441C242.5 13.4346 243.28 12.6107 245.27 12.6107C247.156 12.6107 248.342 13.6913 250.096 17.0085C251.376 19.4273 252.631 21.9889 252.884 22.701C253.139 23.4131 253.691 23.6781 254.11 23.2889C255.339 22.1494 252.726 15.6288 249.611 12.0611C245.973 7.89627 243.353 8.29264 240.864 13.3869C239.821 15.5222 238.306 17.2683 237.5 17.2683C236.692 17.2683 236.032 17.734 236.032 18.3032C236.032 18.8725 236.456 19.3382 236.975 19.3382C238.222 19.3382 246.678 36.7522 249.435 44.9991C250.633 48.5803 251.873 53.7036 252.192 56.3843C252.512 59.0639 253.631 65.215 254.68 70.0537C255.73 74.8924 257.136 83.7416 257.805 89.7187C258.474 95.6959 259.42 101.984 259.904 103.691C260.39 105.399 261.081 111.221 261.44 116.629C261.799 122.037 262.233 128.557 262.405 131.119C262.578 133.681 262.11 136.96 261.366 138.406C260.475 140.138 259.919 146.313 259.735 156.518C259.443 172.734 259.222 174.589 257.582 174.589C256.945 174.589 256.87 170.136 257.374 162.428C258.241 149.18 258.225 144.209 257.283 131.637C255.893 113.094 250.738 86.8052 244.803 67.9836C242.918 62.0065 239.443 50.8283 237.079 43.1434C234.717 35.4585 231.842 26.8928 230.693 24.1086L228.603 19.0475L231.17 16.6669C232.583 15.3576 234.021 14.5688 234.368 14.9145C234.714 15.2602 234.997 14.9995 234.997 14.336C234.997 12.6883 232.711 12.8166 230.277 14.602C228.521 15.8896 228.032 15.8617 226.393 14.3847C225.21 13.3177 222.947 12.7556 220.258 12.8633C214.643 13.0868 211.709 15.9476 212.041 20.8732C212.33 25.1622 212.074 25.2399 207.753 22.1783C203.187 18.9429 201.547 18.9066 198.479 21.9754C196.172 24.2804 194.123 30.448 194.685 33.3884C195.156 35.8517 194.273 35.8208 189.631 33.2126C181.877 28.8542 177.024 31.5016 177.024 40.087C177.024 43.2976 175.31 44.2416 174.293 41.5909C173.539 39.6285 167.358 39.5167 165.765 41.4366C165.126 42.2056 164.293 45.1027 163.913 47.8745C163.533 50.6462 162.368 53.831 161.324 54.9519C160.279 56.0718 159.367 57.3664 159.296 57.8291C159.224 58.2907 159.073 59.2512 158.96 59.9623C158.699 61.5934 162.479 68.2228 164.307 69.3406C165.062 69.8032 165.408 70.6208 165.075 71.159C164.742 71.6972 165.372 73.4153 166.476 74.9772C169.956 79.9028 187.86 115.813 190.338 122.839C191.643 126.539 192.962 131.197 193.268 133.189C193.574 135.181 194.471 137.549 195.261 138.448C196.051 139.348 196.386 140.396 196.006 140.777C195.625 141.158 195.779 141.469 196.348 141.469C196.918 141.469 197.412 142.052 197.445 142.763C197.479 143.475 198.236 146.851 199.127 150.267C200.937 157.205 201.229 159.672 200.996 166.051C200.824 170.738 199.894 171.599 198.233 168.61C195.363 163.446 189.447 150.778 189.447 149.797C189.447 149.179 188.35 146.936 187.01 144.812C185.669 142.689 184.208 139.787 183.762 138.364C183.316 136.941 181.678 133.914 180.123 131.637C178.567 129.36 175.775 124.236 173.919 120.251C172.063 116.267 168.591 109.513 166.203 105.244C163.814 100.974 160.282 93.7553 158.355 89.2013C156.426 84.6472 154.06 79.7506 153.099 78.3192C152.137 76.8878 151.35 73.9743 151.35 71.8442C151.35 68.6326 151.769 67.8656 153.804 67.3553C155.361 66.9651 156.864 67.345 157.916 68.3966C159.537 70.0174 161.495 70.6136 161.495 69.4864C161.495 68.6305 156.139 63.8436 155.182 63.8436C154.722 63.8436 153.167 64.3807 151.727 65.0368C147.234 67.0831 147.161 71.928 151.489 80.6904C153.52 84.8025 156.459 90.9608 158.02 94.3763C159.582 97.7919 162.526 103.381 164.563 106.796C166.599 110.212 169.817 116.578 171.713 120.945C173.609 125.311 176.278 129.933 177.645 131.216C179.011 132.5 180.13 134.089 180.13 134.746C180.13 135.404 182.226 140.192 184.788 145.386C187.35 150.579 189.447 155.374 189.447 156.039C189.447 156.705 191.514 160.654 194.04 164.815C196.567 168.976 199.392 174.612 200.319 177.34C201.245 180.069 202.483 182.879 203.069 183.586C203.656 184.292 203.975 185.349 203.779 185.936C203.395 187.083 195.658 177.209 195.658 175.573C195.658 175.031 195.267 174.589 194.789 174.589C194.311 174.589 193.37 173.541 192.698 172.261C192.025 170.98 190.337 168.069 188.945 165.792C187.553 163.515 185.665 160.072 184.75 158.143C183.835 156.213 181.307 152.226 179.132 149.281C176.956 146.338 173.668 140.697 171.824 136.747C169.98 132.798 167.192 127.704 165.63 125.426C161.169 118.928 157.525 112.538 154.119 105.244C142.753 80.9036 138.333 74.4618 134.589 76.775C134.014 77.13 133.544 78.5572 133.544 79.9473C133.544 81.3373 133.132 82.4737 132.63 82.4737C131.367 82.4737 130.47 78.6826 130.453 73.2809C130.441 69.412 130.982 68.2331 134.135 65.2595C136.169 63.3427 138.382 61.7735 139.053 61.7735C139.725 61.7735 141.575 63.4037 143.165 65.3961C145.857 68.7713 148.044 70.0495 148.032 68.2424C148.03 67.816 146.444 65.7417 144.508 63.6355C140.133 58.8724 136.689 59.0939 131.651 64.4604L128.206 68.1306L128.928 76.0785C129.327 80.4503 130.058 84.5344 130.554 85.1565C131.05 85.7785 131.11 86.6437 130.688 87.0795C130.267 87.5162 130.836 87.7036 131.954 87.4956C133.324 87.241 134.287 85.852 134.904 83.2428C135.408 81.1117 136.217 79.3688 136.703 79.3688C137.765 79.3688 143.509 87.5514 144.823 90.9338C147.977 99.0576 156.743 116.193 160.7 121.972C163.257 125.706 166.638 131.504 168.213 134.856C169.788 138.209 173.812 145.058 177.155 150.076C180.499 155.094 183.235 159.627 183.235 160.149C183.235 162.601 206.3 196.164 211.829 201.758C213.526 203.475 213.525 203.57 211.811 203.57C208.838 203.57 201.303 198.617 196.734 193.661C194.379 191.107 192.015 189.29 191.48 189.62C190.944 189.951 190.744 189.601 191.036 188.843C192.028 186.254 179.501 176.659 175.129 176.659C171.764 176.659 157.004 170.362 155.019 168.079C152.638 165.34 150.108 159.565 150.108 156.868C150.108 155.799 149.409 154.924 148.555 154.924C147.701 154.924 147.002 155.447 147.002 156.085C147.002 158.136 143.874 154.799 141.612 150.336C140.438 148.021 139.188 145.894 138.834 145.609C138.481 145.325 136.815 142.413 135.131 139.14C133.449 135.868 131.705 133.189 131.255 133.189C130.806 133.189 130.439 132.646 130.439 131.982C130.439 130.783 121.349 115.547 120.044 114.559C119.668 114.274 118.173 112.145 116.722 109.828C115.27 107.51 111.793 103.124 108.994 100.081C104.683 95.3937 103.324 94.5347 100.105 94.4623C95.7875 94.365 95.4625 93.896 95.742 88.1662C96.1954 78.8367 99.4988 78.0346 107.402 85.3365C110.338 88.0493 113.229 90.1069 113.825 89.9082C114.492 89.6857 114.91 91.6821 114.91 95.0821C114.91 99.1859 115.753 102.345 118.171 107.299C119.964 110.975 122.061 114.611 122.83 115.38C123.598 116.148 124.227 117.176 124.227 117.664C124.227 118.151 124.84 119.167 125.589 119.919C126.337 120.671 127.487 122.218 128.145 123.357C129.09 124.992 129.347 125.076 129.372 123.755C129.389 122.836 128.55 120.973 127.507 119.615C126.464 118.257 124.499 115.051 123.139 112.489C121.779 109.927 120.207 107.202 119.645 106.433C115.866 101.258 117.273 83.5088 121.462 83.5088C123.298 83.5088 124.15 84.5903 128.179 92.0372C129.946 95.3047 132.838 99.9623 134.605 102.387C136.373 104.812 142.121 114.033 147.379 122.879C152.636 131.725 158.448 141.04 160.294 143.579C162.138 146.118 165.483 150.991 167.727 154.407C169.97 157.822 172.221 161.116 172.731 161.726C173.239 162.336 175.786 165.596 178.389 168.971C186.293 179.215 188.198 181.345 188.866 180.683C189.218 180.336 185.882 175.445 181.453 169.816C177.024 164.188 172.505 157.952 171.411 155.959C170.317 153.967 167.505 149.775 165.163 146.644C159.745 139.398 154.631 131.337 146.78 117.664C143.348 111.687 139.315 104.979 137.819 102.757C135.125 98.7586 129.445 89.1961 127.22 84.9164C126.588 83.6982 124.925 82.0897 123.527 81.3414C120.257 79.5912 117.844 80.9885 116.508 85.4079C115.963 87.2099 115.232 88.6838 114.884 88.6838C114.537 88.6838 112.419 87.0174 110.181 84.9816C103.587 78.9826 101.858 78.0801 98.4077 78.8378C95.8807 79.3925 95.096 80.2566 94.3279 83.3275C93.8051 85.4192 93.538 89.3442 93.7357 92.0476C93.9324 94.751 93.6529 96.9639 93.1146 96.9639C92.5762 96.9639 92.1352 96.5208 92.1352 95.9785C92.1352 94.6847 83.3855 88.6838 81.4983 88.6838C80.6929 88.6838 79.1866 89.6184 78.1524 90.7621C76.3573 92.7451 76.3511 93.126 78.0272 99.1518C79.3471 103.898 79.492 105.814 78.6121 106.874C77.6679 108.013 76.5644 107.256 72.8841 102.944C70.3768 100.008 68.325 97.2278 68.325 96.7672C68.325 95.2633 64.1354 95.8864 63.5236 97.4813C63.1954 98.3352 62.2151 99.0338 61.3434 99.0338C60.0308 99.0338 59.8506 100.172 60.2937 105.688L60.8279 112.341L57.5887 113.652C53.5668 115.279 50.4756 118.622 51.2137 120.546C51.5202 121.344 52.0657 123.233 52.426 124.747C52.7873 126.259 53.5409 128.079 54.101 128.79C54.6621 129.502 54.8308 130.084 54.4757 130.084C54.1217 130.084 54.7873 131.039 55.9551 132.207C57.2677 133.519 57.8464 135.061 57.4707 136.245C57.0835 137.464 57.8123 139.236 59.4697 141.109C61.6923 143.622 62.242 143.828 63.1985 142.504C64.1137 141.237 64.212 141.339 63.7348 143.058C63.2648 144.751 68.1397 150.18 88.6372 170.789C102.655 184.883 114.642 196.242 115.275 196.031C115.908 195.819 106.768 186.073 94.9635 174.372C83.1588 162.671 73.5011 152.753 73.5011 152.332C73.5011 150.806 83.2706 159.42 95.4749 171.706C100.443 176.707 104.749 180.799 105.047 180.799C106.231 180.799 95.1974 168.031 90.9644 164.502C88.4767 162.429 83.8399 158.378 80.6607 155.5C70.3664 146.182 67.0341 143.575 66.1303 144.133C65.6417 144.436 65.5009 144.01 65.8166 143.188C66.2711 142.003 62.917 137.077 59.009 133.189C57.2884 131.478 53.7407 122.465 54.0181 120.511C54.367 118.059 60.3455 114.311 62.4853 115.203C63.5495 115.646 72.029 125.74 80.2301 136.323C91.7242 151.157 95.8858 156.658 96.7937 158.214C98.5081 161.153 110.713 178.52 112.083 179.969C112.784 180.71 114.739 183.164 116.428 185.422C118.116 187.68 121.61 191.709 124.192 194.376C126.774 197.042 129.352 199.738 129.921 200.368C130.49 200.998 132.121 202.401 133.544 203.487C134.968 204.573 135.814 205.781 135.424 206.173C134.583 207.017 134.408 206.87 121.14 194.124C115.436 188.645 110.769 184.388 110.769 184.665C110.769 184.943 109.853 184.069 108.733 182.726C107.614 181.381 106.682 180.736 106.663 181.291C106.644 181.846 112.23 187.785 119.075 194.487C125.921 201.19 131.066 206.675 130.509 206.675C129.246 206.675 123.428 202.764 120.158 199.718C118.807 198.46 117.281 197.692 116.765 198.011C115.786 198.615 120.812 203.863 125.262 206.881C127.323 208.278 127.481 208.647 126.039 208.691C125.043 208.72 124.227 208.353 124.227 207.875C124.227 207.397 122.424 206.411 120.22 205.684C118.016 204.956 113.473 202.285 110.126 199.747C106.779 197.209 102.956 194.701 101.632 194.173C98.5712 192.95 90.3318 187.319 86.9591 184.144C85.5356 182.804 81.5759 180.055 78.1597 178.035C74.7434 176.015 71.7154 174.038 71.4307 173.641C70.7143 172.645 54.2956 159.411 53.1827 158.934C52.2469 158.533 44.2746 149.237 38.6347 141.97C35.3468 137.735 32.5299 129.818 33.6594 127.99C34.8209 126.112 39.2103 126.962 43.6866 129.933C47.6619 132.57 52.7966 134.664 52.7966 133.649C52.7966 133.439 50.0801 131.421 46.7591 129.167C39.9712 124.558 33.4513 122.732 31.9947 125.031C30.5113 127.373 30.9709 132.382 33.0993 137.07C35.3985 142.135 35.2039 142.416 31.7742 138.987C26.509 133.723 16.0129 130.629 13.5387 133.609C11.7923 135.712 13.0428 143.114 15.8017 147.01C17.5316 149.454 17.6444 150.121 16.4518 150.875C15.6588 151.377 14.4404 151.794 13.7437 151.804C11.666 151.83 9.06857 157.931 9.8336 160.987C10.5696 163.924 17.0088 170.449 19.1714 170.449C19.8929 170.449 20.7594 171.169 21.0969 172.048C21.4344 172.928 23.3475 174.332 25.3486 175.168C27.3497 176.003 28.9864 177.037 28.9864 177.465C28.9864 177.891 30.7338 179.051 32.8685 180.043C35.0041 181.033 37.4493 182.279 38.3034 182.812C42.4464 185.398 53.0564 190.084 58.5566 191.758C61.9366 192.787 65.8663 194.385 67.2898 195.31C70.5704 197.441 75.1088 199.447 84.8886 203.086C89.159 204.675 92.8868 206.323 93.1725 206.747C93.4593 207.172 96.7203 208.281 100.419 209.212C110.537 211.756 110.468 211.707 106.918 213.696C103.18 215.792 95.2409 224.782 95.2409 226.921C95.2409 228.889 97.9605 228.839 98.7213 226.857C99.0485 226.003 100.03 225.305 100.903 225.305C101.774 225.305 102.487 224.839 102.487 224.27C102.487 223.701 103.45 223.235 104.626 223.235C105.802 223.235 107.605 222.786 108.632 222.236C110.737 221.109 123.066 222.716 124.693 224.33C125.235 224.866 126.458 225.305 127.414 225.305C128.368 225.305 129.729 226.003 130.439 226.857C131.148 227.711 132.415 228.41 133.255 228.41C134.096 228.41 136.252 229.068 138.047 229.873C139.841 230.677 143.172 231.903 145.449 232.595C147.727 233.288 150.056 234.19 150.626 234.601C151.195 235.012 154.223 236.175 157.355 237.185C160.486 238.195 164.119 239.427 165.426 239.925C166.734 240.423 169.643 240.83 171.89 240.83H175.975L169.873 247.027C166.516 250.435 162.559 253.684 161.079 254.247C159.6 254.809 158.39 255.979 158.39 256.847C158.39 257.715 158.006 258.425 157.537 258.425C155.757 258.425 142.305 273.118 140.03 277.546C139.145 279.268 136.703 283.239 134.602 286.37C127.784 296.534 125.077 305.025 124.536 317.938C124.043 329.697 124.867 335.962 128.616 348.988C130.34 354.98 130.594 358.009 130.085 366.503C129.687 373.12 128.997 377.076 128.141 377.629C127.091 378.308 127.137 378.697 128.368 379.505C129.222 380.065 129.455 380.534 128.886 380.547C127.642 380.574 124.227 386.332 124.227 388.402C124.227 389.21 124.823 389.871 125.55 389.871C126.948 389.871 130.439 386.295 130.439 384.864C130.439 384.399 133.7 379.667 137.685 374.346C141.671 369.025 144.932 364.289 144.932 363.819C144.932 363.35 146.42 359.822 148.24 355.978C152.024 347.983 152.356 342.389 149.672 331.912C147.462 323.288 147.621 319.911 150.53 313.664C152.466 309.507 154.315 307.496 159.061 304.386C162.393 302.202 165.352 300.155 165.636 299.84C165.921 299.524 167.319 298.741 168.742 298.098C171.835 296.703 181.165 288.529 181.165 287.214C181.165 286.704 183.028 284.462 185.306 282.23C187.583 279.999 189.447 277.639 189.447 276.987C189.447 276.335 191.55 272.062 194.12 267.493C196.69 262.922 199.07 258.081 199.409 256.734C199.747 255.387 200.439 254.285 200.946 254.285C202.131 254.285 202.147 256.062 200.968 256.79C199.932 257.429 198.722 262.256 198.092 268.258C197.853 270.535 197.463 272.96 197.225 273.646C196.521 275.68 198.665 287.066 200.846 292.877C201.96 295.845 204.999 300.602 207.599 303.448C217.654 314.457 219.65 317.311 220.209 321.477C220.664 324.863 220.295 326.166 218.172 328.689C214.074 333.559 210.887 340.927 211.618 343.84C212.33 346.678 215.327 347.38 215.327 344.708C215.327 342.993 226.949 330.876 228.594 330.876C229.085 330.876 230.047 329.827 230.73 328.547C231.414 327.266 232.623 325.083 233.418 323.696C234.467 321.866 234.571 320.629 233.799 319.186C233.058 317.801 233.077 316.855 233.865 316.068C235.229 314.705 235.361 307.751 234.072 305.245C233.564 304.256 231.868 299.383 230.304 294.414C227.261 284.751 227.225 276.984 230.196 271.015C230.951 269.498 232.181 265.929 232.929 263.082C233.679 260.236 234.421 257.742 234.58 257.539C234.741 257.336 236.08 258.38 237.559 259.858C239.036 261.334 241.277 262.806 242.538 263.127C244.848 263.715 251.56 272.76 251.56 275.283C251.56 276.03 252.11 277.191 252.783 277.863C254.824 279.905 255.127 305.802 253.268 319.49C252.379 326.037 251.37 334.653 251.024 338.638C250.679 342.623 249.96 348.414 249.426 351.507C248.891 354.6 248.446 359.257 248.437 361.857C248.427 364.456 247.718 369.844 246.862 373.828C246.006 377.813 245.066 382.936 244.772 385.213C244.479 387.49 243.793 391.02 243.248 393.058C242.704 395.095 241.569 400.451 240.728 404.96C239.885 409.469 238.445 416.652 237.526 420.921C236.607 425.191 235.487 431.711 235.038 435.411C234.588 439.111 233.61 444.933 232.865 448.349C230.6 458.741 231.012 508.073 233.467 520.29C233.751 521.708 234.479 526.13 235.084 530.115C235.687 534.099 236.614 538.168 237.142 539.156C237.67 540.145 238.102 542.185 238.102 543.69C238.102 550.812 256.941 595.013 266.397 610.074C267.735 612.206 270.015 616.046 271.465 618.608C272.913 621.169 275.347 625.461 276.873 628.145C278.398 630.829 281.015 634.488 282.686 636.277C284.357 638.066 288.114 643.206 291.034 647.698C293.954 652.191 296.683 655.868 297.098 655.868C297.789 655.868 302.872 662.911 307.98 670.946C315.311 682.478 349.087 718.555 370.094 737.291C374.649 741.354 379.642 745.851 381.189 747.285C382.737 748.719 384.906 750.18 386.01 750.53C387.115 750.881 388.263 751.803 388.561 752.58C389 753.724 387.589 753.898 381.151 753.492C376.778 753.217 371.802 752.59 370.094 752.098C368.386 751.607 364.193 750.916 360.777 750.563C337.999 748.207 324.11 745.584 313.674 741.665C307.695 739.42 302.649 737.13 302.459 736.574C302.269 736.018 301.427 735.563 300.589 735.563C299.75 735.563 296.095 733.352 292.466 730.647C286.573 726.256 285.353 724.682 281.028 715.898C278.365 710.491 275.82 705.134 275.37 703.996C272.851 697.606 271.214 691.863 270.209 685.883C269.253 680.197 267.498 673.971 266.458 672.58C266.112 672.116 250.62 669.371 248.201 669.344C247.207 669.332 239.69 676.076 231.495 684.331C223.302 692.585 215.845 699.338 214.927 699.338C214.008 699.338 213.257 699.768 213.257 700.293C213.257 703.586 193.246 704.577 184.049 701.738C177.008 699.565 167.682 688.27 164.357 677.888C162.827 673.11 162.785 671.663 164.002 665.468C165.224 659.246 166.793 654.117 169.231 648.364C170.484 645.407 162.877 645.941 158.167 649.14C156.073 650.564 154.036 651.728 153.641 651.728C152.261 651.728 138.191 666.76 136.931 669.582C136.232 671.147 135.183 672.428 134.601 672.428C134.021 672.428 133.544 673.015 133.544 673.731C133.544 674.448 132.595 675.628 131.433 676.353C130.273 677.077 129.572 678.074 129.878 678.567C130.182 679.06 129.385 680.402 128.105 681.55C118.062 690.56 117.103 691.171 112.652 691.373C108.3 691.57 108.185 691.493 108.33 688.471C108.515 684.627 110.579 676.505 111.739 675.056C112.213 674.465 112.204 672.933 111.719 671.652C111.031 669.837 110.021 669.323 107.147 669.323C102.377 669.323 101.611 667.317 103.91 660.845C104.89 658.087 105.409 655.373 105.064 654.814C104.718 654.255 104.93 653.798 105.532 653.798C107.26 653.798 106.817 651.916 104.557 649.657C102.493 647.593 102.47 647.593 98.6882 649.619C96.5991 650.739 94.6198 652.021 94.2895 652.468C93.9582 652.915 91.9613 654.158 89.8494 655.231C87.7386 656.304 82.4455 660.845 78.0882 665.323C73.7299 669.8 69.9555 673.463 69.7018 673.463C68.0092 673.463 60.0432 682.461 60.0432 684.372C60.0432 686.83 57.5918 689.515 56.1569 688.628C54.8888 687.845 53.8194 688.835 48.8141 695.42C46.343 698.673 42.669 702.632 40.6503 704.218C38.6316 705.803 36.4628 707.573 35.8302 708.149C33.5072 710.267 26.4149 714.689 20.7045 717.582C18.7117 718.592 13.665 721.421 9.48991 723.868C5.31484 726.316 1.47208 728.319 0.949295 728.319C0.42754 728.319 0 729.017 0 729.871C0 730.749 0.926511 731.424 2.13152 731.424C3.30339 731.424 3.99493 731.857 3.6678 732.387C2.97109 733.514 4.29307 734.477 7.34285 735.065C16.2903 736.787 44.8864 749.566 48.3451 753.387C49.2623 754.4 50.4518 755.229 50.9891 755.229C51.5264 755.229 53.2014 756.549 54.7107 758.163C56.2201 759.776 57.9727 761.291 58.6063 761.527C60.2316 762.133 71.3748 774.936 72.7175 777.74C73.3314 779.021 74.1326 780.069 74.497 780.069C74.8625 780.069 77.8667 785.541 81.1722 792.23C89.1113 808.295 89.5171 809.233 92.6818 818.882C96.389 830.183 102.415 844.177 105.006 847.502C106.183 849.011 108.157 851.572 109.392 853.194C114.608 860.037 118.717 864.188 119.887 863.799C120.709 863.525 120.32 862.498 118.751 860.797C112.337 853.845 105.499 844.077 103.502 839.01C102.28 835.912 100.935 832.91 100.512 832.339C100.09 831.769 98.4139 827.11 96.7896 821.987C89.0244 797.507 76.3377 772.474 72.2785 773.626C71.7278 773.782 71.5725 773.432 71.9327 772.849C72.5539 771.844 62.0702 760.691 55.4126 755.274C50.2572 751.08 41.1244 744.879 40.1037 744.879C39.5736 744.879 37.9038 744.011 36.3924 742.952C34.8809 741.893 31.7815 740.465 29.504 739.78C25.157 738.473 19.454 736.316 13.5853 733.76C11.6628 732.922 9.33359 732.089 8.40913 731.909C7.48468 731.729 6.55504 731.547 6.34386 731.503C4.70716 731.167 10.11 727.647 19.2531 723.093C26.9325 719.268 29.9657 717.246 29.5702 716.215C29.2617 715.413 29.4574 715.032 30.0029 715.37C30.5495 715.707 32.2908 715.305 33.8737 714.476C38.2165 712.201 52.6382 698.506 54.5182 694.872C55.4271 693.115 56.8505 690.997 57.6808 690.167C58.511 689.337 60.2989 686.901 61.654 684.756C63.0091 682.61 65.3322 680.008 66.8177 678.97C74.7393 673.441 81.8772 666.92 81.3906 665.655C81.0831 664.852 81.3833 664.45 82.0945 664.715C82.7768 664.97 85.0429 663.557 87.1299 661.575C91.4116 657.51 100.2 652.506 101.569 653.353C102.066 653.659 101.618 655.632 100.573 657.735C98.0629 662.793 98.6551 670.358 101.561 670.358C102.64 670.358 103.523 670.852 103.523 671.454C103.523 672.056 103.894 672.321 104.349 672.04C104.803 671.76 105.829 671.934 106.63 672.429C107.772 673.135 107.838 673.844 106.932 675.725C106.296 677.042 105.208 681.025 104.511 684.575C103.045 692.052 103.801 693.737 109.061 694.715C112.284 695.314 119.529 693.071 120.25 691.252C120.445 690.761 122.558 688.956 124.947 687.24C129.11 684.249 132.754 679.981 139.036 670.735C140.633 668.384 142.729 665.7 143.695 664.769C149.263 659.397 155.025 654.735 156.788 654.171C157.901 653.816 159.448 652.888 160.227 652.109C162.336 650 164.996 650.274 164.077 652.504C163.666 653.501 163.112 655.247 162.844 656.385C162.577 657.524 161.982 659.387 161.523 660.525C158.609 667.751 158.298 671.373 160.143 676.569C161.155 679.415 162.365 681.743 162.835 681.743C163.304 681.743 163.384 682.236 163.011 682.838C161.525 685.243 174.529 701.047 180.404 703.977C182.348 704.947 188.236 705.783 196.074 706.201C207.492 706.812 209.005 706.679 212.756 704.743C218.09 701.987 223.721 697.252 223.017 696.112C222.714 695.623 223.073 695.45 223.814 695.729C224.555 696.009 226.792 694.65 228.785 692.711C233.968 687.669 234.835 686.412 234.647 684.214C234.555 683.139 235.062 682.377 235.773 682.519C236.942 682.753 237.517 681.492 237.189 679.414C237.122 678.988 237.899 678.638 238.918 678.638C239.936 678.638 242.382 677.259 244.353 675.575C248.134 672.344 251.384 671.707 254.788 673.528C255.92 674.134 258.607 674.653 260.759 674.683C262.937 674.713 264.687 675.258 264.703 675.912C264.798 679.579 268.391 695.475 269.688 697.96C270.529 699.572 271.219 701.678 271.223 702.641C271.226 703.603 271.695 704.679 272.265 705.031C272.834 705.383 273.3 706.481 273.3 707.472C273.3 708.464 273.854 709.828 274.532 710.506C275.209 711.183 275.873 712.481 276.006 713.388C276.976 719.999 287.08 733.493 291.057 733.493C292.109 733.493 292.969 733.925 292.969 734.453C292.969 734.981 295.647 736.633 298.922 738.122C302.196 739.612 306.039 741.449 307.462 742.202C310.498 743.808 321.985 747.533 327.011 748.542C329.229 748.987 330.045 749.533 329.235 750.033C328.531 750.468 326.257 750.411 324.179 749.906C319.019 748.651 293.296 748.751 288.836 750.042C286.846 750.618 281.256 751.096 276.413 751.104C270.344 751.115 268.089 751.432 269.159 752.124C270.438 752.949 270.336 753.13 268.579 753.143C267.407 753.152 262.516 754.108 257.709 755.268C252.904 756.428 247.109 757.825 244.831 758.372C242.554 758.92 239.06 759.628 237.067 759.946C232.369 760.696 212.286 767.575 209.742 769.307C207.637 770.739 205.959 770.562 193.587 767.6C173.32 762.749 161.705 758.032 155.574 752.162C152.753 749.462 152.335 748.457 152.855 745.631C153.194 743.794 154.775 740.195 156.366 737.634C159.154 733.149 162.255 723.928 163.154 717.451C163.548 714.606 163.424 714.692 161.664 718.486C160.607 720.763 159.158 725.077 158.443 728.071C157.727 731.066 155.976 735.237 154.55 737.338C153.124 739.438 151.589 742.111 151.14 743.276C150.432 745.116 150.011 744.71 147.959 740.221C146.02 735.978 145.464 732.434 144.877 720.556C144.086 704.548 144.205 705.548 143.094 705.548C142.032 705.548 142.69 726.432 143.952 732.794C145.064 738.396 149.581 748.315 152.649 751.893C157.579 757.64 176.264 765.383 194.83 769.371C203.57 771.25 203.66 772.249 195.19 773.391C192.316 773.778 189.582 774.322 189.116 774.6C186.132 776.375 156.991 777.06 146.743 775.595C142.24 774.952 140.776 774.323 140.731 773.008C140.699 772.053 137.732 769.005 134.138 766.235C125.472 759.555 115.083 749.256 113.12 745.396C112.252 743.688 109.504 740.319 107.015 737.91C104.525 735.5 102.487 733.059 102.487 732.485C102.487 731.911 101.05 730.068 99.2917 728.388C95.4542 724.722 91.2211 718.111 88.6413 711.758C84.8876 702.515 83.7571 700.124 83.3368 700.544C81.9941 701.887 92.3733 724.686 94.7398 725.594C95.51 725.889 96.6405 727.066 97.2523 728.208C98.2141 730.005 97.419 729.819 91.3671 726.834C83.8285 723.116 71.7744 719.35 70.7371 720.387C70.3861 720.738 70.7485 721.225 71.5414 721.469C72.3344 721.713 76.9433 723.102 81.783 724.556C86.6226 726.009 92.6787 728.547 95.2409 730.195C102.118 734.617 110.419 742.547 113.279 747.425C115.614 751.41 134.072 769.209 138.353 771.604C139.4 772.189 139.99 772.936 139.663 773.262C138.582 774.342 109.871 763.556 102.928 759.461C98.5733 756.891 96.4314 756.724 95.6001 758.89C94.5597 761.602 98.1975 764.296 108.298 768.293C113.643 770.408 118.016 772.473 118.016 772.881C118.016 773.289 119.298 773.845 120.863 774.115C125.228 774.87 133.999 777.376 134.58 778.034C135.354 778.912 145.648 781.093 149.41 781.176C151.218 781.217 153.628 781.624 154.766 782.08C156.504 782.778 156.106 783.112 152.291 784.157C144.321 786.341 131.893 795.894 128.666 802.317C126.568 806.495 120.053 813.185 118.065 813.205C117.184 813.214 115.764 813.719 114.91 814.328C113.729 815.169 114.167 815.294 116.744 814.85C120.721 814.165 127.971 807.829 129.884 803.365C130.618 801.653 132.091 799.469 133.158 798.513C134.224 797.556 136.399 795.576 137.991 794.114C139.583 792.651 141.329 791.454 141.873 791.454C142.416 791.454 142.861 791.068 142.861 790.596C142.861 790.124 145.268 788.61 148.21 787.232C153.826 784.601 161.998 784.062 178.173 785.256L185.016 785.761L182.726 788.866C180.288 792.172 178.66 795.612 178.93 796.888C179.021 797.314 178.628 797.664 178.059 797.664C177.49 797.664 177.024 798.163 177.024 798.772C177.024 800.182 179.648 802.839 181.04 802.839C181.621 802.839 182.469 803.489 182.925 804.285C184.293 806.674 190.703 809.932 195.558 810.707C198.884 811.238 199.917 811.112 199.379 810.241C198.973 809.586 197.241 809.049 195.529 809.049C191.897 809.049 189.389 807.841 183.916 803.457C180.375 800.619 180.002 799.887 180.508 796.769C180.82 794.843 181.867 792.394 182.834 791.326C183.8 790.258 184.17 789.382 183.654 789.38C183.139 789.378 184.284 788.421 186.199 787.254C188.113 786.087 189.883 785.336 190.132 785.584C190.38 785.833 192.541 785.583 194.932 785.031C197.325 784.477 200.213 783.884 201.352 783.71C203.846 783.331 217.082 779.3 219.986 778.034C221.125 777.537 223.454 776.861 225.162 776.53C227.835 776.013 234.763 774.175 258.807 767.606C261.369 766.907 266.583 765.435 270.394 764.336C277.456 762.3 280.196 761.817 289.346 760.992L294.522 760.525L290.899 761.899C288.906 762.655 283.549 764.283 278.994 765.517C271.147 767.643 265.697 769.631 261.668 771.839C260.68 772.381 259.275 772.824 258.547 772.824C254.814 772.824 240.173 784.198 240.173 787.097C240.173 787.786 239.707 788.349 239.138 788.349C238.568 788.349 238.102 789.047 238.102 789.901C238.102 792.483 240.278 791.644 241.458 788.608C243.594 783.111 252.571 776.74 264.641 772.153C275.437 768.051 291.423 762.936 301.251 760.439C305.852 759.269 328.16 759.316 328.165 760.495C328.166 760.829 330.38 761.179 333.084 761.271C335.788 761.362 340.331 761.911 343.178 762.488C346.025 763.066 349.519 763.755 350.942 764.021C355.263 764.83 363.702 766.818 366.883 767.778C368.535 768.276 370.98 768.684 372.318 768.684C373.657 768.684 374.752 769.149 374.752 769.719C374.752 770.993 376.143 771.122 363.363 768.663C357.385 767.512 349.933 766.354 346.801 766.089C343.67 765.824 338.035 765.328 334.278 764.987C330.522 764.645 325.631 764.852 323.408 765.447C321.187 766.042 317.723 766.784 315.711 767.094C313.7 767.405 310.527 769.053 308.659 770.758C306.792 772.464 305.107 773.859 304.915 773.859C304.052 773.859 293.206 781.536 290.664 783.945C286.371 788.014 285.57 791.867 286.237 805.224C286.607 812.625 286.445 817.401 285.812 817.792C285.25 818.138 282.787 817.505 280.34 816.382C277.891 815.26 273.326 813.58 270.194 812.65C267.063 811.718 261.721 810 258.324 808.831C251.148 806.36 238.416 804.974 239.535 806.784C239.925 807.417 241.976 808.221 244.091 808.571C246.206 808.922 251.664 810.306 256.219 811.646C260.774 812.986 265.898 814.383 267.606 814.752C269.314 815.12 274.585 817.312 279.319 819.622C285.41 822.593 288.248 823.499 289.028 822.719C289.99 821.757 290.604 802.199 289.765 799.217C289.606 798.647 289.842 796.17 290.289 793.713C291.196 788.74 295.669 783.609 302.096 780.17C303.343 779.504 305.805 777.548 307.567 775.826C311.127 772.348 314.022 770.964 320.92 769.445C326.557 768.203 342.826 767.88 347.836 768.912C368.45 773.155 375.154 774.004 379.478 772.915C384.196 771.727 389.438 772.64 399.598 776.416C402.16 777.37 406.12 778.768 408.397 779.525C410.675 780.281 414.793 781.879 417.549 783.076C420.305 784.272 423.056 784.944 423.662 784.57C424.361 784.138 424.454 784.389 423.915 785.259C423.3 786.255 423.54 786.45 424.791 785.969C425.738 785.606 426.514 785.76 426.514 786.311C426.514 786.863 427.01 787.314 427.615 787.314C428.221 787.314 431.263 788.478 434.375 789.901C441.009 792.935 441.425 793.001 440.617 790.895C440.28 790.019 440.512 788.492 441.13 787.501C442.014 786.086 441.643 784.596 439.405 780.555C437.837 777.727 435.693 774.301 434.64 772.943C433.586 771.585 432.725 769.865 432.725 769.121C432.725 768.375 431.891 767.157 430.871 766.414C429.851 765.67 427.884 763.431 426.499 761.439C425.114 759.446 422.911 756.96 421.604 755.914C420.296 754.868 418.524 752.655 417.667 750.998C416.809 749.34 415.394 747.984 414.521 747.984C413.648 747.984 413.184 747.579 413.489 747.084C414.111 746.079 407.304 738.668 405.759 738.668C405.217 738.668 404.774 737.97 404.774 737.116C404.774 736.262 404.399 735.563 403.94 735.563C403.483 735.563 400.052 732.653 396.317 729.095C387.353 720.556 384.419 717.969 383.7 717.969C383.372 717.969 378.806 713.805 373.553 708.716C368.301 703.625 363.554 699.739 363.007 700.077C362.458 700.416 362.324 700.184 362.708 699.562C363.399 698.446 362.411 697.349 348.275 683.537C344.333 679.684 340.064 675.26 338.787 673.704C337.512 672.148 335.532 669.757 334.388 668.388C333.244 667.02 332.301 665.623 332.291 665.283C332.282 664.944 331.002 663.208 329.445 661.428C324.383 655.638 320.997 651.336 315.906 644.228C313.156 640.387 310.522 637.593 310.054 638.018C309.585 638.442 309.53 638.218 309.933 637.518C310.767 636.067 308.794 631.758 307.625 632.48C307.203 632.741 306.789 632.05 306.706 630.946C306.558 628.974 303.253 624.836 302.639 625.853C302.198 626.583 298.145 618.453 298.145 616.837C298.145 616.103 297.711 615.503 297.18 615.503C296.649 615.503 295.895 614.455 295.505 613.174C295.114 611.892 294.112 610.067 293.279 609.116C291.318 606.881 288.072 601.27 286.643 597.649C286.025 596.084 285.1 594.802 284.586 594.802C284.073 594.802 283.652 594.453 283.652 594.025C283.652 593.597 281.684 589.522 279.279 584.969C273.082 573.235 270.392 566.646 267.453 555.99C266.04 550.866 263.75 543.288 262.363 539.149C260.977 535.01 259.842 530.907 259.842 530.032C259.842 529.156 259.42 528.701 258.903 529.019C258.388 529.339 258.193 528.726 258.472 527.657C258.752 526.589 258.169 521.582 257.176 516.53C256.185 511.478 255.398 502.92 255.43 497.512C255.48 488.94 255.926 484.305 258.345 467.254C258.609 465.395 259.253 460.847 259.776 457.146C260.298 453.446 261.436 446.46 262.306 441.621C263.175 436.783 264.192 428.399 264.566 422.991C264.941 417.583 266.091 408.035 267.122 401.774C268.712 392.124 268.942 385.653 268.63 359.338C268.162 319.712 268.169 310.693 268.676 307.834C268.9 306.56 269.312 303.189 269.589 300.343C270.781 288.086 272.301 279.188 274.304 272.722C275.484 268.914 276.351 265.421 276.232 264.959C276.112 264.496 277.087 261.901 278.398 259.191C279.711 256.481 280.578 253.183 280.324 251.86C279.616 248.153 281.857 248.913 287.971 254.454C291.004 257.203 293.792 259.454 294.166 259.456C296.189 259.468 292.971 254.603 286.837 248.371C283.01 244.485 279.447 240.558 278.919 239.645C276.124 234.819 254.902 226.34 245.615 226.34C240.953 226.34 241.333 224.296 246.643 220.806C252.173 217.171 257.194 217.56 263.672 222.125C268.845 225.771 269.159 225.864 269.159 223.752C269.159 222.898 268.766 222.2 268.285 222.2C267.804 222.2 266.073 221.05 264.437 219.645C262.802 218.24 260.167 216.806 258.582 216.458C256.997 216.11 255.701 215.397 255.701 214.873C255.701 214.348 255.002 213.92 254.148 213.92C252.131 213.92 252.183 212.349 254.323 208.727C258.748 201.24 266.251 202.319 272.565 211.352C274.922 214.725 276.827 218.964 277.443 222.209C277.998 225.136 279.506 229.287 280.793 231.434C283.492 235.932 289.42 242.881 290.608 242.94C291.053 242.962 292.354 244.47 293.499 246.291C294.645 248.111 297.054 250.539 298.853 251.685C302.194 253.813 303.334 255.833 302.535 258.21C302.251 259.052 301.644 259.203 300.892 258.618C300.236 258.107 298.613 257.423 297.287 257.097C295.43 256.642 295.014 256.864 295.476 258.068C295.805 258.927 296.075 259.824 296.075 260.062C296.075 260.301 296.569 260.495 297.171 260.495C297.774 260.495 297.983 260.034 297.635 259.471C297.273 258.886 297.687 258.711 298.603 259.063C299.484 259.401 299.949 260.09 299.636 260.595C299.324 261.101 300.607 261.337 302.489 261.12C304.37 260.904 306.493 260.674 307.204 260.611C309.91 260.369 308.277 257.334 302.028 250.985C298.469 247.371 293.699 242.127 291.428 239.332L287.299 234.25L287.276 219.995C287.252 205.875 287.275 205.735 289.692 205.128C293.305 204.222 301.074 208.324 306.164 213.826C308.582 216.439 310.576 219.043 310.598 219.612C310.685 221.965 325.21 234.187 331.364 237.086C335.489 239.03 338.591 238.395 342.853 234.734C344.171 233.601 346.359 231.723 347.716 230.56C349.073 229.396 352.45 228.144 355.222 227.776C361.592 226.931 361.741 225.113 355.732 221.484C349.893 217.959 345.923 210.225 345.027 200.633C344.47 194.663 343.924 193.311 340.675 189.828C337.8 186.746 335.931 185.708 332.405 185.235C328.67 184.735 328.008 184.886 328.725 186.076C329.41 187.212 329.277 187.282 328.107 186.395C327.271 185.76 323.793 185.412 320.194 185.601C313.02 185.979 310.54 184.513 316.53 183.434C324.813 181.941 336.818 175.483 345.653 167.768C354.954 159.645 359.759 152.943 362.494 144.279C363.736 140.345 365.605 136.594 366.646 135.944C368.95 134.506 369.147 130.252 366.95 129.408C366.074 129.073 364.461 129.61 363.365 130.602C362.268 131.593 360.67 132.136 359.813 131.807C358.956 131.478 357.98 131.655 357.643 132.2C357.307 132.744 356.315 133.189 355.44 133.189C352.809 133.189 347.647 137.413 348.276 139.052C348.594 139.879 348.393 140.261 347.826 139.911C346.463 139.068 341.553 144.725 342.159 146.439C342.422 147.18 342.229 147.534 341.731 147.227C340.666 146.57 338.301 149.106 339.046 150.103C339.326 150.478 339.272 150.579 338.927 150.329C337.531 149.317 328.852 160.391 330.023 161.69C330.426 162.136 330.212 162.19 329.548 161.81C328.884 161.43 327.057 161.607 325.49 162.203C322.973 163.16 321.775 162.754 315.283 158.749C309.066 154.913 306.851 154.123 300.986 153.653C294.674 153.146 293.802 153.322 291.347 155.596L288.649 158.097L289.372 154.7C289.769 152.83 290.96 148.74 292.016 145.609C293.073 142.478 293.91 138.287 293.877 136.294C293.844 134.302 294.279 130.576 294.844 128.014C295.408 125.452 297.122 114.973 298.652 104.726C300.182 94.4799 301.815 84.4661 302.283 82.4737C302.751 80.4814 303.655 75.3901 304.292 71.16C304.929 66.9299 305.943 62.8748 306.545 62.1493C307.816 60.6185 306.92 58.6686 304.947 58.6686C304.201 58.6686 301.782 60.5326 299.573 62.8106L295.557 66.9518L295.04 47.0267C294.55 28.1565 294.358 26.6454 291.416 18.4999C288.557 10.5821 282.502 0.768189 280.029 0.0436833C279.46 -0.123988 278.193 0.206119 277.213 0.775373ZM281.323 4.61424C283.412 6.73187 285.578 10.8864 289.539 20.3733C292.232 26.8255 292.364 27.9888 292.735 48.7624C293.094 68.7671 292.953 70.9458 290.89 77.2252C285.573 93.4096 281.254 105.244 280.665 105.242C280.315 105.241 279.889 97.6728 279.717 88.423C279.547 79.1741 278.98 65.7842 278.46 58.6686C276.599 33.2384 276.062 7.42429 277.343 5.03135C278.801 2.30618 279.023 2.2834 281.323 4.61424ZM267.415 12.3519C268.999 16.1897 271.686 29.647 273.15 41.0735C273.696 45.3429 274.192 64.1064 274.251 82.7717L274.358 116.707L271.651 121.585C268.625 127.033 267.148 129.051 266.186 129.046C265.828 129.044 265.495 117.517 265.447 103.429C265.355 76.9974 264.374 65.482 259.253 30.7181C257.869 21.3223 256.736 12.8509 256.736 11.8915C256.736 10.6391 257.83 10.0336 260.618 9.74168C262.754 9.51915 264.843 9.25835 265.264 9.16209C265.683 9.06687 266.651 10.5024 267.415 12.3519ZM225.472 16.4402C226.156 17.1233 226.718 18.4047 226.721 19.2865C226.725 20.1693 227.429 22.2352 228.286 23.8799C229.143 25.5235 230.57 29.4823 231.455 32.6773C232.341 35.8714 233.938 40.8147 235.003 43.661C237.529 50.4061 246.294 80.3157 246.53 82.9912C246.869 86.8352 246.389 89.844 245.524 89.3089C245.051 89.0171 244.044 85.496 243.288 81.4853C242.53 77.4747 241.467 74.1937 240.924 74.1937C239.694 74.1937 240.846 82.3619 242.951 88.5658C244.708 93.745 244.151 98.4595 241.115 104.091C240.005 106.149 238.623 109.578 238.042 111.713C236.961 115.688 234.989 117.032 235.005 113.783C235.017 111.351 232.2 99.0576 229.73 90.7538C228.629 87.0536 227.097 81.2317 226.326 77.8161C224.799 71.0596 216.897 41.9563 214.849 35.5486C213.053 29.9295 213.884 26.5834 217.075 26.5834C220.07 26.5834 222.567 28.7743 222.592 31.426C222.603 32.4621 223.918 35.237 225.515 37.5917C227.111 39.9463 229.947 46.2339 231.815 51.5642C233.685 56.8945 236.159 63.9347 237.314 67.2074C238.47 70.4801 239.868 73.1587 240.422 73.1587C240.976 73.1587 241.103 72.3441 240.706 71.3474C240.308 70.3507 238.123 63.9522 235.851 57.1284C231.271 43.3773 227.072 33.8284 225.604 33.8284C225.076 33.8284 224.644 32.7654 224.644 31.4654C224.644 30.1655 223.654 27.8709 222.442 26.3659C220.673 24.1676 219.783 23.8033 217.915 24.5133C215.993 25.244 215.382 24.9397 214.388 22.7579C212.522 18.6634 215.241 15.1982 220.32 15.1982C222.47 15.1982 224.789 15.7571 225.472 16.4402ZM207.374 24.18C208.902 25.3806 210.151 26.8794 210.151 27.5086C210.151 28.1379 210.617 28.6533 211.186 28.6533C211.756 28.6533 212.222 29.8094 212.222 31.2232C212.222 32.6371 213.672 39.0418 215.444 45.4547C217.217 51.8686 219.046 58.5133 219.508 60.2211C223.378 74.5197 226.882 87.3424 228.695 93.8381C229.884 98.0961 230.823 102.288 230.782 103.153C230.67 105.576 227.196 97.1336 225.682 90.7538C224.937 87.6229 223.2 82.0339 221.821 78.3337C220.441 74.6336 218.014 67.8801 216.426 63.326C213.382 54.5947 211.149 50.1599 205.392 41.4161C203.454 38.4726 201.869 35.5889 201.869 35.0083C201.869 33.2032 199.782 32.5542 198.2 33.8656C195.827 35.8362 196.247 28.8811 198.75 24.7762C201.07 20.9715 203.115 20.8297 207.374 24.18ZM188.874 35.3675C192.434 37.5545 192.988 38.4092 193.172 42.0028C193.289 44.2715 195 49.5315 196.973 53.6922C198.946 57.8519 201.419 63.5849 202.469 66.4311C203.518 69.2774 204.975 72.7706 205.705 74.1937C206.436 75.6168 207.035 77.1589 207.039 77.6216C207.042 78.0832 208.2 80.9016 209.612 83.8845C212.328 89.6267 218.51 107.124 221.169 116.6C222.043 119.715 223.352 123.441 224.077 124.88C225.203 127.114 226.985 136.87 229.471 154.407C230.72 163.224 228.48 156.332 222.705 133.588C219.398 120.56 215.427 105.71 213.881 100.586C211.177 91.6243 192.175 51.7847 188.188 46.7173C187.122 45.3635 184.641 43.9538 182.673 43.5843C178.774 42.8536 178.101 40.7173 180.104 35.4481C181.359 32.1464 183.596 32.1259 188.874 35.3675ZM199.799 37.365C199.799 38.1712 200.148 38.9858 200.575 39.1763C203.395 40.4286 211.405 54.2408 214.309 62.8562C215.451 66.251 217.827 72.636 219.587 77.0452C221.347 81.4543 222.908 85.9927 223.055 87.1312C223.276 88.839 228.675 106.957 232.957 120.355C233.778 122.922 233.55 124.54 231.815 128.462C230.623 131.156 229.497 133.206 229.315 133.016C229.132 132.827 227.307 127.781 225.259 121.804C216.549 96.3739 205.975 68.764 199.297 54.011C194.82 44.1215 194.3 41.4926 196.234 38.5428C198.14 35.6324 199.799 35.0838 199.799 37.365ZM174.349 44.3689C175.219 45.6119 175.694 47.5909 175.401 48.7677C175.077 50.0708 176.021 52.7246 177.819 55.5636C179.442 58.1252 181.86 63.0156 183.193 66.4311C184.525 69.8467 186.202 74.0384 186.92 75.7462C187.638 77.454 188.767 80.8922 189.43 83.3866C190.094 85.882 191.016 88.6765 191.481 89.5967C193.194 92.9915 196.579 100.832 200.248 109.901C202.321 115.025 204.497 120.077 205.085 121.128C205.673 122.18 205.92 123.275 205.634 123.56C204.797 124.397 196.606 108.02 191.827 95.9547C188.216 86.8384 181.488 73.4806 180.066 72.6019C179.432 72.2096 181.278 76.5193 184.17 82.1777C187.061 87.8361 189.722 93.9437 190.083 95.7497C190.445 97.5558 191.149 99.0338 191.646 99.0338C192.144 99.0338 192.552 99.7428 192.552 100.609C192.552 101.475 194.419 105.897 196.7 110.433C202.167 121.304 210.053 141.275 210.14 144.469C210.146 144.695 208.757 143.531 207.053 141.881C203.602 138.54 198.858 134.5 197.087 133.395C195.931 132.675 191.187 122.016 189.393 116.111C188.874 114.404 186.515 109.28 184.149 104.726C181.785 100.172 178.254 93.1861 176.303 89.2013C174.352 85.2165 172.325 81.2576 171.799 80.4037C171.273 79.5498 169.982 77.221 168.932 75.2286C167.88 73.2362 165.609 69.0384 163.886 65.9003C161.54 61.6308 160.966 59.6105 161.607 57.8789C162.078 56.6058 162.829 55.577 163.274 55.5936C164.521 55.6402 169.863 60.8182 174.293 66.2768C176.492 68.9855 178.517 70.9769 178.792 70.7005C179.544 69.9502 173.601 61.756 169.358 57.6894C166.359 54.8152 165.636 53.3558 165.636 50.1711C165.636 47.9986 166.214 45.2952 166.921 44.1639C168.619 41.446 172.374 41.5485 174.349 44.3689ZM185.527 47.5473C188.356 49.8865 203.135 77.9331 208.294 90.7538C211.265 98.1344 216.44 114.658 218.829 124.392C219.668 127.807 221.063 133.396 221.929 136.812C222.795 140.227 224.481 147.213 225.674 152.337C226.868 157.46 228.307 162.76 228.871 164.114C230.996 169.213 228.736 167.198 221.533 157.577C215.537 149.566 213.813 146.398 212.61 141.194C210.16 130.589 202.57 109.293 196.477 95.9288C194.79 92.2287 192.485 86.4067 191.354 82.9912C190.224 79.5757 188.905 75.8497 188.425 74.7112C187.944 73.5727 186.719 70.0795 185.699 66.9486C184.68 63.8177 182.545 59.2533 180.953 56.8055C177.861 52.0507 177.29 48.4664 179.301 46.4554C181.072 44.6856 182.335 44.907 185.527 47.5473ZM150.114 53.6488C146.949 58.0165 145.776 64.4294 148.296 63.5807C149.009 63.3405 149.619 62.2538 149.656 61.165C149.752 58.2101 152.883 52.8073 154.96 52.0104C156.095 51.5746 157.244 51.941 158.005 52.9812C158.914 54.2253 159.425 54.3319 160.002 53.3983C160.918 51.9151 157.809 49.3535 155.093 49.3535C154.067 49.3535 151.826 51.2869 150.114 53.6488ZM277.507 76.6963C277.642 85.2817 277.858 95.1009 277.985 98.5154C278.114 101.93 277.841 105.656 277.378 106.795C276.807 108.199 276.496 106.699 276.409 102.139C276.338 98.4387 276.067 87.0278 275.806 76.7812C275.509 65.0898 275.691 58.6975 276.296 59.6186C276.826 60.4259 277.372 68.1109 277.507 76.6963ZM74.5364 74.1937C74.5364 74.763 75.0022 75.2286 75.5716 75.2286C76.141 75.2286 76.6068 74.763 76.6068 74.1937C76.6068 73.6245 76.141 73.1587 75.5716 73.1587C75.0022 73.1587 74.5364 73.6245 74.5364 74.1937ZM89.7718 96.2932C92.6808 99.154 94.1488 101.501 94.1715 103.33C94.2326 108.239 103.424 127.467 108.13 132.528C112.277 136.988 112.425 135.098 108.374 129.409C101.088 119.177 95.6322 105.356 96.7937 100.071C98.1271 93.9996 103.564 96.6243 112.194 107.504C117.796 114.566 128.368 130.349 128.368 131.649C128.368 132.421 138.17 148.648 141.832 153.939C144.018 157.098 145.733 160.358 145.643 161.184C145.324 164.122 147.145 172.519 148.101 172.519C148.636 172.519 149.073 173.374 149.073 174.419C149.073 177.175 155.795 190.558 159.147 194.472C164.45 200.667 172.784 208.745 173.874 208.745C174.467 208.745 174.953 209.21 174.953 209.78C174.953 214.573 162.681 202.971 149.82 186.019C145.735 180.635 141.155 175.046 139.643 173.599C138.129 172.151 134.095 166.775 130.679 161.652C127.262 156.529 122.782 150.474 120.724 148.197C118.666 145.92 116.982 143.475 116.982 142.763C116.981 142.052 116.786 141.469 116.548 141.469C116.31 141.469 115.3 141.157 114.306 140.776C112.985 140.268 113.378 141.362 115.77 144.838C117.571 147.454 119.634 150.211 120.356 150.965C123.28 154.023 130.439 163.533 130.439 164.36C130.439 164.848 132.907 168.164 135.923 171.73C138.94 175.294 143.919 181.472 146.988 185.457C150.056 189.442 153.842 194.099 155.4 195.807C156.959 197.515 159.662 200.542 161.41 202.535C163.156 204.527 165.367 206.971 166.323 207.964C169.572 211.344 166.989 210.874 161.386 207.066C151.018 200.02 137.495 183.844 120.549 158.223C114.031 148.368 108.699 140.011 108.699 139.653C108.699 139.295 106.443 135.482 103.686 131.179C100.931 126.877 97.0867 120.646 95.1457 117.333C91.6093 111.296 87.3193 107.181 83.2064 105.881C80.3574 104.981 77.5882 93.1106 79.8906 91.6647C82.0894 90.2829 85.0905 91.6884 89.7718 96.2932ZM252.08 108.866C252.375 111.143 253.074 114.869 253.633 117.146C255.103 123.136 256.282 160.099 255.002 160.099C254.438 160.099 253.954 159.518 253.927 158.806C253.4 144.782 251.207 115.085 250.237 108.829C248.802 99.5845 249.191 91.973 250.684 100.069C251.156 102.63 251.785 106.589 252.08 108.866ZM76.6151 112.489C76.6772 115.32 80.0055 122.622 83.459 127.502C84.665 129.206 85.9849 131.672 86.3907 132.98C86.7976 134.288 89.3122 138.247 91.9779 141.778C94.6446 145.308 98.1126 150.06 99.6862 152.337C106.862 162.723 113.527 170.936 123.862 182.125C125.849 184.278 129.866 188.936 132.787 192.475C135.707 196.016 139.072 199.844 140.264 200.982C141.457 202.121 143.051 203.867 143.809 204.863C145.009 206.443 144.921 206.675 143.123 206.675C140.969 206.675 130.985 199.359 128.462 195.933C127.66 194.845 126.105 193.206 125.006 192.292C122.58 190.278 108.117 171.735 103.942 165.288C100.319 159.692 92.2005 148.489 88.2635 143.651C86.692 141.721 83.5429 137.726 81.2654 134.773C78.9879 131.82 75.1057 126.88 72.6377 123.793C70.1708 120.707 67.3757 117.211 66.4264 116.025C63.5867 112.473 61.0784 107.288 61.0784 104.968C61.0784 103.77 62.1095 101.693 63.3694 100.351L65.6603 97.9139L71.1098 103.908C74.525 107.665 76.5789 110.867 76.6151 112.489ZM41.4722 104.985C38.1067 107.709 36.8168 114.848 38.8976 119.231C40.7134 123.057 43.4795 125.956 43.4795 124.032C43.4795 123.411 42.4982 121.02 41.2994 118.721C38.9266 114.17 39.1668 111.104 42.1886 107.373L44.0293 105.1L49.0015 108.896C55.4085 113.788 56.7253 112.574 50.7851 107.252C45.6639 102.664 44.6452 102.415 41.4722 104.985ZM249.899 123.357C250.263 131.895 250.778 142.375 251.043 146.644L251.524 154.407L250.161 149.743C249.411 147.178 248.313 144.151 247.721 143.015C245.574 138.902 244.399 127.671 245.34 120.251C247.834 100.57 248.96 101.336 249.899 123.357ZM86.5585 110.073C89.4374 111.959 93.5379 117.858 102.992 133.707C106.386 139.399 110.923 146.482 113.073 149.446C115.222 152.41 116.981 155.096 116.981 155.414C116.981 155.957 119.578 160.121 128.295 173.554C135.241 184.258 153.723 205.64 156.029 205.64C156.826 205.64 157.179 206.122 156.814 206.712C156.45 207.302 154.307 207.572 152.052 207.313C148.943 206.956 147.084 205.884 144.355 202.877C142.377 200.697 139.242 197.282 137.39 195.29C135.537 193.297 132.252 189.338 130.091 186.492C127.928 183.646 123.71 178.755 120.716 175.624C116.285 170.992 110.532 163.962 101.659 152.337C101.225 151.768 99.8176 149.588 98.5329 147.494C97.2492 145.399 95.8662 143.536 95.4604 143.354C94.4138 142.882 86.9591 130.504 86.9591 129.239C86.9591 128.66 86.5781 128.032 86.1133 127.841C85.6475 127.652 83.7261 124.315 81.844 120.425C78.9651 114.476 78.6028 112.958 79.5624 110.852C80.901 107.914 82.9207 107.69 86.5585 110.073ZM363.086 135.344C363.173 136.497 362.625 137.678 361.868 137.969C361.111 138.259 359.897 140.679 359.17 143.347C357.012 151.271 351.527 158.022 340.616 166.186C327.335 176.123 321.983 178.479 309.127 180.044C297.249 181.489 281.128 181.731 279.882 180.482C278.855 179.453 281.531 174.539 283.652 173.559C284.506 173.164 286.359 172.233 287.769 171.49C290.529 170.035 299.87 169.948 301.693 171.36C303.685 172.902 307.761 173.474 312.315 172.849C319.057 171.926 317.667 170.556 310.198 170.763C306.577 170.864 302.967 170.424 302.175 169.788C301.382 169.15 298.039 167.857 294.745 166.913C288.09 165.004 287.281 163.003 291.934 159.959C295.576 157.577 308.475 157.858 310.993 160.376C311.979 161.362 313.268 162.169 313.857 162.169C314.446 162.169 316.312 163.334 318.003 164.757C319.695 166.18 321.995 167.344 323.115 167.344C325.654 167.344 335.681 159.873 338.103 156.177C340.319 152.797 341.492 151.296 344.425 148.098C345.68 146.729 346.494 145.609 346.234 145.609C345.973 145.609 347.741 143.863 350.163 141.728C355.511 137.013 356.158 136.161 355.362 134.874C355.005 134.297 355.473 134.153 356.466 134.534C357.413 134.897 358.189 134.845 358.189 134.418C358.189 133.99 359.255 133.552 360.558 133.445C362.27 133.303 362.972 133.831 363.086 135.344ZM21.0969 135.35C26.3403 136.805 38.0353 145.358 42.9009 151.295C45.0148 153.874 47.2457 155.674 47.8596 155.294C48.4993 154.898 48.6774 155.086 48.2778 155.733C47.5687 156.88 52.1237 162.169 53.8215 162.169C54.3329 162.169 58.3371 165.215 62.7182 168.938C67.1003 172.661 72.8324 176.944 75.4577 178.455C78.082 179.967 82.5594 183.149 85.4062 185.526C88.2531 187.904 92.1549 190.724 94.0773 191.793C95.9997 192.862 98.8331 194.436 100.374 195.29C101.914 196.143 104.534 197.905 106.196 199.204L109.216 201.566L105.076 199.927C102.798 199.026 99.3042 197.314 97.3114 196.124C95.3186 194.932 91.1259 192.552 87.9943 190.833C82.4838 187.808 78.9092 185.438 62.2109 173.738C57.8878 170.708 53.0709 167.448 51.5088 166.493C49.9466 165.538 48.666 164.407 48.6619 163.981C48.6588 163.554 48.2146 163.204 47.6763 163.204C47.137 163.204 43.993 161.636 40.6886 159.718C37.3841 157.802 32.8747 155.651 30.6686 154.939C28.3259 154.182 26.4459 152.834 26.1488 151.696C25.8434 150.532 24.7202 149.749 23.3527 149.749C18.9529 149.749 13.5697 140.835 15.0853 136.059C15.7675 133.908 15.8628 133.897 21.0969 135.35ZM25.8248 154.802C26.1405 155.296 27.9977 156.046 29.9512 156.471C34.2101 157.395 38.1844 159.554 49.1733 166.913C58.2543 172.993 58.686 173.293 71.4307 182.334C81.5003 189.478 94.3444 197.001 109.073 204.382C118.314 209.013 119.018 209.563 116.501 210.195C114.971 210.579 112.241 210.44 110.433 209.885C108.625 209.332 105.05 208.336 102.487 207.672C99.9253 207.009 95.4997 205.415 92.6528 204.13C89.806 202.845 85.6133 201.147 83.3358 200.357C81.0583 199.566 75.4681 197.116 70.9131 194.913C66.3581 192.708 60.3569 190.225 57.5762 189.394C49.6899 187.036 24.7119 173.27 21.1197 169.301C20.1455 168.225 18.9343 167.344 18.4281 167.344C16.5647 167.344 12.6577 162.599 12.1505 159.721C11.314 154.967 14.5791 152.443 20.513 153.256C23.1187 153.613 25.509 154.308 25.8248 154.802ZM286.758 155.381C286.758 155.632 286.292 156.125 285.723 156.477C285.153 156.829 284.688 156.623 284.688 156.02C284.688 155.418 285.153 154.924 285.723 154.924C286.292 154.924 286.758 155.129 286.758 155.381ZM250.175 174.848C249.888 175.56 249.653 174.978 249.653 173.554C249.653 172.131 249.888 171.55 250.175 172.261C250.463 172.973 250.463 174.137 250.175 174.848ZM207.731 177.953C207.444 178.665 207.209 178.083 207.209 176.659C207.209 175.236 207.444 174.655 207.731 175.366C208.019 176.078 208.019 177.242 207.731 177.953ZM306.042 187.726C308.864 188.957 313.267 189.523 320.92 189.632C335.954 189.848 335.838 189.829 338.724 192.502C340.737 194.367 341.425 196.252 341.864 201.102C342.175 204.519 343.412 209.473 344.615 212.113C345.818 214.752 346.801 217.346 346.801 217.877C346.801 218.408 347.526 219.443 348.411 220.176C350.799 222.158 352.391 225.399 350.649 224.73C349.891 224.439 347.902 225.381 346.226 226.822C344.549 228.263 342.86 229.443 342.471 229.444C342.083 229.444 341.457 230.411 341.083 231.592C340.708 232.774 340.149 233.49 339.841 233.182C339.534 232.874 338.362 233.115 337.237 233.717C335.786 234.494 334.862 234.482 334.061 233.681C333.438 233.059 332.305 232.55 331.542 232.55C328.367 232.55 317.322 222.78 311.075 214.449C307.092 209.134 302.373 204.768 299.721 203.942C298.57 203.584 297.333 202.832 296.973 202.272C295.319 199.699 280.792 202.38 282.279 204.983C282.647 205.629 282.58 205.824 282.129 205.417C280.538 203.982 277.441 206.714 277.437 209.557L277.434 212.367L275.498 209.262C274.434 207.554 272.105 204.789 270.326 203.117C268.545 201.446 267.09 199.583 267.091 198.977C267.094 197.549 285.955 197.488 287.001 198.912C287.472 199.553 287.767 199.454 287.778 198.653C287.786 197.93 289.072 197.36 290.692 197.36C292.286 197.36 294.207 196.778 294.962 196.066C296.059 195.031 296.429 195.031 296.808 196.066C297.069 196.778 297.738 197.36 298.292 197.36C298.848 197.36 299.018 196.899 298.67 196.336C298.291 195.722 298.784 195.591 299.903 196.008C302.236 196.876 307.863 200.718 308.325 201.758C308.861 202.964 312.639 202.672 312.639 201.426C312.639 200.815 312.033 199.712 311.294 198.972C309.896 197.576 303.321 193.856 302.113 193.781C301.735 193.757 301.106 193.42 300.719 193.032C300.331 192.644 299.355 192.58 298.548 192.889C297.743 193.198 296.396 192.88 295.555 192.184C294.574 191.369 292.684 191.167 290.271 191.619C288.206 192.006 284.268 192.491 281.523 192.696C277.468 192.997 276.639 192.782 277.111 191.551C277.432 190.717 279.383 189.142 281.449 188.051C286.475 185.395 300.288 185.213 306.042 187.726ZM289.346 194.255C289.698 194.824 289.492 195.29 288.889 195.29C288.287 195.29 287.793 194.824 287.793 194.255C287.793 193.685 287.998 193.22 288.25 193.22C288.501 193.22 288.994 193.685 289.346 194.255ZM240.69 230.48C241.042 231.049 240.836 231.515 240.234 231.515C239.631 231.515 239.138 231.049 239.138 230.48C239.138 229.911 239.342 229.445 239.594 229.445C239.846 229.445 240.338 229.911 240.69 230.48ZM259.561 233.175C259.218 233.519 258.324 233.556 257.578 233.257C256.752 232.927 256.997 232.681 258.203 232.632C259.294 232.587 259.905 232.831 259.561 233.175ZM272.364 238.361C273.565 239.808 273.488 239.982 271.8 239.655C270.726 239.447 269.654 238.696 269.418 237.984C268.803 236.137 270.722 236.384 272.364 238.361ZM277.441 241.865C277.441 242.434 276.975 242.9 276.406 242.9C275.836 242.9 275.37 242.434 275.37 241.865C275.37 241.296 275.836 240.83 276.406 240.83C276.975 240.83 277.441 241.296 277.441 241.865ZM229.591 246.427C230.935 252.73 230.264 258.224 226.632 270.614C223.837 280.151 223.624 281.844 224.573 286.976C225.155 290.124 225.896 293.129 226.22 293.652C226.543 294.175 227.952 297.756 229.349 301.609C231.971 308.833 232.608 316.523 230.934 320.717C229.492 324.33 222.832 331.486 221.867 330.458C221.402 329.963 221.588 329.354 222.282 329.106C222.976 328.858 223.837 327.09 224.196 325.177C225.049 320.629 221.187 313.412 213.55 305.286C204.206 295.343 200.099 283.979 201.111 270.869C201.883 260.871 204.981 254.675 213.763 245.574C215.673 243.594 215.847 243.575 216.179 245.298C216.376 246.32 215.293 250.26 213.773 254.054C212.255 257.85 211.41 261.087 211.898 261.25C212.385 261.412 212.709 266.691 212.618 272.979C212.527 279.269 212.7 284.168 213.002 283.865C213.304 283.563 213.888 278.064 214.299 271.646C215.056 259.834 215.42 258.659 221.602 248.123C223.154 245.476 226.727 241.959 227.925 241.899C228.306 241.88 229.055 243.918 229.591 246.427ZM236.032 243.935C236.032 244.504 235.566 244.97 234.997 244.97C234.427 244.97 233.961 244.504 233.961 243.935C233.961 243.366 234.427 242.9 234.997 242.9C235.566 242.9 236.032 243.366 236.032 243.935ZM202.196 246.107C202.508 247.302 202.507 248.023 202.193 247.71C200.637 246.153 194.623 256.062 194.623 260.181C194.623 261.682 194.328 262.616 193.967 262.256C193.192 261.48 189.447 265.988 189.447 267.696C189.447 269.757 186.109 275.449 184.047 276.904C182.955 277.674 182.301 278.932 182.595 279.697C182.927 280.562 182.596 280.885 181.723 280.55C180.916 280.241 180.037 280.891 179.661 282.076C178.567 285.52 169.626 293.567 163.276 296.821C150.044 303.601 144.134 312.94 145.326 325.183C145.66 328.598 146.602 333.256 147.421 335.533C149.46 341.208 148.717 349.245 145.639 354.789C140.278 364.446 138.72 367.636 138.72 368.957C138.72 369.711 138.255 370.04 137.685 369.688C137.116 369.336 136.65 369.508 136.65 370.071C136.65 371.328 133.724 374.346 132.507 374.346C132.018 374.346 132.056 372.832 132.59 370.982C133.906 366.428 132.978 353.155 130.945 347.436C127.657 338.186 126.124 320.344 127.655 309.131C128.759 301.033 141.218 279.77 150.919 269.428C157.833 262.056 171.957 251.18 174.618 251.18C175.372 251.18 175.989 250.789 175.989 250.312C175.989 248.774 181.203 247.01 183.812 247.665C186.228 248.271 187.464 251.18 185.306 251.18C184.736 251.18 184.27 251.625 184.27 252.17C184.27 253.71 179.429 260.464 178.705 259.933C178.35 259.673 178.288 259.766 178.567 260.141C179.202 260.99 177.114 263.6 175.801 263.6C175.267 263.6 175.143 263.018 175.524 262.306C175.905 261.595 175.041 262.41 173.607 264.118C172.172 265.825 171.125 267.352 171.279 267.51C172.09 268.34 176.893 265.472 179.612 262.536C188.511 252.922 194.837 247.05 195.713 247.591C196.252 247.925 196.693 247.703 196.693 247.101C196.693 246.499 197.625 246.005 198.764 246.005C199.902 246.005 200.834 245.539 200.834 244.97C200.834 243.194 201.602 243.836 202.196 246.107ZM168.742 251.571C168.742 251.786 167.926 252.601 166.93 253.383C165.289 254.669 165.252 254.633 166.539 252.991C167.892 251.267 168.742 250.719 168.742 251.571ZM258.457 363.22C258.17 363.932 257.935 363.349 257.935 361.926C257.935 360.503 258.17 359.921 258.457 360.632C258.745 361.344 258.745 362.509 258.457 363.22ZM250.525 388.897C250.525 389.433 250.059 389.871 249.49 389.871C248.92 389.871 248.455 389.144 248.455 388.257C248.455 387.37 248.92 386.932 249.49 387.283C250.059 387.635 250.525 388.361 250.525 388.897ZM240.173 442.717C240.173 443.254 239.707 443.691 239.138 443.691C238.568 443.691 238.102 442.965 238.102 442.078C238.102 441.191 238.568 440.752 239.138 441.104C239.707 441.456 240.173 442.181 240.173 442.717ZM235.959 471.378C235.894 473.9 235.785 473.988 234.997 472.154C233.781 469.327 233.781 468.531 234.997 468.531C235.566 468.531 235.999 469.813 235.959 471.378ZM239.056 498.806C239.001 500.361 238.778 500.619 238.383 499.582C238.058 498.728 237.279 497.687 236.653 497.269C235.951 496.8 236.209 496.503 237.326 496.492C238.543 496.482 239.111 497.241 239.056 498.806ZM234.679 501.373C234.416 502.38 234.184 501.807 234.163 500.099C234.143 498.392 234.357 497.568 234.64 498.268C234.924 498.969 234.942 500.366 234.679 501.373ZM263.983 577.835C263.983 578.059 263.284 578.242 262.43 578.242C261.576 578.242 260.877 577.791 260.877 577.24C260.877 576.689 261.576 576.505 262.43 576.833C263.284 577.161 263.983 577.612 263.983 577.835ZM323.398 667.855C324.583 670.943 324.024 671.712 321.956 669.841C320.817 668.811 319.885 667.574 319.885 667.093C319.885 665.542 322.749 666.164 323.398 667.855ZM346.801 700.891C346.801 701.745 346.335 702.443 345.766 702.443C345.197 702.443 344.731 701.745 344.731 700.891C344.731 700.037 345.197 699.338 345.766 699.338C346.335 699.338 346.801 700.037 346.801 700.891ZM351.977 707.35C351.977 709.272 351.38 708.959 349.459 706.025C347.776 703.46 347.786 703.429 349.857 704.722C351.023 705.45 351.977 706.633 351.977 707.35ZM232.948 720.815C232.763 724.658 232.566 730.747 232.51 734.347L232.409 740.894L229.303 740.067C227.595 739.611 221.772 739.227 216.362 739.213C210.02 739.195 205.65 738.686 204.055 737.778C202.693 737.004 200.163 735.965 198.43 735.468C193.383 734.02 196.669 736.485 203.476 739.251C208.587 741.327 210.11 741.52 214.721 740.667C219.856 739.718 223.169 740.07 233.129 742.62L236.955 743.6L235.264 741.019C233.755 738.717 233.709 737.212 234.831 727.117C235.524 720.89 235.816 715.353 235.482 714.812C234.033 712.466 233.263 714.289 232.948 720.815ZM380.446 719.003C380.798 719.573 380.62 720.038 380.051 720.038C379.481 720.038 378.728 719.573 378.376 719.003C378.024 718.434 378.202 717.969 378.771 717.969C379.34 717.969 380.094 718.434 380.446 719.003ZM244.984 746.998C246.323 748.337 259.388 751.073 263.983 750.978C266.227 750.931 264.454 750.336 259.324 749.414C254.769 748.596 249.451 747.49 247.507 746.956C245.204 746.325 244.325 746.339 244.984 746.998ZM335.133 750.679C334.789 751.022 333.896 751.06 333.15 750.761C332.323 750.431 332.569 750.185 333.775 750.135C334.866 750.091 335.477 750.335 335.133 750.679ZM344.731 751.089C344.731 751.658 344.032 752.124 343.178 752.124C342.324 752.124 341.625 751.658 341.625 751.089C341.625 750.519 342.324 750.054 343.178 750.054C344.032 750.054 344.731 750.519 344.731 751.089ZM351.977 752.124C351.977 752.693 351.279 753.159 350.424 753.159C349.57 753.159 348.872 752.693 348.872 752.124C348.872 751.554 349.57 751.089 350.424 751.089C351.279 751.089 351.977 751.554 351.977 752.124ZM330.237 755.229C331.402 755.981 330.885 756.232 328.167 756.232C325.45 756.232 324.932 755.981 326.097 755.229C326.951 754.677 327.882 754.226 328.167 754.226C328.452 754.226 329.383 754.677 330.237 755.229ZM133.604 799.675C132.319 800.489 132.302 801.811 133.486 809.233C134.243 813.971 135.941 819.943 137.261 822.504C140.254 828.316 140.416 827.362 137.634 820.306C136.246 816.785 135.442 812.123 135.305 806.818C135.19 802.358 135.097 798.714 135.097 798.72C135.097 798.726 134.425 799.155 133.604 799.675ZM180.331 806.462C180.352 808.169 180.584 808.743 180.847 807.736C181.11 806.729 181.092 805.331 180.809 804.631C180.525 803.93 180.311 804.754 180.331 806.462ZM224.22 805.667C219.495 806.367 216.288 809.051 214.115 814.119C212.201 818.584 211.299 829.489 212.662 831.694C213.625 833.253 216.015 846.836 215.563 848.19C215.086 849.621 210.151 849.869 210.151 848.461C210.151 847.937 208.842 847.221 207.24 846.869C205.639 846.519 200.864 843.176 196.629 839.444C187.926 831.773 186.087 830.68 177.982 828.35C168.364 825.586 159.533 828.029 151.661 835.631C145.698 841.388 139.17 846.309 137.493 846.309C135.199 846.309 127.867 854.635 125.417 860.023C124.188 862.728 122.702 864.939 122.116 864.939C121.53 864.939 121.222 866.221 121.431 867.786C122.129 872.998 124.591 871.381 128.557 863.104C131.554 856.853 132.118 854.813 131.195 853.576C130.252 852.312 130.287 852.237 131.372 853.195C132.412 854.114 133.28 853.905 135.142 852.287C137.9 849.89 141.483 847.686 144.214 846.708C145.286 846.324 145.843 845.41 145.52 844.567C145.209 843.758 145.361 843.347 145.857 843.654C146.929 844.316 155.424 837.984 159.306 833.631C160.194 832.634 161.981 831.819 163.278 831.819C164.575 831.819 165.636 831.428 165.636 830.951C165.636 829.371 180.115 831.285 184.27 833.413C185.694 834.143 189.034 836.76 191.692 839.231C200.666 847.571 203.402 849.401 210.001 851.481C217.178 853.743 220.503 854.092 220.503 852.583C220.503 852.047 219.153 846.081 217.502 839.324C214.121 825.479 214.086 822.991 217.173 816.031C219.519 810.742 221.902 809.231 229.303 808.341C231.58 808.068 234.143 807.575 234.997 807.247C235.851 806.919 236.898 806.724 237.326 806.814C237.753 806.906 238.102 806.513 238.102 805.944C238.102 804.93 230.244 804.772 224.22 805.667ZM180.13 810.826C180.13 812.766 183.635 820.434 184.522 820.434C185.075 820.434 185.194 819.62 184.787 818.623C184.379 817.626 183.609 815.297 183.075 813.448C182.236 810.546 180.13 808.669 180.13 810.826ZM274.335 827.679C274.335 828.248 274.801 828.714 275.37 828.714C275.94 828.714 276.406 828.248 276.406 827.679C276.406 827.11 275.94 826.644 275.37 826.644C274.801 826.644 274.335 827.11 274.335 827.679Z" fill="black"/>
</svg>
