<svg width="403" height="948" viewBox="0 0 403 948" fill="none" xmlns="http://www.w3.org/2000/svg">
<path fill-rule="evenodd" clip-rule="evenodd" d="M278.122 1.48883C280.264 2.58083 282.664 4.39881 283.455 5.52881C284.247 6.65881 285.928 8.61683 287.191 9.87983C288.455 11.1438 289.798 13.1518 290.176 14.3428C290.554 15.5338 291.282 16.5078 291.795 16.5078C292.308 16.5078 292.728 17.0008 292.728 17.6038C292.728 18.2058 293.541 19.8938 294.535 21.3538C296.676 24.4978 301.102 36.1558 302.567 42.5078C303.609 47.0268 305.135 60.8388 305.108 65.5078C305.065 73.0018 303.522 100.286 303.049 101.911C302.442 103.999 303.69 103.367 315.228 95.7468C317.978 93.9308 321.24 92.1848 322.478 91.8678C323.716 91.5508 324.728 90.9378 324.728 90.5068C324.728 87.8878 339.203 86.6678 343.558 88.9198C345.301 89.8218 346.728 90.9398 346.728 91.4048C346.728 91.8698 348.3 93.3208 350.221 94.6288C352.142 95.9368 353.717 97.3738 353.721 97.8208C353.725 98.2678 355.006 101.418 356.567 104.821C362.014 116.689 362.549 118.229 363.264 124.1C364.084 130.837 365.596 134.285 369.398 138.087C372.586 141.276 375.848 142.673 385.519 144.994C390.877 146.28 393.615 147.549 395.85 149.784L398.891 152.825L398.211 161.916C397.551 170.732 397.608 171.092 400.093 173.77C401.531 175.321 402.405 177.186 402.085 178.02C401.383 179.85 401.588 179.853 394.713 177.924C387.489 175.897 382.143 177.16 377.254 182.048C372.293 187.009 369.808 186.972 362.326 181.825C359.523 179.897 357.004 177.972 356.729 177.548C356.453 177.124 354.257 175.704 351.847 174.392C349.437 173.081 346.425 171.433 345.152 170.73C343.879 170.026 341.125 169.404 339.033 169.347C336.843 169.287 334.349 168.447 333.158 167.37C331.099 165.507 331.069 165.536 327.322 173.015C324.18 179.289 323.664 181.169 324.205 184.374C324.959 188.834 331.132 195.453 336.728 197.801C344.545 201.081 350.138 209.64 351.383 220.229C351.908 224.695 351.767 225.688 350.659 225.318C349.902 225.066 349.042 223.837 348.747 222.588C347.987 219.371 342.152 217.64 331.269 217.403C324.72 217.26 320.403 216.558 315.607 214.857C311.965 213.565 308.322 212.508 307.51 212.508C306.698 212.508 304.996 211.608 303.728 210.508C301.201 208.316 298.728 207.875 298.728 209.616C298.728 210.226 300.899 213.971 303.553 217.939C306.748 222.716 308.167 225.755 307.754 226.935C307.274 228.302 305.876 226.77 301.756 220.362C298.8 215.768 295.781 210.01 295.046 207.568C294.311 205.127 293.039 202.105 292.219 200.854C290.191 197.759 290.346 192.903 292.715 185.347C296.26 174.04 294.646 164.759 287.974 158.088C284.146 154.259 281.472 153.124 277.58 153.675C274.556 154.103 273.957 158.797 276.117 165.136C277.422 168.968 277.485 171.727 276.547 184.181C275.443 198.838 276.415 211.086 278.93 214.214C279.464 214.878 279.572 215.952 279.171 216.601C278.728 217.317 277.687 215.858 276.525 212.894C274.735 208.332 273.052 196.716 272.228 183.238C271.818 176.524 269.303 168.229 266.439 164.145C263.737 160.293 258.656 158.205 255.192 159.522C253.744 160.072 252.195 160.297 251.749 160.021C251.303 159.745 250.641 160.292 250.279 161.237C249.829 162.41 250.429 163.543 252.174 164.814C253.579 165.838 254.728 167.339 254.728 168.15C254.728 168.975 255.217 169.324 255.835 168.942C256.58 168.481 256.722 168.953 256.268 170.383C255.776 171.933 256.018 172.508 257.161 172.508C258.023 172.508 258.728 173.151 258.728 173.937C258.728 174.722 259.401 176.038 260.223 176.86C261.439 178.076 261.634 180.648 261.272 190.681C260.74 205.422 259.882 218.976 259.243 222.758C258.987 224.271 259.187 226.584 259.687 227.899C260.605 230.315 271.664 239.508 273.652 239.508C274.244 239.508 274.728 239.958 274.728 240.508C274.728 241.058 275.41 241.508 276.243 241.508C279.093 241.508 288.793 247.733 290.208 250.469C290.985 251.972 291.444 254.601 291.228 256.311L290.834 259.421L295.031 257.268C297.339 256.085 299.453 254.858 299.728 254.542C300.003 254.226 301.366 253.469 302.757 252.86C305.827 251.515 308.728 243.309 308.728 235.97C308.728 232.492 309.035 231.415 309.807 232.187C311.808 234.188 311.847 240.859 309.894 247.008C308.059 252.786 307.733 253.156 301.069 257.008C297.264 259.208 292.748 262.021 291.035 263.258C287.015 266.161 281.728 266.325 281.728 263.547C281.728 261.706 285.26 257.508 286.81 257.508C287.197 257.508 287.797 256.77 288.144 255.867C289.179 253.169 286.054 249.701 279.693 246.49C271.244 242.225 262.6 236.595 260.104 233.73C258.935 232.39 257.715 231.719 257.393 232.241C257.071 232.763 256.546 237.199 256.228 242.099C255.91 246.999 255.454 251.942 255.214 253.083C254.974 254.224 254.506 261.849 254.173 270.027C253.611 283.854 252.348 289.795 250.388 287.835C250.025 287.472 249.728 287.977 249.728 288.958C249.728 290.216 250.286 290.595 251.623 290.246C253.422 289.775 253.525 290.569 253.649 305.765C253.72 314.573 254.023 322.176 254.322 322.661C254.622 323.145 255.077 324.771 255.334 326.274C255.591 327.778 256.914 332.608 258.274 337.008C259.634 341.408 261.273 346.808 261.917 349.008C262.561 351.208 263.381 353.458 263.739 354.008C264.097 354.558 265.623 358.833 267.13 363.508C268.638 368.183 270.244 372.908 270.699 374.008C271.155 375.108 272.282 378.708 273.203 382.008C274.124 385.308 276.187 391.403 277.787 395.553C279.387 399.703 280.984 404.54 281.337 406.303C281.69 408.066 282.262 409.508 282.609 409.508C282.956 409.508 283.859 410.971 284.616 412.758C285.949 415.907 295.699 436.213 309.704 465.008C319.018 484.158 323.728 494.382 323.728 495.448C323.728 495.942 325.303 499.632 327.228 503.648C329.153 507.665 330.728 511.725 330.728 512.671C330.728 513.616 331.178 514.668 331.728 515.008C332.278 515.348 332.728 516.724 332.728 518.067C332.728 519.41 333.126 520.508 333.611 520.508C334.594 520.508 335.074 521.861 337.697 532.008C338.692 535.858 341.408 546.208 343.733 555.008C346.058 563.808 348.615 574.383 349.416 578.508C350.216 582.633 351.937 590.283 353.241 595.508C355.803 605.776 358.324 620.277 359.76 633.008C361.561 648.98 363.504 668.043 363.479 669.508C363.465 670.333 363.987 676.758 364.639 683.787C365.291 690.815 365.768 698.69 365.7 701.287C365.632 703.883 365.6 713.658 365.628 723.008C365.657 732.358 365.442 744.058 365.15 749.008C364.859 753.958 364.454 761.383 364.252 765.508C363.401 782.816 360.917 802.402 357.594 818.008C355.237 829.078 348.46 856.109 347.666 857.608C347.2 858.488 345.88 862.763 344.733 867.108C343.585 871.453 341.891 876.583 340.966 878.508C340.042 880.433 339.184 883.063 339.059 884.353C338.935 885.643 338.22 887.668 337.472 888.853C336.723 890.038 335.309 893.258 334.33 896.008C333.351 898.758 331.24 903.841 329.639 907.303C328.038 910.765 326.728 914.028 326.728 914.553C326.728 915.078 326.333 915.508 325.849 915.508C325.366 915.508 324.411 916.858 323.728 918.508C323.045 920.158 322.09 921.508 321.607 921.508C321.123 921.508 320.728 922.025 320.728 922.658C320.728 923.92 312.548 932.049 307.45 935.853C301.281 940.457 293.179 944.191 285.567 945.94C277.654 947.758 273.728 947.426 273.728 944.941C273.728 944.011 272.66 943.508 270.686 943.508C267.178 943.508 264.604 941.335 262.829 936.876C261.854 934.425 261.838 932.468 262.755 927.876C264.493 919.173 265.23 855.546 263.731 843.573C263.073 838.312 262.18 833.558 261.747 833.008C261.313 832.458 260.636 830.499 260.241 828.654C258.925 822.505 252.496 808.493 249.012 804.181C247.756 802.627 246.728 800.933 246.728 800.417C246.728 799.902 244.815 796.539 242.478 792.944C238.478 786.791 238.022 786.421 234.728 786.644C228.407 787.073 211.672 782.266 200.424 776.792C193.966 773.649 192.903 773.431 186.454 773.918C178.043 774.553 175.757 775.921 170.931 783.207C162.916 795.308 161.986 797.458 161.153 805.805C160.89 808.443 160.034 812.268 159.252 814.305C158.47 816.342 157.317 820.033 156.689 822.508C155.541 827.039 152.344 831.508 150.25 831.508C149.015 831.508 142.728 825.372 142.728 824.167C142.728 823.756 141.595 822.203 140.211 820.714C137.806 818.129 133.728 808.926 133.728 806.085C133.728 804.794 132.146 799.164 129.069 789.508C123.52 772.092 123.548 746.448 129.131 733.087C129.921 731.195 132.818 726.128 135.569 721.827C138.319 717.527 141.314 711.983 142.224 709.508C143.134 707.033 144.311 704.201 144.84 703.214C145.614 701.767 144.973 700.648 141.533 697.44C136.138 692.409 131.086 690.944 123.728 692.276C119.815 692.984 118.027 692.953 117.532 692.169C116.617 690.717 116.424 690.823 123.27 689.037C128.722 687.615 129.676 687.624 134.501 689.14C137.401 690.051 139.535 691.035 139.243 691.326C138.952 691.618 140.404 692.804 142.471 693.963C147.792 696.947 149.027 699.961 147.156 705.393C145.097 711.369 142.071 717.19 138.174 722.668C134.169 728.3 130.513 735.281 130.14 738.008C129.989 739.108 129.359 742.483 128.739 745.508C127.121 753.406 127.323 768.863 129.152 777.008C134.41 800.434 139.587 815.938 143.728 820.658C144.553 821.599 146.315 823.73 147.644 825.395C148.972 827.059 150.429 828.193 150.881 827.914C151.332 827.635 152.439 824.842 153.34 821.707C154.241 818.573 155.549 814.883 156.246 813.508C156.943 812.133 157.803 808.105 158.157 804.557C158.641 799.718 159.84 796.158 162.958 790.307C165.243 786.018 167.477 782.508 167.921 782.508C168.365 782.508 168.737 781.946 168.747 781.258C168.758 780.571 170.268 778.288 172.104 776.185C175.892 771.845 179.81 770.569 189.458 770.532C194.884 770.511 203.158 772.633 204.728 774.449C205.705 775.579 216.301 779.508 218.372 779.508C219.529 779.508 222.39 780.183 224.728 781.008C229.566 782.715 236.311 782.991 237.221 781.519C237.571 780.953 237.17 780.785 236.28 781.126C235.307 781.5 234.728 781.168 234.728 780.237C234.728 779.421 234.127 778.254 233.393 777.645C232.658 777.035 231.465 774.742 230.741 772.548C230.017 770.355 228.593 767.667 227.577 766.576C226.56 765.484 225.728 764.358 225.728 764.073C225.728 763.634 219.491 753.984 215.519 748.277C214.856 747.325 211.819 741.7 208.771 735.777L203.228 725.008L196.228 721.29C192.378 719.245 189.767 717.557 190.425 717.54C191.083 717.522 193.777 718.654 196.41 720.054C201.869 722.956 202.873 722.097 199.811 717.142C198.665 715.288 197.728 713.285 197.728 712.69C197.728 712.095 196.463 709.673 194.916 707.308C193.369 704.943 190.912 699.858 189.455 696.008C184.113 681.888 179.728 669.572 179.728 668.689C179.728 667.402 170.87 659.278 166.176 656.261C160.685 652.73 149.307 649.193 145.416 649.806C139.616 650.72 128.728 654.97 128.728 656.32C128.728 657.147 128.042 657.425 126.896 657.061C125.748 656.697 124.354 657.264 123.164 658.579C122.119 659.734 119.006 662.302 116.246 664.287C113.486 666.271 109.326 669.608 107 671.701C102.775 675.506 97.6554 676.818 96.2034 674.468C95.7954 673.808 96.4134 673.638 97.8944 674.003C99.4404 674.383 101.29 673.805 103.37 672.293C106.236 670.209 118.025 661.102 123.452 656.779C124.675 655.805 125.35 654.528 124.952 653.941C123.623 651.982 113.261 644.747 110.728 644.009C109.353 643.608 106.825 642.431 105.11 641.394C103.395 640.357 101.258 639.508 100.36 639.508C99.4624 639.508 98.7284 639.058 98.7284 638.508C98.7284 637.014 100.413 637.288 104.53 639.451C106.564 640.519 110.253 642.283 112.728 643.371C115.203 644.459 119.253 647.172 121.728 649.4C124.203 651.628 126.721 653.464 127.323 653.48C128.467 653.509 136.981 650.66 142.355 648.449C145.153 647.298 146.548 647.5 155.605 650.371C161.173 652.136 165.728 653.917 165.728 654.329C165.728 654.74 167.01 655.834 168.578 656.76C170.145 657.686 172.845 659.894 174.578 661.666C176.31 663.438 177.728 664.327 177.728 663.641C177.728 662.51 172.613 649.425 169.271 642.008C166.587 636.051 153.953 604.892 152.242 600.008C151.278 597.258 149.574 592.983 148.454 590.508C143.185 578.863 141.836 575.771 140.67 572.673C139.98 570.838 138.786 568.709 138.017 567.94C137.249 567.172 136.445 565.747 136.232 564.775C136.019 563.803 134.249 559.408 132.299 555.008C130.348 550.608 128.747 546.444 128.74 545.754C128.733 545.065 127.828 542.822 126.728 540.769C125.628 538.717 124.728 536.468 124.728 535.773C124.728 535.077 124.278 534.508 123.728 534.508C123.178 534.508 122.801 534.17 122.889 533.758C123.315 531.78 111.553 508.281 105.745 499.508C104.835 498.133 101.758 493.555 98.9095 489.334C96.0595 485.113 93.7284 481.382 93.7284 481.042C93.7284 480.702 92.9004 479.536 91.8884 478.449C90.8764 477.363 89.4234 475.244 88.6584 473.741C87.8944 472.238 86.3584 469.658 85.2464 468.008C84.1334 466.358 82.7744 464.265 82.2254 463.356C81.6774 462.448 79.1014 458.969 76.5024 455.627C71.1474 448.74 60.2954 427.078 61.1214 424.925C62.0364 422.541 63.6774 423.334 65.4294 427.008C66.3474 428.933 67.4494 430.508 67.8774 430.508C68.3054 430.508 69.6854 432.02 70.9424 433.867C73.1214 437.069 77.3564 442.272 84.4784 450.497C86.2664 452.561 87.7284 454.983 87.7284 455.879C87.7284 456.775 88.1344 457.508 88.6294 457.508C89.1254 457.508 90.4624 458.971 91.6004 460.758C95.6814 467.166 101.579 476.026 102.417 477.008C104.059 478.931 112.444 492.038 114.151 495.348C115.098 497.185 115.62 499.346 115.312 500.15C115.003 500.954 115.145 501.369 115.626 501.071C116.107 500.774 116.834 501.538 117.241 502.769C117.942 504.889 118.003 504.902 118.386 503.008C118.772 501.095 117.067 491.507 114.829 483.008C113.291 477.166 113.5 469.161 115.318 464.278C118.476 455.799 124.728 445.483 124.728 448.751C124.728 449.583 124.003 450.865 123.116 451.601C121.237 453.161 117.411 461.257 115.835 467.008C114.226 472.88 114.453 476.245 117.227 487.694C118.601 493.367 119.726 499.9 119.727 502.213C119.728 505.823 124.633 518.675 126.71 520.508C127.692 521.375 135.587 535.488 136.239 537.543C136.582 538.624 137.282 539.508 137.795 539.508C138.308 539.508 138.728 540.183 138.728 541.008C138.728 541.833 139.16 542.508 139.688 542.508C140.216 542.508 141.189 544.313 141.85 546.52C142.511 548.726 143.654 551.032 144.39 551.642C145.126 552.253 145.728 553.543 145.728 554.508C145.728 555.473 146.403 556.823 147.228 557.508C148.053 558.193 148.728 559.485 148.728 560.38C148.728 561.276 150.06 564.483 151.689 567.508C153.317 570.533 154.669 573.683 154.694 574.508C154.72 575.333 155.37 577.215 156.14 578.691C156.91 580.166 157.842 582.748 158.211 584.429C159.22 589.026 160.371 588.964 161.603 584.246C162.211 581.915 163.732 578.222 164.983 576.039C167.259 572.066 175.463 565.072 178.901 564.173C181.808 563.413 181.035 564.309 176.978 566.403C170.556 569.718 165.881 575.468 163.224 583.321C160.503 591.364 160.403 590.82 167.23 605.082C169.093 608.973 171.27 613.923 172.069 616.082C176.647 628.457 188.391 657.14 190.783 661.789C191.853 663.868 192.728 666.035 192.728 666.603C192.728 667.171 193.853 670.096 195.228 673.102C196.603 676.108 197.728 678.819 197.728 679.126C197.728 679.433 199.013 682.461 200.584 685.855C202.155 689.249 203.788 693.147 204.212 694.517C204.637 695.887 205.919 698.808 207.06 701.008C209.466 705.645 213.695 718.197 213.715 720.758C213.722 721.721 214.188 722.508 214.749 722.508C215.311 722.508 216.283 723.633 216.91 725.008C218.348 728.164 219.728 728.228 219.728 725.139C219.728 722.059 227.325 712.508 229.775 712.508C231.59 712.508 232.589 710.189 234.08 702.508C234.347 701.133 234.49 702.478 234.397 705.496L234.228 710.984L241.13 710.693C244.926 710.533 249.344 709.724 250.948 708.894C252.552 708.065 254.396 707.603 255.046 707.868C255.812 708.181 255.728 708.378 254.807 708.429C254.025 708.472 252.671 709.155 251.797 709.945C250.85 710.803 246.985 711.628 242.219 711.991C233.863 712.627 226.728 714.285 226.728 715.59C226.728 716.01 225.647 717.639 224.327 719.209C221.451 722.626 219.196 730.137 220.536 731.834C221.046 732.48 222.939 735.708 224.742 739.008C226.546 742.308 229.193 746.41 230.625 748.123C232.056 749.837 237.053 756.51 241.728 762.952C249.924 774.246 254.957 780.515 255.817 780.502C256.043 780.499 256.262 778.081 256.303 775.13C256.39 768.989 258.197 763.82 261.173 761.197C269.618 753.757 270.282 753.467 279.86 753.025C284.291 752.821 288.154 752.415 288.445 752.124C288.737 751.833 288.019 749.761 286.851 747.52C285.684 745.28 284.728 742.785 284.728 741.977C284.728 741.169 284.308 740.508 283.795 740.508C283.282 740.508 282.572 739.495 282.216 738.258C281.472 735.672 279.823 731.872 275.163 722.008C271.682 714.64 270.206 708.458 269.229 697.167C268.352 687.033 270.641 682.828 279.517 678.271C283.208 676.375 287.481 674.515 289.012 674.138C293.12 673.127 294.356 669.633 292.206 665.103C290.374 661.243 286.051 657.19 284.674 658.042C283.774 658.598 272.431 653.464 271.895 652.258C271.711 651.846 271.139 651.508 270.623 651.508C269.746 651.508 261.828 646.684 260.728 645.479C260.453 645.178 255.728 642.757 250.228 640.099C244.728 637.441 238.428 634.332 236.228 633.19C231.913 630.95 230.304 630.17 221.44 626.025C215.326 623.165 207.383 616.147 206.261 612.613C205.894 611.455 205.235 610.508 204.797 610.508C204.359 610.508 203.434 607.833 202.74 604.564C201.599 599.186 201.657 598.315 203.353 595.419C206.823 589.494 209.666 588.206 220.966 587.439C226.61 587.056 232.419 586.269 233.875 585.689C235.331 585.11 236.75 584.863 237.028 585.142C237.307 585.42 239.265 584.77 241.381 583.698C243.497 582.625 247.253 581.414 249.728 581.006C252.203 580.598 256.028 579.459 258.228 578.475C261.62 576.958 269.055 575.029 270.728 575.232C271.003 575.265 273.253 575.615 275.728 576.009L280.228 576.726L277.671 573.867C276.265 572.294 273.815 569.208 272.227 567.008C268.387 561.688 261.111 554.873 256.478 552.257C254.416 551.093 252.728 549.841 252.728 549.476C252.728 549.111 250.816 547.973 248.478 546.947C240.103 543.272 228.565 535.581 229.4 534.23C229.769 533.632 229.548 533.501 228.873 533.918C228.233 534.314 225.666 533.258 223.169 531.573C220.671 529.887 218.377 528.508 218.071 528.508C217.765 528.508 214.75 527.21 211.371 525.623C207.992 524.037 202.753 522.175 199.728 521.485C196.703 520.795 192.428 519.455 190.228 518.507C188.028 517.559 184.446 516.205 182.267 515.498C176.139 513.511 168.583 509.46 166.297 506.937C158.435 498.257 155.835 492.363 155.77 483.074C155.729 477.228 155.803 477.068 160.83 472.223C166.591 466.67 173.171 463.359 178.862 463.15C180.982 463.072 182.719 462.644 182.722 462.199C182.725 461.754 183.2 461.682 183.777 462.038C184.492 462.48 184.45 463.138 183.644 464.109C182.749 465.188 182.132 465.258 181.095 464.398C180.034 463.517 179.728 463.627 179.728 464.886C179.728 465.778 178.94 466.512 177.978 466.518C174.441 466.538 166.121 471.313 162.365 475.479C158.743 479.497 158.528 480.085 158.931 484.886C159.453 491.109 163.753 500.003 168.06 503.769C171.337 506.633 184.301 513.508 186.426 513.508C187.994 513.508 204.66 519.107 205.454 519.9C205.788 520.235 206.859 520.508 207.834 520.508C210.313 520.508 227.821 529.586 228.437 531.191C228.715 531.915 229.374 532.508 229.902 532.508C230.43 532.508 232.369 533.658 234.211 535.063C236.053 536.468 241.19 539.373 245.627 541.518C253.074 545.12 260.711 550.162 266.631 555.387C267.953 556.554 269.394 557.508 269.834 557.508C270.274 557.508 271.33 558.971 272.181 560.758C273.032 562.545 275.077 565.583 276.726 567.508C278.374 569.433 279.724 571.346 279.726 571.758C279.727 572.17 280.44 572.508 281.311 572.508C282.182 572.508 282.693 573.071 282.446 573.758C282.2 574.446 282.423 575.832 282.942 576.84C283.641 578.196 283.436 579.001 282.153 579.939C280.747 580.967 279.36 580.942 274.824 579.808C269.493 578.475 268.873 578.532 261.728 581.007C257.603 582.436 249.415 584.892 243.533 586.464C237.65 588.036 232.25 589.685 231.533 590.129C230.815 590.572 225.818 591.201 220.428 591.526C211.231 592.081 210.477 592.293 208.178 594.968C206.83 596.536 205.678 598.312 205.617 598.914C205.254 602.509 206.348 605.733 209.893 611.508C214.284 618.661 219.371 622.312 233.728 628.618C244.515 633.355 265.713 644.272 269.228 646.9C272.62 649.435 286.88 656.508 288.601 656.508C289.221 656.508 289.728 656.958 289.728 657.508C289.728 658.058 290.29 658.514 290.978 658.52C293.204 658.542 296.728 665.246 296.728 669.458C296.728 672.932 296.255 673.757 292.996 675.972C290.943 677.367 288.243 678.508 286.996 678.508C285.749 678.508 284.728 678.908 284.728 679.398C284.728 679.887 282.701 680.886 280.224 681.617C276.581 682.693 275.359 683.676 273.836 686.756C272.487 689.481 272.158 691.48 272.678 693.786C273.077 695.558 273.258 698.808 273.081 701.008C272.712 705.567 275.148 716.159 277.096 718.465C277.812 719.314 278.982 721.583 279.694 723.508C280.407 725.433 281.831 728.838 282.859 731.074C283.887 733.31 284.728 735.468 284.728 735.87C284.728 737.284 294.917 757.012 295.817 757.341C297.099 757.811 296.957 761.508 295.657 761.508C294.133 761.508 291.502 758.683 292.11 757.7C293.321 755.739 274.968 755.786 271.26 757.753C266.969 760.029 260.915 766.376 260.325 769.216C258.794 776.584 258.845 779.979 260.512 781.822C262.1 783.577 262.094 783.767 260.405 785.002C259.305 785.807 259.01 786.564 259.644 786.956C262.683 788.834 276.146 811.022 275.188 812.573C274.87 813.087 274.996 813.508 275.468 813.508C275.94 813.508 276.93 815.196 277.668 817.258C278.406 819.321 279.291 821.233 279.634 821.508C279.977 821.783 281.329 825.383 282.638 829.508C287.413 844.56 290.842 860.281 291.906 872.008C292.505 878.608 293.305 884.356 293.685 884.781C294.521 885.719 304.728 873.868 304.728 871.959C304.728 871.216 305.29 870.248 305.978 869.808C307.711 868.699 311.302 863.427 312.155 860.739C312.544 859.512 313.282 858.508 313.795 858.508C314.308 858.508 314.728 857.787 314.728 856.905C314.728 856.024 316.557 851.411 318.793 846.655C321.029 841.899 324.427 833.733 326.344 828.508C328.261 823.283 330.482 817.433 331.28 815.508C333.235 810.789 341.728 780.586 341.728 778.35C341.728 777.371 342.845 773.149 344.21 768.967C346.663 761.451 346.686 761.054 346.208 734.186C345.942 719.238 345.514 705.658 345.257 704.008C345 702.358 344.528 688.633 344.208 673.508C343.648 647.11 341.936 624.176 339.654 612.508C335.784 592.724 332.826 579.937 328.121 562.639C326.271 555.837 325.047 549.762 325.403 549.139C325.758 548.517 325.663 548.359 325.191 548.789C324.719 549.219 323.341 546.744 322.129 543.289C320.916 539.834 319.373 535.433 318.699 533.508C315.294 523.789 312.337 515.701 311.205 513.008C310.511 511.358 309.257 507.983 308.418 505.508C304.228 493.147 303.23 490.358 300.083 482.209C298.214 477.37 296.28 472.645 295.786 471.709C295.292 470.774 293.867 467.308 292.619 464.008C291.37 460.708 289.534 456.532 288.539 454.728C287.543 452.923 286.728 450.823 286.728 450.061C286.728 449.298 286.391 448.525 285.978 448.341C284.731 447.787 280.728 439.454 280.728 437.413C280.728 436.365 280.313 435.508 279.806 435.508C279.298 435.508 278.363 433.933 277.728 432.008C277.093 430.083 276.158 428.508 275.65 428.508C275.143 428.508 274.728 427.853 274.728 427.053C274.728 425.362 269.537 413.444 260.77 395.008C248.948 370.148 245.913 361.567 238.847 333.008C233.414 311.05 232.34 298.642 233.041 265.914C233.358 251.116 233.881 237.243 234.203 235.085L234.79 231.161L228.258 238.085C219.387 247.487 218.929 248.594 217.497 264.122C217.345 265.77 213.943 267.666 213.224 266.502C212.896 265.971 212.242 263.168 211.77 260.272C211.299 257.377 209.048 251.103 206.769 246.331C204.491 241.559 202.38 236.136 202.078 234.28C201.729 232.127 202.643 226.764 204.605 219.457C207.921 207.107 208.873 194.515 206.784 190.613C206.133 189.395 205.678 187.411 205.774 186.203C206.164 181.311 205.741 181.103 202.261 184.476C195.465 191.063 192.782 201.24 192.234 222.508C191.977 232.513 191.59 234.755 189.26 239.758C187.787 242.92 186.176 245.508 185.68 245.508C185.185 245.508 184.027 244.045 183.106 242.258C181.181 238.518 177.672 234.551 176.266 234.525C175.051 234.503 166.728 226.39 166.728 225.228C166.728 224.754 166.165 223.777 165.478 223.059C164.79 222.341 163.553 220.743 162.728 219.508C161.903 218.273 160.562 216.572 159.749 215.728C158.936 214.884 158.321 212.576 158.384 210.6C158.497 207.002 162.895 193.239 164.605 191.13C167.245 187.874 169.57 182.291 170.203 177.69C170.595 174.841 171.323 172.258 171.822 171.95C173.478 170.926 172.758 169.508 170.583 169.508C168.335 169.508 159.733 174.462 159.73 175.758C159.729 176.17 159.212 176.508 158.581 176.508C157.543 176.508 154.058 179.17 146.562 185.689C141.471 190.117 140.181 191.017 136.431 192.758C132.294 194.678 127.661 195.04 126.178 193.56C125.28 192.664 115.116 190.457 111.6 190.394C107.99 190.33 101.701 192.689 100.752 194.464C99.4314 196.932 96.8284 199.508 95.6574 199.508C94.3934 199.508 94.4744 194.783 95.7514 193.994C96.3144 193.646 96.7144 191.032 96.6404 188.185C96.4784 181.917 97.6174 178.842 101.377 175.394C104.588 172.45 114.861 166.915 118.868 165.969C121.737 165.292 124.768 162.264 127.111 157.735C129.387 153.333 138.158 144.979 143.999 141.651C149.281 138.641 158.417 136.352 161.712 137.214C165.221 138.132 164.63 135.709 160.712 133.116C158.521 131.666 156.728 130.149 156.728 129.744C156.728 129.339 153.833 125.907 150.295 122.118C144.267 115.661 143.544 115.197 138.801 114.741C136.016 114.473 133.174 114.718 132.483 115.283C131.044 116.463 125.063 118.165 119.228 119.055C115.182 119.672 113.4 121.098 108.552 127.594C106.894 129.816 104.129 131.847 101.282 132.934C96.8754 134.617 96.5044 134.614 92.2114 132.849C89.7504 131.836 87.7345 130.611 87.7325 130.125C87.7305 129.64 86.9294 128.515 85.9524 127.625C84.9764 126.736 83.4524 124.865 82.5674 123.468C80.5524 120.289 78.4424 110.416 79.3004 108.181C80.1454 105.979 84.1854 106.043 86.4394 108.295C89.7944 111.648 99.6494 115.773 105.384 116.225C113.757 116.886 114.856 116.304 118.228 109.424C121.588 102.567 131.393 91.8428 136.728 89.1898C138.653 88.2328 143.786 87.0908 148.135 86.6528C156.006 85.8588 156.066 85.8708 161.017 89.2018L165.991 92.5498L165.341 86.7788C164.207 76.7048 164.598 57.3238 166.124 48.0078C169.12 29.7188 169.69 27.3058 171.835 23.8338C174.966 18.7678 178.199 15.5078 180.093 15.5078C180.992 15.5078 181.728 14.8328 181.728 14.0078C181.728 13.1828 182.178 12.5078 182.728 12.5078C184.412 12.5078 183.837 16.5288 182.054 17.2128C181.134 17.5658 178.77 19.4658 176.801 21.4348C173.474 24.7618 173.03 25.9668 170.503 38.5108C168.037 50.7538 165.903 68.5238 166.603 70.9888C166.757 71.5278 167.054 75.3528 167.263 79.4888C167.621 86.5298 168.745 97.3998 170.316 109.008C171.524 117.93 179.738 139.832 181.293 138.277C181.529 138.04 181.246 135.27 180.664 132.121C180.082 128.972 179.791 125.184 180.017 123.702C180.383 121.302 180.445 121.369 180.578 124.311C180.886 131.091 183.85 141.503 185.764 142.527C187.511 143.462 187.6 143.177 187.092 138.269C186.792 135.375 186.16 131.658 185.687 130.008C183.084 120.922 182.463 109.088 183.066 80.0648C183.687 50.1338 184.43 41.2668 187.247 30.1768C189.17 22.6078 189.163 17.6118 187.228 16.8698C185.582 16.2378 185.135 12.5078 186.705 12.5078C187.242 12.5078 188.419 13.6328 189.32 15.0078C190.759 17.2038 193.65 18.8088 192.336 16.6818C191.66 15.5888 198.152 9.50782 199.996 9.50782C200.788 9.50782 202.65 10.6328 204.133 12.0078C207.419 15.0528 207.509 15.0598 207.908 12.2908C208.084 11.0718 209.404 9.4168 210.841 8.6128C214.354 6.6478 219.008 8.53584 221.052 12.7568C223.323 17.4478 221.89 19.4778 219.392 15.1078C218.264 13.1348 216.592 11.2818 215.676 10.9908C213.7 10.3638 210.728 11.3458 210.728 12.6258C210.728 13.1228 209.869 15.4368 208.82 17.7688C207.77 20.0998 206.626 24.4828 206.277 27.5078C205.311 35.8858 202.454 47.4569 201.497 46.8649C201.029 46.5759 200.869 45.5898 201.141 44.6738C201.413 43.7578 202.329 38.2828 203.177 32.5078C204.024 26.7328 204.936 20.9078 205.203 19.5638C205.725 16.9318 203.371 13.5078 201.038 13.5078C196.218 13.5078 191.746 21.1088 189.1 33.8018C188.29 37.6848 187.394 41.2388 187.109 41.7008C185.601 44.1398 184.648 105.668 185.888 120.508C186.233 124.633 187.032 129.327 187.665 130.938C188.298 132.55 189.074 135.925 189.39 138.438C189.99 143.219 193.394 149.489 195.394 149.501C196.036 149.505 197.146 150.83 197.861 152.446C198.957 154.922 203.34 158.239 204.27 157.295C204.425 157.137 203.695 152.958 202.648 148.008C200.973 140.095 198.095 118.045 197.916 111.758C197.881 110.521 198.266 109.508 198.771 109.508C199.828 109.508 201.149 113.993 200.448 115.201C200.191 115.645 200.398 119.158 200.907 123.008C201.417 126.858 201.966 131.358 202.125 133.008C202.285 134.658 203.434 140.283 204.678 145.508C205.922 150.733 206.893 156.073 206.835 157.374C206.748 159.357 207.096 159.643 208.98 159.138C210.216 158.806 211.581 158.529 212.013 158.522C212.445 158.514 212.356 157.681 211.815 156.67C210.87 154.906 210.447 152.149 207.187 126.546C204.485 105.317 205.921 70.0918 210.165 53.5078C211.502 48.2828 212.626 44.9349 212.662 46.0679C212.698 47.1999 211.821 51.7129 210.713 56.0949C206.479 72.8389 205.98 109.045 209.611 136.008C211.898 152.997 212.953 158.162 214.05 157.758C214.423 157.62 215.372 157.508 216.158 157.508C217.279 157.508 217.398 156.844 216.707 154.436C216.223 152.746 215.074 145.208 214.155 137.686C211.945 119.585 212.851 73.7259 215.799 54.5429C218.414 37.5259 219.705 30.3548 220.336 29.3328C220.628 28.8608 221.08 27.2948 221.342 25.8518C221.604 24.4088 222.542 21.6038 223.427 19.6188C224.313 17.6328 224.973 15.6858 224.894 15.2928C224.815 14.8988 225.156 13.5108 225.652 12.2078C226.367 10.3268 227.344 9.80879 230.388 9.69379C233.995 9.55879 235.368 8.60681 237.632 4.67481C238.242 3.61681 239.241 3.5688 242.48 4.4408C246.005 5.3898 247.022 5.26681 249.954 3.53681C252.541 2.01081 254.641 1.6258 258.788 1.9198C261.78 2.1318 264.678 2.02582 265.228 1.68482C268.726 -0.486182 274.087 -0.567166 278.122 1.48883ZM268.211 5.08283L264.892 6.65784L268.734 13.8328C272.412 20.7008 277.179 35.8768 278.121 43.7168C278.366 45.7558 278.818 48.2308 279.126 49.2168C280.429 53.3958 281.036 65.4868 281.071 88.0078C281.11 113.566 279.909 126.381 276.673 134.892C275.604 137.706 274.719 140.683 274.706 141.508C274.694 142.333 273.804 144.133 272.728 145.508C270.22 148.715 270.09 151.009 272.478 149.934C273.44 149.501 275.762 149.11 277.637 149.065C280.661 148.994 281.247 148.512 282.824 144.798C285.014 139.641 288.007 128.081 290.408 115.508C292.545 104.314 292.906 66.8798 290.944 60.0078C290.316 57.8078 289.58 52.1828 289.308 47.5078L288.815 39.0078L290.212 48.0078C295.25 80.4618 294.496 110.682 288.122 131.758C287.831 132.721 288.021 133.508 288.544 133.508C289.421 133.508 290.531 130.9 290.319 129.339C290.269 128.97 291.184 127.62 292.353 126.339C295.615 122.762 296.536 120.463 299.286 109.052C303.601 91.1487 304.578 61.4058 301.346 46.4038C297.545 28.7638 288.94 12.9628 279.228 5.78785C275.651 3.14485 272.693 2.95583 268.211 5.08283ZM251.877 5.60584C248.294 6.85484 247.978 8.21383 250.478 11.6298C253.225 15.3838 254.728 18.3478 254.728 20.0078C254.728 20.8478 255.145 22.3168 255.655 23.2718C257.129 26.0318 258.463 29.9998 259.098 33.5078C259.247 34.3328 259.64 35.6828 259.971 36.5078C261.15 39.4468 262.785 48.1088 263.369 54.5078C264.256 64.2238 264.374 110.175 263.529 116.626C263.124 119.715 262.598 124.323 262.36 126.864C261.925 131.529 259.556 138.521 255.069 148.389L252.622 153.769L254.925 153.152C256.192 152.813 257.983 152.529 258.907 152.522C259.83 152.514 261.292 151.801 262.157 150.937C263.021 150.072 263.728 149.847 263.728 150.437C263.728 151.026 264.403 151.508 265.228 151.508C266.053 151.508 266.728 151.09 266.728 150.579C266.728 150.069 267.345 149.034 268.098 148.281C270.229 146.149 272.488 141.306 273.254 137.223C273.637 135.18 274.278 133.508 274.679 133.508C275.383 133.508 276.731 126.482 278.421 114.008C279.577 105.479 279.139 65.6168 277.778 55.5078C277.149 50.8328 275.722 43.4078 274.607 39.0078C273.492 34.6078 272.119 29.0608 271.557 26.6818C270.994 24.3028 269.027 19.6898 267.185 16.4318C265.343 13.1738 264.037 10.5078 264.282 10.5078C264.527 10.5078 263.716 9.49482 262.478 8.25782C261.24 7.02082 259.891 6.11982 259.478 6.25782C259.065 6.39582 258.728 6.05782 258.728 5.50782C258.728 4.19582 255.802 4.23784 251.877 5.60584ZM239.662 7.54279C237.348 8.78179 237.24 11.1288 239.185 17.9198C244.153 35.2628 244.037 33.9518 245.188 86.0078C245.468 98.6578 245.972 112.327 246.309 116.385C247.083 125.71 245.139 141.814 242.083 151.386C240.788 155.443 239.728 158.931 239.728 159.136C239.728 160.555 244.796 158.94 247.436 156.68C252.655 152.21 253.228 146.062 253.228 94.5078C253.228 70.0328 253.537 53.3828 253.916 57.5078C254.766 66.7798 254.997 133.36 254.196 138.363C253.875 140.368 253.41 143.133 253.162 144.508L252.712 147.008L254.183 144.508C256.085 141.278 259.476 131.005 260.132 126.488C262.017 113.52 262.706 75.5018 261.4 56.5078C260.78 47.4878 255.008 25.2488 251.205 17.2278C249.698 14.0478 247.062 10.3408 245.347 8.98883C241.711 6.12183 242.122 6.22679 239.662 7.54279ZM228.751 14.5078C226.815 14.5078 226.113 16.7588 221.269 38.5078C216.189 61.3128 216.167 61.4838 215.211 85.5078C214.013 115.635 214.665 128.571 218.402 148.758C219.917 156.942 220.18 157.508 222.476 157.508C224.907 157.508 224.926 157.438 224.381 150.258C223.957 144.667 224.035 143.924 224.722 147.008C225.212 149.208 225.639 152.471 225.67 154.258C225.729 157.551 226.431 157.964 230.228 156.942C232.173 156.419 232.231 155.507 232.345 123.706C232.498 81.2288 233.069 55.5259 233.861 55.5159C235.155 55.4999 235.293 59.4038 234.55 75.0078C233.435 98.3888 233.094 152.64 234.045 155.258C235.464 159.163 237.271 157.727 239.709 150.758C244.415 137.302 244.607 133.912 243.425 85.0078C242.555 49.0158 242.082 41.8628 239.818 30.4208C237.084 16.6028 235.242 12.7888 231.896 14.0188C231.164 14.2878 229.749 14.5078 228.751 14.5078ZM229.725 32.7578C229.29 34.5458 228.148 39.1578 227.187 43.0078C226.227 46.8578 225.122 53.1578 224.731 57.0078L224.021 64.0078L223.875 58.3208C223.794 55.1938 224.678 48.8938 225.838 44.3208C226.999 39.7488 228.173 34.5458 228.448 32.7578C228.722 30.9698 229.3 29.5078 229.732 29.5078C230.164 29.5078 230.161 30.9698 229.725 32.7578ZM270.632 41.5078C270.707 42.3328 271.211 45.9328 271.752 49.5078C272.293 53.0828 272.73 66.2069 272.724 78.6729C272.713 97.5619 272.293 104.226 270.2 118.673C267.167 139.607 266.11 145.084 264.673 147.31C263.712 148.799 263.639 148.806 264.08 147.365C264.745 145.192 267.341 130.789 268.651 122.008C269.225 118.158 270.152 112.046 270.711 108.426C272.057 99.7158 272.016 59.2458 270.653 50.4598C270.061 46.6478 269.784 42.7368 270.037 41.7688C270.367 40.5028 270.534 40.4298 270.632 41.5078ZM181.146 48.0078C179.112 58.2998 178.652 63.8988 178.516 80.0078C178.386 95.4818 178.254 96.8848 177.577 90.0078C176.555 79.6338 178.307 52.3798 180.265 48.1718L181.739 45.0078L181.146 48.0078ZM202.09 51.0078C201.773 51.8328 201.337 52.5078 201.121 52.5078C200.905 52.5078 200.728 51.8328 200.728 51.0078C200.728 50.1828 201.164 49.5078 201.697 49.5078C202.229 49.5078 202.406 50.1828 202.09 51.0078ZM201.304 60.7578C200.184 73.0718 199.797 81.4808 199.703 95.5078C199.635 105.786 199.354 108.549 198.525 107.086C197.54 105.347 198 71.2188 199.112 63.5078C199.31 62.1328 199.53 59.3208 199.6 57.2578C199.671 55.1958 200.231 53.5078 200.845 53.5078C201.627 53.5078 201.765 55.6898 201.304 60.7578ZM223.649 67.0908C223.601 68.2558 223.364 68.4928 223.045 67.6958C222.756 66.9738 222.792 66.1108 223.124 65.7788C223.456 65.4468 223.692 66.0368 223.649 67.0908ZM222.496 77.5078C222.496 79.4328 222.29 80.2208 222.039 79.2578C221.787 78.2948 221.787 76.7208 222.039 75.7578C222.29 74.7948 222.496 75.5828 222.496 77.5078ZM138.504 92.6758C135.602 93.7838 132.708 94.7239 132.073 94.7659C131.438 94.8069 131.123 95.3749 131.374 96.0269C131.624 96.6789 130.231 98.6148 128.278 100.33C126.326 102.044 124.728 103.717 124.728 104.047C124.728 104.377 123.378 106.61 121.728 109.008C120.078 111.406 118.728 113.85 118.728 114.438C118.728 115.663 121.025 115.878 122.145 114.758C122.557 114.346 123.195 113.973 123.561 113.93C126.237 113.619 132.774 112.133 135.418 111.234C140.555 109.488 145.357 112.396 155.904 123.643C160.993 129.069 165.626 133.508 166.201 133.508C166.776 133.508 167.809 134.408 168.496 135.508C169.262 136.735 170.804 137.496 172.486 137.478C174.741 137.453 174.932 137.275 173.564 136.476C171.822 135.46 168.387 125.795 167.385 119.091C166.487 113.083 162.201 105.241 158.758 103.305C155.211 101.311 154.733 99.4448 157.978 100.261C161.237 101.079 165.033 104.22 166.509 107.319C167.637 109.684 167.715 109.175 167.162 103.089C166.481 95.5978 166.198 95.1349 160.224 91.7299C156.805 89.7819 155.329 89.5398 150.004 90.0568C146.58 90.3898 141.405 91.5678 138.504 92.6758ZM325.228 93.5558C317.741 96.8888 303.728 106.668 303.728 108.559C303.728 109.617 313.128 108.373 313.878 107.216C315.144 105.263 330.772 107.117 336.396 109.888C341.883 112.591 342.61 113.3 343.238 116.558C343.456 117.69 344.78 121.481 346.181 124.983C347.582 128.484 348.728 132.4 348.728 133.685C348.728 134.97 349.147 137.481 349.658 139.265C350.171 141.054 350.199 142.508 349.719 142.508C349.242 142.508 348.56 140.37 348.205 137.758C347.85 135.146 346.972 131.658 346.255 130.008C345.537 128.358 344.611 125.889 344.197 124.521C342.849 120.075 338.636 114.692 335.243 113.082C328.648 109.953 316.438 112.02 310.478 117.275C307.977 119.48 308.289 120.258 311.978 121.022C319.501 122.58 330.388 129.136 332.736 133.522C333.265 134.512 334.167 139.526 334.74 144.665C335.591 152.296 335.511 154.913 334.301 158.932C332.943 163.444 332.961 163.963 334.524 165.163C335.461 165.883 337.394 166.235 338.82 165.945C341.574 165.386 352.253 170.346 357.684 174.708C359.26 175.973 361.601 177.844 362.888 178.865C364.175 179.886 366.674 181.348 368.442 182.113C371.604 183.482 371.729 183.433 376.289 179.001C381.675 173.766 383.891 173.017 391.38 173.897C396.554 174.505 396.84 174.425 396.301 172.525C395.986 171.416 395.477 169.623 395.171 168.541C394.865 167.46 395.076 164.076 395.641 161.022C397.137 152.929 396.02 151.153 387.857 148.641C384.211 147.52 379.773 146.322 377.995 145.979C371.586 144.745 361.884 134.56 361.77 128.946C361.678 124.445 357.607 111.631 354.164 105.008C348.016 93.1818 344.345 90.3838 335.728 90.9618C332.703 91.1648 327.978 92.3318 325.228 93.5558ZM221.907 101.51C222.084 106.462 221.891 110.512 221.478 110.51C221.065 110.509 220.728 106.458 220.728 101.508C220.728 96.5578 220.921 92.5078 221.157 92.5078C221.393 92.5078 221.73 96.5587 221.907 101.51ZM178.641 104.508C178.769 107.533 179.21 112.37 179.622 115.258C180.033 118.146 180.039 120.508 179.634 120.508C178.671 120.508 177.43 107.006 177.98 102.508C178.311 99.7998 178.461 100.253 178.641 104.508ZM221.57 115.508C221.57 116.883 221.343 117.446 221.066 116.758C220.788 116.071 220.788 114.946 221.066 114.258C221.343 113.571 221.57 114.133 221.57 115.508ZM108.728 120.508C108.728 121.058 109.178 121.508 109.728 121.508C110.278 121.508 110.728 121.058 110.728 120.508C110.728 119.958 110.278 119.508 109.728 119.508C109.178 119.508 108.728 119.958 108.728 120.508ZM100.187 123.441C100.549 124.028 101.325 124.508 101.909 124.508C102.573 124.508 102.497 123.934 101.708 122.984C100.336 121.331 99.1114 121.7 100.187 123.441ZM95.7284 122.508C95.7284 123.058 96.1514 123.508 96.6694 123.508C97.1874 123.508 97.8884 123.058 98.2284 122.508C98.5684 121.958 98.1444 121.508 97.2874 121.508C96.4304 121.508 95.7284 121.958 95.7284 122.508ZM87.7284 123.508C87.7284 124.058 88.2054 124.508 88.7874 124.508C89.3694 124.508 89.5684 124.058 89.2284 123.508C88.8884 122.958 88.4124 122.508 88.1694 122.508C87.9264 122.508 87.7284 122.958 87.7284 123.508ZM303.728 125.475C303.453 125.874 301.99 126.503 300.478 126.873C296.157 127.931 296.687 132.355 301.658 136.712C306.894 141.302 309.51 146.045 309.815 151.508C310.223 158.785 309.777 172.89 309.159 172.272C308.846 171.959 308.61 167.548 308.634 162.47C308.673 154.071 308.454 152.971 306.203 150.296C304.842 148.678 303.728 146.939 303.728 146.431C303.728 144.396 296.128 145.551 292.21 148.182C286.376 152.1 285.386 153.947 288.58 154.961C290.967 155.719 295.321 163.729 296.706 169.911C297.58 173.811 297.467 175.903 296.114 180.87C295.195 184.246 294.148 189.641 293.789 192.86C293.177 198.333 293.284 198.769 295.431 199.585C296.695 200.066 297.728 201.129 297.728 201.948C297.728 203.415 301.514 206.135 302.978 205.72C303.391 205.604 303.728 205.906 303.728 206.392C303.728 206.878 306.315 208.268 309.478 209.48C312.641 210.692 316.245 212.086 317.487 212.579C318.73 213.071 324.805 213.767 330.987 214.126C337.17 214.485 342.678 215.103 343.228 215.499C343.778 215.895 345.281 216.478 346.569 216.794C348.672 217.31 348.844 217.106 348.261 214.785C347.267 210.824 341.894 203.578 338.378 201.456C326.506 194.293 322.528 189.614 322.528 182.812C322.528 180.789 324.434 175.486 327.219 169.764C332.731 158.434 333.825 152.857 332.551 142.572C331.807 136.561 331.082 134.451 329.018 132.294C327.59 130.801 326.041 129.815 325.575 130.103C325.109 130.39 324.728 130.184 324.728 129.645C324.728 129.105 323.153 128.143 321.228 127.508C319.303 126.873 317.728 125.971 317.728 125.504C317.728 125.037 316.94 124.436 315.978 124.168C313.709 123.538 304.378 124.533 303.728 125.475ZM221.496 129.508C221.496 131.433 221.29 132.221 221.039 131.258C220.787 130.295 220.787 128.721 221.039 127.758C221.29 126.795 221.496 127.583 221.496 129.508ZM222.496 136.508C222.496 138.433 222.29 139.221 222.039 138.258C221.787 137.295 221.787 135.721 222.039 134.758C222.29 133.795 222.496 134.583 222.496 136.508ZM296.728 136.508C296.728 137.058 297.178 137.508 297.728 137.508C298.278 137.508 298.728 137.058 298.728 136.508C298.728 135.958 298.278 135.508 297.728 135.508C297.178 135.508 296.728 135.958 296.728 136.508ZM155.728 140.987C153.253 141.414 148.753 143.066 145.728 144.66C140.061 147.646 129.74 156.789 129.712 158.847C129.704 159.486 128.016 161.873 125.962 164.152C123.315 167.09 121.136 168.486 118.478 168.948C116.415 169.306 114.728 170.028 114.728 170.553C114.728 171.078 114.242 171.508 113.647 171.508C111.42 171.508 101.597 178.861 100.191 181.58C99.3864 183.136 98.7284 185.829 98.7284 187.565C98.7284 190.181 99.0284 190.598 100.478 189.997C108.3 186.757 111.79 186.722 123.228 189.765C128.279 191.11 133.349 190.75 137.215 188.774C141.244 186.715 147.579 181.706 150.877 177.972C152.352 176.302 154.835 174.278 156.394 173.474C157.952 172.669 159.453 171.785 159.728 171.51C162.304 168.925 167.63 166.475 174.728 164.61C185.641 161.741 191.41 159.596 192.836 157.878C193.719 156.814 193.611 156.508 192.35 156.508C191.458 156.508 190.728 156.076 190.728 155.548C190.728 155.02 188.815 154.044 186.478 153.38C184.141 152.715 181.882 151.878 181.458 151.52C180.299 150.539 170.458 151.343 164.438 152.911C159.101 154.301 147.628 161.064 142.478 165.854C140.636 167.568 139.728 167.944 139.728 166.992C139.728 164.451 156.309 153.236 162.551 151.556C164.802 150.95 166.914 150.016 167.245 149.481C167.575 148.946 169.057 148.498 170.537 148.486C173.965 148.457 178.638 145.028 177.207 143.591C175.96 142.339 164.995 139.713 162.228 140.003C161.128 140.118 158.203 140.561 155.728 140.987ZM257.999 156.112C258.331 156.444 259.194 156.48 259.915 156.191C260.713 155.872 260.476 155.635 259.311 155.587C258.257 155.544 257.667 155.78 257.999 156.112ZM179.861 168.419C175.778 170.346 174.107 172.734 173.151 178.008C172.376 182.283 169.094 190.627 167.85 191.488C166.577 192.367 160.717 207.864 160.723 210.334C160.73 213.508 173.604 230.399 176.077 230.48C176.544 230.495 178.839 232.533 181.177 235.008C183.515 237.483 185.714 239.508 186.064 239.508C186.415 239.508 187.449 237.821 188.363 235.758C189.574 233.024 190.088 228.561 190.258 219.283C190.387 212.284 191.064 203.509 191.763 199.783C193.037 192.993 193.955 191.206 201.04 181.707C203.136 178.897 204.784 176.28 204.7 175.892C204.617 175.505 205.17 174.84 205.929 174.415C207.611 173.474 208.206 166.922 206.696 165.988C203.892 164.255 191.641 176.441 190.088 182.508C188.981 186.828 186.734 190.508 185.202 190.508C183.369 190.508 183.336 189.523 185.083 186.981C185.829 185.896 187.402 182.199 188.579 178.766C189.756 175.333 192.296 170.329 194.224 167.647C199.765 159.934 198.985 159.014 190.478 163.234C186.49 165.212 181.713 167.545 179.861 168.419ZM234.243 165.508C233.519 165.508 231.934 167.188 230.723 169.241C228.648 172.758 228.599 173.294 229.874 178.491C230.735 182 231.216 189.831 231.196 200.008C231.17 213.167 230.855 216.629 229.422 219.508C226.737 224.903 222.327 230.804 221.911 229.558C221.707 228.944 221.973 227.893 222.503 227.224C223.033 226.555 224.035 224.208 224.728 222.008C225.421 219.808 226.35 217.548 226.792 216.986C228.221 215.167 228.466 198.233 227.184 189.931C226.497 185.489 225.02 179.843 223.9 177.386C221.661 172.471 216.988 167.229 215.607 168.083C215.124 168.382 214.728 168.149 214.728 167.567C214.728 166.985 213.665 166.508 212.366 166.508C210.203 166.508 209.951 167.033 209.374 172.758C209.015 176.315 209.36 183.958 210.173 190.493C211.748 203.154 211.293 206.986 206.356 222.654C203.375 232.114 203.942 236.266 209.703 247.202C211.917 251.404 213.728 255.892 213.728 257.175C213.728 261.49 215.53 259.556 215.981 254.758C216.628 247.872 218.62 243.659 223.901 238.008C228.277 233.326 229.588 231.839 233.955 226.608C234.905 225.47 235.975 223.37 236.334 221.943C236.692 220.515 237.602 219.11 238.357 218.82C239.111 218.531 239.728 217.662 239.728 216.89C239.728 216.118 240.603 213.579 241.672 211.247C242.741 208.916 244.071 204.45 244.626 201.323C245.56 196.065 245.274 173.78 244.209 168.868C243.724 166.632 236.513 162.937 235.895 164.608C235.711 165.103 234.968 165.508 234.243 165.508ZM137.915 168.191C137.194 168.48 136.331 168.444 135.999 168.112C135.667 167.78 136.257 167.544 137.311 167.587C138.476 167.635 138.713 167.872 137.915 168.191ZM248.728 192.567C248.728 193.085 249.178 193.508 249.728 193.508C250.278 193.508 250.728 192.806 250.728 191.949C250.728 191.092 250.278 190.668 249.728 191.008C249.178 191.348 248.728 192.049 248.728 192.567ZM255.728 210.508C255.728 211.058 256.205 211.508 256.787 211.508C257.369 211.508 257.568 211.058 257.228 210.508C256.888 209.958 256.412 209.508 256.169 209.508C255.926 209.508 255.728 209.958 255.728 210.508ZM247.915 227.446C247.665 228.196 248.04 228.571 248.79 228.321C249.512 228.08 250.3 227.292 250.54 226.571C250.79 225.821 250.415 225.446 249.665 225.696C248.944 225.936 248.156 226.724 247.915 227.446ZM250.728 274.949C250.728 275.192 251.178 275.668 251.728 276.008C252.278 276.348 252.728 276.149 252.728 275.567C252.728 274.985 252.278 274.508 251.728 274.508C251.178 274.508 250.728 274.706 250.728 274.949ZM242.728 343.567C242.728 344.149 243.178 344.348 243.728 344.008C244.278 343.668 244.728 343.867 244.728 344.449C244.728 345.031 244.32 345.508 243.822 345.508C243.323 345.508 243.151 346.408 243.438 347.508C243.726 348.608 244.542 349.508 245.251 349.508C246.44 349.508 246.417 347.862 245.17 343.758C244.709 342.24 242.728 342.085 242.728 343.567ZM58.3034 369.951C58.6404 371.295 58.5794 372.939 58.1684 373.606C57.7294 374.315 57.8385 374.558 58.4305 374.192C59.4515 373.561 68.2004 390.922 68.0374 393.258C67.9894 393.946 68.3774 394.508 68.8984 394.508C69.4194 394.508 69.5684 394.958 69.2284 395.508C68.8884 396.058 69.2184 396.508 69.9614 396.508C70.7044 396.508 73.2964 398.53 75.7204 401C78.6684 404.004 81.3064 405.704 83.6794 406.132C85.6314 406.483 87.6144 406.993 88.0874 407.265C88.5594 407.538 96.4344 407.864 105.587 407.99C124.113 408.246 138.198 409.561 141.228 411.318C142.328 411.956 145.928 413.353 149.228 414.424C154.853 416.248 173.41 424.419 176.728 426.532C177.553 427.057 180.019 428.454 182.208 429.635C188.007 432.765 193.765 437.639 193.044 438.806C192.689 439.38 192.916 439.51 193.568 439.107C194.212 438.709 196.148 439.738 197.973 441.448C199.763 443.126 201.56 444.501 201.967 444.503C203.692 444.514 206.728 448.126 206.728 450.167C206.728 452.14 206.345 452.32 203.228 451.814C201.135 451.475 199.728 451.658 199.728 452.271C199.728 453.687 194.177 459.508 192.827 459.508C192.222 459.508 191.728 459.928 191.728 460.441C191.728 461.846 187.981 462.749 186.225 461.766C184.988 461.074 185.431 460.479 188.455 458.771C190.53 457.599 193.908 454.621 195.961 452.153L199.695 447.667L194.461 443.351C191.583 440.977 189.003 438.746 188.728 438.392C188.453 438.038 184.266 435.413 179.424 432.558C169.346 426.616 156.733 420.65 148.728 418.038C145.703 417.051 142.766 415.881 142.201 415.439C139.606 413.404 120.481 411.374 104.228 411.408C91.8654 411.433 86.0004 411.04 82.7284 409.968C77.2974 408.188 70.3695 401.99 71.0215 399.496C71.3595 398.201 71.0004 397.886 69.6014 398.251C68.3724 398.573 67.7284 398.214 67.7284 397.208C67.7284 396.365 67.3534 395.525 66.8944 395.341C65.7924 394.901 57.7284 378.67 57.7284 376.892C57.7284 376.131 57.2784 375.508 56.7284 375.508C56.1784 375.508 55.7284 376.083 55.7284 376.786C55.7284 377.489 54.8284 378.834 53.7284 379.776C52.6284 380.718 51.7284 382.188 51.7284 383.044C51.7284 383.9 50.6034 386.713 49.2284 389.296C47.8534 391.879 46.7284 394.474 46.7284 395.063C46.7284 395.652 45.6504 398.368 44.3334 401.099C37.1454 415.998 36.1934 429.211 41.3264 442.824C42.1174 444.923 43.0364 449.873 43.3674 453.824C43.8884 460.039 43.5954 462.087 41.2014 469.008C38.6494 476.383 38.4074 478.415 38.0994 495.008C37.9154 504.908 37.5204 514.423 37.2214 516.153C36.8534 518.28 34.4854 521.514 29.9004 526.153C22.6274 533.511 18.2984 539.184 12.0444 549.557C7.3344 557.37 6.75042 558.791 6.10342 564.007C5.83042 566.208 5.3574 568.683 5.0524 569.508C4.7464 570.333 4.31945 573.629 4.10245 576.833L3.7084 582.658L6.5574 580.63C8.1244 579.514 9.98342 577.905 10.6894 577.055C11.3954 576.204 12.7924 575.508 13.7934 575.508C14.7954 575.508 17.1925 574.577 19.1205 573.439C21.9825 571.751 23.5104 571.502 27.4274 572.088C34.7784 573.186 42.2794 576.065 41.9074 577.644C41.6734 578.634 41.8904 578.709 42.6994 577.916C43.5054 577.125 45.2524 577.203 49.0204 578.199C52.8064 579.199 57.2624 579.394 65.3374 578.914C74.3144 578.38 77.4034 578.571 81.4324 579.91C94.0044 584.086 97.4794 587.288 101.317 598.236C104.436 607.135 104.543 609.111 102.031 611.413C98.9734 614.214 91.0314 618.478 90.2764 617.723C89.8834 617.33 89.7114 617.49 89.8954 618.078C90.0784 618.667 88.1485 621.504 85.6075 624.384C83.0655 627.263 79.9574 631.619 78.6994 634.064C77.4424 636.508 76.0344 638.508 75.5714 638.508C75.1074 638.508 74.7284 639.002 74.7284 639.607C74.7284 640.806 73.4474 643.807 67.6914 656.095C65.6084 660.542 63.6334 665.883 63.3034 667.961C62.9724 670.04 62.4444 672.159 62.1284 672.669C61.8134 673.18 61.5774 677.515 61.6054 682.303C61.6384 688.016 60.9694 693.545 59.6584 698.391C58.5604 702.452 57.7994 705.912 57.9684 706.081C58.5404 706.654 66.6534 700.014 66.6914 698.942C66.7394 697.557 73.3505 693.911 77.3445 693.067C81.5815 692.171 115.508 691.954 116.371 692.818C116.751 693.197 116.199 693.575 115.145 693.656C111.321 693.951 110.201 694.142 108.728 694.75C107.903 695.09 104.303 695.344 100.728 695.315C89.9934 695.226 75.3824 696.509 72.8994 697.758C70.5424 698.944 63.3774 705.753 58.6454 711.303C55.4074 715.102 53.2945 714.215 54.0815 709.388C55.1265 702.975 56.8444 697.001 58.2754 694.806C59.3624 693.139 59.5574 690.787 59.0784 685.116C58.0314 672.732 60.4094 664.474 71.7834 641.008C76.0074 632.292 82.2194 623.17 87.0294 618.616C92.4624 613.475 96.2984 610.508 97.5134 610.508C98.0474 610.508 99.0474 609.828 99.7374 608.997C100.752 607.774 100.662 606.582 99.2654 602.747C94.6054 589.952 91.6734 587.071 80.1414 583.959C73.8724 582.267 71.2994 582.054 65.3884 582.739C54.6054 583.989 46.1204 582.509 37.4764 577.87C35.9624 577.057 34.2954 576.658 33.7704 576.982C33.2454 577.306 31.2104 576.901 29.2484 576.081C25.3324 574.445 24.9434 574.519 16.2074 578.588C10.2274 581.373 6.56944 584.464 5.43344 587.693C5.10844 588.619 3.92742 589.867 2.80942 590.465C1.06042 591.4 0.691454 591.209 0.159454 589.089C-0.180546 587.734 0.0403977 584.462 0.651398 581.817C1.7654 576.991 1.9164 575.968 3.2294 564.316C3.7834 559.394 4.90544 556.407 8.33444 550.723C10.7514 546.716 12.7284 543.103 12.7284 542.695C12.7284 542.287 13.6284 541.182 14.7284 540.24C15.8284 539.298 16.7284 537.848 16.7284 537.018C16.7284 536.187 17.0814 535.508 17.5124 535.508C17.9444 535.508 19.0404 534.271 19.9494 532.758C20.8584 531.245 24.5554 526.954 28.1644 523.222C33.3724 517.838 34.7454 515.772 34.8084 513.222C34.8524 511.454 35.0034 502.133 35.1434 492.508C35.3624 477.491 35.6924 474.293 37.4654 469.971C41.1974 460.873 41.2674 455.348 37.8034 443.396C36.1124 437.56 34.7284 430.78 34.7284 428.33C34.7284 416.231 39.2844 402.117 51.2144 377.258C53.2524 373.01 54.5294 371.487 56.1014 371.429C57.2714 371.386 57.6654 371.123 56.9784 370.846C55.5054 370.251 55.2844 367.508 56.7094 367.508C57.2484 367.508 57.9664 368.607 58.3034 369.951ZM129.066 436.282C130.306 438.233 128.87 443.083 126.439 445.154C124.36 446.925 124.326 446.926 125.69 445.171C126.474 444.161 127.373 441.461 127.686 439.171C128.05 436.511 128.548 435.468 129.066 436.282ZM82.5454 453.725C83.2624 454.442 83.7284 454.501 83.7284 453.875C83.7284 452.54 82.5454 451.357 81.8784 452.025C81.5944 452.309 81.8944 453.074 82.5454 453.725ZM317.066 497.758C317.343 498.446 317.57 497.883 317.57 496.508C317.57 495.133 317.343 494.571 317.066 495.258C316.788 495.946 316.788 497.071 317.066 497.758ZM326.763 512.258C326.783 512.67 327.421 514.132 328.181 515.505C329.244 517.426 329.293 518.336 328.395 519.447C327.5 520.555 327.506 520.725 328.42 520.177C329.233 519.689 330.148 521.375 331.302 525.485C332.231 528.798 333.413 531.508 333.927 531.508C334.954 531.508 334.743 530.635 330.968 519.258C329.554 514.995 328.022 511.508 327.563 511.508C327.104 511.508 326.744 511.846 326.763 512.258ZM72.7284 516.294C72.7284 516.727 74.5384 519.089 76.7504 521.544C81.0504 526.316 88.1205 537.449 87.3445 538.226C87.0865 538.483 86.1064 537.19 85.1664 535.351C84.2274 533.512 80.8184 528.687 77.5934 524.629C72.2574 517.915 70.8414 515.508 72.2284 515.508C72.5034 515.508 72.7284 515.862 72.7284 516.294ZM334.366 534.008C334.683 534.833 335.33 535.508 335.804 535.508C336.277 535.508 336.406 534.833 336.09 534.008C335.773 533.183 335.126 532.508 334.652 532.508C334.179 532.508 334.05 533.183 334.366 534.008ZM187.333 542.758C188.304 546.891 188.052 548.764 185.632 555.377C183.98 559.891 183.911 560.652 185.198 560.158C186.039 559.835 186.728 559.898 186.728 560.299C186.728 561.36 182.634 563.748 181.964 563.077C181.651 562.764 182.01 562.508 182.761 562.508C183.771 562.508 183.835 562.215 183.007 561.387C182.179 560.559 182.454 559.187 184.057 556.137C185.623 553.159 186.223 550.266 186.209 545.758C186.198 542.321 186.275 539.508 186.379 539.508C186.484 539.508 186.913 540.971 187.333 542.758ZM90.6075 542.813C92.5415 545.941 93.3384 546.329 100.253 547.512C104.399 548.222 108.059 549.234 108.385 549.762C108.743 550.341 107.837 550.474 106.103 550.098C98.4704 548.443 88.4554 547.898 79.7864 548.665C61.1684 550.312 55.5475 551.419 50.0424 554.526C44.2404 557.801 43.7284 557.964 43.7284 556.537C43.7284 555.043 53.5004 550.764 60.7374 549.089C64.3074 548.263 72.7064 547.278 79.4004 546.902L91.5734 546.217L89.4714 543.375C88.3164 541.812 87.6244 540.278 87.9354 539.968C88.2464 539.657 89.4485 540.937 90.6075 542.813ZM338.627 549.57C339.551 551.883 339.604 551.897 339.665 549.84C339.699 548.647 339.404 546.847 339.008 545.84C338.415 544.333 338.231 544.285 337.97 545.57C337.796 546.43 338.092 548.23 338.627 549.57ZM135.728 546.854C135.728 547.045 136.431 548.611 137.291 550.334C139.619 555 140.811 555.13 139.001 550.52C138.134 548.314 137.043 546.508 136.576 546.508C136.11 546.508 135.728 546.664 135.728 546.854ZM113.728 551.231C123.687 554.984 138.436 564.508 134.288 564.508C133.492 564.508 132.253 563.703 131.535 562.72C129.889 560.468 124.098 557.058 115.728 553.411C110.315 551.053 108.761 549.36 113.728 551.231ZM213.459 554.201C212.486 554.455 211.136 554.438 210.459 554.164C209.782 553.89 210.578 553.683 212.228 553.703C213.878 553.723 214.432 553.947 213.459 554.201ZM220.856 556.172C222.111 557.694 222.015 557.725 219.728 556.536C216.376 554.794 216.123 554.508 217.939 554.508C218.788 554.508 220.101 555.257 220.856 556.172ZM207.586 554.983C207.325 555.244 205.338 555.716 203.17 556.031C201.002 556.347 198.665 556.794 197.978 557.025C197.29 557.256 196.728 557.068 196.728 556.607C196.728 556.147 198.415 555.491 200.478 555.15C204.977 554.406 208.24 554.33 207.586 554.983ZM194.228 557.73C191.81 559.504 187.728 560.63 187.728 559.523C187.728 559.084 188.811 558.453 190.135 558.121C191.459 557.788 193.372 557.234 194.385 556.889C195.997 556.34 195.978 556.446 194.228 557.73ZM342.734 567.025C344.142 571.292 345.542 571.604 344.943 567.518C344.701 565.874 344.104 564.775 343.616 565.077C343.128 565.379 342.667 564.137 342.592 562.317C342.494 559.939 342.333 559.646 342.02 561.275C341.78 562.522 342.102 565.11 342.734 567.025ZM346.528 581.708C347.461 582.641 347.728 582.375 347.728 580.508C347.728 578.641 347.461 578.375 346.528 579.308C345.595 580.241 345.595 580.775 346.528 581.708ZM346.728 584.449C346.728 584.967 347.178 585.668 347.728 586.008C348.278 586.348 348.728 585.924 348.728 585.067C348.728 584.21 348.278 583.508 347.728 583.508C347.178 583.508 346.728 583.931 346.728 584.449ZM171.967 639.294C172.607 640.787 173.94 643.202 174.929 644.662C175.919 646.122 176.728 648.061 176.728 648.971C176.728 649.881 177.179 650.347 177.731 650.006C178.382 649.604 178.307 648.62 177.516 647.197C176.847 645.993 176.266 644.783 176.225 644.508C175.8 641.618 174.495 638.508 173.709 638.508C173.169 638.508 172.728 637.806 172.728 636.949C172.728 636.092 172.295 635.658 171.766 635.985C171.164 636.356 171.24 637.597 171.967 639.294ZM354.728 643.449C354.728 643.967 355.178 644.668 355.728 645.008C356.278 645.348 356.728 644.924 356.728 644.067C356.728 643.21 356.278 642.508 355.728 642.508C355.178 642.508 354.728 642.931 354.728 643.449ZM182.228 661.508C182.568 662.058 183.269 662.508 183.787 662.508C184.305 662.508 184.728 662.058 184.728 661.508C184.728 660.958 184.026 660.508 183.169 660.508C182.312 660.508 181.888 660.958 182.228 661.508ZM243.649 674.091C243.601 675.256 243.364 675.493 243.045 674.696C242.756 673.974 242.792 673.111 243.124 672.779C243.456 672.447 243.692 673.037 243.649 674.091ZM241.728 677.906C241.728 678.125 240.608 680.262 239.24 682.656C237.872 685.05 236.715 688.583 236.67 690.508C236.624 692.433 236.166 694.908 235.652 696.008C235.018 697.363 234.912 696.073 235.325 692.011C235.698 688.334 236.898 684.368 238.426 681.761C240.647 677.97 241.728 676.708 241.728 677.906ZM346.728 689.567C346.728 690.085 347.178 690.508 347.728 690.508C348.278 690.508 348.728 689.806 348.728 688.949C348.728 688.092 348.278 687.668 347.728 688.008C347.178 688.348 346.728 689.049 346.728 689.567ZM347.066 705.758C347.343 706.446 347.57 705.883 347.57 704.508C347.57 703.133 347.343 702.571 347.066 703.258C346.788 703.946 346.788 705.071 347.066 705.758ZM195.383 704.051C195.709 704.9 196.19 705.38 196.452 705.118C196.714 704.856 196.632 704.161 196.269 703.575C195.283 701.979 194.707 702.289 195.383 704.051ZM361.92 714.008C361.993 715.933 362.429 717.508 362.89 717.508C363.351 717.508 363.728 715.933 363.728 714.008C363.728 712.083 363.292 710.508 362.758 710.508C362.225 710.508 361.848 712.083 361.92 714.008ZM188.107 716.312C188.38 716.754 187.044 717.159 185.139 717.213C181.685 717.311 174.728 721.587 174.728 723.612C174.728 724.163 172.751 727.642 170.335 731.343C164.252 740.663 160.728 748.289 160.728 752.136C160.728 753.926 160.278 755.668 159.728 756.008C159.138 756.373 158.728 755.259 158.728 753.289C158.728 749.785 164.309 737.125 168.11 732.008C169.336 730.358 171.587 726.842 173.112 724.195C174.638 721.548 177.313 718.513 179.057 717.449C182.289 715.478 187.209 714.86 188.107 716.312ZM362.416 724.758C363.109 731.872 363.728 732.069 363.728 725.175C363.728 722.058 363.318 719.508 362.816 719.508C362.314 719.508 362.134 721.87 362.416 724.758ZM209.187 731.441C209.549 732.028 210.325 732.508 210.909 732.508C211.573 732.508 211.497 731.934 210.708 730.984C209.336 729.331 208.111 729.7 209.187 731.441ZM161.594 736.352C162.541 736.988 161.771 737.285 159.082 737.323C156.95 737.352 153.91 737.868 152.328 738.47C150.745 739.072 149.226 739.339 148.951 739.064C147.427 737.54 159.505 734.95 161.594 736.352ZM362.124 754.237C363.14 755.254 363.979 753.723 363.145 752.374C362.515 751.354 362.279 751.354 361.941 752.37C361.709 753.065 361.792 753.905 362.124 754.237ZM231.728 756.449C231.728 757.629 233.678 758.891 234.395 758.175C235.111 757.458 233.849 755.508 232.669 755.508C232.151 755.508 231.728 755.931 231.728 756.449ZM225.905 760.175C226.376 762.606 228.299 762.882 228.299 760.52C228.299 759.413 227.688 758.508 226.94 758.508C226.193 758.508 225.727 759.258 225.905 760.175ZM236.728 761.508C236.728 762.058 237.205 762.508 237.787 762.508C238.369 762.508 238.568 762.058 238.228 761.508C237.888 760.958 237.412 760.508 237.169 760.508C236.926 760.508 236.728 760.958 236.728 761.508ZM361.045 769.696C361.364 770.493 361.601 770.256 361.649 769.091C361.692 768.037 361.456 767.447 361.124 767.779C360.792 768.111 360.756 768.974 361.045 769.696ZM359.728 776.067C359.728 776.924 360.178 777.348 360.728 777.008C361.278 776.668 361.728 775.967 361.728 775.449C361.728 774.931 361.278 774.508 360.728 774.508C360.178 774.508 359.728 775.21 359.728 776.067ZM264.728 800.067C264.728 800.924 265.185 801.343 265.744 800.998C266.303 800.652 266.502 799.951 266.185 799.439C265.328 798.052 264.728 798.31 264.728 800.067ZM339.066 835.758C339.343 836.446 339.57 835.883 339.57 834.508C339.57 833.133 339.343 832.571 339.066 833.258C338.788 833.946 338.788 835.071 339.066 835.758ZM283.228 876.508C283.568 877.058 284.269 877.508 284.787 877.508C285.305 877.508 285.728 877.058 285.728 876.508C285.728 875.958 285.026 875.508 284.169 875.508C283.312 875.508 282.888 875.958 283.228 876.508ZM267.045 903.696C267.364 904.493 267.601 904.256 267.649 903.091C267.692 902.037 267.456 901.447 267.124 901.779C266.792 902.111 266.756 902.974 267.045 903.696ZM282.999 938.112C283.331 938.444 284.194 938.48 284.915 938.191C285.713 937.872 285.476 937.635 284.311 937.587C283.257 937.544 282.667 937.78 282.999 938.112Z" fill="black"/>
</svg>
