<svg width="331" height="958" viewBox="0 0 331 958" fill="none" xmlns="http://www.w3.org/2000/svg">
<path fill-rule="evenodd" clip-rule="evenodd" d="M74.5274 1.49978C60.3124 5.32178 49.6544 9.55885 40.5164 15.0229C33.7704 19.0559 26.7254 21.0318 18.4064 21.2238C9.48042 21.4288 10.1515 20.7859 11.7685 27.5899C11.9235 28.2389 14.6524 31.6139 17.8334 35.0899C21.0144 38.5659 24.4595 43.0368 25.4875 45.0258C26.5155 47.0158 28.4424 49.9408 29.7704 51.5258C33.5824 56.0818 36.1334 62.2288 38.4734 72.5028C42.7994 91.4918 39.6625 106.11 20.0385 158.41C16.7685 167.127 14.3065 176.179 13.7835 181.41C13.5635 183.61 13.1285 186.085 12.8165 186.91C11.9105 189.307 10.3914 211.578 10.4624 221.41C10.5394 232.068 12.1945 240.91 14.1115 240.91C14.8495 240.91 15.4524 240.01 15.4524 238.91C15.4524 237.81 15.8724 236.91 16.3854 236.91C16.8984 236.91 17.5865 236.063 17.9145 235.029C18.2435 233.994 19.3895 232.136 20.4615 230.9C21.5335 229.663 22.1254 228.19 21.7774 227.626C21.4284 227.062 21.6094 226.889 22.1784 227.241C22.7484 227.593 24.8084 226.614 26.7564 225.066C28.7054 223.517 33.0074 220.964 36.3184 219.392C39.6284 217.819 42.1714 216.264 41.9684 215.936C41.7654 215.607 42.3534 215.321 43.2754 215.3C44.1984 215.278 46.3714 214.931 48.1044 214.527C50.9944 213.855 51.8645 214.34 58.5385 220.352C62.5435 223.959 66.1974 226.91 66.6574 226.91C67.1184 226.91 67.8934 225.897 68.3804 224.66C74.1414 210.018 76.1994 207.547 84.8924 204.832C87.6754 203.964 91.5004 202.445 93.3924 201.458L96.8315 199.663L100.642 203.748C104.506 207.891 105.081 209.947 104.6 217.91C104.384 221.48 101.672 231.601 100.446 233.41C99.4905 234.821 96.3254 243.049 95.8954 245.24C95.3264 248.14 94.3994 251.244 93.4544 253.41C90.1434 261 87.9914 266.205 85.9784 271.499C81.9384 282.124 78.3204 289.141 71.7974 299.005C68.3074 304.282 65.4524 308.891 65.4524 309.245C65.4524 310.965 50.9564 330.486 43.0524 339.41C38.7174 344.305 38.3824 344.809 37.2294 348.182C36.6214 349.957 35.7924 351.635 35.3864 351.91C33.6394 353.092 29.1975 364.987 28.0285 371.612C26.4465 380.575 27.6084 381.525 33.3744 375.985C37.9184 371.619 40.8734 370.88 50.6774 371.661C55.5224 372.046 57.8595 371.817 59.0345 370.842C59.9315 370.097 61.6305 368.994 62.8095 368.391C63.9875 367.787 64.8865 366.51 64.8055 365.552C64.7245 364.595 65.1695 363.982 65.7955 364.191C66.4205 364.399 67.7565 363.521 68.7645 362.24C70.1085 360.532 71.6094 359.91 74.3914 359.91H78.1845L76.7585 366.082C75.9745 369.477 74.2065 374.93 72.8305 378.199C70.1675 384.526 70.2915 389.182 73.0235 385.469C73.8095 384.401 74.4524 382.544 74.4524 381.341C74.4524 380.139 75.0874 378.628 75.8644 377.983C76.6414 377.338 77.8114 374.471 78.4654 371.61C79.1194 368.75 80.5644 364.464 81.6784 362.085C84.2204 356.656 83.3645 355.661 76.0605 355.555C71.5555 355.49 70.0775 355.913 68.0025 357.863C66.6045 359.177 65.6625 360.453 65.9085 360.7C66.6675 361.459 58.3944 367.887 55.8294 368.53C54.4994 368.864 51.3954 368.63 48.9324 368.009C43.8894 366.74 36.2784 368.044 33.2024 370.706C31.6094 372.084 31.4524 372.029 31.4524 370.088C31.4524 367.065 35.7914 355.918 38.8604 351.056C40.2854 348.798 41.4524 346.542 41.4524 346.043C41.4524 345.544 43.9274 342.539 46.9524 339.365C49.9774 336.192 52.4524 333.237 52.4524 332.798C52.4524 332.36 53.4654 330.963 54.7024 329.694C57.5534 326.772 68.4524 310.438 68.4524 309.089C68.4524 308.532 68.7985 307.927 69.2225 307.743C70.5055 307.188 76.9045 296.9 81.2475 288.41C86.1055 278.915 92.9735 262.103 97.3835 248.91C99.1305 243.685 100.975 238.51 101.484 237.41C104.67 230.514 107.699 218.817 107.628 213.684C107.54 207.378 106.655 205.179 102.26 200.349C98.5474 196.268 96.3515 195.688 92.7795 197.844C91.2245 198.783 87.4774 200.4 84.4524 201.437C81.1154 202.582 77.4594 204.819 75.1564 207.126C71.5544 210.734 66.4524 219.368 66.4524 221.855C66.4524 223.538 64.3994 222.15 58.0264 216.16C52.4204 210.891 49.5084 209.858 45.6884 211.787C44.7334 212.269 39.6395 214.777 34.3685 217.36C25.3025 221.803 16.7064 228.813 15.2394 232.961C14.0884 236.213 13.3005 232.536 13.0285 222.646C12.8705 216.892 12.4435 211.704 12.0805 211.117C11.7175 210.529 11.8744 209.767 12.4314 209.423C12.9874 209.079 13.3954 207.361 13.3384 205.604C13.2814 203.847 13.7115 199.485 14.2945 195.91C14.8765 192.335 15.6345 186.769 15.9775 183.54C16.7745 176.044 23.7025 153.46 26.4465 149.41C26.8195 148.86 27.9294 145.71 28.9124 142.41C29.8964 139.11 31.2805 135.06 31.9885 133.41C33.3315 130.279 36.0514 121.638 38.9124 111.41C39.8364 108.11 41.2624 103.217 42.0824 100.538C45.9344 87.9469 40.5104 60.6899 31.9114 49.4239C30.0814 47.0259 27.9164 43.7928 27.0994 42.2368C26.2834 40.6818 24.0555 37.7228 22.1495 35.6598C20.2425 33.5978 18.8514 31.9098 19.0574 31.9098C19.2644 31.9098 18.6825 31.0328 17.7645 29.9608C16.8465 28.8888 15.6135 28.2478 15.0245 28.5348C14.4345 28.8228 14.7225 28.4259 15.6635 27.6529C16.7075 26.7949 19.3375 26.3119 22.4135 26.4129C25.1845 26.5039 27.4524 26.2529 27.4524 25.8559C27.4524 25.4579 28.9515 24.8508 30.7845 24.5078C32.6165 24.1638 36.7795 22.2408 40.0345 20.2338C43.2895 18.2268 48.5454 15.1638 51.7144 13.4268C54.8844 11.6888 57.1474 9.93879 56.7454 9.53579C56.3424 9.13379 56.7134 9.07278 57.5684 9.40078C58.4234 9.72878 61.1105 9.35177 63.5385 8.56277C75.5525 4.65577 82.3324 3.68779 93.7034 4.25479C119.15 5.52279 130.005 8.71882 149.875 20.7898C153.605 23.0558 156.834 24.9098 157.052 24.9098C158.661 24.9098 168.322 33.3318 174.952 40.5138C185.36 51.7888 201.567 67.9098 202.495 67.9098C202.895 67.9098 205.861 70.3718 209.087 73.3798C212.313 76.3888 215.352 78.8638 215.842 78.8798C216.331 78.8968 217.231 79.5278 217.842 80.2838C218.452 81.0388 222.056 83.3338 225.85 85.3828C233.633 89.5858 233.338 89.3838 239.452 94.6918C241.927 96.8408 246.652 100.035 249.952 101.789C253.252 103.544 257.904 106.764 260.289 108.945C262.673 111.126 265.061 112.91 265.597 112.91C267.653 112.91 265.285 114.788 262.441 115.413C260.797 115.774 259.452 116.494 259.452 117.014C259.452 118.203 255.337 119.791 249.262 120.945C242.258 122.275 232.479 127.1 227.856 131.506L223.76 135.41L223.094 150.41C222.245 169.516 223.79 180.943 228.301 188.91C230.014 191.935 232.563 196.562 233.967 199.193C236.989 204.857 244.107 214.344 248.106 218.039C254.773 224.2 262.147 227.975 274.452 231.529C279.127 232.879 285.327 235.092 288.229 236.447C291.132 237.802 293.839 238.91 294.244 238.91C294.65 238.91 296.761 239.863 298.935 241.028C301.109 242.194 304.977 243.768 307.531 244.526C311.695 245.763 312.126 246.164 311.697 248.408C311.024 251.929 314.195 251.786 315.081 248.255C316.075 244.297 314.526 242.772 306.881 240.179C303.07 238.887 298.827 237.438 297.452 236.959C296.077 236.481 292.702 234.978 289.952 233.621C284.581 230.97 276.135 227.91 274.188 227.91C272.25 227.91 258.982 222.657 258.619 221.746C258.435 221.286 257.49 220.91 256.517 220.91C253.089 220.91 243.099 209.492 235.86 197.3C226.702 181.874 225.303 176.481 225.401 156.958C225.441 148.957 225.66 141.51 225.887 140.41C226.113 139.31 226.333 138.096 226.375 137.712C226.514 136.445 231.158 131.91 232.317 131.91C232.941 131.91 233.452 131.449 233.452 130.885C233.452 129.771 236.201 128.466 243.952 125.902C247.059 124.874 248.836 123.741 248.646 122.91C248.404 121.853 248.643 121.824 249.784 122.77C251.851 124.486 259.575 123.133 261.509 120.717C262.407 119.594 264.837 118.534 267.259 118.209C270.383 117.79 271.452 117.198 271.452 115.885C271.452 114.917 270.777 113.865 269.952 113.548C269.127 113.232 268.45 112.396 268.447 111.691C268.444 110.987 265.407 108.391 261.697 105.923C257.987 103.454 254.4 100.909 253.724 100.266C253.049 99.6228 251.136 98.4948 249.474 97.7598C247.812 97.0238 246.452 96.0818 246.452 95.6658C246.452 95.2498 245.89 94.9078 245.202 94.9048C244.515 94.9028 242.53 93.5678 240.791 91.9378C239.053 90.3088 233.428 86.4318 228.291 83.3228C214.539 74.9988 200.202 63.3579 189.452 51.7879C178.777 40.2989 177.573 39.0708 174.761 36.8058C173.666 35.9228 172.136 34.3358 171.361 33.2788C166.742 26.9748 141.099 11.1308 127.952 6.45779C123.166 4.75679 99.4524 0.295826 99.4524 1.09683C99.4524 1.58283 98.5825 1.51485 97.5185 0.944848C94.7365 -0.544152 80.8854 -0.20922 74.5274 1.49978ZM136.513 52.6369C137.252 53.6119 138.609 55.3098 139.528 56.4098C140.448 57.5098 142.429 60.6598 143.931 63.4098C145.432 66.1598 147.026 68.8598 147.471 69.4098C150.013 72.5468 160.314 95.1128 160.938 98.9098C161.729 103.722 163.386 107.766 163.397 104.91C163.414 100.73 160.801 93.5578 154.91 81.6118C144.537 60.5758 139.701 52.6028 136.59 51.4088C135.387 50.9478 135.375 51.1359 136.513 52.6369ZM72.4854 53.5528C72.5484 55.1788 76.2774 58.9098 77.8394 58.9098C78.7014 58.9098 81.2604 61.2558 83.5264 64.1218C89.4834 71.6588 97.5244 80.8409 100.702 83.7359C102.215 85.1129 103.454 86.7289 103.457 87.3249C103.459 87.9219 104.988 90.0718 106.854 92.1038C108.72 94.1348 111.755 97.9499 113.599 100.58C115.443 103.211 117.739 106.246 118.702 107.325C119.665 108.404 120.452 109.684 120.452 110.168C120.452 110.653 121.802 113.012 123.452 115.41C125.102 117.808 126.452 120.252 126.452 120.84C126.452 121.429 126.95 121.91 127.559 121.91C128.168 121.91 128.436 121.31 128.154 120.577C127.873 119.843 128.231 119.243 128.95 119.243C129.933 119.243 130.009 119.788 129.256 121.441C128.466 123.174 128.762 124.457 130.657 127.524C134.153 133.178 138.566 143.917 137.862 145.056C137.529 145.595 137.901 146.795 138.689 147.723C141.523 151.061 144.085 160.994 149.442 189.41C153.508 210.981 154.187 258.058 150.978 295.91C150.628 300.035 150.163 304.085 149.944 304.91C149.725 305.735 149.29 309.335 148.979 312.91C148.667 316.485 147.77 324.36 146.986 330.41C146.202 336.46 145.246 346.497 144.861 352.714C144.082 365.285 142.903 366.14 141.302 355.293C140.744 351.507 139.649 344.521 138.869 339.767C138.09 335.013 137.452 329.5 137.452 327.517C137.452 325.533 137.045 323.91 136.547 323.91C136.049 323.91 135.869 325.822 136.146 328.16C136.958 335.014 140.412 358.935 141.452 364.904C142.529 371.086 141.807 433.481 140.376 457.91C139.877 466.435 139.614 481.398 139.794 491.16C139.973 500.922 139.824 508.91 139.463 508.91C138.53 508.91 134.535 502.482 130.452 494.408C128.245 490.043 124.275 484.715 119.702 479.979C115.715 475.849 112.452 472.119 112.452 471.69C112.452 471.261 112.054 470.91 111.567 470.91C109.779 470.91 106.965 465.089 102.381 451.91C95.5924 432.392 95.3354 431.779 92.2094 427.663C90.6444 425.603 88.3245 421.674 87.0545 418.933C85.7845 416.192 84.5055 414.19 84.2115 414.484C83.5065 415.189 89.0145 426.521 90.5125 427.447C92.1655 428.468 96.0605 437.545 100.581 450.91C102.721 457.235 105.186 463.679 106.059 465.229C107.923 468.539 107.418 469.498 104.603 467.991C101.61 466.389 91.3764 466.72 88.4524 468.515C86.8054 469.525 86.6354 469.809 87.9524 469.349C89.0524 468.964 92.3565 468.424 95.2945 468.148C99.5435 467.75 101.588 468.118 105.294 469.948C112.626 473.57 124.125 485.935 130.368 496.91C139.467 512.908 139.42 512.769 139.961 525.127C140.234 531.333 140.704 538.297 141.007 540.602C141.31 542.908 142.009 552.808 142.562 562.602C143.114 572.397 143.878 583.898 144.259 588.16C144.64 592.423 144.726 595.91 144.449 595.91C144.172 595.91 142.645 594.532 141.056 592.849C136.9 588.446 128.877 584.156 123.385 583.401C119.017 582.8 118.597 582.495 118.037 579.511C117.703 577.73 115.58 573.427 113.32 569.949C111.06 566.47 108.107 561.214 106.758 558.267C105.409 555.321 104.065 552.91 103.77 552.91C102.41 552.91 105.009 558.888 109.888 566.982C114.208 574.148 117.452 580.785 117.452 582.459C117.452 582.598 115.09 583.261 112.202 583.933C107.014 585.141 100.127 588.302 97.7024 590.589C95.0654 593.075 96.6474 592.771 101.322 589.895C114.405 581.845 129.375 583.422 140.202 593.991C143.952 597.652 144.461 598.685 144.529 602.775C144.571 605.324 144.797 608.31 145.031 609.41C145.265 610.51 145.597 617.485 145.767 624.91C146.364 650.901 147.392 669.255 148.283 669.83C150.605 671.327 152.076 681.91 149.963 681.91C149.092 681.91 148.836 682.662 149.214 684.106C149.762 686.203 149.823 686.214 150.55 684.356C151.084 682.992 151.355 682.859 151.458 683.91C151.539 684.735 151.762 686.085 151.953 686.91C152.144 687.735 152.552 689.985 152.859 691.91L153.416 695.41L152.184 691.742C151.506 689.724 150.614 687.737 150.202 687.325C148.999 686.125 149.419 690.07 150.951 694.372C151.727 696.551 152.194 698.502 151.988 698.707C151.576 699.119 137.521 689.815 135.328 687.678C133.342 685.744 125.468 683.451 121.875 683.761C120.182 683.908 117.032 684.695 114.875 685.512L110.952 686.996L115.452 686.24C122.892 684.99 129.002 685.451 132.239 687.506C139.487 692.108 149.367 698.968 150.775 700.376C152.738 702.339 153.202 702.306 153.763 700.16C154.175 698.582 154.231 698.576 154.336 700.101C154.4 701.031 154.079 702.022 153.624 702.304C152.89 702.757 154.193 710.872 155.647 714.91C156.201 716.449 160.352 733.218 160.846 735.91C160.997 736.735 161.458 740.335 161.87 743.91C162.282 747.485 163.256 752.95 164.035 756.054C164.815 759.159 165.452 763.096 165.452 764.804C165.452 767.065 165.928 767.931 167.202 767.989C168.247 768.036 168.449 768.271 167.702 768.572C167.015 768.85 166.452 769.714 166.452 770.493C166.452 771.273 167.015 771.917 167.702 771.925C168.62 771.937 168.59 772.17 167.592 772.802C166.125 773.732 166.972 784.562 170.103 804.91C170.907 810.135 171.943 817.11 172.405 820.41C172.868 823.71 173.708 828.435 174.272 830.91C174.837 833.385 175.795 838.785 176.402 842.91C177.796 852.389 179.334 861.27 180.47 866.41C180.956 868.61 181.876 872.885 182.513 875.91C183.961 882.785 188.364 895.913 189.891 897.91C190.522 898.735 191.653 900.64 192.405 902.143C193.157 903.646 194.6 905.765 195.612 906.851C196.624 907.938 197.452 909.129 197.452 909.499C197.452 911.902 214.823 932.818 220.655 937.437C221.368 938.002 223.977 940.027 226.452 941.937C228.927 943.847 231.177 945.635 231.452 945.91C231.727 946.185 234.427 947.722 237.452 949.325C240.477 950.928 243.959 953.014 245.19 953.959C251.067 958.475 273.281 959.108 281.764 955.001C288.629 951.678 296.051 944.191 297.219 939.41C297.757 937.21 298.335 934.96 298.505 934.41C299.003 932.79 295.197 925.91 293.802 925.91C293.098 925.91 292.041 925.01 291.452 923.91C290.863 922.81 289.738 921.91 288.951 921.91C288.165 921.91 286.241 920.672 284.676 919.16C283.111 917.648 280.564 915.51 279.016 914.41C269.768 907.838 260.234 899.341 256.013 893.91C255.372 893.085 251.8 889.001 248.078 884.834C244.355 880.667 240.779 876.338 240.131 875.214C239.482 874.091 238.095 871.65 237.048 869.791C236.001 867.931 234.549 865.96 233.821 865.41C232.67 864.541 230.706 861.172 226.099 852.168C225.468 850.935 224.614 849.922 224.202 849.918C223.79 849.914 223.452 849.339 223.452 848.641C223.452 847.943 221.202 842.752 218.452 837.107C215.702 831.461 213.452 826.465 213.452 826.003C213.452 825.542 212.519 823.055 211.378 820.476C209.545 816.331 209.11 815.94 207.628 817.099C206.142 818.261 206.1 818.22 207.262 816.736C209.442 813.948 208.226 809.16 200.171 788.806C197.29 781.527 196.99 780.06 198.225 779.281C199.496 778.479 199.473 777.737 198.041 773.52C193.501 760.148 195.735 738.007 203.652 717.91C204.194 716.535 204.483 715.399 204.294 715.387C204.106 715.374 204.905 714.34 206.069 713.09C207.234 711.84 209.034 709.18 210.069 707.178C211.105 705.177 212.739 702.723 213.702 701.725C214.665 700.727 215.452 699.405 215.452 698.787C215.452 697.566 227.402 685.54 231.452 682.685C234.922 680.239 245.105 680.3 250.713 682.8C256.831 685.527 266.22 687.457 271.666 687.107C276.367 686.804 276.379 686.794 275.85 683.607C274.755 676.999 274.437 676.186 271.872 673.418C270.426 671.858 267.527 668.068 265.43 664.996C263.332 661.924 260.454 658.319 259.034 656.986C257.614 655.652 256.452 654.043 256.452 653.41C256.452 652.777 255.279 651.168 253.846 649.834C252.412 648.501 249.855 645.385 248.162 642.91C246.469 640.435 244.8 638.185 244.452 637.91C243.125 636.86 237.7 628.212 235.606 623.809C234.065 620.57 233.233 616.395 232.794 609.702C232.233 601.162 232.394 599.745 234.381 595.767C235.597 593.331 238.078 589.569 239.894 587.406L243.196 583.473L252.16 585.192C257.091 586.137 262.999 586.91 265.289 586.91H269.452V582.032C269.452 574.114 273.292 566.864 283.139 556.194C290.426 548.297 302.626 542.998 317.204 541.399C320.642 541.022 323.706 540.307 324.013 539.812C324.319 539.316 325.942 538.91 327.619 538.91C330.43 538.91 330.62 538.695 330.047 536.16C329.669 534.489 325.935 530.051 320.532 524.851C311.397 516.058 311.101 515.898 297.952 512.652C294.652 511.837 289.702 510.247 286.952 509.119C284.202 507.991 278.127 505.883 273.452 504.435C264.391 501.627 256.235 497.928 252.929 495.125C249.33 492.075 241.702 479.559 240.069 474.026C237.209 464.336 236.994 457.11 239.376 450.796C240.541 447.708 242.384 444.376 243.473 443.391C244.561 442.406 245.452 440.995 245.452 440.255C245.452 439.515 245.929 438.91 246.511 438.91C247.093 438.91 247.323 438.511 247.022 438.023C246.72 437.535 247.031 437.156 247.713 437.18C252.591 437.356 254.357 436.827 253.794 435.358C252.843 432.879 247.394 434.549 243.925 438.383C234.359 448.953 232.718 465.237 239.739 479.91C245.092 491.096 253.22 500.268 258.863 501.492C260.562 501.86 262.177 502.449 262.452 502.8C263.081 503.603 282.048 509.91 283.834 509.91C284.56 509.91 287.307 511.055 289.938 512.454C292.569 513.853 297.474 515.597 300.837 516.329C304.2 517.061 308.107 518.124 309.518 518.69C312.879 520.04 322.482 528.891 324.672 532.658C326.36 535.561 326.347 535.637 324.011 536.701C322.701 537.298 319.903 538.065 317.791 538.405C302.746 540.831 288.623 545.992 285.602 550.168C284.86 551.194 282.116 554.204 279.505 556.856C276.894 559.508 273.746 563.318 272.508 565.321C271.27 567.324 269.655 569.564 268.92 570.299C268.185 571.034 267.217 574.284 266.767 577.523L265.951 583.41L262.171 583.722C260.092 583.894 255.973 583.331 253.018 582.472C250.062 581.613 246.68 580.91 245.501 580.91C242.29 580.91 235.099 588.62 232.01 595.375C229.491 600.884 229.335 601.957 229.978 609.375C230.971 620.841 234.978 629.511 245.245 642.41C245.683 642.96 247.145 644.985 248.495 646.91C249.844 648.835 252.772 652.435 255 654.91C257.229 657.385 259.915 660.873 260.969 662.661C262.022 664.449 263.687 666.167 264.668 666.479C265.649 666.79 266.452 667.458 266.452 667.962C266.452 668.467 267.745 671.024 269.326 673.645C270.906 676.266 272.482 679.616 272.827 681.09C273.352 683.332 273.087 683.83 271.204 684.136C269.965 684.338 266.927 683.957 264.452 683.29C261.977 682.624 257.927 681.762 255.452 681.376C252.977 680.99 249.737 680.052 248.252 679.292C244.725 677.487 235.086 677.52 231.652 679.348C230.167 680.138 225.802 684.106 221.952 688.164C213.532 697.04 211.805 699.153 209.16 703.823C208.043 705.796 206.638 707.86 206.037 708.41C204.397 709.914 200.963 718.341 197.961 728.233C193.752 742.105 192.618 759.117 195.051 771.91C195.512 774.335 195.395 775.103 194.669 774.41C193.427 773.224 188.625 758.859 185.476 746.91C184.244 742.235 182.426 735.485 181.436 731.91C176.05 712.453 175.52 708.252 176.514 692.91C177.693 674.703 181.345 661.98 187.42 654.911L191.287 650.413L202.931 650.733C214.393 651.048 217.452 650.386 217.452 647.588C217.452 646.886 217.034 646.928 216.252 647.71C214.981 648.981 199.834 649.387 195.637 648.263C193.385 647.66 193.334 647.389 193.782 638.526C194.635 621.686 199.541 603.084 205.484 594.16C206.674 592.373 207.267 590.913 206.8 590.917C201.628 590.959 190.093 631.743 191.753 644.121C192.225 647.633 191.883 648.409 188.231 652.136C181.283 659.223 176.627 672.875 175.516 689.41C174.936 698.049 174.737 698.866 174.053 695.41C173.618 693.21 172.886 690.06 172.425 688.41C167.184 669.623 161.592 641.211 159.436 622.41C158.805 616.91 157.664 607.685 156.901 601.91C156.137 596.135 155.042 584.885 154.466 576.91C153.339 561.281 153.182 562.257 159.334 546.623C162.301 539.083 176.306 529.91 184.85 529.91C190.615 529.91 194.447 531.048 194.531 532.785C194.581 533.821 194.793 533.957 195.114 533.16C195.84 531.361 199.125 531.62 203.316 533.808C205.316 534.852 209.427 536.865 212.452 538.282C215.477 539.699 221.776 543.12 226.45 545.884C233.445 550.022 235.787 550.91 239.7 550.91C246.395 550.91 245.629 549.237 238.702 548.729C234.167 548.396 231.684 547.493 226.952 544.457C223.652 542.339 215.818 538.193 209.543 535.242L198.134 529.878L200.133 527.644C201.232 526.415 203.8 522.319 205.839 518.54C209.416 511.911 209.542 511.332 209.447 502.04C209.392 496.744 209.561 483.635 209.823 472.91C210.298 453.445 210.297 453.436 209.391 467.91C208.892 475.885 208.313 489.16 208.105 497.41C207.736 512.067 207.654 512.547 204.507 518.41C202.736 521.71 200.087 525.612 198.62 527.082C196.049 529.656 195.741 529.716 190.164 528.726C185.404 527.881 183.538 527.996 179.664 529.374C177.072 530.296 173.834 531.316 172.468 531.641C171.101 531.967 167.47 534.849 164.399 538.047C159.834 542.8 158.301 545.339 155.993 551.967C154.441 556.426 152.879 559.6 152.521 559.021C152.163 558.443 151.759 552.893 151.622 546.689C151.486 540.486 151.16 532.71 150.897 529.41C150.635 526.11 150.247 514.06 150.036 502.632C149.698 484.312 149.878 481.119 151.564 475.632C152.616 472.21 154.123 466.365 154.914 462.644C156.916 453.219 167.326 428.949 174.961 415.907C179.531 408.099 186.375 400.052 190.136 398.064C192.74 396.689 200.779 396.612 212.54 397.85C219.3 398.561 222.511 399.487 227.622 402.199C233.393 405.26 234.642 405.564 238.833 404.928C241.427 404.534 244.06 403.702 244.684 403.078C246.579 401.183 244.929 400.781 241.851 402.386C237.515 404.647 234.405 404.258 227.331 400.571C222.084 397.836 219.21 397.075 211.439 396.358C196.318 394.963 190.895 395.199 188.512 397.356C185.046 400.493 185.194 398.487 188.886 392.289C193.562 384.439 195.559 374.332 196.468 353.91C196.872 344.835 197.506 336.06 197.877 334.41L198.552 331.41L196.883 334.325C195.578 336.607 195.131 340.63 194.83 352.825C194.27 375.477 192.355 384.612 186.242 393.81C184.022 397.149 183.626 398.399 184.596 398.999C185.541 399.583 185.087 400.542 182.857 402.673C178.687 406.658 176.448 409.986 170.92 420.41C164.718 432.104 165.422 430.604 159.661 444.41C156.907 451.01 154.356 458.435 153.992 460.91C153.628 463.385 152.944 466.535 152.472 467.91C152.001 469.285 151.322 471.737 150.965 473.358C150.481 475.549 150.092 475.946 149.449 474.906C148.973 474.136 148.819 473.125 149.106 472.66C149.394 472.195 149.833 460.249 150.083 446.112C150.333 431.976 150.782 418.385 151.08 415.91C152.09 407.545 152.289 403.466 152.878 379.054C153.444 355.608 155.075 341.124 158.412 329.917C159.787 325.297 159.683 324.912 157.868 327.91C156.42 330.304 156.381 330.198 156.968 325.41C157.817 318.482 160.354 310.655 162.674 307.804C164.922 305.042 164.949 304.847 161.447 316.745C160.26 320.779 159.477 324.269 159.708 324.5C159.939 324.731 160.7 323.005 161.399 320.665C162.098 318.325 163.633 313.71 164.811 310.41C165.989 307.11 166.998 303.735 167.054 302.91C167.259 299.896 167.498 299.36 169.856 296.618C171.381 294.844 172.409 294.281 172.674 295.075C172.936 295.861 174.667 294.866 177.334 292.399C182.545 287.578 190.698 284.145 198.948 283.3C206.523 282.524 211.41 283.923 217.051 288.483C226.15 295.838 230.543 298.91 231.961 298.91C232.781 298.91 233.452 299.36 233.452 299.91C233.452 300.46 234.127 300.91 234.952 300.91C235.777 300.91 236.452 300.235 236.452 299.41C236.452 298.585 235.597 297.91 234.552 297.91C232.624 297.91 222.212 291.44 221.64 289.887C221.469 289.421 219.184 287.663 216.564 285.982C210.693 282.215 203.167 280.65 196.714 281.856C194.096 282.345 191.817 282.608 191.65 282.442C191.483 282.275 193.058 281.102 195.149 279.836C199.422 277.25 205.827 270.732 207.939 266.821C209.964 263.07 206.765 241.747 202.951 233.575C200.417 228.146 200.223 226.787 200.167 214.075C200.126 204.785 199.848 201.531 199.298 203.91C198.093 209.129 198.173 222.725 199.443 228.378C200.056 231.11 201.44 234.773 202.519 236.518C204.392 239.549 205.889 247.405 207.071 260.41L207.617 266.41L203 271.159C200.461 273.772 197.161 276.692 195.668 277.65C194.174 278.607 191.005 280.857 188.625 282.65C186.246 284.443 183.64 285.91 182.836 285.91C180.406 285.91 174.12 289.546 171.323 292.568C168.235 295.906 163.819 302.687 160.856 308.643C158.657 313.063 156.891 313.515 158.516 309.242C159.031 307.888 159.452 304.846 159.452 302.481C159.452 300.117 159.859 295.984 160.356 293.296C162.886 279.625 163.328 231.617 161.127 209.41C160.364 201.71 160.096 194.706 160.531 193.846C162.777 189.411 163.543 161.646 161.965 141.91C160.898 128.56 164.037 110.353 168.452 104.285C172.125 99.2368 193.018 91.6848 198.499 93.4248C200.71 94.1268 201.247 92.1518 199.071 91.3168C196.482 90.3238 181.937 93.7708 175.734 96.8488C169.454 99.9648 165.635 103.955 163.716 109.41C163.135 111.06 161.863 118.511 160.889 125.968C159.451 136.975 159.337 140.397 160.285 144.161C161.507 149.013 161.889 178.634 160.813 185.14C160.08 189.578 158.452 189.164 158.452 184.539C158.452 178.254 146.668 139.817 142.356 132.033C138.929 125.85 136.071 121.374 132.955 117.315C131.307 115.167 129.951 113.185 129.942 112.91C129.933 112.635 128.093 109.935 125.854 106.91C123.614 103.885 120.044 98.7098 117.919 95.4098C113.198 88.0768 109.43 83.8058 108.299 84.5048C107.833 84.7918 107.452 84.5569 107.452 83.9809C107.452 83.4049 105.575 81.2408 103.281 79.1718C95.4624 72.1188 88.9574 65.4028 85.4524 60.7648C83.3284 57.9538 80.5764 55.6408 78.4524 54.8798C76.5274 54.1908 74.3904 53.4178 73.7024 53.1618C73.0154 52.9058 72.4674 53.0818 72.4854 53.5528ZM108.252 87.1098C109.698 88.5558 109.812 89.9098 108.487 89.9098C107.957 89.9098 107.041 89.0098 106.452 87.9098C105.273 85.7068 106.364 85.2218 108.252 87.1098ZM113.779 94.1438C116.8 98.1938 115.438 98.2688 111.724 94.2578C109.641 92.0078 109.072 90.8848 110.118 91.0908C111.01 91.2658 112.658 92.6398 113.779 94.1438ZM118.137 99.2879C117.846 100.046 118.113 101.171 118.73 101.788C119.347 102.405 119.607 102.91 119.307 102.91C119.007 102.91 117.905 101.933 116.857 100.738C115.809 99.5438 115.515 98.8948 116.202 99.2968C116.89 99.6988 117.452 99.5508 117.452 98.9688C117.452 98.3868 117.725 97.9098 118.059 97.9098C118.393 97.9098 118.428 98.5299 118.137 99.2879ZM121.452 105.91C122.041 107.01 122.297 107.91 122.022 107.91C121.747 107.91 121.041 107.01 120.452 105.91C119.863 104.81 119.607 103.91 119.882 103.91C120.157 103.91 120.863 104.81 121.452 105.91ZM124.135 111.098C123.816 111.895 123.579 111.658 123.531 110.493C123.488 109.439 123.724 108.849 124.056 109.181C124.388 109.513 124.424 110.376 124.135 111.098ZM51.9214 132.876C52.9334 133.994 54.5184 134.91 55.4434 134.91C56.3674 134.91 59.2314 136.552 61.8064 138.558C64.3824 140.565 66.7444 141.951 67.0564 141.639C67.3684 141.327 66.6464 140.549 65.4524 139.91C64.2584 139.271 62.2165 137.822 60.9145 136.69C59.6125 135.558 56.6424 133.779 54.3134 132.737L50.0805 130.841L51.9214 132.876ZM100.952 138.91C98.1544 139.622 98.2434 139.681 102.261 139.792C104.905 139.864 106.331 139.524 105.952 138.91C105.274 137.812 105.265 137.812 100.952 138.91ZM112.952 138.963C107.611 139.507 108.042 139.592 116.869 139.742C122.323 139.834 126.598 139.749 126.369 139.552C125.381 138.702 118.493 138.4 112.952 138.963ZM131.452 141.771C131.452 142.221 132.577 143.102 133.952 143.728C135.327 144.355 136.452 144.499 136.452 144.049C136.452 143.599 135.327 142.718 133.952 142.092C132.577 141.465 131.452 141.321 131.452 141.771ZM89.4935 143.361C88.8305 144.159 86.1884 145.146 83.6204 145.554C81.0534 145.963 79.7394 146.468 80.7024 146.677C81.6654 146.886 82.4524 147.319 82.4524 147.639C82.4524 149.247 76.7254 155.336 69.8534 161.034C65.6234 164.541 61.2154 168.49 60.0574 169.809C58.8994 171.128 56.4454 173.603 54.6044 175.309C52.7624 177.015 50.8164 179.229 50.2804 180.231C49.3514 181.967 49.4254 181.974 51.8794 180.366C53.2944 179.439 54.4544 178.394 54.4574 178.045C54.4644 177.044 59.4884 171.972 67.4684 164.91C71.5084 161.335 76.8695 156.226 79.3825 153.556C84.2485 148.387 84.3404 148.299 88.9524 144.466C90.6024 143.095 91.6704 141.959 91.3244 141.942C90.9794 141.924 90.1555 142.563 89.4935 143.361ZM75.2654 145.593C75.9864 145.882 76.8494 145.846 77.1814 145.514C77.5134 145.182 76.9234 144.946 75.8694 144.989C74.7044 145.037 74.4674 145.274 75.2654 145.593ZM156.452 187.91C156.452 189.01 156.279 189.91 156.069 189.91C155.858 189.91 155.45 189.01 155.162 187.91C154.875 186.81 155.047 185.91 155.546 185.91C156.044 185.91 156.452 186.81 156.452 187.91ZM131.339 220.865C131.051 221.665 131.192 224.59 131.653 227.365C132.555 232.805 132.487 256.765 131.564 258.41C131.255 258.96 130.897 260.535 130.769 261.91C130.584 263.886 130.825 263.676 131.917 260.91C132.898 258.427 133.288 252.76 133.258 241.41C133.217 225.958 132.452 217.768 131.339 220.865ZM310.566 254.395C307.495 261.77 305.908 264.236 301.577 268.368C296.464 273.246 287.969 279.91 286.863 279.91C286.473 279.91 283.766 281.822 280.847 284.16C277.928 286.498 274.385 289.225 272.975 290.222C271.565 291.219 270.715 292.526 271.086 293.127C271.503 293.801 271.296 293.931 270.543 293.467C269.114 292.583 265.452 295.573 265.452 297.624C265.452 298.396 265.002 298.75 264.452 298.41C263.902 298.07 263.452 298.22 263.452 298.742C263.452 299.265 261.165 301.992 258.369 304.802C255.573 307.613 253.468 310.459 253.691 311.128C253.914 311.796 258.358 307.971 263.565 302.627C268.772 297.282 273.539 292.91 274.159 292.91C274.779 292.91 275.435 292.531 275.619 292.068C275.802 291.604 278.877 289.13 282.452 286.569C286.027 284.008 289.402 281.562 289.952 281.134C290.502 280.706 292.527 279.276 294.452 277.955C296.377 276.635 298.691 274.805 299.595 273.889C300.498 272.973 302.298 271.348 303.595 270.277C307.726 266.864 312.793 257.024 312.19 253.584C311.843 251.604 311.698 251.677 310.566 254.395ZM129.452 265.107C129.452 265.398 128.951 268.061 128.338 271.024C127.725 273.986 126.938 279.56 126.588 283.41L125.952 290.41L123.98 288.16C122.895 286.923 121.626 285.91 121.16 285.91C120.694 285.91 118.287 284.517 115.812 282.814C113.337 281.111 111.076 279.952 110.789 280.24C110.249 280.78 115.496 284.689 122.15 288.704C125.7 290.846 126.146 291.674 128.88 301.204C131.879 311.656 135.283 320.413 136.049 319.647C136.285 319.41 135.741 317.46 134.84 315.314C128.531 300.283 126.92 287.758 129.412 273.095C130.095 269.071 130.384 265.509 130.053 265.178C129.723 264.847 129.452 264.815 129.452 265.107ZM176.952 290.91C175.957 292.01 174.692 292.91 174.142 292.91C173.592 292.91 173.957 292.01 174.952 290.91C175.947 289.81 177.212 288.91 177.762 288.91C178.312 288.91 177.947 289.81 176.952 290.91ZM169.543 299.001C168.296 300.687 167.491 302.283 167.755 302.546C168.018 302.81 169.232 301.623 170.452 299.91C173.347 295.844 172.502 294.999 169.543 299.001ZM249.952 314.91C249.612 315.46 249.811 315.91 250.393 315.91C250.975 315.91 251.452 315.46 251.452 314.91C251.452 314.36 251.254 313.91 251.011 313.91C250.768 313.91 250.292 314.36 249.952 314.91ZM245.485 321.567C240.164 333.597 238.991 346.262 242.523 353.558C245.182 359.05 258.692 371.775 265.607 375.301C268.547 376.799 275.19 382.069 280.369 387.011C286.712 393.062 290.293 395.801 291.339 395.4C292.192 395.072 292.583 395.112 292.207 395.489C291.83 395.865 294.027 398.926 297.088 402.292C303.098 408.897 304.452 411.416 304.452 415.988C304.452 418.643 303.765 419.27 297.545 422.297C293.746 424.146 287.428 426.634 283.506 427.825C277.427 429.672 275.976 430.569 273.664 433.912C270.62 438.314 269.664 438.588 265.274 436.318C263.581 435.442 261.128 434.93 259.824 435.179C258.519 435.429 257.452 435.245 257.452 434.771C257.452 434.298 256.691 433.91 255.761 433.91C254.256 433.91 254.275 434.06 255.932 435.272C256.956 436.021 258.687 436.4 259.779 436.114C260.928 435.814 261.511 436.006 261.162 436.57C260.534 437.587 270.42 442.91 272.936 442.91C273.759 442.91 274.818 441.265 275.409 439.069C276.678 434.356 278.512 432.693 284.952 430.416C293.433 427.417 295.326 426.515 294.828 425.709C294.564 425.282 295.001 425.183 295.799 425.49C297.559 426.165 306.995 421.543 307.722 419.65C308.428 417.81 306.402 407.91 305.319 407.91C304.842 407.91 304.452 407.276 304.452 406.502C304.452 405.728 301.034 402.015 296.857 398.252C292.679 394.489 285.689 387.955 281.322 383.733C276.956 379.51 271.261 375.049 268.668 373.82C266.074 372.59 263.153 370.87 262.176 369.997C261.199 369.124 257.789 366.16 254.598 363.41C246.834 356.718 244.304 352.894 243.267 346.287C242.279 339.984 244.123 330.738 247.97 322.712C250.09 318.287 250.176 316.91 248.332 316.91C247.9 316.91 246.618 319.006 245.485 321.567ZM153.452 345.351C153.452 345.594 153.002 346.07 152.452 346.41C151.902 346.75 151.452 346.551 151.452 345.969C151.452 345.387 151.902 344.91 152.452 344.91C153.002 344.91 153.452 345.108 153.452 345.351ZM144.145 368.641C143.891 369.614 143.667 369.06 143.647 367.41C143.627 365.76 143.834 364.964 144.108 365.641C144.382 366.318 144.399 367.668 144.145 368.641ZM151.452 371.351C151.452 372.144 151.002 373.07 150.452 373.41C149.902 373.75 149.452 373.101 149.452 371.969C149.452 370.837 149.902 369.91 150.452 369.91C151.002 369.91 151.452 370.558 151.452 371.351ZM150.135 378.098C149.816 378.895 149.579 378.658 149.531 377.493C149.488 376.439 149.724 375.849 150.056 376.181C150.388 376.513 150.424 377.376 150.135 378.098ZM150.834 381.462C151.175 382.352 151.007 382.753 150.441 382.403C149.897 382.067 149.452 381.369 149.452 380.851C149.452 379.413 150.169 379.73 150.834 381.462ZM67.3995 390.086C65.1725 394.888 63.0894 398.029 56.4524 406.595C46.9934 418.803 43.0644 423.459 41.0434 424.854C39.8934 425.648 38.2774 427.011 37.4524 427.882C34.8884 430.591 27.9544 435.724 25.1104 437.02C23.1574 437.91 22.7545 438.485 23.6745 439.068C25.8795 440.468 27.0425 440.026 32.5715 435.689C40.5435 429.436 49.1204 420.537 56.9364 410.41C60.7564 405.46 64.2354 401.26 64.6674 401.077C65.0994 400.893 65.4524 400.261 65.4524 399.671C65.4524 399.081 66.5535 397.155 67.8995 395.391C70.8355 391.542 72.0454 387.395 70.5094 386.445C69.8454 386.035 68.6045 387.488 67.3995 390.086ZM19.4524 440.799C19.4524 441.287 17.8784 441.983 15.9544 442.344C11.4224 443.194 6.68246 446.385 2.57646 451.35C-0.482537 455.048 -0.58658 455.408 1.05742 456.611C2.21042 457.453 4.99549 457.77 9.07549 457.521C13.7475 457.237 15.4614 457.491 15.8584 458.525C16.1504 459.287 17.0975 459.91 17.9625 459.91C18.8285 459.91 22.5544 463.145 26.2444 467.098C29.9334 471.052 34.4154 475.792 36.2024 477.632C37.9894 479.471 39.4524 481.364 39.4524 481.836C39.4524 482.309 40.1274 482.955 40.9524 483.272C41.7774 483.588 42.4524 484.536 42.4524 485.379C42.4524 486.221 42.8724 486.91 43.3854 486.91C43.8984 486.91 44.6025 487.807 44.9505 488.904C45.2985 490.001 46.2214 491.536 47.0014 492.316C48.6644 493.979 58.4475 510.069 58.4505 511.145C58.4515 511.549 59.8935 514.249 61.6535 517.145C64.9605 522.583 68.7665 526.541 71.5505 527.435C72.4295 527.717 74.6275 529.789 76.4355 532.039C81.1745 537.935 81.4744 542.7 77.6404 551.156C74.6254 557.806 71.0245 561.954 60.5975 570.794C57.7535 573.205 53.9234 577.255 52.0884 579.794C48.3434 584.973 39.1864 602.041 36.4684 608.91C34.7454 613.265 29.5735 636.868 29.6755 639.91C29.7035 640.735 29.3865 644.447 28.9725 648.16C28.0795 656.163 29.3924 657.1 32.4784 650.66C37.4274 640.332 41.0324 638.239 55.9574 637.03C68.2394 636.034 73.2064 634.8 81.9264 630.578C85.8304 628.688 87.4764 628.371 89.5794 629.104C94.3514 630.768 95.8915 633.454 95.9615 640.235C96.0275 646.676 93.1574 662.352 91.5564 664.291C91.0474 664.906 90.3054 667.155 89.9064 669.288C89.3314 672.367 89.4674 673.072 90.5674 672.707C91.3294 672.454 92.3505 670.933 92.8365 669.328C93.3225 667.723 94.1214 665.51 94.6134 664.41C95.1044 663.31 95.9225 660.16 96.4305 657.41C96.9385 654.66 97.8694 649.935 98.5004 646.91C100.232 638.601 99.3164 632.216 95.9834 629.352C94.4744 628.056 91.6595 626.473 89.7265 625.835C86.4925 624.768 85.6034 624.981 78.5834 628.497C71.6104 631.99 70.0084 632.377 59.9534 633.007C43.9624 634.007 42.0595 634.535 36.9155 639.394C34.4375 641.735 32.2515 643.371 32.0595 643.03C31.2235 641.552 34.5675 622.707 36.9925 615.225C39.7125 606.835 51.6804 583.729 55.3404 579.8C56.4634 578.594 57.1045 577.156 56.7635 576.604C56.4225 576.052 56.5974 575.882 57.1524 576.225C59.1314 577.448 75.3715 561.497 79.3355 554.437C86.0655 542.449 85.6074 536.822 77.2514 528.811C74.4714 526.145 71.4094 523.714 70.4494 523.409C68.9174 522.923 61.4524 512.179 61.4524 510.461C61.4524 510.105 59.8774 507.352 57.9524 504.343C56.0274 501.333 54.4524 498.689 54.4524 498.467C54.4524 497.046 41.4055 479.237 36.2165 473.575C25.3335 461.702 24.2214 460.643 19.0534 457.239C15.3114 454.775 12.8874 453.91 9.72539 453.91C5.15439 453.91 3.96341 452.172 7.31841 450.397C14.0074 446.859 19.2934 443.707 21.4524 441.968L23.9524 439.954L21.7024 439.932C20.4654 439.92 19.4524 440.31 19.4524 440.799ZM141.114 471.16C140.837 471.848 140.61 471.285 140.61 469.91C140.61 468.535 140.837 467.973 141.114 468.66C141.392 469.348 141.392 470.473 141.114 471.16ZM68.6424 472.855C69.2074 474.709 73.3814 475.835 75.9594 474.829C77.5154 474.221 77.1744 474.035 74.4024 473.98C72.4504 473.942 70.2564 473.348 69.5274 472.66C68.4594 471.653 68.2884 471.691 68.6424 472.855ZM92.6054 594.985C91.3144 596.032 88.5014 597.414 86.3554 598.057C84.2084 598.7 82.4524 599.636 82.4524 600.136C82.4524 600.994 84.3774 600.622 88.9524 598.882C91.3094 597.986 95.9545 594.078 95.3625 593.49C95.1375 593.266 93.8964 593.938 92.6054 594.985ZM88.4675 677.16C88.4805 678.979 88.6684 679.123 89.4524 677.91C90.7054 675.971 90.7054 674.91 89.4524 674.91C88.9024 674.91 88.4595 675.922 88.4675 677.16ZM85.4825 679.66C85.4665 680.898 85.0024 681.91 84.4524 681.91C83.9024 681.91 83.4524 682.603 83.4524 683.45C83.4524 684.297 82.5944 686.671 81.5464 688.726C79.7554 692.236 78.9554 696.276 79.3014 700.055C79.4234 701.383 80.5724 701.69 85.2554 701.646C90.3254 701.598 91.7434 702.053 96.4914 705.251C99.4804 707.263 102.293 708.91 102.743 708.91C104.887 708.91 116.452 723.243 116.452 725.9C116.452 726.455 117.033 726.91 117.743 726.91C118.453 726.91 120.689 728.71 122.712 730.91C124.735 733.11 126.868 734.91 127.451 734.91C128.035 734.91 129.919 736.512 131.638 738.469C133.356 740.426 136.475 742.901 138.568 743.969C143.715 746.595 151.805 754.721 154.467 759.94C156.869 764.647 163.113 771.583 164.079 770.616C164.417 770.279 163.372 768.294 161.756 766.206C160.141 764.118 157.561 760.16 156.023 757.41C153.062 752.115 146.257 745.075 142.315 743.226C139.675 741.988 126.028 730.87 120.107 725.135C117.993 723.086 115.415 719.835 114.38 717.91C113.345 715.985 111.698 713.51 110.721 712.41C104.979 705.944 89.0624 697.638 84.2544 698.6C81.8834 699.074 81.4524 698.831 81.4524 697.021C81.4524 695.845 81.8615 694.101 82.3625 693.146C85.3645 687.417 87.3605 680.573 86.4725 679.052C85.6565 677.655 85.5085 677.745 85.4825 679.66ZM148.452 679.41C148.452 680.235 148.888 680.91 149.421 680.91C149.953 680.91 150.13 680.235 149.814 679.41C149.497 678.585 149.061 677.91 148.845 677.91C148.629 677.91 148.452 678.585 148.452 679.41ZM169.452 692.91C169.452 693.46 169.002 693.91 168.452 693.91C167.902 693.91 167.452 693.46 167.452 692.91C167.452 692.36 167.902 691.91 168.452 691.91C169.002 691.91 169.452 692.36 169.452 692.91ZM163.452 697.91C163.452 698.46 163.002 698.91 162.452 698.91C161.902 698.91 161.452 698.46 161.452 697.91C161.452 697.36 161.902 696.91 162.452 696.91C163.002 696.91 163.452 697.36 163.452 697.91ZM166.207 753.618C166.271 756.555 166.098 756.959 165.441 755.41C164.326 752.782 164.223 748.65 165.288 749.309C165.748 749.593 166.162 751.532 166.207 753.618ZM172.952 759.91C173.292 760.46 172.868 760.91 172.011 760.91C171.154 760.91 170.452 760.46 170.452 759.91C170.452 759.36 170.875 758.91 171.393 758.91C171.911 758.91 172.612 759.36 172.952 759.91ZM169.421 778.41C169.421 780.066 169.255 780.152 168.452 778.91C167.919 778.085 167.483 776.51 167.483 775.41C167.483 773.754 167.649 773.668 168.452 774.91C168.985 775.735 169.421 777.31 169.421 778.41ZM170.135 790.098C169.816 790.895 169.579 790.658 169.531 789.493C169.488 788.439 169.724 787.849 170.056 788.181C170.388 788.513 170.424 789.376 170.135 790.098ZM171.452 795.969C171.452 797.754 171.035 798.771 170.452 798.41C169.902 798.07 169.452 796.694 169.452 795.351C169.452 794.008 169.902 792.91 170.452 792.91C171.002 792.91 171.452 794.287 171.452 795.969ZM209.421 822.41C209.421 822.96 208.985 822.735 208.452 821.91C207.919 821.085 207.483 819.96 207.483 819.41C207.483 818.86 207.919 819.085 208.452 819.91C208.985 820.735 209.421 821.86 209.421 822.41ZM212.417 829.36C212.481 831.077 210.705 828.518 210.023 825.91L209.369 823.41L210.875 825.91C211.703 827.285 212.397 828.838 212.417 829.36ZM214.259 833.436C213.951 833.744 213.392 833.189 213.016 832.203C212.474 830.778 212.588 830.663 213.576 831.643C214.26 832.322 214.567 833.129 214.259 833.436ZM218.909 905.979C218.593 906.491 217.63 906.91 216.771 906.91C215.499 906.91 215.438 906.632 216.443 905.421C217.734 903.865 219.911 904.358 218.909 905.979ZM255.452 916.879C255.452 917.411 254.777 917.588 253.952 917.272C253.127 916.955 252.452 916.519 252.452 916.303C252.452 916.087 253.127 915.91 253.952 915.91C254.777 915.91 255.452 916.346 255.452 916.879ZM251.088 953.404C253.484 954.653 253.615 954.899 251.893 954.904C250.761 954.907 248.961 954.249 247.893 953.442C245.354 951.521 247.43 951.496 251.088 953.404ZM282.452 952.91C280.482 954.183 278.165 954.183 278.952 952.91C279.292 952.36 280.556 951.917 281.761 951.925C283.542 951.938 283.671 952.122 282.452 952.91Z" fill="black"/>
</svg>
