<svg width="507" height="595" viewBox="0 0 507 595" fill="none" xmlns="http://www.w3.org/2000/svg">
<path fill-rule="evenodd" clip-rule="evenodd" d="M118.131 6.50252C116.483 11.4922 116.297 28.6241 117.329 80.1368C118.696 148.452 118.723 155.232 117.639 156.316C117.303 156.654 116.041 150.835 114.836 143.386C113.632 135.935 111.555 123.268 110.225 115.234C108.893 107.2 107.804 95.2803 107.804 88.7447C107.804 74.837 103.204 37.7723 100.944 33.4692C100.087 31.8362 97.8676 26.5781 96.0163 21.7854C92.9622 13.8851 92.1865 13.1218 87.7151 13.6202C85.0027 13.9235 80.6272 15.2863 77.9898 16.6491C73.9176 18.7545 73.0111 20.6019 71.9704 28.9308C70.419 41.3555 73.0599 57.4208 78.9956 71.665C101.061 124.61 110.67 154.116 97.6567 128.969C93.9367 121.78 89.2422 113.153 87.2236 109.798C85.2067 106.443 81.9957 100.366 80.0886 96.2911C78.1815 92.2164 75.7828 88.8841 74.7578 88.8841C71.9286 88.8841 95.6137 133.724 106.427 148.837C112.655 157.543 112.681 160.122 106.528 158.946C100.946 157.879 100.28 157.253 91.3498 144.655C87.6123 139.382 82.0758 132.324 79.0444 128.969C73.4696 122.796 62.4804 106.17 62.4804 103.906C62.4804 103.228 60.4757 100.552 58.0265 97.9573C55.5755 95.364 51.6184 89.3198 49.2319 84.527C46.8472 79.7343 41.8529 71.503 38.1346 66.2361C34.4164 60.9693 31.6342 56.4015 31.9515 56.0843C32.267 55.7671 31.8695 53.2138 31.0642 50.4114C30.2518 47.5775 30.2728 45.3135 31.1112 45.3135C37.7599 45.3135 51.852 57.2222 60.8749 70.4642C63.1951 73.8715 65.6844 76.6652 66.4026 76.6722C71.0396 76.714 61.8981 64.0699 45.9198 48.3409C36.0602 38.6333 24.7189 39.2746 26.3697 49.444C27.2204 54.6864 36.36 71.339 41.1748 76.4229C42.4003 77.716 44.5828 81.5973 46.0262 85.0481C47.4678 88.4989 51.7596 95.3552 55.5633 100.286C59.3687 105.214 62.4804 109.777 62.4804 110.422C62.4804 112.374 75.0838 130.712 76.4243 130.712C77.1112 130.712 80.5069 135.303 83.9725 140.913C87.4362 146.523 91.47 152.11 92.9361 153.327C96.8583 156.581 96.2238 158.038 90.3718 159.207C87.4955 159.782 85.1422 161.051 85.1422 162.025C85.1422 163.001 89.0504 166.354 93.8268 169.476C98.6033 172.599 102.525 176.05 102.543 177.146C102.56 178.242 103.669 179.558 105.008 180.072C108.51 181.414 112.692 195.728 114.012 210.882C115.209 224.628 120.596 249.109 123.883 255.756C126.153 260.345 124.609 262.776 121.214 259.96C118.075 257.354 76.8689 249.224 66.8088 249.224C61.8336 249.224 55.8143 250.799 50.6561 253.454C40.7582 258.545 26.2616 272.2 25.0361 277.583C24.5515 279.718 22.552 290.773 20.5962 302.147C18.6385 313.52 15.8877 325.049 14.4827 327.766C13.0777 330.483 11.9272 333.922 11.9272 335.407C11.9272 336.893 11.1619 338.108 10.2275 338.108C8.17402 338.108 1.8078 351.659 0.285969 359.266C-0.512423 363.257 0.3156 366.793 3.34356 372.337C5.62717 376.517 8.1008 379.936 8.83992 379.936C9.57904 379.936 10.1839 381.022 10.1839 382.346C10.1839 383.673 11.711 385.158 13.578 385.646C18.0755 386.822 18.975 382.411 15.6925 375.274C13.3688 370.22 13.4943 368.665 17.1411 357.328C22.6601 340.166 24.9333 339.076 55.5075 338.913C74.2052 338.816 80.1147 338.185 84.2706 335.846C87.1469 334.227 90.2341 332.897 91.1318 332.89C92.0279 332.885 96.5393 329.696 101.155 325.804C110.199 318.181 111.235 318.569 106.531 327.818C104.872 331.081 103.376 337.927 103.205 343.03C103.036 348.133 102.433 352.774 101.865 353.342C101.297 353.91 100.831 356.896 100.831 359.979C100.831 364.219 98.9066 367.645 92.9169 374.066C88.5641 378.732 83.6883 384.706 82.0828 387.343C80.4756 389.98 78.5458 392.136 77.7928 392.136C77.0414 392.136 76.4261 393.312 76.4261 394.75C76.4261 396.188 75.4464 397.397 74.2471 397.436C71.2784 397.535 59.374 422.717 58.2165 431.349C55.6313 450.602 55.3262 455.045 56.3617 458.306C58.199 464.094 63.2544 462.525 66.5037 455.16C68.1284 451.482 73.3999 444.424 78.2216 439.474C87.2741 430.183 92.176 428.523 99.2936 432.331C101.199 433.35 105.794 434.227 109.507 434.277C116.734 434.377 116.83 434.79 111.831 444.421C110.586 446.817 109.565 449.994 109.558 451.479C109.552 452.966 108.827 454.926 107.947 455.836C107.065 456.748 103.266 463.47 99.5045 470.776C95.7426 478.08 90.187 487.726 87.1608 492.212C84.1328 496.697 81.6557 500.989 81.6557 501.751C81.6557 502.512 80.0868 504.557 78.1693 506.291C76.2518 508.025 74.6829 510.5 74.6829 511.79C74.6829 513.079 73.9943 514.133 73.1506 514.133C72.3086 514.133 70.6438 516.486 69.4532 519.362C68.2626 522.238 66.6501 524.591 65.8727 524.591C65.0952 524.591 63.9499 526.192 63.3293 528.149C61.3978 534.232 33.3687 561.375 16.721 573.285C7.60224 579.808 6.41163 582.97 12.363 584.851C14.5193 585.532 17.3067 587.54 18.5531 589.312C19.8013 591.085 22.3934 593.375 24.3127 594.401C29.7707 597.322 41.8285 589.255 50.6073 576.811C54.6394 571.094 58.5669 566.418 59.3374 566.418C60.1079 566.418 60.7372 565.242 60.7372 563.804C60.7372 562.366 61.5216 561.19 62.4804 561.19C63.4391 561.19 64.2236 560.116 64.2236 558.806C64.2236 556.638 75.0838 541.463 91.2068 521.105C98.6939 511.652 99.8305 510.108 112.373 492.352C117.789 484.683 123.455 475.664 124.966 472.309C126.477 468.952 128.627 465.03 129.744 463.592C134.433 457.556 144.269 436.886 143.243 435.225C142.63 434.235 142.844 433.866 143.718 434.406C144.591 434.947 148.027 429.566 151.355 422.452L157.402 409.517L161.199 424.789C165.424 441.799 164.603 451.692 158.296 459.707C156.412 462.101 154.871 464.778 154.871 465.653C154.871 466.53 153.302 470.491 151.384 474.46C149.467 478.428 147.898 482.266 147.898 482.991C147.898 483.714 146.174 487.228 144.066 490.799C141.959 494.37 140.053 498.532 139.832 500.048C139.611 501.564 138.626 505.942 137.644 509.776C136 516.199 136.328 524.432 138.53 531.998C139.579 535.605 144.411 536.126 144.411 532.632C144.411 527.342 155.767 510.693 159.394 510.664C160.444 510.655 162.724 509.079 164.458 507.162C166.193 505.245 168.368 503.677 169.292 503.677C170.988 503.677 179.598 496.829 188.449 488.444C191.096 485.936 195.216 479.906 197.602 475.045C199.989 470.183 203.756 463.069 205.975 459.235C215.273 443.159 221.256 408.076 217.178 393.525C215.962 389.182 216.324 388.725 221.821 387.695C229.069 386.336 235.059 388.003 235.059 391.381C235.059 392.754 235.824 393.879 236.758 393.879C238.693 393.879 243.701 404.475 247.976 417.621C249.587 422.569 253.948 429.95 257.762 434.178C261.547 438.373 264.655 442.665 264.669 443.715C264.704 446.442 270.578 451.392 273.779 451.392C279.056 451.392 278.498 444.332 272.234 431.853L266.077 419.587L267.252 399.327C269.567 359.388 269.311 355.791 263.306 343.975C257.757 333.052 246.32 321.499 239.648 320.075C237.604 319.638 243.775 319.594 253.362 319.978C262.95 320.359 274.572 320.678 279.19 320.683C286.937 320.694 287.494 320.978 286.417 324.373C285.338 327.773 285.791 328 292.403 327.371C296.338 326.994 299.557 327.238 299.557 327.909C299.557 328.582 306.028 329 313.939 328.838C328.026 328.551 349.318 331.276 357.38 334.401C359.615 335.267 368.894 337.737 378.002 339.889C387.11 342.042 396.524 345.071 398.921 346.62C401.318 348.17 406.809 350.712 411.123 352.27C418.628 354.982 419.252 354.949 425.505 351.514C431.894 348.006 432.042 347.694 432.042 337.828C432.042 324.774 429.352 322.921 405.585 319.599C395.767 318.228 385.348 316.412 382.432 315.565C377.395 314.101 377.526 314.015 385.02 313.865C389.361 313.78 399.252 314.503 407.002 315.476C422.112 317.37 425.564 316.544 433.49 309.139C442.517 300.707 431.451 289.872 411.697 287.798C399.214 286.488 400.155 285.274 415.244 283.219C421.563 282.359 423.946 281.212 424.6 278.716C425.081 276.874 426.094 275.366 426.852 275.366C427.609 275.366 429.443 271.799 430.93 267.44C434.259 257.672 433.592 257.26 416.029 258.252C404.842 258.885 404.075 258.733 408.643 256.785C411.446 255.589 415.082 254.575 416.722 254.531C421.785 254.399 439.111 247.302 438.154 245.754C437.657 244.951 438.143 243.996 439.234 243.631C441.739 242.797 440.008 237.46 435.472 232.029L432.028 227.906L419.397 230.733C407.485 233.398 400.641 234.684 357.955 242.279C335.086 246.348 333.686 245.669 350.982 238.896C356.735 236.643 366.452 232.531 372.577 229.757C378.701 226.984 387.654 223.019 392.474 220.947C400.544 217.475 409.18 213.046 428.439 202.502C438.823 196.817 435.713 193.455 420.062 193.447L408.508 193.441L413.738 190.243C424.917 183.41 425.184 179.821 415.195 170.579C407.523 163.481 402.074 163.374 391.491 170.119C386.469 173.319 383.145 175.959 384.103 175.987C385.062 176.015 383.209 177.646 379.984 179.612C376.761 181.576 374.495 183.558 374.952 184.013C375.407 184.469 381.182 181.29 387.787 176.951C394.39 172.611 401.544 169.059 403.687 169.057C405.829 169.056 410.144 171.362 413.274 174.183C417.978 178.422 418.638 179.86 417.069 182.462C415.481 185.095 404.232 191.937 387.59 200.388C383.415 202.509 377.469 206.187 376.259 207.396C375.78 207.876 371.857 210.005 367.543 212.13C363.228 214.254 355.384 218.46 350.111 221.478C344.837 224.495 335.227 229.739 328.756 233.131C322.286 236.524 316.99 239.896 316.99 240.628C316.99 242.207 338.287 234.229 345.753 229.853C348.629 228.166 358.686 222.792 368.099 217.909C377.512 213.026 389.171 206.31 394.007 202.985C402.953 196.833 404.508 196.35 413.738 196.857C431.594 197.837 428.25 200.718 386.664 220.192C361.436 232.007 328.95 243.996 322.165 243.996C320.277 243.996 318.733 244.78 318.733 245.738C318.733 249.811 348.699 247.356 395.434 239.452C428.013 233.943 431.446 233.823 434.637 238.084C436.857 241.045 436.637 241.732 432.488 244.827C427.722 248.382 411.135 253.264 392.819 256.504C379.292 258.897 375.567 259.217 353.597 259.873C336.948 260.369 334.624 260.04 327.885 256.242C323.811 253.947 320.476 251.429 320.476 250.646C320.476 249.864 318.907 249.224 316.99 249.224C315.072 249.224 313.503 248.45 313.503 247.504C313.503 244.97 301.761 240.51 295.09 240.51C291.908 240.51 288.873 239.815 288.349 238.964C287.824 238.115 284.667 236.907 281.334 236.283C275.004 235.095 271.117 231.796 276.05 231.796C279.819 231.796 303.827 223.763 312.632 219.558C316.467 217.724 322.35 215.22 325.706 213.989C333.378 211.178 372.72 187.809 372.75 186.047C372.793 183.553 368.068 184.757 365.146 187.983C363.532 189.767 359.095 192.633 355.288 194.348C351.483 196.064 348.368 198.133 348.368 198.947C348.368 199.759 347.372 200.425 346.157 200.425C344.942 200.425 341.215 202.239 337.877 204.458C331.711 208.555 297.828 223.082 294.438 223.082C290.929 223.082 292.593 220.356 297.378 218.266C300.014 217.116 304.526 214.599 307.402 212.675C310.278 210.751 313.808 208.693 315.246 208.101C321.879 205.368 329.326 201.446 341.395 194.327C348.585 190.086 358.515 184.635 363.46 182.214C368.406 179.793 374.681 175.952 377.406 173.678C380.131 171.405 384.951 168.218 388.115 166.593C391.28 164.971 394.306 162.508 394.838 161.121C395.372 159.732 396.853 158.597 398.133 158.597C401.518 158.597 402.887 155.519 401.666 150.655C400.962 147.853 399.362 146.397 396.984 146.397C394.995 146.397 391.374 144.829 388.937 142.912C380.905 136.594 374.992 138.232 353.383 152.757C342.475 160.091 333.158 166.619 332.679 167.266C332.199 167.913 328.277 170.345 323.962 172.67C319.648 174.995 315.726 177.369 315.246 177.948C313.599 179.935 276.662 203.911 275.25 203.911C274.473 203.911 272.93 205.001 271.823 206.336C270.714 207.67 268.07 209.2 265.943 209.735C262.143 210.692 262.138 210.664 265.565 208.111C267.482 206.682 270.658 204.172 272.625 202.534C278.252 197.84 301.064 182.528 313.503 175.091C319.735 171.365 325.619 167.649 326.577 166.832C328.877 164.875 364.424 141.305 372.025 136.697C383.854 129.528 391.031 120.949 389.195 116.17C388.31 113.861 374.212 110.398 367.979 110.957C366.781 111.065 365.8 110.457 365.8 109.605C365.8 108.752 366.514 108.055 367.389 108.055C369.105 108.055 368.728 102.079 366.703 97.1974C365.448 94.1684 355.961 90.6548 348.992 90.6374C346.497 90.6304 344.907 89.2221 344.196 86.3918C343.593 83.9884 339.573 79.7552 334.905 76.6042C323.718 69.056 319.648 70.5706 312.47 84.9507C309.503 90.892 304.201 99.4422 300.689 103.949C292.942 113.892 269.161 138.827 262.336 144.163C259.617 146.289 257.679 148.888 258.029 149.939C258.697 151.941 287.726 123.894 300.478 108.927C304.562 104.134 310.535 95.1147 313.754 88.8841C318.806 79.1016 320.326 77.4843 324.888 77.0382C330.524 76.4857 336.54 81.3204 338.564 88.0267C339.852 92.3002 334.267 98.7067 313.503 116.769C305.354 123.857 297.772 130.484 296.657 131.493C295.543 132.5 289.855 137.523 284.018 142.652C278.184 147.779 273.409 152.99 273.409 154.23C273.409 156.8 268.643 159.09 266.302 157.644C265.443 157.112 261.862 157.473 258.343 158.444C254.825 159.414 251.293 159.807 250.496 159.313C248.931 158.346 256.533 142.377 263.281 132.455C267.369 126.444 275.153 110.887 275.153 108.728C275.153 106.487 284.623 86.12 287.871 81.376C289.714 78.6851 290.876 76.1371 290.453 75.7136C288.995 74.2583 279.09 91.5279 272.496 107.022C268.861 115.56 261.697 129.637 256.575 138.304C251.452 146.971 247.261 154.941 247.261 156.014C247.261 158.092 239.406 165.568 237.224 165.568C235.613 165.568 223.58 177.214 217.294 184.856C214.714 187.993 212.097 193.558 211.476 197.225C210.858 200.892 209.634 204.334 208.759 204.876C207.884 205.416 207.167 207.38 207.167 209.242C207.167 211.103 206.292 212.625 205.22 212.625C204.049 212.625 203.63 210.762 204.171 207.937C205.468 201.15 200.883 172.979 197.688 168.102C194.682 163.517 193.948 149.883 196.708 149.883C197.667 149.883 198.451 147.645 198.451 144.911C198.451 142.176 200.32 134.788 202.603 128.493C206.06 118.962 211.926 96.2981 212.627 89.7555C212.73 88.797 213.584 86.052 214.525 83.6556C215.465 81.2592 216.844 74.5563 217.59 68.7614C218.334 62.9665 221.085 53.1631 223.703 46.9761C226.322 40.7891 228.546 34.4138 228.647 32.8052C228.75 31.1983 229.344 30.1997 229.97 30.5866C230.594 30.9717 232.51 29.7379 234.224 27.8435C240.367 21.0587 255.714 24.7465 251.267 31.9408C250.589 33.0388 249.801 37.8942 249.519 42.7323C249.236 47.5686 246.302 59.3431 242.999 68.8973C237.232 85.5762 223.928 117.498 221.233 121.126C217.274 126.454 207.167 161.461 207.167 169.844C207.167 177.486 210.106 173.279 211.358 163.846C211.998 159.021 214.154 149.789 216.146 143.328C220.287 129.914 236.847 91.7911 238.915 90.9179C239.669 90.5973 240.288 88.5006 240.288 86.2558C240.288 84.0128 242.769 76.0395 245.802 68.5384C248.835 61.0373 251.677 50.7824 252.119 45.7492C252.571 40.5991 253.781 36.6011 254.886 36.6046C255.965 36.6063 260.142 34.8653 264.165 32.7356C268.188 30.6041 272.067 29.4467 272.783 30.1648C274.968 32.3485 270.179 51.3523 259.559 82.6378C254 99.0134 248.617 114.49 247.596 117.027C246.574 119.566 243.64 127.801 241.074 135.327C238.51 142.854 235.714 149.757 234.863 150.667C232.902 152.766 232.846 156.854 234.78 156.854C235.585 156.854 237.309 153.522 238.613 149.447C239.915 145.373 243.878 134.982 247.416 126.355C250.957 117.728 257.037 100.474 260.928 88.0127C264.82 75.5515 269.339 61.3352 270.971 56.4187L273.938 47.4833L280.211 49.0415C297.772 53.4073 299.326 54.1078 300.006 57.9839C300.645 61.6281 300.779 61.6629 302.157 58.5485C304.217 53.8899 298.322 49.5295 287.854 47.9714C276.174 46.2338 274.877 44.7437 276.219 34.6196C277.34 26.1791 277.323 26.1424 272.327 26.1528C269.566 26.1598 265.061 27.3362 262.315 28.767C255.855 32.1359 256.085 32.204 254.042 26.3394C252.395 21.618 247.399 19.1711 239.406 19.1711C236.593 19.1711 226.343 29.6053 226.343 32.4705C226.343 33.6696 225.584 35.1197 224.659 35.6913C223.602 36.3431 223.363 32.57 224.017 25.5708L225.059 14.4097L216.549 14.7879C206.571 15.2306 195.892 20.0424 200.75 21.9055C202.386 22.5329 204.695 22.2454 205.882 21.2642C209.337 18.4094 220.552 16.8531 221.904 19.0403C223.064 20.9156 221.737 29.1122 216.526 52.2848C215.125 58.5154 214.081 64.3102 214.208 65.1607C214.334 66.0129 213.751 67.1893 212.911 67.7749C209.168 70.3909 194.653 125.34 194.56 137.247C194.543 139.403 193.84 141.169 192.997 141.169C192.155 141.169 191.665 138.65 191.907 135.573C192.21 131.731 191.531 129.818 189.735 129.475C185.326 128.629 182.872 131.411 179.323 141.282C175.598 151.636 175.341 151.439 175.767 138.555C176.026 130.66 183.855 87.8592 185.537 85.1386C185.921 84.5165 186.66 80.5952 187.178 76.4246C187.694 72.254 188.825 66.0967 189.688 62.7418C190.551 59.3868 192.51 47.954 194.042 37.3332C197.701 11.9611 195.897 6.82138 184.932 11.4015C181.709 12.7487 176.766 15.492 173.945 17.4997L168.816 21.1509V16.5604C168.816 9.11674 165.795 5.22851 160.013 5.22851C148.567 5.22851 143.747 26.6844 141.802 86.2699C140.486 126.655 136.94 164.767 133.989 170.272L130.896 176.043L128.874 171.165C127.718 168.371 124.457 165.291 121.251 163.962C117.045 162.217 116.4 161.447 118.666 160.868C121.488 160.146 121.617 155.228 120.665 84.71C119.757 17.3463 119.942 9.02791 122.412 6.55832C125.871 3.10056 131.672 4.45468 134.283 9.33111C137.838 15.9713 137.55 31.1007 132.017 128.605C130.42 156.739 130.399 166.199 131.932 167.731C133.464 169.263 134.017 166.191 134.215 155.024C134.36 146.925 134.641 137.945 134.838 135.069C135.143 130.639 137.827 76.9615 139.895 33.9851C141.021 10.5964 136.372 0 124.983 0C121.094 0 119.904 1.12938 118.131 6.50252ZM164.652 13.2246C165.616 17.0623 164.84 31.7787 162.548 53.1562C161.676 61.2795 158.824 78.0855 156.042 91.4983C154.649 98.2082 152.517 109.972 151.302 117.641C148.637 134.464 147.464 189.968 149.772 189.968C150.659 189.968 151.384 193.914 151.384 198.738C151.384 203.562 152.561 210.324 153.999 213.765C157.362 221.811 157.255 224.913 153.771 220.468C150.359 216.116 144.692 203.341 143.667 197.692C143.243 195.353 141.277 191.167 139.297 188.385C135.709 183.35 134.416 176.025 137.113 176.025C137.892 176.025 138.72 172.35 138.953 167.858C139.185 163.367 139.78 159.04 140.275 158.24C140.768 157.442 141.53 147.98 141.969 137.214C144.356 78.5857 146.934 42.8264 149.915 27.0138C152.81 11.6438 162.079 2.97152 164.652 13.2246ZM192.407 24.8353C190.504 42.7725 181.591 89.7521 173.812 122.847C172.688 127.627 171.848 137.553 171.942 144.906C172.097 156.861 171.651 158.796 167.713 163.228C165.292 165.954 161.444 171.058 159.163 174.572C156.879 178.085 154.292 181.405 153.413 181.949C150.9 183.502 152.523 133.868 155.659 113.284C157.191 103.219 159.917 87.1413 161.716 77.5558C163.514 67.9702 165.951 53.069 167.131 44.4421C169.177 29.4782 169.617 28.4168 176.661 21.3496C181.748 16.2483 185.527 13.9427 188.806 13.9427H193.563L192.407 24.8353ZM95.5997 29.9121C98.4568 36.6081 100.986 46.4237 101.649 53.388C102.274 59.9707 103.071 67.7088 103.416 70.5845C103.761 73.4601 104.555 82.8713 105.177 91.4983C105.799 100.125 107.019 111.497 107.889 116.769C110.694 133.788 111.266 140.979 109.882 141.833C109.138 142.293 108.412 141.352 108.269 139.742C108.128 138.129 101.809 121.519 94.226 102.827C76.8392 59.9602 72.1308 40.024 76.3686 27.1863C78.2042 21.6285 84.7151 17.0066 89.223 18.0627C90.0301 18.251 92.8994 23.5839 95.5997 29.9121ZM67.71 80.2727C67.71 81.2871 68.4945 81.634 69.4532 81.0414C70.412 80.4488 71.1964 79.6194 71.1964 79.1958C71.1964 78.7723 70.412 78.4272 69.4532 78.4272C68.4945 78.4272 67.71 79.2584 67.71 80.2727ZM209.588 91.4983C203.777 115.805 199.474 128.399 201.254 115.898C202.399 107.865 210.575 79.506 211.483 80.4262C211.816 80.7643 210.964 85.747 209.588 91.4983ZM361.877 97.9677C365.641 101.077 364.273 106.211 358.013 112.47C354.69 115.793 351.474 118.512 350.867 118.512C347.607 118.512 317.096 138.26 303.916 148.9C299.122 152.769 294.874 156.141 294.473 156.394C294.073 156.647 294.312 157.419 295.004 158.111C295.695 158.803 296.807 158.541 297.473 157.53C299.345 154.693 329.07 132.455 330.989 132.455C332.815 132.455 322.413 142.02 315.246 146.929C312.85 148.571 307.371 152.597 303.07 155.873C298.327 159.488 294.807 161.117 294.126 160.014C293.188 158.496 279.776 167.904 262.495 182.2C260.806 183.596 258.714 184.74 257.846 184.74C256.978 184.74 255.986 185.583 255.642 186.613C255.266 187.744 253.137 188.016 250.28 187.3C247.674 186.646 245.999 185.372 246.557 184.469C247.172 183.472 248.459 183.565 249.831 184.703C251.553 186.13 252.923 185.165 255.592 180.646C257.516 177.383 259.607 173.094 260.234 171.114C260.863 169.136 265.065 164.859 269.572 161.61C274.079 158.362 285.242 148.708 294.378 140.158C315.914 120.004 335.841 102.384 339.427 100.326C340.988 99.4281 343.368 97.6 344.714 96.2598C347.367 93.6194 357.88 94.6651 361.877 97.9677ZM376.886 116.135C382.733 116.937 384.965 118.022 384.94 120.056C384.898 123.413 364.128 139.015 331.31 160.338C318.161 168.883 300.57 180.613 292.219 186.406C283.869 192.199 276.408 196.939 275.641 196.939C274.874 196.939 272.13 198.9 269.545 201.296C266.961 203.693 264.027 205.653 263.027 205.653C262.026 205.653 261.207 206.319 261.207 207.131C261.207 207.945 258.069 210.024 254.234 211.753C250.399 213.482 247.261 215.561 247.261 216.375C247.261 217.187 246.022 217.853 244.509 217.853C242.31 217.853 242.004 216.708 242.987 212.189C245.358 201.288 247.09 199.078 258.074 192.936C264.162 189.534 270.69 184.956 272.583 182.763L276.024 178.776L271.079 181.897C263.546 186.651 263.574 184.008 271.115 178.427C274.774 175.721 279.627 171.731 281.9 169.565C284.174 167.397 286.64 165.999 287.383 166.457C288.126 166.916 289.25 165.945 289.881 164.3C290.805 161.894 291.316 161.773 292.494 163.678C293.657 165.558 295.41 165.009 301.001 161.014C313.266 152.251 328.134 140.674 333.639 135.602C339.597 130.111 363.87 115.1 366.863 115.056C367.928 115.04 372.44 115.525 376.886 116.135ZM201.938 125.483C201.938 126.442 201.592 127.226 201.169 127.226C200.745 127.226 199.915 126.442 199.323 125.483C198.73 124.525 199.077 123.741 200.091 123.741C201.106 123.741 201.938 124.525 201.938 125.483ZM187.301 138.954C185.53 140.726 184.068 138.058 185.522 135.707C186.62 133.929 187.031 133.929 187.621 135.7C188.025 136.911 187.88 138.375 187.301 138.954ZM391.397 148.295C395.535 150.298 398.884 152.455 398.841 153.088C398.762 154.202 394.563 157.532 377.986 169.627C373.662 172.782 365.033 178.136 358.811 181.526C352.588 184.916 343.497 190.072 338.609 192.985C333.721 195.895 328.04 198.813 325.981 199.466C323.924 200.118 321.255 201.582 320.051 202.719C318.846 203.853 313.289 207.135 307.698 210.011C302.11 212.886 296.226 216.03 294.624 216.999C270.15 231.796 270.387 231.702 259.035 231.125C253.038 230.82 246.365 231.367 244.203 232.338C242.042 233.31 239.757 233.589 239.125 232.958C236.819 230.653 242.066 223.113 247.638 220.725C266.864 212.487 279.788 205.552 295.199 195.209C304.787 188.774 316.946 180.785 322.219 177.458C343.72 163.887 363.328 151.079 369.018 146.889C373.419 143.647 383.042 144.252 391.397 148.295ZM287.803 168.195C282.26 171.088 276.871 176.229 277.033 178.474C277.114 179.576 277.542 179.462 278.05 178.204C278.534 177.007 280 176.025 281.31 176.025C283.766 176.025 293.685 167.715 292.423 166.715C292.032 166.407 289.954 167.071 287.803 168.195ZM120.006 171.771C120.006 173.265 119.222 174.004 118.263 173.411C117.304 172.819 116.52 171.597 116.52 170.694C116.52 169.791 117.304 169.054 118.263 169.054C119.222 169.054 120.006 170.277 120.006 171.771ZM504.46 175.905C503.908 176.798 504.254 178.019 505.229 178.622C506.203 179.223 507 178.493 507 177C507 173.937 505.954 173.488 504.46 175.905ZM236.249 226.895C235.693 228.284 235.28 227.871 235.196 225.841C235.121 224.004 235.533 222.975 236.111 223.554C236.69 224.132 236.753 225.637 236.249 226.895ZM427.579 263.381C427.924 263.744 426.674 267.273 424.804 271.226C421.588 278.021 420.81 278.531 410.597 280.543C404.654 281.714 396.845 283.768 393.243 285.109C385.657 287.934 352.438 289.706 313.352 289.372C290.754 289.178 285.804 289.593 283.94 291.836C281.928 294.26 285.134 294.459 315.47 293.792C334.044 293.382 363.016 292.5 379.855 291.831C405.386 290.817 412.07 291.08 420.089 293.41C427.246 295.491 430.225 297.349 431.745 300.681C434.212 306.098 434.303 307.262 432.148 305.932C431.249 305.376 429.877 305.918 429.098 307.136C425.852 312.222 420.538 313.402 407.482 311.941C400.376 311.145 378.089 309.958 357.955 309.303C337.821 308.647 320.624 307.673 319.739 307.136C315.961 304.843 303.75 303.684 300.678 305.327C298.872 306.295 297.835 306.369 298.376 305.496C298.916 304.623 294.854 302.978 289.351 301.842C278.339 299.567 274.891 297.248 276.456 293.168C277.105 291.481 276.774 290.921 275.569 291.665C274.515 292.317 273.155 292.051 272.55 291.073C271.945 290.095 268.037 289.577 263.863 289.926C258.421 290.379 256.507 289.957 257.091 288.436C258.093 285.823 263.138 283.399 273.409 280.59C277.724 279.41 283.529 277.752 286.307 276.905C294.403 274.439 307.263 275.011 336.744 279.143C363.924 282.953 368.862 282.739 370.548 277.679C371.134 275.926 360.988 271.536 351.418 269.399C337.582 266.311 354.301 263.864 393.674 263.214C403.73 263.048 412.345 262.525 412.819 262.053C413.74 261.133 426.53 262.285 427.579 263.381ZM78.1693 284.081C78.1693 285.039 77.3378 285.823 76.3232 285.823C75.3087 285.823 74.9618 285.039 75.5545 284.081C76.1472 283.122 76.977 282.338 77.4006 282.338C77.8242 282.338 78.1693 283.122 78.1693 284.081ZM357.748 315.418C358.726 316.396 362.589 317.194 366.333 317.194C370.078 317.194 377.568 318.299 382.981 319.648C388.392 320.999 397.134 322.553 402.407 323.104C414.514 324.369 425.561 327.451 427.222 330.023C427.926 331.116 428.513 335.215 428.529 339.135C428.552 345.121 427.834 346.592 424.053 348.314C419.011 350.611 408.423 348.56 401.33 343.914C395.83 340.311 343.007 327.519 319.604 324.122C313.852 323.287 307.369 322.076 305.197 321.431C302.021 320.488 301.463 320.816 302.34 323.104C303.074 325.014 302.653 325.703 301.058 325.203C299.754 324.793 296.528 323.984 293.892 323.406C286.834 321.86 288.031 319.798 297.378 317.403C301.933 316.236 308.012 314.653 310.888 313.887C318.013 311.983 355.541 313.212 357.748 315.418ZM24.1297 316.323C24.1297 317.761 23.3696 318.937 22.4405 318.937C21.5131 318.937 21.2045 317.761 21.7554 316.323C22.308 314.885 23.068 313.709 23.4446 313.709C23.8211 313.709 24.1297 314.885 24.1297 316.323ZM303.4 418.2C304.569 420.073 305.77 421.361 306.07 421.063C307.102 420.03 304.407 414.793 302.843 414.793C301.979 414.793 302.228 416.326 303.4 418.2ZM259.464 426.992C259.464 427.951 259.118 428.735 258.695 428.735C258.271 428.735 257.441 427.951 256.849 426.992C256.256 426.034 256.603 425.249 257.618 425.249C258.632 425.249 259.464 426.034 259.464 426.992ZM297.952 452.408C298.036 454.438 298.449 454.851 299.005 453.462C299.509 452.204 299.446 450.7 298.867 450.121C298.288 449.543 297.877 450.571 297.952 452.408Z" fill="black"/>
</svg>
