<svg width="884" height="961" viewBox="0 0 884 961" fill="none" xmlns="http://www.w3.org/2000/svg">
<path fill-rule="evenodd" clip-rule="evenodd" d="M512.78 6.36327C510.855 10.5643 507.435 15.1943 502.347 20.4863C496.762 26.2953 494.225 29.8333 492.666 33.9863C490 41.0853 486.762 53.7943 486.742 57.2383L486.727 59.8623L482.477 57.9083C475.561 54.7283 475.298 54.5293 474.697 52.0183C473.7 47.8563 475.551 39.9162 478.697 34.8542C482.187 29.2402 482.641 27.6813 479.696 31.4263C475.64 36.5823 472.456 45.0563 473.013 49.2123L473.537 53.1133H469.525C466.392 53.1133 465.638 52.7883 466.081 51.6323C466.48 50.5933 465.69 49.8993 463.438 49.3103C460.279 48.4843 460.263 48.4513 462.467 47.2623C467.306 44.6513 469.564 35.0973 467.819 24.6133L466.82 18.6133L467.308 26.6133C467.966 37.4073 466.029 43.7653 461.139 46.8633C457.936 48.8933 456.342 49.1133 444.845 49.1133C433.212 49.1133 431.638 49.3373 426.781 51.6803C423.471 53.2763 421.815 54.6013 422.398 55.1843C422.981 55.7673 425.015 55.2753 427.781 53.8843C431.697 51.9133 434.088 51.6043 447.838 51.2943C463.136 50.9493 463.46 50.9863 464.014 53.1033C464.374 54.4803 465.241 55.1652 466.403 54.9902C469.276 54.5592 477.146 57.4532 490.131 63.7132C491.728 64.4832 493.64 65.1133 494.381 65.1133C495.167 65.1133 495.753 66.2563 495.79 67.8633C495.853 70.6003 495.858 70.6023 496.8 68.2493C497.535 66.4143 498.248 66.0263 499.987 66.5143C509.49 69.1823 517.999 71.0743 522.227 71.4613C532.91 72.4373 540.288 76.0063 543.884 81.9373C546.765 86.6883 554.568 93.8493 557.468 94.4043C560.462 94.9763 560.342 93.7803 557.239 92.1193C554.421 90.6113 545.727 81.7303 545.727 80.3593C545.727 78.9473 541.642 75.5323 536.727 72.8353C533.567 71.1003 529.365 70.0323 522.616 69.2463C517.33 68.6313 511.382 67.4492 509.398 66.6202C507.414 65.7912 504.413 65.1133 502.728 65.1133C498.705 65.1133 498.26 63.5452 500.282 56.4802C502.368 49.1902 506.849 40.8273 511.321 35.8773C513.194 33.8043 514.707 31.7712 514.682 31.3602C514.658 30.9492 512.683 32.7933 510.295 35.4573C505.487 40.8213 500.44 50.3972 498.628 57.5942C497.978 60.1732 496.831 62.5202 496.079 62.8082C494.765 63.3122 487.727 60.5443 487.727 59.5243C487.727 59.2523 488.446 55.5603 489.326 51.3213C490.205 47.0823 491.063 42.9383 491.233 42.1133C492.628 35.3183 496.307 28.9172 502.743 22.0842C509.146 15.2872 513.253 9.11926 515.751 2.55126C517.611 -2.34174 515.566 0.282268 512.78 6.36327ZM528.042 20.5112C526.841 22.3672 523.579 25.3622 520.794 27.1672C514.993 30.9262 514.685 32.5043 520.424 29.0593C524.48 26.6253 531.727 19.5533 531.727 18.0293C531.727 16.1773 530.17 17.2262 528.042 20.5112ZM417.623 57.3902C408.912 65.6702 401.249 77.2163 400.22 83.6133C399.298 89.3443 395.896 101.493 393.986 105.872C393.089 107.93 392.444 109.964 392.551 110.393C392.659 110.822 392.103 112.42 391.315 113.943C390.157 116.182 389.053 116.795 385.555 117.14C377.111 117.975 370.138 117.35 365.689 115.361C363.235 114.263 359.427 112.8 357.227 112.109C355.027 111.418 352.777 110.515 352.227 110.102C351.677 109.69 346.727 108.592 341.227 107.663C329.292 105.647 315.191 106.293 306.727 109.244C303.702 110.298 300.226 111.382 299.003 111.652C297.78 111.922 295.53 112.655 294.003 113.281C292.476 113.908 290.72 114.528 290.101 114.66C286.856 115.35 284.727 116.349 284.727 117.18C284.727 117.693 284.165 118.114 283.477 118.115C281.188 118.12 265.436 129.079 258.019 135.828C254.073 139.419 252.241 142.213 245.703 154.613C243.036 159.673 236.214 170.469 233.989 173.152C233.322 173.955 231.738 175.896 230.467 177.463C228.37 180.051 227.426 180.364 220.193 180.862C215.812 181.164 211.327 181.328 210.227 181.228C209.127 181.128 205.162 181.069 201.415 181.097C194.365 181.149 191.635 182.222 186.841 186.823C183.497 190.032 184.874 189.673 190.137 185.964L194.605 182.814L210.666 182.687C219.499 182.617 226.727 182.706 226.727 182.885C226.727 183.063 225.838 185.049 224.752 187.297C223.666 189.546 223.017 191.774 223.311 192.249C223.605 192.724 223.368 193.113 222.786 193.113C222.204 193.113 221.727 194.694 221.727 196.626C221.727 199.49 220.846 201.014 216.959 204.876C209.535 212.25 203.682 216.581 198.092 218.835C187.352 223.167 168.614 237.667 168.772 241.524C168.796 242.123 169.584 241.529 170.522 240.204C173.785 235.595 178.489 231.486 185.337 227.261C194.416 221.66 194.364 221.689 200.727 218.712C206.277 216.115 208.3 214.673 215.917 207.884C218.219 205.832 220.294 204.347 220.529 204.582C220.765 204.817 219.807 208.296 218.401 212.311C216.995 216.327 215.128 222.538 214.252 226.113C213.375 229.688 212.268 233.513 211.79 234.613C210.293 238.061 206.918 247.273 203.83 256.332C200.915 264.889 195.505 275.677 191.154 281.613C189.945 283.263 187.892 286.587 186.591 288.999C183.346 295.019 182.358 296.648 180.852 298.463C180.138 299.322 179.891 300.608 180.301 301.319C180.712 302.031 180.677 302.277 180.224 301.866C179.275 301.006 174.764 305.76 172.658 309.84C170.65 313.73 167.069 317.697 152.477 332.188C145.464 339.152 139.727 345.599 139.727 346.513C139.727 347.428 140.515 348.427 141.477 348.735C148.966 351.128 152.216 357.095 153.298 370.438C154.013 379.252 152.281 390.561 149.113 397.764C148.351 399.497 147.727 401.153 147.727 401.444C147.727 401.735 146.377 404.89 144.727 408.455C143.077 412.02 141.718 415.314 141.707 415.775C141.689 416.479 132.682 429.414 129.982 432.613C129.518 433.163 128.033 435.176 126.682 437.086C125.332 438.996 123.665 441.166 122.977 441.907C122.29 442.649 121.727 443.706 121.727 444.256C121.727 444.806 121.165 445.883 120.477 446.65C117.479 449.993 116.566 451.309 114.326 455.523C113.02 457.98 111.046 461.261 109.94 462.814C108.042 465.479 102.694 476.381 99.4908 484.113C98.6928 486.038 97.7248 489.301 97.3388 491.363C96.9518 493.426 96.2428 495.113 95.7608 495.113C95.2798 495.113 94.6018 496.407 94.2538 497.989C93.6498 500.741 85.5368 513.89 81.2628 519.046C78.3198 522.596 73.8408 526.751 69.0078 530.415C66.6868 532.174 64.7388 534.288 64.6788 535.113C64.6158 535.974 64.3698 536.129 64.1018 535.476C63.7798 534.691 62.3998 534.936 59.6488 536.265C57.4558 537.324 55.2448 537.933 54.7348 537.618C54.2248 537.303 53.0028 537.467 52.0178 537.982C51.0328 538.497 48.2358 539.51 45.8038 540.233C38.0948 542.524 28.5538 548.954 20.9888 556.957C10.5978 567.948 12.0378 568.965 23.0648 558.422C28.2018 553.512 34.0878 548.695 36.1468 547.718C38.2048 546.741 39.6148 545.667 39.2788 545.331C38.6418 544.694 45.3058 541.113 47.1278 541.113C47.7018 541.113 47.1718 541.814 45.9498 542.67C44.7268 543.526 43.7268 544.664 43.7268 545.2C43.7268 545.735 45.0288 545.21 46.6198 544.034C48.2118 542.857 51.6128 541.502 54.1778 541.023C61.1118 539.728 64.9248 537.583 72.2898 530.834C78.7788 524.889 84.1118 518.527 90.2758 509.38C91.9528 506.891 93.6878 505.026 94.1318 505.234C95.2518 505.76 95.7288 514.59 96.2058 543.613C96.4318 557.363 96.9788 572.438 97.4208 577.113C98.4438 587.922 98.4498 601.639 97.4358 610.613C97.0008 614.463 96.4658 619.638 96.2478 622.113C96.0288 624.588 95.5688 629.088 95.2238 632.113C94.8788 635.138 94.4748 638.738 94.3248 640.113C93.8388 644.58 89.5068 657.444 86.0758 664.613C83.1578 670.709 77.9768 678.665 73.2318 684.338C70.8158 687.227 64.9348 698.432 63.2868 703.286C58.6148 717.045 57.6648 730.731 59.0988 763.613C59.6838 777.025 59.6248 785.443 58.9188 789.167C57.5128 796.59 49.0388 817.9 46.0858 821.44C44.7878 822.994 43.7268 824.731 43.7268 825.299C43.7268 825.866 45.5358 824.144 47.7468 821.472C52.1378 816.164 58.6398 800.713 60.7278 790.628C62.2058 783.485 62.2418 771.778 60.8448 752.113C59.4478 732.436 59.9798 724.584 63.7388 709.389C65.8748 700.753 72.8198 687.669 78.9418 680.749C79.8858 679.683 80.4148 678.417 80.1178 677.937C79.8208 677.456 80.1598 677.187 80.8708 677.338C82.4418 677.672 90.0468 662.949 92.3258 655.161C96.0118 642.564 96.7088 639.092 97.7618 628.113C98.3688 621.788 99.4678 611.438 100.206 605.113C100.944 598.788 101.314 591.926 101.028 589.863C100.657 587.186 100.88 586.113 101.809 586.113C102.7 586.113 102.596 585.719 101.478 584.863C100.323 583.978 99.6648 581.278 99.2218 575.613C98.7138 569.112 97.8738 528.298 97.8038 506.77C97.7678 495.652 104.141 477.35 113.528 461.613C120.756 449.496 126.111 441.077 127.679 439.367C133.674 432.829 142.451 418.846 146.757 408.97C149.48 402.724 151.713 396.896 151.718 396.02C151.723 395.143 152.557 391.993 153.572 389.02C156.692 379.876 157.031 371.851 154.662 363.188C151.609 352.025 149.292 347.472 146.279 346.715C142.151 345.679 141.739 346.259 157.87 330.431C170.201 318.331 171.657 316.682 176.248 309.613C178.39 306.313 180.527 303.163 180.995 302.613C181.463 302.063 182.831 300.065 184.036 298.174C185.241 296.283 187.249 293.133 188.498 291.174C189.747 289.215 191.058 286.938 191.411 286.113C191.764 285.288 192.992 283.269 194.14 281.627C195.288 279.985 196.729 277.735 197.343 276.627C202.695 266.972 204.727 262.582 204.727 260.678C204.727 259.451 205.003 258.17 205.341 257.833C206.347 256.826 216.634 227.417 217.136 224.113C217.261 223.288 217.884 221.375 218.521 219.863C221.328 213.19 224.727 201.821 224.727 199.102C224.727 195.448 229.329 183.567 232.149 179.941C233.292 178.472 235.22 176.001 236.433 174.451C237.646 172.901 239.446 169.946 240.433 167.884C241.42 165.823 242.565 164.131 242.977 164.124C243.389 164.118 243.727 163.586 243.727 162.942C243.727 162.298 244.365 161.06 245.145 160.192C245.925 159.323 248.384 155.013 250.609 150.613C252.835 146.213 255.909 141.259 257.441 139.604C260.142 136.687 271.905 127.113 272.789 127.113C273.03 127.113 273.227 130.6 273.227 134.863C273.227 140.878 273.758 143.788 275.6 147.863C276.905 150.751 278.624 153.113 279.418 153.113C280.561 153.113 280.46 152.538 278.936 150.363C275.747 145.814 273.41 137.369 274.201 133.261C274.588 131.255 274.873 128.647 274.835 127.465C274.783 125.841 276.407 124.358 281.497 121.38C289.607 116.636 296.27 114.095 308.227 111.19C322.182 107.8 325.138 107.249 326.124 107.858C327.033 108.42 335.183 109.313 339.477 109.32C340.714 109.323 341.727 109.676 341.727 110.105C341.727 110.535 343.698 111.182 346.108 111.543C348.518 111.904 354.255 113.576 358.858 115.258C369.287 119.068 376.707 120.429 383.465 119.77L388.704 119.26L386.228 123.436C382.611 129.54 381.757 131.747 379.578 140.613C378.496 145.013 377.206 149.513 376.711 150.613C375.894 152.426 375.106 155.383 373.308 163.363C372.453 167.158 371.365 166.828 367.642 161.645C365.877 159.187 363.98 157.457 363.426 157.799C362.871 158.142 362.699 157.968 363.042 157.413C364.848 154.49 350.264 146.724 340.727 145.53C337.152 145.082 327.748 144.693 319.829 144.665L305.43 144.613L304.023 140.613C303.156 138.147 302.674 133.161 302.766 127.613C302.955 116.169 302.889 115.113 301.977 115.111C301.565 115.11 301.452 120.869 301.727 127.908C302.122 138.032 302.609 141.29 304.057 143.497C305.063 145.031 305.717 146.456 305.509 146.664C305.301 146.872 302.264 147.711 298.759 148.528C291.764 150.16 284.764 154.475 276.455 162.276C273.621 164.936 270.911 167.113 270.432 167.113C269.952 167.113 269.738 167.646 269.955 168.297C270.172 168.949 268.11 171.311 265.371 173.547C260.179 177.788 254.516 187.342 251.109 197.613C250.197 200.363 248.649 204.413 247.67 206.613C245.419 211.671 240.727 225.719 240.727 227.4C240.727 228.097 239.57 232.212 238.155 236.543C236.74 240.875 235.335 246.487 235.032 249.016C234.73 251.544 234.087 253.763 233.604 253.946C233.122 254.13 232.72 255.48 232.712 256.946C232.684 261.821 231.609 262.26 226.191 259.607C220.498 256.818 217.853 256.355 219.593 258.451C220.203 259.187 222.455 260.314 224.596 260.956C230.808 262.817 231.004 263.558 228.112 274.186C225.991 281.979 225.638 285.012 226.075 291.686C226.558 299.047 226.422 299.885 224.536 301.186C217.429 306.087 209.605 313.587 203.734 321.127C201.814 323.594 199.901 325.763 199.484 325.946C199.068 326.13 198.727 326.88 198.727 327.613C198.727 328.346 198.343 329.096 197.874 329.28C196.811 329.695 187.727 340.846 187.727 341.736C187.727 342.094 185.787 345.363 183.415 349C178.045 357.236 176.585 360.818 176.218 366.652C176.059 369.178 175.664 371.509 175.341 371.833C175.017 372.156 175.018 374.083 175.343 376.114C176.462 383.113 170.507 401.996 164.534 410.384C161.245 415.003 152.727 429.291 152.727 430.189C152.727 430.606 152.39 431.096 151.977 431.28C150.774 431.814 146.349 439.124 143.386 445.47C141.882 448.691 139.094 453.763 137.189 456.739C135.285 459.716 133.727 462.451 133.727 462.817C133.727 463.182 132.866 465.311 131.813 467.547C127.193 477.361 125.753 481.156 123.622 489.132C121.603 496.69 121.35 500.033 121.292 519.852C121.243 536.762 120.925 542.206 119.967 542.574C117.924 543.359 109.088 541.338 104.64 539.069C102.373 537.912 100.84 537.486 101.233 538.122C102.63 540.382 111.261 543.355 116.763 543.471C120.96 543.56 122.311 543.953 122.351 545.1C122.38 545.932 122.796 553.813 123.276 562.613C124.128 578.235 124.153 586.02 123.353 586.82C122.736 587.437 111.542 587.34 107.162 586.68L103.227 586.087L107.727 587.613C110.301 588.486 114.77 589.026 118.168 588.876L124.109 588.613L124.884 592.113C126.191 598.014 126.843 616.22 126.013 623.613L125.227 630.613L119.227 631.192C115.677 631.535 111.389 631.266 108.727 630.534C99.8958 628.105 99.2908 628.116 104.227 630.611C108.754 632.899 109.961 633.078 116.977 632.497C123.447 631.961 124.727 632.1 124.727 633.337C124.727 636.151 119.794 648.409 117.015 652.502C113.9 657.087 108.232 664.964 106.7 666.836C106.15 667.508 104.114 671.217 102.177 675.077C100.24 678.937 95.8298 686.262 92.3768 691.354C88.9248 696.447 84.7878 703.988 83.1838 708.113C81.5798 712.238 79.9208 715.763 79.4968 715.946C79.0738 716.13 78.7268 717.172 78.7268 718.262C78.7268 719.352 78.3038 721.035 77.7868 722C77.2698 722.966 75.4168 729.124 73.6688 735.685C71.0188 745.631 70.4318 749.856 70.1338 761.113C69.4348 787.615 68.1068 795.64 62.3218 808.335C58.1768 817.432 56.7018 822.455 57.7028 824.073C58.5368 825.424 59.7198 823.218 59.7358 820.281C59.7408 819.364 60.8518 816.363 62.2048 813.613C63.5578 810.863 64.6788 807.973 64.6958 807.192C64.7128 806.41 65.3658 805.06 66.1468 804.192C68.8808 801.154 71.7268 782.055 71.7268 766.751C71.7268 756.164 72.2068 750.573 73.5908 745.051C74.6158 740.96 76.0378 735.025 76.7508 731.863C77.4628 728.701 78.3118 726.113 78.6368 726.113C78.9608 726.114 81.4728 730.951 84.2178 736.863C88.6578 746.428 93.5438 754.194 101.048 763.613C102.362 765.263 104.017 768.413 104.725 770.613C106.017 774.63 108.727 779.374 108.727 777.619C108.727 775.131 105.002 767.187 102.158 763.613C100.408 761.413 98.2608 758.204 97.3878 756.483C96.5138 754.761 94.6418 751.977 93.2278 750.296C90.4278 746.969 85.0628 736.664 81.8238 728.394C79.8588 723.374 79.8438 722.975 81.4528 717.894C83.2378 712.256 91.0978 695.95 93.0518 693.832C95.2718 691.427 98.7268 686.193 98.7268 685.237C98.7268 684.71 99.0638 684.13 99.4768 683.946C100.595 683.45 105.768 673.488 105.203 672.922C104.934 672.654 105.617 671.617 106.721 670.619C107.824 669.62 108.727 668.235 108.727 667.541C108.727 666.847 109.103 666.13 109.563 665.946C110.022 665.763 111.937 663.363 113.817 660.613C115.698 657.863 118.463 654.007 119.962 652.044C127.497 642.179 130.847 617.352 127.69 594.766C126.699 587.675 126.769 586.712 128.41 584.783C129.699 583.268 129.76 583.007 128.62 583.884C127.236 584.949 127.007 584.739 126.966 582.366C126.784 571.803 125.52 550.204 124.67 543.113C123.426 532.746 123.137 513.085 124.088 503.655C125.03 494.324 128.235 481.737 131.23 475.613C132.574 472.863 134.346 468.687 135.166 466.334C135.987 463.98 138.187 459.705 140.055 456.834C141.923 453.962 144.21 450.039 145.137 448.114C146.064 446.19 148.922 440.874 151.489 436.301C156.335 427.667 157.423 427.371 157.702 434.613C157.765 436.263 158.479 438.963 159.287 440.613C160.096 442.263 160.469 442.713 160.116 441.613C159.763 440.513 159.254 436.211 158.983 432.052C158.587 425.958 158.806 424.177 160.109 422.873C160.999 421.984 161.727 420.875 161.727 420.409C161.727 419.943 163.738 416.329 166.197 412.379C174.865 398.451 177.54 390.003 178.076 374.872C178.429 364.881 178.683 363.788 182.293 356.678C184.405 352.517 186.443 349.113 186.821 349.113C187.2 349.113 188.243 347.426 189.14 345.363C190.037 343.301 193.011 338.935 195.749 335.663C198.487 332.39 200.727 329.127 200.727 328.413C200.727 327.698 201.303 327.113 202.006 327.113C202.71 327.113 203.947 326.137 204.756 324.945C207.462 320.955 216.052 311.636 218.888 309.613C220.431 308.513 221.7 306.976 221.71 306.196C221.719 305.417 222.014 305.066 222.364 305.417C222.715 305.767 224.29 305.136 225.865 304.015C228.647 302.034 228.72 301.756 228.424 294.294C228.108 286.356 229.163 277.105 230.781 273.613C231.29 272.513 233.093 266.213 234.787 259.613C242.717 228.716 244.896 220.921 248.208 211.613C256.932 187.095 259.209 182.974 270.198 171.824C275.461 166.483 280.108 162.113 280.525 162.113C280.942 162.113 282.026 161.326 282.934 160.363C285.384 157.768 287.292 156.302 291.298 153.939C294.546 152.022 297.27 151.187 305.967 149.439C307.474 149.137 308.529 148.602 308.312 148.251C308.094 147.9 309.674 147.68 311.822 147.761C313.97 147.842 315.727 147.581 315.727 147.18C315.727 146.476 320.202 146.576 331.727 147.538C343.168 148.492 354.256 151.442 355.149 153.77C355.646 155.065 356.02 155.115 357.295 154.056C358.145 153.351 358.702 153.216 358.533 153.756C358.02 155.401 369.121 168.411 371.8 169.304C372.825 169.646 372.846 170.897 371.903 175.589C371.256 178.81 370.727 183.145 370.727 185.221C370.727 187.297 370.277 189.273 369.727 189.613C369.177 189.953 368.727 190.982 368.727 191.901C368.727 193.617 363.828 207.113 363.205 207.113C363.014 207.113 361.665 206.66 360.208 206.106C358.751 205.552 357.12 205.37 356.583 205.702C356.046 206.034 353.496 206.425 350.917 206.571C345.577 206.873 332.243 212.52 333.203 214.073C333.568 214.664 333.203 214.849 332.331 214.515C331.374 214.147 328.568 216.141 324.573 220.026C321.13 223.374 317.957 226.113 317.52 226.113C317.084 226.113 316.727 226.529 316.727 227.037C316.727 227.545 314.589 230.255 311.977 233.06C301.112 244.726 294.195 261.282 291.901 281.113C291.238 286.847 291.094 308.05 291.577 328.596C291.838 339.647 290.629 355.63 288.765 365.798C288.267 368.514 288.388 370.408 289.112 371.195C289.945 372.099 289.908 372.226 288.97 371.696C288.209 371.267 287.485 371.702 287.135 372.8C285.735 377.195 282.919 383.148 278.947 390.11C276.592 394.237 274.38 398.728 274.031 400.091C273.681 401.454 271.86 404.707 269.983 407.32C264.301 415.229 262.617 421.107 262.308 434.113C262.061 444.495 261.031 450.609 257.661 461.684C257.147 463.373 256.727 465.426 256.727 466.246C256.727 467.066 255.823 469.608 254.718 471.895C253.614 474.181 252.181 479.455 251.534 483.615C250.511 490.199 250.592 492.078 252.162 498.132C253.88 504.757 253.897 507.087 252.261 511.613C251.714 513.126 251.785 513.265 252.553 512.182C254.462 509.492 254.977 517.46 253.43 525.737C251.562 535.729 251.39 551.039 253.018 562.613C253.714 567.563 253.993 573.638 253.639 576.113C253.285 578.588 252.913 585.113 252.812 590.613C252.617 601.33 252.106 604.743 250.343 607.113C243.781 615.935 235.853 647.219 239.593 649.53C240.807 650.28 243.367 647.219 245.204 642.822C246.059 640.777 248.248 636.744 250.07 633.858C251.892 630.973 255.117 625.013 257.236 620.613C261.966 610.794 261.461 611.38 263.205 613.686C264.535 615.444 264.581 615.318 263.732 612.25C262.981 609.535 263.213 608.09 264.939 604.75C268.54 597.781 270.96 581.283 270.755 565.112C270.572 550.689 272.03 541.169 275.504 534.113C276.993 531.088 278.27 527.732 278.343 526.655C278.415 525.578 278.988 524.526 279.616 524.317C280.72 523.949 281.685 522.081 287.055 509.916C290.144 502.918 290.265 501.848 289.236 490.613C288.782 485.663 288.326 480.038 288.221 478.113C288.116 476.188 287.674 470.919 287.238 466.405C286.508 458.831 286.683 457.439 289.511 448.405C291.197 443.019 293.778 434.563 295.248 429.613C298.059 420.15 306.168 401.735 310.881 394.113C318.895 381.153 321.81 371.658 321.584 359.245C321.429 350.744 322.357 345.113 323.913 345.113C324.479 345.113 324.678 344.428 324.357 343.591C324.036 342.755 324.87 338.592 326.211 334.341C327.553 330.091 329.538 322.026 330.623 316.42C332.878 304.77 333.645 303.013 338.701 297.926C340.716 295.899 342.98 292.299 343.732 289.926C345.663 283.836 348.16 280.567 351.951 279.167C353.753 278.502 357.172 277.083 359.55 276.013C361.927 274.943 363.623 274.473 363.317 274.967C363.012 275.462 363.506 278.284 364.415 281.24C367.282 290.552 366.775 304.467 363.036 319.113C357.547 340.613 351.451 376.012 350.029 394.645C349.541 401.037 349.728 402.026 352.083 405.496C353.508 407.596 354.889 410.731 355.151 412.464C356.278 419.904 357.134 437.263 356.762 445.113C356.54 449.788 356.329 455.413 356.293 457.613C356.257 459.813 355.887 461.866 355.471 462.175C355.056 462.485 353.57 466.691 352.169 471.523C349.821 479.623 348.104 483.851 346.652 485.113C346.335 485.388 344.387 489.888 342.322 495.113C340.257 500.338 337.3 507.313 335.751 510.613C334.202 513.913 332.124 518.975 331.133 521.863C330.143 524.751 328.971 527.113 328.529 527.113C328.088 527.113 327.727 528.211 327.727 529.554C327.727 530.897 327.277 532.273 326.727 532.613C326.177 532.953 325.724 533.992 325.721 534.922C325.717 535.852 325.11 537.771 324.372 539.186C322.861 542.081 319.977 553.545 319.232 559.613C318.653 564.329 318.579 583.466 319.111 590.613C319.316 593.363 319.876 599.888 320.355 605.113C320.835 610.338 321.199 619.563 321.165 625.613C321.104 636.236 320.492 640.806 317.415 653.613C311.815 676.924 312.002 681.541 319.225 698.113C323.115 707.04 324.255 711.669 322.786 712.577C322.203 712.937 321.727 713.71 321.727 714.294C321.727 714.965 322.281 714.898 323.227 714.113C324.495 713.061 324.727 713.271 324.727 715.47C324.727 716.902 325.368 719.769 326.151 721.843C334.743 744.584 337.79 766.376 335.358 787.671C334.898 791.698 335.202 796.729 336.262 802.671C337.14 807.589 338.241 814.763 338.709 818.613C340.499 833.335 341.677 838.508 343.703 840.534C344.962 841.793 345.727 842.073 345.727 841.276C345.727 840.572 346.122 840.239 346.605 840.538C347.644 841.179 348.727 836.384 348.727 831.147C348.727 829.103 349.358 825.334 350.129 822.772C351.522 818.145 351.324 817.446 349.033 818.903C347.586 819.822 345.785 827.211 345.751 832.363C345.738 834.426 345.326 836.113 344.835 836.113C343.624 836.113 342.897 832.86 341.781 822.437C341.261 817.584 339.975 809.563 338.924 804.613C337.375 797.321 337.187 794.284 337.932 788.613C338.438 784.763 338.571 775.999 338.228 769.138C337.273 750.018 337.079 748.926 331.101 729.113C329.193 722.788 327.147 715.973 326.555 713.97C325.962 711.966 325.766 709.859 326.118 709.289C326.471 708.718 326.302 707.969 325.743 707.623C325.184 707.278 324.727 706.27 324.727 705.384C324.727 703.967 320.191 692.808 317.583 687.808C315.988 684.75 315.377 673.454 316.561 668.902C317.174 666.543 319.093 657.901 320.825 649.698C323.847 635.385 323.951 634.115 323.4 618.198C323.084 609.076 322.643 599.813 322.42 597.613C322.196 595.413 321.656 587.022 321.22 578.966C320.553 566.663 320.716 562.78 322.237 554.697L324.048 545.074L326.638 548.097C330.955 553.14 339.89 556.713 350.09 557.478C355.918 557.915 363.515 559.507 372.276 562.128C386.041 566.245 390.475 566.853 393.793 565.078C396.21 563.784 396.32 565.181 394.259 571.023C393.451 573.312 392.759 576.631 392.72 578.399C392.454 590.44 392.805 595.111 393.977 595.112C394.389 595.113 394.727 595.788 394.727 596.613C394.727 597.438 394.083 598.113 393.295 598.113C392.508 598.113 390.979 599.35 389.898 600.863C388.818 602.376 385.411 604.885 382.329 606.44C377.016 609.119 376.172 609.246 366.126 608.863C360.298 608.642 353.585 608.755 351.21 609.116C348.401 609.542 346.076 609.319 344.559 608.477C343.276 607.766 341.552 607.186 340.727 607.188C339.902 607.191 340.509 607.888 342.077 608.737C344.35 609.969 348.288 610.257 361.551 610.161C377.505 610.045 378.359 609.935 382.702 607.446C385.191 606.02 388.683 603.479 390.462 601.801C392.241 600.123 393.91 598.963 394.171 599.223C395.409 600.462 397.182 617.882 397.645 633.363C397.69 634.876 398.238 636.113 398.862 636.113C400.66 636.113 399.211 610.405 396.692 597.613C394.393 585.938 394.387 574.433 396.679 571.671C397.35 570.862 397.609 569.731 397.254 569.157C396.899 568.583 397.086 568.113 397.668 568.113C398.25 568.113 398.727 567.438 398.727 566.613C398.727 564.03 400.566 564.972 402.185 568.384C403.039 570.182 406.478 574.534 409.827 578.054C418.109 586.758 420.624 591.062 422.834 600.314C424.417 606.943 427.791 615.163 429.727 617.11C430.002 617.387 431.549 620.429 433.165 623.871C436.066 630.052 439.134 633.117 442.685 633.385C443.687 633.46 444.329 633.993 444.112 634.568C443.894 635.143 445.631 636.4 447.972 637.362C450.312 638.324 453.401 640.124 454.837 641.362C459.887 645.718 466.885 654.665 468.918 659.363C470.049 661.975 471.285 664.113 471.667 664.113C472.048 664.113 472.936 667.15 473.641 670.863C474.345 674.576 475.504 679.954 476.217 682.815C477.176 686.669 477.216 688.14 476.37 688.489C475.516 688.842 475.518 689.169 476.379 689.787C477.013 690.241 477.841 692.863 478.22 695.613C479.085 701.892 483.896 716.654 487.756 724.875C490.663 731.068 490.678 731.188 489.102 735.875C488.226 738.481 485.608 743.538 483.285 747.113C477.733 755.657 474.673 763.151 474.567 768.467C474.498 771.899 475.473 774.494 479.354 781.196L484.227 789.613L483.971 798.113C483.83 802.788 483.49 808.413 483.217 810.613C482.777 814.145 482.846 814.32 483.801 812.113C484.397 810.738 484.961 804.663 485.055 798.613L485.227 787.613L480.78 780.613C476.852 774.429 476.342 772.971 476.409 768.113C476.494 762.077 478.871 756.152 484.855 747.064C486.829 744.066 489.251 739.156 490.236 736.153C491.711 731.658 492.161 731.054 492.784 732.737C493.2 733.862 495.157 737.31 497.134 740.399C499.11 743.489 500.727 746.341 500.727 746.736C500.727 747.132 501.335 748.166 502.078 749.034C503.875 751.133 506.575 756.358 512.709 769.613C515.51 775.663 518.195 781.288 518.678 782.113C522.412 788.5 531.595 807.174 532.15 809.508C532.528 811.101 532.838 815.671 532.838 819.665C532.838 831.413 527.862 842.376 517.203 854.113C513.069 858.666 506.724 869.353 506.737 871.744C506.742 872.772 507.837 871.271 509.169 868.409C512.434 861.398 515.461 857.087 521.879 850.311C524.846 847.177 527.878 843.263 528.616 841.613C531.509 835.143 533.73 827.047 533.941 822.197C534.062 819.401 534.402 817.115 534.694 817.116C535.947 817.125 544.965 836.463 546.584 842.613C548.113 848.422 548.14 859.156 546.654 870.771C545.202 882.124 545.529 884.09 550.945 896.613C554.513 904.864 554.456 904.784 555.839 903.401C556.61 902.63 556.558 900.718 555.657 896.69C554.604 891.984 554.667 888.555 556.04 875.835C561.02 829.717 560.776 826.434 549.701 790.613C548.68 787.313 548.181 784.274 548.59 783.859C549 783.444 551.563 783.766 554.285 784.574C562.993 787.16 573.016 799.602 576.126 811.684C579.616 825.242 590.555 846.574 595.477 849.419C599.643 851.826 599.669 850.261 595.507 847.613C593.187 846.137 590.724 842.338 586.104 833.113C582.661 826.238 579.307 818.363 578.652 815.613C576.192 805.296 572.979 798.916 566.683 791.853C561.41 785.937 556.773 783.201 551.165 782.698C547.632 782.381 547.585 782.314 544.031 772.496C540.518 762.791 540.451 762.325 540.339 746.613C540.27 736.899 539.786 729.827 539.108 728.613C538.493 727.513 537.672 723.688 537.284 720.113C536.702 714.751 532.438 696.107 530.114 688.762C529.596 687.127 529.914 686.995 532.828 687.635C534.643 688.034 537.466 689.698 539.102 691.334C540.738 692.97 543.764 695.374 545.826 696.676C547.889 697.978 551.031 700.853 552.808 703.065C556.74 707.957 563.004 711.159 568.293 710.979L572.227 710.846L567.719 710.21C562.324 709.45 556.929 706.274 554.334 702.332C553.293 700.75 550.82 698.366 548.838 697.034C546.857 695.703 543.34 692.885 541.022 690.773C538.087 688.098 535.583 686.769 532.768 686.392C530.134 686.038 528.727 685.34 528.727 684.386C528.727 683.581 527.902 681.727 526.893 680.267C522.707 674.21 520.715 665.986 519.26 648.754C518.941 644.981 518.3 641.156 517.835 640.254C517.371 639.351 516.703 637.02 516.353 635.073C515.616 630.984 513.144 627.528 506.482 621.277C501.361 616.472 496.182 608.258 497.464 606.976C497.898 606.542 500.831 605.883 503.981 605.513C510.121 604.791 509.857 604.65 520.727 614.492C524.332 617.756 533.874 629.256 535.892 632.77C541.467 642.475 550.523 650.366 559.874 653.665C564.669 655.357 565.024 655.403 564.307 654.242C564.011 653.763 562.522 653.118 560.998 652.808C554.282 651.441 542.975 642.068 538.512 634.167C534.362 626.82 525.142 616.334 515.478 607.97C511.341 604.389 510.18 603.889 506.478 604.091C493.564 604.795 494.902 605.302 490.694 598.113C478.946 578.042 477.059 571.412 476.607 548.613C476.253 530.719 474.236 524.969 461.172 504.613C458.701 500.763 455.903 496.038 454.953 494.113C454.004 492.188 452.94 490.388 452.589 490.113C452.239 489.838 451.266 487.965 450.427 485.951C449.588 483.936 446.56 479.886 443.696 476.951C437.42 470.516 435.438 466.349 436.256 461.31C439.053 444.078 443.45 424.742 446.193 417.613C447.462 414.313 449.723 408.013 451.217 403.613C452.711 399.213 454.306 394.713 454.761 393.613C455.215 392.513 456.098 389.813 456.722 387.613C458.568 381.101 460.833 375.585 466.852 362.939C470.103 356.109 472.934 347.615 474.222 340.827C476.623 328.169 482.141 312.902 486.287 307.443C488.305 304.787 490.356 302.462 490.845 302.278C491.335 302.094 495.143 303.782 499.308 306.028C503.473 308.275 507.61 310.113 508.502 310.113C509.394 310.113 513.894 311.263 518.502 312.668C525.555 314.82 526.69 315.452 525.681 316.668C524.259 318.382 525.811 318.629 527.485 316.955C528.357 316.083 528.983 316.081 530.027 316.947C530.788 317.579 531.779 317.762 532.229 317.354C532.679 316.947 532.754 317.127 532.396 317.754C532.037 318.382 533.427 320.439 535.485 322.325C540.117 326.57 547.403 334.518 550.727 338.952C552.102 340.785 553.702 342.809 554.283 343.449C554.864 344.089 555.654 345.288 556.04 346.113C556.425 346.938 557.873 349.413 559.256 351.613C560.64 353.813 562.292 356.643 562.928 357.902C563.563 359.16 564.655 359.971 565.354 359.703C566.155 359.395 566.414 359.765 566.055 360.701C565.741 361.519 566.125 362.958 566.908 363.9C567.691 364.842 569.433 367.863 570.779 370.613C574.348 377.902 581.656 388.113 583.304 388.113C584.087 388.113 584.727 388.476 584.727 388.92C584.727 389.9 593.39 396.113 594.756 396.113C595.29 396.113 595.727 396.453 595.727 396.869C595.727 397.285 596.964 398.126 598.477 398.74C599.99 399.353 603.56 400.813 606.412 401.984C609.264 403.155 612.302 404.113 613.162 404.113C614.284 404.113 614.759 405.175 614.839 407.863C614.9 409.926 615.124 413.131 615.337 414.985C615.549 416.84 614.807 422.144 613.689 426.77C612.57 431.397 611.725 435.73 611.81 436.398C612.407 441.103 611.981 441.414 605.727 440.847C602.427 440.547 599.727 440.657 599.727 441.091C599.727 442.366 603.417 442.964 607.723 442.387C612.524 441.743 612.564 441.947 609.801 452.946C608.742 457.163 607.623 465.632 607.313 471.766C607.004 477.901 606.335 484.015 605.826 485.354C602.577 493.898 601.175 540.325 603.701 555.682C604.669 561.567 604.735 564.274 603.945 565.682C603.073 567.236 602.779 567.32 602.437 566.113C602.203 565.288 601.291 562.138 600.409 559.113C599.528 556.088 598.518 550.913 598.165 547.613C597.408 540.534 592.462 525.186 590.557 524.006C589.594 523.41 589.302 521.033 589.497 515.398C589.979 501.482 590.168 468.717 589.79 464.613C589.587 462.413 588.771 458.813 587.977 456.613C586.288 451.932 586.117 433.042 587.684 424.264C588.823 417.881 589.411 396.464 588.473 395.526C588.136 395.189 587.362 395.221 586.753 395.597C586.02 396.05 585.818 399.025 586.154 404.399C586.434 408.864 586.249 415.463 585.743 419.065C585.237 422.666 584.697 431.126 584.543 437.863C584.37 445.449 583.87 450.113 583.23 450.113C582.662 450.113 581.397 452.363 580.421 455.113C579.444 457.863 578.213 460.113 577.686 460.113C577.158 460.113 576.727 460.788 576.727 461.613C576.727 462.438 576.346 463.113 575.88 463.113C575.414 463.113 573.952 464.037 572.63 465.166C567.364 469.665 558.376 477.709 556.81 479.325C554.514 481.692 549.122 492.92 548.383 496.873C548.047 498.665 546.403 502.893 544.729 506.268C543.054 509.643 541.838 512.558 542.027 512.746C542.754 513.473 549.922 499.381 550.996 495.113C552.569 488.865 553.75 487.424 555.424 489.714C556.141 490.694 556.727 492.509 556.727 493.747C556.727 494.986 558.045 499.962 559.655 504.806C561.266 509.65 562.881 515.247 563.245 517.245C564 521.4 567.189 527.113 568.751 527.113C569.331 527.113 568.887 526.128 567.766 524.924C566.645 523.721 565.69 522.483 565.644 522.174C565.598 521.866 565.454 520.682 565.324 519.543C564.975 516.484 562.528 507.767 561.694 506.613C561.297 506.063 560.195 502.238 559.246 498.113C558.297 493.988 556.879 489.316 556.095 487.732C554.027 483.552 555.187 481.915 568.226 470.613C576.491 463.449 581.716 458.007 581.722 456.554C581.725 455.972 582.357 454.633 583.128 453.579C584.434 451.793 584.61 451.964 585.723 456.098C588.119 464.995 588.263 468.345 587.699 501.93C587.474 515.383 587.703 524.518 588.277 524.93C591.17 527.004 595.229 541.09 596.206 552.443C596.482 555.65 597.046 558.8 597.458 559.443C597.871 560.087 598.888 563.313 599.718 566.613C600.951 571.516 601.638 572.671 603.477 572.933C604.714 573.108 605.727 572.97 605.727 572.624C605.727 572.279 606.215 568.854 606.81 565.013C607.616 559.818 607.595 557.209 606.727 554.822C604.02 547.376 604.925 490.882 607.724 492.611C608.116 492.853 609.39 495.653 610.556 498.832C612.666 504.587 622.606 517.106 625.076 517.119C628.814 517.14 641.729 532.084 645.779 541.075C647.556 545.02 646.841 554.006 644.264 560.113C641.692 566.21 639.727 575.693 639.727 582.007C639.727 585.365 640.065 588.112 640.477 588.112C640.889 588.111 641.247 584.623 641.272 580.362C641.306 574.284 642.007 570.647 644.522 563.494C646.285 558.479 647.764 552.404 647.809 549.994L647.891 545.613L650.449 551.113C651.856 554.138 653.82 559.088 654.813 562.113C656.091 566.005 656.635 566.845 656.673 564.985C656.73 562.234 655.412 558.607 650.727 548.613C649.18 545.313 647.26 541.02 646.46 539.073C645.659 537.127 644.374 534.877 643.603 534.073C642.832 533.27 641.361 531.302 640.334 529.699C637.39 525.107 630.609 518.113 629.1 518.113C628.345 518.113 627.727 517.693 627.727 517.18C627.727 516.667 626.861 515.973 625.804 515.637C621.361 514.227 613.04 503.532 610.724 496.257C609.961 493.861 608.803 491.696 608.151 491.445C607.299 491.119 607.222 489.951 607.876 487.302C608.378 485.273 609.026 479.563 609.317 474.613C609.609 469.663 610.688 460.888 611.715 455.113C612.743 449.338 613.851 441.348 614.177 437.358C614.504 433.368 615.459 427.416 616.301 424.131C617.288 420.276 617.646 415.847 617.31 411.636C617.024 408.048 617.091 405.113 617.46 405.113C617.829 405.113 622.09 406.084 626.929 407.271C633.23 408.816 635.727 409.864 635.727 410.962C635.727 412.33 635.862 412.332 636.977 410.981C637.979 409.766 646.41 407.74 654.506 406.767C656.758 406.496 661.458 417.226 663.201 426.613C664.929 435.925 668.706 443.37 673.091 446.108C675.488 447.605 686.787 450.387 687.515 449.659C688.096 449.078 687.02 448.705 680.227 447.136C674.731 445.866 669.477 441.6 667.265 436.613C666.534 434.963 665.394 430.913 664.732 427.613C664.071 424.313 663.203 420.038 662.804 418.113C662.405 416.188 660.875 412.709 659.403 410.383C657.931 408.056 656.727 405.955 656.727 405.712C656.727 405.19 659.145 404.67 673.727 402.054C676.752 401.511 690.007 400.853 703.182 400.591L727.138 400.115L734.838 404.804C740.236 408.092 743.015 410.493 744.132 412.837C746.257 417.291 746.147 425.439 743.792 438.259C742.409 445.789 742.024 451 742.443 456.538C742.964 463.433 743.397 464.726 746.378 468.294C748.22 470.498 749.727 473.16 749.727 474.208C749.727 475.256 750.226 476.113 750.835 476.113C752.795 476.113 750.752 470.783 747.494 467.397C744.687 464.479 744.358 463.45 743.944 456.298C743.654 451.292 744.11 444.961 745.193 438.946C746.909 429.415 746.947 416.493 745.271 412.613C744.42 410.644 744.445 410.645 746.817 412.663C749.228 414.714 753.712 417.734 761.227 422.368C765.579 425.052 773.392 432.406 781.24 441.206C783.983 444.282 787.802 448.55 789.727 450.69C791.652 452.83 793.843 455.714 794.596 457.097C798.689 464.618 800.727 469.077 800.727 470.508C800.727 471.391 801.168 472.113 801.707 472.113C802.245 472.113 803.558 473.821 804.622 475.908C805.687 477.995 808.161 481.482 810.119 483.658C812.078 485.833 813.691 487.994 813.704 488.459C813.717 488.924 814.685 490.65 815.856 492.295C817.027 493.939 818.728 497.241 819.636 499.632C820.543 502.023 824.181 507.221 827.719 511.182C835.782 520.211 840.863 526.759 842.757 530.566C843.566 532.189 847.514 536.914 851.532 541.066C855.549 545.217 860.673 551.763 862.917 555.613C869.904 567.596 871.325 569.115 875.528 569.098C879.916 569.08 880.88 568.496 882.458 564.902C883.459 562.622 883.306 561.35 881.492 556.902C880.306 553.993 878.299 550.221 877.031 548.519C875.764 546.817 874.727 545.059 874.727 544.613C874.727 544.167 873.687 542.409 872.417 540.707C869.399 536.666 863.986 522.836 863.181 517.113C862.309 510.914 860.991 506.481 858.274 500.613C857.002 497.863 855.393 493.827 854.699 491.643C854.006 489.46 850.353 482.984 846.583 477.254C842.812 471.523 839.727 466.425 839.727 465.925C839.727 465.425 838.024 462.45 835.942 459.314C833.86 456.179 830.724 451.108 828.973 448.047C827.223 444.985 824.876 441.653 823.759 440.642C822.641 439.63 821.727 438.469 821.727 438.06C821.727 437.652 819.872 434.265 817.606 430.533C815.339 426.802 812.421 420.624 811.122 416.803C809.822 412.982 808.247 409.239 807.62 408.485C806.702 407.378 807.038 407.099 809.355 407.043C812.077 406.976 812.023 406.897 808.32 405.54C806.171 404.753 803.781 403.207 803.008 402.104C800.082 397.926 795.043 393.837 789.977 391.53C787.089 390.214 784.727 388.479 784.727 387.674C784.727 386.868 782.789 384.876 780.421 383.247C778.053 381.617 772.81 376.659 768.771 372.229C762.941 365.835 760.439 363.846 756.634 362.582C753.997 361.706 750.73 360.117 749.374 359.05C748.017 357.983 744.054 356.666 740.567 356.125C729.702 354.436 728.846 354.247 726.57 353.029C723.599 351.439 703.043 349.954 682.477 349.844C666.834 349.76 661.991 348.967 668.477 347.551C671.447 346.903 679.81 344.03 691.727 339.564C701.09 336.055 711.32 329.447 715.563 324.167C718.297 320.765 730.727 311.168 730.727 312.46C730.727 312.691 733.99 312.258 737.977 311.498C746.623 309.849 745.987 309.883 745.227 311.113C744.387 312.473 746.057 312.383 747.446 310.994C748.847 309.593 758.142 314.655 764.727 320.406C773.783 328.314 784.174 332.435 786.317 328.967C786.818 328.156 786.223 328.023 784.281 328.51C780.697 329.41 774.432 326.386 766.364 319.865C762.989 317.137 757.787 313.515 754.805 311.816C751.823 310.118 749.798 308.638 750.305 308.529C753.763 307.782 763.569 304.6 765.178 303.702C768.224 302.002 772.19 298.242 771.58 297.633C771.278 297.33 769.903 298.21 768.525 299.588C767.147 300.965 764.428 302.758 762.483 303.57C757.446 305.675 735.773 311.096 732.361 311.105C730.669 311.11 727.541 312.547 724.727 314.613C722.105 316.538 719.705 318.113 719.395 318.113C719.085 318.113 719.235 316.876 719.729 315.363C720.222 313.85 721.135 309.089 721.757 304.783C723.197 294.818 726.293 285.278 729.066 282.266C732.256 278.8 737.522 276.414 744.781 275.145C750.24 274.191 754.949 272.968 762.62 270.512C763.386 270.267 763.798 269.851 763.535 269.588C763.272 269.325 760.845 269.779 758.142 270.598C755.439 271.417 749.281 272.816 744.458 273.707C739.046 274.707 734.352 276.235 732.195 277.7L728.699 280.072L729.463 277.342C730.869 272.321 730.174 261.724 728.246 258.782C727.262 257.28 726.231 256.276 725.956 256.551C725.681 256.826 726.216 258.21 727.144 259.627C731.166 265.765 729.796 277.501 724.074 285.934C722.534 288.203 722.058 289.699 722.741 290.122C723.49 290.585 723.481 291.631 722.709 293.66C722.107 295.244 720.987 300.716 720.221 305.819C719.455 310.922 718.081 316.673 717.167 318.599C713.654 326.001 703.975 333.364 691.441 338.169C688.574 339.269 685.327 340.578 684.227 341.079C682.436 341.894 675.661 344.269 661.486 349.05C657.583 350.366 654.58 350.511 644.486 349.87C631.46 349.042 619.858 347.577 618.924 346.643C618.038 345.757 617.137 317.974 617.977 317.457C618.389 317.203 618.743 314.434 618.762 311.304C618.782 308.174 619.368 301.563 620.066 296.613C621.919 283.468 621.191 269.661 617.88 255.113C611.943 229.037 611.178 226.744 606.94 222.361C603.265 218.56 595.583 213.113 593.897 213.113C593.417 213.113 591.642 211.876 589.953 210.363C584.689 205.648 578.108 201.197 572.727 198.711C570.802 197.822 567.001 195.042 564.281 192.533C559.354 187.988 552.759 184.142 549.789 184.081C548.93 184.064 547.353 183.389 546.286 182.581C545.218 181.774 543.643 181.106 542.786 181.098C541.928 181.089 540.588 180.678 539.806 180.183C538.583 179.409 538.593 178.958 539.873 176.948C540.691 175.664 542.181 171.913 543.184 168.613C545.471 161.086 546.734 158.553 553.154 148.613C559.195 139.26 561.056 135.072 563.276 125.844C566.353 113.046 565.429 99.9593 561.229 96.8783C559.246 95.4243 558.452 96.1524 560.07 97.9394C563.763 102.02 563.89 114.56 560.375 128.113C558.243 136.335 557.334 138.244 550.76 148.307C547.444 153.384 543.996 159.58 543.098 162.075C539.599 171.806 535.834 178.859 531.068 184.613C522.759 194.644 520.407 199.055 515.871 213.113C513.476 220.538 510.611 229.313 509.505 232.613C505.406 244.845 505.862 249.769 511.653 255.796C513.802 258.032 517.847 261.344 520.643 263.156C523.439 264.967 525.727 266.824 525.727 267.281C525.727 267.739 526.134 268.113 526.631 268.113C527.481 268.113 532.485 272.128 537.225 276.613C538.388 277.713 541.114 279.812 543.283 281.278C549.518 285.491 554.977 291.177 558.227 296.843C559.877 299.72 561.759 302.082 562.41 302.093C563.06 302.104 563.85 302.9 564.165 303.863C564.481 304.826 566.536 307.545 568.733 309.906C570.93 312.268 572.727 314.63 572.727 315.156C572.727 315.683 573.107 316.113 573.571 316.113C574.267 316.113 581.261 322.683 585.227 327.062C586.322 328.271 595.323 335.842 601.391 340.658C603.501 342.333 608.602 345.326 612.727 347.311C622.17 351.853 630.179 352.542 667.727 352.037C702.712 351.568 702.38 351.564 708.727 352.528C711.752 352.988 715.127 353.318 716.227 353.262C717.327 353.207 720.252 353.806 722.727 354.594C725.202 355.383 729.418 356.269 732.096 356.564C738.706 357.292 744.913 359.019 746.729 360.637C747.555 361.372 751.263 363.334 754.969 364.997C759.047 366.827 762.994 369.497 764.967 371.761C772.363 380.247 785.942 392.729 788.746 393.619C789.944 393.999 791.698 395.054 792.644 395.962C793.59 396.87 796.471 399.499 799.046 401.805C801.62 404.11 803.727 406.549 803.727 407.226C803.727 407.902 804.35 409.166 805.11 410.034C805.871 410.903 807.246 414.313 808.166 417.613C809.086 420.913 810.549 425.188 811.418 427.113C813.108 430.856 819.686 440.393 820.96 440.946C821.382 441.13 821.727 441.931 821.727 442.728C821.727 443.524 822.402 444.435 823.227 444.751C824.052 445.068 824.727 445.903 824.727 446.606C824.727 447.31 826.452 450.524 828.561 453.749C832.634 459.978 838.134 469.279 838.236 470.113C838.438 471.748 841.638 476.511 844.82 479.911C846.325 481.52 847.517 483.886 854.369 498.861C855.941 502.297 857.565 505.109 857.977 505.111C858.389 505.112 858.73 506.35 858.734 507.863C858.746 512.463 862.518 526.689 865.199 532.248C866.59 535.13 867.727 538.023 867.727 538.678C867.727 539.332 868.407 540.433 869.239 541.123C870.07 541.813 871.634 544.23 872.714 546.495C873.794 548.76 875.117 551.288 875.655 552.113C880.022 558.815 880.744 565.396 877.168 565.907C873.898 566.375 870.163 562.649 865.582 554.35C862.817 549.342 858.816 544.194 854.141 539.631C850.187 535.771 844.916 529.463 842.427 525.613C839.938 521.763 834.895 515.238 831.22 511.113C827.545 506.988 823.617 501.605 822.492 499.151C820.1 493.935 813.385 482.773 810.344 478.957C807.115 474.906 801.374 465.126 800.172 461.632C799.583 459.918 797.47 456.062 795.477 453.064C791.026 446.37 766.352 421.176 762.227 419.113C760.577 418.288 757.877 416.378 756.227 414.868C754.577 413.358 752.914 412.12 752.53 412.118C752.147 412.115 747.192 409.009 741.52 405.216C735.847 401.423 729.327 397.813 727.032 397.195C722.821 396.061 716.891 396.039 716.202 397.154C715.997 397.486 713.923 397.607 711.595 397.423C708.947 397.213 707.06 397.561 706.559 398.35C705.924 399.35 705.754 399.353 705.742 398.363C705.732 397.504 703.858 397.113 699.755 397.113H693.783L696.185 392.595C699.642 386.095 700.307 378.844 698.164 371.02C696.161 363.701 693.404 357.756 690.635 354.784C687.952 351.904 688.263 353.455 691.284 358.02C696.91 366.521 699.495 383.094 696.334 390.395C693.702 396.474 692.829 396.989 684.727 397.248C680.602 397.379 676.102 397.826 674.727 398.24C673.352 398.654 670.225 399.245 667.779 399.552C665.332 399.859 662.915 400.525 662.407 401.033C661.899 401.541 660.929 401.744 660.251 401.484C659.573 401.224 656.59 401.933 653.622 403.061C650.655 404.189 647.44 405.112 646.477 405.112C645.514 405.113 644.727 405.451 644.726 405.863C644.726 406.275 643.554 406.681 642.121 406.764C639.768 406.9 639.572 406.639 640.087 404.062C640.401 402.493 640.944 396.576 641.294 390.911C641.805 382.654 641.535 378.704 639.934 370.985C637.975 361.54 634.699 352.697 633.97 354.884C633.767 355.493 634.279 357.031 635.109 358.302C638.121 362.921 640.156 375.939 639.948 389.267C639.839 396.227 639.334 403.016 638.826 404.354L637.901 406.786L626.564 404.48C620.329 403.212 613.749 401.485 611.943 400.644C610.137 399.802 608.245 399.113 607.738 399.113C605.854 399.113 593.138 392.584 590.727 390.378C589.352 389.12 587.44 387.841 586.477 387.535C585.514 387.229 584.727 386.356 584.727 385.595C584.727 384.835 585.514 383.754 586.477 383.193C587.44 382.632 587.72 382.16 587.099 382.143C586.479 382.127 585.407 382.794 584.716 383.626C583.626 384.939 583.147 384.715 581.096 381.936C579.797 380.174 576.696 374.788 574.206 369.967C571.716 365.146 569.221 360.918 568.662 360.573C568.103 360.227 567.918 359.085 568.252 358.035C568.677 356.695 568.458 356.279 567.516 356.64C566.297 357.108 562.628 351.994 558.528 344.113C555.756 338.785 548.381 330.032 547.083 330.53C546.35 330.811 545.858 330.632 545.989 330.131C546.408 328.53 536.908 318.48 531.478 314.779C526.89 311.653 521.172 309.596 507.727 306.238C506.352 305.894 503.202 304.301 500.727 302.698C498.252 301.094 494.54 298.725 492.477 297.433C488.873 295.176 488.724 294.861 488.65 289.349C488.554 282.204 486.657 275.613 484.695 275.613C483.036 275.613 483.037 276.775 484.703 286.113C485.341 289.688 485.902 293.891 485.95 295.454C485.998 297.016 486.642 298.527 487.382 298.811C489.638 299.677 488.913 301.526 484.706 305.634C482.494 307.793 480.914 310.158 481.194 310.889C481.475 311.619 481.259 311.942 480.716 311.606C480.172 311.27 479.727 311.656 479.727 312.463C479.727 313.507 477.631 314.284 472.477 315.152C468.49 315.823 461.294 317.214 456.488 318.243C451.681 319.271 445.97 320.113 443.797 320.113C441.623 320.113 439.62 320.477 439.345 320.923C438.674 322.008 450.446 321.243 454.227 319.956C458.527 318.492 478.727 315.458 478.727 316.276C478.727 316.506 477.342 320.951 475.648 326.154C473.955 331.356 471.971 338.988 471.239 343.113C470.095 349.558 463.21 367.581 460.734 370.613C459.584 372.021 453.061 391.796 452.161 396.602C451.751 398.795 450.122 402.692 448.541 405.261C445.963 409.451 444.923 410.194 438.447 412.469C425.385 417.059 405.258 419.213 398.227 416.774C397.127 416.392 398.027 416.963 400.227 418.041C404.411 420.093 406.822 420.087 419.227 417.995C422.527 417.439 426.802 416.826 428.727 416.633C430.652 416.439 434.477 415.399 437.227 414.321C439.977 413.242 443.261 412.042 444.525 411.654L446.823 410.948L445.188 414.78C441.438 423.574 433.727 457.228 433.727 464.803C433.727 467.876 435.945 471.408 441.772 477.613C444.354 480.363 448.213 485.988 450.347 490.113C452.481 494.238 454.677 497.944 455.227 498.348C455.79 498.762 455.818 499.089 455.29 499.098C454.775 499.106 455.492 500.35 456.885 501.863C459.35 504.54 462.184 509.219 467.733 519.771C472.24 528.34 473.605 534.072 473.772 545.113C473.842 549.788 474.354 556.763 474.91 560.613C475.465 564.463 476.105 568.958 476.331 570.601C476.558 572.245 477.044 574.495 477.412 575.601C479.675 582.412 479.375 587.304 476.325 593.332C472.779 600.341 467.59 605.985 460.922 610.088C458.009 611.88 455.84 613.559 456.1 613.819C456.979 614.698 468.482 606.217 472.026 602.077C473.961 599.816 476.598 595.532 477.886 592.558C479.174 589.584 480.677 587.288 481.227 587.456C481.777 587.623 482.859 589.077 483.632 590.687C484.405 592.296 485.418 593.763 485.882 593.946C486.347 594.13 486.727 594.714 486.727 595.244C486.727 595.775 488.344 598.737 490.32 601.827C492.297 604.916 494.213 608.157 494.579 609.028C496.611 613.869 502.236 622.315 504.085 623.302C510.761 626.866 515.268 636.316 516.87 650.108C518.706 665.91 520.694 674.606 523.856 680.663C528.169 688.927 533.173 707.057 534.329 718.613C534.604 721.363 535.514 726.279 536.351 729.536C537.327 733.339 537.845 739.745 537.797 747.428C537.728 758.54 537.968 760.119 541.16 769.505C546.134 784.135 548.68 793.014 554.807 817.113C556.662 824.408 557.719 848.699 556.282 851.023C555.965 851.537 555.477 855.03 555.197 858.785C554.159 872.711 553.769 875.872 552.76 878.526C552.192 880.02 551.727 883.329 551.727 885.878C551.727 889.586 551.477 890.263 550.477 889.263C549.098 887.884 549.02 878.862 550.231 860.682C551.189 846.301 550.169 842.098 541.233 823.613C537.244 815.363 533.036 806.04 531.881 802.896C528.991 795.032 523.864 784.445 520.518 779.433C518.983 777.134 517.727 775.013 517.727 774.721C517.727 774.429 516.188 770.91 514.307 766.901C512.426 762.893 510.087 757.813 509.11 755.613C508.132 753.413 507.178 751.333 506.989 750.991C506.8 750.648 508.612 750.329 511.016 750.281C515.944 750.182 520.161 748.838 521.294 747.005C521.851 746.103 521.543 745.994 520.141 746.6C519.088 747.055 515.728 747.877 512.673 748.428C507.795 749.307 506.852 749.2 504.923 747.549C503.715 746.515 502.718 745.206 502.708 744.641C502.671 742.646 496.658 734.037 495.711 734.623C495.182 734.95 494.988 734.595 495.28 733.836C495.572 733.076 493.91 729.34 491.588 725.534C487.209 718.355 482.217 704.29 481.125 696.052L480.495 691.306L485.284 692.327C490.691 693.481 501.031 692.175 507.733 689.494C514.666 686.72 512.059 686.225 503.977 688.781C497.758 690.748 494.696 691.154 488.476 690.838C484.212 690.621 480.473 690.193 480.167 689.886C479.86 689.579 479.373 687.187 479.086 684.569C478.798 681.952 478.149 678.724 477.645 677.396C477.14 676.069 476.727 673.889 476.727 672.552C476.727 671.215 475.152 666.712 473.227 662.544C471.302 658.377 469.727 654.757 469.727 654.499C469.727 653.24 465.302 648.258 464.579 648.704C464.123 648.986 463.988 648.597 464.279 647.839C464.968 646.043 456.326 637.965 450.619 635.071C448.203 633.847 446.002 632.566 445.727 632.226C445.452 631.886 443.401 630.37 441.17 628.858C435.146 624.776 428.151 610.55 423.804 593.543C422.777 589.525 417.222 581.322 409.632 572.613C398.199 559.494 396.583 552.462 400.658 533.566C403.238 521.604 403.659 512.113 401.61 512.113C400.995 512.113 400.723 512.99 401.004 514.065C401.508 515.992 400.25 524.746 397.147 540.898C396.271 545.455 395.706 552.178 395.891 555.838L396.227 562.493L392.046 563.719C388.376 564.796 386.789 564.657 379.046 562.583C374.196 561.284 368.202 559.493 365.727 558.603C363.252 557.714 357.177 556.752 352.227 556.465C339.755 555.744 330.365 551.788 326.263 545.528C324.828 543.337 324.864 542.85 326.716 539.396C327.822 537.331 328.727 534.875 328.727 533.937C328.727 532.999 329.165 531.96 329.7 531.63C330.235 531.299 331.162 529.135 331.76 526.821C332.358 524.507 334.574 518.788 336.685 514.113C338.795 509.438 341.751 502.688 343.252 499.113C344.753 495.538 347.436 489.678 349.213 486.091C351.932 480.601 353.472 476.275 357.341 463.259C357.592 462.416 358.401 462.165 359.485 462.595C362.892 463.943 374.312 466.247 379.727 466.68C387.129 467.271 398.39 469.975 402.937 472.254C406.766 474.172 416.17 474.823 417.15 473.238C417.447 472.757 415.759 472.581 413.397 472.847C410.392 473.185 407.622 472.699 404.165 471.227C397.759 468.497 384.397 465.123 379.817 465.078C376.343 465.044 367.384 463.246 361.227 461.347C359.1 460.691 358.302 459.867 358.484 458.517C359.564 450.502 359.754 437.357 358.966 425.064C358.142 412.201 357.713 409.883 355.268 405.064C352.65 399.906 352.533 399.102 353.091 390.113C354.152 373.04 360.235 338.113 362.149 338.113C363.636 338.113 375.695 342.528 379.301 344.393C380.913 345.226 383.131 346.903 384.229 348.119C386.489 350.619 393.273 354.227 399.227 356.095C401.427 356.785 406.19 358.63 409.811 360.195C416.836 363.23 419.692 363.629 432.144 363.314C444.343 363.005 440.046 361.613 426.892 361.613C416.812 361.613 414.659 361.314 411.047 359.415C408.747 358.207 403.347 356.017 399.047 354.55C394.746 353.082 389.712 350.696 387.861 349.247C380.163 343.223 376.853 341.283 369.727 338.621C365.602 337.08 362.075 335.696 361.89 335.546C361.704 335.395 362.539 331.523 363.746 326.942C369.715 304.278 370.239 293.745 366.21 277.428C364.02 268.56 361.042 249.567 360.907 243.613C360.674 233.296 364.168 209.921 366.664 205.101C367.094 204.269 368.177 201.078 369.069 198.009C372.282 186.956 378.315 179.607 391.477 170.713C393.815 169.133 395.727 167.677 395.727 167.477C395.727 166.546 392.723 167.259 391.502 168.481C390.749 169.234 389.251 170.129 388.172 170.472C387.094 170.814 383.381 173.721 379.922 176.932C376.463 180.143 373.435 182.449 373.193 182.058C372.951 181.666 373.401 179.191 374.193 176.559C374.986 173.926 375.403 171.398 375.121 170.942C374.84 170.486 375.311 170.113 376.168 170.113C377.025 170.113 377.727 169.663 377.727 169.113C377.727 168.563 377.277 168.113 376.727 168.113C375.417 168.113 375.455 163.881 376.81 158.729C380.087 146.27 384.8 130.921 385.749 129.613C387.782 126.81 393.727 114.869 393.727 113.588C393.727 112.777 394.177 112.113 394.727 112.113C395.277 112.113 395.727 111.253 395.727 110.202C395.727 108.583 399.442 97.4533 400.4 96.2023C400.573 95.9773 401.505 96.4864 402.471 97.3354C403.437 98.1834 408.277 100.81 413.227 103.172C418.177 105.535 423.577 108.481 425.228 109.719C428.915 112.485 437.644 116.308 439.133 115.809C439.735 115.608 437.851 114.653 434.946 113.687C432.041 112.722 428.441 110.906 426.946 109.652C423.792 107.008 416.764 103.113 415.147 103.113C414.327 103.113 402.847 96.2724 400.992 94.6794C400.863 94.5684 401.358 91.3273 402.091 87.4773C403.904 77.9653 409.396 68.4022 416.781 61.9022C419.995 59.0732 422.397 56.3883 422.117 55.9353C421.295 54.6053 420.17 54.9702 417.623 57.3902ZM442.727 117.586C442.727 118.378 449.977 121.196 450.547 120.626C450.829 120.344 450.815 120.113 450.516 120.113C450.216 120.113 448.341 119.432 446.349 118.6C444.357 117.767 442.727 117.311 442.727 117.586ZM461.196 124.133C466.129 125.715 470.333 126.84 470.54 126.634C471.009 126.165 455.058 121.087 453.425 121.185C452.766 121.225 456.263 122.552 461.196 124.133ZM473.727 128.613C475.102 129.399 476.902 130.042 477.727 130.042C478.594 130.042 478.172 129.439 476.727 128.613C475.352 127.827 473.552 127.184 472.727 127.184C471.86 127.184 472.282 127.787 473.727 128.613ZM480.81 130.522C482.259 131.946 495.019 135.256 503.825 136.493C517.375 138.396 527.609 139.177 525.723 138.164C524.9 137.721 518.152 136.793 510.727 136.1C502.389 135.322 494.443 133.936 489.946 132.476C483.148 130.27 479.831 129.56 480.81 130.522ZM451.919 170.207C452.173 170.98 453.921 172.608 455.804 173.824C457.687 175.04 461.927 178.07 465.227 180.557C479.851 191.578 488.182 197.188 494.227 200.083C500.528 203.101 513.454 206.15 515.982 205.214C517.715 204.573 516.92 204.243 512.24 203.658C502.59 202.452 494.733 199.487 486.335 193.881C481.995 190.984 477.736 188.163 476.871 187.613C476.006 187.063 473.032 184.928 470.262 182.869C467.493 180.81 463.877 178.127 462.227 176.907C460.577 175.686 457.479 173.363 455.342 171.745C453.205 170.126 451.665 169.434 451.919 170.207ZM547.698 185.609C555.032 187.8 556.784 188.784 560.741 192.932C563.395 195.715 569.042 199.758 574.208 202.574C579.101 205.241 584.552 208.871 586.322 210.641C588.092 212.411 592.089 215.318 595.206 217.101C604.818 222.6 609.09 227.854 610.776 236.247C611.369 239.198 613.152 247.013 614.739 253.613C618.889 270.878 619.259 279.234 616.843 301.113C615.719 311.288 614.696 325.35 614.569 332.363C614.443 339.376 614.089 345.103 613.783 345.091C613.477 345.079 612.102 344.189 610.727 343.113C609.352 342.037 607.597 341.147 606.828 341.135C606.059 341.123 603.871 339.509 601.967 337.549C599.942 335.463 597.908 334.213 597.064 334.537C596.272 334.841 595.862 334.704 596.153 334.233C596.445 333.761 594.017 331.178 590.758 328.494C587.498 325.809 584.808 323.051 584.779 322.363C584.751 321.676 584.277 321.113 583.727 321.113C583.177 321.113 582.727 320.17 582.727 319.017C582.727 317.865 581.895 315.727 580.879 314.267C575.769 306.927 571.515 297.532 569.239 288.561C567.857 283.115 566.727 277.561 566.727 276.219C566.727 272.325 565.315 274.814 565.019 279.229C564.576 285.841 569.859 303.318 573.118 306.023C573.947 306.71 575.134 308.816 575.756 310.702C576.379 312.588 577.271 313.895 577.738 313.606C578.206 313.317 578.833 313.476 579.132 313.959C579.43 314.442 578.844 314.787 577.828 314.725C576.812 314.663 574.687 313.071 573.104 311.186C571.522 309.302 568.764 306.195 566.977 304.283C565.19 302.371 563.727 300.457 563.727 300.031C563.727 299.605 563.164 298.661 562.475 297.934C561.787 297.208 559.967 294.68 558.432 292.318C556.896 289.956 554.461 287.031 553.021 285.818C551.581 284.605 549.7 282.826 548.842 281.863C547.984 280.9 546.861 280.113 546.346 280.113C544.986 280.113 534.858 272.346 530.438 267.913C528.355 265.823 526.24 264.113 525.74 264.113C525.24 264.113 521.432 260.868 517.279 256.902C510.043 249.992 509.727 249.5 509.727 245.147C509.727 242.649 510.852 237.503 512.227 233.712C513.602 229.921 514.727 225.712 514.727 224.359C514.727 222.405 515.087 222.049 516.477 222.628C518.729 223.565 528.165 225.844 532.899 226.593C535.172 226.953 538.981 229.06 542.899 232.124C546.379 234.846 549.586 237.082 550.025 237.093C550.71 237.11 553.217 239.63 556.605 243.707C559.229 246.864 560.968 252.076 561.212 257.518C561.363 260.87 562.197 265.312 563.066 267.388C563.935 269.463 564.362 271.9 564.016 272.802C563.569 273.966 563.759 274.211 564.672 273.647C565.597 273.075 565.771 271.42 565.293 267.733C564.929 264.917 564.401 259.688 564.12 256.113C563.608 249.605 562.535 246.329 559.727 242.705C557.678 240.061 551.371 234.124 550.604 234.118C550.262 234.115 547.183 231.876 543.762 229.141C539.891 226.047 536.161 223.944 533.885 223.574C525.764 222.252 524.084 221.838 520.727 220.332C518.802 219.468 517.089 218.665 516.921 218.548C516.753 218.43 518.071 214.165 519.85 209.069C524.272 196.405 534.301 181.532 537.697 182.599C538.539 182.863 543.039 184.218 547.698 185.609ZM362.712 210.363C362.704 211.051 362.062 214.313 361.285 217.613C358.207 230.693 357.85 243.222 360.091 259.568C360.916 265.593 361.372 270.879 361.102 271.315C360.833 271.751 358.838 272.391 356.67 272.738C354.501 273.085 352.727 273.761 352.727 274.241C352.727 274.721 351.827 275.113 350.727 275.113C349.627 275.113 348.717 275.451 348.704 275.863C348.691 276.275 347.116 278.35 345.204 280.473C343.292 282.597 341.727 285.132 341.727 286.109C341.727 289.337 339.274 293.783 335.952 296.578C331.603 300.236 329.169 305.903 327.776 315.613C327.144 320.013 325.491 327.438 324.102 332.113C322.713 336.788 321.34 341.447 321.052 342.466C320.59 344.095 319.845 344.239 314.877 343.656C311.77 343.292 308.327 342.774 307.227 342.506C305.682 342.129 305.569 342.227 306.727 342.937C307.552 343.443 310.027 344.163 312.227 344.538C319.312 345.745 319.879 346.068 319.094 348.444C318.7 349.637 318.296 354.888 318.197 360.113C317.958 372.666 315.581 382.255 311.069 388.863C307.818 393.623 307.134 394.113 303.74 394.113C301.444 394.113 298.958 393.296 297.309 391.999C293.839 389.27 292.992 390.074 296.18 393.069C297.837 394.626 299.932 395.401 302.676 395.473C304.904 395.531 306.727 395.708 306.727 395.866C306.727 396.024 304.77 400.081 302.378 404.883C296.982 415.713 293.365 425.229 290.695 435.613C289.564 440.013 288.016 444.963 287.255 446.613C285.331 450.787 283.373 462.719 284.174 465.395C284.982 468.093 286.96 491.436 287.046 499.281C287.08 502.399 286.558 505.612 285.886 506.421C284.34 508.284 279.593 520.312 280.174 520.894C280.413 521.132 279.495 522.517 278.134 523.97C276.772 525.424 274.021 529.988 272.02 534.113L268.381 541.613L268.02 561.613C267.821 572.613 267.226 583.188 266.698 585.113C266.17 587.038 265.739 589.963 265.741 591.613C265.744 596.192 254.946 622.35 252.227 624.348C251.56 624.837 251.56 625.093 252.227 625.113C252.777 625.13 252.714 625.474 252.087 625.878C251.46 626.282 249.281 629.459 247.245 632.938C245.209 636.417 243.358 639.077 243.13 638.85C242.903 638.623 243.226 636.001 243.849 633.025C244.471 630.048 245.092 626.713 245.229 625.613C245.366 624.513 246.21 621.94 247.103 619.895C247.996 617.85 248.727 615.981 248.727 615.741C248.727 615.501 250.271 612.573 252.159 609.233C255.282 603.707 255.595 602.418 255.642 594.887C255.67 590.336 256.054 582.624 256.496 577.748C257.05 571.629 256.887 566.208 255.972 560.248C254.505 550.697 254.87 530.739 256.612 525.19C257.984 520.818 256.953 501.823 255.095 497.241C254.343 495.386 253.727 491.851 253.727 489.385C253.727 484.249 256.209 473.871 258.187 470.736C258.924 469.568 260.316 464.788 261.281 460.113C262.245 455.438 263.474 450.746 264.01 449.687C264.547 448.628 265.155 442.553 265.362 436.187C265.71 425.514 266.295 422.505 269.875 412.994L270.861 410.375L277.582 417.244C283.131 422.915 284.863 424.113 287.515 424.113C289.282 424.113 290.727 423.677 290.727 423.144C290.727 422.612 290.087 422.421 289.305 422.721C287.195 423.531 283.849 421.417 277.977 415.564C272.673 410.276 271.608 407.375 274.069 404.914C274.808 404.175 275.299 402.807 275.162 401.873C275.025 400.939 275.39 400.274 275.972 400.394C277.321 400.673 285.798 385.519 289.835 375.613C290.283 374.513 291.16 369.113 291.784 363.613C292.408 358.113 293.51 350.238 294.233 346.113C295.263 340.239 295.332 334.384 294.551 319.113C294.003 308.388 293.864 295.412 294.241 290.278L294.926 280.942L297.21 284.278C300.655 289.31 305.082 292.089 310.459 292.596L315.227 293.046L310.727 291.822C304.069 290.011 302.242 288.672 298.796 283.071C296.009 278.541 295.74 277.439 296.287 272.805C297.849 259.586 304.388 246.257 315.013 234.635C317.515 231.897 319.305 229.24 318.991 228.73C318.676 228.221 318.915 228.111 319.522 228.486C320.132 228.863 321.168 228.157 321.836 226.91C323.016 224.705 326.412 221.622 329.873 219.613C330.821 219.063 333.764 217.282 336.412 215.655C343.749 211.147 362.748 207.324 362.712 210.363ZM371.84 244.992C377.677 248.769 382.732 252.311 383.073 252.863C383.414 253.415 386.288 254.899 389.46 256.161C392.632 257.422 396.362 259.235 397.749 260.189C399.136 261.144 402.802 262.66 405.896 263.56C408.99 264.459 413.255 266.01 415.374 267.007C420.232 269.291 429.726 271.239 436.227 271.286C449.175 271.379 461.727 270.727 461.727 269.961C461.727 268.914 451.148 268.977 443.727 270.067C440.081 270.602 435.559 270.415 430.314 269.512C421.308 267.961 403.185 261.981 397.227 258.594C395.027 257.344 392.238 256.026 391.03 255.666C389.821 255.306 383.139 251.21 376.18 246.562C369.221 241.915 363.01 238.116 362.377 238.119C361.745 238.122 366.003 241.215 371.84 244.992ZM166.946 246.372C166.242 248.326 164.555 251.561 163.196 253.563C160.334 257.782 159.87 259.509 162.543 255.998C166.219 251.168 168.869 246.089 168.552 244.477C168.35 243.449 167.741 244.168 166.946 246.372ZM571.227 273.176C574.694 274.824 576.625 274.992 585.727 274.437C591.502 274.084 597.352 273.427 598.727 272.976C600.16 272.507 596.77 272.386 590.785 272.695C585.041 272.991 580.031 273.425 579.651 273.66C579.271 273.895 576.77 273.423 574.093 272.611C567.549 270.626 566.356 270.861 571.227 273.176ZM539.885 285.113C539.885 286.488 540.112 287.051 540.389 286.363C540.667 285.676 540.667 284.551 540.389 283.863C540.112 283.176 539.885 283.738 539.885 285.113ZM538.863 289.733C538.625 293.443 534.774 304.357 532.084 308.947C530.655 311.385 529.997 313.064 530.621 312.679C533.477 310.913 540.157 293.637 539.435 289.88C539.024 287.74 538.992 287.731 538.863 289.733ZM391.805 311.097C392.673 311.605 395.598 312.764 398.305 313.674C401.012 314.584 405.235 316.234 407.689 317.342C410.946 318.812 415.537 319.562 424.689 320.119C431.585 320.538 437.371 320.753 437.546 320.595C438.451 319.782 426.639 318.112 419.928 318.103C413.285 318.095 410.863 317.546 402.3 314.103C393.001 310.366 388.207 308.992 391.805 311.097ZM581.806 329.696C581.854 330.861 582.091 331.098 582.41 330.301C582.699 329.579 582.663 328.716 582.331 328.384C581.999 328.052 581.763 328.642 581.806 329.696ZM289.843 330.176C289.678 332.396 284.811 336.646 280.964 337.93C277.64 339.039 272.604 342.113 274.112 342.113C275.947 342.113 287.461 336.065 289.123 334.228C290.102 333.146 290.69 331.441 290.431 330.437C290.083 329.093 289.928 329.025 289.843 330.176ZM580.827 336.863C580.908 340.734 581.074 341.151 581.727 339.113C582.884 335.499 582.884 332.113 581.727 332.113C581.177 332.113 580.772 334.251 580.827 336.863ZM157.227 337.644C158.877 338.996 160.877 340.105 161.671 340.108C162.466 340.111 161.591 338.988 159.727 337.613C155.358 334.39 153.288 334.416 157.227 337.644ZM266.127 345.939C262.129 348.837 256.157 355.876 256.99 356.71C257.246 356.966 258.754 355.506 260.341 353.465C263.458 349.457 264.864 348.054 268.727 345.095C272.659 342.082 270.467 342.794 266.127 345.939ZM601.806 345.421C600.673 357.023 596.198 370.725 592.042 375.317C591.137 376.317 590.907 377.113 591.524 377.113C593.569 377.113 600.742 360.94 601.84 353.853C602.416 350.134 602.661 346.534 602.386 345.853C602.11 345.171 601.849 344.977 601.806 345.421ZM572.707 351.637C572.011 352.475 571.636 353.355 571.872 353.592C572.109 353.828 572.852 353.143 573.523 352.068C574.975 349.743 574.491 349.488 572.707 351.637ZM253.885 361.57C252.735 363.519 252.132 365.113 252.545 365.113C253.526 365.113 257.065 359.118 256.448 358.501C256.188 358.241 255.034 359.622 253.885 361.57ZM247.132 369.255C245.234 371.389 245.235 371.391 247.477 370.014C248.714 369.254 249.727 368.29 249.727 367.872C249.727 366.667 249.17 366.963 247.132 369.255ZM588.599 379.863C587.356 381.449 587.391 381.484 588.977 380.241C589.94 379.486 590.727 378.698 590.727 378.491C590.727 377.668 589.906 378.197 588.599 379.863ZM667.184 407.238C667.553 409.094 668.494 411.963 669.275 413.613C670.056 415.263 671.157 418.413 671.722 420.613C672.325 422.965 674.618 426.673 677.287 429.613C679.784 432.363 682.47 435.811 683.257 437.275C684.043 438.739 685.882 440.876 687.342 442.025C688.802 443.173 689.625 444.113 689.171 444.113C688.198 444.113 691.898 447.034 692.929 447.081C693.315 447.099 692.471 445.876 691.052 444.363C689.633 442.85 686.649 439.138 684.42 436.113C682.191 433.088 680.103 430.388 679.781 430.113C676.758 427.534 673.521 422.011 672.133 417.063C671.206 413.761 670.061 410.819 669.588 410.527C669.114 410.234 668.727 408.923 668.727 407.613C668.727 406.303 668.229 404.923 667.62 404.547C666.848 404.07 666.716 404.885 667.184 407.238ZM812.727 407.389C813.002 407.672 818.167 408.431 824.205 409.075C830.243 409.719 835.643 410.614 836.205 411.064C836.767 411.514 838.577 412.185 840.227 412.555C841.877 412.926 845.157 414.967 847.517 417.092C853.085 422.107 854.361 428.298 852.176 439.714C851.331 444.13 851.08 447.921 851.574 448.804C852.451 450.372 853.442 444.025 854.325 431.176C854.568 427.636 854.923 424.584 855.113 424.393C855.304 424.203 856.644 426.424 858.091 429.33C859.539 432.236 861.636 435.738 862.752 437.113L864.782 439.613L863.544 436.613C862.864 434.963 861.501 432.54 860.517 431.228C859.532 429.916 858.727 428.159 858.727 427.323C858.727 422.658 847.504 413.393 838.131 410.321C832.703 408.542 811.467 406.091 812.727 407.389ZM375.727 410.874C375.727 411.314 379.44 412.388 383.977 413.261C388.514 414.134 393.088 415.209 394.141 415.651C395.406 416.181 395.833 416.093 395.4 415.393C395.04 414.81 391.478 413.581 387.486 412.661C376.481 410.127 375.727 410.012 375.727 410.874ZM869.727 443.602C869.727 444.476 873.149 448.113 873.972 448.113C874.413 448.113 874.036 446.988 873.135 445.613C871.688 443.405 869.727 442.247 869.727 443.602ZM160.966 453.363C163.375 464.782 162.418 470.033 156.579 477.419C154.46 480.1 152.727 482.737 152.727 483.28C152.727 484.289 156.074 480.515 158.994 476.216L160.622 473.818L163.174 479.59C164.578 482.765 165.727 485.602 165.727 485.895C165.727 486.188 167.556 488.799 169.792 491.697C173.084 495.964 173.966 498.033 174.436 502.585C174.784 505.958 174.559 509.185 173.872 510.659C170.65 517.567 167.727 528.101 167.727 532.803C167.727 534.485 167.052 537.775 166.227 540.113C164.596 544.736 164.194 554.665 165.602 555.536C166.083 555.833 166.265 554.172 166.005 551.845C165.745 549.517 166.219 544.913 167.059 541.613C167.898 538.313 168.894 533.02 169.273 529.85C169.901 524.589 171.727 520.722 171.727 524.653C171.727 527.385 174.695 532.795 178.687 537.338C180.752 539.689 182.762 542.626 183.152 543.863C183.542 545.1 184.506 546.113 185.294 546.113C187.683 546.113 187.544 545.841 181.461 538.613C175.943 532.055 173.998 528.835 172.744 524.175C171.658 520.143 171.795 519.155 174.299 512.933C176.875 506.536 176.97 505.775 175.827 500.669C175.024 497.08 173.274 493.55 170.69 490.304C164.2 482.153 162.419 476.921 163.135 468.113C163.726 460.85 161.306 444.113 159.665 444.113C159.307 444.113 159.892 448.275 160.966 453.363ZM696.746 449.359C698.131 450.598 700.818 452.827 702.715 454.31C704.613 455.794 705.781 457.369 705.31 457.81C704.839 458.252 704.252 458.051 704.007 457.363C703.495 455.93 701.727 455.66 701.727 457.015C701.727 457.511 703.144 458.411 704.876 459.015C708.702 460.349 708.727 460.35 708.727 459.15C708.727 457.735 700.544 450.113 699.026 450.113C698.311 450.113 697.727 449.711 697.727 449.22C697.727 448.729 696.94 448.052 695.977 447.715C694.814 447.309 695.071 447.86 696.746 449.359ZM688.81 450.452C690.798 452.072 700.727 456.722 700.727 456.034C700.727 455.04 691.462 450.113 689.594 450.113C688.934 450.113 688.581 450.266 688.81 450.452ZM150.215 488.318C148.204 491.636 146.222 495.951 147.123 495.05C148.862 493.312 152.765 486.728 152.511 485.964C152.341 485.455 151.308 486.514 150.215 488.318ZM811.413 491.699C812.391 497.944 813.849 500.375 813.16 494.613C812.831 491.863 812.166 489.202 811.681 488.699C811.17 488.17 811.058 489.432 811.413 491.699ZM144.76 499.331C144.08 501.136 142.444 505.144 141.125 508.238C138.541 514.298 138.248 515.527 139.583 514.702C140.688 514.019 147.076 497.129 146.462 496.515C146.206 496.258 145.44 497.526 144.76 499.331ZM812.409 504.417C811.739 509.306 807.081 520.227 803.28 525.82C801.876 527.887 800.727 530.392 800.727 531.387C800.727 532.382 799.441 535.99 797.869 539.405C796.298 542.819 794.477 547.863 793.824 550.613C793.171 553.363 792.381 556.513 792.069 557.613C791.688 558.957 791.834 559.285 792.513 558.613C793.07 558.063 794.442 554.463 795.564 550.613C799.38 537.515 803.727 528.478 803.727 533.643C803.727 535.959 808.69 547.406 810.434 549.113C812.173 550.814 812.144 550.721 808.485 542.825C807.01 539.641 805.511 535.479 805.154 533.575C804.793 531.649 803.903 530.113 803.15 530.113C802.247 530.113 802.752 528.694 804.663 525.863C808.882 519.611 812.781 510.275 813.433 504.863C813.748 502.251 813.779 500.113 813.502 500.113C813.225 500.113 812.733 502.05 812.409 504.417ZM242.227 523.113C241.887 523.663 242.086 524.113 242.668 524.113C243.25 524.113 243.727 523.663 243.727 523.113C243.727 522.563 243.529 522.113 243.286 522.113C243.043 522.113 242.567 522.563 242.227 523.113ZM236.1 528.367C232.016 533.028 231.433 534.467 235.113 530.803C237.218 528.707 238.744 526.797 238.504 526.557C238.264 526.317 237.183 527.132 236.1 528.367ZM69.7268 531.491C69.7268 531.698 68.9388 532.486 67.9768 533.241C66.3908 534.484 66.3558 534.449 67.5988 532.863C68.9058 531.197 69.7268 530.668 69.7268 531.491ZM226.489 546.113C226.113 548.038 225.553 550.738 225.246 552.113C224.938 553.488 225.387 552.813 226.242 550.613C227.098 548.413 227.658 545.713 227.486 544.613C227.281 543.299 226.939 543.813 226.489 546.113ZM38.4558 545.717C38.1238 546.049 37.2608 546.085 36.5398 545.796C35.7418 545.477 35.9788 545.24 37.1438 545.192C38.1978 545.149 38.7878 545.385 38.4558 545.717ZM39.5268 552.406C37.8878 555.844 34.3978 568.113 33.3278 574.202C32.9038 576.611 31.8778 578.23 30.2058 579.124C28.8358 579.857 26.5118 582.511 25.0408 585.02C22.2388 589.801 14.0418 599.113 12.6348 599.113C11.4168 599.113 4.8298 603.737 1.9608 606.606C-1.9052 610.472 -0.0391879 609.603 7.42381 604.062C19.8858 594.809 20.6938 594.068 24.0538 588.826C27.3018 583.76 30.4068 580.422 31.1308 581.22C31.3268 581.436 31.0938 586.552 30.6118 592.589C29.6728 604.368 27.8118 611.464 24.5848 615.566C23.4748 616.977 22.7588 618.69 22.9928 619.373C23.5688 621.045 30.2918 607.513 31.0708 603.113C31.4118 601.188 31.7388 596.913 31.7968 593.613C31.9638 584.229 35.7438 567.046 40.4368 554.341C42.3418 549.186 41.7068 547.836 39.5268 552.406ZM29.7268 550.426C29.7268 550.598 28.2648 552.061 26.4768 553.676L23.2268 556.613L26.1638 553.363C28.9018 550.334 29.7268 549.653 29.7268 550.426ZM222.394 558.78C222.027 559.146 221.727 559.911 221.727 560.48C221.727 561.106 222.193 561.047 222.91 560.33C223.561 559.679 223.861 558.914 223.577 558.63C223.293 558.346 222.76 558.413 222.394 558.78ZM219.727 562.801C219.727 563.363 217.815 565.047 215.477 566.542C211.386 569.16 204.527 576.789 203.947 579.368C203.792 580.053 204.242 579.715 204.947 578.617C206.638 575.979 213.439 569.275 217.768 565.978C219.67 564.529 220.889 562.992 220.477 562.562C220.065 562.132 219.727 562.239 219.727 562.801ZM202.569 582.863C202.481 583.826 202.481 585.427 202.567 586.421C202.653 587.416 202.34 587.992 201.872 587.702C201.167 587.267 198.727 591.112 198.727 592.66C198.727 594.09 200.523 592.632 202.477 589.615C204.935 585.82 205.292 584.646 203.687 585.638C203.012 586.055 202.875 585.372 203.295 583.697C203.652 582.276 203.67 581.113 203.335 581.113C203.001 581.113 202.656 581.9 202.569 582.863ZM263.703 623.363C263.685 628.906 263.071 632.025 261.096 636.613C257.257 645.53 257.175 647.271 260.235 654.85C261.737 658.57 263.306 663.863 263.721 666.613L264.477 671.613L264.602 666.893C264.687 663.675 263.875 660.333 262.051 656.393C258.866 649.513 258.804 644.918 261.809 638.378C263.325 635.079 264.148 630.92 264.485 624.863C264.753 620.051 264.692 616.113 264.349 616.113C264.007 616.113 263.716 619.376 263.703 623.363ZM394.351 628.652C394.008 629.545 393.756 630.802 393.79 631.445C393.825 632.087 394.285 631.535 394.812 630.218C395.339 628.9 395.591 627.644 395.372 627.425C395.153 627.206 394.693 627.758 394.351 628.652ZM398.424 645.363C398.671 653.473 397.979 656.777 393.136 670.646C392.361 672.865 391.727 675.64 391.727 676.813C391.727 677.986 391.369 679.096 390.932 679.28C388.789 680.178 381.251 698.416 378.188 710.113C377.396 713.138 374.974 719.438 372.807 724.113C368.86 732.627 363.053 747.296 362.514 750.113C362.356 750.938 361.945 751.838 361.6 752.113C361.255 752.388 359.726 755.739 358.203 759.559C355.437 766.494 355.434 766.532 356.102 783.652C356.661 797.963 356.521 801.279 355.255 803.706C354.422 805.305 353.737 807.295 353.733 808.128C353.73 808.961 352.826 811.323 351.725 813.378C350.235 816.158 350.064 817.113 351.057 817.113C351.791 817.113 354.106 813.176 356.201 808.363C359.941 799.773 359.993 799.485 359.033 792.613C356.919 777.486 358.276 764.856 363.223 753.613C363.949 751.963 366.156 746.338 368.128 741.113C370.1 735.888 372.15 730.858 372.684 729.935C374.629 726.571 380.565 710.507 381.286 706.658C381.915 703.3 388.526 687.682 391.805 681.808C392.359 680.815 394.435 674.965 396.417 668.808C399.291 659.882 400.117 655.535 400.488 647.363C400.866 639.056 400.69 637.113 399.564 637.113C398.469 637.113 398.227 638.866 398.424 645.363ZM386.718 648.355C383.995 652.449 383.624 653.113 384.059 653.113C384.296 653.113 385.691 651.538 387.159 649.613C388.627 647.688 389.464 646.113 389.018 646.113C388.573 646.113 387.537 647.122 386.718 648.355ZM569.517 658.542C571.604 660.428 574.512 662.272 575.978 662.64C577.445 663.008 579.169 663.94 579.808 664.711C580.448 665.482 581.347 666.113 581.805 666.113C583.356 666.113 590.203 671.145 594.853 675.702C599.401 680.16 600.857 682.496 604.248 690.776C606.067 695.22 610.94 700.427 614.227 701.44C616.183 702.043 616.184 702.03 614.287 700.835C610.374 698.37 606.639 693.493 604.704 688.322C603.613 685.406 601.259 681.066 599.474 678.678C596.23 674.339 586.396 666.831 577.778 662.113C575.266 660.738 571.795 658.6 570.065 657.363C565.44 654.056 565.178 654.622 569.517 658.542ZM367.924 665.2C365.616 666.897 363.727 668.5 363.727 668.762C363.727 669.023 365.752 667.783 368.227 666.006C372.274 663.099 373.337 662.113 372.424 662.113C372.257 662.113 370.232 663.502 367.924 665.2ZM262.806 674.696C262.854 675.861 263.091 676.098 263.41 675.301C263.699 674.579 263.663 673.716 263.331 673.384C262.999 673.052 262.763 673.642 262.806 674.696ZM261.806 678.696C261.854 679.861 262.091 680.098 262.41 679.301C262.699 678.579 262.663 677.716 262.331 677.384C261.999 677.052 261.763 677.642 261.806 678.696ZM335.131 692.696C333.167 695.767 331.766 698.486 332.019 698.739C332.272 698.991 333.376 697.678 334.473 695.819C335.569 693.961 337.252 691.242 338.212 689.777C339.172 688.312 339.675 687.113 339.33 687.113C338.985 687.113 337.095 689.625 335.131 692.696ZM317.599 718.863C316.356 720.449 316.391 720.484 317.977 719.241C318.94 718.486 319.727 717.698 319.727 717.491C319.727 716.668 318.906 717.197 317.599 718.863ZM305.54 728.796C306.261 729.085 307.124 729.049 307.456 728.717C307.788 728.385 307.198 728.149 306.144 728.192C304.979 728.24 304.742 728.477 305.54 728.796ZM108.794 780.843C108.718 783.384 111.636 791.306 112.985 792.22C113.508 792.573 113.437 795.228 112.817 798.586C112.231 801.753 112.005 804.754 112.314 805.254C112.623 805.754 112.28 806.039 111.551 805.888C110.819 805.736 110.288 806.39 110.364 807.352C110.439 808.309 110.102 808.845 109.614 808.543C109.126 808.242 108.727 808.437 108.727 808.977C108.727 809.518 107.49 811.437 105.977 813.242C104.464 815.047 103.784 816.183 104.466 815.767C105.309 815.251 105.515 815.502 105.111 816.555C104.784 817.406 104.157 817.878 103.715 817.606C103.274 817.333 103.136 818.123 103.407 819.362C103.816 821.229 103.702 821.357 102.735 820.113C101.784 818.888 101.65 819.111 102.004 821.333C102.243 822.829 102.104 823.846 101.696 823.594C100.852 823.072 100.301 824.788 98.1898 834.512C96.7168 841.295 96.9468 843.982 98.7518 841.084C99.2558 840.275 99.9588 837.588 100.314 835.113C101.277 828.389 106.2 817.235 111.775 809.141C117.093 801.422 117.842 799.794 114.815 802.533C112.955 804.217 112.927 804.16 113.766 800.438C114.811 795.806 114.727 796.236 114.727 795.529C114.727 794.861 120.504 799.42 125.846 804.304C129.574 807.711 133.667 814.663 133.806 817.823C133.852 818.856 134.097 819.088 134.386 818.372C135.076 816.665 132.833 810.184 130.422 806.918C129.328 805.436 125.592 801.919 122.12 799.102C115.314 793.579 112.221 789.358 110.166 782.789C109.331 780.117 108.837 779.416 108.794 780.843ZM54.7268 827.672C54.7268 828.529 55.1768 828.953 55.7268 828.613C56.2768 828.273 56.7268 827.572 56.7268 827.054C56.7268 826.536 56.2768 826.113 55.7268 826.113C55.1768 826.113 54.7268 826.815 54.7268 827.672ZM48.2108 835.682C43.2938 841.26 38.1948 848.914 38.9148 849.635C39.2858 850.005 52.4008 834.245 54.0268 831.475C55.9238 828.243 52.7348 830.55 48.2108 835.682ZM558.79 856.66C558.752 857.893 561.483 861.539 565.665 865.84C573.084 873.467 574.923 876.302 576.546 882.613C577.817 887.551 577.261 890.837 571.382 913.113C564.496 939.207 561.289 959.106 563.727 960.613C564.35 960.998 564.727 959.048 564.727 955.445C564.727 945.825 569.957 921.204 573.08 916.118C577.581 908.789 578.726 905.011 578.797 897.254C578.836 893.051 579.173 890.321 579.547 891.186C581.157 894.91 586.579 900.005 590.977 901.926C593.589 903.067 595.727 903.652 595.727 903.226C595.727 902.359 592.379 900.561 589.018 899.621C584.948 898.484 579.681 890.32 577.724 882.113C576.308 876.172 571.667 869.204 564.738 862.613C562.425 860.413 560.155 857.713 559.693 856.613C558.862 854.633 558.853 854.633 558.79 856.66ZM505.527 880.874C504.795 888.627 506.074 894.935 509.902 902.45C512.404 907.363 514.727 919.487 514.727 927.636C514.727 933.445 512.89 944.716 511.145 949.613C510.647 951.011 510.754 951.312 511.502 950.613C513.552 948.697 515.727 937.262 515.727 928.402C515.727 916.779 514.247 909.121 510.453 901.115C507.83 895.579 507.286 893.053 506.792 884.113L506.213 873.613L505.527 880.874ZM575.266 910.036C572.887 914.73 571.231 916.8 572.204 913.863C572.432 913.176 573.647 909.238 574.904 905.113C577.046 898.085 577.21 897.844 577.514 901.286C577.732 903.757 576.996 906.621 575.266 910.036Z" fill="black"/>
</svg>
