<svg width="835" height="987" viewBox="0 0 835 987" fill="none" xmlns="http://www.w3.org/2000/svg">
<path fill-rule="evenodd" clip-rule="evenodd" d="M590.489 1C590.149 1.55 590.348 2 590.93 2C591.512 2 591.989 1.55 591.989 1C591.989 0.45 591.791 0 591.548 0C591.305 0 590.829 0.45 590.489 1ZM87.9051 34.75C87.7881 44.153 87.1951 50.205 85.4731 59.578C84.6571 64.021 83.9891 70.233 83.9891 73.382C83.9891 83.675 75.6891 113.495 72.1361 115.969C71.7171 116.261 70.6181 117.604 69.6951 118.953C68.7711 120.302 65.1971 124.355 61.7531 127.96C58.3081 131.564 54.0031 136.31 52.1861 138.507C50.3701 140.703 42.3661 149.317 34.4001 157.649C26.4351 165.982 18.5731 174.654 16.9301 176.922C15.2881 179.19 13.0541 181.935 11.9661 183.023C10.8791 184.11 9.98909 185.637 9.98909 186.417C9.98909 187.196 9.59608 187.983 9.11708 188.167C6.94708 188.995 0.0280791 205.757 7.90922e-05 210.25C-0.0139209 212.525 1.83207 212.477 4.42507 210.135C6.48007 208.278 15.0231 205 17.8081 205C18.6121 205 21.3441 205.961 23.8791 207.136C26.4151 208.311 29.6141 209.755 30.9891 210.345C32.3641 210.935 34.0811 211.853 34.8061 212.386C37.8681 214.64 51.3611 218.094 58.6011 218.477C59.7631 218.539 61.9131 219.375 63.3791 220.336C64.8461 221.297 66.4001 221.864 66.8331 221.596C67.2661 221.329 67.7101 222.997 67.8191 225.305C68.0511 230.214 66.0131 233.923 58.2941 242.636C48.6051 253.574 47.8331 254.497 45.4421 258C44.1271 259.925 41.4331 263.75 39.4541 266.5C31.5161 277.532 27.2071 284.855 24.4491 292C22.8571 296.125 21.1851 299.762 20.7331 300.083C19.3321 301.077 14.0281 316.138 12.4761 323.527C11.6641 327.391 10.9391 336.166 10.8631 343.027C10.6121 365.834 10.7871 366.568 15.2461 361.399C16.4791 359.969 20.0091 357.521 23.0901 355.96C26.1711 354.399 30.0601 351.969 31.7341 350.561C33.4081 349.152 35.2751 348 35.8831 348C36.4911 348 36.9891 347.643 36.9891 347.207C36.9891 345.884 47.9371 342.599 51.8361 342.753C57.5241 342.977 71.3851 340.339 75.8491 338.182C79.3041 336.512 80.2401 336.417 82.3651 337.52C83.7311 338.229 85.0741 338.582 85.3511 338.305C85.6271 338.028 85.6241 338.68 85.3441 339.752C84.8531 341.627 87.1991 345 88.9931 345C89.4671 345 90.1591 343.987 90.5321 342.75C92.1651 337.328 104.397 328.944 114.302 326.458C115.78 326.087 116.989 325.307 116.989 324.725C116.989 324.143 116.718 323.938 116.386 324.269C116.055 324.601 114.739 324.475 113.464 323.99C111.839 323.373 110.809 323.512 110.025 324.456C109.41 325.197 107.718 326.102 106.265 326.467C102.832 327.328 96.4021 331.159 91.9891 334.971C88.0451 338.379 87.4211 338.562 86.2891 336.647C84.6181 333.818 79.7781 333.187 75.0861 335.185C68.8221 337.853 62.8561 339.03 53.5751 339.432C49.1281 339.624 44.1391 340.309 42.4891 340.955C38.6491 342.457 30.0201 347.846 27.7001 350.191C26.7161 351.186 25.0551 352 24.0091 352C22.9631 352 21.8291 352.45 21.4891 353C21.1491 353.55 20.0531 354 19.0521 354C18.0521 354 16.6741 354.675 15.9891 355.5C15.3041 356.325 14.4381 357 14.0641 357C12.8321 357 13.9191 332.685 15.5601 323.535C16.6551 317.431 18.6091 311.528 21.6851 305.035C24.1701 299.791 26.9211 293.7 27.8001 291.5C28.6781 289.3 31.5551 283.979 34.1931 279.677C36.8311 275.374 38.9891 271.436 38.9891 270.927C38.9891 270.417 39.3951 270 39.8921 270C40.3881 270 42.5021 267.428 44.5891 264.284C46.6751 261.14 51.8241 254.863 56.0291 250.334C66.0311 239.566 71.0151 232.225 71.6771 227.288C72.1361 223.865 71.7771 222.828 69.0571 219.731C65.7851 216.003 64.1961 215.41 54.9891 214.474C47.8531 213.749 40.4061 211.159 30.5081 205.96C23.3811 202.216 21.9911 201.824 17.5081 202.294C14.7481 202.583 10.6281 203.465 8.35512 204.253C4.30012 205.659 4.22312 205.643 4.35512 203.439C4.42812 202.203 4.77911 201.371 5.13411 201.59C6.36411 202.349 6.82709 199.238 5.66109 198.05C4.76309 197.137 4.79409 196.932 5.79109 197.179C6.50709 197.355 8.30709 195.25 9.79109 192.5C14.0851 184.544 18.8861 178.502 32.4891 163.931C36.8891 159.218 44.9891 150.523 50.4891 144.607C55.9891 138.692 62.9211 131.298 65.8941 128.176C71.8921 121.876 76.8341 114.572 79.2061 108.5C82.3191 100.528 86.2471 82.268 87.0571 72C87.5131 66.225 88.3291 59.7 88.8711 57.5C89.4131 55.3 89.9991 48.666 90.1731 42.758C90.3471 36.85 90.7711 32.012 91.1171 32.008C91.4621 32.004 92.3041 32.675 92.9891 33.5C93.6741 34.325 94.8681 35 95.6431 35C96.4181 35 97.3111 35.675 97.6271 36.5C97.9441 37.325 98.5811 38 99.0441 38C99.5061 38 104.071 40.311 109.187 43.135C123.645 51.115 126.875 52.538 135.989 54.946C140.664 56.181 145.839 57.802 147.489 58.549C149.139 59.296 153.495 61.021 157.17 62.383C168.337 66.521 178.249 71.76 182.989 76.03C185.464 78.26 188.839 80.807 190.489 81.69C192.139 82.574 194.881 84.355 196.583 85.648C198.285 86.942 200.198 88 200.833 88C201.469 88 201.989 88.398 201.989 88.883C201.989 89.369 202.777 90.052 203.739 90.4C204.701 90.748 207.739 92.349 210.489 93.959C213.239 95.568 216.076 96.911 216.794 96.943C217.512 96.974 220.212 97.933 222.794 99.072C225.376 100.212 229.064 101.835 230.989 102.68C232.914 103.524 236.739 105.243 239.489 106.5C242.239 107.756 246.739 109.807 249.489 111.056C253.988 113.1 267.989 126 267.989 128.101C267.989 128.511 269.146 130.222 270.561 131.903C271.975 133.584 272.888 135.354 272.59 135.837C272.292 136.319 269.672 136.979 266.768 137.304C245.975 139.626 238.266 141.14 232.107 144.11C222.732 148.631 221.608 149.932 222.239 155.525C222.911 161.491 226.6 166.1 235.577 172.188C239.379 174.766 242.859 176.903 243.31 176.938C243.762 176.972 244.741 177.563 245.485 178.25C248.693 181.213 255.893 187.096 260.956 190.892C268.455 196.514 282.989 210.983 282.989 212.827C282.989 213.655 283.296 214.026 283.672 213.65C284.429 212.894 286.425 217.109 288.575 224C289.348 226.475 290.514 233.563 291.168 239.75C291.822 245.938 292.742 251 293.211 251C293.931 251 293.755 256.048 292.915 259.5C292.458 261.377 299.433 276.487 302.057 279.303C303.034 280.352 304.373 282.513 305.033 284.105C305.692 285.697 306.627 287 307.11 287C307.594 287 307.989 287.623 307.989 288.383C307.989 289.645 304.599 291.386 302.704 291.097C302.273 291.031 301.148 290.857 300.204 290.709C299.261 290.562 298.039 290.177 297.489 289.852C296.939 289.528 294.728 288.694 292.575 288C290.423 287.305 286.676 285.221 284.249 283.368C281.822 281.516 279.05 280 278.089 280C277.128 280 272.583 278.875 267.989 277.5C254.432 273.442 244.995 274.579 237.916 281.122C234.224 284.534 232.345 291.03 233.937 294.876C235.521 298.699 238.514 301.412 240.08 300.443C240.825 299.984 241.04 300.108 240.634 300.765C239.586 302.461 248.227 310 251.219 310C252.067 310 254.049 310.672 255.625 311.494C257.2 312.315 259.164 313.023 259.989 313.067C260.814 313.111 262.839 314.008 264.489 315.062C266.139 316.116 268.164 317.288 268.989 317.666C269.814 318.044 270.714 318.674 270.989 319.065C271.264 319.455 273.064 320.501 274.989 321.389C276.914 322.276 280.588 324.315 283.152 325.921C285.717 327.526 288.117 328.538 288.486 328.17C288.854 327.801 289.006 327.986 288.822 328.58C288.212 330.558 307.198 346.607 308.902 345.554C309.424 345.231 310.176 345.494 310.574 346.138C311.063 346.928 310.841 347.05 309.894 346.513C309.121 346.075 311.864 349.02 315.989 353.057C320.114 357.094 323.86 360.296 324.313 360.173C324.767 360.051 324.84 360.431 324.477 361.019C324.114 361.607 324.26 362.63 324.802 363.294C327.244 366.284 334.131 381.39 336.984 390.015C338.71 395.232 340.317 399.95 340.555 400.5C340.794 401.05 338.371 402.337 335.172 403.359C330.128 404.971 328.6 405.061 323.679 404.039C315.227 402.285 307.777 405.084 305.92 410.71C304.118 416.169 306.122 419.743 317.498 431.362C324.775 438.795 325.721 439.538 335.241 445.317C339.374 447.826 343.998 451.031 345.518 452.439C347.038 453.848 348.602 455 348.993 455C349.385 455 351.589 458.674 353.891 463.164C356.728 468.697 357.714 471.552 356.95 472.024C356.33 472.407 352.822 472.517 349.156 472.267C344.53 471.952 339.427 472.486 332.489 474.011C326.989 475.22 320.464 476.572 317.989 477.016C315.514 477.459 309.946 479.017 305.615 480.478C296.499 483.551 289.353 483.386 277.78 479.835C270.28 477.533 269.504 477.811 267.113 483.659C265.671 487.187 265.882 487.802 271.508 496.5C274.625 501.319 275.83 506.113 276.533 516.5C276.682 518.7 277.063 523.65 277.381 527.5C277.699 531.35 278.234 538.55 278.571 543.5C279.229 553.176 280.462 556.169 286.291 562.229C292.379 568.558 298.587 575.509 300.038 577.62C300.84 578.786 303.744 581.42 306.492 583.474C309.24 585.528 312.839 588.486 314.489 590.049C316.139 591.611 318.389 593.721 319.489 594.738C320.589 595.755 322.389 597.877 323.489 599.453C324.589 601.029 326.933 603.968 328.697 605.984C331.799 609.528 334.947 615.71 333.055 614.541C332.545 614.225 331.827 614.452 331.461 615.045C329.783 617.76 324.702 618.232 298.989 618.062L272.489 617.887L267.989 620.431C265.514 621.83 262.822 623.293 262.007 623.683C261.192 624.073 257.592 627.179 254.007 630.584C250.422 633.99 246.015 638.001 244.214 639.498C240.958 642.204 239.419 645.024 234.934 656.5C233.644 659.8 232.229 662.928 231.789 663.45C231.349 663.973 230.989 664.93 230.989 665.578C230.989 666.226 230.245 668.498 229.336 670.628L227.684 674.5L226.309 667C225.553 662.875 224.708 657.925 224.431 656C224.153 654.075 223.04 648.752 221.958 644.171C220.875 639.59 219.989 634.832 219.989 633.597C219.989 629.277 230.082 613.028 237.527 605.363C241.46 601.313 244.368 598 243.988 598C243.609 598 242.482 598.903 241.483 600.006C238.876 602.887 238.775 602.068 241.013 596.18C242.1 593.319 242.948 590.196 242.898 589.239C242.848 588.283 241.989 590.104 240.989 593.287C239.99 596.47 238.665 599.685 238.045 600.432C237.426 601.179 237.047 602.232 237.204 602.774C237.361 603.315 235.566 605.822 233.216 608.345C230.866 610.868 227.116 616.318 224.884 620.458C222.651 624.597 220.46 628.209 220.016 628.483C218.825 629.219 218.157 624.552 216.51 604C215.695 593.825 214.751 583.205 214.412 580.401C213.477 572.655 213.246 568.697 212.033 539.592C211.416 524.793 210.681 512.311 210.399 511.854C209.32 510.109 208.936 495.211 209.872 491.446C212.021 482.802 212.117 482.234 210.917 485.25C209.373 489.128 207.996 488.664 207.951 484.25C207.892 478.393 206.865 472.561 205.771 471.875C205.194 471.513 205.157 471.014 205.684 470.689C206.21 470.363 205.634 462.229 204.311 451.314C203.057 440.966 201.551 427.1 200.965 420.5C200.378 413.9 199.477 406.097 198.961 403.16C198.099 398.248 198.224 397.559 200.523 394.544C203.443 390.717 211.57 383.035 218.005 378.02C223.28 373.909 226.087 372.513 239.199 367.476C244.539 365.425 249.713 362.858 250.696 361.771C252.957 359.273 256.541 357.466 260.874 356.641C264.564 355.938 270.989 352.348 270.989 350.989C270.989 350.522 269.077 351.2 266.739 352.495C264.401 353.79 260.763 355.165 258.652 355.552C256.351 355.974 253.025 357.805 250.342 360.128C247.881 362.257 245.482 364 245.01 364C244.538 364 243.433 364.276 242.553 364.614C239.538 365.771 242.228 346.474 246.472 336.5C247.409 334.3 247.756 332.95 247.245 333.5C244.859 336.068 241.798 345.925 240.94 353.804C239.547 366.603 239.59 366.503 234.761 367.949C224.321 371.073 215.648 377.069 203.739 389.394C198.609 394.703 197.449 395.363 197.878 392.728C197.947 392.304 197.561 388.029 197.02 383.228C196.48 378.428 195.783 370.45 195.473 365.5C194.056 342.874 192.89 329.105 192 324.5C191.031 319.482 188.698 296.681 188.675 292C188.669 290.625 190.356 284.1 192.426 277.5C196.242 265.33 201.263 255.31 205.279 251.853C212.017 246.054 226.341 241.379 241.723 239.958C252.074 239.002 261.989 236.48 261.989 234.802C261.989 233.648 261.286 233.792 257.689 235.682C255.611 236.775 250.633 237.619 243.489 238.089C235.829 238.594 229.968 239.637 224.189 241.523C219.624 243.014 215.676 244.02 215.415 243.76C214.768 243.112 223.862 217.148 225.833 214.016C226.704 212.632 228.959 209.576 230.844 207.225C234.482 202.686 234.771 200.467 231.23 204.254C227.065 208.709 221.938 218.553 218.804 228.115C216.554 234.979 215.072 238.007 213.798 238.34C212.803 238.6 212.025 239.642 212.068 240.656C212.113 241.708 212.364 241.963 212.651 241.25C212.929 240.563 213.58 240 214.098 240C214.616 240 214.342 241.35 213.489 243C212.636 244.65 211.5 246 210.966 246C208.999 246 201.898 253.389 198.605 258.863C196.739 261.963 193.583 269.867 191.591 276.427C189.598 282.987 187.808 288.515 187.612 288.711C187.416 288.906 186.899 286.689 186.463 283.783C186.027 280.878 185.595 278.275 185.505 278C185.414 277.725 184.978 275.25 184.536 272.5C182.988 262.863 179.061 246.653 177.026 241.5C175.773 238.328 174.981 235.02 171.995 220.5C170.977 215.55 168.876 207.45 167.327 202.5C165.076 195.305 164.523 191.695 164.574 184.5C164.631 176.338 165.034 174.497 168.899 164.725C171.242 158.799 174.147 152.724 175.353 151.225C176.558 149.726 178.758 146.692 180.241 144.483C184.649 137.918 190.635 132.048 194.689 130.317C196.779 129.424 201.639 128.591 205.489 128.466C209.339 128.34 213.009 128.184 213.644 128.119C215.493 127.929 223.106 121.19 222.143 120.595C221.663 120.299 220.099 121.369 218.669 122.975C216.141 125.812 210.432 127.768 207.719 126.726C205.15 125.741 194.787 128.105 191.183 130.5C187.672 132.833 185.455 135.381 177.509 146.22C170.317 156.029 164.35 170.676 163.148 181.47L162.477 187.5L160.6 182.5C159.568 179.75 157.617 175.035 156.266 172.022C154.914 169.01 152.909 164.285 151.81 161.522C150.711 158.76 148.917 154.25 147.823 151.5C146.73 148.75 144.516 142.675 142.904 138C141.291 133.325 139.104 127.7 138.043 125.5C136.982 123.3 135.344 119.717 134.403 117.537C133.463 115.358 131.41 111.803 129.841 109.637C128.272 107.472 126.989 105.077 126.989 104.316C126.989 102.803 121.466 97 120.026 97C119.534 97 118.393 96.261 117.489 95.357C115.983 93.851 115.713 93.848 114.246 95.314C112.793 96.767 112.788 97.262 114.192 100.707C115.043 102.793 117.19 108.325 118.964 113C120.738 117.675 122.58 122.4 123.056 123.5C123.532 124.6 125.096 128.2 126.532 131.5C127.968 134.8 129.828 139.525 130.665 142C131.503 144.475 132.778 147.85 133.5 149.5C134.222 151.15 135.569 154.975 136.494 158C137.418 161.025 139.676 167.55 141.512 172.5C145.468 183.168 149.967 198.746 152.992 212.25C154.193 217.613 155.61 222 156.141 222C156.673 222 156.883 222.362 156.609 222.805C156.336 223.248 156.506 225.386 156.989 227.555C157.811 231.254 157.768 231.376 156.293 229.5L154.72 227.5L155.48 229.5C158.453 237.321 159.96 242.595 161.338 250C166.778 279.251 167.164 281.851 170.023 308.5C170.554 313.45 171.437 319.75 171.986 322.5C174.21 333.644 178.986 363.389 178.949 365.858L178.909 368.5L177.5 365.908C173.478 358.509 169.483 345.348 167.049 331.478C165.511 322.713 157.489 304.381 150.107 292.764C141.129 278.634 132.251 273.844 114.874 273.756L104.26 273.702L99.5591 277.291C96.9741 279.265 93.6131 282.595 92.0901 284.69C90.5681 286.786 88.5711 289.119 87.6521 289.876C85.8631 291.348 78.9891 302.22 78.9891 303.575C78.9891 304.022 80.1141 302.864 81.4891 301C82.8641 299.136 83.9891 297.024 83.9891 296.306C83.9891 295.588 84.3551 295 84.8031 295C85.2511 295 87.8381 292.046 90.5531 288.436C93.5891 284.398 97.5941 280.549 100.958 278.436C106.093 275.21 106.953 275 115.051 275C124.13 275 133.587 277.422 137.169 280.663C138.17 281.569 138.989 281.973 138.989 281.56C138.989 280.454 145.453 288.386 148.098 292.738C149.355 294.807 150.682 296.725 151.046 297C152.106 297.8 158.611 310.921 161.406 317.898C163.703 323.632 165.327 329.943 168.12 344C169.272 349.798 173.381 360.679 177.667 369.282C179.87 373.703 181.377 378.576 181.998 383.282C182.521 387.252 183.654 395.45 184.514 401.5C185.375 407.55 186.261 415.65 186.483 419.5C186.705 423.35 187.362 430.775 187.944 436C188.525 441.225 189.684 451.69 190.519 459.256C191.354 466.822 193.186 480.547 194.59 489.756C195.994 498.965 197.535 509.445 198.013 513.045C198.491 516.645 199.383 520.92 199.994 522.545C200.981 525.172 200.938 525.334 199.604 524C198.778 523.175 197.921 521.375 197.7 520C197.478 518.625 197.041 516.825 196.728 516C194.954 511.32 190.989 498.823 190.989 497.914C190.989 496.013 183.08 485.735 174.719 476.769C166.994 468.486 162.829 462.995 154.236 449.762C151.784 445.986 149.09 443.27 146.359 441.822C143.9 440.517 141.01 437.76 139.271 435.06C136.327 430.49 129.989 412.84 129.989 409.211C129.989 404.847 121.215 381.343 121.06 385.29C121.021 386.274 121.839 388.749 122.877 390.79C123.916 392.83 125.964 399.45 127.428 405.5C130.397 417.763 134.403 429.812 137.165 434.78C138.168 436.585 138.989 438.212 138.989 438.397C138.989 438.582 135.839 438.508 131.989 438.232C127.717 437.926 124.989 438.116 124.989 438.717C124.989 439.259 128.878 439.977 133.631 440.313C140.525 440.799 143.04 441.43 146.06 443.428C150.16 446.141 150.21 446.204 159.033 459.5C162.318 464.45 168.841 472.604 173.529 477.619C185.531 490.458 188.448 494.949 191.919 505.93C196.846 521.513 199.713 532.176 200.407 537.5C200.765 540.25 201.338 544.525 201.68 547C202.023 549.475 202.357 576.025 202.423 606C202.491 636.96 202.938 661.148 203.458 662C204.248 663.295 204.141 663.312 202.681 662.128C201.75 661.373 200.989 660.383 200.989 659.929C200.989 657.845 189.847 648.424 183.489 645.132C174.766 640.615 150.105 635.958 139.19 636.766C127.533 637.629 118.042 637.178 113.065 635.525C110.298 634.606 107.574 634.139 107.011 634.486C106.449 634.834 105.989 634.66 105.989 634.101C105.989 633.542 103.402 631.775 100.239 630.175C97.0761 628.575 91.5641 625.641 87.9891 623.655C83.4241 621.12 80.2241 620.039 77.2391 620.023C74.9021 620.01 72.9891 620.417 72.9891 620.927C72.9891 621.436 72.2011 622.059 71.2391 622.311C69.7961 622.688 79.4041 623.426 83.7281 623.27C84.4101 623.246 84.7751 623.538 84.5391 623.919C84.0511 624.709 90.9091 629.362 99.0001 633.729C110.573 639.975 120.414 641.746 138.989 640.926C146.707 640.585 160.075 641.323 161.489 642.167C162.039 642.496 164.064 643.068 165.989 643.439C175.698 645.308 186.197 650.568 194.109 657.527C197.604 660.601 201.989 669.175 201.989 672.935C201.989 674.071 202.403 675 202.908 675C204.846 675 203.782 744.089 201.506 766C201.249 768.475 200.602 775.9 200.068 782.5C199.534 789.1 198.412 799.628 197.575 805.896C196.737 812.164 196.32 817.726 196.648 818.258C196.977 818.789 196.835 819.511 196.333 819.862C195.397 820.517 191.757 840.13 189.44 857C188.723 862.225 187.222 871.637 186.106 877.915C184.989 884.194 184.35 889.776 184.687 890.32C185.023 890.864 184.858 891.037 184.32 890.704C182.974 889.873 180.064 909.972 179.645 923C179.249 935.283 180.515 941.446 185.503 951.516C189.29 959.162 197.208 968.601 198.938 967.531C199.534 967.163 199.782 966.474 199.489 966C199.196 965.526 199.414 964.856 199.973 964.51C200.532 964.165 200.989 964.557 200.989 965.382C200.989 966.207 200.539 967.16 199.989 967.5C199.439 967.84 198.989 968.505 198.989 968.978C198.989 970.226 205.965 976.544 207.029 976.26C207.524 976.128 208.404 976.906 208.983 977.989C210.108 980.091 217.001 982.424 225.489 983.574C228.239 983.947 231.071 984.717 231.782 985.285C233.94 987.007 245.122 986.704 248.489 984.832C250.139 983.915 253.064 982.37 254.989 981.399C259.964 978.89 265.906 974.734 270.08 970.845C274.965 966.295 282.52 956.139 284.55 951.394C285.467 949.253 287.125 945.475 288.236 943C291.463 935.807 294.958 923.812 294.974 919.872C294.982 917.877 295.63 914.711 296.413 912.836C297.196 910.962 299.462 903.835 301.449 897C304.906 885.103 312.878 866.831 317.367 860.514C318.534 858.872 320.014 856.531 320.655 855.312C321.296 854.093 322.337 852.512 322.968 851.798C326.925 847.323 337.816 830.529 337.302 829.697C336.96 829.144 337.119 828.962 337.656 829.294C338.193 829.626 339.281 829.133 340.074 828.199C346.091 821.111 348.115 818.013 347.441 816.922C346.981 816.178 347.094 815.947 347.726 816.337C348.751 816.971 350.971 814.725 359.989 803.93C362.464 800.967 365.389 797.602 366.489 796.452C369.917 792.868 375.989 784.719 375.989 783.701C375.989 783.167 375.038 783.94 373.875 785.418C372.712 786.896 371.551 787.895 371.294 787.638C370.388 786.732 374.839 780 376.344 780C376.618 780 376.988 780.744 377.166 781.653C377.394 782.82 378.957 781.575 382.489 777.413C393.573 764.351 422.281 738.458 440.989 724.65C444.014 722.417 447.609 719.557 448.979 718.295C450.348 717.033 451.936 716 452.508 716C453.08 716 454.196 715.1 454.989 714C455.782 712.9 456.843 712 457.347 712C457.851 712 461.091 709.638 464.548 706.75C468.005 703.863 473.825 699.025 477.482 696C481.139 692.975 486.563 688.197 489.535 685.382C492.506 682.567 496.412 679.702 498.213 679.015C500.015 678.328 502.839 677.183 504.489 676.472C509.795 674.184 521.38 670.964 525.494 670.633C529.413 670.319 534.524 671.237 538.489 672.967C539.589 673.448 543.131 675.001 546.36 676.42C549.589 677.839 552.836 679 553.575 679C554.314 679 556.847 679.642 559.204 680.426C561.561 681.21 564.389 681.998 565.489 682.176C566.589 682.354 567.714 682.745 567.989 683.044C569.754 684.966 591.258 696.952 592.055 696.459C592.596 696.125 592.974 696.222 592.895 696.676C592.585 698.462 593.062 699.781 594.739 701.771C595.702 702.913 597.601 705.222 598.96 706.902C601.699 710.287 603.329 711.191 605.32 710.427C606.211 710.085 604.889 708.083 601.32 704.368C598.388 701.317 595.989 698.216 595.989 697.478C595.989 696.268 591.014 692 589.604 692C589.287 692 586.566 690.425 583.556 688.5C580.547 686.575 577.795 685 577.441 685C577.087 685 575.603 684.164 574.143 683.141C571.389 681.212 562.002 677.759 556.087 676.499C554.216 676.101 549.266 674.139 545.087 672.139C537.801 668.654 537.057 668.507 526.989 668.56C517.349 668.612 515.925 668.878 509.601 671.808C505.812 673.564 502.27 675 501.729 675C500.682 675 509.38 664.302 512.035 662.325C512.903 661.679 514.935 659.219 516.551 656.859C518.167 654.498 520.276 651.765 521.239 650.784C522.202 649.803 522.989 648.621 522.989 648.158C522.989 647.377 537.298 642.689 542.989 641.604C544.364 641.342 542.847 641.363 539.618 641.651C536.389 641.939 532.001 642.79 529.868 643.543C527.735 644.295 525.989 644.513 525.989 644.026C525.989 643.54 528.604 639.172 531.801 634.321C534.998 629.469 539.385 622.587 541.551 619.027C543.717 615.466 546.276 611.754 547.239 610.777C548.202 609.8 548.989 608.635 548.989 608.189C548.989 607.742 549.776 606.488 550.739 605.401C554.073 601.636 556.989 597.074 556.989 595.624C556.989 594.822 557.372 594.017 557.84 593.833C559.599 593.144 569.989 575.86 569.989 573.622C569.989 573.092 570.57 571.947 571.279 571.079C571.989 570.21 573.901 566.576 575.529 563.002C578.389 556.724 583.909 550.333 592.808 542.998C594.808 541.349 595.936 540 595.314 540C594.692 540 591.102 542.882 587.336 546.404C583.57 549.926 580.33 552.654 580.135 552.467C579.94 552.279 581.853 547.866 584.385 542.661C586.917 537.455 588.989 532.702 588.989 532.098C588.989 531.494 589.395 531 589.891 531C590.877 531 593.399 525.251 593.285 523.261C593.247 522.579 593.614 522.268 594.102 522.57C594.59 522.871 594.989 522.664 594.989 522.109C594.989 521.554 596.335 519.105 597.981 516.667C599.626 514.229 602.356 509.604 604.047 506.39C605.738 503.176 607.592 499.979 608.167 499.286C608.742 498.593 608.955 496.783 608.64 495.263C608.326 493.743 608.313 493.063 608.612 493.75C609.781 496.437 611.29 494.631 615.716 485.25C618.246 479.887 621.354 474.126 622.622 472.446C623.89 470.767 625.631 467.842 626.492 465.946C627.352 464.051 629.441 460.025 631.133 457C638.01 444.709 641.983 437.318 643.498 434C644.893 430.944 649.154 427.184 653.989 424.743C654.814 424.326 658.189 422.179 661.489 419.972C668.4 415.349 687.152 406 694.489 403.519C697.239 402.589 701.83 401.581 704.691 401.279C712.033 400.504 731.196 402.798 735.746 404.997C737.828 406.003 742.673 407.826 746.511 409.048C750.349 410.27 753.939 411.604 754.489 412.013C755.942 413.092 766.989 413.816 766.989 412.832C766.989 412.375 767.664 412 768.489 412C769.314 412 769.989 411.534 769.989 410.965C769.989 410.254 769.388 410.252 768.07 410.957C765.198 412.494 757.967 411.149 745.564 406.771C733.001 402.337 723.701 400.325 712.336 399.582C708.02 399.3 704.39 399.053 704.269 399.034C703.707 398.946 714.87 382.404 717.126 379.983C718.027 379.016 719.152 377.561 719.626 376.748C720.101 375.936 722.565 372.848 725.103 369.886C736.693 356.359 740.977 351 740.202 351C739.116 351 735.464 354.999 729.699 362.5C727.163 365.8 723.72 370.075 722.049 372C720.378 373.925 718.668 375.955 718.25 376.51C717.831 377.066 715.802 379.617 713.739 382.179C711.677 384.741 709.989 387.323 709.989 387.918C709.989 388.513 709.583 389 709.087 389C708.591 389 707.712 390.237 707.134 391.75C705.195 396.826 702.202 399.009 690.936 403.566C675.103 409.969 665.215 415.386 649.792 426.107C646.941 428.088 645.033 427.099 647.311 424.821C648.048 424.083 648.985 422.135 649.393 420.49C649.801 418.846 652.802 412.843 656.062 407.151C659.322 401.458 661.989 396.6 661.989 396.354C661.989 396.109 663.494 392.666 665.333 388.704C674.648 368.637 685.523 334.171 693.006 301C693.688 297.975 694.677 294.957 695.204 294.294C695.73 293.63 695.922 292.701 695.631 292.229C695.131 291.421 697.102 283.267 701.969 266C703.131 261.875 704.982 254.675 706.082 250C710.886 229.57 719.283 207.666 728.183 192.346C731.009 187.481 734.105 181.925 735.063 180C736.021 178.075 740.333 172.782 744.647 168.238C748.96 163.695 752.587 159.575 752.707 159.083C752.827 158.592 752.259 157.934 751.443 157.621C750.497 157.258 748.064 159.066 744.725 162.614C741.845 165.672 736.786 170.948 733.482 174.338C730.178 177.727 725.46 182.975 722.996 186C720.533 189.025 717.949 191.86 717.253 192.3C716.558 192.74 715.989 193.575 715.989 194.155C715.989 194.736 714.864 196.548 713.489 198.182C712.114 199.816 710.989 201.794 710.989 202.577C710.989 203.36 710.131 204.858 709.082 205.907C706.348 208.641 695.29 231.753 694.445 236.5C693.46 242.03 692.059 244.389 692.019 240.583C691.972 236.006 691.206 237.946 690.671 244C690.223 249.071 688.806 254.859 682.348 278C675.942 300.953 672.789 314.464 669.511 333C668.587 338.225 666.68 345.65 665.272 349.5C658.116 369.074 652.323 383.481 647.982 392.5C645.335 398 642.939 403.175 642.658 404C642.377 404.825 642.111 402.575 642.068 399C641.885 383.991 636.841 368.88 627.26 354.638C625.461 351.964 623.989 349.151 623.989 348.388C623.989 347.625 623.539 347 622.989 347C622.439 347 621.978 346.438 621.964 345.75C621.923 343.643 612.673 334.196 609.489 333.009L606.489 331.891L609.989 334.905C611.914 336.562 613.772 337.937 614.119 337.959C614.906 338.01 622.989 348.651 622.989 349.637C622.989 350.035 624.767 353.092 626.941 356.43C636.032 370.393 640.989 386.112 640.989 400.974C640.989 406.534 638.622 415.215 635.594 420.761C634.771 422.267 631.523 429.125 628.377 436C625.23 442.875 621.381 450.14 619.822 452.144C618.264 454.148 616.989 456.105 616.989 456.494C616.989 456.882 614.477 461.637 611.406 467.061C608.207 472.71 606.138 477.431 606.56 478.115C606.998 478.824 606.874 479.047 606.253 478.663C605.679 478.308 604.463 479.589 603.552 481.509C602.641 483.429 601.7 485 601.462 485C601.224 485 600.089 483.155 598.938 480.901C596.072 475.282 589.674 468.554 584.389 465.6C581.969 464.247 579.989 463.505 579.989 463.949C579.989 464.394 581.388 465.337 583.097 466.045C587.426 467.838 595.282 476.088 597.544 481.216C598.583 483.572 599.757 485.735 600.151 486.022C600.546 486.309 599.536 489.009 597.906 492.022C596.276 495.035 594.676 498.288 594.349 499.25C594.023 500.212 593.391 501 592.946 501C592.5 501 590.738 503.362 589.029 506.25C583.797 515.093 583.529 515.495 580.239 519.423C579.552 520.244 578.989 521.385 578.989 521.958C578.989 522.531 578.539 523 577.989 523C577.439 523 577.101 523.359 577.239 523.799C577.376 524.238 574.901 527.982 571.739 532.118C568.577 536.254 565.989 540.169 565.989 540.819C565.989 541.469 565.491 542 564.882 542C564.273 542 564.043 542.698 564.371 543.552C564.707 544.428 564.543 544.842 563.994 544.503C563.459 544.172 561.751 546.511 560.199 549.701C558.647 552.89 555.781 557.75 553.83 560.5C551.879 563.25 547.671 570.45 544.479 576.5C533.563 597.19 521.714 617.497 517.194 623.261C514.71 626.429 512.539 628.883 512.37 628.714C512.201 628.545 512.721 626.219 513.526 623.544C516.396 614.009 515.258 606.262 509.632 597.031C507.778 593.989 505.961 589.475 505.594 587C504.857 582.024 499.866 570.869 499.23 572.777C499.009 573.44 499.528 574.682 500.384 575.538C502.15 577.304 504.989 586.118 504.989 589.836C504.989 592.109 504.847 592.186 503.239 590.778C502.276 589.935 499.689 588.686 497.489 588.002C495.289 587.318 491.764 586.16 489.656 585.427C486.423 584.304 486.001 584.309 486.956 585.46C487.579 586.21 490.428 587.364 493.289 588.025C501.439 589.906 506.999 594.303 511.141 602.143C514.294 608.112 514.285 618.915 511.118 628C509.08 633.849 507.784 635.54 498.171 644.89C492.296 650.605 485.159 657.007 482.312 659.118C479.464 661.229 476.85 663.416 476.503 663.978C475.018 666.38 474.235 664.704 475.229 661.25C477.039 654.96 476.63 642.079 474.476 637.5C473.44 635.3 472.345 633.275 472.041 633C471.737 632.725 471.414 631.825 471.322 631C470.986 627.997 467.188 612.429 466.155 609.822C464.461 605.548 452.618 594.517 446.106 591.145C444.667 590.4 441.914 588.759 439.989 587.499C438.064 586.239 434.802 584.621 432.739 583.903C430.677 583.185 428.989 582.239 428.989 581.799C428.989 581.36 428.462 581 427.818 581C427.174 581 425.936 580.409 425.068 579.688C424.199 578.966 421.689 577.651 419.489 576.766C417.289 575.88 414.026 574.561 412.239 573.834C410.452 573.107 408.999 572.059 409.011 571.506C409.063 569.172 413.047 565.581 417.601 563.765C439.692 554.956 444.968 553.576 464.489 551.501C473.002 550.596 480.989 548.38 480.989 546.922C480.989 546.415 482.543 546 484.442 546C487.751 546 489.341 545.52 496.865 542.253C500.322 540.751 509.219 537.982 518.989 535.365C526.911 533.243 534.806 529.209 536.704 526.313C538.684 523.29 539.848 511.983 538.731 506.625C537.711 501.733 533.171 496.604 531.263 498.188C530.241 499.036 530.084 498.915 530.57 497.65C530.983 496.574 530.564 495.827 529.343 495.46C528.323 495.153 525.239 493.85 522.489 492.563C508.371 485.958 501.236 484.154 495.804 485.817C493.981 486.375 490.899 487.096 488.957 487.42L485.424 488.009L485.199 482.829C484.84 474.58 477.566 463.86 469.595 459.833C457.892 453.921 455.91 453 454.895 453C452.685 453 446.989 449.738 446.989 448.472C446.989 446.726 459.164 440 462.325 440C463.706 440 466.965 438.375 469.566 436.389C475.79 431.638 484.824 427 487.854 427C490.095 427 499.891 424.495 507.881 421.879C509.746 421.268 516.271 420.433 522.381 420.023C528.49 419.613 534.35 418.914 535.403 418.469C536.737 417.905 537.103 418.006 536.611 418.802C536.091 419.644 539.188 419.827 548.391 419.498C560.154 419.077 561.16 418.876 565.793 416.026C568.498 414.361 571.17 413 571.731 413C573.074 413 577.638 406.977 578.196 404.468C578.436 403.386 577.785 400.274 576.748 397.554C575.712 394.834 574.168 389.209 573.318 385.054C571.069 374.062 565.961 364.413 553.226 347.1C551.445 344.68 549.989 342.285 549.989 341.779C549.989 340.566 547.394 338 546.167 338C545.637 338 544.952 337.347 544.646 336.549C544.34 335.752 541.817 334.121 539.039 332.926C536.262 331.731 533.989 330.431 533.989 330.037C533.989 329.643 532.077 328.7 529.739 327.943C527.401 327.186 525.039 326.075 524.489 325.476C523.164 324.031 516.263 319 515.607 319C514.527 319 509.989 314.215 509.989 313.076C509.989 312.419 510.434 312.157 510.978 312.493C511.522 312.829 513.659 312.317 515.728 311.355C519.099 309.787 529.722 303.277 530.989 302.003C531.264 301.726 532.614 301.351 533.989 301.168C535.364 300.986 537.614 300.108 538.989 299.218C544.338 295.756 563.837 286.213 569.025 284.519C572.03 283.538 575.032 282.306 575.695 281.782C576.359 281.257 577.313 281.082 577.816 281.393C578.319 281.704 581.279 281.294 584.394 280.483C587.509 279.671 593.305 278.53 597.274 277.946C601.242 277.363 607.189 276.057 610.489 275.045C613.789 274.032 617.952 272.897 619.739 272.522C621.526 272.148 622.989 271.523 622.989 271.133C622.989 270.744 624.377 270.32 626.072 270.19C632.676 269.687 641.812 263.058 644.252 257C647.134 249.844 647.174 248.276 644.539 245.641C641.901 243.003 636.79 241.387 634.859 242.58C634.136 243.027 633.946 242.879 634.367 242.197C635.135 240.954 631.628 238.92 625.489 237.047C623.289 236.376 620.071 235.191 618.338 234.414C616.605 233.636 614.76 233 614.238 233C612.202 233 604.872 226.791 601.37 222.101C599.212 219.21 596.079 216.442 593.801 215.415L589.915 213.663L594.702 210.875C597.335 209.341 601.514 207.145 603.989 205.994C614.047 201.317 627.558 194.436 628.604 193.456C629.218 192.882 632.483 190.651 635.861 188.5C641.007 185.221 641.726 184.433 640.299 183.634C639.14 182.985 638.472 183.051 638.209 183.84C637.996 184.478 637.455 185 637.006 185C636.557 185 633.782 186.621 630.839 188.602C627.897 190.582 615.453 197.158 603.187 203.214C587.099 211.157 580.97 214.654 581.187 215.764C581.353 216.61 582.529 217.461 583.8 217.654C585.071 217.848 585.857 217.595 585.547 217.094C585.237 216.592 587.402 217.133 590.358 218.297C593.78 219.644 596.505 221.538 597.857 223.512C603.078 231.132 609.39 235.496 620.989 239.505C632.698 243.552 642.974 248.377 643.515 250.082C644.569 253.404 640.582 259.365 634.475 263.596C630.429 266.4 613.297 271.918 603.489 273.576C590.549 275.764 574.064 279.8 566.515 282.63C559.78 285.153 533.945 298.079 531.138 300.329C530.395 300.925 529.27 301.493 528.638 301.592C528.006 301.691 522.719 304.073 516.89 306.886C511.06 309.699 505.773 312 505.14 312C501.329 312 508.808 320.138 515.364 323.125C516.808 323.783 517.989 324.699 517.989 325.161C517.989 325.622 518.516 326 519.16 326C519.804 326 521.042 326.64 521.91 327.421C522.779 328.203 524.164 328.99 524.989 329.171C525.814 329.352 526.714 329.729 526.989 330.009C528.313 331.358 536.072 336 537.003 336C539.58 336 544.788 340.198 547.546 344.5C548.604 346.15 550.824 349.345 552.479 351.6C554.135 353.856 556.164 356.72 556.989 357.966C557.814 359.212 559.276 361.263 560.239 362.523C561.202 363.784 561.989 365.091 561.989 365.428C561.989 365.764 563.027 367.718 564.296 369.77C567 374.14 570.167 382.272 570.594 385.94C570.876 388.362 573.91 398.529 575.429 402.141C576.45 404.569 570.945 410.307 564.738 413.284C558.696 416.181 550.611 417.138 529.489 417.455C515.984 417.658 512.966 417.992 506.489 420.004C504.839 420.516 499.092 421.877 493.717 423.027C485.477 424.791 474.835 428.899 472.989 431.029C470.831 433.518 464.821 437 462.68 437C459.503 437 444.18 445.263 442.592 447.834C441.712 449.258 446.5 453.843 449.654 454.596C451.213 454.969 454.964 456.512 457.989 458.025C461.014 459.539 465.064 461.565 466.989 462.529C471.444 464.759 479.657 473.444 481.619 478C482.449 479.925 483.209 484.086 483.308 487.247C483.408 490.407 483.801 492.995 484.182 492.997C484.563 492.999 486.363 492.175 488.182 491.168C495.937 486.871 510.895 489.228 523.587 496.748C526.391 498.409 529.684 500.086 530.906 500.474C536.132 502.132 538.798 513.513 535.905 521.812C534.33 526.328 523.559 531.948 510.489 535.073C506.107 536.12 499.974 538.437 495.835 540.608C494.375 541.374 492.35 542.003 491.335 542.006C490.32 542.01 488.2 542.685 486.625 543.506C485.049 544.328 482.938 545 481.934 545C480.929 545 479.865 545.392 479.569 545.871C479.273 546.35 476.884 546.981 474.26 547.274C471.636 547.567 465.664 548.488 460.989 549.32C456.314 550.153 449.599 551.149 446.066 551.535C439.988 552.199 431.671 555.148 420.543 560.584C417.822 561.913 415.047 563 414.377 563C412.274 563 404.989 570.516 404.989 572.685C404.989 574.21 406.285 575.311 409.924 576.877C412.639 578.045 415.142 579 415.486 579C416.505 579 427.444 584.271 427.989 585.025C428.264 585.405 430.514 586.61 432.989 587.703C437.148 589.54 443.825 593.575 446.697 595.986C447.361 596.544 448.207 597 448.576 597C448.945 597 450.927 598.518 452.981 600.374C455.035 602.229 457.364 604.142 458.157 604.624C462.437 607.224 466.989 617.349 466.989 624.267C466.989 625.576 468.564 630.282 470.489 634.724C474.28 643.472 474.883 649.232 472.908 657.807C471.683 663.126 468.333 669.961 466.149 671.598C465.263 672.262 465.003 673.213 465.491 674.003C466.023 674.864 465.907 675.067 465.149 674.599C464.006 673.893 458.719 677.315 454.028 681.798C452.674 683.091 448.885 686.253 445.606 688.825C440.439 692.878 431.344 701.234 415.484 716.5C405.175 726.423 389.033 740.634 385.142 743.211C382.737 744.804 367.563 758.873 351.935 774C348.241 777.575 344.721 780.95 344.111 781.5C343.502 782.05 341.499 784.075 339.66 786C337.821 787.925 331.501 793.262 325.615 797.861C319.729 802.459 306.117 814.946 295.365 825.611C284.613 836.275 275.563 845 275.254 845C274.944 845 273.153 846.583 271.274 848.518C269.395 850.453 267.438 851.778 266.926 851.461C264.345 849.866 255.213 823.459 254.317 815C253.17 804.176 251.606 796.439 250.382 795.531C249.602 794.954 248.553 791.201 247.997 787C246.932 778.956 245.708 773.243 241.675 757.5C240.267 752 238.394 742.55 237.513 736.5C236.633 730.45 235.264 722.575 234.472 719C233.679 715.425 233.021 711.082 233.01 709.349C232.998 707.617 232.078 700.873 230.966 694.363L228.942 682.528L232.591 671.514C234.597 665.456 237.019 658.925 237.972 657C238.925 655.075 240.001 652.271 240.362 650.768C240.723 649.266 242.351 646.518 243.981 644.662C245.61 642.806 246.654 640.998 246.3 640.644C245.945 640.29 246.306 640 247.101 640C247.896 640 251.424 637.097 254.941 633.548C258.458 630 261.708 627.326 262.162 627.607C262.617 627.888 262.989 627.617 262.989 627.004C262.989 626.391 265.517 624.732 268.607 623.317C273.595 621.034 275.024 620.818 281.357 621.391C285.28 621.745 290.514 621.682 292.989 621.249C296.574 620.623 309.646 621.026 319.989 622.082C323.545 622.446 330.168 621.155 331.76 619.788C332.711 618.972 334.269 618.028 335.222 617.69C336.931 617.084 336.881 613.785 335.088 608.852C333.535 604.58 314.85 584.921 308.09 580.448C305.873 578.981 302.81 576.142 301.283 574.14C299.756 572.138 295.527 567.35 291.885 563.5C281.63 552.659 282.367 555.441 279.533 516.876C278.624 504.506 277.057 497.587 274.489 494.598C271.476 491.092 269.608 486.435 270.393 484.389C271.098 482.553 273.051 482.688 285.718 485.445C291.366 486.674 293.99 486.788 297.718 485.965C303.262 484.741 312.601 482.106 315.489 480.951C316.589 480.511 318.614 479.919 319.989 479.636C321.364 479.352 326.989 478.178 332.489 477.025C339.07 475.646 345.207 475.027 350.437 475.215C357.909 475.483 358.456 475.36 359.577 473.153C360.576 471.187 360.369 469.818 358.299 464.725C355.051 456.731 347.078 448.484 336.859 442.546C332.494 440.01 327.154 436.337 324.993 434.385C322.671 432.287 320.577 431.137 319.872 431.572C319.172 432.005 318.942 431.884 319.316 431.28C319.665 430.715 318.947 429.108 317.72 427.711C310.028 418.952 307.216 413.637 309.082 411.388C311.59 408.366 314.705 407.569 324.494 407.441C332.104 407.342 335.574 406.834 338.994 405.318C345.368 402.492 346.487 400.88 344.035 398.053C342.962 396.816 341.356 393.486 340.465 390.652C338.235 383.555 337.972 382.938 331.878 370.517C324.511 355.503 324.084 355.013 304.808 339.425C298.384 334.23 290.761 327.959 287.868 325.49C284.975 323.02 281.842 321 280.906 321C279.969 321 278.944 320.325 278.627 319.5C278.311 318.675 277.138 318 276.02 318C274.903 318 273.989 317.59 273.989 317.089C273.989 316.588 271.851 315.206 269.239 314.018C266.627 312.829 263.708 311.439 262.753 310.928C261.798 310.418 260.335 310 259.503 310C258.67 310 257.989 309.639 257.989 309.198C257.989 308.756 255.76 307.594 253.037 306.614C246.044 304.1 236.989 295.301 236.989 291.021C236.989 286.546 238.411 284.423 243.345 281.531C248.819 278.323 254.478 278.222 266.489 281.117C274.976 283.162 281.593 285.797 284.989 288.484C285.814 289.137 288.064 290.247 289.989 290.953C291.914 291.658 294.994 292.898 296.834 293.709C298.673 294.52 300.923 294.947 301.834 294.658C306.813 293.075 310.947 291.28 312.412 290.064C313.935 288.8 313.883 288.484 311.75 286.095C307.641 281.492 302.989 275.144 302.989 274.142C302.989 273.606 302.633 273.017 302.199 272.833C300.79 272.239 296.025 261.1 295.532 257.246C295.268 255.186 294.814 249.225 294.523 244C293.228 220.708 290.413 213.974 276.177 200.109C270.849 194.919 264.239 189.203 261.489 187.407C258.739 185.611 254.464 182.284 251.989 180.014C249.514 177.745 243.905 173.661 239.523 170.939C232.332 166.472 225.989 159.841 225.989 156.791C225.989 156.291 225.604 156.12 225.133 156.411C224.663 156.702 224.494 155.808 224.759 154.425C225.342 151.372 230.078 147.602 236.058 145.43C238.495 144.544 247.586 142.965 256.261 141.919C266.334 140.705 272.928 139.431 274.511 138.394C277.201 136.631 277.859 132.63 275.679 131.3C274.958 130.86 273.72 129.559 272.929 128.41C269.021 122.735 258.458 112.027 255.656 110.898C253.914 110.197 250.849 108.607 248.844 107.365C246.839 106.123 241.664 103.635 237.344 101.836C233.024 100.036 229.339 98.212 229.156 97.782C228.972 97.352 228.002 97 227 97C225.998 97 223.448 96.139 221.334 95.087C219.219 94.035 214.114 91.522 209.989 89.502C200.515 84.862 195.24 81.619 188.37 76.211C185.374 73.853 182.418 72.235 181.801 72.616C181.141 73.024 180.958 72.86 181.355 72.217C182.196 70.857 175.507 66.325 167.489 62.822C164.189 61.381 158.339 58.836 154.489 57.167C150.639 55.499 143.213 53.007 137.986 51.631C131.154 49.832 124.844 47.144 115.536 42.064C108.416 38.179 102.3 35 101.944 35C101.589 35 100.442 34.038 99.3941 32.862C97.3811 30.603 92.0951 28 89.5211 28C88.3051 28 87.9721 29.39 87.9051 34.75ZM802.989 61.469C802.989 62.32 802.398 62.71 801.583 62.398C800.463 61.968 800.235 62.941 800.465 67.179C800.795 73.293 799.748 75.423 793.764 80.807C791.507 82.838 789.172 84.973 788.575 85.55C785.052 88.957 775.052 95.438 765.489 100.514C746.565 110.557 727.154 119.901 721.909 121.491C720.578 121.895 716.645 123.524 713.169 125.113C709.693 126.701 706.686 128 706.486 128C704.91 128 684.765 141.701 684.156 143.187C683.972 143.634 683.344 144 682.759 144C682.174 144 679.624 145.675 677.092 147.722C670.643 152.938 640.896 182.24 641.469 182.813C642.158 183.502 650.961 175.774 664.509 162.586C671.055 156.214 676.624 151 676.885 151C677.146 151 678.289 150.139 679.425 149.087C680.56 148.035 685.989 144.227 691.489 140.625C696.989 137.023 702.071 133.572 702.783 132.958C703.494 132.343 708.894 129.843 714.783 127.402C728.436 121.744 728.031 121.919 737.489 117.55C750.938 111.336 773.676 99.516 774.989 98.056C775.264 97.75 776.135 97.36 776.924 97.188C778.854 96.769 793.628 85.107 797.935 80.604C801.774 76.59 802.894 76.163 802.804 78.75C802.689 82.107 805.109 103.536 806.136 108.243C806.744 111.033 807.03 122.562 806.83 136.243C806.642 149.034 806.87 162.2 807.336 165.5C807.801 168.8 808.313 187.25 808.474 206.5C808.716 235.497 809.039 242.24 810.357 245.816C811.965 250.181 815.388 255.666 817.648 257.5C820.803 260.061 830.12 282.939 830.373 288.749C830.513 291.962 831 292.496 833.139 291.783C835.786 290.901 833.252 281.917 825.925 266.205C824.31 262.743 822.967 259.593 822.94 259.205C822.913 258.817 821.106 256.7 818.925 254.5C812.038 247.555 811.722 245.438 811.371 204C811.201 183.925 810.761 166.15 810.394 164.5C810.027 162.85 809.641 148.675 809.537 133C809.432 117.325 808.836 99.1 808.212 92.5C807.098 80.718 806.891 79.298 805.471 73.737C805.058 72.121 805.227 70.418 805.877 69.635C806.8 68.523 806.867 65.888 806.101 60.75C805.889 59.331 802.989 60.001 802.989 61.469ZM117.501 99.821C116.707 100.616 114.987 98.812 115.598 97.824C116.013 97.152 116.528 97.255 117.06 98.114C117.511 98.845 117.71 99.613 117.501 99.821ZM252.068 121.583C252.116 122.748 252.353 122.985 252.672 122.188C252.961 121.466 252.925 120.603 252.593 120.271C252.261 119.939 252.025 120.529 252.068 121.583ZM89.4621 149C89.8751 150.375 91.7211 153.465 93.5641 155.867C95.4071 158.268 97.6291 162.768 98.5031 165.867C100.549 173.126 100.817 173.812 100.898 172C101.079 167.948 97.8071 159.755 93.5021 153.481C90.8671 149.641 89.0491 147.625 89.4621 149ZM176.85 154.914C175.551 155.967 174.754 157.094 175.079 157.42C175.403 157.746 176.709 157.11 177.982 156.006C180.637 153.704 181.159 153.642 186.183 155.037C188.451 155.667 192.007 158.175 195.39 161.532C200.206 166.31 201.381 166.988 204.696 166.901L208.489 166.802L204.113 165.428C201.486 164.603 197.894 162.237 195.127 159.509C188.638 153.111 181.337 151.276 176.85 154.914ZM139.672 158.188C139.353 158.985 139.116 158.748 139.068 157.583C139.025 156.529 139.261 155.939 139.593 156.271C139.925 156.603 139.961 157.466 139.672 158.188ZM142.347 165.917C141.727 166.638 141.172 165.595 140.527 162.498L139.903 159.5L141.304 162.5C142.075 164.15 142.544 165.688 142.347 165.917ZM68.9891 184C70.9471 185.266 72.2711 185.266 71.4891 184C71.1491 183.45 70.1101 183.007 69.1801 183.015C67.7231 183.029 67.6961 183.165 68.9891 184ZM109.989 183.87C109.989 184.426 110.487 185.19 111.096 185.566C111.867 186.043 111.792 186.51 110.846 187.11C109.872 187.727 110.194 187.99 111.989 188.044C120.725 188.303 127.41 190.525 132.245 194.777C133.211 195.626 134.275 196.047 134.611 195.712C134.946 195.377 133.037 193.718 130.37 192.027C125.936 189.214 123.629 188.355 115.809 186.599C114.335 186.268 112.422 185.291 111.559 184.427C110.695 183.564 109.989 183.313 109.989 183.87ZM81.9891 189C82.8141 189.533 84.3891 189.969 85.4891 189.969C87.1451 189.969 87.2311 189.803 85.9891 189C85.1641 188.467 83.5891 188.031 82.4891 188.031C80.8331 188.031 80.7471 188.197 81.9891 189ZM101.489 189C99.6661 189.783 99.7101 189.859 101.989 189.859C103.364 189.859 105.389 189.473 106.489 189C108.312 188.217 108.268 188.141 105.989 188.141C104.614 188.141 102.589 188.527 101.489 189ZM235.303 197.75C234.961 198.712 234.455 199.907 234.18 200.405C233.905 200.902 234.145 201.022 234.714 200.67C235.756 200.026 237.178 196 236.364 196C236.123 196 235.646 196.788 235.303 197.75ZM777.656 196.667C777.289 197.033 776.989 198.343 776.989 199.577C776.989 201.078 773.843 204.966 767.489 211.321C758.936 219.873 756.088 223.293 759.033 221.473C759.608 221.118 763.995 220.461 768.783 220.013L777.489 219.198L768.715 219.349L759.942 219.5L762.586 217.579C764.04 216.522 765.738 215.025 766.359 214.252C766.981 213.478 769.614 210.787 772.212 208.271C774.809 205.754 777.441 202.159 778.061 200.281C779.164 196.939 778.984 195.338 777.656 196.667ZM138.523 201.094C144.034 207.112 148.186 213.449 150.909 220C152.167 223.025 153.609 225.937 154.114 226.472C154.619 227.006 153.66 224.081 151.982 219.972C148.633 211.768 140.408 199.822 136.79 197.907C135.167 197.048 135.678 197.988 138.523 201.094ZM641.489 206.792C636.392 207.818 638.797 208.587 646.972 208.546C652.904 208.515 655.021 208.24 653.218 207.734C649.666 206.737 644.015 206.283 641.489 206.792ZM657.989 210C659.947 211.266 661.271 211.266 660.489 210C660.149 209.45 659.11 209.007 658.18 209.015C656.723 209.029 656.696 209.165 657.989 210ZM666.739 214.662C667.427 214.94 668.552 214.94 669.239 214.662C669.927 214.385 669.364 214.158 667.989 214.158C666.614 214.158 666.052 214.385 666.739 214.662ZM673.989 216.409C675.914 217.135 678.276 218.064 679.239 218.472C680.202 218.88 680.989 218.947 680.989 218.62C680.989 217.78 674.071 214.991 672.117 215.044C671.222 215.068 672.064 215.682 673.989 216.409ZM686.161 222.293C690.113 225.3 690.54 226.06 691.076 231.043C691.426 234.298 691.729 235.221 691.826 233.332C691.916 231.589 692.269 229.434 692.611 228.543C693.326 226.68 685.888 219 683.369 219C682.525 219 683.781 220.482 686.161 222.293ZM754.63 225.031C753.665 226.664 753.239 227.996 753.682 227.992C754.503 227.984 757.209 222.887 756.676 222.354C756.515 222.193 755.595 223.398 754.63 225.031ZM703.989 223.941C703.989 224.459 703.539 225.16 702.989 225.5C702.439 225.84 701.989 225.416 701.989 224.559C701.989 223.702 702.439 223 702.989 223C703.539 223 703.989 223.423 703.989 223.941ZM747.863 233.25C746.051 235.587 742.638 239.525 740.279 242C737.92 244.475 735.99 246.86 735.99 247.301C735.989 247.742 734.365 248.78 732.381 249.61C730.396 250.439 728.977 251.322 729.227 251.572C729.477 251.822 731.214 251.392 733.085 250.618C738.47 248.39 752.914 245.765 755.833 246.485C757.294 246.845 762.314 249.246 766.989 251.82C774.47 255.939 783.989 258.801 783.989 256.932C783.989 256.569 782.001 255.999 779.571 255.666C776.864 255.295 771.773 253.064 766.425 249.906L757.698 244.751L750.285 245.422C746.208 245.792 741.711 246.535 740.292 247.075C738.873 247.615 737.515 247.859 737.274 247.618C737.033 247.377 740.246 243.478 744.413 238.953C751.075 231.717 753.03 229 751.573 229C751.344 229 749.675 230.913 747.863 233.25ZM723.989 253.985C719.866 256.22 714.225 261 715.711 261C716.279 261 717.332 260.292 718.05 259.427C718.768 258.562 721.042 256.993 723.104 255.941C725.166 254.889 727.135 253.572 727.48 253.014C728.295 251.695 728.129 251.742 723.989 253.985ZM708.553 269.707C708.011 271.132 708.125 271.247 709.113 270.267C709.797 269.588 710.104 268.781 709.796 268.474C709.488 268.166 708.929 268.721 708.553 269.707ZM706.613 273.539C705.648 276.053 705.932 276.702 707.111 274.675C707.695 273.671 707.962 272.639 707.704 272.382C707.447 272.124 706.955 272.645 706.613 273.539ZM94.4891 274.587L89.4891 275.936L94.9891 275.366C98.0141 275.053 100.917 274.392 101.439 273.898C102.695 272.711 100.714 272.907 94.4891 274.587ZM79.4891 279.624C76.1891 281.576 72.8141 283.851 71.9891 284.679C71.1641 285.507 73.9491 284.157 78.1781 281.678C82.4061 279.199 86.6811 276.959 87.6781 276.701C89.2701 276.289 89.2471 276.223 87.4891 276.154C86.3891 276.11 82.7891 277.672 79.4891 279.624ZM704.448 278.067C704.085 278.653 704.003 279.348 704.265 279.61C704.527 279.872 705.008 279.392 705.334 278.543C706.01 276.781 705.434 276.471 704.448 278.067ZM65.4801 290.009C62.9801 292.569 60.3361 294.209 58.0451 294.619C53.6681 295.404 50.5521 296.923 53.2251 296.97C55.8041 297.015 63.9891 294.689 63.9891 293.911C63.9891 293.541 65.4191 291.839 67.1671 290.13C68.9151 288.421 70.1231 286.801 69.8521 286.53C69.5811 286.259 67.6131 287.824 65.4801 290.009ZM817.489 289.65C816.389 289.88 813.051 290.794 810.071 291.68C805.67 292.989 801.917 293.175 790.071 292.672C774.833 292.024 770.989 292.391 770.989 294.494C770.989 295.188 770.284 296.34 769.423 297.055C763.702 301.803 763.241 313.827 768.088 331.868C769.774 338.142 771.885 344.901 772.779 346.888C775.14 352.13 782.122 363 783.128 363C783.602 363 783.989 363.613 783.989 364.362C783.989 365.112 785.393 367.474 787.109 369.612C792.457 376.275 798.545 391.984 802.76 410C805.205 420.447 805.421 422.965 805.121 437.5C804.94 446.3 804.605 453.693 804.378 453.929C804.15 454.165 799.146 453.578 793.257 452.625C782.569 450.895 778.287 449.132 772.999 444.283C771.63 443.027 770.199 442 769.821 442C769.442 442 768.537 441.417 767.81 440.705C767.084 439.992 763.476 437.903 759.793 436.061C754.007 433.168 752.46 432.801 748.403 433.357C740.741 434.407 735.319 437.687 732.865 442.757C729.736 449.219 730.229 456.301 734.839 471.129C740.961 490.822 741.938 496.269 742.989 516.586C744.254 541.012 745.632 554.364 747.988 565C751.157 579.307 751.432 587.193 749.155 598.5C748.048 604 746.32 612.927 745.315 618.339L743.489 628.177L740.096 627.628C735.724 626.921 732.597 623.92 728.792 616.782C727.109 613.624 725.452 611.212 725.111 611.421C724.769 611.63 724.47 610.115 724.446 608.055C724.415 605.391 723.476 603.141 721.196 600.261C719.432 598.034 717.989 595.688 717.989 595.047C717.989 594.406 717.571 594.14 717.061 594.456C716.551 594.771 715.867 594.191 715.542 593.166C714.982 591.403 710.354 588.45 708.739 588.825C708.327 588.921 707.989 588.462 707.989 587.805C707.989 586.162 702.916 581 701.302 581C700.58 581 699.989 580.613 699.989 580.14C699.989 579.268 696.26 575.465 690.075 570.029C688.198 568.379 685.16 566.748 683.325 566.403C673.168 564.498 657.696 573.526 654.926 582.974C651.997 592.961 651.202 611.437 651.782 656C652.027 674.848 651.253 685.747 649.011 695C647.274 702.166 646.618 706.163 643.555 728.238C641.957 739.752 638.314 747.912 634.739 747.985C634.327 747.993 633.982 746.313 633.974 744.25C633.966 742.188 633.318 739.375 632.534 738C631.75 736.625 630.473 734.142 629.697 732.481C628.92 730.821 626.53 728.15 624.387 726.547C622.243 724.943 617.587 720.789 614.039 717.315C607.726 711.133 605.989 709.986 605.989 712C605.989 712.55 606.712 713 607.596 713C608.632 713 608.993 713.547 608.612 714.541C608.225 715.549 610.04 718.139 613.87 722.041C617.087 725.318 620.021 728 620.388 728C621.608 728 626.93 733.985 628.626 737.264C629.544 739.041 630.445 742.481 630.626 744.909C631.081 750.986 631.851 753 633.718 753C636.064 753 641.892 746.04 642.928 742C644.584 735.541 646.879 723.549 647.52 718C648.422 710.201 650.615 697.627 652.425 689.882C653.62 684.768 653.942 677.723 653.843 658.882C653.616 615.698 653.753 608.378 654.991 597.343C655.66 591.379 656.789 585.089 657.5 583.364C659.36 578.848 665.309 573.818 671.597 571.444C674.592 570.313 676.693 569.014 676.266 568.558C675.839 568.102 676.472 568.24 677.673 568.865C678.875 569.489 680.931 570 682.243 570C684.746 570 687.655 572.279 699.989 583.903C704.114 587.79 708.052 590.978 708.739 590.985C709.427 590.993 709.989 591.374 709.989 591.831C709.989 592.288 711.084 593.248 712.423 593.965C713.762 594.681 715.399 596.575 716.061 598.174C716.723 599.772 718.064 601.64 719.041 602.324C720.018 603.008 721.14 605.353 721.535 607.534C722.47 612.703 723.818 615.224 725.194 614.373C725.842 613.973 726.016 614.147 725.615 614.796C724.431 616.712 729.05 624.881 733.157 628.133C736.697 630.937 737.573 631.192 741.716 630.624C744.254 630.276 746.481 629.842 746.664 629.658C746.847 629.475 747.179 627.565 747.402 625.413C748.269 617.047 749.175 611.089 751.18 600.578C753.607 587.849 753.312 577.173 750.18 564.479C747.933 555.369 746.356 540.322 744.963 514.689C744.041 497.723 742.228 486.579 738.507 475C735.523 465.716 732.989 454.487 732.993 450.562C732.997 445.388 736.087 440.274 740.261 438.533C745.429 436.377 756.027 436.217 758.168 438.263C760.946 440.918 765.092 443.054 766.172 442.387C766.844 441.972 767.021 442.139 766.612 442.802C766.225 443.426 767.142 444.687 768.707 445.683C770.237 446.657 771.766 447.842 772.104 448.317C772.788 449.277 776.178 451.315 779.989 453.056C781.364 453.685 785.528 454.592 789.242 455.072C792.956 455.553 798.502 456.675 801.566 457.565C804.63 458.456 807.397 458.925 807.715 458.608C808.032 458.29 808.196 449.621 808.079 439.343C807.898 423.53 807.487 419.028 805.406 410.077C801.068 391.419 795.377 376.338 789.577 368.131C787.879 365.727 786.039 363.052 785.489 362.185C784.939 361.318 783.702 359.712 782.739 358.616C781.776 357.52 780.989 356.29 780.989 355.883C780.989 355.476 780.427 354.54 779.739 353.803C775.226 348.966 768.107 325.915 767.27 313.431C766.783 306.161 766.973 304.922 769.187 300.931C771.544 296.683 771.869 296.479 777.067 296C780.049 295.725 786.912 295.824 792.318 296.22C802.113 296.937 805.073 296.543 817.708 292.84C824.415 290.874 824.234 288.24 817.489 289.65ZM824.489 291C824.829 291.55 826.007 292 827.107 292C828.207 292 828.829 291.55 828.489 291C828.149 290.45 826.971 290 825.871 290C824.771 290 824.149 290.45 824.489 291ZM186.989 293.393C186.989 293.609 186.291 294.054 185.437 294.382C184.547 294.723 184.146 294.555 184.496 293.989C185.083 293.038 186.989 292.583 186.989 293.393ZM186.446 296.931C186.763 297.443 186.564 298.144 186.005 298.49C185.446 298.835 184.989 298.416 184.989 297.559C184.989 295.802 185.589 295.544 186.446 296.931ZM690.087 301.719C689.177 303.281 689.046 303.183 689.019 300.917C689.003 299.496 689.327 297.993 689.739 297.577C690.94 296.365 691.225 299.762 690.087 301.719ZM620.287 315.72C619.441 320.388 619.594 323.083 621.119 330.372C622.148 335.284 622.989 339.76 622.989 340.318C622.989 340.877 623.265 341.058 623.601 340.721C623.938 340.384 623.435 336.609 622.484 332.332C621.226 326.68 620.934 322.565 621.413 317.277C621.776 313.275 621.904 310 621.698 310C621.492 310 620.857 312.574 620.287 315.72ZM676.129 319.397C675.559 321.654 674.821 325.2 674.49 327.278C674.159 329.356 673.478 330.802 672.977 330.492C672.459 330.172 672.425 328.973 672.899 327.715C673.358 326.497 674.349 322.125 675.101 318C675.87 313.784 676.622 311.55 676.818 312.897C677.01 314.215 676.7 317.14 676.129 319.397ZM175.958 318.5C175.958 319.05 175.522 318.825 174.989 318C174.456 317.175 174.02 316.05 174.02 315.5C174.02 314.95 174.456 315.175 174.989 316C175.522 316.825 175.958 317.95 175.958 318.5ZM172.672 319.188C172.353 319.985 172.116 319.748 172.068 318.583C172.025 317.529 172.261 316.939 172.593 317.271C172.925 317.603 172.961 318.466 172.672 319.188ZM123.727 320.692C122.758 320.945 122.222 321.567 122.536 322.076C122.85 322.584 121.97 323 120.579 323C118.788 323 118.213 323.42 118.605 324.443C119.026 325.538 119.757 325.658 121.639 324.943C125.192 323.592 126.989 323.777 126.989 325.493C126.989 327.168 103.674 351 102.036 351C101.46 351 100.989 351.471 100.989 352.048C100.989 352.624 99.7981 354.199 98.3431 355.548C96.8881 356.896 95.9661 358 96.2951 358C96.6241 358 95.7381 359.238 94.3251 360.75C88.7441 366.724 75.8751 384.497 72.4211 391C70.3181 394.959 67.9611 400.76 67.5451 403C67.3921 403.825 67.0131 405.175 66.7021 406C65.8761 408.194 59.8361 428.218 59.4671 429.99C59.2931 430.82 58.3821 433.3 57.4411 435.5C54.7071 441.897 47.9271 462.087 46.8651 467C45.2081 474.658 44.1841 478.297 42.0821 484C40.9671 487.025 40.0401 490.416 40.0221 491.535C40.0041 492.654 39.0961 496.111 38.0041 499.217C36.9121 502.323 35.9001 507.482 35.7541 510.682C35.5171 515.884 35.6971 516.5 37.4491 516.5C38.5631 516.5 40.4001 515.03 41.7031 513.097C47.3481 504.719 51.1951 501.615 57.3661 500.457C59.3591 500.083 60.9891 499.243 60.9891 498.59C60.9891 497.056 67.8151 497.105 68.7751 498.647C70.5491 501.495 79.9161 502.429 99.2771 501.689C104.661 501.484 109.258 501.627 109.493 502.007C110.055 502.916 104.096 511 102.863 511C102.34 511 100.093 512.8 97.8711 515C95.6491 517.2 93.3901 519 92.8511 519C92.3121 519 92.1921 519.52 92.5841 520.155C93.0361 520.885 92.8581 521.037 92.1001 520.569C90.5501 519.611 85.0831 523.734 77.4891 531.589C71.4921 537.792 69.3691 540.265 67.4891 543.24C66.9391 544.11 64.6371 547.469 62.3731 550.704C58.6361 556.044 53.1771 565.562 47.4741 576.682C46.2951 578.983 44.2031 582.358 42.8261 584.182C38.9361 589.338 32.0601 601.549 30.3981 606.251C29.5721 608.588 28.4981 612.975 28.0101 616C27.5221 619.025 26.5511 623.41 25.8511 625.745C24.8201 629.184 24.8211 630.228 25.8551 631.245C26.8811 632.254 27.4601 632.102 28.8101 630.47C30.6061 628.3 38.4361 624.652 43.6841 623.541C45.4421 623.169 51.5291 622.749 57.2111 622.607C63.2321 622.457 68.3651 621.834 69.5151 621.114C71.3311 619.977 71.2691 619.912 68.7391 620.3C67.2261 620.533 65.9891 620.335 65.9891 619.861C65.9891 619.388 61.3771 619.012 55.7391 619.026C47.5621 619.047 43.9791 619.552 38.0241 621.526C33.9181 622.887 30.4591 624 30.3371 624C29.4711 624 32.7641 608.265 33.9991 606.5C34.3841 605.95 35.1751 604.082 35.7571 602.349C36.3391 600.616 38.8071 596.116 41.2401 592.349C45.5431 585.687 55.5531 568.802 57.9111 564.229C58.5551 562.98 58.8021 561.507 58.4611 560.955C58.1201 560.402 58.2801 560.074 58.8171 560.225C60.2611 560.631 65.1941 552.977 64.5581 551.319C64.2581 550.536 64.4221 550.15 64.9241 550.46C65.7701 550.983 69.9891 546.031 69.9891 544.514C69.9891 544.142 74.3771 539.568 79.7391 534.349C85.1011 529.13 89.3651 524.408 89.2141 523.856C89.0631 523.303 89.3911 523.131 89.9441 523.472C91.3031 524.312 94.7461 522.358 98.9791 518.345C100.91 516.515 103.016 515.013 103.661 515.009C106.643 514.987 116.153 500.764 114.374 498.985C112.983 497.594 101.241 497.057 91.5501 497.94C85.5831 498.484 80.6391 498.273 74.3341 497.205C61.9601 495.11 59.2091 495.244 53.3051 498.23C47.6961 501.066 39.9931 507.731 39.9911 509.75C39.9901 510.438 39.5301 511 38.9701 511C37.9441 511 38.3611 507.797 40.0121 503C40.4851 501.625 41.8151 496.45 42.9671 491.5C46.7261 475.346 56.0761 445.086 59.9721 436.467C60.9751 434.25 62.3141 430.425 62.9491 427.967C66.2301 415.267 73.4141 394.896 75.9851 391C76.8931 389.625 79.8361 385.125 82.5251 381C90.2511 369.15 98.3541 359.653 114.513 343.51C122.776 335.254 130.156 327.278 130.914 325.784C133.189 321.296 130.019 319.05 123.727 320.692ZM570.989 320.288C571.626 320.982 587.35 323.972 587.831 323.491C588.029 323.293 586.458 322.681 584.34 322.13C579.328 320.827 570.346 319.588 570.989 320.288ZM588.989 324.893C588.989 325.384 589.728 326.069 590.63 326.416C592.003 326.943 592.065 326.796 591.008 325.523C589.568 323.788 588.989 323.607 588.989 324.893ZM593.722 328.124C594.401 328.808 595.208 329.115 595.515 328.807C595.823 328.499 595.268 327.94 594.282 327.564C592.857 327.022 592.742 327.136 593.722 328.124ZM598.489 330C601.238 331.181 602.817 331.181 600.989 330C600.164 329.467 598.814 329.055 597.989 329.086C597 329.122 597.17 329.433 598.489 330ZM682.56 334.571C681.696 335.436 680.955 336.898 680.912 337.821C680.822 339.799 680.444 341.428 679.129 345.5C678.388 347.796 678.141 348.007 678.075 346.399C678.028 345.244 678.402 342.994 678.906 341.399C679.411 339.805 680.094 337.262 680.425 335.75C680.767 334.189 681.699 333 682.579 333C683.975 333 683.973 333.159 682.56 334.571ZM191.974 350.75C191.963 352.751 191.716 353.116 191.066 352.091C190.576 351.316 190.406 350.078 190.689 349.341C191.5 347.226 191.99 347.764 191.974 350.75ZM675.522 355.75C674.911 359.075 672.989 362.73 672.989 360.566C672.989 359.107 675.287 352 675.759 352C676.008 352 675.901 353.688 675.522 355.75ZM673.989 362.441C673.989 362.684 673.539 363.16 672.989 363.5C672.439 363.84 671.989 363.641 671.989 363.059C671.989 362.477 672.439 362 672.989 362C673.539 362 673.989 362.198 673.989 362.441ZM671.087 369.719C670.162 371.308 670.047 371.32 670.019 369.832C670.003 368.914 670.313 367.339 670.709 366.332C671.367 364.659 671.46 364.649 671.777 366.219C671.967 367.164 671.657 368.739 671.087 369.719ZM669.334 375.543C669.008 376.392 668.527 376.872 668.265 376.61C668.003 376.348 668.085 375.653 668.448 375.067C669.434 373.471 670.01 373.781 669.334 375.543ZM664.989 385C664.989 385.55 664.539 386 663.989 386C663.439 386 662.989 385.55 662.989 385C662.989 384.45 663.439 384 663.989 384C664.539 384 664.989 384.45 664.989 385ZM275.883 388.381C271.686 391.611 267.057 396.342 265.989 398.493C265.714 399.047 263.572 402.684 261.228 406.576C257.54 412.702 256.594 415.538 254.188 427.688C251.292 442.308 251.067 442.771 244.174 448.25C242.271 449.763 241.144 451 241.669 451C242.194 451 245.181 448.62 248.307 445.712C252.858 441.476 253.989 439.806 253.989 437.322C253.989 432.043 257.831 415.229 260.016 410.947C264.385 402.383 269.12 396.043 275.192 390.627C282.23 384.348 282.573 383.233 275.883 388.381ZM186.672 394.188C186.353 394.985 186.116 394.748 186.068 393.583C186.025 392.529 186.261 391.939 186.593 392.271C186.925 392.603 186.961 393.466 186.672 394.188ZM643.989 409C643.989 409.55 643.512 410 642.93 410C642.348 410 642.149 409.55 642.489 409C642.829 408.45 643.305 408 643.548 408C643.791 408 643.989 408.45 643.989 409ZM119.489 438.741C113.497 439.364 100.809 442.115 97.6871 443.468C95.9281 444.23 93.6371 445.122 92.5961 445.451C91.5551 445.779 90.9761 446.32 91.3091 446.654C91.6431 446.987 95.6451 446.054 100.202 444.581C104.76 443.107 112.089 441.353 116.489 440.683C123.91 439.553 126.251 438.037 119.489 438.741ZM364.532 446.931C364.215 447.443 364.414 448.144 364.973 448.49C365.532 448.835 365.989 448.416 365.989 447.559C365.989 445.802 365.389 445.544 364.532 446.931ZM260.489 448.082C250.818 449.383 249.906 450.156 258.989 449.353C263.114 448.988 268.739 448.783 271.489 448.896C290.301 449.672 300.968 449.423 302.191 448.179C303.262 447.089 303.052 446.96 300.989 447.442C297.32 448.298 279.355 448.512 272.989 447.776C269.964 447.426 264.339 447.564 260.489 448.082ZM246.989 451C245.064 452.054 243.849 452.935 244.289 452.958C245.348 453.014 250.989 450.081 250.989 449.474C250.989 448.82 250.93 448.842 246.989 451ZM234.216 456.684C230.791 458.71 227.989 460.723 227.989 461.158C227.989 461.884 235.81 457.635 240.462 454.38C244.506 451.551 240.223 453.131 234.216 456.684ZM539.989 454.099C526.921 456.04 515.723 456.784 512.683 455.912C510.934 455.411 507.924 455.036 505.996 455.079C503.184 455.143 503.777 455.453 508.989 456.641C515.943 458.226 530.028 457.908 535.512 456.041C537.15 455.484 542.764 454.633 547.989 454.15C555.351 453.469 556.139 453.273 551.489 453.277C548.189 453.279 543.014 453.649 539.989 454.099ZM559.989 455C563.408 456.095 566.037 456.095 563.489 455C562.389 454.527 560.589 454.154 559.489 454.17C557.881 454.194 557.979 454.356 559.989 455ZM549.373 459.598C545.642 461.577 539.867 465.022 536.539 467.253C529.234 472.151 529.551 471.895 530.109 472.453C530.358 472.703 533.696 470.694 537.526 467.99C541.356 465.286 544.807 463.057 545.195 463.037C545.583 463.017 547.558 461.875 549.584 460.5C551.61 459.125 554.529 458 556.07 458C557.61 458 559.149 457.55 559.489 457C560.795 454.886 555.87 456.151 549.373 459.598ZM566.989 457C567.814 457.533 568.939 457.969 569.489 457.969C570.039 457.969 569.814 457.533 568.989 457C568.164 456.467 567.039 456.031 566.489 456.031C565.939 456.031 566.164 456.467 566.989 457ZM472.482 462.989C472.832 463.555 472.431 463.723 471.541 463.382C469.809 462.717 469.492 462 470.93 462C471.448 462 472.146 462.445 472.482 462.989ZM221.489 467C219.341 469.2 218.012 470.962 218.536 470.915C219.453 470.834 226.65 463 225.808 463C225.581 463 223.637 464.8 221.489 467ZM213.686 477.935C211.249 482.062 211.621 483.128 214.131 479.208C215.29 477.398 216.046 475.724 215.811 475.489C215.576 475.254 214.62 476.355 213.686 477.935ZM647.989 504.596C642.441 506.67 625.855 515.455 626.857 515.789C627.534 516.015 629.857 515.03 632.017 513.6C634.178 512.17 636.438 511 637.039 511C637.641 511 640.104 509.845 642.514 508.433C645.12 506.905 649.165 505.631 652.499 505.287C657.225 504.799 658.558 505.045 661.006 506.854C662.602 508.034 664.716 509 665.703 509C667.808 509 687.095 528.387 691.816 535.249C693.603 537.845 696.032 540.488 697.214 541.12C698.396 541.753 700.247 543.094 701.327 544.101C702.408 545.107 703.681 545.69 704.157 545.396C705.462 544.59 704.325 543.319 700.209 540.984C698.163 539.824 695.364 537.273 693.989 535.317C692.614 533.36 686.641 526.751 680.716 520.63L669.944 509.5L677.216 508.736C681.216 508.316 687.764 507.304 691.767 506.486C701.032 504.594 707.785 504.599 712.335 506.5C714.309 507.325 717.627 507.974 719.707 507.942C723.022 507.892 722.625 507.652 716.489 506C707.805 503.662 701.1 503.547 691.319 505.567C681.244 507.648 665.87 507.964 663.658 506.136C661.949 504.722 650.628 503.61 647.989 504.596ZM600.943 507.086C600.329 508.233 599.574 508.919 599.265 508.61C598.957 508.301 599.273 507.362 599.969 506.524C601.767 504.358 602.253 504.638 600.943 507.086ZM618.878 520.722C615.914 523.35 613.338 525.841 613.153 526.259C612.968 526.676 609.48 529.529 605.403 532.597C601.325 535.666 597.989 538.368 597.989 538.601C597.989 539.749 607.184 533.08 612.489 528.084C615.789 524.977 620.05 521.236 621.959 519.77C623.867 518.305 625.167 516.844 624.847 516.525C624.528 516.206 621.842 518.095 618.878 520.722ZM244.489 526.156C241.139 536.719 238.231 558.369 239.548 562.953C240.331 565.681 240.518 564.743 240.664 557.365C240.89 545.894 242.424 536.408 245.624 526.687C247.038 522.389 247.957 518.635 247.665 518.343C247.374 518.051 245.944 521.567 244.489 526.156ZM119.382 536.122C123.563 537.77 126.492 540.542 132.984 549C136.15 553.125 140.14 558.075 141.85 560C143.56 561.925 146.264 565.301 147.858 567.502L150.757 571.504L143.092 571.156C137.221 570.89 133.914 571.311 128.958 572.957C125.4 574.139 120.689 575.504 118.489 575.989C116.289 576.474 112.689 577.361 110.489 577.959C108.289 578.557 104.03 579.478 101.024 580.005C96.3901 580.819 94.9091 581.664 91.2741 585.567C88.9171 588.098 86.9891 590.371 86.9891 590.619C86.9891 591.769 91.1661 588.659 92.6381 586.414C94.5861 583.44 98.9321 581 102.279 581C105.349 581 118.264 577.713 128.391 574.355C135.138 572.118 137.4 571.818 143.86 572.307C149.269 572.716 151.774 573.353 152.642 574.54C153.309 575.453 154.305 575.923 154.853 575.584C155.402 575.245 156.126 575.413 156.462 575.957C157.423 577.511 163.075 579.79 167.79 580.524C170.607 580.962 173.601 582.453 176.47 584.846C178.879 586.856 181.995 589.3 183.393 590.277C186.736 592.613 190.789 599.651 194.155 608.967C195.773 613.445 196.889 615.486 196.906 614C196.943 610.831 191.886 598.902 188.333 593.775C183.276 586.478 170.535 578.166 164.219 578.044C160.451 577.971 154.222 573.306 149.218 566.808C146.617 563.43 142.376 558.17 139.793 555.118C137.21 552.066 134.51 548.467 133.793 547.119C131.103 542.065 123.811 535.838 120.07 535.401L116.489 534.982L119.382 536.122ZM577.998 551.75C577.443 552.712 576.541 554.765 575.991 556.31C575.349 558.117 574.563 558.855 573.79 558.377C572.911 557.834 572.895 557.531 573.732 557.252C574.361 557.043 575.387 555.325 576.01 553.435C576.634 551.546 577.563 550 578.075 550C578.62 550 578.588 550.725 577.998 551.75ZM572.989 562C572.989 562.55 572.512 563 571.93 563C571.348 563 571.149 562.55 571.489 562C571.829 561.45 572.305 561 572.548 561C572.791 561 572.989 561.45 572.989 562ZM240.302 568.5C240.611 569.6 241.171 573.994 241.545 578.264C241.92 582.535 242.623 586.274 243.108 586.573C244.198 587.247 244.206 587.395 242.584 576.714C241.851 571.882 240.911 567.607 240.495 567.214C240.08 566.821 239.993 567.4 240.302 568.5ZM565.989 577.453C565.989 578.96 563.559 582.852 562.88 582.433C561.913 581.835 563.933 577 565.15 577C565.611 577 565.989 577.204 565.989 577.453ZM474.341 580.685C475.318 581.662 482.205 583.978 483.989 583.929C484.814 583.907 483.464 583.039 480.989 582C476.439 580.091 473.083 579.427 474.341 580.685ZM276.989 582.843C276.989 584.184 271.203 586.722 261.541 589.618C252.999 592.179 245.387 595.732 246.36 596.704C246.61 596.955 247.867 596.48 249.152 595.649C251.619 594.054 260.53 590.881 267.863 588.987C274.158 587.36 281.926 582 277.989 582C277.439 582 276.989 582.379 276.989 582.843ZM560.489 587C559.636 588.65 558.713 590 558.438 590C558.163 590 558.636 588.65 559.489 587C560.342 585.35 561.265 584 561.54 584C561.815 584 561.342 585.35 560.489 587ZM545.463 601.642C543.209 603.29 542.256 602.588 543.96 600.535C544.651 599.703 545.683 599.311 546.254 599.664C546.89 600.057 546.584 600.823 545.463 601.642ZM551.672 601.188C551.353 601.985 551.116 601.748 551.068 600.583C551.025 599.529 551.261 598.939 551.593 599.271C551.925 599.603 551.961 600.466 551.672 601.188ZM69.0681 604.583C69.1161 605.748 69.3531 605.985 69.6721 605.188C69.9611 604.466 69.9251 603.603 69.5931 603.271C69.2611 602.939 69.0251 603.529 69.0681 604.583ZM205.304 614.085C204.852 614.537 204.699 612.79 204.964 610.204L205.447 605.5L205.786 609.382C205.973 611.517 205.756 613.633 205.304 614.085ZM206.446 616.931C206.763 617.443 206.564 618.144 206.005 618.49C205.446 618.835 204.989 618.416 204.989 617.559C204.989 615.802 205.589 615.544 206.446 616.931ZM600.989 634.219C597.414 635.315 590.889 636.939 586.489 637.827C582.089 638.716 579.518 639.602 580.777 639.796C582.035 639.99 588.592 638.765 595.347 637.074C603.364 635.068 610.124 634 614.81 634C618.929 634 621.989 633.574 621.989 633C621.989 631.281 607.908 632.098 600.989 634.219ZM205.593 636.729C204.577 637.746 203.738 636.215 204.572 634.866C205.202 633.846 205.438 633.846 205.776 634.862C206.008 635.557 205.925 636.397 205.593 636.729ZM557.989 639.072C552.764 639.558 547.814 640.138 546.989 640.361C544.493 641.038 553.977 640.904 562.324 640.145C574.87 639.004 579.574 640.921 589.489 651.213C599.848 661.967 614.663 675.405 616.642 675.843C618.11 676.168 610.147 668.297 597.917 657.336C594.853 654.589 590.454 650.29 588.142 647.782C585.83 645.274 582.6 642.667 580.964 641.99C579.328 641.312 577.989 640.39 577.989 639.941C577.989 639.492 577.202 639.135 576.239 639.149C575.276 639.163 572.914 638.952 570.989 638.682C569.064 638.411 563.214 638.587 557.989 639.072ZM488.809 659.159C488.633 660.347 487.702 661.432 486.739 661.571C484.567 661.884 484.493 660.639 486.56 658.571C488.675 656.457 489.189 656.592 488.809 659.159ZM223.989 665.059C223.989 665.577 223.539 666 222.989 666C222.439 666 221.989 665.298 221.989 664.441C221.989 663.584 222.439 663.16 222.989 663.5C223.539 663.84 223.989 664.541 223.989 665.059ZM224.651 675.25C224.374 675.938 224.147 675.375 224.147 674C224.147 672.625 224.374 672.063 224.651 672.75C224.929 673.438 224.929 674.563 224.651 675.25ZM225.989 678.5C225.989 679.325 225.812 680 225.596 680C225.38 680 224.944 679.325 224.627 678.5C224.311 677.675 224.488 677 225.02 677C225.553 677 225.989 677.675 225.989 678.5ZM476.989 693.393C476.989 693.609 476.291 694.054 475.437 694.382C474.547 694.723 474.146 694.555 474.496 693.989C475.083 693.038 476.989 692.583 476.989 693.393ZM457.989 695C457.989 695.55 457.791 696 457.548 696C457.305 696 456.829 695.55 456.489 695C456.149 694.45 456.348 694 456.93 694C457.512 694 457.989 694.45 457.989 695ZM471.918 697.757C470.504 698.715 468.704 700.047 467.918 700.715C461.913 705.822 459.145 708 458.659 708C458.347 708 456.878 709.125 455.394 710.5C453.911 711.875 452.2 712.999 451.593 712.999C450.986 712.998 451.839 711.855 453.489 710.459C458.85 705.924 461.767 703.546 465.093 701C466.889 699.625 468.838 697.955 469.424 697.288C470.01 696.621 471.389 696.062 472.489 696.045C474.262 696.017 474.197 696.211 471.918 697.757ZM207.722 714.224C207.511 716.576 207.335 714.9 207.332 710.5C207.328 706.1 207.501 704.176 207.716 706.224C207.931 708.272 207.934 711.872 207.722 714.224ZM447.81 716.317C445.136 718.981 440.924 721.334 441.496 719.843C442.039 718.427 446.779 715.076 448.31 715.027C448.762 715.012 448.537 715.592 447.81 716.317ZM207.53 737.793C206.471 738.852 206.376 737.387 206.929 728.5L207.489 719.5L207.78 728.376C207.94 733.258 207.827 737.495 207.53 737.793ZM205.672 760.188C205.353 760.985 205.116 760.748 205.068 759.583C205.025 758.529 205.261 757.939 205.593 758.271C205.925 758.603 205.961 759.466 205.672 760.188ZM239.678 762.75C239.427 763.712 239.221 762.925 239.221 761C239.221 759.075 239.427 758.288 239.678 759.25C239.93 760.212 239.93 761.788 239.678 762.75ZM371.489 760C371.829 760.55 371.379 761 370.489 761C369.599 761 369.149 760.55 369.489 760C369.829 759.45 370.279 759 370.489 759C370.699 759 371.149 759.45 371.489 760ZM366.113 764.267C365.125 765.247 365.011 765.132 365.553 763.707C365.929 762.721 366.488 762.166 366.796 762.474C367.104 762.781 366.797 763.588 366.113 764.267ZM369.12 790.342C368.508 791.08 368.207 791.885 368.452 792.13C368.697 792.375 367.971 793.154 366.839 793.862C365.143 794.921 364.913 794.914 365.536 793.824C366.59 791.98 369.204 789 369.766 789C370.024 789 369.733 789.604 369.12 790.342ZM363.989 796.326C363.989 796.505 362.752 797.742 361.239 799.076L358.489 801.5L360.913 798.75C363.179 796.18 363.989 795.541 363.989 796.326ZM234.101 805.287C233.285 806.104 232.989 805.992 232.989 804.867C232.989 804.023 233.317 803.005 233.718 802.604C234.119 802.203 234.62 802.393 234.831 803.025C235.042 803.657 234.713 804.676 234.101 805.287ZM353.53 808.933C353.168 809.52 352.392 810 351.808 810C351.144 810 351.22 809.426 352.009 808.476C353.381 806.823 354.606 807.192 353.53 808.933ZM211.989 814C211.989 814.55 211.791 815 211.548 815C211.305 815 210.829 814.55 210.489 814C210.149 813.45 210.348 813 210.93 813C211.512 813 211.989 813.45 211.989 814ZM210.974 816.75C210.965 817.163 210.522 818.175 209.989 819C209.205 820.213 209.017 820.069 209.004 818.25C208.996 817.013 209.439 816 209.989 816C210.539 816 210.982 816.337 210.974 816.75ZM340.989 824.441C340.989 824.684 340.539 825.16 339.989 825.5C339.439 825.84 338.989 825.641 338.989 825.059C338.989 824.477 339.439 824 339.989 824C340.539 824 340.989 824.198 340.989 824.441ZM291.989 833.378C291.989 833.585 291.202 834.373 290.239 835.128C288.653 836.371 288.618 836.336 289.861 834.75C291.168 833.084 291.989 832.555 291.989 833.378ZM195.989 837.559C195.989 838.416 195.532 838.835 194.973 838.49C194.414 838.144 194.215 837.443 194.532 836.931C195.389 835.544 195.989 835.802 195.989 837.559ZM195.341 846.526C195.032 847.331 194.396 847.752 193.928 847.462C193.46 847.173 193.329 846.278 193.637 845.474C193.946 844.669 194.582 844.248 195.05 844.538C195.518 844.827 195.649 845.722 195.341 846.526ZM253.489 846C253.829 846.55 253.657 847 253.107 847C252.557 847 251.829 846.55 251.489 846C251.149 845.45 251.321 845 251.871 845C252.421 845 253.149 845.45 253.489 846ZM195.351 850.5C194.723 852.134 192.989 852.563 192.989 851.083C192.989 850.324 193.69 849.808 195.708 849.079C195.828 849.036 195.667 849.675 195.351 850.5ZM264.446 855.931C264.763 856.443 264.564 857.144 264.005 857.49C263.446 857.835 262.989 857.416 262.989 856.559C262.989 854.802 263.589 854.544 264.446 855.931ZM190.615 875.533C190.305 876.34 189.475 876.964 188.77 876.921C187.759 876.859 187.754 876.735 188.745 876.336C189.436 876.057 189.747 875.418 189.436 874.915C189.125 874.412 189.205 873.46 189.613 872.799C190.598 871.206 191.417 873.441 190.615 875.533ZM188.686 885.497C188.489 887.421 188.063 889.259 187.74 889.582C187.417 889.906 187.349 891.257 187.59 892.585C187.889 894.231 187.566 895 186.575 895C185.512 895 185.281 894.26 185.714 892.25C186.04 890.737 186.348 888.487 186.398 887.25C186.448 886.013 186.826 885 187.239 885C187.652 885 187.989 884.325 187.989 883.5C187.989 882.675 188.227 882 188.517 882C188.807 882 188.884 883.574 188.686 885.497ZM185.157 900.232C184.415 900.974 184.285 900.583 184.72 898.92C185.074 897.568 185.527 897.114 185.777 897.863C186.017 898.585 185.739 899.65 185.157 900.232ZM184.651 905.25C184.374 905.938 184.147 905.375 184.147 904C184.147 902.625 184.374 902.063 184.651 902.75C184.929 903.438 184.929 904.563 184.651 905.25ZM213.682 905.731C213.428 906.704 213.204 906.15 213.184 904.5C213.164 902.85 213.371 902.054 213.645 902.731C213.919 903.408 213.936 904.758 213.682 905.731ZM183.651 939.25C183.374 939.938 183.147 939.375 183.147 938C183.147 936.625 183.374 936.063 183.651 936.75C183.929 937.438 183.929 938.563 183.651 939.25ZM277.589 938.6C277.233 939.527 276.717 940.061 276.442 939.786C276.167 939.511 276.233 938.527 276.589 937.6C276.945 936.673 277.461 936.139 277.736 936.414C278.011 936.689 277.945 937.673 277.589 938.6ZM287.172 939.217C286.455 939.934 285.989 939.993 285.989 939.367C285.989 938.032 287.172 936.849 287.839 937.517C288.123 937.801 287.823 938.566 287.172 939.217ZM232.489 966C232.149 966.55 231.448 967 230.93 967C230.412 967 229.989 966.55 229.989 966C229.989 965.45 230.691 965 231.548 965C232.405 965 232.829 965.45 232.489 966ZM214.989 977.57C214.989 977.845 214.089 977.589 212.989 977C211.889 976.411 210.989 975.705 210.989 975.43C210.989 975.155 211.889 975.411 212.989 976C214.089 976.589 214.989 977.295 214.989 977.57ZM223.989 979.167C223.989 979.625 223.062 980 221.93 980C220.798 980 220.103 979.625 220.386 979.167C220.669 978.708 221.596 978.333 222.445 978.333C223.294 978.333 223.989 978.708 223.989 979.167Z" fill="black"/>
</svg>
