<svg width="307" height="306" viewBox="0 0 307 306" fill="none" xmlns="http://www.w3.org/2000/svg">
<path fill-rule="evenodd" clip-rule="evenodd" d="M151.8 0.783335C150.079 2.17025 147.965 8.06042 148.069 11.1779C148.108 12.3743 148.804 11.1996 149.613 8.56861C152.634 -1.23601 157.044 -0.0591936 159.782 11.2824C160.901 15.9172 161.304 16.6738 161.368 14.2664C161.488 9.76926 157.541 0.716065 155.192 0.102305C154.134 -0.175077 152.608 0.13128 151.8 0.783335ZM181.462 6.82881C177.991 12.0028 172.82 22.6654 172.889 24.5067C172.915 25.2033 174.286 22.978 175.934 19.5625C179.695 11.7699 184.425 5.09623 185.782 5.66963C186.415 5.93769 186.768 12.1394 186.689 21.6325C186.564 36.7819 186.478 37.3501 183.132 45.1209C181.246 49.5011 179.312 52.8422 178.833 52.5472C178.354 52.2512 178.03 51.4624 178.113 50.7938C179.065 43.0923 176.185 40.983 171.675 46.0763L168.577 49.5777L169.193 43.8852C169.531 40.7543 170.03 36.5625 170.301 34.5701C170.679 31.7911 170.569 31.4299 169.832 33.0176C169.303 34.1561 168.54 37.7579 168.137 41.0213C167.733 44.2846 166.815 47.4425 166.096 48.0386C165.065 48.8946 164.636 46.75 164.055 37.8593C163.65 31.6648 162.921 25.9537 162.437 25.1691C161.63 23.865 161.791 28.419 162.962 40.1333C163.182 42.3389 162.885 45.1914 162.302 46.4717C161.543 48.136 161.605 49.4783 162.52 51.1861C163.749 53.4849 163.85 53.5014 165.214 51.6364C168.179 47.5822 166.649 53.0222 162.468 61.3995C160.179 65.9857 157.851 70.9361 157.294 72.3996C156.003 75.7944 154.321 74.8111 154.436 70.7291C154.485 69.0047 153.92 67.0331 153.179 66.3489C152.098 65.3491 151.973 65.4971 152.543 67.1035C152.933 68.2037 153.538 73.4439 153.887 78.7473C154.234 84.0507 154.833 88.3905 155.215 88.3905C155.598 88.3905 156.402 85.2461 157.003 81.4042C158.271 73.2877 166.7 54.6896 171.661 49.0602C176.059 44.0684 177.206 45.9334 176.596 57.0815C176.334 61.8777 176.543 65.6203 177.074 65.6203C177.593 65.6203 178.018 64.4229 178.018 62.9594C178.018 61.4959 179.479 57.421 181.264 53.903C188.455 39.7369 189.283 37.8066 188.31 37.4826C187.664 37.2673 187.593 33.1428 188.112 26.1265C188.562 20.0665 188.687 12.3888 188.391 9.06544C187.697 1.28011 185.632 0.613585 181.462 6.82881ZM123.794 11.1127C121.883 15.1513 120.984 19.2365 120.45 26.317C119.905 33.5258 119.49 35.3805 118.825 33.5806C117.399 29.7294 116.682 31.8957 117.929 36.281C118.552 38.4711 119.4 45.977 119.812 52.9602C120.247 60.3035 121 65.6327 121.598 65.6007C122.229 65.5655 122.45 62.8321 122.163 58.5958C121.422 47.6568 121.526 30.5201 122.373 23.4345C123.415 14.7363 126.762 7.65992 129.833 7.65992C132.968 7.65992 134.994 10.1543 137.666 17.3051C138.904 20.6171 140.132 23.1136 140.394 22.8507C140.657 22.5889 140.145 20.6368 139.258 18.513C138.37 16.3892 137.644 13.7985 137.644 12.7552C137.644 9.80336 132.791 5.58991 129.39 5.58991C126.802 5.58991 126.061 6.3206 123.794 11.1127ZM101.938 14.2281C99.8531 17.4097 99.8168 30.072 101.87 37.6751C102.787 41.071 103.222 41.9062 102.947 39.7451C101.394 27.5372 101.234 21.1657 102.39 17.6632C103.902 13.0823 105.888 12.836 110.029 16.7162C112.648 19.1712 112.905 19.2489 111.89 17.2865C110.567 14.73 106.796 11.7999 104.828 11.7999C104.114 11.7999 102.813 12.8929 101.938 14.2281ZM146.666 17.4925C146.272 19.7695 146.001 23.2626 146.064 25.255C146.145 27.8456 146.44 27.1087 147.098 22.6675C148.14 15.6274 147.765 11.1427 146.666 17.4925ZM161.536 20.6834C161.586 21.8892 161.831 22.1345 162.161 21.3096C162.46 20.5623 162.423 19.6691 162.08 19.3254C161.736 18.9818 161.492 19.5925 161.536 20.6834ZM206.944 21.9668C202.213 25.0677 197.144 29.3723 198.208 29.3837C198.779 29.3899 201.575 27.736 204.419 25.7084C207.782 23.3123 210.408 22.1749 211.922 22.4595C213.411 22.74 214.251 22.3901 214.251 21.4887C214.251 19.5708 210.196 19.8357 206.944 21.9668ZM83.3651 25.0314C83.0431 26.0478 83.4468 28.9583 84.2636 31.5003L85.7481 36.1226L85.1642 30.6889C84.6735 26.1193 84.8484 25.255 86.2667 25.255C87.1942 25.255 87.9532 24.7893 87.9532 24.22C87.9532 22.4057 83.9758 23.1094 83.3651 25.0314ZM140.75 26.7465C140.75 28.1365 141.132 29.5089 141.598 29.7966C142.064 30.0854 142.244 28.948 141.998 27.2702C141.455 23.5711 140.75 23.2751 140.75 26.7465ZM171.417 27.8829C170.418 30.485 170.712 31.1566 171.933 29.0587C172.537 28.0195 172.814 26.9514 172.547 26.6854C172.281 26.4184 171.771 26.9576 171.417 27.8829ZM115.904 29.3951C115.904 29.9643 116.398 30.4301 117.001 30.4301C117.603 30.4301 117.809 29.9643 117.457 29.3951C117.105 28.8258 116.612 28.3601 116.361 28.3601C116.109 28.3601 115.904 28.8258 115.904 29.3951ZM144.891 34.0526C144.891 36.045 144.425 37.6751 143.855 37.6751C143.259 37.6751 142.82 40.9126 142.82 45.3187C142.82 52.2957 142.598 53.1081 140.275 54.6296C137.126 56.6924 134.061 66.0923 132.978 77.0054C131.841 88.4692 131.217 89.5269 128.804 84.088C126.845 79.6674 124.186 76.0128 124.186 77.7361C124.186 78.2194 124.865 79.5836 125.694 80.7676C127.296 83.0529 131.433 96.9283 131.433 100.014C131.433 102.754 130.291 102.302 124.299 97.1881C118.352 92.1134 113.834 90.9966 113.834 94.6005C113.834 95.739 113.4 96.6705 112.869 96.6705C111.939 96.6705 107.622 91.2544 107.622 90.0879C107.622 89.7743 106.458 87.8016 105.034 85.7047C103.611 83.6077 102.446 82.5624 102.446 83.3811C102.446 84.2008 102.838 85.3145 103.316 85.8547C103.794 86.3961 105.283 88.671 106.624 90.9118L109.065 94.9845L103.3 91.688C97.0538 88.1151 96.2349 87.8523 96.2349 89.4255C96.2349 89.9947 96.7328 90.4605 97.3426 90.4605C98.6542 90.4605 107.986 96.6944 108.485 97.9043C108.675 98.3638 109.934 98.7405 111.284 98.7405C113.193 98.7405 114.19 99.7652 115.782 103.364C117.827 107.984 122.967 115.999 125.545 118.587C127.864 120.915 133.503 129.012 133.503 130.016C133.503 130.539 132.223 130.069 130.656 128.971C129.09 127.874 122.875 125.453 116.844 123.592C106.981 120.548 105.695 119.866 104.043 116.799C103.033 114.925 98.4886 109.746 93.945 105.289C86.1798 97.6756 81.7438 91.0785 83.3753 89.5725C83.7718 89.2072 84.3039 89.4907 84.5576 90.2018C85.276 92.2118 86.9179 91.7242 86.9179 89.501C86.9179 88.405 87.5008 87.3079 88.212 87.0646C88.9242 86.8214 88.4894 86.7883 87.2471 86.9912C85.6984 87.2437 84.7812 86.7086 84.3309 85.2875C83.9685 84.148 83.2387 83.2155 82.7076 83.2155C82.1765 83.2155 81.7418 82.6979 81.7418 82.0656C81.7418 81.4342 79.7478 78.0569 77.312 74.5617C66.7123 59.3585 62.0217 43.5767 67.2672 40.7698C69.0353 39.8238 70.347 40.4096 75.8078 44.5797C84.0969 50.9108 92.5401 59.6307 94.1551 63.5286C94.8508 65.2074 95.911 66.4815 96.5093 66.3593C97.1077 66.2382 97.7567 68.2265 97.9514 70.7788C98.3924 76.5686 100.253 82.3792 101.432 81.6495C101.921 81.3473 101.657 79.5101 100.845 77.5664C100.023 75.6009 99.5083 71.7331 99.6854 68.8464C99.8593 65.994 99.6905 63.8515 99.3106 64.0864C98.1501 64.8037 94.0268 60.3594 92.9274 57.2078C92.3581 55.5745 91.5836 54.4288 91.2057 54.6616C90.8289 54.8945 87.2637 52.1145 83.2842 48.4837C79.3038 44.8519 74.6039 41.0989 72.8399 40.1447C68.7901 37.9525 64.5922 38.8509 63.7806 42.0832C63.0073 45.1655 65.6522 57.6777 68.1398 62.7047C70.554 67.5837 69.1047 67.7897 64.8002 63.1798C59.856 57.8858 52.7615 53.2003 49.69 53.2003C46.6268 53.2003 42.9238 56.1407 41.8917 59.3917C41.5211 60.5581 41.78 63.2522 42.4664 65.3781C44.4726 71.5923 50.4903 82.6721 53.2844 85.2958C56.9522 88.7414 56.4708 86.9063 52.3765 81.8369C49.012 77.672 43.4384 65.3812 43.4384 62.1282C43.4384 59.0201 45.9022 55.2113 48.3018 54.6089C51.2926 53.8585 55.6903 56.6395 65.6957 65.6079C73.3875 72.502 84.3247 87.4041 82.5234 88.5354C80.7034 89.6801 82.6662 96.2265 85.6414 98.9351C87.1974 100.351 89.829 103.099 91.4885 105.042C93.149 106.984 96.5497 110.791 99.0477 113.502C101.545 116.213 103.287 118.919 102.917 119.515C102.49 120.209 101.817 120.021 101.053 118.997C99.144 116.436 86.2762 110.311 81.2056 109.551C78.6538 109.168 76.5656 108.463 76.5656 107.983C76.5656 107.503 72.6121 103.104 67.7807 98.2086C60.9234 91.2596 58.6314 89.5104 57.3322 90.2369C55.946 91.0132 56.418 91.7563 60.1645 94.6926C68.8138 101.471 74.0687 107.023 72.665 107.898C71.8596 108.401 73.8326 109.18 77.7758 109.912C84.9655 111.25 93.3385 115.005 97.879 118.929C100.954 121.588 107.26 123.926 108.796 122.977C111.226 121.477 129.303 129.332 135.591 134.622L139.022 137.509L138.297 134.622C137.899 133.035 136.075 129.741 134.244 127.304C132.413 124.866 128.294 119.422 125.091 115.206C119.607 107.986 114.22 96.6292 115.617 95.233C116.731 94.1183 119.915 94.556 120.77 95.9409C121.225 96.6788 123.811 99.1059 126.515 101.335C129.219 103.565 131.433 105.935 131.433 106.601C131.433 107.269 132.272 108.034 133.298 108.302C135.942 108.993 143.607 127.348 141.946 129.008C139.445 131.509 140.569 137.486 144.373 141.93C146.366 144.258 147.996 146.355 147.996 146.591C147.996 146.827 145.783 147.041 143.079 147.067C140.375 147.093 133.037 148.055 126.774 149.202C118.835 150.658 112.408 151.175 105.552 150.909C98.972 150.654 96.2308 150.859 97.2702 151.529C98.1243 152.079 101.851 152.551 105.552 152.576C113.107 152.629 112.504 153.333 102.446 156.199C90.4243 159.624 81.4519 167.618 84.9293 171.808C86.4521 173.642 89.3228 173.645 95.7878 171.82C105.75 169.008 120.134 165.873 121.297 166.26C121.946 166.477 120.475 167.697 118.027 168.973C115.579 170.248 110.956 173.003 107.753 175.096C101.482 179.193 101.399 179.221 93.6469 179.878C87.3496 180.412 75.1319 182.981 66.731 185.536C59.089 187.861 54.8259 188.177 54.8259 186.418C54.8259 183.549 67.1751 172.88 75.0128 168.978C76.7209 168.128 79.0502 166.915 80.1889 166.282C81.3277 165.65 83.0741 164.88 84.071 164.571C91.154 162.38 73.3667 161.691 65.5715 163.855C57.9015 165.984 46.544 164.643 46.544 161.608C46.544 159.089 53.1994 154.851 61.2877 152.219C72.7518 148.49 83.2542 147.544 87.6964 149.841C89.4894 150.767 92.0277 151.491 93.3362 151.447C95.2866 151.383 95.0879 151.141 92.2369 150.109C88.0007 148.576 85.4675 145.512 86.9551 143.719C90.4791 139.473 109.421 139.216 124.089 143.213C130.174 144.871 132.068 145.042 133.27 144.044C134.505 143.02 133.107 142.457 125.711 141.001C111.081 138.123 94.3508 129.009 94.2017 123.839C94.181 123.128 95.1241 122.546 96.296 122.546C97.4678 122.546 98.1667 122.123 97.8478 121.608C97.1428 120.467 92.8911 121.422 91.8901 122.945C91.4925 123.55 91.5041 124.289 91.914 124.589C92.324 124.888 93.4978 126.45 94.5226 128.058C95.6904 129.892 99.3489 132.401 104.334 134.786L112.281 138.588L101.411 139.182C90.8942 139.758 86.9179 140.573 86.9179 142.155C86.9179 144.468 81.2459 145.218 70.0551 144.382C54.7814 143.243 47.9054 139.823 52.566 135.683C57.4222 131.371 69.0976 130.803 79.631 134.365C84.0339 135.855 86.8756 136.39 86.6406 135.685C85.8155 133.212 68.6026 129.921 60.5196 130.693C52.6042 131.449 24.4813 121.836 18.6364 116.376C14.8765 112.864 14.5307 109.398 17.8165 108.165C20.859 107.024 40.2954 107.774 47.5793 109.314C50.7108 109.977 53.6458 111.129 54.1013 111.875C54.5568 112.62 55.4397 113.231 56.065 113.231C56.6892 113.231 59.2038 114.872 61.6522 116.878C64.1015 118.884 69.5064 122.266 73.6639 124.395C77.8224 126.523 82.3763 129.075 83.7842 130.063C86.9831 132.31 88.9883 132.362 88.9883 130.198C88.9883 129.194 88.4117 128.756 87.5328 129.093C86.7325 129.4 85.2626 128.751 84.2667 127.651C83.2708 126.551 82.0336 125.651 81.517 125.651C77.2478 125.651 59.622 114.388 58.4129 110.886C58.0661 109.882 57.3497 109.328 56.8217 109.654C56.2938 109.981 55.8611 109.787 55.8611 109.224C55.8611 108.66 56.6759 107.993 57.6728 107.74C58.6697 107.488 57.9046 107.437 55.9749 107.627C53.6198 107.859 51.5763 107.282 49.7636 105.875C40.223 98.4673 32.1555 92.5305 31.6296 92.5305C30.0819 92.5305 31.2806 94.3117 33.8625 95.8497C35.4288 96.7833 37.6411 98.3969 38.7798 99.4371C39.9186 100.477 42.8732 102.644 45.3453 104.252C47.8174 105.86 49.6394 107.376 49.3951 107.621C49.1497 107.865 46.4809 107.597 43.4643 107.026C36.5428 105.713 20.5826 105.674 17.1964 106.962C13.7863 108.257 12.8081 111.629 14.9096 114.837C17.359 118.574 23.0329 121.738 34.3801 125.695C39.931 127.631 44.4736 129.568 44.4736 130.001C44.4736 130.433 43.1931 131.07 41.6268 131.417C40.0605 131.763 37.3823 132.431 35.6741 132.901C33.966 133.371 29.647 134.052 26.0755 134.414C12.1838 135.825 -3.34459 143.728 0.632753 147.363C3.85645 150.31 13.4012 151.788 40.8503 153.591C43.9642 153.796 37.3274 155.84 30.9525 156.641C21.9646 157.769 17.8651 160.379 12.8411 168.176C10.8804 171.219 9.223 174.191 9.15778 174.778C9.09256 175.367 8.88874 177.125 8.70343 178.684C8.12785 183.525 10.7024 184.998 18.3714 184.213C24.8819 183.546 35.2239 181.227 37.2394 179.981C39.5791 178.535 38.0355 181.321 35.4153 183.273C31.3769 186.28 22.5609 199.55 23.3073 201.497C24.3798 204.29 28.4989 204.395 36.1016 201.823C40.1369 200.459 43.4384 199.596 43.4384 199.905C43.4384 200.216 41.8296 201.916 39.8637 203.684C35.1721 207.904 30.6274 218.681 32.0084 222.312C34.2372 228.172 41.3886 228.39 49.129 222.833C54.9169 218.676 54.3765 217.454 48.4767 221.357C46.0999 222.93 42.3679 224.456 40.1835 224.749C32.5964 225.766 31.086 221.052 35.9329 211.483C38.0769 207.251 40.313 204.797 44.9911 201.542C48.4074 199.165 51.7854 197.185 52.4966 197.143C53.2089 197.1 53.7906 196.601 53.7906 196.031C53.7906 195.462 54.4262 194.996 55.2037 194.996C57.2348 194.996 62.2009 190.866 61.5114 189.75C61.1915 189.233 61.6521 189.087 62.5362 189.426C63.4203 189.765 64.1429 189.581 64.1429 189.016C64.1429 187.674 71.7611 185.276 82.9446 183.1C96.4005 180.481 96.9161 181.171 86.6508 188.07C76.37 194.981 70.9724 200.534 71.7281 203.423C72.0542 204.673 71.4951 205.771 70.1721 206.479C68.142 207.564 64.3789 210.573 61.2391 213.62C60.3622 214.47 58.6789 215.648 57.4966 216.237C56.3154 216.826 55.3404 217.993 55.3311 218.83C55.3208 219.669 54.3197 222.222 53.1043 224.504C50.5338 229.337 48.7594 240.537 50.5659 240.537C51.2408 240.537 51.7202 238.637 51.7202 235.965C51.7202 230.852 54.4718 223.833 58.1107 219.664C62.1615 215.022 72.169 207.503 74.9734 206.995C78.4218 206.37 91.1696 201.302 92.9813 199.836C94.4057 198.684 96.0808 197.648 100.508 195.182C101.859 194.429 100.169 196.525 96.7526 199.839C86.8621 209.434 84.8475 212.266 84.8475 216.582C84.8475 220.594 81.3008 225.189 73.7757 230.928C68.9412 234.614 52.7699 242.738 51.6467 242.044C51.1177 241.717 50.685 242.176 50.685 243.063C50.685 243.95 50.9096 244.677 51.185 244.677C51.4604 244.677 56.385 242.232 62.1295 239.243C68.9547 235.692 74.9694 231.579 79.4871 227.372C83.2895 223.832 86.5691 221.427 86.7751 222.028C86.9811 222.628 85.9779 225.292 84.5462 227.947C80.8608 234.782 77.6009 246.084 77.6009 252.03C77.6009 256.259 77.9156 257.097 79.5057 257.097C81.4612 257.097 92.4274 246.757 102.343 235.564C105.416 232.094 108.211 229.331 108.554 229.423C108.896 229.516 110.166 229.041 111.378 228.368C113.68 227.089 115.545 221.513 113.439 222.206C112.803 222.415 112.144 223.503 111.978 224.622C111.811 225.742 109.982 227.569 107.912 228.682C105.843 229.794 101.931 233.499 99.2206 236.914C94.0093 243.48 91.2017 246.235 84.0721 251.779C78.7117 255.947 77.901 254.893 79.6516 246.034C81.0046 239.193 88.8765 221.907 90.6395 221.907C91.2803 221.907 93.6169 220.662 95.8312 219.141C98.0466 217.621 103.3 214.593 107.506 212.413C111.714 210.235 114.346 208.451 113.357 208.451C111.685 208.451 100.389 214.185 95.7453 217.392C93.1883 219.157 89.9387 219.227 90.2824 217.508C90.4273 216.785 89.742 216.348 88.7296 216.518C87.6043 216.707 86.9179 216.165 86.9179 215.088C86.9179 213.138 90.83 206.381 91.9594 206.381C92.3611 206.381 95.6832 203.587 99.3406 200.171C102.998 196.756 106.287 193.961 106.648 193.961C107.891 193.961 111.763 190.094 111.763 188.855C111.763 188.142 108.784 189.235 104.776 191.419C100.932 193.512 96.3902 195.953 94.6821 196.841C92.9739 197.73 91.3175 198.839 91.0018 199.307C90.686 199.775 87.1839 201.26 83.22 202.609C77.2789 204.628 75.7872 204.82 74.7354 203.695C74.0346 202.943 73.4599 201.903 73.4599 201.382C73.4599 199.666 82.1455 192.398 88.4708 188.819C91.887 186.887 96.1117 184.234 97.8592 182.926C100.066 181.273 101.367 180.876 102.117 181.626C104.299 183.808 109.428 182.749 120.045 177.927C126.024 175.211 131.357 172.584 131.898 172.089C133.886 170.273 134.799 171.257 132.986 173.261C131.955 174.4 130.708 175.331 130.215 175.331C129.721 175.331 126.876 177.776 123.891 180.765C117.232 187.431 112.34 196.135 113.239 199.714C114.072 203.032 115.726 202.903 120.085 199.179C124.03 195.807 125.231 195.372 125.204 197.325C125.185 198.644 120.822 203.276 119.597 203.276C119.226 203.276 117.923 204.208 116.701 205.346C113.485 208.342 116.212 207.895 119.857 204.829C121.548 203.406 123.192 202.241 123.51 202.241C123.827 202.241 123.401 204.454 122.563 207.158C116.695 226.085 115.809 234.327 119.641 234.327C123.429 234.327 136.552 217.82 138.3 210.857C139.742 205.112 140.232 208.688 140.232 224.958C140.232 237.821 140.585 242.716 141.603 243.941C143.112 245.757 142.813 251.491 140.809 259.167C139.124 265.618 137.24 269.426 133.639 273.657C130.836 276.948 130.403 277.132 128.9 275.667C126.878 273.696 125.24 260.678 125.23 246.488C125.224 240.938 124.805 236.397 124.297 236.397C123.111 236.397 121.938 239.411 122.665 240.588C122.971 241.083 123.456 246.747 123.742 253.174C124.278 265.205 125.754 274.233 127.554 276.503C131.067 280.931 138.093 273.245 141.4 261.357C142.368 257.875 143.452 255.027 143.809 255.027C144.166 255.027 145.465 260.897 146.697 268.073C149.924 286.877 153.043 290.559 157.346 280.643C160.728 272.854 162.476 266.717 163.172 260.202C163.506 257.071 163.981 254.29 164.227 254.022C164.94 253.242 166.597 256.392 166.615 258.558C166.637 261.303 172.487 270.157 175.867 272.565C181.19 276.354 183.61 276.277 187.699 272.188C190.649 269.239 191.554 267.375 192.133 263.049L192.863 257.614L195.159 262.789C198.478 270.267 201.804 273.051 206.393 272.19C211.611 271.211 212.217 269.401 207.111 270.043C203.731 270.467 202.545 270.13 200.747 268.229C197.627 264.931 194.463 258.102 190.914 247.01C189.212 241.688 187.278 237.439 186.559 237.436C184.849 237.431 184.866 237.527 187.758 244.646C191.26 253.259 191.629 255.732 190.466 262.747C188.561 274.237 182.338 276.595 174.526 268.786C170.656 264.917 167.404 257.67 166.146 250.116C165.439 245.864 164.051 243.805 162.762 245.095C162.417 245.44 162.236 248.2 162.358 251.23C162.827 262.82 155.929 285.689 152.757 283.057C150.993 281.593 148.395 271.936 147.025 261.754C145.398 249.653 145.631 246.5 148.535 241.306C151.507 235.99 155.743 224.332 156.836 218.465C157.793 213.328 159.137 214.778 159.812 221.677C160.557 229.278 163.862 236.225 168.908 240.795C171.265 242.931 173.523 244.677 173.926 244.677C174.875 244.677 177.337 241.709 177.661 240.173C177.8 239.519 178.663 236.917 179.58 234.392C180.816 230.986 181.066 228.111 180.547 223.265C179.755 215.87 180.785 214.938 183.467 220.623C189.308 233.002 193.352 236.37 200.126 234.499C203.244 233.639 203.801 233.788 204.743 235.735C207.063 240.526 211.581 257.855 211.594 262.013C211.61 266.994 212.738 267.835 213.676 263.563C214.069 261.782 213.343 257.896 211.74 253.184C208.826 244.618 209.558 244.297 214.029 252.18C221.371 265.123 231.482 270.829 235.1 264.072C236.517 261.425 236.464 251.745 235.006 246.815C233.739 242.528 234.442 241.413 236.531 244.395C238.902 247.78 244.673 250.889 248.536 250.864C253.359 250.833 260.807 247.308 260.955 244.986C261.147 241.995 260.678 239.026 259.926 238.467C258.609 237.489 252.554 229.371 252.554 228.583C252.554 228.151 253.369 228.495 254.366 229.351C257.215 231.798 258.766 232.474 258.766 231.27C258.766 230.66 256.227 228.537 253.125 226.553C250.021 224.569 247.11 222.362 246.654 221.65C246.198 220.937 243.587 218.555 240.851 216.357C235.478 212.04 232.414 212.097 237.544 216.419C249.895 226.826 260.581 240.588 259.342 244.491C258.086 248.448 248.16 250.158 243.237 247.265C241.814 246.429 239.944 245.479 239.083 245.154C238.222 244.829 236.754 243.308 235.822 241.773C226.526 226.47 225.65 224.693 226.745 223.373C227.657 222.274 227.175 222.123 224.254 222.597C220.513 223.204 218.211 221.54 213.003 214.471C212.032 213.152 211.217 212.565 211.192 213.164C211.104 215.23 217.439 222.805 220.322 224.081C228.041 227.497 237.429 253.809 234.041 262.531C231.597 268.825 223.991 264.412 215.76 251.922C212.572 247.083 209.094 240.562 208.034 237.432C206.118 231.777 206.12 231.724 208.255 229.446C210.427 227.128 210.497 223.22 208.567 212.074C208.272 210.366 208.303 209.552 208.639 210.263C208.973 210.975 209.668 211.556 210.181 211.556C211.282 211.556 207.883 202.533 204.463 196.373L202.066 192.056L204.421 191.465C208.841 190.356 208.34 187.891 202.351 181.274C199.218 177.814 196.822 174.817 197.024 174.614C197.227 174.411 200.119 174.955 203.451 175.824C206.784 176.691 211.309 177.401 213.508 177.401C216.849 177.401 218.345 178.196 222.612 182.235C232.192 191.303 236.219 201.504 233.387 209.529C231.301 215.443 231.524 215.971 234.069 211.145C236.885 205.807 236.754 201.506 233.563 194.539C232.115 191.375 231.191 188.786 231.511 188.786C231.832 188.786 233.686 190.183 235.631 191.891C238.126 194.081 240.24 194.996 242.807 194.996C245.559 194.996 247.347 195.872 250.146 198.59C252.183 200.567 254.605 202.464 255.531 202.805C256.456 203.147 259.775 206.483 262.907 210.217C266.038 213.951 270.814 219.341 273.518 222.192C283.55 232.77 277.507 237.17 260.836 231.426C259.982 231.133 259.642 231.285 260.079 231.766C261.551 233.384 268.565 235.33 272.976 235.346C276.507 235.358 277.678 234.864 279.043 232.781C281.349 229.262 280.267 226.173 275.415 222.424C273.205 220.716 270.578 217.958 269.576 216.295C268.574 214.63 266.132 211.475 264.15 209.28C262.168 207.086 260.732 205.105 260.959 204.878C261.187 204.651 263.678 205.576 266.496 206.933C269.313 208.291 271.832 209.188 272.093 208.926C272.687 208.332 273.244 208.66 263.424 203.818C251.139 197.759 247.266 194.903 247.952 192.409C250.725 182.325 248.237 175.161 238.989 166.601C235.659 163.519 231.992 160.697 230.839 160.332C229.687 159.965 228.744 159.182 228.744 158.591C228.744 157.985 229.536 157.825 230.556 158.226C231.553 158.616 234.82 159.341 237.817 159.837C240.815 160.332 243.765 161.045 244.375 161.422C246.8 162.92 258.755 162.098 262.666 160.163L266.595 158.219L274.897 161.342C287.418 166.05 299.391 174.482 297.621 177.346C296.082 179.834 286.077 184.628 282.401 184.637C277.162 184.65 266.498 181.834 260.492 178.851C254.69 175.969 250.225 175.524 251.144 177.919C251.472 178.773 252.746 179.471 253.975 179.471C258.928 179.471 273.554 189.792 283.043 199.984C288.975 206.354 288.715 208.617 281.953 209.49C278.862 209.889 278.367 210.193 279.838 210.793C280.894 211.223 283.572 211.031 285.79 210.366C288.82 209.458 289.817 208.621 289.8 206.994C289.773 204.438 279.587 193.496 273.044 188.995C270.535 187.269 267.809 185.031 266.987 184.022C265.633 182.359 265.687 182.268 267.565 183.042C268.704 183.512 272.649 184.493 276.332 185.223C281.675 186.282 283.78 186.291 286.737 185.273C291.599 183.598 300.175 177.663 300.175 175.973C300.175 175.242 297.496 172.706 294.222 170.338C290.949 167.969 287.769 165.62 287.156 165.117C286.543 164.613 282.002 162.667 277.066 160.791C272.129 158.917 268.234 157.24 268.409 157.065C268.584 156.889 272.425 156.229 276.945 155.596C285.705 154.369 293.963 151.824 293.963 150.35C293.963 149.859 294.411 149.456 294.956 149.456C296.882 149.456 305.382 143.743 305.905 142.098C307.285 137.749 304.367 136.046 291.893 133.919C278.375 131.616 273.568 129.542 280.598 129.049C288.113 128.522 303.28 119.086 303.28 114.937C303.28 108.841 294.859 106.948 276.041 108.815C271.025 109.313 266.687 109.346 266.405 108.888C266.122 108.43 266.85 108.056 268.022 108.056C269.194 108.056 270.153 107.643 270.153 107.139C270.153 106.635 271.901 105.401 274.035 104.397C280.198 101.501 287.885 96.241 292.872 91.5069C297.333 87.2737 297.428 87.0543 295.943 84.4078C295.1 82.906 293.534 81.5087 292.462 81.3027C290.4 80.9053 283.797 82.7776 279.47 84.9863C275.835 86.8421 279.167 86.7013 284.646 84.768C287.067 83.9141 290.104 83.2155 291.395 83.2155C294.288 83.2155 295.449 85.8454 293.674 88.3791C291.679 91.2274 282.54 98.6257 278.435 100.715C276.442 101.73 271.404 104.297 267.239 106.418C263.073 108.541 258.066 110.538 256.11 110.854C254.155 111.172 252.554 111.887 252.554 112.444C252.554 113.035 254.17 113.198 256.436 112.833C275.932 109.701 296.304 109.188 299.944 111.737C302.918 113.819 302.845 114.648 299.398 117.919C295.282 121.828 286.047 126.275 279.47 127.518C266.295 130.008 266.949 130.026 267.657 127.206C268.763 122.801 265.402 122.182 246.722 123.348C237.688 123.912 230.148 124.24 229.967 124.079C229.786 123.916 232.296 122.788 235.547 121.572C244.359 118.275 250.484 113.54 250.484 110.024C250.484 106.421 248.626 104.564 242.797 102.337C238.455 100.68 237.608 100.679 228.701 102.315C223.488 103.273 219.051 103.886 218.842 103.675C218.632 103.466 220.048 101.062 221.988 98.3338C223.928 95.6055 225.79 92.1269 226.125 90.6033C226.488 88.9453 227.863 87.3213 229.551 86.5544C231.099 85.8506 234.231 83.615 236.508 81.5874C238.786 79.5588 242.862 76.759 245.566 75.3649C248.27 73.9707 250.484 72.3562 250.484 71.7766C250.484 71.0935 249.724 71.1297 248.324 71.878C244.885 73.7182 245.185 72.6563 249.425 67.9739C254.928 61.8943 258.346 54.672 256.673 52.6568C255.192 50.8714 244.909 50.5464 240.69 52.1497C237.857 53.2261 237.698 53.3368 231.591 58.4467C226.77 62.4811 226.547 60.5261 231.183 54.8594C242.006 41.632 241.228 32.8924 229.594 37.0231C223.914 39.0403 213.482 46.1291 212.524 48.6213C212.214 49.4318 211.26 50.0952 210.406 50.0952C209.35 50.0952 209.078 49.5156 209.554 48.2839C209.939 47.2883 210.462 45.0754 210.716 43.3677C210.968 41.6599 210.062 43.3243 208.702 47.0648C205.921 54.7135 201.91 61.4482 200.122 61.4678C198.387 61.4865 185.264 72.0726 181.641 76.3762C179.933 78.4058 178.186 80.0763 177.759 80.0877C177.333 80.1001 176.983 77.0054 176.983 73.21C176.983 65.2933 176.156 64.6619 175.888 72.3748C175.79 75.2065 175.468 79.2845 175.173 81.4384C174.663 85.1613 174.564 85.2503 173.163 83.2496C171.184 80.4251 170.372 80.5773 166.756 84.4461C163.52 87.9082 158.361 101.553 158.333 106.726C158.32 109.085 156.462 113.953 156.246 112.196C156.211 111.911 156.067 107.605 155.926 102.628C155.762 96.8124 155.185 93.1142 154.312 92.278C153.198 91.2119 153.087 91.6042 153.69 94.4629C154.998 100.661 154.396 119.075 152.699 124.791C151.642 128.349 151.443 130.545 152.116 131.218C154.055 133.157 153.907 133.595 159.848 108.056C161.768 99.8014 164.075 91.6094 164.977 89.8519C166.883 86.1311 170.495 82.5945 171.432 83.5301C172.564 84.6634 172.682 95.9109 171.635 102.881C169.839 114.824 168.894 117.371 166.266 117.371C163.87 117.371 159.384 122.254 159.384 124.861C159.384 125.611 158.734 127.154 157.939 128.288C157.145 129.422 156.075 132.436 155.563 134.987L154.632 139.623L152.676 136.518C151.6 134.811 149.868 132.446 148.828 131.263C147.295 129.522 146.71 125.979 145.746 112.632C145.092 103.569 144.9 93.8988 145.318 91.1436C146.047 86.3535 146.201 86.1642 148.85 86.8132C151.449 87.4497 151.513 87.3824 149.889 85.7295C147.403 83.1999 145.199 84.5331 143.724 89.4566C142.733 92.7624 142.692 97.0784 143.542 108.4C144.146 116.465 144.481 123.241 144.284 123.46C144.087 123.677 142.059 119.835 139.779 114.921C137.497 110.007 135.178 105.986 134.626 105.986C132.772 105.986 132.732 85.3569 134.565 74.9354C137.269 59.5583 141.479 51.0629 143.176 57.5535C143.504 58.81 144.012 59.5987 144.304 59.3068C144.969 58.6424 146.001 30.4301 145.361 30.4301C145.102 30.4301 144.891 32.0602 144.891 34.0526ZM193.966 32.6512C192.004 34.8599 192.006 34.8651 194.323 33.6489C195.603 32.9772 196.652 31.9775 196.652 31.4289C196.652 29.9582 196.156 30.1837 193.966 32.6512ZM141.785 34.0526C141.785 35.4758 142.187 36.6401 142.676 36.6401C143.167 36.6401 143.346 35.4758 143.074 34.0526C142.802 32.6295 142.4 31.4651 142.181 31.4651C141.964 31.4651 141.785 32.6295 141.785 34.0526ZM85.9717 38.1926C86.0794 40.1529 87.804 43.4546 87.8641 41.8151C87.8962 40.9613 87.4697 39.564 86.9179 38.7102C86.3661 37.8563 85.9396 37.6234 85.9717 38.1926ZM97.8541 39.0134C98.2433 40.034 98.822 40.6083 99.1408 40.2896C99.4597 39.9718 99.1419 39.1366 98.4338 38.4338C97.411 37.4195 97.293 37.5386 97.8541 39.0134ZM237.026 40.3858C237.026 44.5528 230.584 54.2208 221.52 63.6549C217.009 68.3507 213.574 72.6077 213.886 73.1138C214.43 73.9925 218.127 71.4702 219.612 69.2067C219.999 68.6167 223.027 66.289 226.341 64.0327C229.656 61.7763 233.529 58.8814 234.947 57.598C237.856 54.9681 241.593 53.6474 248.436 52.8287C255.059 52.0369 256.354 53.0584 254.518 57.6301C252.699 62.1613 242.481 73.5475 234.784 79.622C228.54 84.5496 227.709 84.9512 227.709 83.0385C227.709 80.867 224.342 78.0404 221.755 78.0404C219.179 78.0404 213.365 81.5098 211.87 83.9399C211.414 84.68 210.482 85.2855 209.796 85.2855C209.111 85.2855 207.231 86.6827 205.619 88.3905C203.048 91.1147 200.793 92.3639 200.793 91.0639C200.793 90.8269 201.649 88.6141 202.696 86.1477C203.743 83.6812 205.438 78.5372 206.462 74.718C208.027 68.8806 208.117 67.2701 207.021 64.6267C206.304 62.8962 205.283 61.4803 204.75 61.4803C203.213 61.4803 207.175 55.3479 211.145 51.5815C220.596 42.6152 228.615 37.7869 234.179 37.7134C236.569 37.6813 237.026 38.1098 237.026 40.3858ZM100.005 43.3677C100.386 44.5062 101.024 45.9034 101.424 46.4727C101.823 47.0419 103.443 51.0009 105.025 55.2703C106.607 59.5397 108.305 63.4758 108.797 64.0161C109.29 64.5574 109.693 66.3034 109.693 67.8973C109.693 69.4913 110.217 70.7954 110.857 70.7954C111.6 70.7954 111.797 69.6682 111.401 67.6903C110.905 65.2135 111.141 64.5719 112.566 64.5201C114.039 64.4653 113.985 64.3059 112.262 63.6073C109.545 62.505 107.985 59.3596 106.147 51.2834C104.681 44.8425 103.504 42.0936 103.459 45.0061C103.444 45.9086 102.643 45.4781 101.375 43.8852C99.7102 41.7955 99.4462 41.6961 100.005 43.3677ZM88.0991 44.9202C88.0991 45.7741 88.4987 47.4042 88.9883 48.5427C89.5494 49.8479 89.8776 50.0383 89.8776 49.0602C89.8776 48.2063 89.478 46.5762 88.9883 45.4377C88.4272 44.1325 88.0991 43.9421 88.0991 44.9202ZM147.996 58.2604C147.996 58.7665 148.923 60.2807 150.055 61.6242L152.116 64.0678L150.497 60.7041C148.893 57.3672 147.996 56.4916 147.996 58.2604ZM205.341 65.1877C206.474 68.1416 206.006 71.6078 203.366 79.7979C200.436 88.8904 198.375 91.8733 194.322 92.8908C192.786 93.2758 187.277 97.807 182.079 102.959C176.881 108.112 172.474 112.173 172.286 111.985C171.628 111.327 174.914 90.9439 176.319 86.9684C180.52 75.0813 202.738 58.4063 205.341 65.1877ZM118.549 71.0262C120.732 74.2834 122.713 76.7539 122.952 76.5138C123.605 75.8607 119.394 69.3899 116.83 67.1046C115.463 65.8874 116.137 67.4244 118.549 71.0262ZM259.283 67.5558C255.717 68.4863 251.156 70.7777 251.729 71.3511C251.942 71.5644 253.963 71.1059 256.218 70.3337C258.474 69.5606 261.483 68.7968 262.907 68.6353C266.648 68.212 277.269 69.7469 277.924 70.8057C278.23 71.3015 276.98 73.4812 275.145 75.6495L271.81 79.5929L275.64 76.0263C280.107 71.8666 280.542 69.219 276.908 68.3072C272.293 67.149 262.453 66.7299 259.283 67.5558ZM266.53 82.2943C264.252 83.972 258.895 87.726 254.625 90.6375C244.828 97.3154 243.141 98.783 243.882 99.9815C244.209 100.511 245.367 100.141 246.453 99.1587C247.539 98.1754 249.293 96.8652 250.35 96.2452C258.329 91.569 262.15 89.9089 267.565 88.7621L273.776 87.4466L267.823 87.6598C261.976 87.8689 260.107 86.925 263.683 85.5681C265.368 84.9284 272.332 78.9885 271.188 79.1655C270.904 79.2089 268.807 80.6175 266.53 82.2943ZM27.6531 82.1267C24.2679 84.0383 24.0941 85.6084 26.8747 89.143C28.0134 90.5909 28.9451 91.274 28.9451 90.6613C28.9451 90.0485 28.4794 89.2599 27.91 88.908C25.6056 87.4839 26.912 84.3985 30.2921 83.2838C35.0469 81.7147 43.5036 83.4763 49.7957 87.3472C52.5618 89.0488 54.8259 90.0931 54.8259 89.6666C54.8259 88.1286 45.2128 83.1327 40.4984 82.2198C31.6948 80.5162 30.5197 80.5069 27.6531 82.1267ZM225.289 82.0065C226.208 83.4762 226.079 85.0671 224.716 89.0922C223.14 93.7456 217.116 102.834 214.996 103.756C214.545 103.953 212.91 105.166 211.366 106.452C209.821 107.739 206.694 109.126 204.416 109.534C202.139 109.941 197.35 112.169 193.774 114.482C190.198 116.796 187.063 118.479 186.806 118.222C186.404 117.82 188.182 114.145 196.328 98.5357C197.129 97.0007 199.509 94.7154 201.618 93.4589C203.727 92.2024 207.117 89.6015 209.152 87.6795C216.468 80.7708 223.068 78.4503 225.289 82.0065ZM60.1346 92.2718C61.4214 93.9133 61.3851 93.9495 59.7432 92.663C58.0185 91.3102 57.4709 90.4605 58.3229 90.4605C58.5372 90.4605 59.353 91.2761 60.1346 92.2718ZM193.682 97.0245C193.048 97.7883 192.764 98.6485 193.051 98.9362C194.138 100.023 184.236 119.089 180.69 122.735C177.232 126.29 175.832 129.791 177.868 129.791C178.354 129.791 179.869 128.467 181.232 126.848C185.023 122.349 200.86 112.196 204.087 112.196C207.573 112.196 208.487 113.566 206.935 116.464C205.475 119.192 200.712 123.503 199.107 123.548C198.466 123.566 197.341 124.302 196.61 125.185C194.743 127.433 186.914 130.844 184.04 130.661C180.266 130.421 173.486 132.655 169.239 135.536C167.101 136.986 165.181 138.002 164.971 137.791C164.262 137.082 167.385 124.021 169.02 120.86C172.184 114.742 190.603 95.7183 193.414 95.6635C194.486 95.6428 194.552 95.9771 193.682 97.0245ZM242.524 104.418C244.548 105.263 246.929 106.991 247.815 108.254C249.318 110.401 249.251 110.735 246.806 113.289C245.364 114.793 241.992 116.978 239.312 118.147C222.639 125.415 222.059 125.577 209.791 126.417C203.134 126.873 197.687 127.198 197.687 127.141C197.687 127.083 199.901 125.462 202.605 123.538C209.062 118.945 210.209 117.421 209.786 114.005C209.577 112.323 210.101 110.581 211.065 109.748C213.818 107.373 221.78 104.86 229.327 103.985C233.276 103.528 237.034 103.092 237.676 103.016C238.318 102.942 240.5 103.572 242.524 104.418ZM62.3312 107.734C63.3282 107.995 64.9576 107.995 65.9545 107.734C66.9515 107.474 66.1357 107.261 64.1429 107.261C62.1501 107.261 61.3343 107.474 62.3312 107.734ZM165.113 121.252C164.726 122.248 164.232 125.739 164.017 129.009C163.567 135.847 160.081 144.696 158.107 144.007C155.22 142.999 158.267 128.475 162.659 122.308C164.97 119.063 166.164 118.55 165.113 121.252ZM265.884 126.219C268.03 128.386 254.727 134.68 237.805 139.504C232.825 140.923 228.282 142.373 227.712 142.726C225.243 144.252 227.066 145.316 232.15 145.316C238.86 145.316 248.207 147.632 255.246 151.04C258.149 152.446 261.046 153.596 261.683 153.596C262.321 153.596 262.573 154.295 262.246 155.149C261.918 156.002 262.165 156.701 262.796 156.701C263.426 156.701 263.942 157.134 263.942 157.661C263.942 158.19 261.41 159.189 258.313 159.882C253.367 160.989 251.276 160.857 241.046 158.793C234.644 157.501 228.017 155.861 226.32 155.146L223.232 153.849L225.729 152.532C228.164 151.249 229.732 149.6 229.764 148.288C229.791 147.165 216.665 144.286 210.932 144.159C207.918 144.092 204.054 143.719 202.346 143.332L199.24 142.628L203.381 141.318C214.172 137.903 224.603 131.992 224.603 129.293C224.603 127.1 230.602 125.858 244.927 125.088C249.889 124.821 254.107 124.443 254.302 124.248C254.835 123.715 265.142 125.47 265.884 126.219ZM217.107 129.094C217.823 129.551 219.338 129.63 220.472 129.27C225.113 127.797 220.399 132.562 213.622 136.192C207.936 139.239 192.343 143.246 186.17 143.246C180.015 143.246 176.983 143.929 176.983 145.316C176.983 147.062 180.181 147.175 187.391 145.683C193.527 144.413 197.068 144.325 206.664 145.202C218.605 146.293 226.674 148.064 226.674 149.594C226.674 151.162 220.257 153.769 217.871 153.17C216.306 152.777 215.301 153.1 214.909 154.121C214.1 156.23 201.595 156.199 193.365 154.067C189.97 153.187 186.291 152.752 185.192 153.101C184.02 153.474 182.015 152.935 180.346 151.799C178.781 150.733 175.404 148.986 172.842 147.916C167.624 145.736 165.505 144.281 167.55 144.281C168.284 144.281 171.903 142.884 175.593 141.176C179.284 139.468 182.701 138.071 183.187 138.071C183.672 138.071 185.387 136.781 186.996 135.204C190.103 132.161 196.505 129.051 200.793 128.502C205.597 127.888 215.794 128.258 217.107 129.094ZM144.891 131.861C144.891 132.43 145.583 132.896 146.43 132.896C148.612 132.896 153.315 140.774 153.948 145.488C154.712 151.184 152.927 150.534 147.477 143.132C143.068 137.145 141.208 130.826 143.855 130.826C144.425 130.826 144.891 131.292 144.891 131.861ZM53.2275 132.821C53.5536 133.349 52.8828 134.08 51.7358 134.443C49.3868 135.188 48.9882 138.728 50.9769 141.176C52.8889 143.53 58.6976 145.341 66.5767 146.039C73.8906 146.688 73.9403 147.605 66.731 148.898C64.4535 149.307 62.1242 149.997 61.5549 150.433C59.8623 151.729 54.0122 153.472 53.4024 152.863C53.0929 152.553 45.2501 152.103 35.9744 151.863C26.6998 151.624 17.9458 151.029 16.5224 150.541C15.099 150.053 11.7305 149.085 9.03681 148.391C2.05316 146.59 1.12557 145.008 5.4787 142.319C7.41665 141.121 9.73545 140.141 10.6309 140.141C11.5264 140.141 12.5212 139.718 12.8411 139.199C13.161 138.682 16.8 137.708 20.9254 137.037C25.0518 136.365 32.3873 134.983 37.227 133.966C47.4312 131.823 52.39 131.468 53.2275 132.821ZM279.988 132.982C282.265 133.571 288.088 134.772 292.928 135.652C306.363 138.095 307.493 140.115 298.602 145.801C295.459 147.811 292.431 149.456 291.873 149.456C291.314 149.456 290.858 149.868 290.858 150.37C290.858 151.672 287.543 152.424 276.688 153.586C267.267 154.593 267.11 154.572 260.124 151.386C251.504 147.455 241.607 144.3 237.863 144.289C231.778 144.272 234.569 142.314 246.635 138.137C265.377 131.649 271.299 130.734 279.988 132.982ZM180.088 133.931C180.088 134.5 179.157 134.966 178.018 134.966C176.879 134.966 175.947 135.432 175.947 136.001C175.947 136.57 176.506 137.036 177.19 137.036C179.378 137.036 176.346 139.331 172.098 140.89C164.585 143.647 162.489 144.149 162.489 143.188C162.489 142.667 164.469 140.958 166.889 139.389C169.31 137.82 171.523 136.228 171.809 135.848C172.093 135.469 173.957 134.692 175.95 134.12C177.941 133.55 179.687 133.041 179.83 132.989C179.972 132.938 180.088 133.362 180.088 133.931ZM174.47 150.581C181.258 153.83 184.651 156.897 185.546 160.596C186.285 163.651 183.199 165.372 178.733 164.397C172.463 163.028 161.454 152.477 161.454 147.836C161.454 145.61 166.152 146.601 174.47 150.581ZM146.503 149.579C149.033 150.216 151.102 151.033 151.102 151.397C151.102 152.939 144.773 154.475 136.091 155.041C130.967 155.374 124.329 155.943 121.339 156.306C117.928 156.72 115.904 156.574 115.904 155.916C115.904 153.636 121.556 151.399 130.667 150.073C135.928 149.307 140.608 148.622 141.068 148.55C141.527 148.479 143.973 148.942 146.503 149.579ZM161.057 154.222C161.952 157.79 160.813 169.556 159.298 172.386C158.208 174.422 158.008 174.466 157.11 172.863C156.295 171.405 156.501 157.508 157.409 152.82C157.858 150.497 160.363 151.46 161.057 154.222ZM153.558 156.424C152.861 160.267 149.336 165.77 146.294 167.762C143.652 169.492 141.636 168.856 143.585 166.907C144.214 166.279 144.488 165.137 144.195 164.371C143.557 162.711 150.761 153.596 152.711 153.596C153.627 153.596 153.903 154.518 153.558 156.424ZM48.1611 157.669C45.9726 159.953 45.4084 161.336 45.8867 163.242C46.8473 167.069 48.8599 167.153 72.166 164.345C75.1557 163.984 77.5915 164.097 77.5801 164.594C77.5677 165.092 74.9062 167.129 71.6649 169.121C62.4192 174.804 56.3891 179.951 54.565 183.717C52.5453 187.886 53.6353 189.745 57.6789 189.029C65.44 187.656 51.4696 195.231 38.785 199.274C23.8435 204.035 22.4222 203.178 29.0518 193.403C33.9381 186.2 41.3378 179.892 45.8659 179.072C47.4508 178.784 50.2295 177.684 52.0422 176.625C55.622 174.535 57.063 171.191 54.3839 171.191C53.4884 171.191 52.7554 171.9 52.7554 172.765C52.7554 174.833 50.0245 175.958 38.7798 178.524C16.8455 183.529 11.6797 183.761 10.2272 179.809C9.1889 176.983 12.9467 169.163 17.9355 163.765C21.0764 160.367 22.4295 159.772 30.6326 158.182C35.6835 157.204 40.5138 156.019 41.3679 155.548C42.2219 155.078 44.7551 154.68 46.9964 154.662L51.0722 154.631L48.1611 157.669ZM114.61 155.867C114.254 157.57 119.894 158.568 123.669 157.47C126.687 156.591 147.996 154.816 147.996 155.443C147.996 155.615 146.795 157.017 145.327 158.558C143.86 160.098 142.285 162.29 141.828 163.43C141.015 165.457 137.697 167.554 126.257 173.269C111.41 180.685 109.177 181.501 106.033 180.657L102.964 179.832L107.622 176.91C110.185 175.302 112.514 173.703 112.799 173.355C114.004 171.886 135.722 161.841 138.122 161.642C140.722 161.427 141.953 158.773 139.456 158.769C138.745 158.767 133.736 160.105 128.327 161.741C116.096 165.443 92.3322 171.21 89.358 171.199C88.1374 171.194 86.8827 170.523 86.569 169.705C85.1311 165.958 93.5858 160.244 104.942 157.286C108.296 156.412 111.282 155.458 111.575 155.164C112.612 154.127 114.865 154.649 114.61 155.867ZM223.568 158.211C226.13 159.6 229.204 161.187 230.399 161.738C235.137 163.924 244.933 174.938 246.575 179.923C248.347 185.307 247.598 190.596 244.726 192.98C242.697 194.663 239.162 193.021 232.35 187.234C220.127 176.848 220.863 177.717 222.298 175.369C223.244 173.821 223.314 172.65 222.546 171.216C220.915 168.168 204.789 158.028 200.808 157.547C199.946 157.442 202.967 157.061 207.522 156.701C212.077 156.341 216.502 155.965 217.357 155.867C218.211 155.768 221.006 156.823 223.568 158.211ZM172.149 166.442C174.651 171.906 181.124 195.612 181.124 199.312C181.124 201.642 180.744 201.657 177.205 199.467C170.781 195.493 167.273 189.325 166.188 180.092C165.86 177.304 164.937 173.708 164.137 172.103C163.137 170.1 162.857 167.236 163.243 162.973L163.807 156.761L166.707 158.826C168.301 159.961 170.751 163.388 172.149 166.442ZM201.646 159.591C207.822 162.015 220.07 169.931 220.938 172.061C221.869 174.342 220.446 175.463 218.76 173.777C216.96 171.978 214.871 172.757 215.7 174.918C216.361 176.639 215.292 176.697 207.921 175.338C201.271 174.112 195.383 171.696 190.441 168.169C188.448 166.746 186.634 165.458 186.411 165.307C186.188 165.155 186.569 164.351 187.259 163.52C188.176 162.415 188.216 161.452 187.406 159.941C186.798 158.803 186.3 157.563 186.3 157.186C186.3 155.89 196.144 157.432 201.646 159.591ZM154.621 166.792C155.162 171.036 155.004 172.226 153.899 172.226C153.025 172.226 152.048 174.309 151.347 177.66C149.463 186.668 147.041 194.33 145.668 195.623C144.956 196.295 143.364 197.146 142.131 197.515C140.242 198.08 139.935 197.811 140.185 195.815C141.014 189.214 142.407 184.475 145.563 177.531C147.47 173.333 149.032 169.024 149.032 167.957C149.032 166.89 149.423 166.016 149.9 166.016C150.378 166.016 151.328 164.792 152.01 163.295C153.571 159.869 153.771 160.137 154.621 166.792ZM184.229 166.903C184.229 167.276 185.591 168.183 187.254 168.919C188.918 169.655 193.902 174.249 198.331 179.126C205.914 187.477 206.269 188.077 204.426 189.425C201.773 191.363 201.359 191.261 199.758 188.269C198.09 185.153 196.652 184.914 196.652 187.751C196.652 190.287 195.794 190.346 192.483 188.037C183.398 181.703 177.868 175.007 175.573 167.562C174.988 165.663 175.33 165.517 179.581 165.855C182.137 166.059 184.229 166.529 184.229 166.903ZM146.943 170.156C146.935 170.441 146.478 171.372 145.926 172.226C145.257 173.261 144.918 173.347 144.906 172.485C144.868 169.309 141.553 171.738 137.488 177.919C135.055 181.619 132.735 184.646 132.332 184.646C131.931 184.646 130.533 186.393 129.227 188.527C126.333 193.256 125.838 193.745 120.326 197.327C115.072 200.742 114.869 200.766 114.869 197.999C114.869 194.836 117.487 189.831 121.337 185.635C125.086 181.548 136.005 172.329 139.174 170.575C141.191 169.46 146.969 169.147 146.943 170.156ZM163.019 179.18C165.033 187.81 164.097 202.241 161.524 202.241C159.465 202.241 156.206 196.859 154.915 191.325C153.045 183.313 153.697 178.579 156.835 177.386C158.139 176.89 159.522 175.492 159.908 174.277C160.862 171.269 161.354 172.042 163.019 179.18ZM144.891 175.124C144.891 175.58 144.471 176.395 143.96 176.935C143.448 177.476 141.747 181.824 140.179 186.597C137.675 194.224 137.482 195.699 138.59 198.763C140.059 202.824 139.701 204.32 134.844 214.414C131.062 222.271 123.414 231.222 120.482 231.222C119.007 231.222 118.872 230.416 119.502 225.375C120.914 214.078 130.002 189.753 134.69 184.721C135.745 183.588 136.609 182.358 136.609 181.985C136.609 181.613 137.889 179.764 139.456 177.876C142.126 174.659 144.891 173.259 144.891 175.124ZM193.789 190.08C198.538 192.21 199.268 193.029 202.327 199.654C206.427 208.536 209.48 222.778 208.074 226.473C206.853 229.685 203.139 232.174 198.427 232.939C195.408 233.428 194.3 233.035 191.745 230.562C188.335 227.264 180.564 211.86 179.676 206.64C179.183 203.731 179.399 203.276 181.281 203.276C183.27 203.276 183.406 202.853 182.869 198.36C182.545 195.657 181.335 190.184 180.18 186.199C179.024 182.214 178.065 178.567 178.048 178.093C178.031 177.62 180.398 179.599 183.307 182.492C186.216 185.385 190.932 188.8 193.789 190.08ZM154.774 197.584C155.234 198.722 156.038 199.942 156.562 200.295C158.179 201.382 158.159 208.687 156.522 214.661C152.758 228.403 150.685 234.94 149.677 236.249C149.081 237.021 148.099 238.647 147.493 239.862C146.888 241.077 145.62 242.22 144.678 242.401C141.647 242.984 140.424 228.94 141.969 211.319C142.695 203.05 142.987 202.103 145.886 198.619C146.834 197.48 148.474 193.754 149.532 190.339L151.455 184.129L152.697 189.821C153.38 192.952 154.314 196.445 154.774 197.584ZM169.464 194.232C170.738 196.076 172.708 198.748 173.844 200.171C176.445 203.435 178.97 215.397 179.131 225.229C179.222 230.78 178.691 234.073 177.12 237.69C175.946 240.394 174.74 242.607 174.439 242.607C173.796 242.607 169.178 238.755 166.599 236.068C163.815 233.166 161.192 222.237 161.187 213.509C161.183 206.91 161.568 205.109 163.56 202.415C165.222 200.168 165.888 197.945 165.773 195.028C165.577 189.99 166.408 189.811 169.464 194.232ZM112.048 231.446C106.005 239.009 98.3054 265.262 98.3054 278.303C98.3054 285.076 99.1564 286.396 101.63 283.453C102.364 282.58 103.608 281.154 104.395 280.286C106.685 277.759 114.869 262.982 114.869 261.374C114.869 260.569 113.456 262.559 111.728 265.796C108.188 272.428 101.581 281.937 100.513 281.937C98.8541 281.937 100.753 266.107 103.612 256.092C107.304 243.167 111.241 235.362 114.07 235.362C115.512 235.362 115.958 234.752 115.718 233.114C115.321 230.425 113.519 229.605 112.048 231.446ZM118.517 248.751C116.983 252.765 115.899 256.563 116.108 257.19C116.316 257.816 117.76 254.72 119.315 250.309C122.881 240.197 122.254 238.974 118.517 248.751ZM274.376 304.275C274.425 305.481 274.671 305.727 275.001 304.902C275.3 304.154 275.263 303.261 274.919 302.918C274.576 302.574 274.331 303.185 274.376 304.275Z" fill="black"/>
</svg>
