<svg width="718" height="1016" viewBox="0 0 718 1016" fill="none" xmlns="http://www.w3.org/2000/svg">
<path fill-rule="evenodd" clip-rule="evenodd" d="M228.463 4.33963C226.136 7.0617 223.757 11.2638 223.039 13.9207C220.891 21.8613 219.446 23.7812 213.376 26.7527C206.814 29.9643 206.516 30.6112 206.231 42.2644C206.123 46.6404 205.779 50.2215 205.466 50.2215C205.153 50.2225 204.058 46.6124 203.033 42.2012C200.214 30.072 199.827 29.3527 196.56 30.1724C194.323 30.7334 193.908 30.5574 194.405 29.2616C194.745 28.3787 195.576 23.8661 196.254 19.2344C196.949 14.4796 198.256 9.86138 199.256 8.62662C201.013 6.45828 201.042 6.47691 202.883 10.9947C203.903 13.5005 204.976 18.6931 205.267 22.5361C205.89 30.7675 207.616 31.9536 207.527 24.0886C207.442 16.5941 203.615 6.33304 200.752 5.92421C197.313 5.43258 195.316 9.78479 193.975 20.6958C193.304 26.1524 192.308 30.4674 191.76 30.2852C191.212 30.102 189.946 27.3116 188.947 24.0834C186.727 16.9087 182.355 11.9273 178.278 11.9273C172.429 11.9273 169.257 15.5301 167.798 23.8299C166.494 31.2446 164.151 36.8306 161.323 39.2618C158.683 41.5326 158.552 42.1039 158.56 51.3673C158.566 56.7151 158.884 62.9531 159.27 65.2301L159.969 69.3702L157.928 64.2697C156.805 61.4637 154.23 57.4738 152.206 55.4017C147.805 50.8943 146.89 45.8238 148.024 32.2175C148.639 24.841 149.065 23.3123 150.515 23.3123C152.419 23.3123 153.868 25.0149 156.624 30.4953C157.609 32.4546 159.01 34.2441 159.739 34.4728C160.466 34.7026 159.652 32.497 157.927 29.5731C156.202 26.6492 154.791 23.7957 154.791 23.2337C154.791 21.1481 150.301 20.4516 148.381 22.2401C146.837 23.6798 146.499 26.0054 146.3 36.5977C146.108 46.8401 145.793 49.1337 144.637 48.6907C140.787 47.2138 138.068 46.9964 136.782 48.0625C135.667 48.9888 134.339 48.2426 130.545 44.5559C124.318 38.5052 122.968 38.4918 119.178 44.4368C116.919 47.9807 115.517 60.5726 117.381 60.5726C118.092 60.5726 118.558 58.6558 118.558 55.7246C118.558 50.7618 121.995 41.9425 123.929 41.9425C125.709 41.9425 135.045 52.1176 135.544 54.6016C135.804 55.8933 136.546 61.3747 137.194 66.7827C137.841 72.1906 138.62 77.4857 138.925 78.5486C140.036 82.4227 136.834 79.5785 134.127 74.2865C132.63 71.3605 130.52 67.9895 129.439 66.794C127.316 64.4497 123.666 64.3597 122.917 66.6326C122.586 67.6335 123.059 67.8425 124.566 67.3654C126.077 66.8851 127.151 67.3685 128.344 69.068C135.101 78.6811 138.223 84.2546 138.225 86.7066C138.228 90.1386 138.87 90.267 141.262 87.3131C142.839 85.3652 142.896 84.7142 141.698 82.3119C140.611 80.1342 137.136 56.504 137.208 51.7813C137.254 48.7342 138.897 48.1287 142.393 49.8727C150.732 54.0314 155.81 60.8572 157.862 70.6639C159.25 77.2994 159.535 77.7041 161.803 76.2644C162.863 75.5916 162.812 73.9584 161.544 67.9325C159.916 60.1917 159.497 49.7278 160.596 44.234C161.315 40.6394 164.926 38.9285 165.809 41.7645C166.653 44.4772 168.015 47.2231 171.29 52.8101C172.958 55.6563 174.354 58.8007 174.392 59.7964C174.467 61.7598 176.531 62.3694 176.531 60.4277C176.531 59.2613 173.021 51.1623 171.212 48.1525C170.699 47.2986 169.596 45.1179 168.762 43.3066C167.927 41.4954 166.804 39.741 166.264 39.4077C165.664 39.0372 165.813 37.0955 166.648 34.42C169.091 26.5881 170.699 20.7372 170.572 20.1432C170.309 18.9032 175.092 14.1432 177.218 13.5274C181.138 12.393 186.964 19.7612 188.463 27.7473C188.971 30.4591 188.816 31.5924 187.935 31.5924C187.248 31.5924 185.345 32.5467 183.706 33.7131L180.726 35.8349L181.349 47.427C181.692 53.8037 182.437 59.4859 183.006 60.0551C183.695 60.7444 183.843 56.9015 183.449 48.5551L182.859 36.0202L185.521 34.596C186.985 33.8125 190.522 33.1656 193.381 33.1584C198.452 33.1449 198.611 33.2381 199.908 36.9838C202.703 45.0485 204.275 57.7243 203.346 64.6857C202.932 67.7918 203.163 69.7521 204.048 70.637C205.847 72.4348 206.925 82.0273 206.304 90.7017C205.854 96.9966 205.98 97.7025 207.353 96.5629C208.65 95.4876 208.81 93.2074 208.302 83.0954L207.69 70.9227H210.705C213.915 70.9227 213.664 70.4249 216.845 83.084C217.381 85.2193 218.141 90.3415 218.531 94.4691C219.215 101.681 218.659 103.312 216.314 100.968C214.552 99.2063 210.238 99.0656 208.364 100.707C205.911 102.856 206.122 107.368 209.053 115.428C210.397 119.128 212.808 125.727 214.41 130.092C217.264 137.874 217.288 138.127 215.659 143.03L213.997 148.031L213.897 141.821C213.779 134.473 210.951 126.38 207.185 122.615C204.602 120.033 204.482 119.412 204.478 108.615C204.473 95.6935 202.12 79.3073 199.522 74.1115C198.027 71.1214 196.879 70.3545 192.112 69.1642C189.01 68.389 185.895 67.975 185.191 68.2451C184.487 68.5153 183.685 68.1799 183.409 67.501C183.132 66.821 182.869 67.0807 182.824 68.0764C182.78 69.0721 182.291 69.8877 181.739 69.8877C181.188 69.8877 181.016 70.6132 181.355 71.4992C181.696 72.3862 182.595 72.8737 183.355 72.5818C184.839 72.0125 184.939 72.4462 186.82 87.4828C188.596 101.673 188.028 102.692 185.381 90.0703C184.379 85.2958 181.511 77.8345 179.979 76.0159C179.222 75.1176 178.601 72.9047 178.601 71.0997C178.601 69.2946 178.082 67.8177 177.445 67.8177C176.799 67.8177 176.528 68.7305 176.831 69.8877C177.128 71.0262 176.969 71.9577 176.476 71.9577C174.217 71.9577 166.043 77.8862 165.532 79.8952C165.218 81.1289 165.934 85.891 167.123 90.476C169.469 99.5251 170.019 106.417 167.875 99.9029C166.479 95.6583 162.495 89.3965 158.133 84.5879L155.038 81.1765L149.997 84.5351C147.225 86.3816 144.614 88.3833 144.196 88.9815C142.922 90.8052 143.379 96.1603 144.99 98.2893C145.825 99.3947 146.512 101.025 146.516 101.912C146.52 102.8 147.219 104.86 148.068 106.49C150.899 111.916 149.665 112.685 145.944 107.815C143.925 105.171 141.853 103.008 141.339 103.008C140.825 103.008 139.148 101.844 137.612 100.42C134.466 97.5048 132.996 97.2647 129.693 99.1266C125.929 101.249 124.708 103.316 125.289 106.575C126.326 112.375 127.935 117.411 129.196 118.801C129.893 119.568 131.846 121.7 133.536 123.538L136.61 126.88L132.149 125.307C129.695 124.442 125.917 122.33 123.751 120.615C121.585 118.901 118.86 117.498 117.694 117.498C116.528 117.498 115.287 117.032 114.935 116.463C113.853 114.713 112.347 115.315 112.347 117.498C112.347 119.147 113.037 119.568 115.739 119.568C119.031 119.568 122.114 121.151 126.259 124.966C127.363 125.982 128.631 126.813 129.078 126.813C129.525 126.813 133.223 128.434 137.296 130.416C144.701 134.019 146.93 134.287 145.839 131.444C145.519 130.611 144.906 130.147 144.477 130.412C143.241 131.176 129.102 116.054 128.454 113.275C126.936 106.776 127.304 103.572 129.687 102.515C130.969 101.947 132.016 101.123 132.016 100.684C132.016 99.0407 144.126 108.225 145.271 110.737C145.928 112.179 146.894 113.358 147.42 113.358C147.945 113.358 149.376 115.054 150.6 117.126C152.286 119.984 152.75 122.236 152.519 126.442C152.352 129.493 151.863 131.988 151.433 131.988C150.284 131.988 150.477 142.109 151.64 142.828C152.184 143.164 152.393 144.058 152.103 144.814C151.813 145.57 152.696 147.534 154.064 149.18C155.434 150.824 157.093 153.194 157.751 154.446C158.408 155.696 160.225 157.51 161.786 158.477C163.348 159.444 166.152 161.984 168.017 164.121L171.409 168.007L167.887 167.214C160.87 165.631 149.677 156.122 143.009 146.078C138.926 139.929 137.662 138.738 134.345 137.927C132.239 137.412 132.016 137.732 132.016 141.281C132.016 146.24 135.069 155.838 136.866 156.527C139.967 157.717 137.865 158.898 132.648 158.898C119.241 158.898 91.8949 150.819 89.3762 146.113C85.9858 139.78 88.0646 135.107 93.1092 137.723C94.7097 138.554 97.2481 139.254 98.7481 139.279C100.249 139.304 103.34 140.037 105.618 140.91C111.114 143.014 130.33 144.008 129.713 142.156C129.473 141.436 127.541 140.487 125.421 140.046C117.461 138.393 106.136 130.283 106.136 126.238C106.136 124.176 112.308 114.393 113.608 114.393C114.11 114.393 114.071 113.59 113.521 112.608C112.971 111.625 111.565 110.811 110.395 110.796C108.881 110.778 106.757 108.393 102.998 102.49C98.2833 95.0849 97.7926 93.7788 98.3527 90.1221C99.1032 85.2275 100.135 83.8323 104.002 82.4847C106.779 81.517 107.367 81.9269 115.781 90.6841C120.651 95.7546 125.105 99.9029 125.678 99.9029C127.899 99.9029 127.628 98.1123 124.963 95.1905C122.216 92.1786 115.453 79.3994 115.453 77.2217C115.453 76.6038 114.987 76.0977 114.417 76.0977C111.852 76.0977 113.783 72.8696 117.782 70.4735C120.201 69.0235 121.394 67.8332 120.431 67.827C119.468 67.8218 118.387 68.2906 118.03 68.8692C117.672 69.4478 117.017 69.6972 116.573 69.423C115.602 68.8227 111.312 72.6439 111.312 74.1105C111.312 74.6808 113.175 78.6024 115.453 82.8253C119.767 90.8248 120.722 93.934 118.041 91.2533C117.187 90.3995 116.487 89.3179 116.486 88.8501C116.485 88.3833 114.627 86.2543 112.358 84.119C107.388 79.4429 103.544 79.0682 99.0804 82.8232L96.0069 85.4087L95.4654 83.0819C95.1673 81.8027 95.0006 77.7475 95.0948 74.0722L95.2656 67.3892L101.477 66.0633C104.893 65.3347 109.202 64.9859 111.053 65.2892C112.933 65.5976 114.417 65.3947 114.417 64.8286C114.417 63.2688 109.501 63.0525 100.959 64.2355L93.1952 65.3119L93.0109 72.5156C92.9105 76.4786 93.247 81.3245 93.7594 83.2848C94.2729 85.2451 94.4747 87.0667 94.2087 87.3317C93.9426 87.5977 90.5781 86.6134 86.7312 85.1437C75.4721 80.8443 75.411 80.8381 73.4171 83.88C71.8498 86.2729 71.7856 87.3752 72.8747 93.284C73.9285 99.0004 73.8768 100.308 72.5227 102.241C71.6511 103.485 70.9378 105.004 70.9378 105.617C70.9378 107.871 79.2569 115.293 84.8481 118.029C88.0159 119.578 90.6071 121.065 90.6071 121.333C90.6071 122.214 81.877 120.421 78.4784 118.841C72.9492 116.274 68.3777 116.694 64.0877 120.166C56.8318 126.038 57.9115 130.42 67.8321 135.36C70.3943 136.636 72.2577 138.146 71.973 138.716C71.3995 139.862 68.8042 139.819 54.3741 138.421C44.1036 137.426 39.881 138.198 39.881 141.071C39.881 142.306 39.3696 142.245 37.0341 140.732C31.5557 137.181 29.3651 133.858 29.9542 129.99C30.7834 124.541 32.6209 123.355 40.088 123.451C43.6751 123.498 48.7063 123.822 51.2685 124.172C58.5544 125.167 59.6735 123.622 55.0854 118.899C50.9755 114.669 50.3585 112.296 52.8348 110.242C54.1112 109.183 55.4736 109.351 60.1735 111.149C66.4221 113.54 69.9025 113.96 69.9025 112.323C69.9025 111.754 68.9688 111.288 67.828 111.288C66.6871 111.288 64.0162 110.356 61.8909 109.218C57.0802 106.64 53.1412 106.577 50.9113 109.041C47.5096 112.798 49.3181 118.25 55.0253 121.443C58.6269 123.459 55.6444 123.834 49.7167 122.111C38.6698 118.9 29.301 121.997 26.9996 129.62C25.8661 133.375 30.5474 140.187 35.737 142.337C37.4606 143.05 39.3147 145.109 40.3986 147.513C41.8417 150.712 43.2537 151.94 47.5106 153.698C50.431 154.904 53.753 156.28 54.8918 156.755C56.6133 157.473 56.2655 157.73 52.8213 158.283C48.8864 158.914 45.465 159.888 41.8945 161.392C39.7578 162.292 33.6976 158.137 31.0815 153.977C29.9428 152.167 28.1953 150.406 27.1994 150.065C24.5637 149.161 24.982 147.513 27.8464 147.513C32.4812 147.513 36.7753 146.219 36.7753 144.822C36.7753 143.854 35.9005 143.595 33.9284 143.977C31.3755 144.47 27.3247 144.995 23.5068 145.325C21.4198 145.505 23.0751 149.462 26.8133 153.225C28.5908 155.017 31.2109 157.795 32.6344 159.4C34.0578 161.006 36.562 162.883 38.1998 163.571C43.2631 165.701 39.3106 166.468 30.4097 165.085C22.0492 163.784 21.8628 163.809 15.0355 167.141C14.1815 167.558 12.8978 169.018 12.1824 170.385C11.0002 172.645 11.1844 173.13 14.2135 175.717C16.0459 177.282 18.5232 178.564 19.7189 178.564C20.9146 178.564 23.9602 179.574 26.4872 180.807C29.0142 182.041 33.1075 183.174 35.5837 183.326C38.061 183.476 40.3137 183.826 40.5911 184.104C41.6481 185.16 35.6282 188.095 33.4087 187.606C26.3402 186.048 18.7116 183.627 18.1847 182.774C17.8534 182.238 16.3016 181.311 14.7374 180.716C12.374 179.819 11.5458 179.983 9.84074 181.687C8.71234 182.815 7.78892 184.38 7.78892 185.165C7.78892 185.948 7.07357 187.184 6.1988 187.91C4.69254 189.16 4.64803 193.591 6.11909 195.969C6.94209 197.3 13.5375 200.355 19.1764 202.016L23.8349 203.388L15.5531 203.058C3.47927 202.576 3.648 202.481 3.648 209.669C3.648 215.748 3.67078 215.793 7.74751 217.873C10.0022 219.023 13.2404 219.964 14.9434 219.964C19.3762 219.964 28.4935 222.049 28.4935 223.064C28.4935 224.466 20.6744 225.36 16.9424 224.383C11.6928 223.01 2.75046 223.967 1.70178 226.017C0.351839 228.653 -0.518779 235.86 0.345636 237.248C1.77943 239.553 5.70088 240.203 13.7518 239.471C18.1588 239.069 24.5596 238.718 27.9759 238.69L34.1872 238.638L26.9406 243.16C22.955 245.647 17.9548 249.343 15.8285 251.372C13.7021 253.401 10.0509 255.634 7.71439 256.334C3.5797 257.572 3.48238 257.704 4.08695 261.297C4.42858 263.326 4.73086 265.802 4.75985 266.798C4.80333 268.311 5.81059 268.609 10.8842 268.609C17.9714 268.609 32.6861 266.705 34.1872 265.592C34.7566 265.171 37.3871 264.026 40.0331 263.05C42.6792 262.073 46.3273 259.857 48.14 258.126C49.9527 256.393 51.5677 255.132 51.7291 255.324C51.8906 255.515 52.5687 256.719 53.2354 258C54.6526 260.723 56.8504 260.919 61.9789 258.777C64.0225 257.923 66.9304 257.224 68.4408 257.224H71.1873L67.1799 262.134C64.9769 264.835 60.1994 270.071 56.5636 273.77C46.5861 283.92 46.6441 283.775 49.8305 290.417C51.314 293.507 52.6194 296.14 52.7323 296.267C52.9435 296.505 63.9707 293.047 69.2835 291.077C70.9357 290.464 74.2691 288.302 76.6895 286.273C87.6422 277.09 88.7882 276.86 83.4795 284.911C81.3211 288.184 78.2123 293.191 76.5715 296.037C74.9296 298.883 72.5393 302.356 71.2597 303.754C69.0992 306.113 69.0526 306.429 70.6127 308.153C72.5931 310.341 74.7785 310.489 78.8418 308.714C82.8263 306.972 94.1434 299.619 94.5751 298.491C94.7656 297.995 95.4075 297.589 96.0017 297.589C96.8723 297.589 103.306 292.511 115.901 281.879C116.433 281.431 116.572 280.768 116.21 280.406C115.848 280.045 112.858 282.017 109.566 284.788C102.65 290.61 103.846 289.683 93.1952 297.476C83.7932 304.354 77.5022 307.939 74.8354 307.939C72.9203 307.939 72.3095 305.388 73.9783 304.357C74.5114 304.028 75.6098 302.487 76.4193 300.932C81.9412 290.327 84.2084 286.671 90.6889 277.924C94.6963 272.516 98.3082 267.521 98.7161 266.825C99.2161 265.972 100.44 265.821 102.461 266.362C105.211 267.097 106.068 266.56 112.59 260.013C116.51 256.079 119.53 252.676 119.304 252.45C119.077 252.223 115.548 254.845 111.461 258.275L104.03 264.513L98.3423 261.823C94.69 260.095 92.9146 258.699 93.3805 257.92C93.779 257.252 97.3951 252.751 101.415 247.915C105.435 243.081 109.069 238.656 109.493 238.083C112.146 234.489 122.579 221.563 124.595 219.372C125.351 218.549 126.367 218.119 126.85 218.418C127.87 219.048 143.048 212.134 145.739 209.813C149.428 206.634 148.535 209.674 142.263 221.657C136.484 232.696 131.417 240.328 126.876 244.827C126.003 245.693 124.123 247.755 122.699 249.409L120.111 252.416L123.425 250.128C125.248 248.87 128.924 245.282 131.595 242.156C134.267 239.031 136.721 236.743 137.051 237.072C137.381 237.402 137.188 237.996 136.624 238.391C136.059 238.787 135.041 240.276 134.361 241.699C133.682 243.122 131.709 246.758 129.978 249.78C126.788 255.349 126.856 258.432 130.193 259.552C132.313 260.264 129.282 265.22 122.297 272.462C118.881 276.004 116.447 279.264 116.889 279.705C117.33 280.147 118.353 279.605 119.161 278.501C119.968 277.397 120.629 276.854 120.629 277.294C120.629 278.673 113.258 287.418 104.737 296.15C94.5037 306.636 94.0679 307.377 96.7802 309.699C97.9396 310.693 98.8889 312.063 98.8889 312.745C98.8889 313.427 100.252 314.284 101.919 314.65C105.481 315.433 108.763 313.897 115.564 308.267C118.188 306.094 122.124 302.92 124.31 301.212C128.929 297.605 131.375 295.41 139.522 287.566C145.647 281.669 146.762 281.207 143.738 285.82C142.109 288.307 142.119 288.953 143.906 296.393C145.765 304.135 148.327 309.77 151.608 313.333C152.504 314.307 154.17 316.339 155.309 317.85C156.448 319.36 158.195 321.344 159.191 322.26C160.187 323.176 161.003 324.359 161.003 324.891C161.003 325.422 162.078 327.298 163.392 329.06C169.068 336.668 170.82 345.661 168.129 353.378C166.517 358.003 167.604 358.424 171.388 354.641C173.165 352.864 175.078 351.41 175.637 351.41C176.196 351.41 176.419 351.031 176.133 350.569C175.848 350.107 176.546 348.36 177.686 346.688C178.827 345.015 180.212 342.529 180.766 341.164C182.216 337.588 180.75 315.41 178.944 313.604C178.166 312.827 177.593 311.817 177.671 311.359C177.748 310.902 177.734 310.294 177.64 310.009C177.546 309.725 177.293 304.834 177.08 299.142C176.669 288.174 177.219 286.054 183.641 273.894L186.043 269.345L188.587 272.305C189.987 273.934 192.131 276.912 193.352 278.924C194.574 280.936 195.885 282.815 196.264 283.099C196.842 283.532 198.442 287.475 198.783 289.309C201.584 304.365 207.988 313.462 216.704 314.768C219.34 315.164 222.031 316.001 222.687 316.629C223.341 317.258 225.09 318.806 226.574 320.07C228.058 321.334 229.476 323.43 229.724 324.727C229.973 326.025 230.67 330.114 231.275 333.815C232.12 338.978 233.011 341.096 235.111 342.924C238.527 345.896 239.08 345.391 237.738 340.531C236.882 337.427 236.871 330.713 237.709 319.842C237.753 319.273 237.711 313.579 237.615 307.19C237.465 297.28 237.851 294.181 240.233 286.085C242.766 277.475 242.9 276.201 241.683 272.343C240.945 270.005 240.163 266.788 239.947 265.193C239.498 261.889 241.578 256.477 243.595 255.703C246.013 254.775 255.082 260.407 262.857 267.665C267.034 271.566 270.824 274.423 271.278 274.013C271.733 273.602 271.809 273.783 271.45 274.415C271.09 275.045 273.004 277.839 275.704 280.625C278.404 283.409 281.838 287.317 283.336 289.309C284.835 291.302 287.783 294.786 289.886 297.052C291.99 299.318 294.691 302.578 295.889 304.297C297.086 306.015 298.672 307.795 299.412 308.25C300.153 308.705 300.758 309.753 300.758 310.579C300.758 311.404 301.193 312.079 301.724 312.079C302.255 312.079 303.001 313.061 303.382 314.26C303.762 315.46 304.71 317.206 305.487 318.142C310.296 323.929 322.183 343.221 325.54 350.685C326.767 353.417 328.45 355.912 329.277 356.23C330.103 356.546 330.78 357.484 330.78 358.312C330.78 359.669 334.596 368.836 337.055 373.389C337.59 374.378 338.026 375.892 338.026 376.753C338.026 377.615 338.492 378.32 339.062 378.32C339.631 378.32 340.097 378.999 340.097 379.828C340.097 382.097 349.578 403.16 350.598 403.16C351.086 403.16 351.484 403.815 351.484 404.615C351.484 406.855 363.905 431.229 364.774 430.692C365.194 430.433 365.631 431.334 365.744 432.696C365.856 434.058 369.727 442.99 374.345 452.546C378.964 462.101 384.37 473.411 386.36 477.681C392.072 489.938 402.293 510.97 404.47 514.941C405.562 516.933 407.311 520.427 408.358 522.704C409.403 524.981 412.688 531.967 415.657 538.229C418.625 544.49 421.472 550.69 421.982 552.005C422.494 553.32 423.378 554.108 423.948 553.755C424.519 553.403 424.986 553.568 424.986 554.124C424.986 554.679 424.404 555.368 423.691 555.656C422.656 556.073 422.656 556.194 423.691 556.26C424.404 556.304 424.986 557.231 424.986 558.319C424.986 559.407 427.015 564.646 429.495 569.963C431.974 575.279 435.206 582.423 436.676 585.839C449.595 615.855 452.421 621.896 455.562 626.204C456.807 627.912 459.34 632.337 461.191 636.037C463.041 639.737 465.476 644.06 466.603 645.643C467.73 647.226 470.282 651.648 472.275 655.469C477.008 664.549 483.067 674.332 483.957 674.332C484.344 674.332 485.737 676.485 487.052 679.116C492.078 689.177 507.379 705.283 520.803 714.642C523.618 716.604 526.293 718.816 526.748 719.558C527.204 720.3 527.977 720.908 528.467 720.908C529.928 720.908 537.825 726.373 537.825 727.384C537.825 728.411 531.71 727.366 530.061 726.057C525.753 722.636 502.023 716.995 482.441 714.738C476.747 714.081 468.919 713.058 465.046 712.465C449.726 710.12 432.605 713.527 413.598 722.704C394.854 731.754 387.733 738.057 382.885 749.888C379.795 757.429 377.459 767.349 376.871 775.428C376.575 779.5 377.257 784.97 380.077 801.121C380.972 806.244 382.064 812.499 382.504 815.023C383.441 820.387 382.194 825.79 379.368 828.616C377.164 830.819 376.771 833.234 378.446 834.269C379.04 834.636 380.088 834.491 380.775 833.947C383.427 831.846 389.222 831.609 392.598 833.464C397.905 836.378 409.457 846.392 409.457 848.078C409.457 848.485 411.088 850.545 413.08 852.658C415.073 854.77 416.704 856.963 416.704 857.531C416.704 858.099 417.096 858.564 417.575 858.564C418.055 858.564 419.282 861.325 420.305 864.701C422.594 872.259 421.859 881.109 418.292 888.943C411.517 903.82 410.673 907.719 410.193 926.357C409.734 944.171 410.165 949.155 412.047 947.802C412.618 947.392 414.597 945.294 416.447 943.139C418.296 940.985 419.809 939.484 419.809 939.802C419.809 940.121 421.09 939.75 422.656 938.978C424.223 938.206 427.832 937.668 430.679 937.782C433.526 937.896 437.79 938.05 440.155 938.125C444.176 938.251 444.702 938.635 448.307 944.065C450.427 947.256 454.254 951.798 456.809 954.156C459.366 956.513 461.987 959.083 462.633 959.867C466.666 964.76 475.278 972.414 476.751 972.414C477.713 972.414 479.99 973.158 481.812 974.067C483.741 975.029 486.187 975.453 487.665 975.083C489.077 974.728 490.205 974.898 490.205 975.468C490.205 976.03 490.98 976.192 491.927 975.829C493.021 975.409 493.397 975.576 492.959 976.286C492.542 976.96 495.361 978.935 500.035 981.243C504.308 983.354 507.804 985.492 507.804 985.993C507.804 986.495 508.48 986.904 509.305 986.904C510.131 986.904 511.179 987.512 511.634 988.255C512.09 988.998 514.255 990.951 516.446 992.596C521.404 996.316 522.699 999.09 523.939 1008.64C524.855 1015.7 525.084 1016.13 527.312 1014.94C530.561 1013.2 531.967 1005.71 531.167 994.411C530.475 984.626 531.75 971.201 533.596 968.832C534.057 968.24 534.762 966.36 535.163 964.652C535.564 962.944 537.814 958.582 540.164 954.958C544.824 947.771 548.078 939.508 548.166 934.637C548.197 932.929 549.144 929.501 550.271 927.02C552.753 921.55 552.747 921.699 550.501 921.699C548.356 921.699 546.84 925.055 545.123 933.602C543.948 939.449 536.185 956.889 534.758 956.889C534.397 956.889 533.502 958.636 532.771 960.771C532.04 962.906 530.672 966.282 529.73 968.274C528.323 971.25 528.041 975.081 528.156 989.747C528.29 1006.79 527.495 1011.52 526.032 1002.38C525.259 997.542 522.943 993.521 519.208 990.527C517.787 989.389 515.88 987.758 514.971 986.904C511.336 983.494 495.9 975.345 494.923 976.321C494.606 976.639 494.346 976.374 494.346 975.734C494.346 975.092 492.365 974.035 489.946 973.383C485.056 972.068 478.249 969.608 475.41 968.133C474.391 967.603 472.993 967.493 472.305 967.887C471.616 968.283 471.38 968.243 471.78 967.799C472.181 967.356 471.948 966.415 471.262 965.71C470.578 965.004 468.154 962.234 465.877 959.555C463.599 956.877 460.016 953.034 457.912 951.017C455.809 948.999 452.585 944.869 450.747 941.837C446.698 935.158 445.259 934.578 431.413 934.043C427.526 933.891 424.417 934.273 423.701 934.989C423.041 935.649 421.662 936.189 420.638 936.189C419.613 936.189 418.77 936.539 418.766 936.965C418.757 937.88 413.423 940.5 412.812 939.889C412.582 939.658 412.849 931.863 413.404 922.563C414.382 906.198 414.55 905.325 418.666 895.306C423.199 884.273 425.464 873.827 424.334 869.172C423.085 864.027 418.838 855.29 415.934 851.884C414.364 850.044 412.382 847.486 411.528 846.197C409.749 843.515 405.015 838.75 399.646 834.241C397.614 832.533 395.28 830.537 394.459 829.805C393.639 829.073 390.87 828.432 388.305 828.381C383.948 828.294 383.717 828.149 384.771 826.181C385.947 823.983 385.437 813.746 383.676 804.226C383.15 801.379 382.116 795.79 381.379 791.806C377.468 770.664 383.772 746.313 395.444 737.468C398.074 735.475 400.803 733.379 401.509 732.81C402.899 731.689 415.284 725.511 423.117 722.031C425.79 720.844 428.842 719.872 429.898 719.872C430.954 719.872 432.269 719.421 432.821 718.87C434.927 716.764 455.123 714.798 465.359 715.701C486.276 717.549 514.874 723.198 525.074 727.498C532.225 730.513 531.05 731.361 517.638 732.862C514.791 733.181 509.201 734.091 505.216 734.884C501.23 735.678 494.126 736.897 489.428 737.594C484.731 738.29 480.888 739.191 480.888 739.596C480.888 739.999 478.374 741.559 475.301 743.063C472.228 744.566 469.143 746.484 468.445 747.324C467.748 748.164 466.534 748.853 465.751 748.853C464.966 748.853 464.324 749.342 464.324 749.942C464.324 750.541 462.882 751.533 461.119 752.147C459.087 752.855 458.362 753.542 459.141 754.023C459.998 754.553 459.454 755.837 457.335 758.286C451.99 764.463 445.882 778.297 445.046 786.113C444.894 787.536 444.347 791.145 443.832 794.134C442.37 802.604 443.471 807.257 452.557 831.016C453.62 833.796 455.538 836.76 456.819 837.604C458.099 838.446 459.15 839.665 459.152 840.311C459.155 840.957 461.231 843.815 463.765 846.661C470.345 854.049 470.536 854.28 470.536 854.862C470.536 855.152 472.16 857.152 474.144 859.306C480.743 866.465 481.879 867.896 483.594 871.212C484.531 873.024 485.936 875.143 486.716 875.924C487.496 876.703 488.134 877.805 488.134 878.371C488.134 878.939 489.26 880.884 490.637 882.697C492.012 884.509 493.925 887.97 494.889 890.39C495.853 892.81 497.056 894.789 497.564 894.789C498.072 894.789 498.402 895.139 498.298 895.565C498.114 896.324 499.466 901.294 502.216 909.975C503.036 912.567 503.343 916.334 502.981 919.391C502.489 923.539 502.695 924.608 504.088 925.143C506.55 926.087 507.804 922.014 507.804 913.072C507.804 901.839 502.858 885.904 497.668 880.411C495.009 877.598 492.275 874.129 492.275 873.567C492.275 873.294 488.637 868.526 484.191 862.971C479.745 857.416 474.437 850.309 472.396 847.178C465.893 837.202 460.054 827.298 460.445 826.907C460.653 826.699 462.651 827.507 464.884 828.704C467.117 829.9 470.612 831.468 472.651 832.186C474.689 832.906 478.528 834.483 481.181 835.691C483.834 836.9 490.094 838.848 495.092 840.02C506.099 842.603 509.091 844.544 523.271 858.301C529.283 864.134 534.551 868.907 534.978 868.909C536.087 868.916 535.941 867.084 534.8 866.671C534.275 866.481 529.259 861.901 523.652 856.494C509.395 842.741 507.484 841.377 499.691 839.393C485.544 835.791 481.923 834.681 481.923 833.947C481.923 833.533 483.437 832.556 485.288 831.778C491.826 829.025 499.705 824.909 501.414 823.354C502.367 822.487 504.712 820.8 506.626 819.604C508.717 818.296 509.652 817.148 508.968 816.725C508.342 816.339 506.777 817.019 505.488 818.239C500.899 822.579 484.022 829.564 480.123 828.736C479.418 828.586 477.879 828.978 476.703 829.606C474.013 831.047 466.439 827.659 463.231 823.581C461.673 821.602 460.875 821.218 460.288 822.169C459.246 823.854 457.936 822.322 455.563 816.646C451.654 807.293 452.628 790.247 457.618 780.706C461.644 773.009 472.691 761.273 475.91 761.273C476.358 761.273 477.577 760.542 478.622 759.648C481.163 757.472 493.844 752.856 499.004 752.229C501.282 751.952 503.683 751.291 504.342 750.76C505 750.229 511.289 749.529 518.317 749.203C530.105 748.657 530.936 748.738 529.026 750.251C527.887 751.154 526.592 751.907 526.149 751.925C524.668 751.986 515.152 759.994 515.796 760.638C516.144 760.987 515.865 761.273 515.173 761.273C513.359 761.273 508.813 766.729 509.352 768.259C509.604 768.971 509.242 769.553 508.548 769.554C507.776 769.554 507.166 771.464 506.978 774.47C506.809 777.174 506.465 781.016 506.215 783.008C505.643 787.558 506.465 790.253 508.424 790.253C509.257 790.253 510.22 790.985 510.564 791.88C511.589 794.55 521.306 798.17 529.579 798.962C539.505 799.913 541.966 800.535 541.966 802.091C541.966 802.787 538.472 810.284 534.202 818.75C529.836 827.405 526.438 835.465 526.438 837.162C526.438 839.497 527.902 841.611 532.919 846.524C536.484 850.015 541.375 853.757 543.789 854.84C546.202 855.922 548.178 857.417 548.178 858.161C548.178 859.729 559.044 870.641 566.617 876.676C571.021 880.186 574.037 884.474 574.471 887.84C574.528 888.288 575.097 888.987 575.734 889.392C577.098 890.263 582.34 900.381 582.34 902.145C582.34 902.996 580.651 903.184 576.669 902.773C573.55 902.451 569.351 902.642 567.338 903.198C563.608 904.228 554.091 913.041 554.708 914.894C554.888 915.434 554.153 916.76 553.073 917.839C551.993 918.919 551.421 920.111 551.799 920.49C552.178 920.869 553.168 920.248 554.001 919.109C554.833 917.972 555.833 917.041 556.223 917.041C557.296 917.041 563.743 909.661 563.17 909.087C562.443 908.362 564.194 908.134 574.576 907.605C585.519 907.047 587.7 906.543 585.417 905.1C584.578 904.57 584.374 904.129 584.962 904.119C586.509 904.097 586.076 899.536 584.258 896.699C583.403 895.364 582.409 893.473 582.051 892.498C580.91 889.397 571.856 876.185 569.959 874.852C566.58 872.481 556.155 863.269 549.769 857.011C546.282 853.595 540.74 848.77 537.453 846.287C530.533 841.062 529.125 838.362 530.789 833.503C531.429 831.632 532.258 829.868 532.632 829.583C533.004 829.299 534.359 826.737 535.643 823.891C536.926 821.044 538.668 817.551 539.515 816.128C540.361 814.705 542.22 811.014 543.647 807.926C548.052 798.392 545.604 795.428 533.325 795.428C525.123 795.428 517.245 793.386 513.071 790.18L509.8 787.665L510.322 779.636C510.61 775.219 511.372 770.622 512.016 769.419C513.792 766.101 518.346 761.273 519.7 761.273C520.36 761.273 521.971 760.134 523.278 758.742C525.309 756.581 536.684 750.984 547.66 746.745C549.368 746.086 554.027 745.475 558.012 745.389C562.832 745.283 565.184 744.833 565.035 744.043C564.903 743.339 565.641 743.072 566.847 743.387C568.134 743.723 568.888 743.399 568.898 742.505C568.91 741.47 569.124 741.421 569.696 742.32C570.291 743.256 571.709 743.177 575.633 741.985C584.717 739.227 584.347 739.95 582.731 728.153C581.44 718.73 581.996 703.258 583.805 698.266C584.708 695.775 585.446 692.392 585.446 690.748C585.446 689.104 585.871 686.95 586.391 685.962C586.911 684.973 588.534 681.573 589.997 678.405C591.535 675.075 594.956 670.436 598.11 667.406C606.618 659.23 608.053 657.213 611.435 648.678C616.688 635.423 617.487 634.176 622.836 630.885C626.973 628.341 629.051 627.757 633.975 627.757C640.624 627.757 643.382 629.365 656.594 640.953C661.006 644.823 662.164 644.066 662.138 637.331C662.125 634.057 662.388 626.345 662.721 620.193C663.357 608.461 662.159 601.529 657.862 592.049C654.282 584.152 649.457 572.36 647.909 567.726C647.053 565.165 645.227 560.765 643.851 557.95C640.574 551.247 640.476 545.425 643.628 544.602C645.765 544.043 653.413 545.249 656.876 546.692C660.885 548.361 661.56 547.751 661.111 542.859C660.969 541.311 670.51 535.591 673.181 535.625C673.893 535.634 674.475 535.175 674.475 534.606C674.475 533.028 678.447 533.358 687.269 535.668C693.788 537.375 696.037 537.56 699.369 536.663C703.089 535.662 703.462 535.25 703.462 532.137C703.462 530.194 702.563 527.677 701.383 526.317C699.437 524.073 695.324 512.605 693.633 504.708C693.22 502.78 691.774 498.821 690.418 495.91C689.063 493 687.949 489.501 687.944 488.136C687.918 481.719 676.458 454.38 673.222 453.013C672.772 452.823 672.405 452.191 672.405 451.607C672.405 451.023 669.842 447.983 666.709 444.85C660.469 438.612 657.048 432.114 656.169 424.831C655.53 419.534 657.784 415.893 660.892 417.205C661.816 417.594 664.551 418.022 666.97 418.153C670.594 418.351 671.37 418.067 671.37 416.543C671.37 413.542 674.125 411.628 681.505 409.502C689.774 407.119 693.333 406.479 702.924 405.652C706.899 405.309 711.865 404.155 713.958 403.087C718.191 400.928 718.104 401.717 715.87 385.714C715.033 379.717 710.75 367.422 705.381 355.605C704.231 353.073 702.217 348.183 700.907 344.737C696.689 333.648 687.966 316.379 682.842 308.97C679.582 304.259 668.418 293.338 659.789 286.42C656.031 283.407 651.824 279.215 650.441 277.104C641.99 264.211 638.241 258.189 638.236 257.495C638.232 257.062 637.592 255.484 636.813 253.991C636.033 252.497 634.77 248.771 634.005 245.711C633.241 242.65 632.181 239.842 631.65 239.472C631.118 239.1 630.965 236.422 631.308 233.52C631.97 227.939 630.876 226.653 628.8 230.573C628.122 231.854 625.893 234.299 623.846 236.005C616.848 241.844 611.214 247.925 611.849 248.952C612.198 249.516 611.807 249.979 610.98 249.979C610.152 249.979 606.748 253.589 603.413 258C600.079 262.412 597.002 266.177 596.574 266.366C596.147 266.557 595.798 267.188 595.798 267.77C595.798 268.809 594.81 270.114 586.167 280.512C579.882 288.072 564.72 302.635 561.566 304.141C560.75 304.53 558.219 306.017 555.942 307.446C551.37 310.314 541.19 315.185 539.767 315.185C539.268 315.185 538.86 315.65 538.86 316.22C538.86 316.789 538.315 317.255 537.649 317.255C535.107 317.255 503.761 332.089 502.628 333.829C502.343 334.266 500.124 335.656 497.698 336.918C495.272 338.179 492.41 340.326 491.337 341.688C490.266 343.05 488.839 344.165 488.169 344.165C485.978 344.165 476.529 354.526 477.179 356.216C477.511 357.082 477.782 357.919 477.782 358.078C477.782 358.238 478.942 358.147 480.358 357.875C481.775 357.604 482.727 357.048 482.474 356.639C482.221 356.23 482.671 355.894 483.476 355.894C484.28 355.894 484.697 356.283 484.404 356.758C484.111 357.232 485.125 357.62 486.657 357.62C489.321 357.62 495.402 360.707 498.301 363.533C499.054 364.266 500.134 364.865 500.7 364.865C501.267 364.865 503.214 365.973 505.026 367.328C508.745 370.108 515.446 371.364 525.545 371.173C533.772 371.018 540.53 373.932 546.198 380.077C550.179 384.392 554.389 392.31 554.389 395.481C554.389 398.526 550.517 405.127 546.269 409.325C544.187 411.382 538.064 416.542 532.663 420.791C527.261 425.041 522.076 429.216 521.141 430.07C520.205 430.924 516.427 434.185 512.746 437.315C509.065 440.446 505.044 444.405 503.81 446.113C502.575 447.821 499.358 451.856 496.662 455.081C493.965 458.305 491.001 462.497 490.075 464.396C485.873 473.018 483.832 477.67 481.295 484.408C479.794 488.393 477.872 493.163 477.024 495.009C474.639 500.202 476.731 503.423 480.222 499.933C482.555 497.602 488.743 497.939 490.534 500.496C491.35 501.66 493.687 503.464 495.73 504.505C498.788 506.064 500.226 506.217 503.882 505.372C506.323 504.808 511.532 504.128 515.455 503.861C522.077 503.41 522.529 503.511 521.767 505.276C521.315 506.322 520.725 508.762 520.455 510.697C519.992 514.011 520.107 514.17 522.424 513.424C528.178 511.572 530.989 512.158 534.475 515.937C539.382 521.253 542.274 527.132 542.987 533.242C543.331 536.193 543.312 538.421 542.945 538.195C542.578 537.968 541.719 538.827 541.036 540.104C540.351 541.381 537.742 543.811 535.238 545.503C532.734 547.195 530.117 549.627 529.421 550.908C528.727 552.188 527.56 553.236 526.827 553.236C523.292 553.236 516.375 562.94 508.472 578.987C501.737 592.664 501.671 595.612 508.224 589.978C511.747 586.948 516.393 586.617 519.111 589.203C520.159 590.198 522.054 594.507 523.32 598.777C524.587 603.046 526.234 607.936 526.979 609.644C527.726 611.352 528.621 614.052 528.971 615.644C529.682 618.879 537.873 640.347 541.002 647.176C544.697 655.239 548.035 667.147 551.293 683.887C552.481 689.997 554.426 697.915 555.614 701.482C559.144 712.085 559.58 714.697 557.822 714.697C555.305 714.697 537.793 700.005 524.15 686.447C520.257 682.579 516.695 679.648 516.235 679.933C515.773 680.218 515.395 679.809 515.395 679.025C515.395 678.24 514.124 676.048 512.569 674.154C500.978 660.03 497.201 655.122 492.729 648.377C489.926 644.152 487.047 640.322 486.331 639.866C485.615 639.411 485.029 638.633 485.029 638.136C485.029 637.639 482.696 633.587 479.846 629.131C476.996 624.676 474.094 619.865 473.397 618.442C472.7 617.019 471.841 615.621 471.486 615.337C471.132 615.052 469.975 612.956 468.916 610.679C467.857 608.402 466.391 605.923 465.658 605.172C464.925 604.419 464.319 603.255 464.312 602.584C464.306 601.913 461.993 597.638 459.174 593.084C456.354 588.53 453.132 582.841 452.013 580.44C450.894 578.04 449.47 575.479 448.846 574.748C448.224 574.017 444.541 567.131 440.661 559.446C436.782 551.761 431.668 542.055 429.296 537.877C426.926 533.699 424.986 529.418 424.986 528.363C424.986 527.307 423.937 524.679 422.656 522.521C419.209 516.716 411.598 502 402.677 483.891C390.51 459.192 387.82 453.932 383.35 446.113C381.072 442.128 376.447 433.512 373.071 426.965C369.694 420.419 363.224 407.894 358.691 399.132C354.157 390.371 350.449 382.897 350.449 382.523C350.449 382.149 348.073 377.441 345.17 372.06C342.266 366.68 337.32 357.387 334.181 351.41C331.041 345.433 328.059 340.099 327.555 339.559C327.051 339.018 326.639 337.776 326.639 336.799C326.639 335.822 326.243 334.867 325.761 334.677C325.278 334.487 322.408 329.675 319.384 323.982C316.359 318.29 313.511 312.933 313.055 312.079C302.385 292.126 293.583 268.547 288.91 247.392C288.155 243.976 286.553 237.498 285.349 232.995C284.145 228.492 283.163 224.3 283.167 223.679C283.178 221.861 289.821 217.859 293.938 217.191C297.1 216.678 298.37 217.08 301.574 219.615C311.013 227.079 316.213 229.441 323.612 229.624C329.278 229.763 331.179 229.382 333.512 227.644C336.402 225.487 339.091 221.708 341.183 216.859C342.471 213.876 348.168 204.777 350.417 202.11C351.257 201.114 352.955 200.299 354.191 200.299C356.559 200.299 357.974 198.244 356.823 196.478C355.372 194.249 350.885 192.787 345.642 192.834C341.19 192.873 338.191 193.867 329.614 198.144C316.907 204.479 311.655 205.134 310.638 200.508C310.289 198.915 308.83 196.348 307.398 194.803C305.604 192.869 305.213 191.879 306.14 191.624C306.881 191.42 311.913 190.22 317.322 188.957C329.902 186.02 340.097 180.651 340.097 176.964C340.097 175.393 331.887 174.482 315.965 174.286C309.24 174.203 304.116 173.791 304.577 173.37C305.039 172.949 310.004 171.147 315.612 169.363C325.401 166.251 339.667 159.432 343.461 156.052C350.437 149.836 335.414 148.633 310.387 153.402C305.67 154.302 301.071 154.66 300.035 154.21C298.469 153.528 298.668 153.278 301.276 152.648C302.984 152.236 306.524 151.843 309.145 151.775C311.764 151.708 315.258 151.223 316.909 150.697C318.559 150.171 323.322 148.724 327.492 147.482C331.663 146.24 337.952 143.408 341.467 141.191C344.984 138.973 349.026 136.684 350.449 136.104C358.411 132.862 359.832 131.16 360.349 124.26C360.84 117.711 359.944 116.991 353.957 119.112C340.296 123.95 337.372 124.743 333.207 124.743C330.733 124.743 328.709 124.34 328.709 123.848C328.709 123.355 332.155 121.451 336.367 119.615C346.381 115.249 358.731 106.103 358.731 103.051C358.731 102.458 359.194 101.973 359.758 101.973C362.8 101.973 369.433 93.4796 371.199 87.3244C371.949 84.7131 371.787 83.5798 370.459 82.1122C367.169 78.4772 358.664 80.185 342.151 87.7954C335.269 90.9677 330.78 92.189 330.78 90.8911C330.78 90.3643 332.527 88.9442 334.662 87.7353C339.118 85.211 342.442 82.7828 345.987 79.4615C347.354 78.1802 348.72 77.1327 349.022 77.1327C350.61 77.1327 362.004 67.3561 360.861 66.9752C360.128 66.7309 359.231 66.9379 358.87 67.4358C358.508 67.9336 356.27 69.6579 353.895 71.2684C351.521 72.8789 347.561 76.016 345.096 78.2392C342.631 80.4634 338.168 83.5301 335.177 85.0537C330.126 87.6277 328.385 87.6939 328.062 85.3269C327.991 84.8052 327.875 83.9627 327.804 83.4546C327.732 82.9474 326.526 82.2436 325.122 81.8917C323.233 81.4177 320.805 82.3305 315.787 85.4024C312.056 87.6846 308.546 89.5528 307.986 89.5528C307.427 89.5528 306.97 90.0186 306.97 90.5878C306.97 91.1571 306.415 91.6228 305.736 91.6228C305.058 91.6228 301.294 93.5283 297.375 95.856C293.455 98.1848 290.028 99.8708 289.76 99.6027C289.493 99.3347 291.741 97.3164 294.757 95.117C302.536 89.4442 312.83 79.4108 318.875 71.6099C322.828 66.5084 324.86 64.7685 327.477 64.2448C331.744 63.393 343.249 57.3693 353.866 50.4306C358.308 47.5274 362.541 45.3828 363.274 45.6633C364.464 46.1208 365.377 53.5046 365.212 61.3416C365.185 62.6188 365.579 63.4065 366.087 63.0918C367.143 62.4398 367.159 50.9657 366.11 47.2158C364.656 42.0201 362.899 42.3368 350.922 49.9586C339.506 57.2233 333.088 60.7879 327.898 62.7472C324.79 63.9198 324.954 63.718 332.011 57.6912C334.681 55.411 336.582 53.2644 336.238 52.9198C335.893 52.5741 336.316 52.2926 337.179 52.2926C339.416 52.2926 349.56 41.8535 352.287 36.7467C354.879 31.8905 354.712 31.3833 348.771 26.0831C343.659 21.5238 342.079 21.3738 338.895 25.1443C337.564 26.7206 333.446 30.5988 329.745 33.7628C318.4 43.4608 308.508 53.4466 308.809 54.8977C308.967 55.6563 308.117 56.9615 306.921 57.7988C305.468 58.8172 305.137 59.5624 305.924 60.0489C306.571 60.4484 308.047 59.9185 309.204 58.8721C311.258 57.0132 311.355 57.0298 313.269 59.5469C314.347 60.9649 315.911 62.8424 316.745 63.719C318.618 65.6876 318.491 69.8742 316.58 69.1404C314.901 68.4967 311.951 70.8057 312.767 72.1254C313.12 72.6967 313.964 72.5973 314.826 71.8811C317.654 69.5337 316.238 72.1616 311.887 77.3325C308.086 81.8503 294.014 93.8667 284.85 100.42C283.259 101.559 280.992 103.305 279.814 104.3C278.635 105.294 275.428 107.157 272.687 108.44C269.946 109.722 267.446 111.469 267.132 112.323C266.544 113.922 256.114 121.275 250.474 124.067C248.725 124.934 246.688 126.371 245.948 127.262C245.208 128.153 243.612 128.876 242.4 128.868C240.598 128.854 240.48 128.669 241.75 127.848C242.604 127.296 242.92 126.838 242.453 126.829C241.276 126.807 244.476 123.708 245.676 123.708C246.208 123.708 248.834 121.262 251.512 118.274C254.191 115.286 257.239 111.909 258.288 110.77C263.769 104.818 273.526 90.6282 274.37 87.3834C274.763 85.8713 277.593 83.1503 281.584 80.4458C288.593 75.6972 302.931 62.6033 298.831 64.6971C297.485 65.3833 293.646 68.4625 290.298 71.5385C284.562 76.8119 281.7 78.7298 283.883 75.839C284.42 75.1279 286.475 72.4493 288.449 69.8877C290.424 67.326 292.828 63.4841 293.794 61.3489C294.759 59.2147 295.947 57.4676 296.434 57.4676C296.921 57.4676 299.077 53.6256 301.226 48.9288C303.375 44.2319 305.823 38.8996 306.663 37.0779C308.646 32.7827 307.782 31.5924 302.682 31.5924C300.39 31.5924 298.67 31.1722 298.861 30.6578C299.05 30.1444 301.465 27.117 304.228 23.9302C310.143 17.1085 312.916 16.5103 316.339 21.3169C319.378 25.5821 318.646 29.6104 312.688 41.425C307.957 50.8073 307.204 52.9104 308.962 51.8227C310.424 50.9201 318.993 34.4097 319.775 30.988C321.65 22.7928 321.671 22.9004 317.426 18.7573C312.372 13.8224 309.809 14.1567 304.789 20.405C302.857 22.8114 300.009 26.1959 298.459 27.9274L295.643 31.0749L295.483 27.1936C295.395 25.0594 295.244 22.9625 295.147 22.5361C295.05 22.1097 294.603 19.9134 294.152 17.656C292.741 10.5807 290.765 7.78723 287.171 7.78723C280.145 7.78723 271.315 14.5169 270.143 20.7652C269.174 25.9299 267.973 25.1733 267.189 18.9042C266.184 10.8602 265.755 10.4741 258.676 11.2483C243.427 12.9157 241.332 13.7872 241.979 18.1901C242.246 20.0086 241.897 21.3614 241.081 21.675C239.337 22.3436 239.043 21.7184 238.205 15.5498C237.384 9.51466 234.729 0.804035 233.476 0.0298488C232.998 -0.266163 230.742 1.67345 228.463 4.33963ZM235.387 10.8332C236.787 19.31 236.92 25.3824 235.706 25.3824C234.495 25.3824 232.603 29.8112 231.359 35.5503C229.817 42.6629 223.929 60.6958 223.341 60.1068C223.062 59.8284 223.423 56.6758 224.141 53.1009C224.861 49.525 225.384 44.5745 225.306 42.0998C225.166 37.7165 222.563 27.9813 220.973 25.8967C220.537 25.3265 220.842 23.9561 221.649 22.8528C222.456 21.7495 223.116 20.1887 223.116 19.3834C223.116 17.3807 228.063 7.68787 230.188 5.5278C233.197 2.46729 234.169 3.45778 235.387 10.8332ZM291.29 14.5148C292.06 16.7918 292.756 21.5042 292.836 24.9859C292.972 30.9993 292.783 31.5189 289.055 35.336C286.897 37.5468 283.664 42.3824 281.87 46.0825C277.602 54.8863 274.002 60.171 267.662 66.9369L262.471 72.4752L264.958 65.7477C266.327 62.0475 268.372 57.1571 269.504 54.8801C272.958 47.9279 275.974 37.6379 276.63 30.5574L277.255 23.8299L275.067 25.7694C272.744 27.8281 265.408 28.566 262.226 27.0611C260.202 26.1037 258.685 28.9086 255.715 39.0941C253.465 46.8153 248.461 58.6568 247.749 57.9458C247.445 57.6404 247.871 54.2643 248.697 50.443C250.666 41.3318 251.284 28.0247 249.881 24.9456C249.269 23.6032 247.655 21.9989 246.295 21.379C243.119 19.932 243.035 16.3105 246.15 15.142C247.432 14.6618 252.012 13.9424 256.33 13.5429L264.181 12.8184L265.13 19.8761C265.922 25.7715 266.4 26.9349 268.034 26.9349C269.446 26.9349 270.575 25.3927 272.097 21.3903C273.783 16.9512 275.148 15.2476 278.94 12.8443C281.989 10.913 284.785 9.93797 286.783 10.1087C289.394 10.3323 290.112 11.0341 291.29 14.5148ZM244.645 24.9777C247.498 25.548 247.863 26.0789 248.476 30.5357C249.158 35.4913 247.409 48.0873 244.271 60.8314C244.165 61.2588 244.022 62.2731 243.95 63.0866C243.879 63.8991 243.089 65.2964 242.194 66.1917C240.78 67.6044 240.762 68.0123 242.054 69.3039C243.012 70.2624 243.895 70.4342 244.542 69.7873C245.094 69.2356 246.316 69.0804 247.258 69.4416C250.741 70.7778 248.012 92.4716 243.088 102.603C240.981 106.938 235.602 116.325 234.256 118.016C233.803 118.585 232.009 121.073 230.269 123.546C228.528 126.018 226.951 127.881 226.762 127.686C225.801 126.689 225.228 113.223 226.078 111.608C226.62 110.578 228.806 105.078 230.934 99.3854C233.064 93.6928 235.401 87.6381 236.13 85.9303C236.859 84.2225 237.767 81.28 238.148 79.3922C238.529 77.5033 239.471 74.7419 240.242 73.2556C241.579 70.6784 241.426 68.8527 239.872 68.8527C239.077 68.8527 236.925 74.599 235.607 80.2378C234.816 83.6191 231.778 92.0472 226.139 106.493C223.938 112.134 223.697 112.391 222.758 110.115C222.202 108.768 221.647 107.317 221.526 106.889C221.404 106.462 221.205 105.764 221.083 105.337C220.962 104.909 220.936 102.384 221.026 99.7238C221.193 94.8189 217.298 72.1988 215.897 69.9311C215.476 69.2522 213.193 68.4356 210.822 68.1178C206.673 67.561 206.53 67.4192 207.004 64.3152C207.274 62.5412 207.79 55.0767 208.149 47.7271C208.507 40.3775 209.182 33.3623 209.648 32.1368C210.469 29.9799 218.471 26.6026 219.744 27.8767C220.057 28.1893 220.429 29.9095 220.57 31.7011C220.71 33.4916 221.313 35.2574 221.908 35.6258C224.398 37.1638 222.778 57.4665 219.378 67.3343C217.741 72.0881 217.567 74.0277 218.782 74.0277C220.754 74.0277 231.983 45.3901 233.853 35.5906C234.623 31.5531 235.735 29.1301 237.944 26.6761C240.277 24.0855 240.235 24.0958 244.645 24.9777ZM349.155 29.393C351.006 31.108 352.508 32.8862 352.494 33.3457C352.42 35.75 344.124 44.9057 333.582 54.2177C327.047 59.9899 321.394 64.7126 321.021 64.7126C319.739 64.7126 316.55 61.0901 314.796 57.6425C313.605 55.3044 312.533 54.3895 311.463 54.8004C308.878 55.7919 314.514 49.6999 322.651 42.7084C326.786 39.1562 332.971 33.6107 336.397 30.3845C343.193 23.9851 343.308 23.9758 349.155 29.393ZM274.316 34.1302C273.027 42.1681 266.169 59.9827 259.279 73.1925C256.796 77.9514 258.589 79.83 261.848 75.8845C265.154 71.8821 267.349 69.483 268.853 68.2317C273.009 64.7696 277.56 58.4809 281.709 50.4627C284.282 45.4925 288.107 39.6385 290.208 37.4557C293.787 33.738 294.342 33.5154 298.969 33.9419C301.687 34.1923 304.138 34.627 304.418 34.9065C305.404 35.8929 298.804 50.5703 293.107 60.0551C287.369 69.6093 277.269 81.2728 274.735 81.2728C274.049 81.2728 272.727 80.5855 271.799 79.7451C270.87 78.9047 268.971 78.0415 267.577 77.8262C265.493 77.5054 264.421 78.3747 261.543 82.7187C259.617 85.6229 256.773 89.3976 255.223 91.1053C253.672 92.8131 250.892 96.4553 249.048 99.1991C247.202 101.943 245.401 103.897 245.045 103.542C244.689 103.186 244.88 102.571 245.467 102.176C247.176 101.024 250.028 88.7993 250.947 78.6852C251.802 69.276 251.257 66.7827 248.344 66.7827C247.319 66.7827 247.171 66.2641 247.823 64.9714C249.766 61.1181 256.327 43.9959 260.81 31.0749C261.008 30.5056 264.279 30.0171 268.079 29.9902L274.989 29.9405L274.316 34.1302ZM246.738 63.1601C246.09 64.5833 245.178 65.7477 244.712 65.7477C244.246 65.7477 244.395 64.5833 245.044 63.1601C245.692 61.737 246.604 60.5726 247.07 60.5726C247.536 60.5726 247.387 61.737 246.738 63.1601ZM117.005 63.6776C117.357 64.2469 117.85 64.7126 118.102 64.7126C118.353 64.7126 118.558 64.2469 118.558 63.6776C118.558 63.1084 118.064 62.6426 117.462 62.6426C116.859 62.6426 116.653 63.1084 117.005 63.6776ZM176.547 63.8753C176.538 64.8379 176.997 65.9132 177.566 66.2652C178.877 67.0745 178.877 65.7042 177.566 63.6776C176.702 62.3394 176.561 62.3673 176.547 63.8753ZM193.729 71.9577C195.241 71.9577 196.492 72.6895 196.826 73.769C197.134 74.7646 197.813 76.3803 198.335 77.3584C200.373 81.1837 201.451 89.3727 201.861 104.151C202.268 118.831 202.193 119.568 200.294 119.568C197.729 119.568 195.003 125.861 195.645 130.293C195.904 132.079 197.301 136.706 198.747 140.574C200.193 144.442 201.376 148.312 201.376 149.174C201.376 152.202 199.646 149.615 196.774 142.297C189.7 124.27 178.535 122.038 182.196 139.381C182.96 143 184.306 148.038 185.188 150.578C186.07 153.117 186.579 155.407 186.32 155.667C185.62 156.366 185.466 156.072 181.234 145.961C179.09 140.837 176.688 135.293 175.897 133.64C173.98 129.631 174.086 125.283 176.238 119.602C179.159 111.892 179.946 111.795 181.949 118.897L183.743 125.261L183.357 118.216C183.145 114.342 182.722 110.923 182.417 110.618C181.149 109.35 177.817 111.541 176.262 114.664C175.328 116.539 174.564 117.273 174.527 116.331C174.491 115.404 173.799 114.098 172.992 113.427C172.046 112.643 171.509 110.105 171.486 106.314C171.455 101.275 170.717 96.8796 167.514 82.6721C167.131 80.9726 167.947 79.8144 170.977 77.7558C175.463 74.7087 177.566 74.3444 177.566 76.6152C177.566 77.4691 178.004 78.1677 178.539 78.1677C181.473 78.1677 188.153 110.898 185.549 112.508C184.892 112.914 184.755 113.62 185.243 114.078C185.732 114.536 186.34 114.329 186.593 113.617C187.414 111.319 189.929 112.242 190.648 115.107C191.032 116.638 190.88 119.637 190.311 121.774C189.74 123.909 189.629 126.229 190.061 126.93C190.552 127.724 191.314 126.481 192.086 123.627C193.408 118.738 192.812 106.999 190.928 100.827C189.627 96.566 186.951 72.8147 187.638 71.6286C187.907 71.1628 188.818 71.0459 189.661 71.3698C190.503 71.6927 192.335 71.9577 193.729 71.9577ZM270.737 82.3078C272.16 83.4214 272.724 84.3426 271.991 84.355C271.192 84.3685 270.778 85.3859 270.956 86.8929C271.363 90.326 260.86 105.11 248.754 118.144C243.533 123.766 238.763 128.598 238.154 128.883C237.545 129.168 234.876 130.914 232.224 132.764C229.572 134.615 227.136 136.128 226.812 136.128C225.272 136.128 226.527 132.958 229.317 129.8C231.02 127.872 232.682 125.48 233.011 124.484C233.339 123.489 233.973 122.673 234.419 122.673C234.865 122.673 236.682 120.461 238.457 117.757C250.075 100.061 265.187 80.2233 267.02 80.2605C267.641 80.2729 269.313 81.1941 270.737 82.3078ZM368.712 83.8686C370.283 87.961 367.901 92.6713 360.484 100.137C349.504 111.189 345.096 114.152 330.97 119.977C323.085 123.229 322.498 123.267 322.498 120.535C322.498 119.359 322.035 117.533 321.47 116.476C320.578 114.809 319.93 114.696 316.553 115.621C314.414 116.206 310.859 117.553 308.653 118.613C306.447 119.673 300.929 121.048 296.391 121.669C291.853 122.29 286.99 123.236 285.583 123.771C284.176 124.305 282.007 124.706 280.763 124.661C278.884 124.593 279.025 124.39 281.592 123.459C294.556 118.758 325.604 100.38 325.604 97.4085C325.604 95.9978 323.684 96.9955 320.859 99.8739C319.199 101.566 317.459 102.963 316.994 102.979C316.529 102.995 314.665 104.115 312.853 105.47C309.09 108.281 277.709 123.708 275.753 123.708C274.75 123.708 274.74 123.432 275.706 122.466C277.434 120.739 277.256 117.363 275.29 114.557C274.378 113.254 273.795 112.067 273.996 111.918C274.196 111.769 276.223 110.563 278.501 109.239C280.778 107.913 285.05 105.27 287.993 103.366C290.937 101.462 293.646 99.9029 294.014 99.9029C294.381 99.9029 298.626 97.5741 303.446 94.7279C308.266 91.8816 312.598 89.5528 313.073 89.5528C313.548 89.5528 315.11 88.6306 316.542 87.5035C317.976 86.3764 320.363 84.9926 321.848 84.4285C324.254 83.5136 324.716 83.732 326.117 86.4406C327.63 89.3645 327.589 89.5311 325.028 90.8725L322.367 92.2666L324.503 94.791C326.474 97.1198 326.724 97.1757 327.726 95.5041C328.323 94.5084 329.735 93.6929 330.863 93.6929C332.821 93.6929 341.063 90.5785 349.932 86.4861C359.319 82.1556 367.611 80.9995 368.712 83.8686ZM81.2901 85.3082C82.1638 86.3588 88.8659 88.7496 92.4188 89.2785C95.2356 89.6977 95.7853 90.2246 95.7936 92.5119C95.804 95.5259 103.349 108.183 105.135 108.183C105.752 108.183 105.984 108.625 105.65 109.166C105.033 110.164 100.731 108.064 93.368 103.174C90.8359 101.492 87.1598 100.273 83.2073 99.8077C79.8004 99.4061 76.793 98.8565 76.5218 98.5864C75.675 97.7387 74.2867 87.2955 74.7733 85.4335C75.1128 84.1366 75.9814 83.7982 78.0053 84.1729C79.5271 84.4554 81.0054 84.9657 81.2901 85.3082ZM165.531 99.7507C167.749 106.782 168.366 113.177 167.398 119.131C166.928 122.022 166.895 125.282 167.324 126.376C167.906 127.864 168.122 127.425 168.177 124.639C168.263 120.233 170.132 114.393 171.456 114.393C171.97 114.393 172.426 114.742 172.471 115.169C173.491 124.925 173.316 130.953 172.013 130.953C171.212 130.953 169.824 132.494 168.93 134.377C167.49 137.412 167.472 138.516 168.771 144.084C169.577 147.539 171.82 153.101 173.754 156.443C177.133 162.28 179.366 169.317 177.799 169.186C176.824 169.105 165.143 151.061 165.143 149.636C165.143 149.038 164.753 148.548 164.276 148.548C163.8 148.548 162.578 145.871 161.563 142.597C158.906 134.04 157.048 129.918 155.843 129.918C154.181 129.918 154.618 124.768 156.434 122.954C157.933 121.454 158.29 121.573 160.538 124.321C161.891 125.976 163.015 127.649 163.036 128.04C163.175 130.702 165.276 133.942 166.546 133.455C168.716 132.623 164.104 124.343 158.272 118.597C155.706 116.07 152.995 112.809 152.247 111.352C149.973 106.923 145.488 91.7553 146.032 90.3384C146.313 89.6066 147.968 88.377 149.711 87.606C151.454 86.8349 153.118 85.5815 153.41 84.8197C154.278 82.5603 163.812 94.3066 165.531 99.7507ZM86.1339 101.907C87.3741 101.943 89.0046 102.572 89.7572 103.304C90.5087 104.037 93.8121 106.142 97.098 107.982C100.383 109.822 103.993 112.251 105.121 113.379C106.248 114.506 107.849 115.428 108.677 115.428C109.719 115.428 109.415 116.195 107.683 117.927C101.05 124.558 104.09 133.363 114.672 138.17C119.13 140.196 118.79 141.488 114.036 140.59C106.538 139.174 95.687 136.131 92.7894 134.634C91.0761 133.748 89.2354 133.023 88.6992 133.023C87.0304 133.023 84.5138 140.597 85.5397 142.529C87.1039 145.473 86.635 146.764 84.2281 146.135C80.2 145.081 78.1844 147.105 78.1844 152.207V156.828L70.1614 156.839C62.5141 156.849 49.2839 153.547 48.3336 151.392C48.1421 150.96 47.5779 150.857 47.0779 151.166C45.6855 152.027 40.7588 143.952 41.499 142.023C42.4638 139.51 44.7124 139.225 54.3741 140.393C59.2138 140.979 65.7358 141.64 68.8673 141.861C71.9989 142.083 76.3085 142.574 78.4432 142.954C81.0478 143.417 82.3253 143.258 82.3253 142.474C82.3253 141.83 81.8604 141.303 81.2931 141.303C80.7248 141.303 77.4131 139.207 73.9327 136.646C70.4523 134.084 67.1033 131.988 66.4905 131.988C64.5577 131.988 60.5855 127.574 60.5855 125.425C60.5855 124.291 60.8743 123.652 61.2284 124.005C61.5814 124.359 63.5535 123.505 65.6095 122.108C69.8725 119.212 73.3499 118.933 78.9401 121.039C83.17 122.632 92.2479 124.644 94.748 124.542C95.6021 124.508 96.9417 124.655 97.7243 124.87C98.5069 125.085 99.361 124.679 99.6219 123.967C99.9004 123.209 99.2513 122.673 98.0566 122.673C96.1559 122.673 92.9022 120.833 80.5043 112.743C72.1159 107.269 72.1386 100.683 80.5436 101.512C82.3781 101.692 84.8926 101.87 86.1339 101.907ZM189.973 106.433C189.983 108.111 189.551 109.07 188.954 108.7C188.384 108.349 187.926 106.342 187.934 104.241C187.946 101.393 188.205 100.816 188.954 101.973C189.505 102.827 189.964 104.834 189.973 106.433ZM214.81 102.994C217.086 104.213 220.828 110.027 222.028 114.21C222.712 116.596 222.49 117.493 220.932 118.616C218.838 120.124 218.28 122.673 220.043 122.673C220.631 122.673 221.379 121.974 221.706 121.121C222.034 120.267 222.719 119.568 223.227 119.568C224.429 119.568 224.434 130.237 223.232 131.522C222.727 132.063 221.974 133.624 221.56 134.991C220.946 137.015 221.117 137.357 222.48 136.835C224.94 135.89 224.514 137.827 221.85 139.692C218.656 141.928 218.466 141.803 218.393 137.419C218.358 135.286 216.423 129.109 214.093 123.693C209.891 113.922 207.778 105.211 209.095 103.081C209.951 101.696 212.316 101.66 214.81 102.994ZM272.553 114.652C276.086 119.065 273.816 124.179 267.793 125.384C263.576 126.226 261.147 128.883 264.594 128.883C266.947 128.883 266.953 128.913 264.98 130.694C258.884 136.195 245.147 143.258 234.504 146.363C232.511 146.945 228.463 148.14 225.51 149.019C218.335 151.155 217.996 151.066 221.379 147.929C222.974 146.45 224.689 144.165 225.189 142.852C226.142 140.342 241.025 129.918 243.653 129.918C244.904 129.918 259.69 121.061 265.561 116.794C270.84 112.958 271.128 112.869 272.553 114.652ZM320.428 120.994C320.428 122.916 319.729 125.069 318.875 125.778C318.021 126.487 317.322 127.525 317.322 128.085C317.322 128.646 318.021 128.837 318.875 128.508C319.767 128.166 320.428 128.489 320.428 129.267C320.428 131.628 299.461 141.085 284.712 145.377C275.22 148.139 261.198 150.487 257.927 149.862C256.5 149.588 254.533 148.483 253.557 147.405C252.581 146.326 250.689 145.443 249.354 145.443C245.288 145.443 246.589 144.069 254.499 140.009C258.659 137.874 264.518 134.031 267.519 131.471C271.971 127.671 273.723 126.813 277.033 126.813C279.264 126.813 281.438 126.729 281.865 126.627C282.293 126.524 284.272 126.114 286.265 125.716C300.487 122.874 306.861 121.347 309.558 120.134C312.971 118.599 315.84 117.802 318.616 117.618C320.007 117.526 320.428 118.308 320.428 120.994ZM358.418 124.963C358.117 127.213 357.714 129.196 357.524 129.367C357.333 129.54 352.323 132.571 346.388 136.102C335.103 142.817 322.128 147.993 314.216 148.937C298.289 150.838 298.688 150.848 298.688 148.551C298.688 145.3 296.293 145.027 288.699 147.411C284.891 148.605 280.339 149.534 278.586 149.473C275.886 149.378 276.112 149.213 280.054 148.392C282.616 147.858 285.644 146.977 286.783 146.435C287.921 145.891 289.785 145.296 290.924 145.11C292.062 144.925 294.636 144.059 296.644 143.188C298.652 142.316 303.31 140.533 306.997 139.225C312.392 137.31 318.173 134.315 322.45 131.216C322.709 131.029 322.96 129.613 323.007 128.069C323.056 126.524 323.543 125.337 324.09 125.431C334.452 127.215 340.324 126.524 351.157 122.249C354.469 120.942 357.581 120.097 358.073 120.372C358.565 120.647 358.721 122.712 358.418 124.963ZM205.426 124.127C207.931 126.07 211.729 135.979 211.722 140.557C211.715 145.211 209.472 150.579 206.94 151.995C206.095 152.468 204.974 153.982 204.45 155.36C203.926 156.736 202.993 157.863 202.376 157.863C201.759 157.863 201.574 157.346 201.965 156.712C203.271 154.601 202.474 145.561 200.448 139.516C195.928 126.027 198.324 118.621 205.426 124.127ZM192.011 137.087C193.746 139.79 195.165 142.484 195.165 143.073C195.165 143.663 196.101 146.26 197.244 148.844C199.662 154.309 199.06 157.008 194.313 161.974C190.401 166.068 189.483 165.927 189.419 161.227C189.39 159.093 188.279 153.62 186.949 149.066C183.294 136.544 182.731 132.154 184.725 131.705C187.504 131.078 188.74 131.992 192.011 137.087ZM158.839 140.826C161.619 149.087 167.085 159.93 168.472 159.932C168.879 159.933 169.767 160.981 170.444 162.262C172.124 165.434 162.596 156.65 157.804 150.608C154.024 145.844 151.846 137.542 153.348 133.629C154.543 130.516 156.023 132.457 158.839 140.826ZM174.789 135.869C176.155 140.213 178.678 146.583 181.28 152.26C184.143 158.506 184.602 162.748 182.9 167.242L181.944 169.766L180.634 166.661C179.913 164.953 177.499 159.871 175.27 155.368C169.867 144.451 168.64 134.058 172.754 134.058C173.56 134.058 174.475 134.874 174.789 135.869ZM137.192 141.735C137.192 142.541 137.541 143.356 137.969 143.546C138.396 143.735 140.337 146.219 142.283 149.066C147.027 156.005 155.695 164.159 161.308 166.962C163.827 168.22 167.933 169.278 170.433 169.314C174.332 169.371 174.633 169.518 172.551 170.352C169.491 171.577 156.388 168.652 152.84 165.952C151.482 164.919 149.704 164.073 148.888 164.073C147.876 164.073 147.614 163.416 148.062 162.003C148.579 160.375 148.249 159.933 146.511 159.933C142.808 159.933 140.596 158.12 137.364 152.436C134.687 147.726 133.549 143.907 133.972 141.044C134.184 139.608 137.192 140.253 137.192 141.735ZM222.081 144.289C222.081 145.163 217.585 148.548 216.423 148.548C216.119 148.548 215.87 147.85 215.87 146.996C215.87 146.134 216.79 145.443 217.94 145.443C219.079 145.443 220.011 144.977 220.011 144.408C220.011 143.839 220.476 143.373 221.046 143.373C221.615 143.373 222.081 143.785 222.081 144.289ZM251.967 148.902C252.601 149.666 252.824 150.587 252.463 150.947C252.102 151.309 252.572 151.899 253.507 152.257C255.908 153.178 255.923 160.968 253.524 160.968C252.597 160.968 248.847 162.441 245.188 164.242C238.952 167.311 237.845 167.513 227.409 167.48C219.647 167.455 215.357 166.976 213.228 165.897C211.55 165.046 208.465 164.04 206.372 163.662L202.57 162.974L204.976 160.569C206.299 159.246 208.126 157.878 209.037 157.529C209.948 157.179 210.693 156.413 210.693 155.825C210.693 155.239 211.828 154.758 213.214 154.758C214.6 154.758 217.047 154.227 218.649 153.578C230.751 148.679 249.587 146.035 251.967 148.902ZM296.324 156.265C296.185 161.421 295.573 165.532 294.836 166.269C291.729 169.375 277.203 168.292 269.701 164.395C268.278 163.656 264.668 163.049 261.678 163.045C258.689 163.042 256.243 162.573 256.243 162.003C256.243 161.434 256.751 160.968 257.37 160.968C258.11 160.968 258.256 159.55 257.796 156.828C257.273 153.732 257.445 152.664 258.482 152.595C278.5 151.257 284.635 150.603 289.371 149.304C292.502 148.445 295.402 147.69 295.813 147.628C296.225 147.565 296.456 151.451 296.324 156.265ZM87.725 150.024C95.277 153.303 105.688 157.008 109.925 157.925C121.424 160.416 123.86 160.779 133.447 161.431C139.072 161.814 144.297 162.682 145.057 163.359C147.966 165.954 149.156 166.788 150.909 167.457C151.905 167.838 152.721 168.642 152.721 169.246C152.721 169.983 149.326 170.16 142.368 169.784C134.431 169.354 132.012 169.528 132.001 170.53C131.988 171.519 131.795 171.537 131.198 170.6C130.231 169.079 115.991 167.233 103.517 167.013C92.1258 166.812 90.5729 166.273 84.8233 160.523C81.5137 157.215 80.2548 155.126 80.2548 152.943C80.2548 148.119 81.877 147.485 87.725 150.024ZM341.303 152.794C342.276 153.395 342.277 153.897 341.307 155.065C339.141 157.674 321.309 165.9 311.628 168.756C306.504 170.267 301.379 171.923 300.241 172.435C297.757 173.552 288.493 172.925 287.114 171.546C286.5 170.932 287.409 170.313 289.557 169.884C291.439 169.507 294.263 168.632 295.833 167.936C298.427 166.788 298.688 166.175 298.688 161.233V155.793L302.57 155.787C304.706 155.784 308.292 155.272 310.54 154.648C319.106 152.269 338.557 151.097 341.303 152.794ZM82.5199 162.042C84.4061 163.77 86.9631 165.443 88.2033 165.757C89.4425 166.072 90.7096 166.987 91.0171 167.789C91.4498 168.916 94.2335 169.272 103.257 169.352C109.679 169.409 116.1 169.807 117.523 170.238L120.111 171.021L117.523 171.646C108.074 173.925 97.6746 175.458 91.6713 175.458C86.2333 175.458 84.0862 175.921 82.0323 177.537C79.3221 179.669 73.8188 179.618 69.7121 177.425C68.7524 176.913 65.7244 176.472 62.9831 176.445C60.2408 176.418 54.7365 175.319 50.7508 174.002C44.4287 171.914 43.4628 171.259 43.1771 168.876C42.9866 167.289 43.3583 166.143 44.0643 166.143C44.732 166.143 45.0136 165.452 44.6886 164.606C43.6026 161.777 48.1866 160.59 60.0679 160.625C66.331 160.642 72.4668 160.98 73.7029 161.374C75.1563 161.838 76.4369 161.541 77.3262 160.534C79.0736 158.557 78.556 158.407 82.5199 162.042ZM187.59 161.163C187.26 161.988 187.015 161.743 186.965 160.537C186.921 159.446 187.165 158.835 187.509 159.179C187.852 159.522 187.89 160.416 187.59 161.163ZM187.182 166.144C186.401 169.137 185.008 168.694 185.592 165.638C185.864 164.221 186.454 163.291 186.904 163.569C187.355 163.848 187.481 165.007 187.182 166.144ZM205.448 178.221C205.901 180.65 206.012 182.899 205.692 183.218C205.373 183.538 205.02 184.426 204.908 185.193C204.342 189.043 203.124 190.84 200.661 191.459C197.293 192.303 196.604 191.268 195.697 184.011C194.811 176.921 195.932 168.251 198.045 165.863C199.565 164.145 199.822 164.336 202.145 168.917C203.507 171.605 204.994 175.792 205.448 178.221ZM264.82 169.424C268.928 169.954 274.852 170.651 277.983 170.974C284.42 171.636 290.018 175.102 291.005 179.04C291.799 182.203 288.801 188.55 286.192 189.232C284.988 189.547 284.411 190.342 284.748 191.221C285.084 192.095 284.35 193.122 282.925 193.771C281.068 194.616 279.058 194.337 273.828 192.503C255.936 186.231 248.626 182.54 243.052 176.966C241.128 175.043 238.301 172.535 236.77 171.392L233.986 169.314L237.092 169.217C238.8 169.165 242.527 168.071 245.374 166.785C250.539 164.454 250.557 164.454 253.95 166.456C255.821 167.558 260.713 168.894 264.82 169.424ZM267.631 166.143C268.755 166.87 267.844 167.151 264.328 167.163C261.657 167.171 259.184 166.713 258.832 166.143C258 164.798 265.549 164.798 267.631 166.143ZM211.911 168.331C213.774 169.306 220.011 178.022 220.011 179.65C220.011 180.192 220.368 180.634 220.805 180.634C223.092 180.634 232.244 211.485 235.002 228.491C235.629 232.364 233.83 240.664 232.362 240.664C231.24 240.664 227.557 232.501 226.758 228.244C225.858 223.445 220.129 205.934 218.336 202.498C217.556 201.003 216.915 199.305 216.911 198.723C216.908 198.142 215.614 196.046 214.036 194.066C210.316 189.397 209.132 186.608 207.759 179.266C207.139 175.953 205.915 171.806 205.039 170.052C204.163 168.296 203.447 166.662 203.447 166.42C203.447 165.799 209.823 167.238 211.911 168.331ZM41.029 169.766C41.1015 170.904 41.1253 172.127 41.0818 172.482C40.9317 173.713 55.5978 177.725 61.9582 178.193C65.4738 178.452 69.9636 179.175 71.9368 179.801C75.2526 180.855 75.353 181.004 73.2629 181.777C72.0206 182.237 64.8155 182.735 57.2542 182.884C43.5353 183.154 32.9491 181.979 30.3724 179.901C29.6239 179.296 27.3806 178.459 25.3878 178.039C21.1154 177.139 14.0003 173.697 14.0003 172.53C14.0003 171.244 16.4341 168.508 18.1412 167.876C18.9952 167.559 24.4644 167.39 30.2958 167.498C40.0921 167.68 40.9069 167.853 41.029 169.766ZM236.282 173.792C238.71 175.562 240.983 178.058 241.335 179.34C241.687 180.621 242.39 181.669 242.897 181.669C243.406 181.669 243.821 182.522 243.821 183.566C243.821 184.61 244.153 185.795 244.559 186.201C245.939 187.582 248.995 196.666 248.996 199.392C248.997 200.887 249.754 204.147 250.679 206.637C251.605 209.128 252.307 212.24 252.239 213.552C252.17 214.892 252.567 215.659 253.145 215.302C253.71 214.952 254.173 215.126 254.173 215.689C254.173 216.251 254.771 217.327 255.502 218.079C256.233 218.83 258.181 221.775 259.832 224.621C263.569 231.067 268.666 238.178 268.666 236.946C268.666 236.438 269.831 238.21 271.254 240.883C275.009 247.936 274.75 248.944 269.184 248.944C266.622 248.944 264.525 248.509 264.525 247.978C264.525 247.447 263.602 246.721 262.473 246.363C255.338 244.098 246.128 228.448 241.405 210.562C238.297 198.792 233.145 187.782 227.333 180.482C225.014 177.571 223.116 174.784 223.116 174.288C223.116 173.793 222.467 173.388 221.674 173.388C220.198 173.388 218.707 170.896 219.631 169.973C219.913 169.69 222.782 169.71 226.007 170.016C230.361 170.429 233.004 171.4 236.282 173.792ZM130.416 172.493C130.991 173.019 129.908 173.228 127.828 172.991C125.861 172.767 123.67 172.532 122.958 172.469C122.247 172.405 121.664 171.917 121.664 171.384C121.664 170.244 128.972 171.17 130.416 172.493ZM162.123 171.318C163.215 171.318 164.108 171.784 164.108 172.353C164.108 172.923 163.292 173.394 162.297 173.401C161.301 173.408 158.434 174.585 155.929 176.017C153.057 177.659 149.037 178.836 145.059 179.202C141.586 179.522 135.95 180.712 132.534 181.848C125.374 184.228 118.725 187.293 122.44 186.5C124.799 185.996 125.635 187.221 123.734 188.396C123.165 188.748 122.699 189.425 122.699 189.901C122.699 190.377 125.611 189.855 129.169 188.742C132.728 187.628 138.579 186.03 142.171 185.191C149.485 183.482 166.179 176.126 166.179 174.611C166.179 173.593 170.42 172.109 171.174 172.863C171.789 173.476 169.149 175.939 166.166 177.535C164.76 178.287 160.512 181.156 156.726 183.908C152.94 186.661 149.326 188.914 148.694 188.914C148.062 188.914 147.545 189.37 147.545 189.929C147.545 190.487 146.38 191.236 144.957 191.593C143.533 191.95 142.368 192.604 142.368 193.045C142.368 193.486 141.553 194.12 140.557 194.453C139.561 194.786 135.717 196.899 132.016 199.148C121.057 205.808 110.664 209.888 101.477 211.136C100.338 211.29 98.6684 211.73 97.7667 212.113C96.865 212.495 92.838 213.16 88.8182 213.589L81.5085 214.37L80.5043 211.097C79.5126 207.866 79.5809 207.777 85.8626 204.164C89.3628 202.152 98.3837 198.546 105.91 196.152C119.61 191.794 123.913 189.359 114.676 191.192C111.971 191.728 108.361 192.411 106.653 192.708C104.945 193.005 103.082 193.618 102.512 194.07C101.943 194.521 98.6819 195.734 95.2656 196.764C91.8494 197.795 87.8182 199.477 86.3068 200.504C84.7953 201.529 83.2849 202.369 82.9495 202.369C81.5137 202.369 77.1491 207.026 77.1491 208.559C77.1491 211.745 79.7455 215.885 82.1286 216.499C83.4444 216.837 86.3565 216.868 88.5998 216.568C93.867 215.861 93.0471 217.009 85.1266 221.427C75.4586 226.82 56.7438 233.132 44.4318 235.153C41.3841 235.653 41.1843 235.475 40.5611 231.703C40.1998 229.516 39.8986 226.232 39.8923 224.404C39.8799 220.711 39.6263 220.827 55.4094 217.309C66.1364 214.919 70.3146 213.034 73.031 209.362C75.439 206.106 74.1718 206.341 70.2328 209.881C68.0671 211.828 64.6912 212.818 46.7901 216.759C42.3345 217.74 38.3436 219.102 37.9213 219.785C37.1676 221.004 37.3975 228.656 38.2577 230.98C38.4989 231.63 37.6822 233.103 36.4419 234.252C34.5402 236.015 32.0433 236.478 20.487 237.214C12.9516 237.695 5.66775 237.714 4.30125 237.259C2.11174 236.529 1.9109 236.036 2.61279 233.114C4.40373 225.654 4.1118 225.826 13.8222 226.511C20.5471 226.985 24.0575 226.713 28.6663 225.359C31.9853 224.384 34.5495 223.121 34.3642 222.551C33.918 221.18 25.1362 218.759 18.6588 218.223C15.8119 217.987 12.551 217.393 11.4122 216.902C10.2735 216.413 8.52599 215.751 7.52906 215.433C5.77849 214.873 5.70604 214.013 6.69468 205.474C6.72781 205.189 13.6255 204.898 22.0233 204.827C30.4221 204.755 42.1844 204.373 48.1628 203.977C54.1412 203.581 60.1973 203.289 61.6207 203.329C67.7576 203.503 77.1326 202.144 76.529 201.168C76.146 200.548 73.8582 200.415 70.8105 200.834C65.0587 201.624 55.8669 199.852 53.0739 197.413C52.0739 196.541 50.962 196.12 50.6028 196.479C50.2436 196.839 48.7322 196.29 47.2445 195.261C45.7569 194.232 43.7237 193.096 42.7278 192.737C40.8675 192.066 40.3582 189.31 41.7082 187.216C42.1792 186.484 47.787 185.792 56.4446 185.393C64.1312 185.041 72.5765 184.471 75.2122 184.129C79.7217 183.542 80.0592 183.668 80.9257 186.268C81.9164 189.239 90.0491 193.759 91.162 191.958C91.4933 191.421 93.9498 190.978 96.6207 190.972C99.2916 190.966 103.652 190.302 106.31 189.495C108.968 188.688 112.113 188.282 113.298 188.592C114.483 188.901 115.453 188.685 115.453 188.11C115.453 186.308 112.394 185.789 107.817 186.815C105.392 187.358 101.263 188.003 98.6405 188.248C96.0172 188.492 93.397 188.986 92.8173 189.345C91.0171 190.457 83.5168 187.519 82.5251 185.315C81.9516 184.038 81.9702 182.368 82.5748 181.033C83.4133 179.178 84.7788 178.743 91.5067 178.182C95.8754 177.817 102.934 176.858 107.191 176.049C112.767 174.992 119.873 174.715 132.57 175.063C146.782 175.452 150.901 175.244 153.792 173.99C155.765 173.135 157.002 172.417 156.542 172.394C156.081 172.372 156.012 171.856 156.388 171.248C156.763 170.639 157.761 170.407 158.604 170.731C159.447 171.053 161.031 171.318 162.123 171.318ZM191.024 171.135C191.024 171.603 189.627 174.871 187.918 178.397C186.21 181.922 184.807 185.148 184.798 185.566C184.766 187.255 173.104 199.919 169.11 202.601C164.648 205.597 158.615 206.438 157.263 204.251C156.823 203.539 157.433 202.415 158.726 201.557C159.946 200.748 164.786 195.36 169.483 189.583C179.746 176.96 186.54 170.283 189.118 170.283C190.167 170.283 191.024 170.666 191.024 171.135ZM138.486 172.004C137.775 172.291 136.611 172.291 135.898 172.004C135.187 171.717 135.769 171.482 137.192 171.482C138.616 171.482 139.199 171.717 138.486 172.004ZM176.452 175.197C175.072 176.759 173.594 178.196 173.166 178.388C172.739 178.579 172.39 179.124 172.39 179.601C172.39 180.076 170.527 182.403 168.249 184.774C165.972 187.144 164.108 189.538 164.108 190.095C164.108 190.65 163.642 190.818 163.073 190.466C162.504 190.114 162.038 190.276 162.038 190.824C162.038 193.868 141.068 211.684 137.485 211.684C137.023 211.684 134.855 212.642 132.667 213.815C128.825 215.873 128.621 215.883 126.622 214.074C125.483 213.044 124.252 212.434 123.884 212.719C123.517 213.003 123.105 212.305 122.969 211.166C122.603 208.102 125.538 205.243 133.061 201.339C136.757 199.42 141.263 196.771 143.076 195.452C144.888 194.133 146.71 193.054 147.124 193.054C147.538 193.054 151.645 190.344 156.251 187.032C160.858 183.72 166.489 179.913 168.767 178.571C171.044 177.229 173.741 175.281 174.76 174.242C177.721 171.221 179.217 172.064 176.452 175.197ZM193.282 187.942C192.963 211.995 189.785 231.269 184.146 243.352C182.578 246.713 181.079 249.927 180.815 250.497C180.551 251.066 181.11 250.892 182.056 250.111C183.003 249.33 183.778 248.049 183.778 247.265C183.778 246.481 184.21 245.839 184.738 245.839C187.335 245.839 194.115 218.839 194.145 208.38C194.155 205.358 194.569 202.244 195.066 201.459C196.599 199.038 197.577 209.816 197.668 230.138C197.745 247.334 197.932 249.24 199.665 250.508C200.717 251.277 202.232 251.656 203.03 251.349C204.776 250.68 204.771 250.573 203.329 257.432C201.786 264.766 198.569 271.714 196.716 271.714C195.889 271.714 194.468 270.579 193.559 269.191C192.217 267.144 192.042 265.106 192.63 258.372C193.57 247.593 192.913 245.7 189.599 249.64C188.244 251.249 186.48 254.43 185.676 256.707C183.081 264.074 179.916 269.12 174.285 274.874C165.553 283.795 156.605 291.343 155.54 290.685C153.915 289.681 155.401 284.094 159.759 274.819C164.669 264.373 166.444 258.545 164.989 257.646C164.429 257.3 163.861 257.18 163.726 257.379C163.592 257.578 162.754 258.906 161.864 260.329C160.975 261.752 158.053 265.352 155.373 268.328C152.693 271.303 150.736 274.121 151.024 274.587C151.313 275.054 151.07 276.112 150.485 276.939C149.64 278.13 149.552 278.036 150.059 276.485C150.597 274.833 150.454 274.729 149.133 275.825C148.271 276.539 147.868 277.609 148.234 278.202C148.6 278.794 148.427 278.986 147.848 278.629C147.269 278.272 143.659 281.227 139.827 285.197C135.994 289.166 132.623 292.414 132.337 292.414C132.05 292.414 128.95 294.884 125.447 297.902C121.942 300.92 117.911 304.196 116.488 305.181C115.064 306.166 112.317 308.122 110.382 309.526C106.197 312.565 103.403 312.718 99.9914 310.096C97.5959 308.255 97.5535 308.034 99.1332 305.624C100.047 304.229 103.902 299.872 107.699 295.941C111.496 292.009 116.062 286.929 117.848 284.652C119.633 282.375 121.514 280.215 122.028 279.851C122.543 279.488 122.637 278.661 122.237 278.014C121.837 277.367 121.894 276.963 122.364 277.114C124.554 277.824 127.594 274.201 132.357 265.206C133.336 263.356 134.314 262.979 137.451 263.237C139.699 263.424 141.333 263.097 141.333 262.461C141.333 261.858 141.844 261.364 142.466 261.364C143.798 261.364 155.826 250.021 155.826 248.766C155.826 248.294 156.555 247.093 157.447 246.098C161.048 242.072 165.863 234.762 167.161 231.349C169.239 225.888 178.889 205.417 179.227 205.754C179.389 205.917 179.055 207.9 178.484 210.16C177.914 212.422 177.247 215.575 177.003 217.168C175.725 225.517 168.493 244.926 166.113 246.397C165.58 246.726 165.143 248.745 165.143 250.883C165.143 254.344 165.587 255.007 169.184 256.926C173.124 259.029 173.302 259.035 176.318 257.202C179.895 255.027 181.091 253.465 179.792 252.663C179.289 252.352 178.044 253.019 177.027 254.144C174.779 256.626 173.116 256.712 169.766 254.518C166.58 252.431 166.573 251.008 169.716 245.38C173.202 239.137 178.047 223.37 180.069 211.684C181.005 206.276 182.289 198.824 182.922 195.124C183.698 190.59 184.852 187.608 186.459 185.98C187.771 184.652 189.615 181.245 190.557 178.409C191.499 175.574 192.538 173.522 192.866 173.849C193.193 174.177 193.38 180.519 193.282 187.942ZM334.144 177.128C336.28 177.449 338.026 178.076 338.026 178.524C338.026 180.209 324.427 185.738 313.949 188.311C302.455 191.134 291.894 191.822 291.217 189.793C290.998 189.138 291.673 186.878 292.716 184.77C294.22 181.732 294.387 180.348 293.525 178.082L292.439 175.226L311.351 175.886C321.752 176.249 332.01 176.808 334.144 177.128ZM141.333 182.089C141.333 183.078 140.605 183.355 139.06 182.95C136.889 182.383 136.878 182.32 138.801 181.567C139.909 181.133 140.933 180.746 141.074 180.706C141.216 180.667 141.333 181.289 141.333 182.089ZM15.5811 184.107C18.8379 186.345 27.8123 188.973 33.0122 189.212C36.5113 189.372 37.7981 189.855 37.8033 191.012C37.8116 192.908 45.4629 198.11 49.4568 198.935C51.0221 199.257 52.3037 199.956 52.3037 200.486C52.3037 201.067 45.8511 201.204 36.0827 200.832C22.7645 200.325 18.8296 199.804 14.0976 197.927C7.43383 195.283 6.82306 193.869 9.51672 187.321C11.5509 182.373 12.4019 181.922 15.5811 184.107ZM136.157 183.739C136.157 184.308 135.341 184.766 134.345 184.758C132.797 184.745 132.759 184.596 134.087 183.739C136.04 182.476 136.157 182.476 136.157 183.739ZM251.678 185.731C260.178 189.936 270.55 194.58 274.986 196.166C277.813 197.177 279.511 197.225 281.993 196.359C284.918 195.34 285.76 195.551 289.907 198.35C292.459 200.071 294.547 201.642 294.547 201.84C294.547 202.037 294.806 202.875 295.124 203.701C295.988 205.954 287.923 208.984 285.093 207.47C283.932 206.849 282.728 206.596 282.417 206.906C282.107 207.217 280.966 206.996 279.882 206.417C276.707 204.718 259.04 203.978 256.326 205.429C253.344 207.025 253.051 206.669 251.471 199.518C249.721 191.6 247.407 185.451 246 184.983C244.985 184.644 244.311 182.704 245.208 182.704C245.402 182.704 248.314 184.066 251.678 185.731ZM130.981 185.809C128.942 187.126 126.543 187.126 127.358 185.809C127.71 185.239 129.018 184.781 130.266 184.789C132.109 184.803 132.243 184.993 130.981 185.809ZM211.883 195.382C213.864 198.37 216.092 202.213 216.833 203.921C217.576 205.629 218.528 207.73 218.951 208.591C219.984 210.692 222.729 220.222 225.619 231.736C229.114 245.661 227.936 252.554 220.601 261.105C218.058 264.068 216.198 264.068 215.315 261.105C214.933 259.824 213.67 256.83 212.509 254.451C210.597 250.532 210.552 249.974 212.014 248.51C214.481 246.044 215 241.855 213.82 233.917C213.23 229.943 212.283 223.198 211.715 218.929C211.148 214.659 210.028 208.837 209.227 205.991C207.202 198.8 206.149 189.949 207.319 189.949C207.847 189.949 209.9 192.394 211.883 195.382ZM209.141 215.824C209.987 220.093 210.985 228.104 211.358 233.626C211.933 242.152 211.766 244.075 210.248 246.392C208.548 248.984 208.39 249.025 207.023 247.22C205.684 245.454 205.58 245.448 205.55 247.133C205.507 249.517 201.755 249.515 200.478 247.129C199.944 246.131 199.467 236.933 199.421 226.687C199.374 216.443 198.98 205.267 198.544 201.851C197.757 195.676 197.771 195.633 200.859 194.089L203.965 192.536L205.782 200.299C206.781 204.568 208.293 211.554 209.141 215.824ZM179.183 198.487C178.372 202.317 176.123 207.985 174.331 210.719C172.247 213.9 166.7 225.788 165.671 229.279C163.746 235.815 148.997 254.702 142.929 258.402C139.535 260.471 135.122 260.975 135.122 259.294C135.122 258.725 134.176 258.259 133.019 258.259C131.862 258.259 130.65 257.567 130.325 256.72C129.84 255.455 140.275 232.928 145.914 223.069C148.821 217.987 151.563 211.1 152.297 207.042C152.967 203.334 153.143 203.143 154.039 205.149C156.794 211.323 169.714 208.131 176.158 199.683C179.315 195.546 179.852 195.334 179.183 198.487ZM56.1641 200.924C55.8204 201.267 54.9269 201.305 54.1805 201.006C53.3544 200.675 53.5998 200.43 54.8058 200.38C55.897 200.336 56.5078 200.58 56.1641 200.924ZM238.316 204.633C237.986 205.458 237.741 205.213 237.691 204.007C237.647 202.916 237.891 202.306 238.235 202.649C238.578 202.993 238.616 203.886 238.316 204.633ZM119.627 211.425C119.644 212.421 120.332 214.125 121.155 215.211C122.515 217.008 122.302 217.554 118.792 221.273C116.671 223.52 113.429 226.774 111.588 228.504C109.165 230.782 108.396 232.266 108.803 233.886C109.361 236.109 106.541 239.647 93.778 252.74C88.6577 257.993 88.3047 260.921 92.6775 261.882C94.3857 262.256 95.7832 263.02 95.7832 263.577C95.7832 264.135 96.2491 264.304 96.8185 263.952C99.0939 262.546 97.6259 265.002 93.5471 269.426C89.4766 273.841 74.2049 285.972 69.6468 288.411C67.0432 289.804 62.2864 291.328 57.3483 292.348C53.723 293.098 53.5335 292.987 51.8213 289.106C49.6173 284.114 50.0055 283.421 61.6621 271.545C66.1944 266.928 69.9025 262.73 69.9025 262.217C69.9025 259.802 78.0601 253.346 83.2425 251.66C86.3099 250.661 89.3938 249.293 90.0967 248.618C90.7986 247.943 95.1611 244.646 99.7896 241.29C107.341 235.816 109.704 233.387 107.43 233.435C107.002 233.445 105.154 234.725 103.323 236.282C96.0793 242.436 87.724 247.733 81.8201 249.915C78.4111 251.173 75.1501 252.594 74.5735 253.071C73.9969 253.548 70.4978 254.485 66.7969 255.154C63.0959 255.823 59.4861 256.852 58.7739 257.441C57.868 258.192 56.9974 258.112 55.87 257.177C50.9155 253.065 52.2219 247.915 58.7666 245.756C62.4065 244.555 71.5206 239.298 73.0082 237.541C73.2929 237.206 76.7868 234.343 80.7724 231.181C84.7581 228.018 90.4984 223.058 93.5275 220.159C97.8609 216.012 100.512 214.442 105.95 212.803C117.894 209.201 119.583 209.031 119.627 211.425ZM81.817 227.501C80.114 228.763 77.9908 230.521 77.0994 231.407C73.2753 235.209 65.0712 240.838 59.6766 243.36C52.2488 246.833 50.2332 248.642 50.2332 251.837C50.2332 254.82 48.7332 256.171 40.8903 260.253C35.8363 262.882 29.7968 264.973 24.0679 266.077C19.8007 266.898 8.67713 266.796 7.94315 265.927C7.50525 265.41 6.62634 263.757 5.98968 262.255C4.90476 259.696 5.03002 259.483 7.96075 258.898C9.6813 258.553 12.7922 256.563 14.874 254.474C18.3441 250.992 28.5835 243.769 30.0494 243.769C30.39 243.769 32.2141 242.083 34.1023 240.022C36.2918 237.633 37.795 236.697 38.2536 237.439C39.0528 238.731 42.7972 238.277 49.4724 236.082C51.8834 235.288 55.8742 234.317 58.3411 233.924C60.807 233.531 64.068 232.56 65.5877 231.767C67.1064 230.975 69.1054 230.324 70.0289 230.32C70.9523 230.317 74.2133 229.176 77.2755 227.786C84.2343 224.627 85.8285 224.526 81.817 227.501ZM629.201 242.475C630.146 245.18 631.053 248.053 631.216 248.861C631.873 252.11 640.743 268.42 644.543 273.362C646.772 276.261 648.595 279.032 648.595 279.518C648.595 280.655 661.157 292.414 662.371 292.414C663.262 292.414 677.58 306.765 680.687 310.77C683.467 314.356 693.285 333.037 696.086 340.071C697.815 344.415 702.132 354.919 703.938 359.176C704.663 360.886 705.587 363.793 705.991 365.634C706.395 367.475 707.156 369.247 707.682 369.572C708.208 369.896 708.638 370.859 708.638 371.71C708.638 372.562 709.519 375.213 710.595 377.601C713.189 383.353 714.538 398.176 712.61 399.742C711.184 400.899 703.758 402.527 694.662 403.676C690.154 404.245 681.354 406.403 676.546 408.12C675.692 408.424 674.658 408.714 674.25 408.764C672.671 408.953 669.299 412.531 669.299 414.017C669.299 415.881 665.004 416.125 661.855 414.44C659.15 412.992 654.968 415.019 653.682 418.403C651.365 424.494 657.253 439.504 665.025 447.321C673.501 455.846 680.094 467.591 683.229 479.751C686.456 492.269 688.177 497.79 689.508 499.9C690.238 501.057 691.83 506.195 693.046 511.318C695.564 521.923 697.954 528.587 699.606 529.608C701.352 530.686 698.474 533.571 695.654 533.571C694.346 533.571 690.328 532.798 686.723 531.852C683.118 530.907 679.004 530.211 677.581 530.307C673.127 530.606 659.93 537.727 658.659 540.517C657.652 542.727 657.082 542.956 654.341 542.252C649.004 540.882 641.357 541.197 640.349 542.828C637.53 547.387 638.081 551.198 643.469 564.431C646.41 571.651 649.218 578.343 649.707 579.303C652.731 585.22 658.062 600.052 659.09 605.406C660.3 611.714 660.373 624.216 659.212 626.097C658.872 626.644 658.55 628.984 658.494 631.296C658.363 636.818 656.458 637.089 651.183 632.339C642.08 624.142 632.559 622.207 623.32 626.679C618.199 629.157 612.362 635.371 612.362 638.343C612.362 639.352 611.896 640.177 611.326 640.177C610.757 640.177 610.291 640.832 610.291 641.633C610.291 644.877 603.792 657.275 600.523 660.266C598.601 662.026 595.121 665.217 592.79 667.358C590.458 669.5 588.551 671.715 588.551 672.28C588.551 672.845 587.359 675.75 585.901 678.736C584.444 681.722 582.316 688.581 581.174 693.979C580.033 699.377 578.896 703.995 578.648 704.243C578.401 704.49 578.147 702.17 578.083 699.086C578.02 696.002 577.719 691.85 577.415 689.857C577.111 687.865 576.862 684.605 576.86 682.612C576.845 667.862 577.462 640.829 578.161 625.567C578.961 608.098 579.132 607.049 582.246 600.527C586.37 591.887 593.259 585.677 602.302 582.445L608.905 580.086L614.674 583.56C617.848 585.47 622.004 588.677 623.909 590.686C625.813 592.695 628.928 595.139 630.83 596.116C634.314 597.904 637.899 597.627 636.683 595.662C636.323 595.08 635.609 594.862 635.095 595.18C633.689 596.048 628.512 593.049 625.165 589.425C623.533 587.658 619.983 585.072 617.279 583.679C614.575 582.286 612.362 580.689 612.362 580.129C612.362 579.569 610.943 579.111 609.209 579.111C606.11 579.111 606.071 579.046 606.88 575.23C607.333 573.096 607.583 564.983 607.436 557.2C607.247 547.17 607.623 541.308 608.73 537.059C609.588 533.763 610.255 529.883 610.211 528.438C610.167 526.992 608.964 530.233 607.536 535.641C605.128 544.766 605.026 546.093 606.111 554.075C607.375 563.371 606.001 578.166 603.706 579.98C603.058 580.492 600.724 581.493 598.521 582.203C593.111 583.946 581.931 595.09 580.801 599.865C579.093 607.085 579.034 598.721 580.612 573.004C581.471 559.001 582.224 543.7 582.284 539.003C582.345 534.305 582.848 528.07 583.402 525.147C583.957 522.224 584.411 517.832 584.411 515.385C584.411 512.937 584.941 509.624 585.588 508.022C586.236 506.42 586.859 501.82 586.973 497.802C587.087 493.783 587.935 487.496 588.859 483.83C592.465 469.524 594.737 459.166 596.338 449.736C599.297 432.313 604.736 410.581 607.305 405.915C607.881 404.868 608.522 401.142 608.729 397.635C609.163 390.289 609.532 388.981 613.158 381.942C616.633 375.195 621.688 369.298 626.565 366.299C629.587 364.442 632.01 363.889 637.207 363.868C645.166 363.836 650.065 365.056 658.277 369.116C661.609 370.762 664.87 372.113 665.524 372.116C666.177 372.12 668.071 372.832 669.735 373.699C671.398 374.566 673.146 374.888 673.62 374.414C674.094 373.94 671.802 372.564 668.527 371.357C647.445 363.589 644.488 362.244 644.47 360.414C644.443 357.446 647.263 352.794 652.784 346.698C656.83 342.232 657.889 340.33 657.806 337.685L657.699 334.332L656.932 337.546C656.162 340.767 652.814 346.142 651.539 346.203C649.86 346.282 643.418 356.84 643.418 359.513C643.418 362.432 643.409 362.436 636.203 362.523C630.717 362.589 628.281 363.113 626.045 364.704C622.916 366.933 615.781 374.539 613.697 377.871C612.645 379.552 612.528 379.07 612.97 374.865C613.321 371.52 613.135 370.079 612.411 370.527C611.766 370.925 611.326 370.157 611.326 368.633C611.326 367.223 611.05 365.216 610.711 364.173C610.199 362.596 610.284 362.538 611.213 363.83C611.827 364.684 612.344 364.917 612.362 364.347C612.379 363.778 612.82 363.987 613.342 364.811C614.369 366.434 614.313 366.596 616.478 355.651C618.357 346.15 619.091 333.185 619.091 309.492V286.722L616.761 286.391C614.575 286.08 613.794 287.24 614.449 289.827C614.683 290.753 614.482 302.337 613.955 318.29C613.851 321.42 613.178 326.749 612.458 330.129C611.738 333.51 611.341 337.586 611.576 339.185C611.811 340.785 611.671 342.095 611.264 342.095C610.858 342.095 610.198 344.308 609.796 347.011C609.395 349.714 608.453 354.489 607.704 357.62C606.956 360.751 605.107 368.901 603.595 375.732C600.27 390.761 597.757 400.291 596.831 401.383C596.452 401.829 595.58 398.802 594.89 394.656C594.201 390.509 591.609 380.83 589.131 373.145C584.83 359.805 584.647 358.727 585.089 349.34C585.492 340.751 586.896 333.225 589.28 326.867C589.863 325.314 589.721 325.223 588.395 326.298C585.889 328.333 584.128 335.583 583.468 346.592L582.858 356.781L578.905 353.635C576.731 351.905 573.446 349.992 571.607 349.385C569.767 348.778 565.546 346.872 562.226 345.15C558.906 343.428 555.971 342.237 555.704 342.506C554.861 343.348 556.514 345.2 558.107 345.2C558.947 345.2 561.933 346.364 564.741 347.787C567.55 349.21 570.37 350.375 571.007 350.375C572.272 350.375 581.354 356.466 582.583 358.137C583.002 358.707 583.35 360.647 583.36 362.45C583.368 364.252 583.899 365.902 584.538 366.115C585.924 366.577 592.594 385.996 592.642 389.705C592.66 391.128 593.47 395.394 594.442 399.187L596.209 406.08L592.736 419.887C590.826 427.48 588.912 434.159 588.482 434.728C588.052 435.297 586.918 438.79 585.96 442.49C585.004 446.191 583.059 452.711 581.639 456.981C580.22 461.25 579.041 465.8 579.017 467.09C578.951 470.839 577.516 470.732 575.082 466.794C572.945 463.338 568.646 460.227 564.37 459.042C561.231 458.172 561.189 442.899 564.288 428.259C564.68 426.408 564.582 424.895 564.071 424.895C562.52 424.895 560.6 437.708 560.6 448.069C560.6 454.945 560.216 457.985 559.306 458.319C558.595 458.581 559.41 459.103 561.118 459.479C570.066 461.451 577.652 469.048 576.707 475.093C575.386 483.55 572.932 494.985 572.042 496.828C571.181 498.61 566.088 526.917 565.253 534.562C565.094 536.01 564.635 540.221 564.23 543.921C563.825 547.621 563.506 551.347 563.521 552.201C563.536 553.055 563.136 558.411 562.63 564.104C562.125 569.796 561.478 579.344 561.192 585.322C560.906 591.299 560.367 597.687 559.996 599.517L559.321 602.843L556.082 601.168C551.477 598.788 542.897 593.102 540.155 590.613C537.643 588.335 537.012 589.045 539.119 591.78C540.461 593.52 557.208 603.952 558.659 603.952C559.112 603.952 559.617 613.267 559.782 624.653C559.947 636.039 559.805 645.354 559.466 645.353C559.126 645.352 558.801 648.496 558.743 652.338C558.5 668.583 558.643 692.728 559.004 696.326C559.676 703.025 557.779 700.555 555.955 692.354C554.993 688.035 553.59 683.022 552.835 681.216C552.08 679.41 550.964 674.353 550.356 669.979C549.121 661.098 546.129 651.325 542.499 644.317C540.042 639.571 527.38 603.775 525.448 596.111C524.819 593.614 522.834 590.343 520.58 588.09C516.907 584.418 515.569 583.837 511.686 584.233C510.69 584.334 509.874 584.117 509.874 583.75C509.874 582.658 517.092 568.617 519.41 565.198C522.391 560.802 534.752 549.061 537.524 547.992C538.782 547.506 541.111 545.142 542.7 542.739C548.364 534.172 545.573 523.954 534.523 512.794C531.643 509.887 529.626 508.731 527.433 508.731C523.896 508.731 523.269 506.445 526.412 505.008C532.943 502.022 516.537 498.741 507.191 501.164C499.377 503.19 497.322 502.864 492.863 498.897C489.721 496.102 487.892 495.276 484.84 495.276C480.408 495.276 480.205 494.751 482.519 489.291C483.416 487.175 484.869 483.347 485.748 480.786C487.704 475.09 494.778 460.864 496.623 458.917C497.363 458.137 499.228 455.811 500.767 453.75C506.804 445.663 523.384 430.461 537.308 420.246C539.585 418.575 541.979 416.725 542.627 416.135C543.276 415.545 544.673 414.326 545.732 413.426C549.48 410.243 554.454 404.159 555.45 401.539C557.759 395.468 555.717 388.582 548.664 378.648C544.036 372.131 534.68 368.187 524.367 368.409C512.109 368.671 507.742 367.12 496.412 358.483C493.448 356.224 487.947 354.297 483.735 354.044C481.592 353.916 483.044 352.047 489.17 347.053C500.169 338.087 516.414 328.441 527.991 324.001C531.407 322.69 534.074 321.067 533.917 320.395C533.761 319.721 534.134 319.48 534.745 319.859C535.91 320.578 539.986 318.991 548.695 314.429C551.542 312.939 555.284 310.984 557.011 310.088C565.873 305.486 581.468 291.374 589.63 280.571C610.98 252.314 618.496 243.186 623.217 239.786C624.917 238.561 626.572 237.559 626.894 237.559C627.217 237.559 628.254 239.771 629.201 242.475ZM235.021 307.939C235.373 308.509 235.167 308.974 234.565 308.974C233.962 308.974 233.468 308.509 233.468 307.939C233.468 307.37 233.673 306.904 233.925 306.904C234.177 306.904 234.669 307.37 235.021 307.939ZM307.443 311.116C306.47 312.691 304.914 312.21 305.558 310.533C305.885 309.682 306.576 309.249 307.095 309.57C307.613 309.89 307.771 310.586 307.443 311.116ZM310.785 316.89C309.863 317.811 308.005 316.235 308.005 314.532C308.005 313.181 308.234 313.195 309.681 314.642C310.603 315.564 311.099 316.576 310.785 316.89ZM346.929 385.179C347.429 387.981 347.373 388.036 345.964 386.126C345.142 385.011 344.707 383.477 344.999 382.718C345.711 380.862 346.292 381.603 346.929 385.179ZM349.148 392.02C349.285 393.841 349.114 394.007 348.349 392.797C347.152 390.905 347.078 389.705 348.158 389.705C348.606 389.705 349.052 390.747 349.148 392.02ZM369.943 428.87L370.284 431.271L368.131 429.118C365.502 426.49 365.408 425.671 367.789 426.124C368.785 426.313 369.755 427.549 369.943 428.87ZM368.348 431.106C368.646 432.246 368.467 432.918 367.952 432.598C367.435 432.279 367.013 431.348 367.013 430.527C367.013 428.384 367.716 428.69 368.348 431.106ZM377.609 444.774C377.077 446.805 376.065 446.489 375.726 444.186C375.618 443.443 376.11 442.835 376.823 442.835C377.577 442.835 377.905 443.642 377.609 444.774ZM541.345 457.864C539.012 458.801 535.202 460.889 532.88 462.502C530.559 464.117 526.75 465.693 524.418 466.006C522.085 466.319 519.904 467.014 519.573 467.55C518.149 469.855 529.184 466.923 532.888 464.012C538.527 459.581 547.631 456.635 553.354 457.388C556.571 457.812 557.532 457.688 556.459 456.99C554.133 455.474 546.151 455.935 541.345 457.864ZM586.481 456.981C586.481 457.55 585.987 458.016 585.385 458.016C584.782 458.016 584.576 457.55 584.928 456.981C585.28 456.411 585.773 455.946 586.024 455.946C586.276 455.946 586.481 456.411 586.481 456.981ZM643.831 460.344C641.882 464.177 640.442 465.664 634.619 469.859C629.327 473.672 621.93 481.467 621.09 484.116C620.566 485.767 619.908 486.015 617.695 485.393C607.326 482.481 594.84 486.771 590.088 494.879C588.573 497.464 587.595 499.839 587.914 500.158C588.233 500.477 588.921 499.612 589.444 498.238C591.133 493.796 596.172 489.459 602.308 487.165C609.629 484.428 610.969 484.402 616.766 486.887C619.282 487.966 625.021 489.858 629.518 491.09C638.266 493.489 646.698 497.815 652.416 502.833C655.075 505.167 656.241 505.64 657.136 504.745C658.032 503.85 658.004 503.556 657.022 503.556C656.306 503.556 653.937 502.123 651.759 500.373C647.361 496.84 634.536 490.101 632.21 490.101C631.39 490.101 628.877 489.549 626.625 488.874C622.787 487.725 622.571 487.452 623.162 484.497C623.906 480.774 629.59 474.667 636.347 470.327C641.227 467.193 643.694 464.288 645.491 459.562C646.892 455.88 645.852 456.37 643.831 460.344ZM392.376 470.436C392.728 471.005 392.522 471.471 391.919 471.471C391.317 471.471 390.823 471.005 390.823 470.436C390.823 469.866 391.028 469.401 391.28 469.401C391.531 469.401 392.024 469.866 392.376 470.436ZM577.164 568.305C577.164 569.192 576.691 569.626 576.112 569.269C575.533 568.91 575.327 568.185 575.656 567.655C576.543 566.219 577.164 566.486 577.164 568.305ZM565.259 615.337C565.611 615.906 565.145 616.372 564.224 616.372C563.302 616.372 562.836 615.906 563.188 615.337C563.54 614.767 564.006 614.302 564.224 614.302C564.441 614.302 564.907 614.767 565.259 615.337ZM506.531 695.874C507.153 697.736 505.013 697.345 504.29 695.463C503.904 694.456 504.135 693.982 504.892 694.234C505.568 694.46 506.306 695.197 506.531 695.874ZM510.909 700.207C510.909 700.777 510.416 701.242 509.813 701.242C509.211 701.242 509.005 700.777 509.357 700.207C509.709 699.638 510.201 699.172 510.453 699.172C510.704 699.172 510.909 699.638 510.909 700.207ZM491.499 739.188C490.788 739.476 489.623 739.476 488.911 739.188C488.2 738.901 488.781 738.666 490.205 738.666C491.628 738.666 492.211 738.901 491.499 739.188ZM428.609 754.449C428.039 754.658 424.778 755.442 421.362 756.189C415.034 757.574 406.779 761.771 405.905 764.048C405.258 765.734 408.074 764.657 412.045 761.7C417.179 757.877 431.949 754.521 435.093 756.464C435.797 756.899 436.809 756.986 437.342 756.657C437.875 756.326 440.216 756.486 442.545 757.009C444.874 757.532 447.815 757.665 449.081 757.305C450.805 756.813 450.084 756.476 446.208 755.959C436.353 754.646 429.64 754.07 428.609 754.449ZM452.937 755.063C451.557 755.955 451.557 756.066 452.937 756.066C453.791 756.066 455.188 755.614 456.042 755.063C457.422 754.171 457.422 754.06 456.042 754.06C455.188 754.06 453.791 754.511 452.937 755.063ZM429.683 761.507C421.602 770.946 418.78 780.44 418.214 800.086C417.985 808.055 417.53 816.089 417.204 817.939C416.865 819.857 417.047 821.303 417.628 821.303C418.989 821.303 419.64 815.404 420.193 798.016C420.537 787.192 421.167 782.085 422.677 777.833C425.059 771.128 430.228 762.664 433.22 760.568C434.384 759.752 435.338 758.646 435.338 758.109C435.338 756.063 433.293 757.291 429.683 761.507ZM448.118 798.06C447.78 798.939 447.282 799.436 447.011 799.164C446.74 798.893 446.825 798.174 447.2 797.567C448.221 795.916 448.817 796.236 448.118 798.06ZM483.476 830.618C483.124 831.188 482.048 831.62 481.085 831.581C479.658 831.521 479.718 831.344 481.405 830.618C484.176 829.428 484.212 829.428 483.476 830.618ZM478.817 831.653C478.817 832.223 478.352 832.688 477.782 832.688C477.213 832.688 476.747 832.223 476.747 831.653C476.747 831.084 477.213 830.618 477.782 830.618C478.352 830.618 478.817 831.084 478.817 831.653ZM469.097 858.674C468.848 859.467 468.377 861.658 468.05 863.543C467.369 867.475 462.104 875.768 456.36 881.958C454.192 884.293 449.391 889.847 445.69 894.298C441.989 898.751 437.912 903.498 436.632 904.848C434.466 907.13 433.595 909.279 434.835 909.279C435.73 909.279 441.297 902.83 444.884 897.637C446.75 894.934 448.56 892.722 448.904 892.721C449.51 892.719 458.113 910.55 458.113 911.807C458.113 912.823 463.504 920.978 466.022 923.769C467.305 925.192 470.127 929.577 472.292 933.514C475.942 940.148 478.947 942.632 480.427 940.237C480.748 939.718 480.045 939.294 478.865 939.294C477.276 939.294 476.093 937.886 474.296 933.86C472.962 930.871 470.057 926.242 467.839 923.571C465.621 920.901 462.796 916.709 461.562 914.256C455.942 903.088 450.866 892.106 450.866 891.114C450.866 890.516 453.311 887.417 456.301 884.229C464.752 875.212 468.718 869.079 469.743 863.443C470.597 858.742 470.138 855.354 469.097 858.674Z" fill="black"/>
</svg>
