<svg width="963" height="1050" viewBox="0 0 963 1050" fill="none" xmlns="http://www.w3.org/2000/svg">
<path fill-rule="evenodd" clip-rule="evenodd" d="M787.832 479.017C783.986 475.598 774.53 470.812 774.283 472.157C774.23 472.44 772.94 470.571 771.416 468.002C769.891 465.434 768.372 463.517 768.039 463.745C767.07 464.406 767.129 468.419 768.129 469.946C769.073 471.388 768.236 477.359 766.471 481.762C765.92 483.137 764.665 486.782 763.681 489.861C760.257 500.574 750.774 515.09 742.989 521.534C733.27 529.577 700.477 546.673 690.133 549.087C678.804 551.731 645.111 562.036 639.779 564.487C629.756 569.096 593.792 594.39 592.213 597.942C591.948 598.536 590.626 599.956 589.272 601.098C583.633 605.856 580.075 614.753 584.713 612.496C587.994 610.899 590.527 610.58 592.355 611.533C593.424 612.09 594.762 612.255 595.328 611.9C595.895 611.545 598.909 612.198 602.027 613.353C605.145 614.507 608.929 615.196 610.438 614.885C611.947 614.573 615.721 615.145 618.824 616.155C621.927 617.165 626.358 618.397 628.671 618.895C630.984 619.391 634.423 621.13 636.315 622.758C638.207 624.386 640.305 625.888 640.977 626.096C641.649 626.303 644.907 628.68 648.216 631.378C653.312 635.534 654.417 636.865 655.436 640.072C656.097 642.154 656.261 644.116 655.801 644.43C655.34 644.745 653.759 646.989 652.29 649.416C649.837 653.466 649.073 654.089 643.003 656.981C639.365 658.714 635.498 660.233 634.411 660.357C633.323 660.48 630.015 661.604 627.059 662.855C621.953 665.014 617.196 665.971 600.684 668.163C593.428 669.125 584.378 672.035 576.856 675.823C570.307 679.12 569.302 679.581 566.487 680.571C564.432 681.294 563.91 681.925 564.233 683.291C564.464 684.27 565.189 685.059 565.843 685.045C568.435 684.99 571.561 687.58 575.016 692.643C578.816 698.213 581.335 699.576 591.317 701.461C596.439 702.428 599.703 707.568 598.934 713.45C598.413 717.431 599.552 720.219 600.671 717.703C601.343 716.193 603.681 720.246 603.557 722.703C603.257 728.568 582.824 751.802 571.424 759.24C564.924 763.482 551.014 775.17 551.039 776.37C551.05 776.88 550.081 778.26 548.886 779.436C544.531 783.726 538.688 792.626 537.937 796.113C537.573 797.804 537.825 798.07 539.852 798.136C541.135 798.178 542.653 797.893 543.225 797.503C543.797 797.112 544.88 797.057 545.633 797.38C546.386 797.703 549.153 798.057 551.782 798.168C557.512 798.409 562.695 800.58 564.767 803.608C566.182 805.675 569.219 818.373 568.704 820.068C568.576 820.488 568.634 822.605 568.832 824.773C569.028 826.94 568.917 830.014 568.583 831.605C568.249 833.196 568.153 837.174 568.369 840.447C568.668 844.964 569.151 846.471 570.379 846.708C571.608 846.946 571.582 847.118 570.268 847.434C569.113 847.71 568.732 848.485 569.12 849.776C569.438 850.838 569.271 854.656 568.748 858.263C567.717 865.377 567.841 866.255 569.703 864.985C571.257 863.925 571.873 859.734 571.263 854.368C571.002 852.067 571.222 850.267 571.752 850.366C572.282 850.466 572.017 850.066 571.165 849.476C570.143 848.767 570.028 848.239 570.829 847.925C571.498 847.662 571.811 845.428 571.525 842.96C571.239 840.492 571.045 837.901 571.093 837.202C571.65 829.077 571.287 818.75 570.213 812.122C568.345 800.6 566.039 798.262 554.039 795.719C549.109 794.674 544.627 794.125 544.078 794.499C543.531 794.873 542.912 794.614 542.703 793.924C542.495 793.235 545.459 788.53 549.291 783.47C555.27 775.575 557.619 773.249 565.863 767.058C580.545 756.032 589.871 747.116 598.956 735.417C606.891 725.199 608.174 720.632 604.225 716.672C602.26 714.703 601.924 713.782 602.64 712.342C603.371 710.873 602.812 709.431 599.799 705.014C596.405 700.04 595.703 699.476 592.442 699.111C590.46 698.888 588.681 698.478 588.491 698.199C588.3 697.92 586.45 697.113 584.378 696.407C581.271 695.348 579.707 693.928 575.434 688.284L570.255 681.446L574.038 679.786C576.119 678.873 581.385 676.561 585.74 674.649C592.902 671.504 597.621 670.442 614.452 668.181C620.752 667.335 640.404 661.17 645.321 658.498C652.384 654.659 659.637 644.534 658.406 640.231C657.414 636.763 655.416 633.263 654.21 632.881C653.501 632.657 650.892 630.861 648.414 628.89C645.935 626.92 643.076 624.784 642.06 624.146C641.045 623.507 639.118 621.906 637.779 620.587C635.54 618.383 632.431 617.353 616.618 613.577C613.777 612.899 609.64 612.224 607.424 612.078C605.21 611.932 603.188 611.506 602.932 611.131C602.124 609.946 589.931 607.053 588.849 607.79C588.281 608.177 587.607 608.186 587.35 607.81C585.916 605.708 605.262 588.949 622.546 577.318C638.85 566.348 643.035 564.486 661.774 559.865C685.823 553.935 711.199 544.839 717.763 539.795C719.484 538.474 721.049 537.622 721.241 537.904C721.433 538.185 722.661 537.789 723.969 537.022C742.48 526.178 745.035 524.473 748.056 520.943C749.831 518.87 751.504 516.732 751.774 516.192C752.043 515.654 753.143 514.471 754.218 513.564C756.606 511.55 762.764 501.175 762.127 500.241C761.874 499.87 762.183 499.215 762.815 498.784C763.446 498.353 765.089 494.644 766.465 490.543C767.84 486.443 769.613 481.169 770.406 478.825C771.198 476.481 772.118 474.354 772.451 474.1C773.643 473.189 784.861 480.84 788.388 484.968C790.53 487.475 793.201 492.01 794.999 496.195C796.659 500.056 799.887 507.115 802.173 511.88C811.255 530.81 813.415 536.777 815.942 549.893C816.811 554.402 817.89 558.16 818.34 558.244C818.789 558.33 818.783 558.655 818.326 558.967C817.563 559.487 818.696 565.138 822.274 578.669C823.02 581.489 824.226 586.114 824.954 588.946C826.016 593.086 827.949 596.535 834.799 606.514C839.487 613.345 844.253 620.858 845.39 623.213C847.436 627.45 847.47 629.992 845.47 629.25C844.901 629.039 840.7 628.98 836.134 629.118C827.204 629.389 825.771 629.365 822.175 628.883C820.889 628.711 819.127 628.665 818.259 628.783C817.392 628.9 815.385 629.093 813.802 629.211C812.217 629.329 809.388 630.463 807.515 631.732L804.109 634.037L800.055 629.012C796.274 624.326 787.292 617.894 786.962 619.637C786.884 620.055 785.855 620.031 784.675 619.587C780.819 618.13 771.644 624.125 772.974 627.231C773.243 627.86 773.405 627.91 773.334 627.342C773.182 626.123 778.733 622.914 782.597 621.987C784.09 621.63 786.566 622.013 788.099 622.84C791.806 624.841 798.703 631.864 799.699 634.653C800.247 636.187 800.665 636.498 801.042 635.651C801.405 634.837 801.728 635.004 801.998 636.143C802.574 638.579 804.8 638.179 808.531 634.965C811.258 632.616 812.754 632.165 818.364 631.999C822.003 631.891 825.823 631.95 826.853 632.129C827.884 632.309 831.1 632.342 834 632.202C836.901 632.062 841.16 631.998 843.465 632.06C845.769 632.121 848.329 631.711 849.155 631.147C852.198 629.072 850.721 625.683 839.359 608.671C829.137 593.366 828.413 592.021 827.377 586.406C826.772 583.119 825.43 577.841 824.396 574.676C823.362 571.512 822.209 566.576 821.835 563.707C821.199 558.826 820.415 554.975 817.423 542.03C815.929 535.57 812.451 526.952 805.352 512.132C802.348 505.859 799.371 499.138 798.736 497.197C797.62 493.785 789.825 480.788 787.832 479.017ZM788.055 559.657C785.306 562.145 782.833 566.194 779.069 574.375C774.365 584.598 773.446 585.957 769.315 588.792C763.109 593.05 757.254 599.651 751.441 608.945C745.743 618.055 743.018 624.434 741.228 632.85C740.516 636.197 738.532 641.564 736.818 644.776C733.997 650.063 730.537 659.185 730.471 661.51C730.457 662.015 728.463 665.739 726.041 669.786C720.339 679.314 715.364 684.092 709.076 686.082C703.576 687.821 697.015 692.105 689.269 699.011C675.976 710.863 667.747 717.195 658.473 722.701L648.565 728.584L652.718 723.138C659.246 714.579 663.39 708.824 668.431 701.32C670.999 697.495 673.963 693.778 675.017 693.059C676.072 692.339 677.729 690.326 678.703 688.584C679.675 686.842 683.703 682.442 687.652 678.807C700.661 666.831 706.29 659.241 714.55 642.541C716.509 638.581 719.117 632.037 720.349 627.999C721.578 623.96 722.963 620.398 723.425 620.083C723.886 619.768 724.923 616.746 725.726 613.368C726.531 609.989 727.564 606.095 728.021 604.714C729.207 601.136 733.092 581.889 732.734 581.364C732.294 580.718 733.978 574.397 735.88 569.562C738.114 563.879 736.062 560.892 733.413 565.97C729.033 574.365 726.429 580.973 726.892 582.516C727.739 585.342 725.346 596.982 723.684 598.116C723.278 598.392 722.251 600.865 721.401 603.608C718.286 613.668 717.557 615.612 716.674 616.215C716.178 616.553 715.979 617.133 716.232 617.504C716.485 617.875 715.2 620.748 713.375 623.889C711.551 627.029 710.502 629.795 711.044 630.037C711.586 630.279 711.261 630.833 710.321 631.27C709.382 631.707 708.4 632.551 708.139 633.145C706.645 636.548 702.383 644.123 701.701 644.589C701.261 644.889 700.978 643.311 701.074 641.083C701.444 632.414 698.741 624.092 691.924 612.909L688.018 606.5L690.058 600.976C691.182 597.939 691.612 595.786 691.015 596.193C690.419 596.6 689.346 598.694 688.632 600.846C687.917 602.998 686.93 605.033 686.437 605.369C685.637 605.915 679.903 602.338 674.389 597.852C672.097 595.987 665.593 593.544 661.229 592.909C659.62 592.675 657.721 592.064 657.008 591.552C656.155 590.939 656.119 591.265 656.901 592.505C657.601 593.611 659.275 594.367 660.96 594.335C664.96 594.26 671.536 597.125 676.337 601.035C678.569 602.852 681.845 605.121 683.617 606.077C690.697 609.899 699.827 628.966 699.759 639.791C699.703 648.632 696.034 655.749 685.778 666.907C682.911 670.025 676.023 678.293 670.47 685.28C664.917 692.268 657.53 701.402 654.056 705.581C650.581 709.759 647.557 713.711 647.336 714.362C646.864 715.748 639.646 725.665 638.579 726.393C638.179 726.666 638.477 723.762 639.24 719.939C640.868 711.788 640.294 706.702 637.237 702.221L635.026 698.981L641.653 690.507C645.671 685.367 651.062 679.75 655.351 676.231C659.458 672.863 663.03 669.172 663.872 667.429C665.227 664.624 665.209 664.552 663.593 666.329C662.642 667.375 658.937 670.728 655.361 673.782C648.728 679.445 644.976 683.591 638.681 692.212C636.731 694.883 634.769 696.999 634.323 696.915C633.877 696.83 631.89 694.385 629.909 691.481C627.521 687.981 626.136 686.583 625.801 687.336C625.476 688.067 626.874 690.383 629.727 693.838L634.158 699.206L632.22 701.827C631.154 703.269 630.511 704.783 630.79 705.193C631.476 706.198 632.866 705.166 632.8 703.703C632.771 703.057 633.097 702.29 633.525 701.998C634.795 701.132 637.866 706.606 638.285 710.486C638.78 715.069 635.963 731.469 634.32 733.565C633.634 734.44 633.278 735.455 633.528 735.822C633.779 736.189 633.075 737.109 631.965 737.866C629.793 739.348 620.209 755.895 616.37 764.79C615.08 767.779 612.208 774.631 609.988 780.018C607.769 785.405 605.709 789.979 605.411 790.182C605.112 790.386 604.524 792.036 604.104 793.849C602.708 799.864 598.708 810.843 597.962 810.701C597.558 810.625 598.048 807.928 599.05 804.709C601.439 797.038 601.949 794.14 601.932 788.341C601.915 782.989 600.73 780.588 597.71 779.794C596.598 779.501 592.998 777.557 589.709 775.473C583.178 771.334 580.811 770.336 582.138 772.283C582.603 772.963 586.609 775.579 591.042 778.095C601.268 783.9 602.285 786.402 599.151 798.036C598.064 802.073 596.452 810.64 596.235 813.532C596.109 815.216 594.452 821.256 592.225 828.157C591.657 829.917 590.804 831.623 590.331 831.945C589.858 832.268 589.507 833.225 589.553 834.073C589.598 834.92 588.631 838.134 587.404 841.215C586.177 844.296 584.554 848.704 583.798 851.012C582.22 855.824 569.046 880.845 568.506 880.055C568.309 879.766 568.867 876.591 569.745 872.998C570.623 869.407 571.154 866.191 570.924 865.855C569.672 864.02 567.863 867.986 565.975 876.71C564.805 882.114 562.567 888.649 561.001 891.233C557.058 897.736 536.946 922.931 529.997 930.072C528.236 931.883 524.767 935.58 522.288 938.291C518.167 942.796 516.057 944.888 510.734 949.746C509.709 950.683 508.398 952.153 507.821 953.017C506.507 954.981 506.021 954.33 506.378 951.079C506.704 948.109 505.579 943.182 502.41 933.695C496.868 917.106 487.075 884.59 483.507 870.931C482.252 866.128 480.359 860.61 479.299 858.67C478.24 856.729 477.111 853.954 476.788 852.503C475.256 845.594 462.187 823.638 448.608 805.16C442.836 797.307 430.477 782.915 424.026 776.535C422.034 774.564 417.022 769.601 412.888 765.504C408.755 761.407 404.201 756.339 402.77 754.24C401.339 752.143 398.887 749.397 397.321 748.139C382.142 735.94 363.87 714.929 346.781 690.02C331.598 667.888 326.09 658.519 318.848 642.497C315.627 635.373 311.709 626.89 310.142 623.646C307.461 618.096 305.792 613.913 303.489 606.974C302.949 605.345 300.76 598.939 298.625 592.739C296.49 586.539 294.313 578.915 293.786 575.796C293.261 572.678 292.369 568.928 291.805 567.463C290.783 564.807 288.145 548.983 288.493 547.597C288.594 547.195 288.13 542.609 287.461 537.406C286.792 532.203 286.479 527.604 286.767 527.187C287.054 526.768 286.99 525.987 286.624 525.451C285.782 524.216 285.16 499.101 285.772 491.031C286.026 487.689 285.889 484.65 285.468 484.278C285.048 483.906 285.165 483.279 285.729 482.887C286.862 482.097 286.962 474.511 285.862 472.841C285.479 472.26 285.853 467.604 286.692 462.493C287.531 457.382 287.754 452.994 287.188 452.742C286.622 452.49 286.522 452.16 286.968 452.007C287.412 451.855 288.808 446.423 290.068 439.935C291.329 433.447 293.012 426.332 293.808 424.124C294.604 421.917 295.591 418.206 296.001 415.878C296.41 413.55 297.973 408.456 299.474 404.556C300.975 400.657 302.003 397.174 301.759 396.815C301.515 396.457 301.907 395.41 302.63 394.487C303.354 393.564 304.237 391.265 304.593 389.379C304.949 387.493 305.392 386.171 305.577 386.442C306.324 387.537 314.739 362.899 315.956 356.051C316.259 354.347 317.013 352.606 317.631 352.184C318.25 351.762 319.067 349.552 319.447 347.274C320.327 341.994 324.014 334.147 325.649 334.074C326.339 334.043 327.277 332.244 327.735 330.076C328.192 327.91 328.963 326.211 329.447 326.302C329.932 326.394 329.809 329.143 329.174 332.413C328.037 338.276 328.073 338.43 331.823 343.673C335.515 348.836 343.663 355.003 345.308 353.881C346.379 353.15 344.527 351.005 341.335 349.283C339.735 348.42 336.84 345.535 334.902 342.872C331.071 337.607 330.973 336.398 333.512 325.806C334.161 323.099 334.343 320.37 333.916 319.744C333.488 319.117 333.51 318.35 333.964 318.04C334.418 317.73 334.314 316.778 333.732 315.925C333.15 315.073 332.923 313.506 333.228 312.444C333.532 311.382 333.242 310.14 332.583 309.683C331.923 309.226 330.834 306.38 330.161 303.357C329.099 298.579 328.15 296.85 322.894 290.101L316.849 282.342L322.627 281.76C333.226 280.694 337.642 283.739 342.026 295.135C343.826 299.813 344.616 303.93 344.42 307.6C344.096 313.656 345.557 327.934 346.666 329.56C347.055 330.13 348.502 330.455 349.883 330.283C353.182 329.871 361.059 331.157 361.853 332.238C362.721 333.422 370.069 335.491 369.284 334.331C367.806 332.143 356.252 328.314 352.776 328.86C350.757 329.176 348.662 329.239 348.121 328.998C346.689 328.361 345.346 314.373 345.938 306.239C346.805 294.304 346.846 292.563 346.279 291.731C345.682 290.857 347.787 288.069 350.413 286.258C354.572 283.39 367.952 298.585 371.71 310.445C374.656 319.738 376.715 322.953 380.487 324.143C382.315 324.72 384.173 324.944 384.616 324.641C386.028 323.678 392.441 325.812 395.35 328.213C404.731 335.957 409.259 353.119 404.621 363.349C403.855 365.037 402.712 366.771 402.079 367.203C401.446 367.635 401.025 368.395 401.142 368.893C401.26 369.39 400.675 370.655 399.843 371.705C398.372 373.561 398.275 373.499 396.315 369.438C393.837 364.307 390.285 360.638 386.843 359.652C385.413 359.243 383.206 358.587 381.939 358.194C380.672 357.801 376.703 357.579 373.118 357.699C365.238 357.964 349.994 355.73 348.917 354.152C348.491 353.527 347.913 353.53 347.633 354.159C347.296 354.918 347.888 355.487 349.392 355.85C350.639 356.15 351.896 356.743 352.184 357.166C353.557 359.178 374.737 361.646 377.056 360.064C378.258 359.243 386.452 363.11 390.024 366.184C392.964 368.716 393.66 369.891 394.631 373.967C395.26 376.606 395.535 378.948 395.242 379.17C394.948 379.391 394.349 380.638 393.91 381.941C393.225 383.975 393.363 384.303 394.88 384.249C397.221 384.168 397.707 383.787 398.202 381.651C398.691 379.543 400.169 376.421 405.533 366.161C410.052 357.52 410.236 355.699 407.737 344.399C406.284 337.83 405.144 335.074 402.166 330.925C398.87 326.334 397.746 325.472 392.784 323.723C389.684 322.63 385.762 321.642 384.07 321.527C380.256 321.268 378.577 318.944 374.916 308.864C373.4 304.691 371.254 299.948 370.145 298.323L368.13 295.369L371.875 296.866C373.935 297.689 377.472 298.881 379.735 299.515C381.998 300.149 384.097 301.029 384.399 301.471C385.101 302.501 395.726 306.098 399.269 306.506C400.754 306.678 404.859 307.145 408.394 307.545C418.827 308.725 419.527 308.998 421.015 312.469C421.227 312.964 423.4 316.656 425.845 320.674C433.126 332.646 439.121 336.071 453.946 336.733C463.471 337.158 465.736 337.966 469.932 342.437C472.017 344.659 472.675 346.632 473.399 352.83C474.286 360.434 476.392 365.271 478.768 365.163C479.451 365.132 480.626 361.776 481.378 357.703C482.131 353.63 483.691 348.578 484.846 346.476C490.39 336.378 493.296 325.934 492.031 320.66C491.704 319.298 490.059 316.165 488.376 313.698C485.639 309.686 484.733 309.063 479.827 307.821C476.808 307.057 473.108 306.325 471.603 306.195C468.156 305.897 465.528 303.706 466.658 302.074C467.124 301.401 467.17 300.36 466.762 299.761C466.353 299.162 466.625 295.585 467.368 291.812C468.731 284.882 468.16 276.971 466.078 273.918C465.455 273.005 465.316 272.004 465.771 271.694C467.161 270.745 463.345 266.083 461.529 266.512C460.621 266.727 460.064 266.443 460.292 265.881C460.781 264.675 456.793 261.111 454.05 260.303C451.428 259.529 439.975 261.03 432.391 263.142C427.065 264.624 424.084 266.239 414.102 273.049C407.043 277.866 401.738 280.991 401.102 280.708C400.458 280.421 401.287 279.37 403.173 278.081C412.048 272.017 424.403 253.419 429.037 239.145C432.74 227.741 436.373 202.902 435.609 194.216C434.983 187.113 434.066 168.049 434.311 167.258C434.442 166.836 434.742 162.817 434.978 158.329C435.498 148.48 437.357 136.506 438.829 133.532C441.116 128.912 443.923 121.532 444.338 119.043C444.872 115.851 440.759 108.784 438.429 108.889C436.877 108.959 439.723 101.94 444.781 93.2156C445.928 91.2373 446.747 89.4434 446.601 89.2295C445.786 88.0342 443.741 91.3337 440.199 99.5562C437.112 106.724 435.549 109.197 433.246 110.562C431.613 111.53 429.672 113.15 428.933 114.162C427.159 116.593 426.297 116.306 425.403 112.991C424.906 111.148 425.541 108.789 427.342 105.777C430.101 101.165 433.849 88.4442 432.53 88.1671C432.122 88.0822 431.212 90.7483 430.506 94.0914C428.807 102.144 425.39 108.509 423.116 107.857C421.013 107.253 421.485 105.218 426.514 93.2024C428.625 88.1636 429.932 84.3193 429.42 84.6602C428.245 85.4422 422.539 99.4798 421.539 104.049C420.681 107.974 418.837 109.794 418.247 107.3C418.033 106.393 417.4 104.982 416.842 104.164C416.214 103.244 416.956 99.9674 418.785 95.5743C421.613 88.7843 422.772 84.3373 421.486 85.2148C421.156 85.4402 420.254 87.6109 419.484 90.0381C416.968 97.965 414.158 103.468 411.199 106.265C408.747 108.584 408.47 109.431 409.429 111.69C410.054 113.163 410.157 115.99 409.657 117.973C407.457 126.697 406.936 128.324 404.518 134.007C403.111 137.313 401.932 140.376 401.898 140.814C401.667 143.78 397.944 151.85 392.76 160.622C384.377 174.809 378.266 186.119 377.153 189.51C376.638 191.082 375.595 192.791 374.835 193.309C374.076 193.827 372.83 196.039 372.065 198.225C371.301 200.412 370.36 202.415 369.974 202.679C369.589 202.942 368.275 206.017 367.055 209.512C365.835 213.008 364.449 216.133 363.976 216.456C363.501 216.779 363.316 217.34 363.564 217.703C363.811 218.065 362.566 222.321 360.795 227.158C359.025 231.996 356.85 238.191 355.963 240.925C353.241 249.316 345.33 263.977 340.53 269.527C335.973 274.795 335.972 274.797 333.063 274.139L330.154 273.483L333.496 267.259C335.333 263.836 337.314 260.302 337.897 259.404C339.848 256.405 346.376 236.227 350.828 219.441C353.251 210.305 355.934 201.064 356.792 198.906C357.65 196.748 359.742 191.42 361.442 187.068C363.142 182.714 366.415 176.333 368.715 172.886C371.015 169.439 374.24 164.378 375.882 161.64C377.524 158.902 379.278 156.382 379.78 156.04C381.681 154.743 392.029 138.863 397.935 128.182C401.317 122.066 404.638 114.673 405.314 111.751C405.991 108.83 407.44 105.491 408.534 104.331C410.557 102.184 415.237 89.5 415.912 84.339C416.593 79.1203 415.039 82.2815 413.302 89.6453C412.357 93.65 410.626 98.6797 409.454 100.823L407.324 104.72L406.561 102.438C406.141 101.183 406.391 98.1166 407.116 95.6247C409.266 88.234 410.508 81.8338 409.816 81.7031C409.46 81.6359 408.407 85.0824 407.474 89.3613C406.542 93.6411 405.3 97.4687 404.715 97.8677C403.038 99.0118 400.297 97.9004 400.617 96.2051C400.805 95.2115 400.184 95.2791 398.618 96.4217C397.368 97.3321 395.135 98.4977 393.654 99.0095C389.526 100.439 391.434 101.569 396.193 100.514C398.507 100.002 400.622 99.8429 400.895 100.161C401.168 100.48 402.048 101.505 402.85 102.439C404.472 104.326 403.099 115.209 400.883 118.037C400.171 118.944 399.826 120.033 400.115 120.457C400.404 120.88 400.29 121.466 399.862 121.759C399.433 122.051 396.494 126.726 393.331 132.148C385.918 144.851 383.54 148.632 382.527 149.323C381.293 150.165 369.789 167.314 365.011 175.436C360.724 182.722 357.322 190.559 356.457 195.139C356.191 196.55 355.446 198.064 354.802 198.503C354.159 198.942 353.708 199.678 353.8 200.14C353.893 200.6 353.174 203.406 352.203 206.374C351.232 209.343 350.381 212.087 350.311 212.473C349.588 216.506 344.111 235.998 341.864 242.535C340.284 247.129 339.2 251.191 339.454 251.564C339.707 251.936 339.444 252.562 338.868 252.955C338.292 253.348 337.12 255.424 336.266 257.569C335.41 259.713 333.852 262.425 332.802 263.594C331.751 264.764 330.683 266.83 330.427 268.187C330.171 269.542 328.848 271.375 327.487 272.26C325.197 273.749 324.878 273.646 323.216 270.878C318.801 263.526 319.484 244.89 324.61 232.847C325.579 230.571 325.873 228.488 325.266 228.217C324.562 227.904 323.962 228.55 323.613 229.993C323.313 231.24 322.8 232.443 322.474 232.665C321.009 233.665 317.426 253.498 317.457 260.438C317.476 264.897 317.36 265.117 315.674 263.796C311.1 260.211 308.507 254.598 307.661 246.451C306.009 230.552 310.809 214.459 324.377 190.411C331.863 177.142 332.908 175.419 340.892 163.181C343.333 159.439 346.104 155.117 347.049 153.575C347.995 152.033 351.035 147.307 353.806 143.073C366.567 123.565 372.455 111.098 374.346 99.5818C375.548 92.2617 375.774 91.8072 378.37 91.528C383.324 90.9937 386.682 94.2897 384.449 97.4956C383.719 98.545 383.835 98.6253 385.022 97.8917C386.819 96.7804 387.344 97.4551 387.186 100.676C387.018 104.113 387.821 104.838 388.956 102.274C389.489 101.073 389.393 98.4106 388.742 96.3571C388.093 94.3037 387.808 92.4546 388.112 92.2477C388.414 92.0415 390 87.9635 391.634 83.1861C393.269 78.4087 394.226 74.7597 393.759 75.0781C393.293 75.3966 391.726 79.1859 390.277 83.4997L387.642 91.3422L384.681 89.9533C383.052 89.1894 380.3 88.9085 378.564 89.329C376.102 89.9262 375.445 89.7149 375.572 88.3695C375.74 86.5914 373.06 83.6257 370.563 82.8259C368.864 82.2811 372.272 74.44 375.756 70.8804C377.004 69.6055 377.799 68.2302 377.522 67.8238C376.701 66.6211 373.372 70.8791 370.884 76.313C369.552 79.2219 367.553 81.9516 366.184 82.7307C360.912 85.7295 358.565 89.4175 356.878 97.3541C354.077 110.526 349.417 121.305 341.122 133.798C339.131 136.797 340.042 138.894 342.183 136.24C344.899 132.871 353.918 116.623 353.451 115.938C353.197 115.566 353.74 114.417 354.658 113.383C355.576 112.35 356.966 108.346 357.748 104.486C358.53 100.626 359.33 97.3575 359.527 97.2228C359.724 97.0887 360.114 95.7683 360.393 94.2898C361.044 90.8462 365.501 85.4275 367.098 86.1371C367.724 86.4166 368.453 86.4507 368.717 86.2141C370.186 84.8941 370.836 84.8225 371.182 85.9422C371.395 86.63 372.031 88.3384 372.597 89.7391C373.651 92.3489 372.034 101.848 369.129 110.113C367.52 114.691 360.757 127.221 353.497 139.072C351.45 142.415 348.597 147.289 347.158 149.905C345.718 152.521 344.139 154.934 343.649 155.268C343.16 155.602 340.919 158.83 338.669 162.441C336.419 166.053 334.026 169.796 333.352 170.759C332.678 171.723 329.408 177.157 326.087 182.835C322.766 188.514 319.744 193.368 319.371 193.623C318.998 193.877 318.611 194.958 318.51 196.026C318.409 197.094 317.629 198.443 316.777 199.025C315.923 199.607 315.479 200.455 315.789 200.909C316.099 201.363 315.994 201.98 315.555 202.279C313.901 203.408 309.475 215.301 308.761 220.533C308.586 221.818 308.122 223.088 307.729 223.356C306.545 224.164 303.956 240.345 304.81 241.597C305.248 242.238 305.362 243.109 305.066 243.533C304.771 243.957 304.742 246.247 305.004 248.622C305.45 252.659 305.349 252.87 303.45 251.88C302.333 251.298 300.439 249.384 299.241 247.628C298.042 245.872 296.353 244.301 295.486 244.137C294.312 243.915 293.82 242.516 293.553 238.642C293.357 235.784 292.797 232.861 292.31 232.147C291.823 231.432 291.796 230.595 292.25 230.285C292.705 229.975 292.71 229.184 292.263 228.528C291.816 227.873 292.126 225.074 292.952 222.308C293.781 219.542 295.363 214.077 296.471 210.165C297.58 206.252 298.948 202.731 299.514 202.339C300.079 201.948 300.278 201.241 299.956 200.769C299.34 199.867 306.654 186.562 308.431 185.35C308.998 184.962 310.327 182.897 311.386 180.757C312.444 178.619 316.819 172.065 321.108 166.194C325.397 160.323 329.086 154.951 329.305 154.255C329.525 153.56 330.868 151.505 332.291 149.687C333.714 147.869 335.267 145.376 335.743 144.148C337.395 139.878 333.989 143.485 327.481 152.897C317.949 166.681 317.579 166.949 319.382 158.77C321.171 150.652 320.693 147.769 316.55 141.697C313.358 137.018 311.187 135.046 310.069 135.809C309.696 136.063 306.305 136.462 302.532 136.695C294.208 137.206 285.457 139.444 279.843 142.496C276.047 144.559 263.201 155.463 261.27 158.261C261.102 158.504 260.557 158.877 260.057 159.09C259.557 159.303 255.704 162.439 251.495 166.059C242.467 173.823 238.684 175.485 236.306 172.737C232.148 167.932 227.711 166.034 220.888 166.141C217.337 166.197 211.631 169.608 209.161 173.149C207.119 176.079 207.796 176.903 211.507 176.003C215.476 175.041 220.085 176.924 220.417 179.643C220.902 183.605 224.604 191.822 226.971 194.196C229.496 196.728 234.2 198.467 235.719 197.431C236.21 197.095 237.436 197.213 238.441 197.692C239.447 198.17 240.059 198.23 239.803 197.825C239.546 197.42 240.05 197.136 240.923 197.195C242.626 197.311 247.979 195.119 253.096 192.21C261.029 187.702 267.352 189.377 268.334 196.247C268.586 198.009 269.26 200.136 269.832 200.975C270.404 201.814 270.537 202.729 270.127 203.009C268.83 203.893 270.994 209.776 274.514 214.935C277.807 219.761 277.832 219.896 275.349 219.36C273.94 219.055 272.281 218.171 271.661 217.396C269.54 214.74 248.027 211.699 247.594 213.993C247.504 214.462 246.408 214.458 245.155 213.986C243.903 213.513 242.459 213.412 241.946 213.762C241.433 214.112 239.682 214.189 238.054 213.934C232.899 213.127 221.865 216.691 216.898 220.768C213.278 223.74 205.978 232.961 199.396 242.873C197.659 245.489 193.304 248.499 192.648 247.537C192.374 247.136 191.128 247.104 189.877 247.467C184.367 249.068 178.578 251.045 177.605 251.66C175.797 252.803 178.139 254.873 180.656 254.357C186.218 253.214 190.889 255.605 195.074 261.739C198.747 267.123 204.708 269.301 212.221 268.007C215.775 267.395 218.541 265.96 225.636 261.054C233.027 255.942 235.421 254.729 239.462 254.051C242.15 253.598 244.819 252.92 245.394 252.542C245.968 252.165 247.6 252.018 249.018 252.215C253.746 252.873 255.651 252.937 255.303 252.428C255.114 252.15 255.897 252.1 257.043 252.317C259.939 252.864 260.908 254.558 258.612 255.06C257.597 255.281 254.199 256.62 251.059 258.038C246.089 260.282 245.025 261.13 242.827 264.603C240.298 268.599 238.182 275.241 239.039 276.497C239.291 276.866 239.432 279.799 239.355 283.016C239.277 286.233 239.603 292.344 240.077 296.598C241.83 312.304 241.292 319.028 237.957 323.092C236.697 324.627 232.298 327.796 227.733 330.456C220.956 334.405 219.85 335.314 220.56 336.355C221.349 337.511 237.324 337.973 238.918 336.885C239.322 336.609 240.481 336.621 241.493 336.912C244.473 337.766 261.982 335.678 264.08 334.218C267.742 331.669 270.553 325.306 271.797 316.747C272.484 312.02 273.879 306.08 274.896 303.547C276.565 299.395 277.283 298.639 282.172 295.894C285.156 294.219 289.279 292.503 291.333 292.079C293.389 291.657 296.9 290.062 299.137 288.536L303.203 285.762L307.903 291.937C316.803 303.631 317.037 304.895 313.637 322.829C311.96 331.675 304.305 356.071 301.258 362.279C300.576 363.669 299.834 365.375 299.608 366.07C299.383 366.766 297.248 372.46 294.864 378.724C292.479 384.989 290.106 392.021 289.589 394.351C289.073 396.682 288.418 398.748 288.132 398.943C287.44 399.415 287.066 400.645 284.384 411.271C280.327 427.341 276.162 446.241 276.552 446.812C276.76 447.117 276.432 450.428 275.823 454.171C274.338 463.289 273.463 472.556 273.653 477.162C273.738 479.239 273.5 484.003 273.124 487.751C272.501 493.975 272.611 517.156 273.321 529.019C273.481 531.693 273.481 534.64 273.321 535.568C272.836 538.362 274.604 550.238 275.568 550.667C276.062 550.886 276.382 551.959 276.278 553.05C276.126 554.667 276.401 555.018 277.768 554.956C279.103 554.896 279.378 555.232 279.119 556.605C278.859 557.98 278.641 558.109 278.048 557.239C276.497 554.967 276.262 559.757 277.695 564.442C278.481 567.016 280.491 574.453 282.162 580.97C287.801 602.968 295.607 628.321 299.104 635.993C300.377 638.786 302.605 644.075 304.055 647.747C314.463 674.103 323.724 692.009 337.607 712.622C349.431 730.175 364.966 751.241 366.636 751.984C367.104 752.192 371.647 757.617 376.732 764.04C385.625 775.274 392.973 783.011 406.478 795.368C422.49 810.016 445.661 844.28 453.684 865.173C457.442 874.957 461.691 888.926 461.392 890.511C461.302 890.988 461.862 892.309 462.639 893.446C464.488 896.156 469.242 920.559 468.082 921.385C467.746 921.625 467.96 922.538 468.558 923.415C469.156 924.29 469.507 925.822 469.339 926.816C469.17 927.81 469.536 932.54 470.153 937.324C470.768 942.109 471.092 947.232 470.872 948.708C470.651 950.184 471.106 954.332 471.882 957.923C472.658 961.516 473.318 965.802 473.349 967.448C473.38 969.095 473.442 971.295 473.487 972.336C473.532 973.378 473.606 977.182 473.652 980.79C473.727 986.808 474.589 991.934 475.604 992.403C475.829 992.508 475.841 993.045 475.629 993.596C475.416 994.149 475.896 996.607 476.693 999.059C478.055 1003.24 478.457 1008.5 477.734 1012.66C477.561 1013.66 478.435 1015.96 479.677 1017.78C481.443 1020.37 482.858 1021.27 486.18 1021.89C490.308 1022.67 490.567 1022.58 495.49 1018.42C498.274 1016.07 500.975 1013.34 501.491 1012.35C502.007 1011.36 503.315 1009.95 504.398 1009.21C509.683 1005.6 524.744 984.089 526.313 977.903C527.694 972.461 541.218 951.404 544.983 948.836C545.799 948.279 546.58 947.222 546.719 946.485C546.858 945.749 550.087 942.337 553.893 938.902C557.699 935.467 560.68 932.46 560.516 932.22C560.095 931.601 550.429 938.752 548.525 941.092C547.495 942.358 546.92 942.614 546.885 941.823C546.855 941.153 549.637 936.922 553.068 932.422C556.5 927.921 559.479 923.691 559.689 923.023C559.899 922.355 561.371 920.52 562.959 918.945C565.584 916.34 574.482 901.581 574.601 899.634C574.741 897.358 581.534 888.791 585.161 886.316C593.327 880.745 600.289 882.829 605.312 892.346C606.903 895.364 608.309 897.337 608.434 896.733C608.942 894.292 603.599 885.918 600.06 883.607C596.591 881.342 590.048 881.662 584.505 884.368C581.864 885.656 580.113 886.362 580.613 885.939C582.445 884.384 586.283 874.292 585.221 873.82C584.604 873.545 584.703 873.306 585.448 873.273C587.093 873.199 589.779 867.145 591.332 860.014C591.63 858.644 592.242 857.274 592.692 856.967C593.143 856.659 593.817 854.566 594.189 852.314C594.561 850.063 595.115 848.051 595.419 847.843C595.723 847.636 596.427 845.561 596.985 843.233C598.867 835.37 600.052 831.369 600.609 830.987C600.916 830.778 601.655 828.855 602.253 826.716C602.851 824.575 604.031 822.661 604.875 822.461C606.639 822.044 613.172 811.794 616.277 804.576C619.083 798.05 625.422 789.846 630.147 786.621C632.351 785.118 636.202 783.629 639.207 783.117C646.593 781.859 649.827 783.826 662.932 797.544C663.702 798.35 665.17 800.172 666.195 801.592C667.541 803.458 668.636 804.001 670.143 803.549C672.617 802.806 673.242 801.098 671.002 801.199C669.403 801.272 666.387 798.638 658.663 790.428C656.267 787.88 652.825 784.832 651.016 783.657C649.207 782.482 647.787 781.201 647.86 780.813C648.316 778.401 674.625 751.181 677.057 750.605C677.729 750.446 678.254 749.752 678.223 749.061C678.09 746.133 672.159 751.628 650.348 774.887L645.007 780.583L638.668 781.722C632.952 782.748 631.848 783.286 627.423 787.2C622.268 791.758 615.888 800.597 613.89 805.946C612.583 809.448 606.296 821.053 605.361 821.691C605.035 821.914 605.116 821.058 605.543 819.79C606.139 818.019 606.022 817.667 605.044 818.276C604.039 818.903 603.954 818.685 604.644 817.237C605.125 816.229 605.879 813.824 606.32 811.893C606.761 809.963 607.443 808.165 607.835 807.897C608.228 807.629 608.954 805.499 609.45 803.163C609.947 800.827 610.709 798.673 611.144 798.376C611.579 798.079 612.56 795.842 613.323 793.405C616.392 783.614 629.98 757.527 636.387 749.127C638.272 746.656 640.445 743.454 641.217 742.011C641.989 740.569 643.083 739.07 643.649 738.679C644.215 738.289 644.442 737.622 644.152 737.199C643.093 735.646 646.886 732.495 665.374 719.567C675.756 712.306 685.214 705.383 686.391 704.181C691.326 699.144 693.517 697.297 699.244 693.345C709.398 686.341 723.449 681.988 731.661 683.305C735.367 683.9 742.727 692.488 748.397 702.833C754.595 714.143 757.493 718.213 759.04 717.781C760.141 717.473 759.982 717.174 758.231 716.261C756.535 715.377 755.391 713.542 753.083 708.003C747.62 694.891 737.577 682.684 731.413 681.661C729.74 681.383 726.391 681.489 723.972 681.896C721.552 682.302 719.42 682.434 719.234 682.186C719.049 681.94 720.395 680.034 722.225 677.951C725.959 673.704 733.198 659.547 733.862 655.192C734.1 653.628 735.248 650.882 736.412 649.09C739.105 644.947 741.531 638.364 743.474 629.93C745.259 622.181 755.561 603.544 761.159 597.937C769.464 589.621 777.096 586.331 784.352 587.938C787.623 588.663 796.572 588.336 797.878 587.444C799.246 586.512 797.181 585.914 794.375 586.431C792.638 586.75 788.768 586.588 785.777 586.07C782.786 585.55 779.387 585.411 778.225 585.76C774.544 586.863 774.639 586.209 779.573 576.382C780.985 573.57 782.642 569.915 783.256 568.257C783.869 566.599 786.297 563.569 788.649 561.523C791.001 559.478 792.683 557.449 792.387 557.014C792.064 556.54 790.333 557.596 788.055 559.657ZM437.51 87.6051C437.1 87.8882 436.243 91.1833 435.605 94.9271C434.845 99.3834 433.373 103.202 431.344 105.981C429.638 108.317 428.434 110.509 428.669 110.853C429.773 112.471 436.328 100.302 437.207 95.0023C438.095 89.6585 438.197 87.1298 437.51 87.6051ZM442.281 118.846C437.101 130.399 433.328 143.967 432.726 153.207C432.21 161.136 431.669 172.964 431.763 174.249C431.817 174.984 432.057 178.45 432.294 181.95C432.532 185.45 432.942 190.618 433.205 193.434C433.745 199.2 431.998 217.503 430.079 226.194C428.18 234.791 427.21 238.13 425.001 243.671C422.559 249.795 422.342 250.294 419.3 256.812C417.55 260.565 410.841 268.229 402.415 276.104C396.238 281.879 387.604 286.658 379.412 288.84C366.073 292.391 363.148 292.076 369.467 287.765C374.735 284.17 383.992 274.634 388.857 267.79C391.179 264.523 394.355 260.128 395.914 258.022C398.249 254.87 405.893 241.756 406.465 239.921C406.552 239.641 406.264 239.345 405.824 239.263C405.385 239.18 403.195 242.29 400.957 246.176C396.514 253.89 388.105 265.919 383.66 270.916C378.208 277.047 370.024 284.916 366.766 287.161L363.472 289.43L358.671 285.497C356.029 283.334 353.525 281.06 353.105 280.445C352.685 279.829 351.061 279.036 349.494 278.683C347.807 278.302 346.841 277.602 347.125 276.965C347.388 276.374 350.623 272.54 354.313 268.445C364.005 257.693 378.354 234.757 382.915 222.726C383.546 221.061 384.375 219.481 384.756 219.214C385.137 218.948 386.196 216.454 387.11 213.674C388.023 210.894 389.789 206.297 391.035 203.458C392.28 200.62 394.572 192.178 396.126 184.697C401.533 158.678 402.342 155.173 403.052 154.688C403.446 154.42 403.387 153.643 402.922 152.961C402.457 152.28 402.449 151.469 402.903 151.159C403.357 150.849 403.46 150.201 403.132 149.72C402.804 149.239 402.32 149.329 402.058 149.92C401.795 150.51 401.462 150.821 401.318 150.61C401.174 150.399 402.913 145.164 405.184 138.977C407.455 132.79 409.886 125.374 410.585 122.495C411.285 119.617 412.136 117.06 412.477 116.812C412.818 116.563 412.829 114.637 412.503 112.529C411.798 107.983 413.768 105.756 415.157 109.526C416.228 112.436 415.872 116.889 414.491 117.83C412.992 118.853 410.15 135.115 410.083 143.051C410.029 149.499 405.643 172.232 402.466 182.537C401.731 184.92 400.813 188.366 400.426 190.194C399.803 193.135 398.6 196.92 394.091 210.121C393.427 212.066 391.784 216.437 390.44 219.834C389.096 223.231 387.955 226.349 387.903 226.762C387.691 228.482 372.145 260.519 371.19 261.205C370.617 261.616 368.913 264.136 367.404 266.803C365.895 269.471 364.176 271.989 363.584 272.398C362.992 272.808 362.979 273.353 363.556 273.609C364.851 274.186 371.675 264.634 375.597 256.75C377.16 253.609 379.974 248.098 381.851 244.506C385.348 237.806 394.871 214.075 398.021 204.206C398.991 201.168 400.392 196.906 401.134 194.736C401.876 192.565 402.651 189.93 402.858 188.877C403.064 187.826 403.916 184.61 404.752 181.733C410.456 162.078 414.438 136.324 411.945 135.216C411.369 134.96 411.299 134.625 411.792 134.472C412.284 134.318 413.495 131.041 414.483 127.187C416.647 118.751 420.011 111.197 421.34 111.788C421.874 112.025 422.682 113.605 423.139 115.299C423.885 118.066 423.601 119.715 421.149 126.855C420.692 128.186 420.959 129.121 421.913 129.535C423.119 130.058 423.492 129.748 424.023 127.782C424.379 126.469 424.983 125.321 425.367 125.23C425.751 125.14 426.412 123.501 426.836 121.587C427.669 117.824 434.019 111.597 435.224 113.363C435.572 113.873 436.096 113.754 436.389 113.097C437.194 111.286 439.836 112.81 441.191 115.869C441.854 117.365 442.344 118.705 442.281 118.846ZM404.921 77.1475C404.631 77.3453 403.967 80.1701 403.445 83.4256C402.921 86.6808 402.026 90.2479 401.453 91.3521C400.88 92.4558 400.762 93.4252 401.19 93.506C402.104 93.6787 405.571 81.9045 405.499 78.872C405.471 77.7262 405.211 76.9497 404.921 77.1475ZM397.233 83.3685C396.295 87.3421 394.745 91.8562 393.788 93.4003C392.167 96.0122 392.039 98.0425 393.56 97.0044C395.353 95.7814 400.45 78.3639 399.446 76.8919C399.166 76.4813 398.17 79.3955 397.233 83.3685ZM770.483 627.926C770.002 628.254 770.091 628.738 770.682 629C771.273 629.263 771.073 629.944 770.239 630.513C768.71 631.557 767.692 636.151 768.672 637.587C768.962 638.012 768.953 640.01 768.651 642.027C767.404 650.353 771.166 664.419 778.34 678.252C781.2 683.768 785.669 695.795 787.147 701.957C787.521 703.521 788.153 704.86 788.55 704.936C788.947 705.01 789.215 705.705 789.145 706.48C789.077 707.254 789.597 709.128 790.303 710.644C791.719 713.689 792.634 717.2 793.916 724.521C795.322 732.541 795.565 733.343 798.652 740.127C800.285 743.713 801.586 747.673 801.546 748.924C801.475 751.091 801.256 751.249 796.991 752.229C791.393 753.514 789.787 753.376 784.062 751.117C771.912 746.321 751.124 745.321 745.288 749.252C741.734 751.646 740.683 750.857 740.003 745.284C739.691 742.731 738.609 740.638 736.015 737.568C732.294 733.164 729.011 732.045 722.191 732.858C714.896 733.728 700.426 741.608 701.97 743.871C702.266 744.304 701.984 744.682 701.343 744.712C698.516 744.84 692.505 768.394 693.412 775.787C693.622 777.504 693.748 779.486 693.69 780.191C693.633 780.896 693.437 788.237 693.256 796.506C693.074 804.773 692.76 812.944 692.558 814.664C692.356 816.383 692.286 818.233 692.402 818.775C693.186 822.433 694.103 843.509 693.516 844.356C692.756 845.455 663.825 840.555 662.878 839.167C662.577 838.726 662.116 838.849 661.853 839.44C661.591 840.031 661.118 840.136 660.804 839.675C659.649 837.983 651.652 835.481 649.546 836.154C645.9 837.32 640.41 841.278 638.683 843.986C633.725 851.76 631.306 866.57 631.384 888.677C631.399 892.994 631.274 897.71 631.106 899.156C630.938 900.603 631.021 903.734 631.291 906.115C631.728 909.972 630.074 923.839 628.961 925.638C628.724 926.021 628.263 928.697 627.936 931.583C627.609 934.469 627.009 936.933 626.601 937.058C626.193 937.184 626.111 938.125 626.419 939.151C626.937 940.877 624.064 955.41 623.071 956.087C622.829 956.253 622.028 958.201 621.293 960.415C619.508 965.795 618.075 965.935 617.522 960.782C617.274 958.459 616.606 955.877 616.038 955.046C615.471 954.214 614.375 950.612 613.604 947.041C611.571 937.63 604.844 928.003 597.785 924.4C591.668 921.279 582.973 920.97 574.644 923.578C567.895 925.691 560.411 930.292 561.39 931.726C561.771 932.284 562.921 931.814 564.316 930.528C567.691 927.419 581.276 923.093 585.109 923.908C585.499 923.99 587.255 924.011 589.013 923.955C597.239 923.689 609.2 937.081 611.111 948.693C611.637 951.895 612.516 955.18 613.065 955.993C613.613 956.807 614.384 959.94 614.777 962.956C615.642 969.586 616.01 970.208 618.603 969.431C619.926 969.033 621.366 967.137 622.771 963.944C626.405 955.688 629.687 944.367 629.498 940.745C629.398 938.85 629.664 937.062 630.088 936.773C630.512 936.484 630.789 934.524 630.705 932.417C630.622 930.311 631.342 926.142 632.307 923.153C633.272 920.165 633.823 917.337 633.533 916.869C633.242 916.402 633.278 914.198 633.613 911.973C634.098 908.75 634.306 892.099 634 881.121C633.938 878.92 634.015 877.761 634.955 866.871C635.353 862.272 636.36 856.768 637.195 854.639C638.03 852.51 638.389 850.495 637.994 850.159C637.599 849.824 637.615 849.448 638.03 849.324C638.444 849.2 639.643 847.772 640.696 846.153C641.987 844.164 644.14 842.427 647.333 840.8C651.742 838.552 652.432 838.538 657.632 840.573C660.697 841.773 663.531 842.532 663.928 842.261C664.327 841.989 664.943 842.194 665.298 842.715C666.068 843.842 688.97 848.177 690.096 847.408C690.525 847.116 691.744 847.646 692.804 848.588C693.864 849.529 695.028 850.097 695.392 849.848C696.888 848.827 697.04 837.931 695.715 826.627C695.245 822.62 695.07 814.895 695.327 809.461C695.583 804.026 695.891 797.551 696.012 795.072C696.133 792.591 695.997 786.473 695.711 781.476C695.237 773.211 697.62 755.114 699.335 753.944C699.723 753.679 700.289 752.147 700.592 750.539C701.319 746.691 708.059 741.12 715.623 738.115C718.754 736.871 721.752 735.495 722.286 735.057C722.819 734.619 723.608 734.777 724.039 735.408C724.47 736.039 725.334 736.206 725.96 735.779C726.585 735.352 727.827 735.212 728.719 735.468C731.327 736.216 736.139 743.517 737.326 748.531C737.939 751.11 739.252 753.895 740.297 754.821C742.002 756.335 742.433 756.236 745.098 753.717C748.971 750.055 757.748 748.504 765.074 750.185C768.036 750.864 770.89 751.126 771.416 750.767C772.526 750.01 777.56 751.175 779.756 752.696C780.583 753.268 781.89 753.306 782.662 752.78C783.433 752.253 783.989 752.221 783.897 752.71C783.626 754.146 791.242 755.833 794.864 755.14C796.699 754.789 798.99 754.462 799.955 754.413C800.921 754.364 802.402 754.214 803.247 754.078C805.836 753.661 805.709 747.626 802.975 741.204C799.043 731.963 795.262 720.837 795.165 718.222C795.116 716.924 793.434 711.261 791.427 705.64C789.419 700.019 786.602 691.863 785.166 687.516C783.731 683.169 780.142 673.905 777.192 666.929C771.099 652.522 770.59 649.916 771.413 637.33C772.028 627.899 771.933 626.937 770.483 627.926ZM386.28 75.3386C385.826 75.6485 385.697 76.2582 385.994 76.6935C386.291 77.1289 385.52 79.627 384.281 82.2461C383.041 84.8653 382.344 87.0682 382.732 87.1414C383.685 87.3214 388.248 76.4486 387.611 75.5151C387.333 75.1079 386.735 75.0286 386.28 75.3386ZM421.543 130.572C420.897 130.602 420.619 130.992 420.926 131.442C421.232 131.89 421.123 134.525 420.683 137.296C420.243 140.067 420.228 142.839 420.65 143.457C421.071 144.075 421.044 144.834 420.59 145.144C420.136 145.454 420.105 146.208 420.522 146.819C420.939 147.43 420.999 149.096 420.656 150.522C420.052 153.027 421.461 155.003 422.379 152.939C422.628 152.379 422.417 151.736 421.91 151.511C421.402 151.286 421.49 150.428 422.104 149.607C423.198 148.145 423.734 139.107 422.808 137.75C422.55 137.372 422.624 135.882 422.972 134.44C423.674 131.524 423.294 130.493 421.543 130.572ZM379.776 73.7019C377.232 77.3499 374.168 85.1929 375.425 84.8352C376.079 84.6493 377.409 82.2891 378.379 79.5902C379.35 76.8916 380.646 74.3406 381.259 73.9224C381.872 73.5037 382.126 72.7989 381.824 72.3561C381.474 71.8423 380.731 72.3295 379.776 73.7019ZM385.811 110.581C384.792 113.236 383.506 117.139 382.952 119.255C382.398 121.371 381.438 123.755 380.816 124.552C380.194 125.35 379.923 126.348 380.212 126.772C380.501 127.196 380.017 128.035 379.135 128.637C378.252 129.239 377.553 130.221 377.58 130.819C377.712 133.721 357.253 170.692 342.588 194.056C339.877 198.377 336.551 203.985 335.199 206.519C333.846 209.052 332.052 212.41 331.211 213.981C330.37 215.552 329.319 217.103 328.875 217.428C328.431 217.753 327.541 220.042 326.898 222.514C325.748 226.93 325.756 226.958 327.357 224.075C329.519 220.18 339.615 202.903 345.082 193.74C347.485 189.711 349.74 186.229 350.091 186C350.973 185.428 364.503 161.636 370.048 150.909C371.626 147.855 374.225 142.883 375.822 139.86C381.951 128.258 389.335 108.205 388.128 106.436C387.872 106.061 386.83 107.926 385.811 110.581ZM421.267 157.693C420.842 158.546 420.447 160.96 420.387 163.057C420.159 171.116 418.703 186.105 417.323 194.585C416.53 199.454 415.641 205.781 415.345 208.646C415.05 211.51 414.453 214.882 414.018 216.136C413.583 217.391 413.025 219.489 412.778 220.798C412.531 222.106 411.801 223.878 411.155 224.735C409.364 227.115 408.146 232.271 409.332 232.451C409.91 232.539 410.233 232.033 410.048 231.327C409.864 230.621 410.211 229.702 410.819 229.287C411.428 228.872 412.397 226.849 412.972 224.792C413.546 222.736 414.239 220.901 414.511 220.716C416.793 219.159 424.346 159.521 422.588 156.944C422.264 156.47 421.724 156.776 421.267 157.693ZM694.741 575.493C693.55 576.305 690.465 594.3 691.483 594.493C691.923 594.575 692.822 591.266 693.484 587.138C694.145 583.01 695.159 578.948 695.739 578.112C696.893 576.444 696.161 574.523 694.741 575.493ZM399.966 157.634C399.041 157.966 395.112 177.001 395.77 177.965C396.042 178.364 395.872 178.957 395.393 179.284C394.913 179.611 393.769 183.723 392.851 188.422C391.932 193.12 390.069 199.702 388.712 203.048C387.355 206.394 385.989 210.123 385.676 211.335C385.363 212.547 384.878 214.256 384.596 215.132C382.771 220.809 368.012 248.809 366.187 250.054C365.718 250.374 364.564 252.064 363.623 253.809C361.61 257.543 348.201 273.22 345.365 275.155C344.287 275.891 342.753 276.042 341.957 275.491C340.187 274.264 340.048 274.676 343.939 269.626C345.714 267.321 348.622 262.371 350.402 258.622C352.181 254.874 354.049 251.212 354.553 250.484C355.057 249.757 358.539 240.121 362.292 229.072C366.045 218.023 369.927 207.379 370.92 205.418C371.913 203.458 373.505 200.202 374.459 198.185C379.537 187.437 384.391 178.324 388.923 171.035C390.748 168.099 393.595 163.411 395.249 160.618C398.77 154.672 398.815 154.629 399.875 156.183C400.323 156.84 400.363 157.493 399.966 157.634ZM463.967 278.984C464.686 281.761 465.047 285.55 464.769 287.404C464.49 289.258 464.527 291.163 464.851 291.637C465.174 292.111 464.847 292.904 464.122 293.398C463.399 293.892 463.109 295.141 463.478 296.175C463.846 297.209 463.764 298.611 463.293 299.289C462.824 299.967 462.954 301.278 463.584 302.201C464.214 303.124 464.357 304.133 463.903 304.443C462.543 305.37 464.876 307.805 468.11 308.836C469.774 309.365 470.952 309.513 470.729 309.164C470.506 308.815 472.73 309.112 475.673 309.823C479.837 310.832 481.789 311.98 484.485 315.013C486.39 317.155 488.369 320.174 488.882 321.722C489.911 324.821 488.926 332.885 487.157 335.866C486.538 336.909 485.618 338.727 485.114 339.905C484.609 341.082 482.83 345.077 481.16 348.782C479.489 352.485 478.231 356.523 478.363 357.753C478.496 358.984 478.299 359.934 477.926 359.862C477.045 359.696 475.272 349.581 475.876 348.167C476.13 347.573 475.251 345.449 473.922 343.448C469.345 336.554 465.196 334.045 458.531 334.139C448.379 334.282 443.413 333.309 437.763 330.064C433.403 327.56 433.933 328.288 422.408 308.975C420.659 306.045 420.569 306.017 409.158 304.871C395.761 303.525 393.595 303.035 390.343 300.609C388.597 299.307 387.153 297.852 387.131 297.374C387.039 295.324 391.769 291.883 399.105 288.665C403.439 286.762 409.258 283.874 412.034 282.248C422.568 276.074 434.645 275.305 436 280.72C436.259 281.757 436.162 285.565 435.786 289.184C434.697 299.654 438.453 306.345 446.061 307.484C451.629 308.318 451.657 307.364 446.104 306.061C438.542 304.286 436.462 299.857 437.578 287.902C438.354 279.589 437.273 276.594 433.288 276.019C428.245 275.29 418.329 277.053 413.195 279.592C410.516 280.916 407.694 281.881 406.924 281.736C405.985 281.558 409.081 279.166 416.343 274.46C426.499 267.878 434.178 264.252 437.372 264.531C438.136 264.597 439.562 264.291 440.54 263.851C443.487 262.526 450.53 262.529 453.075 263.855C458.826 266.854 461.947 271.19 463.967 278.984ZM705.456 642.854C704.618 643.039 704.68 642.71 705.616 642.014C706.462 641.384 707.082 641.247 706.995 641.708C706.908 642.169 706.216 642.685 705.456 642.854ZM407.498 233.974C407.1 234.246 406.685 235.435 406.578 236.617C406.4 238.564 406.492 238.554 407.565 236.506C408.788 234.17 408.761 233.113 407.498 233.974ZM338.517 138.19C338.119 138.462 337.71 139.558 337.609 140.625C337.411 142.732 337.792 142.718 339.284 140.564C340.305 139.089 339.744 137.353 338.517 138.19ZM693.181 662.123C692.343 662.309 692.405 661.98 693.341 661.284C694.187 660.654 694.808 660.516 694.72 660.978C694.633 661.439 693.941 661.955 693.181 662.123ZM317.113 152.793C317.277 156.726 314.517 169.092 313.289 169.929C312.752 170.295 312.48 171.298 312.683 172.158C312.887 173.018 312.46 174.127 311.733 174.622C310.103 175.735 299.591 193.799 299.866 195.017C299.975 195.504 299.525 196.268 298.867 196.717C298.209 197.166 297.905 198.599 298.191 199.902C298.607 201.792 298.497 201.977 297.646 200.821C297.061 200.023 296.872 197.972 297.228 196.264C298.038 192.377 298.685 182.314 298.099 182.714C297.86 182.877 298.232 180.307 298.926 177.005C300.552 169.253 298.432 163.949 293.253 162.818C288.191 161.712 279.85 164.525 274.372 169.186C270.714 172.298 269.358 172.975 267.335 172.697C265.049 172.381 264.911 172.47 265.752 173.703C266.946 175.453 269.661 174.335 276.621 169.228C281.114 165.93 283.425 164.879 287.937 164.079L293.608 163.075L296.262 166.966C298.492 170.234 298.775 171.52 298.028 174.994C297.539 177.271 296.818 181.203 296.425 183.735C296.033 186.266 295.547 188.895 295.345 189.575C295.143 190.255 294.403 192.763 293.7 195.148C291.792 201.623 288.697 208.957 285.721 214.061C284.263 216.56 283.317 218.966 283.617 219.406C283.918 219.847 283.704 220.228 283.141 220.254C282.579 220.279 280.222 217.321 277.903 213.681C274.494 208.328 273.453 205.658 272.464 199.728C270.265 186.536 265.736 183.735 255.091 188.983C245.097 193.911 240.788 195.143 235.62 194.55C231.041 194.026 230.542 193.701 227.772 189.443C226.145 186.943 224.435 183.035 223.971 180.76C223.074 176.347 220.65 173.482 217.278 172.846C213.933 172.213 214.864 170.384 218.959 169.541C223.921 168.52 227.602 169.558 230.713 172.856C234.419 176.785 235.783 177.228 240.411 176.003C244.513 174.917 248.094 172.215 265.371 157.175C266.415 156.266 269.489 153.585 272.202 151.218C278.688 145.559 280.292 144.595 287.058 142.295C295.645 139.375 308.664 138.146 310.97 140.036C313.154 141.826 316.989 149.79 317.113 152.793ZM383.61 297.101C382.772 297.286 382.834 296.957 383.77 296.261C384.616 295.631 385.237 295.494 385.149 295.955C385.062 296.416 384.37 296.932 383.61 297.101ZM361.371 276.34C359.962 277.302 358.617 279.652 359.085 280.337C359.651 281.167 362.287 278.216 362.225 276.822C362.199 276.255 361.814 276.038 361.371 276.34ZM648.811 717.359C647.762 717.232 649.471 714.155 651.239 712.986C652.504 712.151 652.488 712.555 651.17 714.659C650.214 716.185 649.152 717.401 648.811 717.359ZM645.556 722.843C643.647 724.146 644.214 721.666 646.305 719.565C648.149 717.713 648.225 717.731 647.482 719.828C647.045 721.063 646.177 722.42 645.556 722.843ZM640.121 729.571L637.556 731.965L639.637 728.806C642.161 724.975 643.297 723.947 642.944 725.813C642.803 726.563 641.533 728.254 640.121 729.571ZM640.878 739.351C640.461 739.636 639.686 740.496 639.155 741.262C637.562 743.563 637.01 741.278 638.547 738.741C639.716 736.812 640.119 736.609 640.803 737.612C641.262 738.285 641.295 739.067 640.878 739.351ZM289.198 237.756C287.906 239.62 286.731 239.397 284.072 236.786C281.527 234.286 276.635 232.465 275.163 233.469C274.667 233.807 274.05 233.773 273.791 233.393C273.099 232.379 261.92 234.03 259.832 235.455C257.776 236.858 256.02 236.645 250.194 234.293C247.784 233.319 243.706 232.891 240.561 233.281C234.531 234.028 224.379 238.806 226.662 239.82C227.385 240.142 228.35 239.866 228.807 239.205C229.999 237.485 240.014 234.078 243.464 234.22C245.07 234.286 248.709 235.296 251.552 236.464C255.415 238.052 257.493 238.258 259.781 237.281C267.194 234.116 275.367 233.928 277.379 236.878C281.306 242.634 269.336 248.409 254.843 247.749C252.615 247.648 248.859 248.131 246.496 248.823C244.134 249.515 240.169 250.59 237.684 251.214C234.87 251.92 230.814 253.997 226.918 256.727C216.935 263.72 215.865 264.304 211.182 265.302C205.399 266.533 200.46 264.14 195.479 257.69C193.43 255.037 190.874 252.614 189.8 252.306C188.052 251.804 188.36 251.486 192.728 249.287C200.494 245.377 202.32 243.801 206.378 237.497C214.324 225.158 222.966 217.806 230.525 216.957C240.904 215.79 242.812 215.639 243.633 215.925C244.128 216.098 246.819 216.233 249.612 216.226C259.029 216.199 277.042 221.844 282.502 226.531C285.965 229.504 290.105 236.445 289.198 237.756ZM305.133 266.472C302.675 264.677 295.462 263.529 290.055 264.075C283.644 264.719 270.89 269.069 266.372 272.152C262.796 274.592 261.64 279.521 263.239 285.514C264.274 289.394 263.069 294.461 261.09 294.55C260.507 294.576 260.055 295.135 260.084 295.792C260.175 297.82 262.85 295.262 264.489 291.579C265.583 289.119 265.63 287.127 264.646 284.886C263.801 282.959 263.677 280.151 264.335 277.801C265.282 274.412 265.963 273.637 269.594 271.818C276.467 268.376 286.773 265.555 292.809 265.463C298.801 265.372 308.767 268.421 308.89 270.382C308.93 271.02 309.17 271.946 309.424 272.438C309.677 272.932 310.172 273.878 310.523 274.542C310.875 275.205 310.528 275.898 309.753 276.081C308.978 276.265 306.105 278.661 303.369 281.406C298.22 286.571 296.005 287.784 285.416 291.242C278.854 293.385 274.643 297.006 272.446 302.395C270.842 306.334 268.136 319.063 268.693 320.059C269.278 321.106 266.741 327.759 264.92 329.953C263.144 332.091 258.91 333.801 257.114 333.103C256.636 332.917 254.124 333.251 251.532 333.843C246.908 334.9 240.137 335.009 231.962 334.156L227.847 333.727L232.863 330.956C236.836 328.761 238.555 327.151 241.126 323.219C244.022 318.791 244.352 317.253 244.174 308.978C244.065 303.876 243.636 299.204 243.221 298.595C242.44 297.451 241.665 280.165 242.106 273.725C242.405 269.37 245.151 264.84 249.146 262.115C252.052 260.132 260.686 256.668 262.02 256.95C262.409 257.032 264.553 256.582 266.785 255.949C270.643 254.857 280.636 254.417 282.784 255.246C283.336 255.46 284.004 255.44 284.268 255.203C285.781 253.845 286.491 253.781 287.277 254.934C287.76 255.642 288.33 255.831 288.543 255.353C289.51 253.177 296.563 256.269 301.48 261.024C304.268 263.721 306.49 266.238 306.418 266.62C306.347 267.002 305.769 266.935 305.133 266.472ZM280.238 248.165C279.784 248.475 279.158 248.357 278.848 247.903C278.538 247.448 278.656 246.823 279.111 246.513C279.565 246.203 280.19 246.321 280.5 246.775C280.81 247.23 280.692 247.855 280.238 248.165ZM282.492 251.469C282.038 251.779 281.413 251.661 281.103 251.207C280.793 250.753 280.911 250.127 281.365 249.817C281.819 249.507 282.445 249.625 282.755 250.08C283.065 250.534 282.947 251.159 282.492 251.469ZM312.484 340.751C311.054 342.817 310.279 342.169 311.326 339.785C311.913 338.448 312.468 337.99 312.839 338.533C313.162 339.006 313.002 340.003 312.484 340.751ZM324.031 503.982C323.576 504.292 323.458 504.917 323.768 505.371C324.078 505.826 324.704 505.944 325.158 505.634C325.612 505.324 325.73 504.699 325.42 504.244C325.11 503.79 324.485 503.672 324.031 503.982ZM280.848 443.534C280.386 443.447 279.87 442.754 279.702 441.996C279.516 441.157 279.845 441.219 280.542 442.154C281.171 443.001 281.309 443.621 280.848 443.534ZM562.928 914.802C561.24 915.954 561.477 913.585 563.226 911.828C565.06 909.985 565.136 910.002 564.392 912.102C563.955 913.336 563.296 914.551 562.928 914.802ZM438.101 795.38C435.27 793.173 433.788 791.001 436.129 792.489C437.14 793.131 438.462 794.407 439.069 795.325C439.955 796.667 439.766 796.677 438.101 795.38ZM441.657 799.889C441.196 799.802 440.68 799.109 440.512 798.351C440.326 797.512 440.655 797.574 441.351 798.51C441.981 799.356 442.119 799.976 441.657 799.889ZM287.701 582.034C287.246 582.344 286.621 582.226 286.311 581.771C286.001 581.317 286.119 580.692 286.573 580.382C287.028 580.072 287.653 580.19 287.963 580.644C288.273 581.098 288.155 581.724 287.701 582.034ZM484.912 884.5C484.204 884.983 483.6 884.85 483.571 884.204C483.542 883.558 483.867 882.791 484.295 882.5C484.723 882.208 485.326 882.341 485.636 882.795C485.946 883.25 485.62 884.017 484.912 884.5ZM309.485 631.004C309.023 630.916 308.507 630.224 308.339 629.465C308.153 628.626 308.483 628.689 309.179 629.624C309.808 630.47 309.946 631.091 309.485 631.004ZM313.714 640.854C313.097 640.444 312.463 639.514 312.305 638.789C312.147 638.066 312.651 638.402 313.426 639.538C314.201 640.674 314.331 641.267 313.714 640.854ZM315.46 645.085C314.999 644.998 314.483 644.305 314.315 643.547C314.129 642.708 314.458 642.77 315.154 643.706C315.784 644.552 315.922 645.172 315.46 645.085ZM421.87 809.294C421.386 809.316 419.736 807.497 418.204 805.252C416.672 803.007 415.699 800.981 416.041 800.75C416.382 800.52 418.032 802.338 419.706 804.792C421.381 807.246 422.354 809.272 421.87 809.294ZM408.013 792.907C407.43 793.305 401.492 788.012 398.5 784.429C396.157 781.625 396.111 781.417 398.119 782.71C399.374 783.518 401.443 785.348 402.717 786.777C403.99 788.206 405.324 789.43 405.68 789.497C406.52 789.655 408.511 792.567 408.013 792.907ZM395.144 781.107C394.944 781.244 394.297 781.141 393.706 780.878C393.115 780.615 393.026 780.132 393.507 779.804C393.987 779.476 394.635 779.578 394.945 780.033C395.255 780.487 395.345 780.97 395.144 781.107ZM464.697 888.682C465.494 891.427 465.959 893.799 465.731 893.955C465.178 894.332 463.888 890.859 462.681 885.746C461.372 880.196 462.864 882.371 464.697 888.682ZM479.238 919.846C478.859 920.104 478.027 919.55 477.389 918.615C476.751 917.68 476.669 916.894 477.207 916.87C477.746 916.845 478.578 917.399 479.056 918.101C479.535 918.802 479.617 919.588 479.238 919.846ZM509.887 971.09C508.475 970.824 509.266 969.268 510.851 969.197C512.049 969.142 512.181 969.337 511.533 970.189C511.089 970.772 510.349 971.177 509.887 971.09ZM476.052 920.204C475.406 920.233 474.497 919.699 474.032 919.018C473.567 918.336 473.715 917.755 474.361 917.726C475.007 917.696 475.916 918.23 476.381 918.912C476.846 919.593 476.698 920.175 476.052 920.204ZM476.654 924.635C474.126 923.029 473.574 922.22 474.963 922.157C475.609 922.128 476.667 922.936 477.315 923.953C478.449 925.736 478.426 925.761 476.654 924.635ZM494.137 1011.37C493.936 1011.51 493.289 1011.4 492.698 1011.14C492.107 1010.88 492.018 1010.39 492.499 1010.07C492.98 1009.74 493.627 1009.84 493.937 1010.29C494.247 1010.75 494.337 1011.23 494.137 1011.37Z" fill="black"/>
</svg>
