<svg width="423" height="352" viewBox="0 0 423 352" fill="none" xmlns="http://www.w3.org/2000/svg">
<path fill-rule="evenodd" clip-rule="evenodd" d="M215.801 5.5941C216.098 8.67066 216.681 11.5265 217.095 11.9409C218.622 13.4682 218.571 11.4748 216.937 5.80969L215.26 0L215.801 5.5941ZM203.444 8.26003C203.694 11.8672 203.161 15.8888 202.202 17.6201C201.277 19.2907 200.645 21.0931 200.796 21.625C200.946 22.1569 200.579 22.5933 199.979 22.5933C198.3 22.5933 195.22 18.5252 193.381 13.8787C192.468 11.5716 191.195 9.68282 190.554 9.68282C189.912 9.68282 190.288 11.4257 191.389 13.556C193.31 17.2716 193.28 17.4291 190.653 17.4291C189.147 17.4291 186.288 18.3897 184.3 19.5645C180.859 21.5979 180.517 21.5682 177.151 18.919C175.207 17.3891 172.856 16.138 171.928 16.138C170.88 16.138 170.053 14.0569 169.746 10.6511L169.251 5.16417L169.016 10.3283C168.745 16.2659 165.369 18.7163 158.791 17.7506C155.826 17.3155 154.568 16.2143 153.482 13.1093L152.06 9.0373L152.654 13.2332C153.072 16.1923 152.732 17.4291 151.501 17.4291C150.542 17.4291 149.033 18.3005 148.149 19.3656C147.265 20.4308 145.745 21.3022 144.772 21.3022C140.732 21.3022 133.02 25.8312 130.042 29.9509C128.287 32.3793 126.145 35.142 125.283 36.0884C122.36 39.2992 117.414 51.6056 115.92 59.388C110.445 87.8994 110.019 106.564 113.917 147.179C114.576 154.06 115.898 158.153 117.46 158.153C118.165 158.153 118.329 157.139 117.825 155.893C116.204 151.881 114.323 123.226 114.246 101.347C114.126 67.6803 119.423 47.1915 131.771 33.5671L137.62 27.1119L134.463 38.0858C127.831 61.1425 127.017 67.1678 126.962 93.6006C126.921 113.729 127.375 120.587 129.229 127.813C134.404 147.995 142.556 171.183 149.033 184.145C152.806 191.695 155.893 198.242 155.893 198.695C155.893 199.149 153.716 198.391 151.053 197.01C146.254 194.525 136.74 183.513 133.783 177.021C132.937 175.165 131.808 173.645 131.272 173.645C130.737 173.645 128.167 170.74 125.561 167.19C122.955 163.64 119.994 160.735 118.979 160.735C116.839 160.735 111.768 158.071 110.474 156.269C109.163 154.441 88.0928 157.79 82.2974 160.747C79.6346 162.106 75.792 164.905 73.7578 166.967C65.5318 175.304 59.0858 182.59 59.06 183.575C59.0097 185.474 49.4852 191.376 44.8889 192.358C42.4042 192.888 38.9192 194.048 37.1444 194.935C35.3696 195.822 30.1421 197.872 25.5276 199.489C20.9132 201.107 15.8509 203.27 14.2762 204.296C10.5963 206.696 5.37648 216.061 3.02086 224.489C2.00504 228.124 0.777535 232.403 0.292213 234.002C-0.230541 235.728 -0.0395089 236.906 0.765919 236.906C1.51068 236.906 2.53425 235.601 3.04022 234.007C4.30903 230.008 7.16674 228.135 13.4914 227.151C19.0455 226.289 28.1091 228.396 28.1091 230.552C28.1091 231.206 28.8358 231.747 29.7226 231.754C30.6106 231.76 32.7881 233.618 34.5629 235.881C39.935 242.736 43.1722 245.944 44.7146 245.944C45.5201 245.944 46.1796 246.409 46.1796 246.975C46.1796 248.5 54.1423 251.108 58.7954 251.108C62.8806 251.108 69.4131 248.777 69.4131 247.321C69.4131 246.886 71.4344 245.443 73.9036 244.112C76.3728 242.782 78.7375 240.761 79.1557 239.623C79.5752 238.484 82.7388 235.228 86.189 232.388C89.6379 229.547 92.502 226.746 92.5537 226.164C92.706 224.428 95.7947 221.818 98.8383 220.852C100.401 220.355 101.682 219.446 101.682 218.832C101.682 218.217 102.779 217.366 104.12 216.94C105.46 216.516 108.084 214.752 109.949 213.023C116.84 206.635 124.624 202.997 129.457 203.905L133.947 204.747L126.698 212.055C114.773 224.079 106.267 237.684 104.116 248.175C102.683 255.166 102.736 256.781 104.529 260.54C105.663 262.918 108.245 265.715 110.268 266.755C123.479 273.553 127.497 278.089 127.497 286.206C127.497 293.317 121.288 303.696 113.339 309.872C106.033 315.549 105.188 316.424 98.4046 325.347C91.7031 334.162 85.5397 349.348 87.7611 351.57C89.372 353.182 95.0255 350.047 98.2704 345.744C101.728 341.159 100.092 340.809 95.4553 345.142C90.8641 349.432 89.7127 348.122 92.0851 341.305C94.6176 334.029 100.164 325.876 106.696 319.828C109.972 316.794 115.091 312.037 118.071 309.259C125.535 302.298 129.288 294.635 129.166 286.612C129.013 276.58 127.277 273.865 115.938 265.917C105.599 258.671 105.554 258.614 105.554 252.895C105.554 238.084 128.5 209.273 141.695 207.514C150.599 206.328 156.566 207.306 159.736 210.473L162.934 213.668H159.922C155.305 213.668 146.812 221.176 143.936 227.802C142.531 231.035 140.089 235.422 138.508 237.552C133.805 243.887 132.171 250.495 133.772 256.706C134.534 259.662 135.394 263.244 135.681 264.664C135.971 266.084 136.135 262.017 136.047 255.627C135.9 244.942 136.16 243.643 139.294 239.488C141.168 237.003 143.92 232.259 145.409 228.946C149.139 220.642 156.299 214.855 161.584 215.873C165.733 216.671 172.673 223.153 172.673 226.229C172.673 227.202 173.56 229.711 174.643 231.807C175.726 233.901 176.055 235.615 175.375 235.615C174.694 235.615 173.804 236.631 173.396 237.875C172.988 239.118 168.966 244.026 164.46 248.783C154 259.824 151.569 266.704 155.745 273.461C160.016 280.374 159.242 286.863 153.312 293.834C152.247 295.085 150.737 296.877 149.956 297.815C147.43 300.852 139.212 307.914 138.18 307.935C137.628 307.946 135.145 309.682 132.66 311.793C130.175 313.905 127.44 316.219 126.583 316.937C125.726 317.655 124.564 318.243 124.001 318.243C121.861 318.247 104.263 334.565 104.263 336.546C104.263 338.141 105.975 336.927 115.446 328.612C124.243 320.891 129.547 316.951 131.143 316.951C131.86 316.951 132.638 316.511 132.875 315.974C133.112 315.435 135.919 312.982 139.114 310.522C142.308 308.06 145.387 305.305 145.955 304.398C146.522 303.492 147.684 302.742 148.536 302.734C150.041 302.719 154.249 297.144 158.743 289.212C161.493 284.359 161.691 276.088 159.12 273.516C154.572 268.967 157.495 260.539 167.132 250.425C170.534 246.854 174.361 242.497 175.637 240.742C176.912 238.987 177.565 238.342 177.086 239.308C175.977 241.549 184.202 257.563 186.463 257.563C187.398 257.563 188.162 258.144 188.162 258.854C188.162 259.564 189.033 260.145 190.098 260.145C191.163 260.145 192.039 260.582 192.045 261.113C192.059 262.526 198.651 265.361 199.992 264.532C200.62 264.143 200.996 264.305 200.828 264.891C200.351 266.551 204.1 271.765 205.772 271.765C208.16 271.765 210.102 279.182 210.133 288.418C210.176 301.056 213.567 307.205 224.987 315.356C229.623 318.665 234.931 320.824 238.43 320.824C243.214 320.824 258.961 325.631 261.735 327.937C265.535 331.097 276.609 336.317 279.512 336.317C285.028 336.317 284.114 332.775 276.053 322.907C263.827 307.942 262.625 300.455 266.824 265.41C267.541 259.43 267.8 253.237 267.401 251.647C266.871 249.534 267.312 248.619 269.046 248.241C271.423 247.723 278.596 249.568 279.805 251.009C280.16 251.432 282.687 252.935 285.42 254.348C288.154 255.761 293.567 259.683 297.451 263.064C301.334 266.444 306.198 270.084 308.261 271.15C312.601 273.395 331.292 274.578 336.918 272.964C341.917 271.53 346.507 266.434 348.192 260.45C349.794 254.763 351.993 252.027 359.832 245.976C363.026 243.51 365.93 241.173 366.285 240.783C368.21 238.67 374.287 235.615 376.566 235.615C378.011 235.615 379.184 235.179 379.174 234.647C379.073 229.762 369.548 226.607 351.442 225.459C328.869 224.03 320.614 218.247 306.497 193.979C304.096 189.85 303.475 187.812 304.598 187.74C310.346 187.369 312.563 186.695 315.678 184.379C317.6 182.949 319.354 180.572 319.573 179.096C320.451 173.218 328.18 171.762 330.773 176.988C332.527 180.523 340.134 187.458 344.864 189.836C349.596 192.214 359.75 192.226 368.626 189.863C380.947 186.583 386.224 181.563 397.711 162.192C405.849 148.47 416.037 137.496 420.636 137.496C423.604 137.496 423.817 134.546 421.051 131.778C418.503 129.231 406.268 129.129 395.327 131.565C384.992 133.867 376.605 138.86 368.015 147.821C363.514 152.516 359.01 155.855 355.704 156.946C349.33 159.05 349.386 159.11 340.406 140.53C335.273 129.905 332.679 126.181 326.705 120.856C322.652 117.242 316.834 113.332 313.778 112.163C308.379 110.101 308.097 110.123 304.016 112.939C301.703 114.534 298.653 118.243 297.237 121.18L294.662 126.522L293.76 113.954C292.475 96.0728 286.926 67.359 281.042 48.1418C277.088 35.2339 267.388 17.0069 261.642 11.689C259.024 9.26576 254.384 6.61129 251.331 5.78889C246.19 4.4036 245.621 4.50699 243.602 7.18332C242.111 9.15861 240.566 9.84925 238.716 9.36511C235.588 8.54658 229.744 12.7776 232.04 14.1964C232.817 14.6767 234.222 14.4288 235.165 13.6477C239.44 10.0986 246.677 17.9648 251.473 31.3762C255.1 41.5199 260.336 62.8454 261.675 72.9439C265.169 99.2696 266.547 139.737 264.818 165.254C264.481 170.224 264.217 176.004 264.23 178.098C264.252 181.784 260.691 186.556 257.917 186.556C257.177 186.556 256.572 187.137 256.572 187.847C256.572 188.557 255.929 189.138 255.143 189.138C254.357 189.138 254.03 188.314 254.416 187.308C254.802 186.301 254.313 185.169 253.329 184.792C252.236 184.373 251.788 184.751 252.178 185.767C252.822 187.446 245.456 195.593 243.293 195.593C242.63 195.593 242.477 192.359 242.939 188.17C245.094 168.61 243.939 134.142 240.329 110.384C239.304 103.638 237.884 94.1156 237.172 89.2225C236.459 84.3282 235.614 79.0995 235.291 77.6032C234.968 76.1056 234.386 72.6161 233.998 69.8481C233.059 63.1618 232.064 58.6534 230.835 55.5149C228.693 50.046 226.885 43.6179 226.885 41.4722C226.885 39.2052 220.1 24.6614 217.687 21.7514C216.729 20.5985 217.492 19.5942 220.512 18.0321C224.433 16.0051 224.826 16.0232 228.026 18.3961C230.899 20.5263 235.964 27.8259 237.657 32.2761C237.927 32.9861 238.646 33.0998 239.255 32.5292C239.867 31.9547 239.802 31.0884 239.109 30.5926C238.42 30.0981 237.706 28.3255 237.524 26.6536C237.028 22.1027 232.676 16.7306 227.492 14.2699C223.057 12.1655 222.714 12.186 218.242 14.8249C214.99 16.7447 213.19 17.1579 212.238 16.2064C211.491 15.4589 209.543 14.847 207.91 14.847C205.209 14.847 204.942 14.2673 204.942 8.39178C204.942 4.84141 204.505 1.93659 203.974 1.9353C203.442 1.9353 203.203 4.78067 203.444 8.26003ZM229.466 6.45522C229.466 7.52033 230.029 8.39178 230.717 8.39178C231.403 8.39178 231.632 7.52033 231.224 6.45522C230.815 5.3901 230.252 4.51865 229.973 4.51865C229.694 4.51865 229.466 5.3901 229.466 6.45522ZM256.943 12.5877C263.672 17.309 266.676 21.2945 272.754 33.5671C280.152 48.5058 285.34 67.7836 289.605 96.1827C292.744 117.09 291.827 148.968 287.397 173L286.207 179.455L276.5 179.6L266.793 179.746L267.813 173.79C270.353 158.969 267.037 83.4556 263.082 66.0872C262.406 63.1126 260.938 56.6122 259.822 51.6417C257.036 39.2335 253.882 28.647 252.533 27.1765C251.915 26.5026 251.409 25.1831 251.409 24.2458C251.409 23.3085 249.997 20.3057 248.272 17.5712C245.94 13.8763 245.509 12.2273 246.594 11.1416C248.838 8.89772 252.394 9.39492 256.943 12.5877ZM180.621 17.4291C180.621 19.2043 180.914 19.9311 181.272 19.0429C181.631 18.1559 181.631 16.7035 181.272 15.8153C180.914 14.9283 180.621 15.6539 180.621 17.4291ZM211.499 20.0666C220.528 24.899 232.139 61.9068 237.204 101.992C242.284 142.193 243.252 172.337 239.987 188.592C239.406 191.486 239.072 194.825 239.246 196.01C239.42 197.195 238.887 198.599 238.064 199.128C236.533 200.112 228.062 203.285 226.873 203.32C226.511 203.33 226.657 197.093 227.196 189.461C229.285 159.87 228.511 124.716 225.461 110.623C224.797 107.559 224.59 104.509 225 103.845C225.41 103.182 225.258 102.638 224.661 102.638C224.064 102.638 223.445 101.055 223.285 99.1197C222.337 87.6772 213.974 50.618 208.689 34.4386C207.917 32.0773 207.607 29.8258 207.998 29.4333C208.391 29.0421 207.84 27.0344 206.773 24.9739C203.903 19.4199 206.075 17.1631 211.499 20.0666ZM160.739 23.8843C157.437 32.0966 156.201 42.8872 156.625 59.7883C157.255 84.8061 158.23 100.608 159.658 108.969C160.337 112.943 161.544 120.551 162.342 125.877C163.138 131.202 164.654 138.755 165.709 142.66C166.764 146.566 168.987 155.28 170.649 162.026C173.792 174.78 176.259 182.109 177.118 181.248C177.557 180.808 174.798 169.519 168.308 145.209C167.26 141.285 166.098 135.766 165.726 132.944C165.353 130.122 164.749 125.78 164.384 123.295C162.919 113.35 161.111 97.6351 160.447 89.082C158.757 67.2969 158.675 61.8164 159.82 47.7582C161.721 24.4316 167.746 15.2072 176.468 22.2705C179.317 24.5789 179.36 24.9198 177.757 32.3407C173.57 51.7244 176.448 112.07 183.111 144.597C183.838 148.147 185.219 156.779 186.178 163.778C187.137 170.778 188.557 177.139 189.333 177.915C190.108 178.691 190.744 180.064 190.744 180.965C190.744 181.868 192.196 185.781 193.97 189.662C195.745 193.543 197.197 197.557 197.197 198.582C197.197 200.724 190.261 203.991 188.292 202.775C187.57 202.327 185.427 198.507 183.532 194.284C181.639 190.062 179.662 186.869 179.144 187.191C178.623 187.512 180.108 191.707 182.441 196.512C184.774 201.317 186.457 205.475 186.181 205.751C185.905 206.027 181.446 206.483 176.272 206.766C167.278 207.256 166.68 207.108 162.67 203.391C160.363 201.252 158.475 199.137 158.475 198.69C158.475 198.243 155.302 191.409 151.423 183.502C141.369 163.003 135.428 145.18 130.712 121.358C128.63 110.837 128.248 80.9329 130.054 69.7163C130.74 65.4559 131.639 59.8128 132.052 57.1778C132.465 54.5415 134.52 47.0882 136.617 40.6149C138.715 34.1416 140.101 28.3101 139.696 27.6569C139.292 27.0023 139.874 26.4664 140.989 26.4664C142.668 26.4664 142.848 27.4088 142.033 31.9533C140.273 41.7756 141.206 96.9031 143.546 121.358C145.601 142.835 151.966 168.901 155.998 172.354C156.412 172.709 157.854 176.105 159.203 179.902C160.552 183.697 162.892 188.055 164.403 189.584C165.915 191.113 168.118 194.254 169.3 196.561C170.481 198.868 172.305 200.757 173.352 200.757C176.317 200.757 175.637 198.917 170.669 193.496C165.779 188.16 155.327 167.419 153.194 158.819C149.527 144.034 147.035 130.679 146.32 122.004C145.881 116.678 145.143 107.963 144.679 102.638C144.217 97.3124 143.791 80.4643 143.734 65.1977C143.647 41.6348 143.981 36.4359 145.949 30.794C148.398 23.7759 153.074 20.1145 159.121 20.4799C161.702 20.6361 161.888 21.0272 160.739 23.8843ZM187.584 50.6734C187.411 65.4068 187.81 78.915 188.471 80.6902C189.131 82.4654 189.892 86.8226 190.163 90.373C190.432 93.9234 190.96 99.1521 191.335 101.992C191.71 104.833 192.308 111.223 192.665 116.194C193.022 121.164 193.87 129.298 194.55 134.268C195.229 139.239 196.491 151.149 197.353 160.735C198.358 171.905 200.002 181.375 201.93 187.104C203.586 192.022 204.942 197.105 204.942 198.401C204.942 202.104 201.214 201.152 200.26 197.207C199.789 195.255 198.38 191.623 197.129 189.138C192.885 180.702 189.453 170.383 189.453 166.059C189.453 163.689 188.62 157.891 187.603 153.173C180.385 119.717 177.126 69.2194 180.365 41.0398C181.477 31.3725 184.323 23.8843 186.888 23.8843C187.443 23.8843 187.757 35.9401 187.584 50.6734ZM203.537 35.2789C209.494 47.132 210.795 51.3461 213.973 69.0708C215.309 76.5266 217.549 89.0174 218.949 96.8282C226.344 138.06 226.679 203.339 219.498 203.339C215.013 203.339 212.691 198.198 212.556 187.972C212.339 171.551 211.938 167.828 207.531 141.369C206.251 133.681 205.217 125.415 204.138 114.257C203.761 110.352 202.608 100.766 201.578 92.9551C199.55 77.5736 197.785 58.088 196.507 36.9769C195.549 21.1603 196.345 20.9677 203.537 35.2789ZM204.327 26.5631C205.572 30.484 204.314 30.8868 202.598 27.1169C201.787 25.3392 201.654 23.8843 202.301 23.8843C202.948 23.8843 203.86 25.0901 204.327 26.5631ZM192.034 29.0485C192.034 29.7585 191.453 30.3395 190.744 30.3395C190.034 30.3395 189.453 29.7585 189.453 29.0485C189.453 28.3384 190.034 27.7574 190.744 27.7574C191.453 27.7574 192.034 28.3384 192.034 29.0485ZM238.501 34.8544C238.501 35.2572 239.424 37.7462 240.551 40.3864C245.682 52.3983 249.766 75.0948 251.987 103.929C252.786 114.305 252.867 164.655 252.097 171.732C251.562 176.639 253.018 181.504 254.558 179.962C256.763 177.757 255.762 108.428 253.266 90.373C252.284 83.2723 250.865 72.3668 250.114 66.1401C249.363 59.9121 248.233 53.5215 247.605 51.9386C246.976 50.3545 245.75 46.2761 244.88 42.8755C243.988 39.3871 242.253 36.1299 240.901 35.4057C239.58 34.6995 238.501 34.4516 238.501 34.8544ZM194.207 47.3658C193.795 48.3947 193.489 48.0888 193.427 46.5847C193.371 45.224 193.676 44.4622 194.105 44.8909C194.533 45.3195 194.58 46.4336 194.207 47.3658ZM196.517 65.8432C196.98 72.9439 197.885 81.949 198.527 85.8544C199.17 89.7598 200.606 101.67 201.72 112.321C204.738 141.17 204.946 142.913 205.481 143.79C206.502 145.464 209.039 169.649 209.552 182.604C209.845 190.017 210.42 197.133 210.828 198.419C211.235 199.705 211.048 200.757 210.411 200.757C208.788 200.757 201.334 176.934 200.515 169.127C199.665 161.043 201.466 163.789 203.726 174.027C204.636 178.142 205.772 181.752 206.251 182.049C207.362 182.736 205.631 172.538 203.071 163.317C201.987 159.412 201.093 154.362 201.085 152.097C201.076 149.831 200.574 147.671 199.967 147.295C198.989 146.691 197.464 134.915 196.442 120.067C196.246 117.227 195.753 110.546 195.346 105.22C193.783 84.7531 193.179 49.0545 194.429 50.9962C195.113 52.0613 196.054 58.7425 196.517 65.8432ZM314.939 117.379C323.959 121.51 333.93 131.094 335.976 137.595C336.517 139.316 338.04 142.748 339.36 145.223C340.681 147.698 341.761 150.361 341.761 151.141C341.761 151.921 343.699 154.8 346.066 157.539C350.039 162.137 350.684 162.427 354.422 161.305C358.607 160.049 372.565 149.356 372.676 147.321C372.771 145.579 376.56 142.898 383.711 139.51C392.077 135.547 398.848 133.783 409.337 132.835L417.838 132.068L409.012 141.056C403.241 146.931 398.677 153.123 395.827 158.939C391.454 167.864 390.592 169.177 384.042 176.894C379.341 182.434 369.373 186.556 358.466 187.47C349.597 188.213 349.57 188.206 342.483 182.853C338.578 179.906 334.314 176.344 333.006 174.939C331.699 173.535 328.922 172.074 326.836 171.692C323.658 171.111 322.022 171.944 316.718 176.841C311.483 181.674 309.526 182.683 305.392 182.683C301.214 182.683 300.186 182.139 299.134 179.371C297.025 173.821 297.707 162.582 300.633 154.652C303.882 145.844 303.066 147.045 306.521 145.982C308.807 145.28 309.754 145.876 311.395 149.05C313.645 153.402 316.047 154.042 318.595 150.971C320.062 149.203 319.842 149.06 316.817 149.82C314.63 150.369 313.365 150.162 313.365 149.255C313.365 148.469 312.212 146.671 310.803 145.262C305.788 140.246 300.093 146.107 297.27 159.189C296.754 161.578 295.692 163.225 294.854 162.933C292.988 162.285 293.425 144.293 295.488 136.851C298.074 127.519 300.789 120.713 301.924 120.713C302.537 120.713 303.039 120.05 303.039 119.241C303.039 118.076 306.524 114.488 307.84 114.299C307.998 114.275 311.192 115.662 314.939 117.379ZM108.136 160.735C108.136 161.445 109.268 162.026 110.65 162.026C113.055 162.026 119.752 167.168 119.752 169.014C119.752 169.499 121.177 171.176 122.919 172.739C124.661 174.303 127.517 178.338 129.268 181.708C131.017 185.078 132.741 187.111 133.097 186.227C133.455 185.342 133.784 185.2 133.829 185.91C133.874 186.62 133.375 188.049 132.719 189.086C131.683 190.724 131.221 190.703 129.189 188.92C124.491 184.795 118.477 182.683 111.427 182.683C107.486 182.683 104.263 183.123 104.263 183.66C104.263 184.198 106.865 184.431 110.046 184.178C115.925 183.71 125.336 187.161 129.477 191.303C131.996 193.822 132.133 200.416 129.624 198.334C128.296 197.231 126.415 197.664 121.749 200.145C115.898 203.256 102.804 213.24 101.897 215.281C101.66 215.813 100.498 216.251 99.3159 216.251C96.8635 216.252 93.1603 219.848 73.5061 241.302C71.8513 243.107 70.1088 244.505 69.6338 244.41C69.1576 244.314 67.0252 244.956 64.8955 245.838C60.3069 247.737 52.5985 246.785 47.7027 243.715C45.8002 242.522 41.6078 238.905 38.3848 235.676C25.2192 222.482 18.2801 220.03 7.13447 224.631C5.88116 225.148 4.87566 224.998 4.87566 224.292C4.87566 221.827 8.66014 214.272 11.5901 210.889C14.3795 207.669 30.1008 200.334 41.662 196.858C48.3107 194.86 57.8106 189.45 60.7044 186.015C76.2438 167.566 79.3158 164.796 87.2061 162.125C95.0784 159.46 108.136 158.593 108.136 160.735ZM295.452 186.636C298.321 188.101 301.638 191.063 302.822 193.22C306.706 200.294 312.581 209.112 314.726 211.086C315.884 212.151 317.514 214.311 318.348 215.887C319.183 217.462 322.614 220.338 325.973 222.28C329.333 224.22 332.424 226.303 332.843 226.906C333.695 228.13 339.572 228.808 354.005 229.345C359.34 229.544 363.704 230.126 363.704 230.638C363.704 231.151 365.302 231.755 367.254 231.98C370.763 232.383 370.739 232.433 364.995 236.466C358.404 241.093 349.506 249.089 349.506 250.382C349.506 250.856 348.054 253.383 346.279 255.994C344.504 258.607 343.034 261.626 343.012 262.704C342.989 263.782 341.392 265.826 339.462 267.246C336.552 269.388 333.97 269.82 324.336 269.78C311.48 269.728 313.86 270.852 293.877 255.399C282.797 246.831 272.457 241.879 267.564 242.797C264.578 243.358 262.797 242.948 261.18 241.331C259.606 239.757 256.132 238.906 249.549 238.484C240.943 237.931 239.986 237.583 238.04 234.289C236.875 232.314 235.92 229.668 235.92 228.407C235.92 227.147 235.238 224.232 234.406 221.929C232.997 218.034 233.191 217.4 237.182 212.8C244.428 204.451 257.797 198.618 262.522 201.745C264.372 202.969 267.45 209.015 270.841 218.082C273.817 226.038 274.944 226.514 281.932 222.768C286.299 220.426 286.913 220.391 290.64 222.274C292.844 223.387 295.955 225.494 297.553 226.954C299.532 228.764 300.457 229.057 300.457 227.873C300.457 225.255 296.5 221.414 293.803 221.414C292.493 221.414 291.422 220.833 291.422 220.123C291.422 218.154 285.321 218.584 280.915 220.861C278.757 221.978 276.269 222.615 275.387 222.276C274.504 221.937 272.803 218.544 271.604 214.734C269.127 206.856 264.984 199.466 263.045 199.466C260.607 199.466 261.715 193.176 264.782 189.612C269.65 183.952 286.91 182.277 295.452 186.636ZM89.967 196.561L86.8382 200.112L90.3878 196.982C93.705 194.057 94.5298 193.011 93.5166 193.011C93.2855 193.011 91.6889 194.609 89.967 196.561ZM84.3355 200.629C83.8824 201.363 81.6456 201.694 79.3661 201.365L75.2215 200.766L79.592 202.135C82.6368 203.089 84.3729 203.094 85.3139 202.153C86.0573 201.409 86.3271 200.461 85.9128 200.047C85.4997 199.633 84.7898 199.895 84.3355 200.629ZM225.854 215.24C228.732 218.358 230.757 221.85 230.757 223.692C230.757 225.42 231.547 228.665 232.511 230.902C233.476 233.139 234.917 236.568 235.711 238.52C237.101 241.935 239.831 242.912 246.246 242.289C250.8 241.847 257.915 243.75 260.684 246.151C263.267 248.391 263.637 249.819 263.426 256.703C262.082 300.408 262.3 307.107 265.262 313.078C266.847 316.273 269.606 320.575 271.393 322.639C273.18 324.702 274.642 326.915 274.642 327.557C274.642 328.197 275.157 328.405 275.786 328.015C276.416 327.627 277.238 328.488 277.615 329.929C278.191 332.129 277.851 332.411 275.503 331.686C273.965 331.212 270.366 329.465 267.506 327.805C259.309 323.047 244.791 317.413 238.171 316.421C231.449 315.412 221.461 309.299 217.327 303.664C215.247 300.829 214.533 297.378 213.985 287.526C213.601 280.631 212.602 273.78 211.763 272.298C209.907 269.017 201.325 261.994 192.886 256.852C185.011 252.053 180.432 242.924 179.629 230.425C179.132 222.706 179.384 221.663 182.657 217.83C187.797 211.81 193.178 211.113 198.345 215.798C201.872 218.996 202.554 220.708 203.558 228.889C204.929 240.062 207.217 244.034 213.798 246.668C217.027 247.96 219.744 250.399 221.816 253.864C225.026 259.236 236.556 275.259 238.878 277.574C242.293 280.983 237.777 273.14 230.757 263.476C226.497 257.611 223.012 252.24 223.012 251.54C223.012 249.436 217.443 244.903 213.723 243.98C208.672 242.726 206.235 238.049 205.03 227.293C204.444 222.074 203.583 217.184 203.115 216.428C201.306 213.498 206.889 210.249 214.012 210.088C220.568 209.938 221.223 210.223 225.854 215.24ZM176.705 221.759C175.43 223.024 175.283 222.875 175.983 221.036C176.468 219.763 177.189 219.046 177.587 219.444C177.984 219.84 177.588 220.882 176.705 221.759Z" fill="black"/>
</svg>
