<svg width="417" height="985" viewBox="0 0 417 985" fill="none" xmlns="http://www.w3.org/2000/svg">
<path d="M171.291 960.49C171.425 961.625 168.805 967.576 164.947 974.903C163.509 977.634 161.148 979.203 160.954 977.557C160.912 977.202 161.957 974.594 163.276 971.763C164.594 968.932 166.887 962.697 168.368 957.908C169.851 953.117 172.102 947.261 173.367 944.89C176.118 939.747 176.175 939.299 175.621 927.199C175.256 919.247 174.646 916.786 171.825 911.866C167.363 904.084 163.657 902.08 155.348 902.959C150.459 903.474 148.081 903.104 146.351 901.558C144.124 899.57 144.13 899.192 146.472 894.416C150.38 886.441 154.171 869.315 154.006 860.373C153.814 850.001 153.805 845.726 153.959 840.182C154.028 837.744 154.11 833.189 154.143 830.062C154.176 826.934 154.769 823.17 155.463 821.701C156.155 820.23 157.522 815.642 158.499 811.504C159.985 805.215 163.083 797.592 165.346 794.658C166.213 793.535 172.78 779.83 176.221 771.965C180.702 761.724 185.261 738.488 183.778 733.45C183.477 732.426 183.886 731.263 184.688 730.865C187.565 729.437 187.043 742.602 183.622 757.789C182.016 764.921 172.16 788.576 168.193 794.826C165.408 799.21 161.07 810.815 158.581 820.531C157.058 826.476 156.125 852.662 157.131 861.207C157.732 866.304 155.144 879.005 151.277 889.938C149.57 894.768 148.531 899.009 148.969 899.362C149.407 899.716 152.291 899.708 155.379 899.344C158.468 898.979 162.237 899.367 163.755 900.207C165.274 901.043 166.744 901.435 167.021 901.077C167.297 900.717 169.685 903.854 172.324 908.044C176.535 914.728 177.272 916.925 178.329 925.962C179.042 932.057 179.029 937.607 178.298 939.562C176.034 945.603 174.321 949.383 172.983 951.274C171.457 953.438 171.454 956.01 172.98 954.773C173.546 954.315 176.079 949.864 178.608 944.883C186.401 929.539 207.748 890.358 209.656 887.897C215.537 880.312 232.495 847.269 238.395 831.895C240.297 826.935 243.073 820.746 244.565 818.141C246.055 815.534 248.503 810.133 250.005 806.137C253.016 798.131 253.856 796.834 260.403 790.093C265.58 784.759 266.496 784.517 274.061 786.49C278.541 787.656 280.224 788.915 282.44 792.76L285.215 797.57L283.321 785.937C279.954 765.242 281.838 753.901 291.194 738.528C301.916 720.906 310.533 699.175 312.246 685.437C312.802 680.995 312.771 672.482 312.179 666.518C311.159 656.239 311.268 655.475 314.29 651.821C316.043 649.701 318.032 647.903 318.709 647.822C320.797 647.575 330.271 656.416 333.575 661.691C335.297 664.443 336.874 668.105 337.077 669.829C337.279 671.554 337.837 673.279 338.313 673.663C339.888 674.936 345.086 664.661 346.254 657.965C350.108 635.839 344.36 602.164 330.429 565.275C325.962 553.444 322.017 543.393 321.664 542.94C321.103 542.218 313.018 513.206 310.531 502.987C310.037 500.963 309.211 498.133 308.694 496.7C308.178 495.265 306.932 487.652 305.921 479.777C304.122 465.732 304.443 460.756 307.872 449.651C309.447 444.551 318.227 434.684 322.395 433.33C327.118 431.795 330.36 432.428 335.482 435.88C337.703 437.378 340.164 438.256 340.954 437.832C341.742 437.409 342.821 434.428 343.35 431.206C343.879 427.984 345.297 424.196 346.499 422.789C351.688 416.714 352.304 408.276 348.033 401.831C346.736 399.879 343.026 396.225 339.785 393.715C331.667 387.422 328.3 379.238 327.401 363.607C327.036 357.29 325.563 338.878 324.123 322.692C321.512 293.319 321.499 293.24 316.531 280.038C313.321 271.507 308.333 261.653 302.487 252.289C290.448 233.01 288.582 228.473 288.716 218.806C288.727 217.999 291.319 215.615 294.476 213.509C299.455 210.185 300.732 209.812 304.153 210.679C306.322 211.227 309.896 213.329 312.097 215.35C314.297 217.371 316.048 218.608 315.988 218.096C315.927 217.584 317.404 219.493 319.265 222.335C324.153 229.796 325.477 229.305 325.276 220.11C325.111 212.618 324.357 207.999 321.329 195.92C319.983 190.558 309.535 177.989 297.117 166.792C288.479 159.007 282.966 152.922 283.251 151.487C283.392 150.776 283.158 150.648 282.731 151.202C282.302 151.754 279.176 150.36 275.781 148.103C272.386 145.844 264.355 141.306 257.937 138.018C237.248 127.423 224.702 116.122 224.693 108.076C224.688 103.641 231.234 95.1335 234.993 94.6902C236.221 94.5454 237.183 94.0639 237.131 93.6193C236.975 92.2971 228.681 86.2585 221.602 82.3139C213.481 77.79 180.499 65.7687 177.256 66.1511C176.654 66.2221 173.142 64.6474 169.452 62.6525C165.763 60.6575 161.876 59.1275 160.815 59.2525C159.755 59.3775 159.16 58.8798 159.493 58.1461C159.836 57.3926 158.772 56.9687 157.047 57.172C155.368 57.3699 149.257 56.467 143.465 55.1654C125.126 51.042 119.273 49.8634 114.704 49.3719C93.8178 47.128 84.6804 46.2171 64.0118 44.3224C50.9567 43.1258 38.5483 42.0741 36.4363 41.9847C31.025 41.754 27.9213 40.2772 25.5434 36.7968C22.5631 32.4346 24.0476 31.7772 28.5936 35.4474C31.5582 37.841 34.2028 38.6501 39.3161 38.7291C43.0489 38.7864 50.8853 39.3435 56.7308 39.9686C62.5763 40.5936 71.5691 41.4713 76.7147 41.9188C116.666 45.3969 149.347 51.041 160.119 56.3228C162.843 57.6578 165.616 58.6867 166.28 58.6083C168.036 58.4013 179.691 62.5375 180.299 63.5831C180.584 64.0695 181.573 64.3797 182.499 64.2706C183.424 64.1613 186.366 64.7541 189.033 65.5859C198.379 68.5046 205.463 71.0375 206.155 71.7095C206.538 72.0822 209.167 73.1749 211.996 74.1378C226.405 79.0387 241.721 90.4464 242.403 96.7849C242.789 100.365 242.656 100.531 240.905 98.6693C237.579 95.1381 229.952 100.192 228.514 106.881C227.976 109.384 231.085 115.002 234.972 118.554C236.589 120.033 238.033 122.258 238.181 123.502C238.369 125.098 239.015 125.459 240.378 124.729C241.678 124.033 242.079 124.205 241.603 125.255C241.212 126.114 241.521 126.742 242.29 126.651C243.057 126.561 246.149 127.779 249.163 129.357C252.174 130.936 255.59 132.663 256.748 133.197C262.344 135.768 273.47 142.033 277.092 144.652C279.318 146.262 282.363 148.371 283.854 149.337C288.613 152.422 294.521 159.447 293.761 161.118C293.341 162.045 293.512 162.33 294.17 161.797C295.938 160.366 314.482 178.223 320.472 187.127C323.803 192.08 327.497 208.265 327.916 219.753C328.275 229.585 328.143 230.14 325.406 230.464C322.49 230.807 317.048 227.1 316.75 224.565C316.508 222.51 305.465 214.278 302.134 213.671C300.302 213.336 298.222 214.007 296.484 215.492C294.973 216.785 293.643 217.417 293.529 216.893C293.416 216.369 292.863 217.978 292.301 220.467C290.938 226.499 294.057 233.736 306.349 253.073C311.47 261.125 315.785 268.807 315.944 270.145C316.101 271.484 317.795 276.369 319.707 281.002C322.554 287.898 323.67 293.368 325.876 311.198C327.358 323.172 328.637 336.654 328.719 341.159C329.276 371.8 332.591 384.286 342.162 391.806C348.653 396.904 351.032 400.795 352.946 409.433C354.08 414.564 353.896 415.907 351.629 419.054C348.489 423.414 345.248 432.199 344.96 437.135C344.848 439.084 344.172 441.152 343.461 441.727C341.683 443.167 337.773 442.455 336.769 440.506C335.25 437.561 327.934 435.609 323.368 436.931C317.682 438.577 310.804 448.306 308.892 457.407C306.886 466.957 308.645 482.871 313.994 503.564C316.469 513.144 318.874 522.642 319.339 524.671C320.98 531.848 324.686 543.206 328.28 552.075C337.358 574.474 341.214 586.734 345.495 606.794C350.784 631.575 351.48 642.906 348.697 658.86C346.772 669.898 342.161 677.878 337.382 678.441C335.325 678.685 334.956 678.025 334.856 673.913C334.712 667.949 329.961 659.811 323.823 655.01C319.769 651.841 319.201 651.725 317.093 653.646C315.169 655.398 314.874 657.63 315.294 667.274C316.024 684.024 314.57 694.222 309.64 706.942C304.068 721.321 296.34 737.233 292.608 742.013C289.696 745.745 286.191 754.454 285.318 760.134C283.316 773.15 286.961 795.37 293.965 812.851C297.718 822.221 298.386 826.518 296.255 827.624C295.977 827.768 294.415 826.885 292.783 825.661C288.25 822.256 285.078 815.493 283.393 805.637C281.352 793.694 279.354 790.615 272.476 788.823C267.194 787.445 266.702 787.514 263.001 790.16C260.856 791.695 258.342 794.913 257.418 797.313C256.494 799.712 255.353 801.721 254.88 801.777C254.408 801.833 253.812 802.998 253.557 804.369C253.302 805.738 250.875 811.39 248.164 816.927C245.451 822.464 243.263 827.261 243.301 827.588C243.556 829.753 221.584 875.007 218.572 878.52C217.311 879.993 216.327 881.603 216.385 882.1C216.443 882.599 214.349 886.024 211.73 889.712C209.112 893.4 206.771 897.435 206.529 898.68C206.287 899.924 205.579 901 204.955 901.074C204.33 901.147 203.913 902.002 204.026 902.972C204.14 903.942 203.844 904.971 203.37 905.259C202.371 905.861 197.452 914.322 193.853 921.625C192.494 924.383 190.97 926.694 190.468 926.757C189.967 926.821 189.652 927.687 189.768 928.678C189.885 929.673 189.302 931.018 188.469 931.673C187.639 932.325 184.217 938.365 180.865 945.09C177.516 951.816 173.958 957.756 172.96 958.291C171.963 958.824 171.21 959.812 171.291 960.49Z" fill="black"/>
<path d="M254.797 757.575C256.462 760.116 257.86 762.498 257.904 762.868C257.948 763.238 257.678 763.576 257.307 763.62C255.943 763.781 249.047 750.531 248.779 747.232C248.545 744.346 248.749 744.521 250.135 748.392C251.032 750.9 253.13 755.032 254.797 757.575Z" fill="black"/>
<path d="M236.709 731.981C234.374 738.845 231.989 748.611 231.412 753.687C230.836 758.764 229.976 762.73 229.502 762.503C227.177 761.39 229.093 728.812 231.603 726.778C232.137 726.346 232.434 724.808 232.264 723.361C231.842 719.781 235.603 705.787 240.231 693.72C244.859 681.651 259.194 641.498 259.909 638.606C260.375 636.712 260.249 636.726 258.468 638.754C256.226 641.309 244.539 649.352 244.427 648.416C244.387 648.073 246.895 646.073 250.001 643.967C253.106 641.865 256.939 637.853 258.519 635.053C260.1 632.254 261.977 629.327 262.692 628.548C263.407 627.769 264.457 623.48 265.024 619.018C265.593 614.557 267.07 607.565 268.306 603.483C272.159 590.773 273.891 565.064 272.093 547.28C270.687 533.382 263.426 497.836 261.482 495.334C261.068 494.804 260.102 491.737 259.331 488.522C258.56 485.309 256.517 479.505 254.789 475.626C253.062 471.748 251.592 468.096 251.525 467.513C251.456 466.931 248.666 461.965 245.324 456.475C241.983 450.986 238.728 445.105 238.092 443.407C237.456 441.707 236.413 440.066 235.773 439.76C235.132 439.454 234.486 438.163 234.338 436.89C234.187 435.619 233.631 434.439 233.103 434.269C231.497 433.757 225.837 424.874 224.438 420.669C223.716 418.499 222.658 416.776 222.089 416.843C221.522 416.91 219.51 413.882 217.62 410.112C215.728 406.344 211.257 397.722 207.684 390.957C204.109 384.188 200.943 377.065 200.646 375.128C199.928 370.443 198.842 372.196 198.073 379.281L197.45 385.034L197.243 378.116C197.069 372.363 192.53 352.414 189.267 343.079C188.801 341.746 186.669 330.351 184.53 317.759C176.213 268.831 171.588 246.831 167.567 237.076C166.749 235.089 164.72 229.791 163.058 225.3C161.397 220.809 159.551 217.192 158.955 217.263C158.36 217.333 157.767 216.497 157.638 215.404C157.51 214.313 156.448 212.022 155.278 210.317C154.109 208.612 150.537 202.84 147.34 197.489C144.144 192.139 141.134 187.806 140.65 187.863C140.168 187.919 138.027 185.19 135.892 181.796C127.478 168.424 106.154 136.913 104.443 135.326C103.447 134.402 99.611 129.171 95.92 123.702C92.2303 118.233 87.9729 112.149 86.4624 110.183C82.3526 104.838 69.2311 93.5779 69.3445 95.4947C69.3994 96.4123 68.6609 95.5512 67.7043 93.5812C66.7476 91.6112 64.1717 87.9385 61.9799 85.4198C49.1082 70.6277 38.6577 54.2439 37.8796 47.6363C37.7733 46.7338 37.2749 46.044 36.7732 46.1032C36.2715 46.1623 36.9647 55.5947 38.3153 67.0654C40.7641 87.8628 40.9311 98.0363 38.8088 97.0203C38.1926 96.7255 38.0611 97.453 38.5164 98.6351C38.9718 99.8184 38.5453 103.569 37.5679 106.97C36.5907 110.372 35.8044 113.571 35.8201 114.082C35.9292 117.557 30.9144 145.375 29.8356 147.276C29.4134 148.02 28.9113 150.636 28.7198 153.088C28.5295 155.54 27.91 159.907 27.346 162.792C26.7807 165.676 26.2783 170.564 26.2298 173.654C26.1799 176.742 26.0219 180.833 25.8788 182.742C25.7344 184.651 25.764 188.909 25.9433 192.203C26.1236 195.496 26.0612 201.622 25.8059 205.819C25.5493 210.014 25.6448 218.807 26.0187 225.359C26.3927 231.912 26.211 237.519 25.6156 237.82C25.0203 238.121 24.5976 238.915 24.6762 239.582C24.7549 240.252 25.3264 240.387 25.9464 239.885C26.5663 239.383 27.1433 239.566 27.2286 240.291C27.314 241.014 26.6993 241.698 25.864 241.806C24.9193 241.93 24.8465 242.297 25.6744 242.776C26.4059 243.2 27.2742 244.936 27.6049 246.633C29.5154 256.442 31.52 263.838 32.2369 263.718C32.6885 263.645 34.2134 260.982 35.6245 257.803C38.9352 250.354 45.8788 244.262 56.1815 239.772C69.4485 233.99 77.4372 232.709 84.8726 235.165C92.1563 237.573 93.2749 239.543 93.3099 250.033C93.3392 258.806 89.0539 271.255 81.3325 284.822C78.1962 290.334 75.7063 295.495 75.8 296.29C75.8937 297.085 75.422 297.8 74.7522 297.879C74.0826 297.959 73.602 298.594 73.6841 299.293C73.7663 299.991 72.7524 302.883 71.4309 305.72C67.894 313.315 66.1576 327.424 67.8673 334.668C68.0271 335.343 69.1262 333.509 70.31 330.592C72.6877 324.731 78.3962 320.154 84.0935 319.542C88.3438 319.086 90.2952 320.172 95.7221 326.019C97.8997 328.365 100.613 330.175 101.751 330.04C102.889 329.905 105.608 327.324 107.794 324.305C112.822 317.36 116.302 315.972 123.12 318.193C130.103 320.464 132.909 322.969 137.978 331.452C143.399 340.525 146.234 349.133 147.501 360.373C148.829 372.132 147.72 381.071 143.194 395.072C139.817 405.525 137.786 409.852 132.427 418.005C129.878 421.881 126.018 429.192 126.109 429.967C126.151 430.321 124.92 434.608 123.373 439.495C121.826 444.381 120.532 450.369 120.496 452.804L120.432 457.23L123.705 453.214C132.608 442.294 142.339 451.482 145.609 473.895C146.561 480.413 147.068 488.306 146.736 491.435C145.981 498.549 147.03 512.792 148.298 512.643C148.819 512.581 149.682 513.514 150.216 514.715C151.867 518.432 159.307 523.753 163.453 524.184C166.672 524.517 173.037 526.299 180.123 528.853C180.703 529.061 180.942 528.49 180.657 527.582C179.699 524.548 180.576 513.717 182.252 507.884C184.074 501.545 186.111 498.336 190.816 494.401C193.92 491.805 193.926 491.806 198.541 495.759C201.081 497.935 203.748 501.627 204.466 503.96C205.697 507.959 205.774 523.886 204.574 526.525C204.269 527.194 203.682 531.83 203.27 536.827C202.41 547.208 195.846 563.904 187.809 576.151C181.663 585.515 178.066 594.173 177.738 600.375C177.478 605.343 179.359 606.577 181.99 603.164C183.662 600.999 190.216 602.949 193.877 606.704C197.272 610.185 198.541 618.868 196.476 624.505C193.956 631.388 186.445 646.15 182.298 652.371C180.105 655.661 177.426 660.285 176.347 662.646C175.266 665.008 171.24 670.988 167.397 675.934C159.173 686.522 149.867 702.608 147.077 711.055C145.176 716.815 143.587 731.271 144.751 732.212C145.06 732.46 146.51 731.23 147.973 729.476C153.347 723.031 162.439 716.411 167.585 715.193C172.1 714.128 173.372 714.395 177.351 717.253C183.024 721.329 181.99 723.569 176.231 719.685C173.93 718.135 170.713 717.023 169.083 717.216C165.587 717.626 155.746 723.617 155.935 725.215C156.007 725.826 155.481 726.393 154.766 726.477C152.969 726.688 146.13 736.31 146.364 738.3C146.679 740.975 144.512 741.801 143.028 739.573C141.011 736.543 141.359 721.733 143.637 713.631C147.099 701.322 153.663 689.363 165.346 674.08C178.61 656.732 194.226 627.535 194.659 619.274C194.984 613.068 192.505 608.048 188.389 606.575C185.153 605.417 184.574 605.595 182.201 608.48C179.632 611.605 179.547 611.623 177.447 609.474C176.005 608 175.256 605.448 175.145 601.629C174.903 593.287 177.142 587.052 184.244 576.279C196.389 557.857 200.538 546.21 202.09 526.186C203.565 507.152 201.342 498.367 194.832 497.489C192.162 497.13 190.988 498.003 187.822 502.707C185.73 505.814 184.049 509.364 184.087 510.595C184.124 511.827 183.827 517.133 183.424 522.389C183.022 527.643 182.878 533.767 183.106 535.995C183.384 538.739 182.927 540.119 181.691 540.264C179.807 540.487 179.307 539.391 179.12 534.639C178.998 531.548 173.106 528.727 163.799 527.309C160.865 526.86 158.4 525.956 158.323 525.298C158.245 524.64 157.611 524.169 156.913 524.251C154.985 524.478 150.965 521.018 148.146 516.704C144.945 511.806 143.534 502.288 143.482 485.238C143.452 475.338 142.91 470.256 141.43 465.972C136.666 452.202 130.952 448.234 125.963 455.234C124.522 457.256 123.41 459.473 123.492 460.165C123.573 460.854 123.1 461.162 122.442 460.846C121.784 460.532 121.108 460.962 120.939 461.803C120.759 462.701 119.931 462.997 118.933 462.52C117.324 461.751 117.11 459.233 117.847 449.687C118.336 443.335 125.581 424.402 131.582 413.793C144.788 390.444 148.199 369.841 142.374 348.607C138.234 333.512 128.529 321.274 119.746 320.068C116.552 319.629 112.01 322.993 107.299 329.283C105.35 331.886 102.989 333.694 101.636 333.617C99.0663 333.472 91.8976 328.151 91.6705 326.222C91.591 325.547 90.195 324.314 88.5698 323.482C81.6528 319.943 71.9838 327.539 71.3753 336.988C71.0594 341.887 68.7648 342.762 66.1774 338.969C63.5349 335.098 64.1712 319.214 67.3666 309.285C70.1019 300.787 78.3978 282.556 80.6264 280.146C82.2726 278.366 88.3672 265.255 89.8064 260.397C90.4012 258.391 90.8795 253.665 90.8689 249.894C90.8466 241.914 87.8746 237.015 83.3581 237.517C81.8651 237.681 79.906 237.452 79.0042 237.007C76.6356 235.839 60.3041 239.857 56.3987 242.57C54.5725 243.838 52.3714 244.962 51.5086 245.069C46.0904 245.735 34.4002 262.527 34.2164 269.91C34.0813 275.304 31.5705 274.229 30.136 268.159C29.371 264.924 27.7429 258.656 26.5168 254.23C23.6184 243.769 22.0751 222.463 22.9425 204.893C23.3221 197.213 23.5203 190.089 23.3822 189.063C22.3965 181.729 24.1667 160.535 26.0993 156.553C26.4558 155.817 27.8883 147.411 29.2827 137.874C30.676 128.337 32.7273 117.018 33.8388 112.721C37.8827 97.1018 38.3579 84.7494 35.6685 65.1684C34.3081 55.2616 32.6467 46.1616 31.9751 44.9456C30.9218 43.0363 31.1695 42.8126 33.7884 43.3081C37.6525 44.0391 40.1103 45.6099 40.3314 47.4873C40.7311 50.8813 57.7638 68.758 70.6243 79.2797C73.6329 81.7425 77.994 85.7511 80.3158 88.1889C82.6376 90.628 86.7209 94.4073 89.3901 96.5869C92.0594 98.768 97.3698 104.16 101.191 108.569C105.012 112.979 110.452 118.87 113.278 121.661C116.104 124.452 119.393 128.609 120.585 130.898C121.776 133.188 124.615 136.507 126.892 138.272C129.17 140.038 130.298 141.15 129.402 140.742C128.505 140.335 127.799 140.173 127.833 140.384C128.007 141.49 137.27 154.989 138.866 156.463C139.892 157.412 141.275 159.445 141.937 160.981C142.6 162.518 143.406 163.432 143.73 163.014C145.081 161.262 163.534 187.994 167.822 197.915C168.963 200.557 170.517 203.782 171.276 205.081C173.461 208.828 182.453 236.798 185.156 248.258C186.512 253.999 188.685 261.838 189.985 265.677C192.333 272.609 192.33 272.658 189.516 272.991C186.531 273.342 186.147 275.273 188.486 278.161C189.603 279.539 189.818 279.28 189.55 276.878C189.365 275.222 189.539 274.129 189.935 274.448C190.832 275.175 192.034 280.743 195.195 298.83C199.573 323.883 200.919 329.172 206.897 344.788C215.887 368.274 228.751 395.003 233.504 400.075C234.817 401.476 237.008 402.739 238.374 402.878C239.739 403.017 242.841 403.498 245.265 403.943C247.69 404.39 254.342 404.267 260.048 403.67C265.755 403.073 273.761 402.616 277.84 402.659C282.32 402.703 278 403.357 266.923 404.31C256.78 405.18 245.821 405.424 242.393 404.856C238.985 404.292 236.043 404.027 235.855 404.27C235.667 404.514 237.036 407.618 238.895 411.167C242.508 418.06 242.951 418.941 252.978 439.114C265.042 463.379 268.198 471.925 275.987 501.378C283.177 528.57 286.865 552.775 286.575 570.855L286.463 577.845L293.002 580.078C296.597 581.309 301.367 583.755 303.601 585.517C308.487 589.372 329.854 616.212 328.192 616.409C327.549 616.484 326.549 615.609 325.973 614.46C325.396 613.313 323.836 611.083 322.505 609.504C321.173 607.925 316.421 602.141 311.942 596.648C305.759 589.066 302.225 585.913 297.254 583.547C287.786 579.039 286.575 579.535 285.663 588.285C284.195 602.341 275.769 634.839 271.568 642.649C270.373 644.872 268.221 649.954 266.79 653.942C265.356 657.929 263.34 662.427 262.306 663.937C261.273 665.448 259.143 670.345 257.575 674.818C256.007 679.292 254.216 683.363 253.598 683.863C251.75 685.359 246.03 700.592 243.808 709.936C242.14 716.944 242.051 719.431 243.36 722.605C244.254 724.777 245.032 727.406 245.088 728.445C245.144 729.484 244.236 727.899 243.073 724.919L240.957 719.503L236.709 731.981Z" fill="black"/>
<path d="M203.144 722.668C203.02 724.765 202.757 730.618 202.561 735.676C202.364 740.733 201.959 744.897 201.661 744.933C200.503 745.069 200.808 728.992 202.054 724.058C203.1 719.917 203.324 719.633 203.144 722.668Z" fill="black"/>
<path d="M246.063 732.441C246.228 731.205 246.594 732.158 246.875 734.555C247.158 736.95 247.023 737.961 246.576 736.798C246.128 735.636 245.898 733.676 246.063 732.441Z" fill="black"/>
<path d="M181.637 723.309C182.307 723.23 182.921 723.726 183.002 724.41C183.083 725.096 182.6 725.721 181.931 725.799C181.261 725.878 180.648 725.382 180.566 724.698C180.486 724.013 180.968 723.388 181.637 723.309Z" fill="black"/>
<path d="M208.341 703.12C208.01 704.548 207.194 708.485 206.53 711.869C205.867 715.252 205.05 717.798 204.714 717.528C203.858 716.838 206.515 703.603 207.849 701.916C208.597 700.97 208.755 701.358 208.341 703.12Z" fill="black"/>
<path d="M216.021 682.649C215.051 684.498 213.206 689.173 211.921 693.034C210.637 696.896 209.283 699.811 208.914 699.512C207.862 698.664 213.54 683.634 215.78 681.339C217.71 679.362 217.718 679.413 216.021 682.649Z" fill="black"/>
<path d="M195.789 679.984C196.032 679.956 195.772 681.406 195.21 683.209C194.649 685.01 193.717 686.54 193.14 686.609C192.562 686.676 192.822 685.226 193.717 683.384C194.613 681.543 195.545 680.013 195.789 679.984Z" fill="black"/>
<path d="M224.555 668.388C221.684 672.832 219.36 677.058 219.391 677.778C219.422 678.5 219.09 678.426 218.655 677.616C218.22 676.805 218.502 675.288 219.283 674.246C220.534 672.572 224.443 666.235 228.143 659.87C228.832 658.687 229.481 658.301 229.586 659.012C229.692 659.726 227.429 663.944 224.555 668.388Z" fill="black"/>
<path d="M236.349 653.199C223.813 659.763 202.378 673.774 200.584 676.579C199.983 677.516 198.904 678.354 198.185 678.439C196.186 678.675 204.814 670.96 212.503 665.636C220.245 660.274 240.027 649.478 242.367 649.336C243.214 649.284 240.506 651.021 236.349 653.199Z" fill="black"/>
<path d="M298.425 635.065C297.151 641.811 296.086 650.457 296.06 654.279C296.029 658.639 295.701 660.087 295.179 658.17C294.065 654.073 295.081 643.527 297.915 629.736C299.735 620.885 300.042 615.227 299.313 603.993C298.799 596.074 298.608 589.779 298.889 590.005C302.131 592.625 301.884 616.754 298.425 635.065Z" fill="black"/>
<path d="M286.566 461C288.351 472.244 290.332 482.804 290.968 484.465C291.91 486.924 291.717 486.831 289.925 483.956C288.263 481.289 287.189 475.564 285.524 460.491L283.32 440.554L286.566 461Z" fill="black"/>
<path d="M217.409 470.727C225.716 478.735 230.166 485.502 230.693 490.939C230.971 493.816 230.531 493.245 228.787 488.473C227.538 485.057 225.303 480.999 223.818 479.453C210.863 465.979 207.924 462.125 202.481 451.48C199.169 445.002 195.594 438.891 194.538 437.9C192.345 435.843 188.934 428.935 188.644 425.963C188.538 424.864 189.732 426.665 191.298 429.967C192.867 433.268 195.58 437.581 197.326 439.551C199.073 441.521 200.57 443.71 200.654 444.417C201.215 449.178 211.007 464.557 217.409 470.727Z" fill="black"/>
<path d="M181.398 432.052C179.757 437.324 178.283 444.191 178.126 447.313C177.969 450.433 177.505 452.282 177.094 451.421C175.477 448.033 180.427 425.674 183.308 423.339C183.902 422.858 183.04 426.78 181.398 432.052Z" fill="black"/>
<path d="M281.459 428.149C282.213 430.144 283.027 433.456 283.272 435.509C283.643 438.649 283.462 438.471 282.123 434.383C280.103 428.226 279.56 423.123 281.459 428.149Z" fill="black"/>
<path d="M268.586 408.839C271.047 408.548 279.186 419.001 279.586 422.964C279.675 423.845 278.332 422.174 276.603 419.253C274.875 416.334 272.154 412.821 270.558 411.445C268.962 410.071 268.074 408.899 268.586 408.839Z" fill="black"/>
<path d="M296.363 404.763C297.692 403.038 307.488 409.315 307.936 412.178C308.024 412.74 306.013 411.414 303.47 409.235C300.925 407.055 298.132 405.355 297.262 405.458C296.394 405.56 295.988 405.247 296.363 404.763Z" fill="black"/>
<path d="M186.427 417.146C187.068 415.776 187.421 416.195 187.728 418.686C188.186 422.4 187.668 423.141 186.369 420.623C185.918 419.746 185.943 418.182 186.427 417.146Z" fill="black"/>
<path d="M263.305 405.998C264.049 405.036 266.564 406.517 266.743 408.021C266.839 408.849 266.129 408.836 264.857 407.99C263.734 407.243 263.037 406.348 263.305 405.998Z" fill="black"/>
<path d="M287.753 402.97C289.092 402.813 291.341 403.034 292.751 403.466L295.311 404.248L292.876 404.534C291.537 404.693 289.289 404.47 287.879 404.04L285.318 403.256L287.753 402.97Z" fill="black"/>
<path d="M194.09 399.776C194.239 400.705 193.226 404.375 191.84 407.931C190.455 411.486 188.839 414.451 188.252 414.521C187.665 414.59 187.75 413.376 188.438 411.822C189.128 410.269 190.621 406.542 191.756 403.542C192.89 400.54 193.941 398.846 194.09 399.776Z" fill="black"/>
<path d="M197.169 386.199C197.476 386.446 197.323 389.028 196.83 391.935C196.338 394.843 195.684 397.019 195.377 396.77C195.071 396.523 195.223 393.941 195.715 391.034C196.207 388.128 196.861 385.95 197.169 386.199Z" fill="black"/>
<path d="M257.78 338.493C261.078 345.58 263.819 351.74 263.873 352.187C264.089 354.026 262.661 351.602 258.53 343.12C251.969 329.651 249.266 321.73 248.159 312.736C246.944 302.869 242.14 294.482 237.226 293.653C234.266 293.152 234.292 293.111 237.67 292.944C243.193 292.674 247.363 299.998 249.834 314.313C251.307 322.853 253.248 328.758 257.78 338.493Z" fill="black"/>
<path d="M271.277 303.007C276.051 306.549 280.677 310.55 281.557 311.895C282.435 313.238 278.957 311.07 273.825 307.075C265.145 300.314 254.363 295.181 242.061 291.953C239.662 291.324 238.254 290.544 238.931 290.22C239.608 289.898 245.211 291.192 251.379 293.098C259.551 295.624 264.952 298.314 271.277 303.007Z" fill="black"/>
<path d="M224.66 286.524C223.844 285.475 234.732 288.083 236.238 289.297C236.768 289.726 234.544 289.489 231.294 288.767C228.045 288.049 225.06 287.039 224.66 286.524Z" fill="black"/>
<path d="M219.272 285.131C219.628 284.67 220.673 284.501 221.594 284.757C222.613 285.04 222.359 285.369 220.946 285.596C219.669 285.801 218.917 285.591 219.272 285.131Z" fill="black"/>
<path d="M195.264 275.247C196.785 276.332 202.584 278.902 208.149 280.954C213.715 283.006 217.56 284.784 216.693 284.904C213.633 285.326 196.324 278.22 194.425 275.762C192.535 273.316 192.549 273.306 195.264 275.247Z" fill="black"/>
<path d="M122.465 263.537C123.436 261.244 123.645 263.028 123.955 276.301C124.004 278.377 123.466 276.88 122.762 272.969C122.057 269.062 121.923 264.816 122.465 263.537Z" fill="black"/>
<path d="M129.162 246.178C129.208 246.567 128.591 248.755 127.792 251.038C126.228 255.508 125.047 256.746 125.892 253.034C126.478 250.46 129.035 245.1 129.162 246.178Z" fill="black"/>
<path d="M134.557 229.59C134.668 230.261 133.647 233.931 132.287 237.748C130.927 241.565 129.568 244.488 129.266 244.246C128.965 244.002 129.986 240.33 131.535 236.086C133.085 231.841 134.445 228.918 134.557 229.59Z" fill="black"/>
<path d="M219.962 197.448C220.992 199.757 225.023 205.531 228.918 210.28C234.361 216.914 235.096 218.215 232.102 215.902C227.206 212.122 220.95 203.121 219.326 197.524L218.086 193.251L219.962 197.448Z" fill="black"/>
<path d="M137.596 216.823C138.007 217.579 137.731 220.396 136.985 223.084C136.238 225.774 135.319 227.725 134.939 227.419C134.56 227.113 134.888 225.141 135.667 223.037C136.445 220.931 137.031 218.364 136.967 217.33C136.898 216.222 137.156 216.013 137.596 216.823Z" fill="black"/>
<path d="M139.862 203.6C140.21 203.882 140.323 205.916 140.114 208.123C139.618 213.359 138.516 212.469 138.92 207.159C139.09 204.921 139.514 203.321 139.862 203.6Z" fill="black"/>
<path d="M208.387 159.996C213.548 165.714 217.177 176.835 217.409 187.651C217.496 191.708 216.896 189.753 215.293 180.759C213.362 169.919 212.526 167.558 209.179 163.518C207.046 160.944 205.269 158.551 205.228 158.204C205.187 157.856 202.863 155.832 200.067 153.705C196.011 150.621 194.191 150.014 191.073 150.708C186.747 151.669 186.433 151.459 188.394 148.916C190.765 145.841 200.574 150.343 216.634 161.88C232.904 173.564 248.761 181.431 254.65 180.736C256.738 180.491 258.514 180.849 258.594 181.534C258.803 183.315 254.507 183.573 249.459 182.086C242.122 179.926 225.383 170.477 216.775 163.636C208.597 157.139 204.01 155.147 208.387 159.996Z" fill="black"/>
<path d="M140.158 194.233C140.735 194.164 141.111 195.541 140.993 197.29C140.874 199.04 140.566 200.497 140.309 200.526C140.054 200.557 139.678 199.181 139.476 197.468C139.275 195.756 139.582 194.3 140.158 194.233Z" fill="black"/>
<path d="M57.092 196.45C56.9515 198.896 56.5628 201.498 56.2307 202.233C54.7014 205.602 54.4229 197.71 55.9286 193.69C57.8243 188.629 70.7792 169.765 71.0103 171.729C71.0913 172.416 68.0501 177.259 64.2534 182.49C59.4314 189.131 57.2719 193.343 57.092 196.45Z" fill="black"/>
<path d="M79.0734 140.533C79.0501 145.997 74.7191 164.672 72.7553 167.779C70.8206 170.842 70.9874 169.7 73.9687 159.431C75.5857 153.86 77.4015 146.119 78.003 142.229C79.016 135.682 79.095 135.557 79.0734 140.533Z" fill="black"/>
<path d="M171.438 143.858C175.187 143.979 179.698 144.538 181.46 145.099C184.571 146.089 184.556 146.113 180.932 145.849C178.877 145.701 172.548 145.354 166.867 145.081C161.187 144.806 156.117 144.216 155.602 143.769C155.086 143.323 156.904 143.11 159.643 143.297C162.381 143.484 167.688 143.737 171.438 143.858Z" fill="black"/>
<path d="M134.722 141.363C136.786 141.585 138.725 141.943 139.034 142.156C140.383 143.089 134.724 142.951 132.946 142.007C131.504 141.241 131.982 141.067 134.722 141.363Z" fill="black"/>
<path d="M72.8275 103.076C76.9841 110.57 80.1801 122.091 80.033 129.051C79.9702 132.01 79.7622 134.448 79.5699 134.471C79.3787 134.493 78.6724 129.89 78.0011 124.242C77.228 117.727 75.7943 112.01 74.0839 108.609C70.031 100.549 69.0639 96.289 72.8275 103.076Z" fill="black"/>
</svg>
