<svg width="339" height="320" viewBox="0 0 339 320" fill="none" xmlns="http://www.w3.org/2000/svg">
<path fill-rule="evenodd" clip-rule="evenodd" d="M168.264 299.181C172.916 295.92 177.338 293.181 178.088 293.092C178.838 293.004 180.219 291.852 181.155 290.527C182.094 289.205 183.841 287.158 185.038 285.979C188.04 283.022 189.452 278.785 188.371 275.987C187.734 274.336 188.754 272.101 191.817 268.449C194.209 265.594 196.646 263.202 197.229 263.133C197.812 263.065 199.412 261.46 200.786 259.567C202.16 257.674 203.875 256.056 204.596 255.969C205.316 255.884 207.71 253.76 209.915 251.251C212.121 248.741 216.035 244.456 218.612 241.729C227.263 232.58 255.11 196.114 254.887 194.227C254.766 193.2 256.623 189.674 259.016 186.39C263.881 179.71 269.312 169.819 269.101 168.023C269.024 167.375 269.779 165.974 270.776 164.905C272.987 162.539 282.605 134.686 281.639 133.447C281.257 132.96 281.881 132.15 283.021 131.647C285.115 130.724 286.275 130.314 296.935 126.732C300.179 125.642 303.328 124.046 303.936 123.186C304.745 122.038 304.419 121.961 302.714 122.89C300.046 124.346 288.646 127.574 287.937 127.076C287.677 126.892 288.704 124.604 290.218 121.99C291.735 119.376 292.996 116.498 293.022 115.594C293.052 114.692 293.436 113.164 293.882 112.198C294.326 111.234 294.411 110.221 294.069 109.944C293.726 109.67 291.784 113.336 289.752 118.093C287.721 122.85 285.387 126.821 284.565 126.918C283.746 127.014 282.855 127.974 282.59 129.05C282.012 131.382 279.605 131.38 277.153 129.048C275.679 127.645 275.597 127.966 276.655 130.973C277.353 132.957 277.947 135.154 277.975 135.856C278.062 138.088 273.774 152.259 272.523 153.875C271.862 154.73 271.398 156.079 271.492 156.875C271.587 157.672 270.622 160.059 269.349 162.181C268.079 164.302 266.387 167.651 265.593 169.62C263.537 174.714 260.668 179.675 256.084 186.056C253.895 189.105 252.203 192.438 252.322 193.46C252.588 195.698 222.477 234.291 214.068 242.493C210.791 245.688 208.166 248.769 208.233 249.337C208.3 249.907 206.674 251.458 204.622 252.784C202.57 254.11 197.503 258.74 193.364 263.071C186.529 270.225 185.675 270.767 184.056 268.993C181.052 265.703 177.137 268.51 167.697 280.717C158.678 292.381 155.781 299.51 158.515 303.316C159.616 304.851 161.028 304.252 168.264 299.181ZM113.519 248.119C117.832 242.016 121.629 225.76 119.398 222.955C118.4 221.7 118.596 218.361 120.063 211.61C122.997 198.121 125.419 178.144 125.483 166.903C125.513 161.644 125.659 153.691 125.811 149.231C126.058 141.928 125.675 125.597 124.724 102.865C124.169 89.6011 121.741 68.9431 120.14 63.8687L118.651 59.1476L123.48 59.341C126.136 59.4486 127.586 59.3087 126.704 59.0307C124.392 58.3033 124.477 56.2893 126.83 56.013C128.993 55.759 139.112 49.3747 138.338 48.7526C138.08 48.5436 135.586 49.7737 132.797 51.4831C130.008 53.1936 126.186 54.7861 124.305 55.0222C120.929 55.4463 120.905 55.4063 122.373 51.8129C125.798 43.4311 127.427 35.3813 125.849 34.6308C124.998 34.2244 124.526 32.9763 124.804 31.8566C125.082 30.7369 124.744 29.5523 124.055 29.2238C123.313 28.8702 123.147 31.5701 123.65 35.844C124.25 40.9415 123.906 44.3827 122.48 47.5606C119.679 53.8021 117.817 51.8138 115.434 40.032C114.096 33.42 113.574 32.0331 113.731 35.5087C114.081 43.2971 115.401 48.8517 117.731 52.358C120.491 56.5092 118.543 56.8502 112.594 53.2563C108.799 50.9636 107.756 49.2837 104.937 40.9299C103.141 35.6101 101.291 31.3017 100.827 31.3562C99.2923 31.5363 103.681 44.1343 107.264 49.8364L110.781 55.4339L107.358 53.7551C101.698 50.98 96.4036 46.6191 93.4499 42.2991C91.3913 39.2862 90.7323 38.8685 90.9346 40.7053C91.2718 43.768 98.059 51.1165 103.453 54.2581C105.655 55.541 109.714 57.0658 112.472 57.6463L117.486 58.7012L120.001 78.7079C124.144 111.653 124.651 159.363 121.173 188.934C119.037 207.091 115.792 220.952 113.799 220.431C112.93 220.204 111.418 221.714 110.439 223.79C109.459 225.865 108.244 227.943 107.74 228.412C107.235 228.88 106.876 230.482 106.941 231.971C107.007 233.458 106.536 234.738 105.897 234.813C105.257 234.888 105.138 235.275 105.632 235.674C106.127 236.07 105.999 237.234 105.349 238.256C104.699 239.28 104.533 240.41 104.98 240.769C105.427 241.128 105.091 242.33 104.234 243.435C101.283 247.247 103.975 253.933 108.257 253.43C109.164 253.323 111.531 250.934 113.519 248.119ZM167.951 228.999C174.272 218.619 177.688 210.59 177.276 207.087C177.122 205.798 179.4 197.589 182.333 188.841C189.123 168.603 190.661 163.422 190.441 161.547C190.343 160.716 191.483 156.321 192.973 151.778C194.465 147.238 195.536 143.144 195.352 142.682C195.171 142.221 195.936 138.902 197.049 135.307C200.996 122.595 203.051 102.538 202.578 81.3871C202.327 70.1294 201.779 60.4813 201.361 59.9446C200.575 58.9374 204.309 57.0377 207.981 56.5763C209.135 56.4307 212.82 54.655 216.171 52.6316C219.521 50.6068 223.183 48.4942 224.307 47.9363C225.432 47.3784 226.293 46.4271 226.221 45.8222C226.149 45.2171 223.596 46.3245 220.543 48.2837C217.492 50.2431 212.768 52.638 210.046 53.6076L205.095 55.3696L207.756 51.2442C211.963 44.7255 214.117 37.4504 213.349 32.3613L212.64 27.6707L212.366 32.741C211.947 40.5797 209.658 46.9877 205.346 52.3915C203.177 55.1085 201.21 57.3536 200.973 57.3815C200.736 57.4094 201.099 54.7505 201.782 51.471C203.341 43.9862 200.046 25.9177 197.68 28.974C197.401 29.3343 198.001 31.6899 199.013 34.2073C201.125 39.4612 201.296 50.0192 199.353 55.3675C198.629 57.3582 198.436 58.9389 198.924 58.8818C199.411 58.8246 199.257 59.4914 198.58 60.3644C195.962 63.7479 177.88 58.8871 172.959 53.4759C171.374 51.7337 169.677 50.8245 169.189 51.4561C167.664 53.4251 177.667 59.6591 185.543 61.6462C189.68 62.6894 194.607 63.1247 196.496 62.612L199.925 61.6801L199.863 67.4715C199.828 70.6573 200.022 79.7565 200.29 87.6917C200.798 102.626 199.447 117.375 196.437 129.711C195.48 133.633 194.412 138.01 194.064 139.436C193.715 140.863 192.552 145.25 191.481 149.187C190.407 153.123 188.623 160.134 187.515 164.767C185.639 172.616 183.155 180.069 176.706 197.212C175.273 201.017 173.444 204.207 172.641 204.302C169.197 204.705 154.729 230.689 156.279 233.685C156.741 234.575 157.211 236.095 157.325 237.065C157.839 241.414 162.583 237.812 167.951 228.999ZM51.0253 241.572C51.9457 238.865 52.5072 236.191 52.2748 235.626C52.0411 235.06 52.2857 233.897 52.8177 233.043C55.6008 228.565 57.6076 202.794 55.3227 200.847C54.7371 200.35 54.5827 196.219 54.9798 191.67C56.7799 171.056 55.3139 142.662 50.259 100.275C48.1143 82.2938 47.173 77.6143 44.8144 73.2031C39.9564 64.1203 39.9634 64.2101 43.9296 61.9582C50.3535 58.3116 56.6211 50.4236 59.7068 42.1031C61.3478 37.6783 62.2839 33.5363 61.7857 32.8982C61.2888 32.2613 60.6621 33.31 60.393 35.2297C59.5809 41.0272 54.8766 49.7355 49.8979 54.6569C43.7524 60.7319 42.7313 60.6705 46.3415 54.4449C49.8801 48.3435 52.2036 41.23 52.8842 34.4125C53.7049 26.1854 51.9638 28.8951 49.9819 38.9301C47.9653 49.1415 41.9666 60.8031 38.479 61.2971C33.5563 61.9949 29.6177 54.6445 28.8197 43.2772C28.5732 39.7693 27.8785 37.4045 27.1174 37.494C26.2626 37.5944 26.4537 40.624 27.6905 46.5587C30.4903 59.9871 31.2817 62.4788 33.0047 63.3005C34.0753 63.8109 33.7602 64.4298 32.0266 65.2243C30.205 66.0592 28.1461 65.5967 24.8733 63.6194C22.3448 62.0912 20.213 60.3111 20.1363 59.6627C20.0597 59.0142 19.3121 58.5792 18.4765 58.6963C17.6397 58.8135 19.2438 60.6164 22.0411 62.7038C24.8373 64.79 27.1582 66.7696 27.1975 67.1012C27.371 68.5698 21.1396 68.2359 19.1983 66.6754C18.0175 65.7245 17.1243 65.5636 17.2134 66.3177C17.3025 67.0718 18.3794 67.9507 19.6082 68.2723C21.4979 68.7683 21.3887 69.0455 18.8947 70.0803C16.0236 71.2728 16.0399 71.2963 19.5479 71.0065C21.528 70.8431 26.2565 69.6643 30.0572 68.3866C35.2646 66.6351 37.3531 66.3745 38.5378 67.3275C39.4027 68.0231 41.6463 73.1154 43.525 78.6449C47.0687 89.0762 47.7878 94.8488 51.8417 145.434C53.4576 165.584 53.6818 171.425 53.0462 176.782C52.8382 178.539 52.6568 181.961 52.6443 184.387C52.6076 191.296 51.3799 198.39 50.1956 198.529C48.1176 198.774 41.4151 240.927 42.8595 244.666C44.5194 248.962 49.103 247.225 51.0253 241.572ZM304.499 148.449C306.181 147.419 305.647 147.362 302.521 148.241C299.042 149.217 297.432 148.902 293.949 146.562C285.169 140.664 284.65 135.374 293.096 137.853C298.893 139.554 305.894 138.725 310.423 135.802C313.03 134.12 313.153 133.889 310.929 134.855C305.416 137.25 297.108 137.432 291.265 135.285C288.104 134.125 285.291 133.47 285.012 133.829C284.735 134.188 285.148 134.407 285.929 134.315C286.712 134.223 287.423 134.744 287.51 135.473C287.597 136.206 286.601 136.589 285.284 136.328C283.761 136.024 282.718 136.594 282.394 137.907C282.06 139.256 282.335 139.598 283.193 138.904C284.097 138.174 284.315 138.603 283.895 140.291C283.565 141.635 283.587 142.354 283.948 141.887C284.308 141.42 287.271 143.215 290.53 145.875C296.54 150.781 299.73 151.37 304.499 148.449ZM310.139 144.608C312.589 141.44 312.041 140.527 309.479 143.515C308.284 144.909 307.329 146.243 307.357 146.479C307.465 147.402 308.528 146.687 310.139 144.608ZM318.015 130.588C319.44 129.059 320.001 127.859 319.264 127.922C318.529 127.986 317.063 129.273 316.012 130.782C313.562 134.293 314.664 134.186 318.015 130.588ZM272.152 131.921C272.152 131.446 271.341 129.558 270.35 127.724C269.361 125.891 267.908 122.482 267.124 120.149C265.722 115.974 265.704 115.966 266.032 119.647C266.31 122.785 272.158 134.51 272.152 131.921ZM275.884 122.011C275.704 119.813 276.426 114.202 277.492 109.541C278.557 104.882 278.991 101.121 278.453 101.184C277.692 101.273 275.841 107.547 275.374 111.622C274.675 117.719 274.67 121.977 275.36 123.779C275.863 125.091 276.077 124.362 275.884 122.011ZM266 111.464C265.833 109.059 266.316 105.601 267.073 103.78C268.678 99.9175 268.727 98.5477 267.253 98.7206C265.719 98.901 264.338 109.494 265.401 112.923C266.086 115.127 266.231 114.771 266 111.464ZM190.346 55.5337C184.346 52.0388 179.438 45.4093 177.602 38.3191C176.617 34.5151 175.712 32.9108 175.039 33.781C173.052 36.3458 181.095 50.816 187.264 55.7784C189.18 57.3205 191.653 58.476 192.76 58.3461C194.07 58.1921 193.23 57.2138 190.346 55.5337ZM198.775 54.2099C198.716 53.7167 196.194 51.6034 193.169 49.5149C188.43 46.2413 187.428 44.792 185.9 38.9985L184.128 32.279L184.652 38.024C185.047 42.3459 186.113 44.8697 188.951 48.2057C193.81 53.9164 199.124 57.1642 198.775 54.2099ZM13.9305 69.9254C13.8744 69.4507 4.8307 65.3033 4.05143 65.3947C3.75388 65.4298 3.5673 65.9329 3.63572 66.5118C3.70427 67.092 6.05934 68.1871 8.86909 68.9453C11.6788 69.7035 13.9565 70.1453 13.9305 69.9254ZM146.446 39.7451L152.333 32.6475L146.012 39.319C140.327 45.3209 139.013 47.0245 140.18 46.8875C140.388 46.8631 143.207 43.6486 146.446 39.7451ZM15.3807 54.3025C14.2293 52.5319 12.744 49.5902 12.0792 47.7624C11.4156 45.9347 10.3329 44.5036 9.67557 44.5809C9.01704 44.6582 8.5144 45.0196 8.55741 45.3835C8.70085 46.5972 16.2221 57.6676 16.8538 57.5933C17.1941 57.5534 16.5321 56.0729 15.3807 54.3025ZM20.7986 49.5725C19.5161 47.6449 18.235 46.0948 17.9509 46.1283C17.668 46.1614 18.2088 47.7983 19.1523 49.7658C20.0957 51.7333 21.3769 53.2834 22 53.2102C22.622 53.1371 22.0811 51.5002 20.7986 49.5725ZM137.863 37.5022C138.257 36.9949 138.511 36.0018 138.427 35.2948C138.335 34.517 137.776 34.6571 137.006 35.6504C136.308 36.5525 136.055 37.5459 136.443 37.8581C136.831 38.1702 137.471 38.0106 137.863 37.5022ZM38.1896 47.5476C39.6645 44.3539 39.0614 37.8068 37.2126 36.9255C36.4802 36.5758 36.116 35.7747 36.4036 35.1438C36.6913 34.5129 36.475 33.7815 35.9221 33.519C35.3704 33.255 35.3746 36.8996 35.9321 41.6166C36.4896 46.3351 36.9507 50.1946 36.957 50.1939C36.9642 50.1929 37.5184 49.0019 38.1896 47.5476Z" fill="black"/>
</svg>
