<svg width="496" height="951" viewBox="0 0 496 951" fill="none" xmlns="http://www.w3.org/2000/svg">
<path fill-rule="evenodd" clip-rule="evenodd" d="M406.951 912.655C410.455 908.122 408.813 877.16 401.435 808.586C400.04 795.638 399.194 784.663 399.553 784.198C399.912 783.733 399.314 780.599 398.223 777.234C397.134 773.869 395.791 768.747 395.239 765.85C387.744 726.582 382.001 700.525 377.983 687.572C373.402 672.799 363.324 648.379 356.876 636.419C355.188 633.286 352.301 627.161 350.46 622.81C348.62 618.458 346.699 615.232 346.194 615.642C345.687 616.05 345.486 615.52 345.748 614.461C346.01 613.403 343.978 608.819 341.234 604.272C338.488 599.726 336.172 595.406 336.085 594.674C335.999 593.938 335.465 593.191 334.899 593.01C334.333 592.83 332.56 590.716 330.957 588.314C324.849 579.159 322 575.418 319.053 572.685C317.378 571.131 315.87 568.705 315.703 567.292C315.538 565.881 314.745 564.412 313.944 564.03C313.143 563.648 311.295 561.103 309.836 558.376C308.378 555.649 306.796 553.464 306.32 553.519C305.846 553.575 304.036 551.532 302.299 548.979C300.564 546.427 293.866 539.868 287.417 534.407C271.909 521.27 269.012 518.657 264.593 513.815C262.544 511.57 257.9 507.427 254.272 504.609C248.804 500.364 248.253 499.596 251.051 500.12C258.083 501.438 260.548 502.343 260.703 503.659C260.792 504.408 261.659 504.927 262.63 504.812C263.603 504.698 266.996 507.943 270.171 512.024C282.265 527.563 291.467 531.066 315.427 529.25C334.626 527.794 341.625 524.767 347.503 515.377C349.763 511.766 350.951 508.417 350.371 507.294C349.273 505.17 342.028 505.444 341.025 507.647C340.684 508.394 339.665 508.859 338.76 508.679C337.854 508.5 334.153 508.407 330.532 508.474C321.038 508.649 317.812 507.497 309.981 501.129C308.313 499.773 306.252 498.5 305.399 498.302C302.56 497.643 290.782 488.232 289.67 485.734C289.067 484.378 287.316 482.356 285.781 481.241C282.97 479.197 264.993 476.397 258.811 477.037C254.715 477.463 234.785 470.431 230.313 466.981C226.759 464.24 221.209 456.142 216.425 446.713C212.741 439.453 200.422 429.008 195.524 428.99C191.881 428.977 189.238 425.945 192.531 425.557C193.588 425.434 194.658 424.494 194.912 423.467C195.723 420.187 206.139 416.7 212.517 417.574C215.62 418 218.588 417.999 219.117 417.572C219.645 417.145 222.171 417.129 224.733 417.536C229.014 418.216 229.248 418.098 227.656 416.074C226.703 414.863 223.273 412.925 220.034 411.767C214.522 409.798 214.186 409.41 214.774 405.685C215.698 399.834 217.162 396.658 220.142 394.04C226.397 388.545 229.191 384.742 230.79 379.551C232.452 374.151 233.718 373.258 237.275 374.978C238.237 375.443 239.504 375.436 240.089 374.963C240.674 374.489 242.108 375.836 243.275 377.956C245.045 381.172 245.195 383.156 244.181 389.928C241.682 406.619 243.799 410.11 263.593 421.927C272.129 427.023 274.385 428.906 277.394 433.442C280.327 437.863 286.274 443.141 290.757 445.303C294.828 447.265 317.776 450.544 328.33 450.67C340.234 450.814 343.349 452.344 351.422 462.031C358.845 470.938 366.388 476.367 375.227 479.159L380.023 480.673L371.785 483.534C360.657 487.396 345.542 488.263 338.371 485.449C335.327 484.256 329.97 480.556 326.465 477.23C318.275 469.456 311.238 466.389 296.271 464.074C280.995 461.71 272.983 459.075 266.419 454.259C263.568 452.167 257.999 448.414 254.045 445.918C250.091 443.421 245.312 438.989 243.428 436.069C241.542 433.147 239.416 430.478 238.7 430.136C237.985 429.796 237.637 428.996 237.926 428.361C238.216 427.726 236.424 425.404 233.944 423.202C229.738 419.465 229.52 419.414 230.674 422.417C234.145 431.453 249.445 449.824 253.138 449.39C253.648 449.33 257.125 451.571 260.864 454.37C267.655 459.455 276.13 463.545 282.505 464.813C284.363 465.183 291.335 466.454 297.999 467.636C310.995 469.943 314.089 471.427 327.017 481.557C339.3 491.182 342.102 491.982 356.822 490.054C369.523 488.392 384.834 483.36 386.232 480.388C387.62 477.445 386.886 476.733 382.947 477.197C375.737 478.045 364.077 471.542 356.08 462.215C345.391 449.746 341.665 447.982 325.28 447.627C319.167 447.494 313.627 447.128 312.969 446.814C312.312 446.501 308.095 445.813 303.601 445.287C295.256 444.309 284.933 438.951 281.37 433.746C278.992 430.273 279.882 429.725 284.893 431.574C287.786 432.644 295.264 432.758 307.906 431.924C328.114 430.594 336.646 428.617 356.203 420.735C368.806 415.654 369.626 415.571 380.575 418.262C390.225 420.635 413.036 419.64 417.982 416.633C427.233 411.006 435.653 404.011 435.804 401.824C435.948 399.735 435.397 399.546 432.312 400.629C424.86 403.244 414.012 403.803 406.792 401.944C396.415 399.271 385.204 394.35 382.529 391.294C381.267 389.85 379.653 388.737 378.943 388.82C378.233 388.904 376.121 387.637 374.247 386.006C371.401 383.531 369.687 383.191 363.841 383.938C353.007 385.32 340.173 389.773 326.972 396.731C320.34 400.226 314.011 403.189 312.908 403.32C311.803 403.449 310.968 404.153 311.055 404.884C311.141 405.614 309.748 406.384 307.958 406.594C306.169 406.805 304.763 407.467 304.834 408.066C305.145 410.699 322.302 404.087 334.488 396.638C340.135 393.186 353.126 389.19 362.233 388.105C367.459 387.48 369.691 388.075 376.039 391.783C380.203 394.215 383.914 395.813 384.284 395.332C384.656 394.851 385.445 395.393 386.035 396.536C386.625 397.679 387.593 398.222 388.187 397.741C388.78 397.263 389.344 397.542 389.442 398.362C389.714 400.677 409.583 406.804 416.89 406.826C420.483 406.838 423.472 407.256 423.531 407.755C423.59 408.254 421.091 410.363 417.978 412.44C413.07 415.716 410.992 416.279 402.317 416.679C396.817 416.934 388.352 416.254 383.509 415.168C371.503 412.48 367.699 412.643 358.374 416.248C328.999 427.608 314.875 430.438 295.414 428.865C289.92 428.42 284.681 428.051 283.775 428.045C282.865 428.037 282.073 427.597 282.01 427.068C281.948 426.54 280.525 425.922 278.848 425.697C274.967 425.174 255.668 413.878 251.255 409.544C247.234 405.596 246.551 401.227 248.091 389.309C249.242 380.424 249.213 380.262 245.513 374.365C243.457 371.087 240.065 367.122 237.977 365.555C235.655 363.813 234.653 362.27 235.396 361.586C237.492 359.661 240.385 352.598 239.53 351.501C238.364 350.004 245.713 347.828 249.094 348.67C250.654 349.059 251.882 349.654 251.822 349.996C251.76 350.335 252.083 351.479 252.541 352.536C252.997 353.593 254.855 362.241 256.671 371.755L259.971 389.051L266.715 396.788C277.305 408.936 289.787 413.713 300.324 409.651C305.864 407.517 303.579 405.861 296.386 406.796C288.576 407.811 281.368 405.377 273.901 399.203C265.306 392.093 262.698 386.528 259.354 368.157C257.679 358.951 255.459 349.853 254.423 347.939C252.594 344.558 250.916 344.143 242.987 345.112C240.549 345.41 240.141 344.137 241.26 339.728C242.514 334.788 232.974 316.519 227.685 313.728C222.945 311.23 219.116 307.72 218.872 305.649C218.576 303.143 215.57 304.724 215.375 307.486C215.289 308.697 216.606 310.612 218.298 311.743C224.967 316.197 226.42 317.364 228.917 320.278C232.456 324.406 232.337 325.292 228.176 325.807C226.209 326.05 223.816 326.896 222.86 327.687C221.681 328.66 223.049 328.819 227.098 328.18C233.765 327.128 235.404 327.793 234.56 331.207C234.119 332.989 232.921 333.475 229.367 333.307C226.827 333.188 224.814 333.649 224.895 334.335C224.975 335.018 226.701 335.383 228.728 335.144C233.432 334.591 233.879 335.013 233.754 339.899C233.667 343.315 233.268 343.771 231.125 342.908C229.735 342.348 227.54 342.065 226.248 342.276C224.621 342.543 225.129 343.049 227.903 343.927C231.825 345.166 233.711 348.221 232.868 351.973C232.542 353.418 231.982 353.55 230.453 352.538C227.591 350.64 220.092 349.539 220.27 351.042C220.35 351.72 221.736 352.14 223.348 351.974C228.327 351.461 231.442 354.195 230.938 358.636C230.316 364.114 229.689 365.203 228.231 363.332C227.425 362.297 227.185 363.204 227.57 365.838C228.059 369.182 226.589 372.275 219.843 382.094C204.817 403.967 204.147 404.775 202.644 402.845C201.896 401.884 201.501 400.62 201.768 400.035C202.292 398.883 196.707 396.214 195.915 397.237C195.651 397.581 196.736 398.807 198.329 399.963C204.208 404.236 201.831 410.64 190.865 420.067C187.599 422.877 184.134 424.971 183.169 424.717C182.204 424.464 181.469 424.718 181.535 425.278C181.679 426.502 168.522 431.075 162.976 431.728C160.813 431.982 158.658 432.691 158.184 433.3C157.712 433.91 154.161 434.838 150.293 435.362L143.259 436.313L142.657 431.212C142.326 428.407 141.463 426.181 140.738 426.266C139.942 426.36 139.971 428.383 140.81 431.381L142.197 436.34L134.253 438.839C129.884 440.212 125.702 441.047 124.962 440.694C124.222 440.341 123.312 440.686 122.94 441.462C122.569 442.238 119.675 443.564 116.509 444.407C109.166 446.366 104.29 444.641 102.557 439.473C101.589 436.585 101.533 436.949 102.337 440.939L103.409 446.255L98.8423 446.249C94.3244 446.243 93.3917 445.237 91.5723 438.404C91.2548 437.21 90.5383 435.867 89.9813 435.418C88.3326 434.09 89.5099 440.301 91.4402 443.12C93.0578 445.48 92.931 445.659 90.0259 445.11C88.2729 444.778 85.4466 444.338 83.7484 444.133C81.6766 443.883 80.8297 443.068 81.1782 441.661C81.588 440.001 81.3551 439.928 80.0644 441.311C78.8018 442.663 77.7276 442.604 75.3171 441.049C72.0954 438.969 71.2076 437.08 69.7566 429.232C69.026 425.276 68.9047 425.577 68.9053 431.351L68.9051 438.082L65.3296 432.836C63.1757 429.674 61.5051 425.321 61.129 421.887C60.2806 414.16 61.907 400.806 64.074 397.693C65.0463 396.296 65.7897 394.601 65.7246 393.926C65.6596 393.252 71.5258 385.107 78.7607 375.826C85.9955 366.545 91.8573 358.463 91.7871 357.867C91.366 354.298 113.251 327.191 116.901 326.761C117.571 326.682 118.739 325.644 119.495 324.452C120.252 323.26 121.455 322.565 122.17 322.907C122.886 323.248 124.108 322.863 124.889 322.05C125.667 321.236 129.474 319.759 133.348 318.765C137.222 317.771 141.352 316.287 142.524 315.468C144.274 314.246 144.724 314.55 145.033 317.165C145.239 318.918 146.806 321.783 148.515 323.531C152.589 327.698 155.94 325.527 157 318.035C157.654 313.425 158.447 312.354 162.445 310.695C165.02 309.625 173.177 308.038 180.572 307.163C190.744 305.961 193.839 305.186 193.284 303.977C192.437 302.13 178.771 301.852 177.208 303.651C176.63 304.313 175.129 304.442 173.871 303.936C172.534 303.398 170.863 303.611 169.847 304.452C168.891 305.242 165.867 306.161 163.129 306.495C158.188 307.096 158.151 307.066 158.546 302.679C158.766 300.247 160.023 292.553 161.339 285.582C164.086 271.04 163.377 264.729 158.846 263.308C155.562 262.278 155.635 263.037 157.243 246.63C160.453 213.859 159.856 193.756 154.288 147.073C151.405 122.892 148.418 107.223 146.922 108.433C146.455 108.81 145.981 107.502 145.87 105.526C145.758 103.549 143.949 96.9853 141.851 90.9387C136.378 75.1647 135.964 74.1714 134.6 73.5189C131.696 72.1333 133.279 69.2992 137.725 67.9241C144.505 65.8246 155.458 58.8514 155.192 56.7988C155.028 55.5351 154.756 55.5186 154.182 56.7358C153.75 57.6522 150.611 59.9076 147.208 61.7457C140.602 65.3133 132.108 67.2173 133.167 64.8945C134.058 62.9359 127.069 65.6831 124.842 68.1648C123.856 69.2635 120.391 71.7603 117.141 73.7136C113.891 75.6669 111.573 77.5405 111.99 77.8752C112.405 78.2113 115.891 76.5381 119.736 74.1595C123.58 71.7796 127.168 69.7811 127.71 69.7174C130.29 69.4138 137.689 86.4195 141.362 101.093C142.263 104.689 143.757 108.738 144.686 110.094C146.9 113.328 155.857 184.013 156.203 200.982C156.551 218.09 155.719 236.981 154.005 250.847C152.821 260.44 151.975 262.891 148.685 266.28C146.533 268.496 144.424 272.167 143.999 274.438C142.705 281.339 142.048 302.682 143.001 306.819C144.037 311.325 141.493 313.699 134.224 315.012C131.738 315.461 125.501 317.953 120.366 320.548C112.003 324.775 110.008 326.601 101.256 338.026C95.8823 345.044 90.3655 352.998 88.9988 355.705C87.6321 358.411 81.2524 367.302 74.8208 375.463C60.7392 393.334 58.1472 398.727 57.6808 411.133C57.0249 428.61 60.7028 436.68 71.3281 441.074C74.7219 442.478 78.5738 444.6 79.8869 445.789C81.2013 446.978 82.9741 447.869 83.8265 447.769C84.68 447.669 85.086 448.226 84.7309 449.006C84.3758 449.787 85.1534 451.647 86.4603 453.141C88.0369 454.942 89.1887 458.846 89.8852 464.751C90.8728 473.121 90.6451 474.222 86.0227 483.416C72.1871 510.932 66.0657 543.727 69.3069 572.977C70.3516 582.402 71.9316 588.013 77.6134 602.469C85.4048 622.292 85.7454 625.727 80.5203 631.736C74.064 639.163 69.3126 652.765 72.623 654.344C73.3667 654.7 74.989 653.679 76.2285 652.075C79.0682 648.401 91.2398 639.399 93.7719 639.102C96.3678 638.796 105.629 626.944 107.717 621.256C109.316 616.898 109.171 615.693 105.251 600.561C100.719 583.068 100.586 576.196 104.554 564.467C107.11 556.912 109.74 545.622 109.714 542.322C109.685 538.622 107.413 533.098 102.77 525.43C99.7192 520.394 98.8933 517.722 99.0581 513.415C99.1735 510.368 99.7789 507.816 100.403 507.743C101.028 507.67 101.401 506.45 101.234 505.033C100.588 499.559 103.363 500.667 104.18 506.209C105.565 515.6 106.087 517.097 110.617 524.67C113.006 528.665 115.045 532.637 115.147 533.499C115.248 534.36 118.547 538.291 122.478 542.233C141.047 560.861 145.206 570.994 140.802 586.889C138.912 593.711 138.854 595.848 140.428 600.395C144.089 610.959 152.312 621.09 160.497 625.115C164.056 626.865 164.744 626.765 173.469 623.242C185.096 618.546 195.169 616.804 194.475 619.611C194.001 621.531 200.072 627.241 206.139 630.583C209.729 632.559 225.669 631.008 234.427 627.83C240.595 625.592 242.018 624.047 246.822 614.366C253.849 600.204 255.222 591.857 249.408 598.65C247.071 601.38 246.824 601.41 239.972 599.806C236.101 598.9 231.13 596.947 228.925 595.467C226.721 593.988 219.692 590.897 213.307 588.601C195.831 582.314 186.86 573.831 179.21 556.358C174.889 546.484 174.285 544.287 172.405 531.58C170.635 519.624 168.62 513.179 166.723 513.402C165.257 513.575 165.519 515.438 167.996 522.453C169.244 525.982 169.726 529.75 169.297 532.641C168.925 535.165 169.016 537.549 169.502 537.94C169.988 538.331 170.771 540.248 171.243 542.202C173.151 550.09 178.094 561.648 182.598 568.747C187.582 576.6 197.527 585.803 201.992 586.689C203.424 586.973 204.652 587.682 204.722 588.265C204.79 588.846 207.752 590.044 211.302 590.93C214.852 591.813 218.6 593.387 219.631 594.428C220.66 595.469 221.445 595.837 221.376 595.244C221.306 594.653 223.487 595.524 226.222 597.18C231.261 600.227 239.163 602.993 243.878 603.356C247.639 603.645 247.648 603.705 244.978 611.174C241.138 621.923 236.392 625.425 222.514 627.747C211.638 629.568 210.65 629.51 206.136 626.779C203.493 625.18 200.923 624.349 200.424 624.93C199.923 625.512 199.866 625.152 200.296 624.129C200.752 623.046 199.999 621.309 198.493 619.967C195.383 617.195 196.856 616.888 204.831 618.64C210.965 619.99 214.96 619.045 214.616 616.328C214.378 614.446 204.796 604.64 201.329 602.731C199.924 601.958 196.07 600.61 192.766 599.737C189.461 598.863 184.65 596.559 182.074 594.616C176.139 590.139 174.662 591.726 179.76 597.1C182.424 599.906 186.175 601.797 191.797 603.168C197.864 604.645 201.22 606.433 204.844 610.117L209.725 615.076L203.169 614.833C193.442 614.471 180.921 616.509 172.514 619.824C168.421 621.438 163.985 622.543 162.656 622.279C159.217 621.595 149.043 612.481 146.688 607.972C142.227 599.437 141.797 594.971 144.328 583.462L146.774 572.336L142.664 563.756C140.405 559.037 137.435 553.993 136.065 552.548C134.696 551.103 132.537 548.667 131.267 547.133C129.998 545.598 127.177 542.658 124.998 540.597C122.822 538.536 118.245 531.771 114.832 525.562C107.307 511.879 104.661 499.394 105.369 480.909C105.626 474.214 105.678 467.242 105.486 465.413C105.294 463.585 105.302 460.858 105.506 459.353C105.708 457.849 105.798 455.594 105.706 454.343C105.513 451.707 112.518 449.001 117.726 449.702C121.452 450.202 123.854 454.905 126.648 467.177C127.904 472.693 127.93 476.409 126.748 481.657C124.98 489.514 124.689 488.521 135.145 510.387C143.17 527.162 145.134 530.188 149.212 532.054C151.167 532.948 155.168 535.414 158.103 537.533C164.815 542.379 166.925 548.218 168.842 567.223C169.627 575.025 170.799 581.836 171.444 582.359C172.757 583.417 174.861 579.771 173.756 578.352C173.368 577.854 172.295 571.251 171.37 563.68C168.986 544.146 167.528 540.682 159.246 534.873C145.864 525.488 144.442 523.867 139.658 512.548C137.124 506.553 133.465 498.957 131.524 495.669L127.997 489.689L130.154 483.024C132.474 475.854 132.455 470.942 130.082 464.035C129.027 460.965 129.041 459.887 130.129 460.406C130.98 460.813 131.79 462.103 131.928 463.276C132.066 464.449 134.749 469.573 137.889 474.664C141.029 479.752 143.672 484.549 143.763 485.322C143.854 486.094 145.162 488.189 146.67 489.977C148.176 491.765 150.33 494.634 151.455 496.352C154.395 500.836 159.256 505.373 160.039 504.361C160.406 503.885 159.329 501.946 157.645 500.05C155.959 498.155 151.218 491.257 147.104 484.722C142.993 478.186 139.034 472.001 138.306 470.976C134.328 465.369 133.437 463.529 134.344 462.796C134.896 462.349 136.157 463.344 137.146 465.007C139.539 469.023 143.69 472.995 156.555 483.576C172.484 496.677 179.677 509.076 187.288 536.561C192.766 556.34 197.568 566.13 204.34 571.329C207.532 573.782 211.601 576.163 213.381 576.623C215.873 577.267 245.879 573.699 249.022 572.384C249.368 572.239 246.916 571.586 243.573 570.929C239.873 570.203 235.756 570.301 233.049 571.18C225.489 573.634 215.203 573.99 210.706 571.953C202.841 568.391 195.572 557.529 192.329 544.492C183.805 510.225 175.549 494.077 160.744 482.715C150.124 474.562 138.963 462.927 134.653 455.507C130.4 448.191 132.057 446.104 138.307 450.909C144.174 455.421 149.458 457.568 151.723 456.359C154.423 454.917 153.498 453.274 149.013 451.543C144.271 449.713 143.3 446.276 146.477 442.564C148.439 440.271 148.884 440.195 150.899 441.82C152.133 442.813 153.761 445.528 154.521 447.853C156.192 452.966 164.195 459.23 177.769 466.046C183.168 468.76 191.828 474.226 197.013 478.196C202.198 482.168 207.123 485.583 207.959 485.788C210.04 486.299 212.391 491.876 210.613 492.085C208.685 492.312 209.196 494.988 211.601 497.247C212.706 498.287 214.731 503.555 216.104 508.954C221.514 530.263 231.501 538.966 257.687 545.189C274.438 549.172 281.434 557.438 280.524 572.17C279.933 581.704 278.222 587.397 274.082 593.595C270.416 599.083 270.565 599.173 266.772 589.134C263.991 581.771 258.479 573.955 256.252 574.218C255.309 574.328 254.481 573.921 254.408 573.313C254.336 572.703 253.4 572.309 252.326 572.435C249.499 572.768 250.153 574.608 253.326 575.237C257.466 576.06 266.467 592.877 266.768 600.351C267.008 606.329 267.39 606.865 269.825 604.651C274.874 600.063 281.026 587.519 282.625 578.553C284.692 566.969 283.988 560.736 280.038 555.602C278.34 553.396 277.514 551.524 278.203 551.442C278.891 551.362 280.641 552.822 282.093 554.687C287.797 562.022 298.697 574.741 300.959 576.703C302.273 577.841 305.456 581.857 308.033 585.626C310.61 589.396 313.123 592.734 313.617 593.046C315.491 594.23 326.839 612.727 330.608 620.742C332.77 625.342 336.429 632.18 338.736 635.939C342.411 641.924 347.311 652.752 356.923 676.126C360.904 685.808 369.931 717.187 376.962 745.788C382.348 767.692 383.878 776.746 387.784 809.805C390.287 830.982 392.48 854.955 392.659 863.077C392.837 871.201 393.83 885.793 394.865 895.507C396.401 909.913 397.135 913.358 398.849 914.201C401.875 915.691 405.077 915.08 406.951 912.655ZM391.823 832.294C391.786 831.971 392.296 831.27 392.959 830.735C393.621 830.199 394.238 830.394 394.33 831.167C394.421 831.939 393.909 832.642 393.194 832.726C392.479 832.811 391.862 832.617 391.823 832.294ZM391.535 821.447C390.972 819.644 390.98 817.789 391.554 817.326C392.127 816.863 392.813 818.312 393.076 820.545C393.658 825.474 392.926 825.903 391.535 821.447ZM398.738 808.852C398.992 807.897 399.375 808.609 399.591 810.435C399.806 812.261 399.598 813.041 399.131 812.172C398.662 811.301 398.485 809.807 398.738 808.852ZM397.939 802.3C398.228 801.192 398.574 801.471 398.819 803.01C399.04 804.403 398.825 805.222 398.341 804.833C397.857 804.443 397.676 803.302 397.939 802.3ZM390.01 757.462C390.3 756.356 390.645 756.634 390.89 758.172C391.111 759.566 390.897 760.385 390.413 759.995C389.929 759.606 389.747 758.465 390.01 757.462ZM380.947 754.407C380.305 752.077 380.235 749.539 380.791 748.77C381.402 747.927 381.968 748.754 382.216 750.849C382.44 752.76 383.092 755.228 383.663 756.332C384.233 757.436 384.119 758.409 383.407 758.491C382.696 758.575 381.589 756.737 380.947 754.407ZM387.925 750.977C388.216 749.869 388.561 750.148 388.806 751.687C389.027 753.08 388.812 753.899 388.328 753.51C387.844 753.12 387.662 751.98 387.925 750.977ZM378.769 740.528C378.945 739.211 379.337 740.226 379.638 742.781C379.94 745.337 379.794 746.415 379.318 745.175C378.838 743.935 378.592 741.845 378.769 740.528ZM376.554 736.413C376.468 735.683 377.018 735.013 377.776 734.924C378.533 734.834 378.862 735.401 378.506 736.183C378.149 736.966 377.6 737.637 377.284 737.674C376.968 737.711 376.641 737.144 376.554 736.413ZM358.421 647.645C358.773 647.19 359.587 647.84 360.231 649.092C361.159 650.901 361.029 651.072 359.589 649.922C358.594 649.124 358.068 648.1 358.421 647.645ZM75.6975 646.276C75.5987 645.362 77.5606 641.762 80.0554 638.273C89.1168 625.61 89.3633 622.991 82.9506 607.394C72.8253 582.761 71.1042 574.168 71.7558 551.478C72.3677 530.163 77.8558 509.084 89.3542 483.877C93.6035 474.562 94.07 464.951 90.7613 454.856C88.6547 448.428 88.5822 447.5 90.2782 448.624C92.8671 450.34 96.9318 456.49 97.8371 460.06C98.2288 461.602 99.13 463.908 99.8398 465.183C102.991 470.838 101.617 491.015 96.985 507.093C94.7516 514.842 96.0437 521.143 101.71 530.124C105.894 536.756 106.73 539.108 106.555 543.728C106.439 546.802 105.923 550.001 105.411 550.838C104.899 551.676 103.126 557.365 101.473 563.484C98.2191 575.519 98.4893 584.564 102.614 601.714C105.703 614.556 106.328 620.559 104.661 621.354C103.84 621.745 103.239 622.66 103.324 623.386C103.666 626.281 96.5801 633.305 87.7779 638.795C82.6686 641.982 78.1591 645.314 77.7566 646.197C76.7948 648.31 75.9213 648.342 75.6975 646.276ZM175.558 587.076C175.428 585.98 174.755 585.15 174.061 585.232C173.369 585.313 173.245 586.237 173.785 587.284C174.327 588.331 175 589.161 175.281 589.127C175.562 589.095 175.687 588.171 175.558 587.076ZM266.901 544.862C263.811 543.096 258.566 541.284 255.246 540.835C247.035 539.725 236.952 535.347 231.265 530.423C227.202 526.906 219.824 514.995 219.381 511.237C219.259 510.202 225.813 512.977 231.184 516.233C231.965 516.707 235.213 518.415 238.402 520.028C246.068 523.909 275.829 547.684 273.379 547.971C272.905 548.028 269.989 546.628 266.901 544.862ZM297.215 525.856C286.072 523.641 281.619 520.761 272.824 510.079C267.071 503.09 256.212 496.144 251.843 496.658C250.593 496.806 248.602 496.673 247.418 496.362C246.038 496 245.348 496.52 245.501 497.807C245.668 499.223 244.867 499.691 242.79 499.39C239.968 498.982 239.945 498.904 242.249 497.594C243.735 496.745 242.828 496.737 239.866 497.576C236.757 498.456 235.018 498.413 234.905 497.454C234.809 496.643 233.627 496.109 232.278 496.267C230.928 496.426 226.712 495.921 222.907 495.145C216.686 493.876 215.794 493.239 214.052 488.819C212.766 485.558 210.351 482.855 206.867 480.784C203.98 479.068 199.266 475.632 196.391 473.148C193.516 470.666 188.917 467.573 186.172 466.273C167.112 457.262 160.991 452.879 157.77 445.937C155.087 440.156 155.097 439.717 157.981 437.672C160.953 435.563 165.676 436.234 165.98 438.807C166.34 441.861 173.395 446.656 176.917 446.241C179.888 445.892 180.085 445.478 178.913 442.047C178.197 439.953 178.092 436.985 178.678 435.452C179.95 432.132 186.901 429.324 189.223 431.195C190.105 431.906 192.185 432.33 193.841 432.135C198.309 431.609 209.086 440.674 213.159 448.384C217.921 457.397 225.51 467.76 229.417 470.583C234.758 474.442 248.449 479.37 254.348 479.558C257.38 479.655 260.752 479.757 261.845 479.788C262.937 479.818 264.455 480.106 265.218 480.428C265.982 480.75 270.124 481.416 274.426 481.909C280.239 482.575 282.883 483.615 284.733 485.968C289.532 492.065 307.945 505.295 318.501 510.228C323.661 512.639 325.93 512.844 335.205 511.735C341.109 511.03 345.981 510.819 346.033 511.265C346.369 514.111 337.848 522.268 332.907 523.833C323.446 526.831 306.848 527.771 297.215 525.856ZM162.827 507.13C162.299 506.452 161.281 505.966 160.565 506.049C159.85 506.135 159.696 506.758 160.225 507.436C160.753 508.115 161.772 508.6 162.488 508.516C163.202 508.432 163.356 507.809 162.827 507.13ZM95.6616 476.441C96.0817 475.899 96.3523 474.837 96.2632 474.081C96.1651 473.25 95.568 473.4 94.7473 474.461C94.0023 475.426 93.7318 476.487 94.1459 476.821C94.5599 477.155 95.2429 476.985 95.6616 476.441ZM125.291 450.631C125.069 449.361 125.403 448.263 126.035 448.188C126.665 448.114 127.474 450.593 127.832 453.699C128.367 458.34 128.235 458.774 127.089 456.142C126.322 454.381 125.513 451.902 125.291 450.631ZM113.918 437.498C112.81 434.667 111.439 432.405 110.87 432.472C109.489 432.634 109.559 432.881 112.493 438.175C115.826 444.188 116.427 443.903 113.918 437.498ZM126.807 437.328C125.257 433.357 122.85 431.056 123.181 433.863C123.311 434.966 124.462 436.919 125.74 438.207C127.973 440.454 128.015 440.421 126.807 437.328ZM154.236 428.717C154.149 427.987 153.493 427.458 152.778 427.542C152.062 427.626 151.547 428.293 151.633 429.023C151.72 429.754 152.375 430.281 153.091 430.197C153.807 430.113 154.322 429.448 154.236 428.717ZM170.713 423.893C170.526 421.785 169.505 420.137 168.164 419.785C165.04 418.968 164.255 420.498 166.932 422.189C168.157 422.962 169.578 424.455 170.092 425.505C170.624 426.594 170.891 425.9 170.713 423.893ZM79.4218 434.152C79.1373 431.965 78.7591 431.263 78.581 432.595C78.4029 433.926 78.6364 435.715 79.099 436.573C79.5616 437.429 79.7063 436.34 79.4218 434.152ZM135.708 423.455C138.017 418.718 136.173 416.41 133.503 420.695C131.636 423.69 131.34 423.79 130.286 421.775C128.918 419.158 126.709 419.049 127.012 421.614C127.214 423.322 131.71 427.329 133.225 427.15C133.623 427.103 134.739 425.44 135.708 423.455ZM181.804 417.397C181.631 415.567 180.843 413.253 180.049 412.257C177.626 409.212 177.532 411.569 179.888 416.275C181.844 420.18 182.078 420.318 181.804 417.397ZM97.2611 426.675C98.7246 424.654 99.4328 422.606 98.8351 422.125C98.2374 421.643 97.2992 422.357 96.7518 423.711C95.4946 426.82 92.554 427.223 90.6474 424.548C89.7016 423.219 88.4051 422.908 86.983 423.667C84.9585 424.747 85.0555 425.078 88.1939 427.771C92.4732 431.446 93.9338 431.269 97.2611 426.675ZM163.269 415.833C163.202 415.263 161.311 414.327 159.066 413.752C154.108 412.483 153.818 414.245 158.718 415.858C162.843 417.217 163.433 417.213 163.269 415.833ZM194.272 410.246C194.139 409.11 192.663 406.91 190.994 405.36L187.956 402.538L190.686 406.928C194.077 412.38 194.58 412.847 194.272 410.246ZM116.049 419.908C117.211 418.946 116.603 418.492 113.878 418.283C109.464 417.946 108.133 418.942 111.075 420.385C113.605 421.626 114.021 421.586 116.049 419.908ZM179.763 400.702C180.405 398.643 180.622 396.711 180.244 396.406C179.069 395.46 176.977 397.832 177.215 399.842C177.339 400.895 176.562 401.859 175.488 401.985C174.414 402.111 173.431 401.318 173.301 400.223C173.173 399.129 172.441 398.306 171.674 398.396C170.909 398.486 170.629 399.882 171.05 401.498C172.249 406.078 178.256 405.529 179.763 400.702ZM151.845 398.26C152.643 396.175 152.385 395.16 150.783 394.099C149.063 392.958 148.715 393.099 148.921 394.851C149.074 396.147 148.098 397.131 146.464 397.322C142.963 397.735 144.274 400.805 148.003 400.926C149.712 400.98 151.197 399.95 151.845 398.26ZM90.8335 405.919C92.5712 403.181 90.9474 401.327 89.0085 403.836C87.08 406.331 85.437 406.226 85.5829 403.616C85.6518 402.388 84.898 401.2 83.9084 400.974C82.6283 400.68 82.3604 401.642 82.9824 404.308C83.9995 408.668 88.503 409.592 90.8335 405.919ZM211.788 388.855C209.877 385.985 205.792 382.929 205.087 383.839C204.841 384.16 206.638 386.004 209.08 387.937C212.254 390.451 213.027 390.712 211.788 388.855ZM199.486 390.135C202.441 389.184 202.857 387.238 200.684 384.518C199.728 383.319 198.954 383.64 197.392 385.884C196.268 387.497 194.806 388.556 194.138 388.237C193.473 387.92 193.038 388.591 193.171 389.729C193.416 391.802 194.156 391.85 199.486 390.135ZM121.8 397.005C124.808 394.051 124.185 393.173 120.05 394.535C117.385 395.414 116.134 395.172 115.334 393.625C114.271 391.568 111.685 392.341 111.956 394.635C112.158 396.344 116.441 399.516 118.202 399.259C119.044 399.137 120.661 398.122 121.8 397.005ZM179.342 378.033C180.282 376.104 180.599 373.947 180.048 373.238C178.47 371.214 176.933 371.955 176.534 374.93C176.234 377.169 175.429 377.596 172.042 377.311C167.043 376.889 166.831 379.066 171.717 380.673C176.61 382.286 177.404 382.011 179.342 378.033ZM222.921 373.521C222.835 372.791 222.144 372.265 221.387 372.354C220.63 372.444 220.441 373.073 220.97 373.75C221.498 374.429 222.188 374.953 222.505 374.916C222.821 374.879 223.008 374.251 222.921 373.521ZM298.721 363.705C299.141 363.163 299.299 361.478 299.075 359.961C298.699 357.428 298.596 357.474 297.795 360.532C296.904 363.933 297.354 365.475 298.721 363.705ZM218.581 370.282C218.496 369.553 216.999 368.765 215.257 368.53C212.716 368.189 212.09 367.367 212.103 364.38C212.12 360.765 212.102 360.758 211.501 364.093C211.087 366.392 209.645 367.954 207.136 368.821C203.287 370.15 204.035 370.482 210.332 370.238C212.318 370.161 215.023 370.438 216.34 370.853C217.728 371.289 218.672 371.049 218.581 370.282ZM148.306 372.875C149.69 369.108 149.643 368.68 147.871 368.887C146.779 369.017 145.963 369.788 146.061 370.605C146.157 371.421 145.058 371.916 143.615 371.708C140.488 371.256 139.62 373.857 142.202 375.938C145.059 378.239 146.628 377.452 148.306 372.875ZM93.9698 381.96C94.326 381.177 95.8981 380.368 97.4635 380.163C100.007 379.826 100.053 379.672 97.8909 378.708C95.2829 377.546 90.444 380.031 90.7222 382.388C90.9206 384.07 93.1432 383.776 93.9698 381.96ZM130.094 373.046C129.758 372.319 128.701 371.816 127.747 371.928C126.794 372.04 125.882 372.775 125.725 373.561C125.567 374.345 126.623 374.849 128.071 374.678C129.52 374.508 130.429 373.773 130.094 373.046ZM225.273 359.906C225.08 358.263 219.906 356.025 218.193 356.843C217.518 357.165 218.872 358.289 221.2 359.345C223.528 360.399 225.361 360.651 225.273 359.906ZM118.112 370.774C119.775 368.622 119.433 364.156 117.62 364.37C116.904 364.454 116.425 365.419 116.554 366.514C116.683 367.61 115.911 368.609 114.837 368.735C113.764 368.862 112.819 368.405 112.738 367.719C112.658 367.034 111.431 366.702 110.013 366.98C106.885 367.596 106.885 367.621 110.076 370.627C112.964 373.346 116.079 373.404 118.112 370.774ZM200.379 358.564C202.965 356.583 202.633 351.676 199.934 351.993C198.86 352.119 198.087 353.12 198.216 354.214C198.363 355.453 197.223 356.352 195.198 356.589C191.564 357.017 191.065 359.04 194.379 359.907C197.196 360.645 197.854 360.497 200.379 358.564ZM168.624 360.302C169.89 355.109 169.4 354.354 167.662 358.82C166.07 362.91 162.728 364.189 159.801 361.831C158.63 360.887 158.109 360.901 158.223 361.873C158.421 363.552 161.586 364.582 165.229 364.154C166.745 363.975 168.104 362.434 168.624 360.302ZM177.545 348.974C178.301 347.996 178.756 345.973 178.556 344.48C178.217 341.939 178.099 341.927 176.739 344.29C175.141 347.067 171.716 348 170.21 346.067C168.772 344.221 166.769 344.851 167.03 347.068C167.48 350.876 175.018 352.243 177.545 348.974ZM141.888 353.886C143.124 352.29 142.488 350.437 141.092 351.564C140.387 352.134 138.619 351.733 137.16 350.673C133.834 348.257 132.317 350.807 135.538 353.403C137.957 355.351 140.601 355.553 141.888 353.886ZM214.745 339.473C217.499 334.546 217.521 332.424 214.813 332.743C213.729 332.87 213 334.154 213.174 335.629C213.346 337.089 212.91 338.428 212.205 338.603C211.501 338.779 210.395 339.06 209.75 339.228C207.198 339.894 207.184 341.571 209.723 342.593C211.936 343.484 212.803 342.945 214.745 339.473ZM144.601 347.061C144.473 345.965 143.781 345.137 143.065 345.223C142.35 345.306 141.87 346.271 141.999 347.367C142.129 348.462 142.82 349.289 143.535 349.205C144.251 349.121 144.731 348.156 144.601 347.061ZM179.413 331.254C181.649 328.36 180.825 327.61 176.383 328.498C174.078 328.958 172.383 329.692 172.618 330.131C172.852 330.568 173.112 331.524 173.198 332.254C173.416 334.104 177.749 333.405 179.413 331.254ZM224.126 322.225C223.598 321.546 221.594 321.22 219.674 321.497C216.558 321.948 216.477 322.092 218.921 322.836C222.722 323.996 225.273 323.696 224.126 322.225ZM206.372 319.037C207.89 315.956 209.323 311.911 209.555 310.046C209.786 308.182 210.954 305.294 212.149 303.63C213.343 301.966 214.278 300.257 214.228 299.832C214.177 299.405 215.903 293.906 218.064 287.61C220.985 279.089 221.797 274.533 221.238 269.791C220.674 265.015 219.998 263.479 218.534 263.65C215.678 263.987 215.85 262.101 219.755 250.233C226.006 231.233 226.725 228.578 229.6 213.886C236.808 177.053 240.611 154.144 240.55 147.927C240.538 146.789 240.929 143.714 241.415 141.095C243.118 131.948 244.21 103.737 243.155 96.127L242.093 88.4538L246.741 88.7895C252.578 89.2096 261.826 86.7206 264.763 83.9385C266.628 82.1722 265.858 82.2718 260.095 84.5464C252.142 87.6843 246.012 87.6302 241.677 84.383C240.005 83.1313 238.161 82.4936 237.576 82.9661C235.779 84.4188 234.502 80.3097 233.127 68.6481C232.281 61.4797 231.301 57.5308 230.393 57.6376C229.497 57.7429 229.456 59.6016 230.281 62.6989C230.998 65.3904 232.277 72.0099 233.122 77.4069C234.657 87.2095 234.655 87.2217 231.058 88.6787C228.302 89.7958 226.233 89.5397 222.244 87.5872C216.004 84.5332 209.455 78.5058 208.158 74.6212C207.639 73.0735 206.828 70.6404 206.353 69.2156C205.879 67.7908 205.725 69.198 206.012 72.3425C206.491 77.6074 207.206 78.6099 215.047 85.008C223.499 91.9048 223.62 91.9512 231.959 91.3742L240.357 90.7928L240.637 96.1444C240.964 102.34 239.691 128.3 238.382 142.18C235.563 172.055 225.34 224.49 217.936 247.046C213.059 261.906 212.623 262.673 208.262 264.053C205.585 264.9 202.764 267.051 201.447 269.252C198.764 273.734 196.228 287.88 195.434 302.801C195.117 308.755 194.579 314.238 194.239 314.986C193.899 315.732 194.256 318.4 195.03 320.913C196.237 324.826 196.954 325.421 200.025 325.06C202.755 324.738 204.272 323.3 206.372 319.037ZM208.282 266.203C208.637 265.421 209.479 264.716 210.153 264.637C210.828 264.557 211.449 265.09 211.534 265.821C211.62 266.551 210.777 267.255 209.663 267.387C208.547 267.518 207.925 266.985 208.282 266.203ZM64.0261 133.749C63.8539 132.289 63.1273 131.162 62.4116 131.246C61.696 131.33 61.2514 132.594 61.4237 134.055C61.5959 135.516 62.3225 136.641 63.0382 136.557C63.7538 136.473 64.1984 135.209 64.0261 133.749ZM250.712 83.5166C252.798 82.5524 253.075 82.1161 251.547 82.207C250.287 82.2813 249.196 81.8483 249.125 81.2443C249.053 80.6401 247.255 80.6201 245.129 81.1988C242.007 82.0492 241.592 82.5717 242.972 83.9117C244.85 85.7355 246.044 85.6745 250.712 83.5166ZM227.402 81.8841C221.624 77.564 218.03 68.491 219.19 61.1513C220.01 55.946 220.036 56.1635 218.659 56.3254C216.741 56.551 217.226 68.7069 219.37 74.1463C221.361 79.1985 228.328 86.15 231.075 85.8268C231.836 85.7373 230.181 83.9627 227.402 81.8841ZM258.701 78.5384C259.056 77.7561 258.727 77.1893 257.969 77.2784C257.213 77.3674 256.663 78.0377 256.748 78.7681C256.834 79.4983 257.162 80.0658 257.479 80.0286C257.795 79.9913 258.344 79.3207 258.701 78.5384ZM262.991 74.3319C264.358 72.0359 264.308 71.9949 262.439 73.8881C260.476 75.8785 259.916 77.0493 260.987 76.9234C261.256 76.8916 262.158 75.7262 262.991 74.3319ZM244.216 70.7588C244.318 67.3815 244.663 63.5539 244.984 62.2547C245.309 60.9418 244.954 59.963 244.187 60.0533C242.506 60.251 241.886 67.8719 243.127 73.0906C243.882 76.27 244.062 75.8857 244.216 70.7588ZM258.405 64.1018C259.457 61.9427 260.993 59.2945 261.821 58.2198C262.651 57.1436 263.232 55.5607 263.114 54.7021C262.998 53.8423 261.9 54.7724 260.678 56.7672C258.208 60.7948 255.129 68.1894 255.963 68.0914C256.257 68.0569 257.356 66.2607 258.405 64.1018ZM142.207 76.089C140.806 72.5047 140.073 71.58 139.362 72.4996C139.099 72.8402 139.914 74.5102 141.175 76.2128L143.464 79.3064L142.207 76.089ZM120.97 68.4801C120.93 68.1455 117.908 66.746 114.253 65.3707C106.631 62.5008 103.477 59.925 104.59 57.4799C105.072 56.4217 104.856 56.1887 104.019 56.8647C103.223 57.509 100.96 55.7988 98.4831 52.6818C96.179 49.7813 94.1398 48.1729 93.9518 49.1077C93.6628 50.5484 101.663 59.6391 106.576 63.4523C109.706 65.8814 121.135 69.8742 120.97 68.4801ZM117.405 60.493C113.544 57.3826 111.463 54.4584 110.335 50.5553C109.455 47.5141 108.264 45.0814 107.687 45.1494C107.11 45.2173 107.479 47.6926 108.506 50.649C110.509 56.4214 118.411 65.4267 121.186 65.1004C122.115 64.991 120.414 62.9175 117.405 60.493ZM133.571 61.3776C132.588 61.1043 131.47 61.2842 131.091 61.7759C130.71 62.2674 131.515 62.4903 132.88 62.2718C134.388 62.0297 134.66 61.6791 133.571 61.3776ZM126.55 57.4249C125.091 55.1774 123.647 52.4594 123.342 51.3848C123.036 50.3101 121.907 47.1112 120.832 44.276C118.955 39.3276 118.938 39.4065 120.421 46.2174C121.922 53.1202 125.23 59.6126 127.89 60.8827C128.612 61.2285 128.009 59.6723 126.55 57.4249ZM147.934 53.8225C149.304 51.6057 150.329 48.96 150.209 47.9444C150.089 46.9273 150.431 45.4677 150.971 44.7015C152.285 42.8332 152.768 34.4615 151.554 34.6044C151.025 34.6665 150.247 37.811 149.823 41.5925C149.401 45.3751 148.01 50.4187 146.732 52.8036C143.757 58.3567 144.658 59.1201 147.934 53.8225ZM161.772 50.9023C162.128 50.1199 161.799 49.5531 161.042 49.6422C160.284 49.7313 159.734 50.4016 159.82 51.1319C159.907 51.8621 160.234 52.4296 160.55 52.3924C160.866 52.3552 161.415 51.6846 161.772 50.9023ZM138.498 40.7172C139.055 37.5593 138.806 34.6648 137.809 32.7211C136.949 31.0454 136.085 29.6944 135.888 29.7176C135.693 29.7419 135.933 33.3483 136.425 37.7314C136.918 42.1158 137.388 45.6938 137.471 45.6841C137.557 45.6741 138.018 43.439 138.498 40.7172Z" fill="black"/>
</svg>
