<svg width="343" height="803" viewBox="0 0 343 803" fill="none" xmlns="http://www.w3.org/2000/svg">
<path fill-rule="evenodd" clip-rule="evenodd" d="M299.074 801.492C298.994 800.806 298.105 800.343 297.101 800.461C296.096 800.581 295.338 801.237 295.42 801.922C295.5 802.606 296.389 803.071 297.394 802.951C298.398 802.833 299.156 802.176 299.074 801.492ZM266.429 754.775C267.592 751.736 265.681 744.734 263.369 743.554C262.321 743.019 262.333 742.743 263.411 742.602C265.653 742.311 264.833 738.566 260.521 729.43C250.075 707.29 243.565 690.665 239.987 676.994C238.992 673.189 237.742 669.519 237.211 668.836C236.68 668.152 234.343 661.13 232.019 653.228C229.697 645.326 226.945 636.122 225.901 632.775C224.859 629.426 223.14 623.665 222.082 619.971C221.025 616.277 218.68 608.318 216.873 602.282C206.726 568.394 201.414 540.693 191.55 470.212C188.78 450.406 185.01 425.86 183.175 415.662C175.615 373.653 167.391 314.946 168.893 313.73C169.42 313.302 170.078 314.877 170.356 317.226C170.633 319.577 172.634 323.998 174.804 327.049C178.396 332.106 178.864 332.384 180.075 330.189C180.806 328.863 181.002 327.262 180.51 326.63C180.017 325.997 179.024 321.215 178.301 316.004C176.844 305.496 177.55 302.766 185.105 289.656C187.401 285.673 189.579 281.244 189.947 279.812C191.418 274.09 192.072 263.788 191.212 259.9C190.042 254.623 183.454 240.172 174.555 223.372C166.259 207.705 163.115 198.856 163.534 192.348C163.783 188.47 164.364 187.531 166.683 187.258C170.703 186.784 171.919 188.405 176.262 200.014C184.131 221.063 188.019 228.921 190.426 228.638C191.398 228.523 191.922 227.751 191.586 226.923C191.251 226.094 188.97 220.826 186.514 215.214C184.059 209.603 180.723 201.235 179.099 196.618C177.478 192.003 175.123 187.309 173.868 186.191C172.614 185.071 172.053 184.101 172.619 184.033C173.187 183.968 172.482 183.158 171.055 182.237C168.636 180.675 168.879 180.56 174.619 180.572C178.057 180.577 181.78 181.432 183.041 182.507C185.782 184.84 193.971 200.111 193.287 201.614C192.691 202.925 197.186 214.778 199.652 218.4C202.717 222.9 203.321 221.075 200.32 216.376C198.759 213.928 196.517 207.988 195.34 203.177C193.969 197.557 191.537 191.877 188.549 187.304C185.99 183.387 184.228 180.143 184.635 180.094C185.043 180.047 184.64 179.292 183.742 178.42C182.41 177.125 182.815 176.585 185.949 175.484C189.417 174.265 190.338 174.604 195.468 178.988C200.415 183.215 201.686 185.324 205.325 195.335C209.649 207.235 213.37 214.197 218.017 219.077C219.503 220.638 221.254 224.499 221.905 227.658C223.104 233.461 226.207 237.233 230.013 237.518C231.116 237.6 234.372 237.656 237.252 237.641C244.267 237.603 247.038 239.11 252.508 245.937C256.568 251.009 257.281 252.831 258.396 261.021C260.341 275.323 259.165 296.276 257.031 285.286C255.066 275.161 237.171 249.901 233.394 251.92C232.527 252.385 232.083 252.175 232.409 251.459C233.112 249.914 227.95 248.247 215.391 245.963C210.357 245.049 206.175 243.913 206.096 243.442C206.017 242.973 203.178 240.108 199.788 237.081C196.394 234.051 193.566 231.12 193.501 230.563C193.435 230.007 192.884 229.61 192.277 229.682C191.67 229.754 191.588 230.892 192.097 232.213C192.606 233.534 193.473 234.249 194.023 233.806C194.573 233.359 195.149 234.065 195.303 235.372C195.456 236.679 197.503 239.877 199.852 242.48C204.401 247.524 211.638 250.587 220 251.01C231.591 251.598 240.954 259.347 248.164 274.32C254.95 288.41 256.82 294.375 256.944 302.317C257.043 308.469 257.406 309.943 258.793 309.779C260.927 309.527 262.716 293.46 262.518 276.313C262.501 274.927 262.472 270.021 262.451 265.414C262.42 258.858 261.765 255.57 259.44 250.307C257.805 246.606 255.995 243.634 255.416 243.702C254.837 243.769 254.277 243.082 254.169 242.174C253.675 237.976 242.482 232.887 234.723 233.33C228.913 233.662 227.771 232.88 225.899 227.3C224.652 223.578 224.773 223.329 228.023 222.946C229.92 222.722 234.223 221.079 237.588 219.295C249.543 212.955 260.67 214.365 272.563 223.725C276.731 227.007 280.503 229.098 281.213 228.522C281.905 227.962 282.22 228.064 281.909 228.746C280.4 232.062 291.192 238.534 301.823 240.69C314.081 243.177 317.302 243.228 317.03 240.931C316.901 239.833 315.482 238.595 313.875 238.177C307.141 236.435 302.026 227.962 298.969 213.487C296.353 201.092 293.548 193.063 290.928 190.474C290.077 189.634 288.662 187.826 287.783 186.458C285.376 182.715 274.864 180.477 265.679 181.755C259.939 182.553 256.182 183.937 251.471 186.987C242.528 192.778 240.008 193.779 236.583 192.893C232.248 191.77 230.35 188.241 228.373 177.627C227.225 171.449 225.844 167.49 224.364 166.127C221.231 163.236 207.95 158.415 204.307 158.845C202.651 159.04 200.892 158.679 200.398 158.042C199.595 157.011 210.005 154.798 215.464 154.842C216.484 154.85 218.521 154.84 219.99 154.822C221.461 154.804 222.63 155.289 222.587 155.896C222.435 158.17 236.91 163.848 241.438 163.292C246.049 162.723 255.737 158.361 260.266 154.813C264.171 151.755 266.56 150.602 276.903 146.773C278.855 146.05 285.663 144.844 292.03 144.095C302.979 142.806 304.144 142.929 313.507 146.358C321.892 149.427 324.233 149.782 328.782 148.671C335.325 147.078 337.902 145.831 340.399 143.059C343.438 139.685 342.462 138.785 336.519 139.486C333.469 139.845 329.203 139.454 327.035 138.616C324.87 137.779 322.875 137.381 322.603 137.732C321.964 138.559 330.62 142.704 332.518 142.48C333.317 142.387 333.698 142.911 333.364 143.644C332.152 146.31 321.852 146.348 315.021 143.707C311.357 142.292 307.39 140.795 306.207 140.38C302.803 139.189 280.6 141.859 274.741 144.164C267.466 147.025 260.461 150.852 258.492 153.039C256.421 155.339 244.832 159.716 240.749 159.74C239.052 159.752 236.184 158.993 234.374 158.057C220.537 150.889 216.727 149.808 208.663 150.759C201.427 151.611 201.187 151.544 202.863 149.134C203.825 147.75 204.514 145.788 204.394 144.772C204.141 142.629 209.901 136.729 212.551 136.417C213.545 136.3 214.671 135.516 215.052 134.676C216.183 132.191 210.087 135.064 205.348 139.248C203.039 141.288 199.861 144.921 198.287 147.321C195.517 151.547 194.082 150.937 195.793 146.261C196.255 145.001 197.315 141.335 198.151 138.113C199.41 133.255 206.395 117.278 209.496 112.164C213.874 104.945 216.358 102.999 224.664 100.286C229.923 98.5689 236.873 103.62 241.306 112.383C249.011 127.612 252.122 129.123 261.891 122.373C265.048 120.193 271.086 117.375 275.311 116.111L282.995 113.815L290.169 117.429C294.116 119.418 298.861 122.122 300.715 123.438C309.702 129.82 316.992 135.764 317.115 136.808C317.31 138.465 320.63 137.851 321.469 136.003C322.358 134.049 303.653 119.777 292.825 114.148C285.26 110.216 284.599 110.105 277.072 111.513C272.356 112.395 267.625 114.163 265.237 115.933C258.492 120.939 254.13 122.674 251.79 121.281C250.651 120.602 247.246 116.08 244.218 111.23C238.753 102.468 233.08 97.0142 228.477 96.0987C225.39 95.4851 213.273 101.802 211.061 105.178C210.128 106.599 208.803 107.828 208.115 107.91C205.677 108.2 194.327 136.815 192.755 146.637C192.103 150.705 191.131 154.086 190.596 154.148C190.061 154.212 190.428 148.915 191.411 142.377C193.126 130.974 193.038 129.105 189.253 96.2467C186.723 74.285 184.537 59.8292 183.157 55.944C181.974 52.6122 179.906 46.04 178.559 41.3391C175.136 29.3782 169.509 16.8789 166.597 14.7592C163.38 12.4194 162.675 13.5074 165.072 17.1113C169.135 23.2225 173.788 35.2649 180.615 57.3655C183.48 66.6358 190.153 123.664 189.561 133.808C189.119 141.354 186.947 154.528 185.049 161.175C184.525 163.007 182.933 165.245 181.51 166.15C179.179 167.632 178.829 167.449 177.99 164.295C177.478 162.368 177.576 160.732 178.209 160.656C178.841 160.581 178.939 159.434 178.428 158.108C177.916 156.781 177.959 155.321 178.52 154.867C180.5 153.263 176.043 126.481 167.507 88.7106C166.666 84.9916 165.442 78.8881 164.783 75.1475C161.801 58.1717 149.527 22.6708 146.755 22.9972C146.11 23.0731 145.495 22.3757 145.385 21.4483C145.146 19.4191 131.096 8.49396 128.807 8.55793C127.919 8.58165 126.63 8.53649 125.941 8.45617C125.252 8.37567 123.61 8.35081 122.29 8.40038C120.529 8.46647 120.209 8.07972 121.084 6.94547C121.74 6.09572 126.53 4.73914 131.727 3.92882C142.239 2.29051 151.275 4.18862 158.45 9.5433C160.513 11.0825 162.754 12.2686 163.431 12.1789C164.244 12.0704 164.2 11.755 163.305 11.2472C162.559 10.825 160.77 9.00374 159.327 7.20069C152.256 -1.63723 127.51 -2.55945 117.896 5.65645C115.54 7.67071 114.243 7.94589 110.394 7.24682C106.803 6.59307 104.418 6.95725 99.9465 8.83703C87.8716 13.9144 85.8993 15.2715 83.4872 20.1625C79.152 28.9581 75.836 39.3175 76.2453 42.7907C76.4662 44.6643 76.1458 49.8516 75.5318 54.3187C74.649 60.7602 75.0673 67.7159 77.5547 87.9346C80.9029 115.143 83.8275 128.681 89.5784 143.59C91.5526 148.705 93.0447 153.504 92.8943 154.251C92.7451 154.999 90.1711 153.692 87.1755 151.348C84.179 149.005 79.166 146.544 76.0326 145.882C70.2699 144.661 61.2277 146.001 61.4678 148.04C61.5396 148.648 60.6237 149.263 59.432 149.402C54.6602 149.965 50.0779 160.699 50.0729 171.331C50.0656 185.905 45.2467 195.63 34.7504 202.244C15.2598 214.53 9.73659 226.339 10.8109 253.427C11.2769 265.203 10.9464 268.688 8.93313 273.211C5.772 280.313 2.79055 284.817 1.12244 285.013C0.391315 285.1 -0.104668 286.028 0.0188779 287.076C0.702878 292.881 11.6374 287.436 16.3912 278.921C20.8801 270.885 24.4069 263.387 24.2649 262.181C24.197 261.605 24.7713 259.433 25.5417 257.353C26.3112 255.275 26.821 252.452 26.6744 251.081C26.147 246.164 28.6114 238.446 31.2909 236.622C32.7846 235.604 37.7637 233.626 42.3552 232.226C46.9465 230.824 52.7896 228.514 55.3396 227.089C59.9414 224.517 69.1618 213.49 68.8926 210.882C68.8155 210.133 70.1307 207.484 71.8139 204.994C75.5721 199.438 81.3054 197.432 87.0653 199.657C90.3946 200.945 92.11 200.857 97.0672 199.142C100.359 198.005 103.303 196.521 103.609 195.847C103.915 195.173 104.749 194.553 105.461 194.468C106.356 194.363 106.424 194.844 105.685 196.021C105.095 196.956 103.566 201.725 102.289 206.614C99.6414 216.741 96.1772 220.515 85.351 225.065C78.0715 228.124 73.8781 232.986 69.5396 243.401C66.3031 251.171 66.7755 258.263 71.16 267.719C77.0967 280.524 77.117 291.255 71.2216 299.747C65.1349 308.515 62.0844 319.039 63.3478 326.91C65.1007 337.832 65.1882 338.053 67.6655 337.76C69.2763 337.57 70.1184 336.288 70.3689 333.642C71.3747 323.033 75.6203 317.158 88.3837 308.718C94.0316 304.981 100.782 299.306 103.382 296.107L108.11 290.289L106.514 282.486C105.635 278.193 104.275 272.097 103.492 268.938C101.36 260.339 104.978 251.493 112.36 247.259C114.441 246.066 116.047 244.268 115.929 243.265C115.588 240.37 108.926 244.353 104.4 250.16C98.6591 257.525 98.0875 263.442 101.876 276.308C104.397 284.871 104.762 287.456 103.808 290.015C102.486 293.565 95.8447 300.362 93.4186 300.649C92.5436 300.752 91.8776 301.264 91.9392 301.787C92.057 302.787 83.6667 308.107 81.5854 308.353C80.9201 308.431 80.4414 309.056 80.5221 309.74C80.6028 310.426 79.9485 311.07 79.0688 311.173C77.0095 311.417 72.0989 318.076 69.2829 324.446C67.3837 328.742 66.9399 329.107 66.054 327.116C63.7598 321.958 66.8933 311.068 73.2533 302.093C76.89 296.961 79.1709 287.79 78.4118 281.347C78.0468 278.248 75.9933 271.171 73.8492 265.62C70.0336 255.738 69.98 255.379 71.2853 248.286C73.1763 238.007 78.306 231.12 86.684 227.612C95.4022 223.96 100.705 220.235 101.234 217.395C101.468 216.139 102.17 215.051 102.795 214.977C103.42 214.903 103.862 214.247 103.776 213.519C103.69 212.791 104.63 208.971 105.864 205.032C107.099 201.092 108.045 197.324 107.967 196.66C107.888 195.996 108.292 195.397 108.865 195.33C109.438 195.263 111.249 193.598 112.891 191.63C116.02 187.881 121.596 186.739 122.894 189.581C123.271 190.409 120.872 194.452 117.562 198.566C114.251 202.681 111.634 206.812 111.744 207.746C112.229 211.865 106.676 223.21 102.544 226.539C97.716 230.429 96.3205 232.847 94.277 240.856C93.4173 244.223 93.3708 246.564 94.1551 246.938C94.8568 247.274 95.2814 246.254 95.0988 244.674C94.5966 240.327 98.867 231.831 103.701 227.558C106.476 225.106 109.388 220.35 111.896 214.174C114.036 208.906 117.027 203.492 118.542 202.144C120.057 200.794 121.527 199.298 121.81 198.817C122.438 197.748 127.615 195.657 127.707 196.436C127.743 196.742 126.739 198.841 125.477 201.104C123.471 204.696 123.354 206.83 124.546 218.05L125.912 230.884L121.787 235.913C119.52 238.68 118.12 241.31 118.676 241.76C119.233 242.21 119.997 241.912 120.374 241.101C120.751 240.29 122.074 239.296 123.314 238.897C124.554 238.498 126.532 236.461 127.709 234.372C129.54 231.125 129.628 229.135 128.319 220.63C126.412 208.227 127.264 203.788 132.883 196.84C136.865 191.919 137.269 191.682 136.771 194.568C134.865 205.598 136.464 210.105 146.945 223.26C149.327 226.249 151.394 229.703 151.54 230.936C151.685 232.172 150.25 236.064 148.35 239.586C141.255 252.749 141.427 269.232 148.74 276.949C150.793 279.117 152.32 281.658 152.13 282.597C151.941 283.538 152.539 292.879 153.459 303.358C154.681 317.298 155.509 322.37 156.545 322.262C157.408 322.172 157.347 322.622 156.39 323.415C155.086 324.494 155.477 328.989 158.702 349.943C160.837 363.82 163.012 376.828 163.534 378.849C164.058 380.869 165.67 390.335 167.116 399.884C168.564 409.432 171.25 425.303 173.086 435.154C177.942 461.209 180.734 479.706 187.669 531.814C191.076 557.407 194.111 578.667 194.416 579.059C194.722 579.45 196.518 587.791 198.408 597.592C202.005 616.231 203.275 621.162 211.17 647.131C213.818 655.844 216.485 664.901 217.099 667.258C218.997 674.558 220.234 678.164 228.565 700.659C233.006 712.656 236.724 723.182 236.827 724.053C236.928 724.925 238.46 728.133 240.226 731.184C241.995 734.235 244.485 738.597 245.76 740.876C247.036 743.155 249.085 746.464 250.315 748.23C251.544 749.997 252.3 751.991 251.993 752.665C251.103 754.625 258.17 758.347 261.94 757.902C264.174 757.64 265.756 756.537 266.429 754.775ZM196.324 579.534C196.288 579.233 196.765 578.575 197.386 578.073C198.007 577.57 198.585 577.754 198.67 578.478C198.755 579.203 198.277 579.861 197.607 579.939C196.936 580.02 196.36 579.836 196.324 579.534ZM195.481 569.169C195.648 567.923 196.003 568.581 196.268 570.63C196.535 572.682 196.399 573.703 195.967 572.9C195.533 572.096 195.314 570.418 195.481 569.169ZM194.774 524.449C194.687 523.719 195.476 523.749 196.635 524.518C197.741 525.252 198.669 526.047 198.696 526.283C198.724 526.52 197.886 526.489 196.836 526.214C195.784 525.938 194.856 525.143 194.774 524.449ZM189.628 491.264C189.547 490.58 190.03 489.955 190.699 489.877C191.37 489.798 191.984 490.292 192.066 490.978C192.146 491.662 191.663 492.287 190.994 492.367C190.323 492.445 189.709 491.95 189.628 491.264ZM187.656 470.987C187.893 470.091 188.251 470.758 188.454 472.471C188.656 474.182 188.461 474.914 188.022 474.099C187.584 473.283 187.419 471.882 187.656 470.987ZM170.574 409.285C171.662 407.873 172.909 409.658 172.091 411.458C171.474 412.819 171.186 412.852 170.625 411.636C170.24 410.803 170.219 409.746 170.574 409.285ZM170.019 363.254C170.256 362.358 170.616 363.027 170.818 364.738C171.019 366.449 170.824 367.182 170.387 366.366C169.947 365.549 169.782 364.149 170.019 363.254ZM164.676 331.939C164.56 330.953 165.013 330.081 165.684 330.002C166.354 329.924 167.038 331.012 167.205 332.422C167.37 333.83 166.917 334.702 166.197 334.359C165.477 334.015 164.793 332.926 164.676 331.939ZM173.649 318.966C173.982 318.233 174.91 317.565 175.709 317.48C176.583 317.39 176.489 317.897 175.476 318.751C173.318 320.572 172.897 320.623 173.649 318.966ZM172.531 308.088C172.31 303.446 172.303 299.425 172.515 299.152C173.693 297.625 167.021 289.089 159.334 282.286C154.475 277.987 149.329 272.192 147.897 269.407C145.464 264.674 145.374 263.775 146.521 255.729C147.197 250.992 149.227 244.247 151.032 240.738C155.416 232.222 155.729 228.762 152.484 224.705C151.039 222.902 149.473 221.186 149.002 220.895C148.532 220.603 146.359 217.611 144.176 214.247C139.712 207.373 138.562 201.401 140.416 194.73C142.553 187.032 145.436 188.749 147.414 198.89C148.115 202.476 150.003 206.895 151.828 209.21C153.58 211.437 156.675 215.736 158.7 218.763C160.726 221.789 162.557 224.041 162.772 223.766C162.983 223.489 160.067 218.657 156.293 213.024C152.517 207.393 149.566 202.714 149.733 202.627C152.243 201.343 154.539 198.776 154.402 197.406C154.032 193.684 155.608 189.825 157.594 189.591C159.298 189.39 159.699 190.285 159.802 194.53C159.944 200.407 164.673 213.416 169.211 220.407C172.829 225.983 186.289 253.491 187.782 258.354C189.665 264.498 187.216 283.012 184.098 286.181C183.712 286.574 181.896 289.435 180.06 292.541C176.038 299.351 173.999 306.211 174.568 311.034C174.928 314.095 174.38 316.356 173.244 316.49C173.071 316.51 172.75 312.729 172.531 308.088ZM168.731 302.661C169.744 301.455 169.931 301.642 169.533 303.461C169.247 304.767 169.101 307.34 169.209 309.179C169.369 311.898 169.219 311.749 168.407 308.379C167.846 306.052 167.988 303.544 168.731 302.661ZM171.022 265.895C170.42 264.72 169.657 264.11 169.327 264.537C168.996 264.964 169.489 265.924 170.423 266.672C171.77 267.75 171.893 267.59 171.022 265.895ZM8.88011 279.367C13.7148 271.434 14.8762 265.204 13.9715 252.064C13.1304 239.841 13.4043 237.492 17.0793 225.441C19.3488 217.997 24.3793 212.607 35.461 205.739C46.7606 198.736 52.4092 187.467 53.1398 170.466C53.5376 161.229 55.0855 157.831 62.1693 150.659C68.6814 144.064 90.13 152.579 92.4378 162.675C92.9627 164.971 94.1103 168.251 94.9893 169.967C96.294 172.514 96.2469 172.994 94.73 172.598C84.395 169.889 74.0959 171.718 72.9228 176.472C72.4195 178.512 72.5203 178.499 74.415 176.282C76.6799 173.633 80.4355 172.709 80.6753 174.744C80.7607 175.467 81.3864 175.611 82.0655 175.062C82.7444 174.512 85.0694 175.098 87.231 176.364C89.3928 177.63 93.0462 178.752 95.3484 178.862C100.395 179.099 106.911 184.138 106.152 187.214C105.471 189.971 99.5744 194.65 94.6617 196.333C91.7749 197.321 89.8827 197.125 87.0659 195.543C83.4954 193.539 83.0167 193.565 77.1415 196.107C71.7718 198.429 70.5406 199.674 67.6815 205.668C60.7825 220.134 56.4394 223.851 40.1504 229.242C33.2086 231.538 29.3788 233.51 27.9205 235.54C25.526 238.871 23.6656 246.212 24.1377 250.461C24.6512 255.081 17.4339 273.648 13.0208 279.058C7.60081 285.704 4.89524 285.905 8.88011 279.367ZM294.037 234.527C291.503 233.194 286.366 229.711 282.625 226.789C263.503 211.856 248.463 208.021 237.715 215.339C231.361 219.666 226.655 220.05 221.617 216.656C216.057 212.911 213.646 208.541 207.277 190.681C206.091 187.35 204.713 183.587 204.216 182.321C203.72 181.054 200.478 177.812 197.014 175.117C191.714 170.996 191.213 170.296 193.859 170.707C195.591 170.976 199.061 171.277 201.573 171.377C206.361 171.569 206.448 171.667 211.308 182.633C214.32 189.432 222.342 202.159 223.525 202.02C224.071 201.956 222.803 199.405 220.702 196.356C218.604 193.306 214.867 186.533 212.398 181.305C207.282 170.477 202.113 165.414 196.81 166.039C194.911 166.263 193.291 165.885 193.211 165.2C192.892 162.499 205.255 162.499 213.497 165.198C222.571 168.171 222.672 168.308 225.451 181.468C227.11 189.326 227.92 191.009 231.35 193.711C236.58 197.833 241.432 197.197 250.383 191.212C259.306 185.247 264.103 183.898 273.249 184.781C282.121 185.637 286.541 187.845 287.592 191.949C288.024 193.634 289.171 195.77 290.143 196.698C292.334 198.785 294.067 204.217 296.317 216.057C297.785 223.769 300.393 229.95 305.132 236.95C306.277 238.64 298.714 236.99 294.037 234.527ZM167.018 245.276C166.761 241.14 166.139 237.804 165.637 237.865C165.135 237.926 165.12 241.337 165.604 245.445C166.74 255.089 167.622 254.983 167.018 245.276ZM165.537 230.938C163.888 224.893 163.061 223.928 163.654 228.741C163.901 230.735 164.724 233.148 165.486 234.099C166.429 235.277 166.447 234.269 165.537 230.938ZM126.114 180.989C123.925 179.34 120.407 175.78 118.297 173.077C116.187 170.374 113.909 168.23 113.234 168.31C112.549 168.39 112.177 167.101 112.389 165.391C112.598 163.708 112.133 162.026 111.354 161.653C110.575 161.281 109.786 159.75 109.599 158.25C109.411 156.751 107.58 151.179 105.527 145.867C103.475 140.555 101.682 134.564 101.542 132.555C101.402 130.544 99.6477 122.309 97.6432 114.253C91.2668 88.6358 89.7677 68.0102 93.0777 51.395C93.9252 47.1376 94.7805 41.6463 94.9758 39.1936C95.449 33.2814 105.255 16.5258 108.462 16.1481C108.861 16.1009 108.907 17.0889 108.565 18.3447C106.895 24.4546 105.762 39.6864 106.03 52.4067C106.131 57.2541 108.207 78.0248 110.643 98.5638C114.989 135.211 115.167 136.168 120.178 149.821C122.988 157.474 126.622 166.006 128.254 168.784C129.886 171.561 131.318 174.656 131.437 175.665C131.556 176.675 132.138 177.442 132.73 177.373C133.32 177.303 134.225 178.334 134.737 179.66C135.631 181.98 139.684 182.748 139.426 180.549C139.355 179.96 137.215 176.424 134.669 172.691C130.438 166.489 128.031 161.507 123.372 149.312C115.199 127.915 106.89 57.7819 109.492 32.1473C110.958 17.7069 115.556 9.81308 114.671 23.2585C114.249 29.6735 115.526 44.2049 116.954 49.2267C117.431 50.906 119.744 60.8571 122.094 71.3405C124.443 81.8238 127.543 95.6582 128.982 102.084C130.421 108.509 133.302 125.777 135.387 140.457C139.287 167.917 139.578 169.537 142.248 178.651L143.821 184.02L136.958 184.006C131.883 183.994 129.058 183.207 126.114 180.989ZM154.986 175.696C155.454 172.539 154.356 163.475 151.603 147.766C149.365 134.976 145.613 112.526 143.271 97.8764C136.15 53.3599 128.164 25.3878 120.521 18.1911C117.06 14.932 119.242 14.583 123.186 17.7649C131.87 24.7708 139.478 46.022 147.398 85.3993C148.352 90.1463 150.687 100.663 152.585 108.77C160.499 142.556 162.166 153.928 161.363 168.57C160.919 176.642 160.481 177.985 157.872 179.265C156.231 180.069 154.757 180.649 154.593 180.55C154.429 180.452 154.606 178.267 154.986 175.696ZM145.799 177.411C143.481 170.265 142.752 166.634 140.059 148.741C134.664 112.901 132.265 100.807 121.82 56.8654C119.734 48.0901 117.817 39.1146 117.558 36.9186C116.873 31.1048 118.097 19.6378 119.282 20.7477C120.675 22.0479 125.672 32.1826 126.644 35.6755C136.786 72.1381 138.827 81.8184 141.995 108.467C143.441 120.635 145.035 131.806 145.539 133.293C146.043 134.781 147.699 144.324 149.219 154.502C151.325 168.591 151.697 174.042 150.777 177.352C149.203 183.026 147.629 183.045 145.799 177.411ZM165.126 173.957C167.203 165.545 161.178 126.808 153.5 99.1958C152.284 94.8267 150.361 86.2497 149.224 80.1357C148.087 74.0218 146.236 65.7201 145.109 61.6877C143.981 57.6552 142.535 52.1458 141.892 49.4446C138.207 33.9299 131.479 20.172 125.6 16.1224C121.392 13.2229 121.241 12.1186 124.99 11.677C129.913 11.0972 140.815 19.3057 146.009 27.5028C149.784 33.46 159.818 64.1707 162.49 77.942C163.609 83.7107 164.912 89.5212 165.387 90.8536C166.391 93.6837 168.303 104.772 172.953 134.77C174.802 146.701 176.627 157.165 177.006 158.024C177.386 158.883 177.185 159.343 176.561 159.043C175.938 158.746 175.301 160.14 175.149 162.142C174.997 164.146 173.238 168.037 171.238 170.787C167.404 176.066 164.195 177.732 165.126 173.957ZM111.518 177.031C109.208 175.049 105.974 171.027 104.33 168.097C102.686 165.165 100.732 161.704 99.9842 160.405C96.9765 155.168 89.8101 135.69 87.0749 125.321C85.4397 119.118 82.7667 102.61 80.9582 87.5452C77.2965 57.0267 77.6401 43.0101 82.3512 30.6739C83.8581 26.7288 85.0054 22.7731 84.9007 21.8831C84.6249 19.5439 89.6409 15.6448 92.0974 16.2883C93.2906 16.6007 94.1168 16.2209 94.0206 15.4042C93.9277 14.6161 94.5515 14.0165 95.4078 14.0708C96.2631 14.1266 99.0798 13.2546 101.666 12.1346C108.935 8.9864 109.071 9.33765 103.359 16.4916C95.8016 25.9583 94.4307 29.2208 90.968 45.9765C87.9646 60.5083 87.9399 61.3469 89.8567 82.0796C91.1643 96.2272 93.1877 109.458 95.924 121.755C100.091 140.476 107.693 162.862 110.055 163.369C110.767 163.521 111.141 164.491 110.887 165.522C110.632 166.554 111.484 168.689 112.779 170.266C114.074 171.844 114.785 173.175 114.357 173.226C113.93 173.277 114.628 174.594 115.909 176.154C120.427 181.656 117.568 182.227 111.518 177.031ZM185.363 169.149C185.718 168.688 186.766 168.519 187.687 168.776C188.705 169.059 188.451 169.388 187.039 169.614C185.761 169.82 185.007 169.61 185.363 169.149ZM246.673 139.086C249.249 136.907 251.08 134.903 250.743 134.632C250.407 134.361 248.211 135.87 245.863 137.985C239.475 143.74 235.984 143.498 225.259 136.552C223.18 135.205 220.563 134.223 219.442 134.369C218.323 134.516 221.493 136.699 226.488 139.219C231.483 141.741 237.015 143.632 238.782 143.424C240.548 143.217 244.101 141.264 246.673 139.086Z" fill="black"/>
</svg>
