<svg width="428" height="797" viewBox="0 0 428 797" fill="none" xmlns="http://www.w3.org/2000/svg">
<path fill-rule="evenodd" clip-rule="evenodd" d="M362.634 789.249C362.852 785.018 362.533 781.823 361.873 781.657C361.236 781.498 361.162 780.256 361.706 778.835C362.371 777.098 362.281 776.343 361.424 776.444C360.653 776.534 360.629 774.717 361.357 771.716C362.01 769.033 362.981 760.535 363.515 752.83C364.048 745.126 364.965 735.07 365.553 730.485C366.14 725.901 366.414 721.507 366.158 720.721C365.905 719.935 366.792 718.787 368.133 718.172C371.783 716.494 376.952 709.37 376.612 706.488C376.281 703.674 374.98 703.388 373.171 705.73C372.515 706.582 371.336 706.97 370.554 706.596C368.37 705.552 368.349 701.439 370.518 699.342C371.586 698.307 373.759 694.898 375.348 691.765C377.717 687.09 377.923 685.764 376.5 684.379C375.546 683.451 374.197 683.151 373.502 683.715C371.457 685.371 367.982 685.679 367.812 684.22C367.727 683.477 369.884 680.903 372.608 678.498C375.332 676.093 377.699 672.971 377.869 671.563C378.038 670.153 378.422 667.606 378.723 665.9C379.251 662.904 379.103 662.843 374.284 664.092C371.542 664.803 369.254 665.004 369.2 664.541C369.146 664.076 370.55 661.391 372.323 658.573C374.106 655.739 375.145 652.673 374.649 651.711C374.138 650.719 374.404 650.025 375.266 650.096C376.099 650.163 376.772 648.63 376.762 646.69L376.743 643.163L370.539 644.763C363.521 646.569 362.089 645.714 361.295 639.249C360.742 634.725 358.391 632.821 352.727 632.304L348.674 631.934L345.638 607.09C343.967 593.426 341.046 572.199 339.148 559.918C337.25 547.636 334.471 529.49 332.971 519.593C331.472 509.698 329.229 498.024 327.989 493.656C326.748 489.286 325.592 484.875 325.424 483.852C325.255 482.831 324.515 481.38 323.782 480.628C323.047 479.875 322.734 478.626 323.088 477.848C323.441 477.072 322.683 473.3 321.403 469.467C320.123 465.633 318.796 461.108 318.452 459.412C317.334 453.907 310.267 427.178 307.221 416.929C305.589 411.437 303.048 401.506 301.577 394.859C298.396 380.493 293.613 367.147 284.933 348.417C281.421 340.841 277.139 330.546 275.417 325.54C272.512 317.101 265.545 302.474 263.17 299.825C262.214 298.761 258.121 288.07 255.19 278.977C253.412 273.464 255.352 273.86 258.994 279.754C262.779 285.879 267.275 290.277 272.723 293.183C275.877 294.866 275.386 294.229 270.727 290.591C264.969 286.094 259.703 279.393 261.741 279.152C262.233 279.095 267.498 280.208 273.437 281.627C288.442 285.211 295.635 285.404 307.316 282.536C319.221 279.612 337.039 273.909 336.253 273.276C335.941 273.024 331.447 274.168 326.271 275.82C302.13 283.52 287.231 284.327 270.516 278.841L263.561 276.557L273.993 275.255C279.732 274.54 287.345 273.076 290.912 272.005C294.481 270.935 301.998 269.165 307.617 268.073C323.017 265.081 327.144 263.56 356.23 250.168C362.356 247.349 368.411 244.446 369.684 243.719C370.958 242.99 374.359 241.178 377.242 239.69C385.728 235.312 388.849 233.304 388.732 232.302C388.669 231.785 389.575 231.202 390.742 231.011C391.907 230.819 392.189 230.469 391.365 230.235C390.542 229.999 387.378 231.467 384.335 233.494C377.867 237.805 367.188 243.115 346.008 252.552C325.057 261.884 321.997 262.96 306.843 266.298C299.555 267.904 291.706 269.726 289.4 270.348C284.532 271.661 258.762 274.62 257.943 273.962C257.64 273.715 259.709 272.649 262.541 271.586C275.281 266.817 282.353 262.883 310.501 244.901C322.374 237.317 348.126 216.253 352.479 210.566C353.516 209.211 356.607 205.887 359.347 203.182C362.087 200.478 366.388 195.802 368.905 192.794C371.419 189.787 375.106 185.664 377.095 183.634C383.127 177.47 401.316 153.898 405.482 146.842C407.636 143.194 409.871 139.508 410.45 138.649C413.521 134.089 422.742 111.85 422.48 109.633C422.392 108.874 419.36 115.024 415.747 123.297C404.16 149.831 386.736 172.795 348.064 212.511C338.187 222.656 321.429 235.544 299.428 249.922C290.238 255.926 282.448 260.905 282.119 260.987C281.788 261.067 276.858 263.272 271.163 265.884C259.88 271.062 256.282 271.251 264.327 266.241C268.688 263.526 267.246 263.539 261.731 266.267C258.906 267.662 260.912 265.499 267.373 260.183C274.456 254.356 290.853 235.33 294.641 228.54C296.095 225.937 301.372 218.081 306.37 211.082C313.834 200.632 319.919 190.51 331.549 169.193C331.971 168.421 333.217 166.423 334.32 164.755C335.42 163.087 336.032 161.485 335.679 161.2C335.324 160.914 333.22 163.866 331.004 167.758C305.25 212.998 278.935 249.222 263.309 260.946C260.858 262.784 257.383 265.65 255.588 267.31C253.79 268.97 252.255 269.757 252.173 269.057C251.934 267.033 253.962 260.705 255.735 257.938C256.63 256.545 257.287 254.194 257.197 252.714C257.105 251.234 258.041 245.926 259.279 240.917C262.03 229.766 268.95 192.205 271.297 175.67C273.207 162.217 276.149 125.965 275.609 122.504C274.924 118.111 273.851 125.211 273.229 138.224C272.23 159.134 266.401 202.274 262.995 213.954C262.576 215.393 261.335 221.506 260.24 227.541C259.143 233.576 257.86 239.545 257.388 240.806C256.917 242.068 256.601 243.706 256.689 244.446C256.956 246.721 250.75 265.196 248.922 267.565C247.974 268.795 246.764 269.42 246.231 268.957C245.699 268.495 245.9 267.796 246.676 267.403C247.56 266.956 247.673 265.393 246.979 263.226C246.367 261.324 246.244 254.983 246.704 249.14C248.938 220.729 248.809 209.46 245.98 186.275C244.434 173.606 242.621 161.882 241.952 160.225C241.282 158.566 242.176 167.556 243.941 180.201C247.244 203.893 247.524 220.077 245.136 249.326C244.319 259.327 244.132 259.839 242.019 257.904C240.783 256.772 237.609 252.491 234.966 248.391C232.322 244.29 229.937 241.225 229.664 241.577C229.092 242.319 235.676 252.802 240.791 259.295C242.708 261.725 244.242 264.89 244.201 266.324C244.132 268.647 243.044 268.282 234.257 262.987C222.856 256.118 208.929 245.543 200.893 237.656C197.819 234.639 192.203 229.449 188.411 226.123C184.622 222.798 180.263 218.851 178.727 217.351C172.324 211.097 166.78 206.442 167.31 207.767C167.623 208.544 175.357 216.076 184.499 224.499C193.641 232.923 202.355 241.175 203.864 242.838C207.333 246.659 230.186 263.279 237.509 267.306C241.274 269.376 238.837 269.764 230.471 268.428C217.707 266.388 205.419 261.748 187.092 252.049C176.761 246.581 168.02 242.517 167.668 243.015C167.315 243.514 167.758 244.097 168.652 244.308C169.546 244.518 175.472 247.61 181.82 251.18C188.169 254.747 195.427 258.667 197.95 259.886C204.972 263.284 220.742 268.826 222.726 268.592C223.697 268.477 224.946 268.757 225.499 269.212C226.052 269.667 229.947 270.204 234.152 270.404C240.025 270.681 242.176 271.357 243.437 273.317C244.934 275.651 245.18 275.676 246.311 273.61C247.372 271.671 247.49 271.807 247.13 274.558C246.899 276.323 246.643 277.777 246.558 277.786C246.475 277.799 244.794 279.276 242.824 281.067C237.59 285.832 232.777 287.006 206.696 289.879C182.157 292.582 173.452 292.541 155.945 289.64C140.866 287.14 132.161 283.507 124.359 276.457C116.171 269.062 115.581 270.535 123.676 278.163C127.544 281.809 132.34 284.633 138.265 286.758C155.729 293.019 168.236 294.534 191.68 293.226C202.088 292.644 205.543 292.872 205.692 294.146C205.922 296.092 207.377 296.182 208.868 294.344C209.433 293.648 214.25 292.296 219.574 291.336C224.898 290.377 230.577 289.001 232.191 288.283L235.126 286.973L232.374 289.832C225.115 297.369 209.043 306.302 192.936 311.751C188.033 313.411 181.101 315.931 177.529 317.352C167.69 321.27 137.943 329.15 123.257 331.73C116.076 332.991 109.926 334.625 109.591 335.361C109.257 336.097 109.468 336.308 110.06 335.826C110.652 335.348 116.091 334.26 122.145 333.407C139.449 330.972 157.267 326.088 187.207 315.569C214.979 305.813 224.661 300.429 240.96 285.676C243.936 282.983 246.671 281.023 247.041 281.321C248.665 282.633 244.221 291.614 239.533 296.5C236.714 299.437 233.235 303.709 231.805 305.993C225.455 316.129 222.659 318.508 209.822 324.701C191.055 333.754 183.679 336.334 172.347 337.814C163.887 338.919 162.916 339.243 166.573 339.744C173.645 340.714 190.366 335.871 207.408 327.919C223.234 320.535 226.946 317.588 232.715 307.835C233.82 305.968 237.038 302.034 239.867 299.09C244.26 294.519 245.128 294.049 245.827 295.861C246.37 297.276 246.565 296.914 246.408 294.779C246.28 293.016 246.801 290.437 247.567 289.044C248.809 286.793 249.269 287.718 251.749 297.468C253.283 303.493 255.682 311.697 257.084 315.7C264.098 335.748 265.723 339.998 266.776 341.059C267.404 341.693 268.536 344.129 269.289 346.472C270.042 348.815 272.161 354.249 274 358.548C275.84 362.846 278.189 369.391 279.22 373.09C280.251 376.79 281.88 381.996 282.841 384.664C283.8 387.329 285.81 394.48 287.306 400.558C288.802 406.634 291.678 416.241 293.697 421.909C295.717 427.575 298.295 435.798 299.426 440.181C300.557 444.563 303.32 453.332 305.566 459.667C307.812 466.003 310.555 475.057 311.66 479.79C312.767 484.523 315.27 494.743 317.224 502.502C323.209 526.268 332.646 574.49 336.432 600.658C338.409 614.319 340.311 626.126 340.658 626.896C341.007 627.665 340.424 628.761 339.365 629.327C337.764 630.182 337.748 630.508 339.272 631.236C343.096 633.065 350.164 690.568 349.529 714.689C349.282 724.097 349.488 733.735 349.989 736.109C351.167 741.709 351.246 753.644 350.103 753.778C347.897 754.039 344.941 743.487 344.652 734.318C344.276 722.411 342.403 718.295 337.162 717.851C335.077 717.674 332.955 716.996 332.448 716.343C331.94 715.691 332.086 715.426 332.772 715.755C334.97 716.806 336.515 714.45 336.83 709.573C337.111 705.203 336.856 704.751 333.616 703.911L330.097 703.001L332.426 700.193C333.793 698.546 334.577 695.868 334.324 693.713C333.965 690.66 333.097 689.807 329.174 688.652C324.571 687.297 324.512 687.212 326.781 685.147C328.057 683.983 329.48 681.28 329.94 679.137C330.662 675.771 330.313 674.8 327.368 671.976C323.246 668.02 323.186 667.742 326.196 666.545C328.81 665.505 331.362 658.082 330.788 653.193C330.586 651.482 331.109 648.005 331.947 645.465C333.148 641.832 333.857 641.107 335.283 642.053C336.278 642.713 337.19 643.019 337.309 642.733C339.403 637.716 339.735 636.055 338.943 634.522C337.714 632.14 335.9 633.648 336.265 636.75C336.422 638.081 336.039 639.229 335.412 639.303C334.787 639.377 334.391 637.86 334.531 635.933C335.047 628.941 334.188 625.553 331.966 625.815C330.655 625.969 330.508 627.064 331.38 630.156C332.222 633.144 331.888 636.151 330.176 640.997C328.395 646.042 326.492 658.696 326.941 662.514C326.959 662.663 325.397 663.567 323.471 664.52C319.17 666.648 319.301 669.613 323.865 673.46C328.116 677.046 327.802 680.879 323.048 683.385L319.549 685.232L322.791 688.757C324.574 690.697 327.324 692.457 328.904 692.67C332.664 693.176 332.659 694.278 328.871 698.903C325.838 702.608 325.823 706.115 328.841 705.76C329.648 705.665 331.348 706.189 332.621 706.926C335.522 708.605 334.842 711.826 331.1 714.136C326.995 716.672 327.861 718.327 334.378 720.395C339.121 721.9 340.239 722.83 340.626 725.587C340.884 727.435 341.794 733.979 342.647 740.132C343.747 748.053 345 752.564 346.941 755.591C353.076 765.152 357.119 779.95 354.518 783.321C353.548 784.578 353.584 784.946 354.664 784.819C355.605 784.709 355.996 785.962 355.805 788.475C355.628 790.795 356.021 792.239 356.803 792.145C357.512 792.062 358.573 793.074 359.161 794.395C361.025 798.588 362.248 796.779 362.634 789.249ZM358.666 753.475C358.63 753.173 359.108 752.516 359.729 752.013C360.349 751.511 360.927 751.694 361.014 752.418C361.099 753.143 360.619 753.803 359.95 753.882C359.278 753.96 358.701 753.778 358.666 753.475ZM351.822 732.103C352.105 730.575 352.647 729.574 353.022 729.876C353.399 730.179 353.472 731.677 353.189 733.205C352.904 734.732 352.364 735.734 351.989 735.431C351.613 735.129 351.539 733.631 351.822 732.103ZM364.271 706.637C364.191 705.951 364.366 705.362 364.662 705.328C364.959 705.293 365.605 705.784 366.099 706.421C366.595 707.058 366.419 707.648 365.708 707.731C364.999 707.815 364.351 707.322 364.271 706.637ZM371.051 690.755C370.976 690.11 371.421 689.171 372.041 688.669C372.662 688.166 373.272 688.629 373.398 689.699C373.525 690.766 373.079 691.704 372.408 691.784C371.739 691.863 371.128 691.4 371.051 690.755ZM369.784 669.505C369.714 668.899 370.994 667.974 372.632 667.449C375.977 666.378 376.988 668.002 373.775 669.279C370.378 670.63 369.92 670.654 369.784 669.505ZM366.155 659.68C366.075 658.994 366.591 658.365 367.299 658.282C368.008 658.198 368.317 658.73 367.984 659.464C367.65 660.197 367.136 660.828 366.839 660.862C366.543 660.896 366.235 660.364 366.155 659.68ZM100.865 335.705C98.6892 334.936 97.5958 335.085 96.6694 336.286C95.7163 337.521 96.4154 337.77 99.6136 337.328C103.554 336.783 103.63 336.684 100.865 335.705ZM94.1754 337.136C93.7105 336.535 89.8567 336.28 85.612 336.566C81.3685 336.853 76.1004 337.193 73.9069 337.32C71.7136 337.449 69.9609 337.919 70.0135 338.364C70.0662 338.811 74.0981 338.806 78.972 338.354C83.8461 337.901 89.4526 337.686 91.429 337.878C93.5467 338.081 94.6748 337.776 94.1754 337.136ZM289.483 299.725C288.555 298.971 287.526 298.705 287.196 299.133C286.867 299.56 287.625 300.177 288.883 300.505C290.7 300.975 290.822 300.816 289.483 299.725ZM245.65 302.437C246.007 301.654 246.005 300.776 245.646 300.488C245.288 300.199 244.772 300.866 244.501 301.972C243.934 304.264 244.682 304.567 245.65 302.437ZM196.105 298.057C200.315 297.04 203.905 296.02 204.083 295.788C204.262 295.557 196.355 296.276 186.513 297.386C169.006 299.359 168.076 299.324 143.576 295.786C129.803 293.795 116.176 291.421 113.294 290.508C110.412 289.594 106.503 288.64 104.607 288.386C101.433 287.96 83.0383 280.061 63.9221 270.913C59.6003 268.845 51.9566 265.33 46.9361 263.102C33.0599 256.944 23.5739 247.979 9.50018 227.72C6.48938 223.384 3.75818 219.869 3.43276 219.908C2.57697 220.008 17.6825 241.934 22.3472 247.363C30.4733 256.818 34.7797 259.836 51.592 267.85C56.9212 270.391 59.1369 271.375 71.0691 276.504C73.7533 277.659 77.5318 279.489 79.4636 280.57C81.3965 281.65 88.5192 284.645 95.2926 287.223C106.503 291.492 115.959 293.424 150.595 298.529C170.494 301.459 182.535 301.335 196.105 298.057ZM251.354 277.85C250.858 277.213 251.035 276.624 251.746 276.54C252.454 276.457 253.103 276.95 253.183 277.634C253.263 278.32 253.088 278.91 252.792 278.944C252.495 278.978 251.849 278.487 251.354 277.85ZM240.587 278.248C239.377 278.073 237.459 278.299 236.321 278.751C235.183 279.203 236.175 279.345 238.521 279.068C240.868 278.793 241.798 278.423 240.587 278.248ZM239.326 275.414C239.182 274.188 226.735 272.657 225.882 273.762C225.521 274.23 225.558 274.88 225.964 275.208C227.216 276.22 239.444 276.409 239.326 275.414ZM216.22 273.351C214.872 272.208 195.614 267.449 188.217 266.431C186.143 266.146 181.265 264.854 177.374 263.56C173.483 262.265 168.33 261.015 165.923 260.78C163.515 260.545 160.947 259.983 160.214 259.531C159.482 259.079 153.118 256.992 146.074 254.891C126.017 248.912 104.651 239.698 93.1301 232.057C79.7885 223.209 60.7576 202.405 49.9801 184.885C42.4323 172.617 41.1265 172.767 48.3792 185.07C57.3738 200.325 74.2763 220.111 87.1784 230.485C93.0238 235.184 105.688 241.843 120.596 248.051C131.412 252.557 160.487 261.82 169.327 263.575C172.1 264.127 177.235 265.543 180.734 266.722C184.234 267.901 187.514 268.529 188.022 268.118C188.529 267.708 189.015 267.965 189.101 268.69C189.186 269.415 190.25 269.893 191.463 269.749C192.676 269.607 197.208 270.445 201.533 271.612C211.084 274.191 218.203 275.034 216.22 273.351ZM272.291 261.489C273.304 260.635 273.397 260.127 272.523 260.217C271.723 260.301 270.796 260.97 270.462 261.704C269.709 263.362 270.132 263.312 272.291 261.489ZM283.08 254.019C283.382 253.354 282.567 253.233 281.268 253.748C278.511 254.845 278.251 255.734 280.773 255.436C281.741 255.323 282.777 254.685 283.08 254.019ZM287.725 250.26C289.804 248.246 289.786 248.21 287.218 249.204C285.756 249.77 284.617 250.728 284.689 251.334C284.864 252.817 285.213 252.692 287.725 250.26ZM260.788 250.212C261.464 248.743 261.595 247.591 261.081 247.651C260.567 247.712 259.593 248.964 258.917 250.433C258.241 251.903 258.108 253.054 258.624 252.994C259.138 252.933 260.112 251.682 260.788 250.212ZM293.823 244.945C296.19 242.44 296.221 242.267 294.054 243.688C292.669 244.596 291.264 245.937 290.932 246.667C290.046 248.617 290.745 248.2 293.823 244.945ZM300.562 239.21C302.081 237.672 302.721 236.472 301.984 236.544C301.249 236.616 299.786 237.913 298.734 239.426C296.326 242.892 297.007 242.812 300.562 239.21ZM268.711 238.056C274.062 229.542 275.312 227.001 280.336 214.437C282.086 210.062 284.386 204.391 285.448 201.835C289.724 191.537 291.508 186.065 294.44 174.249C299.688 153.108 308.894 101.736 309.586 89.7302C310.384 75.9212 307.637 42.118 304.962 32.8033C303.523 27.7953 303.746 30.9863 305.836 45.3314C309.57 70.9498 309.151 93.6518 304.538 115.588C301.299 130.993 299.711 139.503 296.827 156.916C294.856 168.805 289.2 188.927 285.257 198.068C283.52 202.094 280.29 210.147 278.079 215.966C275.867 221.785 271.525 230.441 268.428 235.204C263.698 242.481 261.914 246.325 263.373 246.109C263.54 246.085 265.943 242.461 268.711 238.056ZM228.798 239.215C228.685 238.666 227.989 237.152 227.251 235.849C225.958 233.566 225.918 233.579 226.146 236.22C226.275 237.728 226.971 239.243 227.691 239.586C228.411 239.932 228.909 239.765 228.798 239.215ZM313.86 226.2C313.775 225.475 313.197 225.293 312.577 225.794C311.957 226.297 311.479 226.955 311.513 227.258C311.549 227.561 312.127 227.743 312.798 227.664C313.467 227.585 313.945 226.926 313.86 226.2ZM317.224 223.278C317.139 222.553 316.561 222.369 315.941 222.872C315.32 223.374 314.841 224.033 314.877 224.336C314.913 224.638 315.491 224.82 316.16 224.742C316.831 224.663 317.309 224.003 317.224 223.278ZM166.092 241.233C166.007 240.51 165.432 239.976 164.815 240.048C163.684 240.182 150.983 229.828 137.062 217.425C129.022 210.262 117.736 197.929 117.517 196.065C117.443 195.442 116.461 194.187 115.335 193.279C112.497 190.988 112.882 192.149 116.681 197.334C122.391 205.126 130.883 214.062 142.363 224.357C156.573 237.103 166.431 244.113 166.092 241.233ZM222.869 230.117C222.692 228.625 214.885 217.649 214.424 218.247C214.201 218.536 215.742 221.305 217.847 224.403C221.916 230.388 223.052 231.683 222.869 230.117ZM325.929 214.707C327.354 213.173 327.994 211.979 327.353 212.055C326.712 212.13 325.327 213.43 324.276 214.943C321.858 218.42 322.579 218.317 325.929 214.707ZM233.631 212.431C232.646 207.027 231.23 201.794 230.487 200.802C229.534 199.535 229.457 200.085 230.227 202.657C230.829 204.671 232.243 209.903 233.371 214.286L235.421 222.256L233.631 212.431ZM212.445 215.232C212.27 213.4 208.737 208.348 207.717 208.467C206.706 208.587 207.825 210.566 211.068 214.388C211.872 215.336 212.491 215.717 212.445 215.232ZM344.865 195.435C345.59 194.291 345.91 193.133 345.574 192.863C345.24 192.593 344.171 193.583 343.199 195.068C342.227 196.55 341.907 197.708 342.488 197.639C343.071 197.572 344.14 196.578 344.865 195.435ZM206.472 206.478C206.395 205.925 205.702 204.695 204.931 203.744C203.723 202.252 203.563 202.305 203.759 204.122C203.885 205.283 204.578 206.514 205.298 206.858C206.018 207.203 206.545 207.032 206.472 206.478ZM202.934 200.506C198.93 194.955 190.048 177.789 184.3 164.491C181.299 157.551 178.22 150.524 177.456 148.877C174.994 143.572 176.136 148.676 179.027 155.893C180.567 159.742 182.301 164.254 182.879 165.922C183.748 168.432 190.638 181.686 199.734 198.356C200.715 200.15 201.975 201.565 202.54 201.499C203.103 201.432 203.28 200.985 202.934 200.506ZM165.54 205.401C165.404 203.723 154.732 190.861 153.527 190.924C152.938 190.954 153.502 192.134 154.781 193.549C156.059 194.962 157.58 196.913 158.161 197.886C158.742 198.86 159.741 200.163 160.381 200.782C161.021 201.403 162.463 202.937 163.586 204.194C164.709 205.452 165.588 205.995 165.54 205.401ZM0.937922 214.414C0.708425 212.968 0.384806 212.708 0.112913 213.746C-0.133444 214.687 0.0371223 215.758 0.490386 216.123C0.943814 216.49 1.14499 215.72 0.937922 214.414ZM152.542 189.138C152.504 188.83 150.173 185.553 147.361 181.854C141.057 173.568 140.789 174.965 147.032 183.57C151.086 189.158 152.74 190.831 152.542 189.138ZM219.156 173.647C218.48 171.643 217.346 169.218 216.634 168.26C215.809 167.145 215.786 167.83 216.573 170.163C217.251 172.167 218.385 174.59 219.097 175.549C219.922 176.664 219.945 175.98 219.156 173.647ZM111.685 188.521C111.615 187.927 110.633 186.447 109.505 185.23C107.525 183.097 107.489 183.116 108.48 185.762C109.505 188.492 111.927 190.579 111.685 188.521ZM142.006 173.896C141.926 173.211 140.911 171.341 139.751 169.74C138.591 168.141 137.709 167.392 137.789 168.077C137.87 168.763 138.885 170.633 140.045 172.232C141.205 173.833 142.088 174.582 142.006 173.896ZM214.34 162.846C213.749 161.526 210.878 154.476 207.96 147.177C205.041 139.88 202.009 133.416 201.222 132.814C200.245 132.067 200.055 132.288 200.626 133.516C201.085 134.504 203.967 141.27 207.031 148.551C210.094 155.832 213.234 162.566 214.008 163.517C215.09 164.848 215.167 164.696 214.34 162.846ZM239.053 149.83C238.717 147.091 238.352 146.146 238.243 147.729C238.135 149.314 238.41 151.555 238.855 152.71C239.3 153.866 239.389 152.569 239.053 149.83ZM134.826 160.848C134.318 159.866 133.688 159.087 133.424 159.118C133.161 159.149 133.044 160.015 133.165 161.043C133.286 162.071 133.917 162.849 134.567 162.774C135.215 162.697 135.332 161.831 134.826 160.848ZM42.9677 172.198C42.5593 169.486 34.3894 149.692 34.5574 151.821C34.6382 152.854 36.3253 158.016 38.3048 163.291C41.7744 172.538 43.5221 175.877 42.9677 172.198ZM237.305 139.299C235.218 131.764 216.527 82.1039 212.126 72.3989C205.529 57.8583 206.265 62.4653 213.199 79.1135C216.617 87.3226 223.119 104.119 227.649 116.438C235.879 138.829 239.642 147.737 237.305 139.299ZM175.419 143.433C175.29 142.059 174.067 137.94 172.704 134.28C171.33 130.598 170.351 129.021 170.508 130.749C170.667 132.467 171.89 136.586 173.226 139.902C174.561 143.219 175.549 144.807 175.419 143.433ZM128.412 147.711C127.205 143.9 126.412 142.741 125.677 143.715C125.437 144.032 126.215 145.884 127.404 147.827L129.567 151.362L128.412 147.711ZM425.217 102.536C425.795 99.9845 425.919 97.6156 425.492 97.2705C425.066 96.9253 424.51 97.7449 424.256 99.0896C424.004 100.434 423.454 102.854 423.033 104.467C422.614 106.08 422.698 107.349 423.218 107.287C423.739 107.226 424.639 105.087 425.217 102.536ZM34.0041 148.728C33.9367 145.994 26.9416 123.667 26.1798 123.757C25.7337 123.809 27.0319 129.198 29.0647 135.732C32.8229 147.808 34.0622 151.069 34.0041 148.728ZM197.649 121.762C197.419 120.318 197.095 120.057 196.824 121.095C196.578 122.036 196.748 123.106 197.202 123.472C197.655 123.838 197.856 123.069 197.649 121.762ZM168.857 122.734C165.167 110.591 163.371 102.316 162.067 91.4291C161.293 84.9784 160.319 80.143 159.901 80.6835C157.786 83.4248 166.287 124.595 169.456 126.954C169.942 127.315 169.672 125.416 168.857 122.734ZM427.301 94.5957C427.694 94.087 427.893 92.7838 427.746 91.7011C427.525 90.085 427.293 90.1668 426.451 92.1593C425.41 94.6214 425.991 96.2909 427.301 94.5957ZM276.239 110.548C277.326 108.154 272.816 61.8536 271.51 62.0062C270.921 62.0745 271.394 68.6512 272.562 76.6215C273.733 84.5915 274.579 95.6329 274.44 101.156C274.194 111.05 274.733 113.86 276.239 110.548ZM195.568 115.797C195.301 113.744 194.946 113.086 194.779 114.335C194.612 115.583 194.831 117.263 195.265 118.067C195.699 118.871 195.833 117.85 195.568 115.797ZM193.893 110.942C193.489 108.597 190.991 104.862 191.152 106.844C191.235 107.876 191.936 109.499 192.707 110.45C193.478 111.401 194.013 111.622 193.893 110.942ZM363.592 68.0412C365.567 57.4799 367.186 46.5651 367.191 43.7859C367.196 41.0063 366.392 43.9432 365.405 50.3119C364.422 56.6804 362.538 67.0235 361.221 73.2972C359.905 79.5696 359.092 85.2739 359.413 85.9724C359.737 86.6708 361.616 78.6025 363.592 68.0412ZM159.399 71.4286C159.117 69.0304 158.75 68.0782 158.585 69.314C158.42 70.5499 158.651 72.5109 159.099 73.6744C159.546 74.838 159.682 73.8269 159.399 71.4286ZM270.325 56.9897C269.981 54.6555 269.079 51.3995 268.318 49.7525C267.426 47.8189 267.467 49.1567 268.436 53.5278C270.153 61.273 271.248 63.2811 270.325 56.9897ZM205.881 59.6356C202.929 52.5009 193.199 40.2545 185.676 34.2013C181.206 30.6042 177.343 27.9253 177.094 28.2479C176.845 28.5715 179.86 31.4727 183.794 34.695C192.533 41.8538 198.19 48.3063 201.775 55.2074C204.874 61.173 207.843 64.3749 205.881 59.6356ZM264.587 38.71C264.185 35.2965 243.515 9.93602 239.614 8.07023C238.881 7.71839 241.909 11.3768 246.344 16.1998C250.782 21.0226 255.864 27.1902 257.639 29.9052C261.127 35.24 264.713 39.7838 264.587 38.71ZM302.251 23.5444C302.022 22.0999 301.698 21.8387 301.426 22.8776C301.179 23.8185 301.351 24.8884 301.804 25.2543C302.256 25.6203 302.458 24.8512 302.251 23.5444ZM235.535 1.90194C235.458 1.25671 234.813 0.450859 234.101 0.110478C233.36 -0.244312 233.214 0.279277 233.761 1.33906C234.825 3.40132 235.746 3.69357 235.535 1.90194Z" fill="black"/>
</svg>
