<svg width="386" height="991" viewBox="0 0 386 991" fill="none" xmlns="http://www.w3.org/2000/svg">
<path fill-rule="evenodd" clip-rule="evenodd" d="M12.7646 984.937C13.8732 981.37 14.1385 976.602 13.5256 971.261C13.0082 966.751 12.9148 962.635 13.3173 962.113C13.7186 961.592 13.5372 958.049 12.9107 954.239C12.2459 950.187 12.2807 947.556 12.9966 947.898C13.7124 948.24 13.8048 941.902 13.2194 932.641C12.6704 923.928 12.7481 914.898 13.3945 912.572C14.0408 910.248 14.4876 904.755 14.3876 900.362C14.0173 884.249 14.1928 879.716 15.2546 877.998C15.8508 877.032 16.4443 873.314 16.5741 869.738C16.7037 866.159 17.278 862.847 17.8499 862.379C18.4218 861.908 19.0285 857.247 19.1975 852.018C19.3664 846.789 20.0079 842.265 20.623 841.96C21.2392 841.656 21.6445 840.581 21.5253 839.571C21.4001 838.51 20.7021 838.142 19.876 838.7C19.0873 839.232 19.2533 838.803 20.2447 837.748C21.3373 836.584 22.1691 832.118 22.3605 826.4C22.5342 821.212 23.1255 816.607 23.6747 816.164C24.2238 815.72 25.0142 812.626 25.4321 809.289C25.8499 805.95 26.6509 803.163 27.2111 803.098C27.7724 803.032 28.3167 800.836 28.4213 798.221C28.5245 795.604 29.3435 790.821 30.2406 787.59C31.1376 784.36 31.9565 779.576 32.0599 776.961C32.1645 774.344 32.7345 772.147 33.3276 772.076C33.9207 772.007 34.67 768.795 34.9922 764.938C35.3141 761.08 36.1832 757.141 36.925 756.182C37.6656 755.223 38.4172 752.533 38.5952 750.204C38.7732 747.874 39.4897 744.098 40.1891 741.814C40.8873 739.531 41.8502 735.485 42.3284 732.826C42.8063 730.165 43.6421 727.936 44.1853 727.872C44.7284 727.809 45.2425 725.319 45.3264 722.338C45.4116 719.359 46.0683 715.329 46.7852 713.381C47.5024 711.437 48.4036 706.658 48.7881 702.763C49.1726 698.87 49.8886 695.638 50.378 695.581C50.8673 695.522 51.3906 693.583 51.5398 691.27C51.6887 688.956 52.6219 684.814 53.6126 682.063C54.6037 679.315 55.5664 675.257 55.7522 673.044C55.9382 670.835 56.6544 667.814 57.3441 666.335C58.0357 664.854 58.783 661.713 59.0059 659.355C59.2304 656.997 60.1843 653.198 61.1299 650.917C62.0723 648.634 62.9589 644.607 63.0982 641.967C63.2375 639.327 63.8718 637.419 64.5093 637.724C65.1485 638.028 65.745 635.673 65.8368 632.49C65.9269 629.305 66.5415 625.955 67.202 625.044C68.5115 623.239 71.7483 612.433 73.7477 603.188C74.441 599.982 75.38 597.032 75.834 596.631C76.288 596.23 77.0025 593.471 77.4221 590.5C77.8417 587.529 78.6775 584.699 79.2822 584.21C79.887 583.722 80.2623 582.32 80.1181 581.097C79.9738 579.875 80.8343 577.729 82.0306 576.331C83.227 574.936 84.1383 573.219 84.0563 572.52C83.8629 570.879 89.8105 554.258 93.2095 546.943C102.332 527.313 105.173 520.779 105.049 519.726C104.906 518.52 109.612 506.698 110.749 505.407C111.09 505.019 111.885 502.975 112.516 500.864C113.145 498.753 117.183 489.41 121.485 480.106C125.791 470.801 129.247 462.632 129.167 461.954C129.086 461.275 129.988 459.593 131.168 458.213C132.348 456.832 133.526 454.475 133.783 452.975C134.041 451.474 135.77 447.131 137.625 443.323C139.482 439.513 140.918 435.711 140.819 434.87C140.719 434.03 142.314 429.96 144.359 425.83C148.378 417.714 160.807 384.055 160.56 381.955C160.366 380.315 164.831 364.641 168.915 352.624C170.658 347.493 172.001 342.579 171.896 341.702C171.747 340.43 172.114 340.375 173.705 341.43C175.826 342.836 177.234 351.982 175.541 353.35C175.021 353.769 174.859 356.321 175.177 359.019C175.95 365.572 178.189 365.161 184.217 357.362C189.493 350.537 190.446 345.389 188.119 336.311C185.771 327.15 190.032 323.929 197.076 329.539C203.072 334.315 206.222 339.103 206.909 344.481C207.837 351.753 211.97 363.047 216.541 370.809C218.74 374.542 220.808 377.566 221.138 377.527C221.466 377.489 223.001 376.787 224.547 375.969C226.994 374.671 227.328 373.44 227.143 366.406C227.028 361.968 227.485 355.759 228.161 352.611C228.836 349.462 229.114 344.485 228.778 341.553C228.108 335.704 224.357 327.909 222.329 328.148C221.623 328.23 220.933 327.338 220.795 326.166C220.656 324.993 218.911 322.996 216.914 321.73L213.284 319.424L218.17 317.977C221.528 316.984 224.56 316.972 227.861 317.945C234.719 319.959 239.241 319.136 241.142 315.524C242.357 313.215 242.353 312.438 241.132 312.223C240.252 312.068 235.698 310.518 231.009 308.777C226.322 307.039 221.715 305.748 220.772 305.908C215.871 306.752 213.725 306.217 212.843 303.933C212.121 302.061 212.771 300.748 215.476 298.63C220.112 295.001 230.175 285.73 233.908 281.65C235.511 279.899 237.23 278.419 237.732 278.359C238.972 278.212 252.452 269.98 262.305 263.354C266.742 260.372 272.366 255.603 274.807 252.761C277.247 249.918 282.537 243.796 286.566 239.155C295.262 229.136 299.905 223.487 316.374 202.893C326.949 189.673 338.497 178.303 340.764 178.882C341.114 178.972 341.285 178.065 341.144 176.866C340.972 175.414 340.085 174.886 338.482 175.285C337.16 175.612 332.65 176.62 328.459 177.522C321.277 179.07 320.905 179.024 321.984 176.707C322.613 175.357 325.245 172.159 327.833 169.601C330.421 167.045 333.639 163.718 334.985 162.211C336.332 160.704 345.012 154.464 354.273 148.345C363.534 142.226 371.586 136.523 372.166 135.672C372.747 134.821 375.143 132.303 377.49 130.076C381.279 126.483 385.666 119.139 385.405 116.828C385.353 116.363 384.343 115.204 383.162 114.251C379.833 111.57 372.086 113.069 366.812 117.415C364.303 119.484 360.381 121.649 358.097 122.224C355.65 122.842 352.324 125.151 350.005 127.843C347.84 130.356 345.518 133.046 344.843 133.82C344.169 134.594 341.79 136.468 339.556 137.985C336.022 140.382 333.584 142.664 327.708 149.068C326.981 149.862 325.811 150.579 325.112 150.66C324.413 150.742 323.906 151.371 323.986 152.055C324.068 152.74 323.591 153.364 322.928 153.443C320.184 153.765 297.476 178.142 290.242 188.528C287.793 192.043 286.731 192.855 286.554 191.349C286.417 190.187 287.09 188.816 288.05 188.303C289.011 187.791 289.727 186.731 289.642 185.947C289.558 185.161 294.165 178.203 299.882 170.48C305.598 162.758 314.574 150.412 319.83 143.046C330.399 128.23 353.439 101.148 359.267 96.689C362.52 94.2005 363.182 94.053 364.374 95.5505C366.855 98.67 366.616 103.909 363.687 110.715C360.82 117.369 360.786 119.006 363.584 115.385C368.928 108.471 370.16 97.8972 366.137 93.4831C364.675 91.8788 363.325 91.6729 360.458 92.619C356.799 93.8246 356.736 93.7775 358.134 90.8784C360.266 86.4521 362.217 75.8117 361.432 72.8828C360.519 69.4828 356.191 69.4326 350.781 72.7584C348.424 74.2086 345.585 75.9439 344.473 76.6151C342.97 77.5228 343.363 75.5055 345.997 68.7843C349.053 60.987 349.283 59.478 347.657 57.898C344.42 54.7562 336.289 56.5915 330.206 61.8372C327.294 64.3489 324.622 66.1707 324.268 65.8864C323.914 65.6023 325.032 63.0482 326.75 60.2098C329.708 55.324 332.351 44.6551 331.788 39.8783C331.109 34.1325 325.029 36.3137 318.078 44.7939C315.235 48.262 312.567 50.8232 312.147 50.4851C311.728 50.1468 311.965 49.402 312.675 48.8286C314.128 47.6513 315.267 41.0628 314.497 38.2786C312.962 32.7335 311.996 31.3019 309.166 30.3697C307.45 29.804 304.793 29.8169 303.263 30.3972C299.565 31.8005 286.472 43.8379 286.685 45.6398C286.777 46.4195 285.527 45.9099 283.906 44.5072C281.418 42.3519 280.197 42.1712 276.034 43.3387C273.327 44.0992 269.788 45.965 268.174 47.4857C264.273 51.1577 263.341 50.0756 265.604 44.5028C268.508 37.3509 266.94 31.2466 262.338 31.7905C259.27 32.1525 245.918 40.4109 244.944 42.548C244.004 44.6144 246.485 44.092 249.442 41.5991C250.812 40.4442 254.681 38.0078 258.039 36.1872L264.144 32.8757L264.472 35.6602C264.865 39.0064 260.13 53.9075 256.874 59.577C254.801 63.1817 251.641 70.5619 243.497 90.8208C242.178 94.1008 239.669 100.077 237.922 104.102C236.173 108.127 232.615 117.068 230.014 123.971C227.413 130.874 224.891 137.19 224.409 138.007C222.918 140.535 211.485 173.842 211.644 175.192C211.726 175.894 211.239 176.917 210.559 177.466C206.329 180.885 210.646 136.658 215.208 129.825C217.173 126.879 217.272 126.625 228.528 94.9895C233.533 80.9241 238.13 66.2324 238.744 62.3409C239.359 58.4493 240.264 54.6058 240.754 53.7995C241.242 52.992 241.717 51.2316 241.809 49.8876C241.901 48.5423 242.435 45.7359 242.997 43.651C243.561 41.5657 243.922 37.0612 243.8 33.6413C243.617 28.4586 242.832 26.3784 239.071 21.1406C234.79 15.176 234.313 14.8849 229.678 15.43C224.24 16.0697 218.098 20.1484 218.424 22.9041C218.591 24.3225 219.079 24.1767 220.766 22.207C221.938 20.8369 225.266 19.1585 228.164 18.4743C233.195 17.2878 233.575 17.4238 236.612 21.4905C241.731 28.3401 242.063 42.0425 237.505 58.0678C237.097 59.5047 235.295 66.2504 233.502 73.0583C231.709 79.8661 229.975 85.7514 229.65 86.1368C229.326 86.5222 227.051 92.5093 224.594 99.4406C218.448 116.797 214.469 126.167 213.558 125.435C210.887 123.281 211.273 115.493 214.768 101.145C220.373 78.1177 222.97 60.9957 222.501 50.1841C221.956 37.7021 220.643 34.1689 216.721 34.6304C213.999 34.9505 213.75 34.6035 213.997 30.8473C214.148 28.5733 214.75 25.9132 215.335 24.9378C216.552 22.9045 214.512 1.5133 212.981 0.267911C210.051 -2.11943 194.94 12.0662 193.782 18.2946C193.531 19.637 192.631 21.1077 191.78 21.5612C190.643 22.1683 189.793 20.4026 188.56 14.8836C186.775 6.88072 183.66 1.9054 180.656 2.25889C176.986 2.69044 170.917 7.05452 169.264 10.4498C168.333 12.3584 167.117 16.0807 166.56 18.7192C165.312 24.6473 163.11 26.0159 162.544 21.2154C161.536 12.674 155.289 3.98017 150.559 4.53658C146.618 5.00021 141.193 15.2907 140.037 24.4906C139.447 29.1962 138.617 34.3973 138.189 36.0484C137.33 39.383 134.954 39.0615 134.539 35.5561C134.072 31.5863 128.765 27.3014 124.884 27.758C121.961 28.102 121.098 29.005 120.032 32.8387C118.668 37.7438 117.193 37.9554 113.443 33.7833C112.362 32.5785 109.453 30.9991 106.976 30.2715C102.944 29.0869 102.296 29.1819 100.75 31.1894C99.3635 32.9901 99.3603 36.0093 100.732 46.5785C101.851 55.1951 102.974 59.982 103.988 60.4661C104.919 60.9109 105.377 62.5085 105.132 64.4689C104.903 66.3178 105.341 68.0235 106.144 68.4075C107.958 69.2737 107.114 61.1526 105.234 59.6377C103.671 58.3786 100.562 36.5634 101.617 34.2476C102.638 32.0038 108.881 32.8261 112.411 35.6707C116.528 38.9881 121.266 49.0223 122.229 56.4604C122.672 59.8904 123.786 64.8804 124.704 67.5501C125.961 71.2113 125.925 69.8189 124.557 61.8858C123.557 56.1009 122.154 49.0279 121.434 46.1681C119.63 38.973 121.139 31.98 124.579 31.6005C126.038 31.4403 128.057 31.7133 129.063 32.207C132.718 34.0018 139.882 52.5163 143.204 68.7434C144.267 73.9425 145.661 78.608 146.298 79.1112C147.837 80.3227 144.035 61.9277 141.155 54.224C139.905 50.885 139.192 47.2762 139.567 46.2043C139.944 45.1335 140.452 40.541 140.698 35.9983C141.611 19.1418 145.638 8.90361 151.631 8.1986C155.025 7.79913 158.486 12.5692 160.415 20.3067C162.153 27.2738 163.637 55.7227 163.272 75.007C162.064 138.917 161.705 146.394 158.783 168.634C157.742 176.56 157.052 184.417 157.249 186.093C157.447 187.768 157.154 190.793 156.6 192.812C155.613 196.399 155.546 196.329 153.77 189.755C151.69 182.054 151.17 172.401 152.129 159.249C153.709 137.57 150.802 89.975 147.517 83.7077C146.857 82.4495 147.332 90.3918 148.57 101.357C149.809 112.322 150.712 125.283 150.576 130.16C150.44 135.037 150.407 141.574 150.502 144.689C150.766 153.333 149.335 173.087 148.342 174.503C147.839 175.22 146.788 174.447 145.893 172.703C145.031 171.024 143.7 169.349 142.933 168.984C142.16 168.615 141.001 164.062 140.326 158.751C139.5 152.251 138.869 150.022 138.356 151.798C137.94 153.236 137.776 156.239 137.992 158.47C138.605 164.816 136.199 163.489 134.442 156.511C133.267 151.844 132.254 150.13 130.524 149.88C128.723 149.62 128.056 148.369 127.598 144.394C126.685 136.437 121.416 116.545 120.259 116.682C119.263 116.799 119.969 120.548 124.221 137.679C125.309 142.065 125.884 146.106 125.497 146.659C125.112 147.214 122.315 146.761 119.281 145.651C109.528 142.088 96.502 144.011 104.433 147.846C105.904 148.556 107.171 149.67 107.248 150.322C107.325 150.975 109.726 153.259 112.583 155.401C115.441 157.544 119.63 161.529 121.892 164.255C125.515 168.62 126.112 170.267 126.889 178.07C127.374 182.944 129.496 192.354 131.609 198.982C134.752 208.858 136.068 216.317 138.895 240.279C140.8 256.41 142.176 273.474 141.966 278.333L141.588 287.144L136.424 287.751C133.323 288.116 130.742 289.176 129.962 290.405C129.247 291.531 127.631 292.572 126.372 292.721C125.11 292.87 124.132 293.439 124.198 293.986C124.262 294.534 122.433 295.94 120.13 297.11C117.829 298.282 112.265 303.571 107.768 308.864C98.6113 319.64 91.2527 324.122 82.973 323.965C77.3778 323.859 75.5931 326.526 79.274 329.493C82.4895 332.086 90.012 330.564 106.093 324.072C122.819 317.319 127.574 316.018 134.603 316.274C143.204 316.583 144.036 317.504 140.786 323.119C139.225 325.818 136.902 328.096 135.552 328.255C130.522 328.847 116.161 341.226 116.56 344.625C116.641 345.302 115.775 347.41 114.64 349.31C113.502 351.21 112.732 354.116 112.927 355.772L113.281 358.78L117.447 354.761C119.738 352.55 121.902 350.213 122.254 349.568C122.71 348.734 147.896 339.643 151.462 339.026C152.001 338.931 147.573 356.424 145.307 363.345C142.935 370.586 141.552 375.748 141.706 376.772C141.758 377.113 140.405 380.366 138.699 384.001C136.992 387.635 135.644 391 135.699 391.476C135.755 391.954 131.04 403.899 125.22 418.022C119.401 432.143 114.692 444.154 114.758 444.707C114.823 445.262 112.752 450.053 110.152 455.357C104.321 467.256 104.341 467.211 95.4908 491.42C91.5116 502.304 87.0571 514.475 85.5903 518.466C84.1251 522.459 82.6108 526.045 82.2257 526.438C81.8422 526.83 81.0375 529.339 80.4409 532.013C79.8427 534.687 79.02 536.916 78.6136 536.964C78.2055 537.011 77.1681 539.405 76.306 542.286C75.4456 545.164 74.2312 547.58 73.6084 547.653C72.9856 547.725 72.6234 549.046 72.8021 550.588C72.9823 552.131 72.3235 555.189 71.3385 557.389C69.8193 560.788 68.7343 565.64 68.6622 569.378C68.6524 569.902 67.7707 571.789 66.7038 573.571C65.6368 575.353 64.8305 577.372 64.9125 578.061C65.0534 579.254 63.9177 583.118 59.0567 597.991C57.8734 601.612 56.9917 605.308 57.0966 606.203C57.2015 607.098 56.6079 608.711 55.776 609.788C54.9439 610.863 54.1579 614.007 54.0291 616.775C53.9001 619.54 53.0918 622.558 52.2329 623.478C51.3738 624.397 50.7479 625.805 50.8419 626.603C50.9362 627.402 50.2137 630.276 49.2357 632.987C48.2568 635.701 47.1303 640.785 46.7316 644.286C46.3329 647.786 45.5841 650.992 45.0667 651.41C44.5491 651.827 43.8627 655.323 43.5417 659.178C43.2195 663.032 42.4572 665.948 41.8487 665.657C41.239 665.366 40.6199 666.85 40.4725 668.958C40.3263 671.064 40.0854 674.507 39.9397 676.607C39.7929 678.708 39.2125 680.481 38.6499 680.546C38.0886 680.613 37.3591 683.66 37.0299 687.318C36.7005 690.977 35.9264 694.38 35.3097 694.877C34.6918 695.376 33.9902 699.458 33.7514 703.947C33.5112 708.434 32.6935 712.776 31.9339 713.595C31.1741 714.414 30.4235 717.341 30.2655 720.104C29.921 726.108 28.6032 730.209 27.9663 727.255C27.6043 725.571 26.9266 730.083 26.1827 739.132C26.0246 741.053 25.4365 742.405 24.8754 742.138C24.3142 741.869 23.7265 743.791 23.57 746.407C23.4133 749.023 22.6573 752.481 21.8882 754.089C21.1202 755.698 20.2381 759.778 19.9279 763.157C19.6186 766.537 18.7998 771.071 18.1099 773.236C17.4188 775.4 16.4507 779.634 15.9559 782.643C15.4621 785.653 14.6363 788.165 14.1213 788.225C13.6062 788.286 13.1796 791.603 13.1755 795.596C13.1703 799.589 12.6139 804.396 11.94 806.276C11.2647 808.156 10.6788 812.629 10.6354 816.214C10.5892 820.124 9.94773 822.805 9.03372 822.913C8.0671 823.026 7.41137 826.665 7.24175 832.853C7.09572 838.222 6.51999 842.981 5.96424 843.43C5.40849 843.88 4.87847 848.932 4.788 854.656C4.69639 860.382 4.09918 866.981 3.46083 869.321C2.82248 871.661 2.4539 878.245 2.6409 883.951C2.82773 889.658 2.54782 894.379 2.01944 894.441C0.437746 894.626 0.278273 899.598 1.34486 915.39C2.46144 931.924 2.3477 934.073 0.402993 933.145C-0.927785 932.51 1.11476 954.333 5.38702 986.379C5.68661 988.626 6.64635 989.773 8.44388 990.033C10.5712 990.341 11.3847 989.38 12.7646 984.937ZM222.805 358.481C222.342 357.888 222.482 356.987 223.113 356.475C223.745 355.966 224.365 356.422 224.489 357.489C224.748 359.677 224.053 360.085 222.805 358.481ZM201.588 315.437C201.091 314.801 201.268 314.212 201.979 314.128C202.689 314.045 203.336 314.537 203.418 315.221C203.499 315.907 203.323 316.495 203.027 316.531C202.73 316.565 202.083 316.072 201.588 315.437ZM144.599 285.29C144.871 284.25 145.195 284.512 145.425 285.956C145.631 287.262 145.431 288.031 144.977 287.666C144.523 287.299 144.351 286.231 144.599 285.29ZM169.133 276.328C169.052 275.642 169.569 275.014 170.278 274.93C170.988 274.847 171.298 275.379 170.963 276.112C170.629 276.845 170.114 277.474 169.818 277.51C169.521 277.544 169.215 277.012 169.133 276.328ZM227.587 247.404C227.053 242.875 231.209 230.64 235.894 222.95C238.718 218.314 240.941 213.751 240.829 212.812C240.718 211.871 241.152 211.039 241.793 210.964C242.434 210.889 243.091 208.778 243.251 206.272C243.412 203.768 244.264 201.335 245.144 200.865C246.024 200.396 246.65 199.23 246.539 198.276C246.426 197.324 246.787 196.489 247.34 196.424C247.894 196.358 250.898 191.601 254.016 185.854C257.136 180.106 261.438 172.924 263.577 169.894C265.717 166.864 268.707 162.252 270.219 159.643C271.734 157.035 273.45 154.225 274.033 153.397C274.616 152.569 277.634 147.468 280.738 142.057C283.842 136.648 288.308 129.356 290.66 125.855C293.013 122.355 297.22 115.535 300.008 110.7C302.797 105.866 305.557 101.239 306.141 100.416C306.724 99.5941 308.356 96.912 309.767 94.4569C311.178 92.0018 313.189 88.983 314.235 87.7476C315.281 86.5122 316.064 84.9059 315.979 84.1787C315.83 82.911 323.016 73.1257 328.772 66.7595C332.922 62.1706 338.817 59.1613 342.84 59.5793L346.406 59.9492L343.51 67.4637C341.917 71.5952 340.079 75.8431 339.425 76.9011C338.527 78.3551 338.618 78.9058 339.802 79.1631C340.69 79.3554 337.456 84.7014 332.33 91.515C327.358 98.1222 322.129 105.618 320.712 108.173C319.293 110.727 317.731 113.184 317.241 113.631C316.751 114.079 314.117 118.117 311.387 122.605C304.513 133.9 298.654 142.741 292.087 151.732C289.011 155.943 286.534 159.728 286.584 160.146C286.633 160.561 281.084 168.202 274.253 177.126C267.422 186.048 262.249 193.886 262.761 194.542C263.285 195.216 262.935 195.537 261.956 195.28C260.181 194.817 257.805 197.828 251.475 208.563C249.496 211.92 247.008 215.906 245.944 217.42C244.882 218.934 240.788 226.66 236.845 234.589C229.87 248.612 228.031 251.16 227.587 247.404ZM234.872 246.218C234.683 244.619 246.059 222.634 250.446 216.121C252.786 212.643 256.579 206.817 258.872 203.174C261.163 199.532 269.765 187.497 277.988 176.432C286.21 165.368 295.049 152.966 297.628 148.873C300.208 144.782 304.244 138.631 306.599 135.205C308.954 131.78 312.47 126.27 314.412 122.962C316.352 119.653 318.909 115.619 320.092 113.997C321.274 112.375 323.146 109.278 324.252 107.114C327.008 101.716 341.031 84.4097 342.822 84.1914C343.624 84.0947 344.879 82.9406 345.613 81.6272C347.463 78.3175 352.182 74.5655 355.658 73.64C358.203 72.9619 358.592 73.3178 358.742 76.4728C359.131 84.6564 353.468 96.8359 343.83 108.551C323.269 133.54 294.963 171.385 287.806 183.456C285.151 187.935 282.246 192.679 281.351 194.002C280.457 195.322 279.787 196.921 279.861 197.558C279.936 198.193 277.247 200.17 273.884 201.949C270.521 203.728 265.994 206.387 263.823 207.856C258.149 211.699 248.257 224.753 243.959 234.067C241.927 238.472 239.482 243.13 238.527 244.416C236.683 246.9 235.047 247.705 234.872 246.218ZM247.413 233.661C247.291 232.633 247.65 231.738 248.211 231.673C249.428 231.53 249.756 233.26 248.756 234.554C247.76 235.842 247.663 235.777 247.413 233.661ZM168.711 230.066C168.669 224.136 169.441 213.532 171.193 195.913C171.262 195.21 171.619 193.985 171.986 193.195C172.351 192.401 172.819 188.086 173.025 183.603C173.232 179.119 173.625 173.153 173.899 170.343C174.172 167.533 174.87 160.065 175.452 153.747C177.539 131.037 178.881 120.84 185.743 75.5201C187.134 66.3291 188.381 57.6602 188.514 56.2557C189.494 45.8986 190.099 34.5238 189.802 32.0183C189.609 30.3746 190.138 27.9475 190.979 26.6251C191.82 25.3041 193.896 21.6458 195.593 18.4981C199.101 11.9873 206.812 4.2317 210.172 3.83649C212.054 3.61523 212.545 4.5572 213.119 9.48703C213.724 14.6846 213.335 19.4409 210.575 40.6485C210.236 43.2527 209.177 48.4221 208.225 52.1361C207.273 55.849 206.822 59.155 207.225 59.48C208.43 60.4493 208.866 59.2425 211.195 48.4703C213.001 40.1145 213.928 38.0392 216.118 37.4534C218.496 36.8189 218.901 37.2977 219.507 41.4736C220.946 51.3493 220.399 66.5358 218.326 74.2123C217.939 75.6467 216.913 80.3123 216.044 84.5809C211.247 108.175 208.482 116.93 207.76 110.807C207.635 109.746 206.444 109.068 205.001 109.238C202.781 109.499 202.63 110.022 203.794 113.425C204.846 116.504 204.472 119.172 202.001 126.241C200.283 131.151 198.193 135.258 197.356 135.368C195.529 135.607 195.394 135.017 196.589 131.989C197.495 129.699 199.644 117.274 203.997 89.1545C206.935 70.1811 207.129 67.5195 205.429 69.5779C204.713 70.4449 203.857 73.1024 203.528 75.4831C203.2 77.8626 201.919 87.3159 200.68 96.4888C199.441 105.662 197.541 117.533 196.456 122.868C195.373 128.204 194.139 135.167 193.714 138.342C192.915 144.314 184.845 162.111 182.829 162.348C182.2 162.422 181.762 163.131 181.855 163.923C181.949 164.713 180.869 167.359 179.456 169.801C178.043 172.244 176.976 175.008 177.086 175.943C177.198 176.881 176.868 178.236 176.355 178.956C173.736 182.626 173.391 193.44 175.147 216.687C175.972 227.59 175.77 229.507 173.376 233.648C171.891 236.216 170.244 238.111 169.718 237.86C169.193 237.61 168.741 234.103 168.711 230.066ZM160.463 231.193C157.559 225.094 156.779 219.464 157.631 210.765C158.011 206.901 158.352 202.042 158.39 199.967C158.509 193.483 159.953 177.624 161.82 162.294C163.613 147.585 163.875 142.674 164.347 115.283C164.485 107.281 164.775 95.5995 164.99 89.3247C165.206 83.0495 165.17 68.2818 164.909 56.5074C164.208 24.7735 168.382 9.49161 178.853 5.45548C180.802 4.70482 182.281 4.85865 183.089 5.89358C184.124 7.22144 186.161 14.5841 187.79 22.8832C188.624 27.1334 187.544 51.4647 186.41 53.978C186.079 54.7113 185.794 56.7334 185.776 58.4715C185.758 60.2097 185.231 64.5329 184.609 68.0782C183.984 71.6237 182.953 78.5628 182.316 83.4985C181.678 88.4344 180.597 95.6635 179.91 99.5635C178.368 108.327 177.92 111.835 175.977 130.328C175.126 138.414 173.863 149.358 173.169 154.647C172.474 159.936 171.73 167.125 171.511 170.624C170.94 179.821 168.239 202.867 167.559 204.363C166.751 206.136 164.94 230.084 165.345 233.635C165.842 237.991 163.031 236.585 160.463 231.193ZM293.233 188.974C302.348 177.964 325.053 155.256 340.685 141.513C343.152 139.345 347.737 134.905 350.877 131.647C354.016 128.389 357.815 125.186 359.318 124.53C360.82 123.875 364.806 121.617 368.174 119.511C375.134 115.163 380.564 114.53 381.626 117.944C383.247 123.161 364.726 139.493 343.705 151.384C341.472 152.647 338.412 155.023 336.904 156.665C335.396 158.306 333.567 160.298 332.838 161.09C332.11 161.884 331.176 162.573 330.766 162.62C330.353 162.669 329.329 163.597 328.488 164.685C327.648 165.774 325.835 167.832 324.46 169.263C323.083 170.693 320.704 174 319.171 176.611C316.898 180.486 314.181 182.473 304.38 187.426C297.777 190.765 291.623 193.619 290.704 193.769C289.786 193.92 290.923 191.763 293.233 188.974ZM208.74 195.619C209.787 192.532 212.447 182.98 214.646 174.388C216.847 165.795 219.304 157.792 220.107 156.601C220.912 155.41 221.525 154.064 221.471 153.613C221.418 153.159 223.722 146.968 226.592 139.854C229.462 132.738 233.423 122.658 235.395 117.456C238.449 109.397 244.756 93.6231 251.18 77.9729C252.09 75.7549 253.073 72.9187 253.365 71.6685C253.655 70.4186 254.379 69.3394 254.973 69.2696C255.564 69.2 255.974 68.4413 255.881 67.5849C255.669 65.6275 262.354 56.2369 267.717 50.9585C270.514 48.2041 273.414 46.6897 277.042 46.0912C282.221 45.2356 282.319 45.2901 283.222 49.5195C284.497 55.4954 282.978 62.2278 277.224 76.1211C274.505 82.6909 271.186 90.7957 269.851 94.1332C265.509 104.984 264.821 106.45 262.403 109.998C261.091 111.923 259.809 114.614 259.555 115.98C259.299 117.345 258.296 119.568 257.326 120.919C255.435 123.555 246.275 143.887 245.253 147.718C244.913 148.988 244.077 150.093 243.394 150.173C242.07 150.328 230.606 164.941 225.915 172.454C224.367 174.933 221.431 181.874 219.392 187.88C216.857 195.342 214.687 199.494 212.534 201.009C207.897 204.269 206.483 202.261 208.74 195.619ZM244.235 189.244C244.086 187.973 244.353 186.696 244.828 186.408C245.859 185.786 249.848 173.894 249.635 172.081C249.453 170.547 251.808 165.959 260.478 150.947C261.766 148.716 263.838 145.041 265.083 142.777C266.327 140.514 270.796 132.524 275.016 125.022C279.235 117.521 284.912 106.649 287.633 100.863C295.838 83.4031 315.122 51.6602 319.886 47.7678C321.358 46.5658 322.477 44.8723 322.375 44.0032C322.272 43.1352 322.967 42.3323 323.918 42.2205C324.868 42.1086 325.784 41.3317 325.953 40.495C326.12 39.6584 326.899 39.2789 327.682 39.6527C330.781 41.1316 327.492 55.6137 322.5 62.4759C321.069 64.442 319.766 67.6295 319.604 69.5574C319.44 71.4857 318.735 73.1319 318.036 73.2142C317.336 73.2965 317.159 73.6808 317.641 74.0685C318.424 74.6998 315.29 80.624 307.771 92.729C299.99 105.256 293.78 115.785 290.674 121.722C289.27 124.408 285.613 129.986 282.549 134.121C279.484 138.255 277.026 142.054 277.085 142.563C277.145 143.074 276.595 144.312 275.864 145.317C275.131 146.319 271.901 151.428 268.685 156.666C265.472 161.907 260.756 169.143 258.21 172.752C255.664 176.357 251.985 182.278 250.033 185.904C246.467 192.537 244.741 193.53 244.235 189.244ZM244.481 175.594C245.094 175.012 245.574 172.832 245.549 170.752C245.525 168.672 246.103 165.144 246.836 162.91C248.363 158.259 255.191 149.212 256.425 150.205C257.141 150.782 253.708 158.553 251.861 160.54C250.61 161.884 245.97 172.565 246.231 173.496C246.775 175.436 246.375 176.337 244.897 176.491C243.95 176.591 243.792 176.249 244.481 175.594ZM204.139 153.529C204.057 152.844 204.541 152.218 205.213 152.14C205.883 152.061 206.498 152.557 206.58 153.241C206.66 153.927 206.176 154.552 205.506 154.631C204.834 154.709 204.22 154.213 204.139 153.529ZM250.154 145.019C249.954 143.324 252.832 136.003 257.038 127.516C259.657 122.227 261.736 117.343 261.656 116.663C261.576 115.983 261.915 115.189 262.41 114.899C263.292 114.383 272.774 95.5313 272.656 94.5301C272.622 94.2499 275.18 87.6111 278.34 79.7778C281.498 71.9444 284.06 65.1814 284.032 64.749C284.006 64.3167 284.778 61.5971 285.751 58.7049C286.726 55.8127 287.395 52.2114 287.241 50.703C287.067 49.0164 288.562 46.4087 291.123 43.9333C293.415 41.7183 295.422 39.4646 295.584 38.9252C295.748 38.3858 296.592 37.8597 297.461 37.7574C298.331 37.6553 299.626 36.651 300.34 35.5252C301.86 33.1307 308.061 32.083 309.531 33.9704C311.213 36.1286 311.77 44.738 310.37 46.9428C309.651 48.0768 309.482 50.0952 309.998 51.4285C310.515 52.7667 310.385 53.5913 309.71 53.2679C309.038 52.9469 308.078 54.5843 307.579 56.9056C306.817 60.4483 294.917 82.7654 292.574 85.0473C292.169 85.4422 289.701 90.2778 287.092 95.793C281.8 106.97 280.018 110.537 277.037 115.929C275.915 117.957 273.012 123.398 270.586 128.021C264.885 138.881 263.203 140.968 260.189 140.932C258.826 140.914 256.43 141.851 254.866 143.011C251.833 145.263 250.261 145.933 250.154 145.019ZM136.173 128.066C134.547 118.536 132.451 105.284 131.514 98.6197C130.576 91.9539 129.321 86.1356 128.726 85.6906C128.131 85.2442 129.467 97.1649 131.696 112.18C136.098 141.842 136.378 143.273 138.02 144.542C138.628 145.01 137.797 137.597 136.173 128.066ZM119.002 107.992C117.988 103.597 116.741 97.9589 116.231 95.4608C115.723 92.9639 114.505 89.1299 113.524 86.9411C112.543 84.7536 111.108 80.352 110.333 77.1605C109.559 73.9701 108.282 71.0525 107.497 70.6778C106.55 70.2248 106.435 70.9707 107.155 72.8985C108.74 77.1399 114.474 96.4162 117.095 106.322C119.994 117.267 121.436 118.531 119.002 107.992ZM128.834 81.5837C128.672 80.2139 127.99 79.1577 127.32 79.2366C126.648 79.3156 126.231 80.5009 126.394 81.8709C126.554 83.2406 127.236 84.2965 127.908 84.2176C128.578 84.1386 128.995 82.9536 128.834 81.5837Z" fill="black"/>
</svg>
