<?xml version="1.0" encoding="utf-8"?>
<!-- Generator: Adobe Illustrator 24.2.3, SVG Export Plug-In . SVG Version: 6.00 Build 0)  -->
<svg version="1.1" id="Layer_1" xmlns="http://www.w3.org/2000/svg" xmlns:xlink="http://www.w3.org/1999/xlink" x="0px" y="0px"
	 viewBox="0 0 992 494" style="enable-background:new 0 0 992 494;" xml:space="preserve">
<style type="text/css">
	.st0{filter:url(#filter-4);}
	.st1{fill-rule:evenodd;clip-rule:evenodd;}
	.st2{fill-rule:evenodd;clip-rule:evenodd;fill:#045257;}
	.st3{fill-rule:evenodd;clip-rule:evenodd;fill:url(#path-2_8_);fill-opacity:0.7;}
	.st4{filter:url(#Adobe_OpacityMaskFilter);}
	.st5{fill-rule:evenodd;clip-rule:evenodd;fill:#FFFFFF;}
	.st6{mask:url(#mask-3_1_);}
	.st7{filter:url(#filter-6);}
	.st8{fill-rule:evenodd;clip-rule:evenodd;fill:url(#path-5_3_);fill-opacity:0.7;}
	.st9{filter:url(#Adobe_OpacityMaskFilter_1_);}
	.st10{opacity:0.1642;mask:url(#mask-3_2_);fill:none;stroke:#CDDADB;stroke-width:2;enable-background:new    ;}
	.st11{filter:url(#Adobe_OpacityMaskFilter_2_);}
	.st12{opacity:8.419600e-02;mask:url(#mask-3_3_);fill-rule:evenodd;clip-rule:evenodd;fill:#CDDADB;enable-background:new    ;}
	.st13{filter:url(#Adobe_OpacityMaskFilter_3_);}
	.st14{opacity:0.1642;mask:url(#mask-3_4_);fill:none;stroke:#E6EDED;stroke-width:2;enable-background:new    ;}
</style>
<filter  filterUnits="objectBoundingBox" height="110.3%" id="filter-6" width="104.9%" x="-2.5%" y="-4.9%">
	<feOffset  dx="0" dy="1" in="SourceAlpha" result="shadowOffsetOuter1"></feOffset>
	<feGaussianBlur  in="shadowOffsetOuter1" result="shadowBlurOuter1" stdDeviation="8"></feGaussianBlur>
	
		<feColorMatrix  in="shadowBlurOuter1" type="matrix" values="0 0 0 0 0.117647059   0 0 0 0 0.349019608   0 0 0 0 0.360784314  0 0 0 0.2 0">
		</feColorMatrix>
</filter>
<filter  filterUnits="objectBoundingBox" height="110.3%" id="filter-4" width="104.9%" x="-2.5%" y="-4.9%">
	<feOffset  dx="0" dy="1" in="SourceAlpha" result="shadowOffsetOuter1"></feOffset>
	<feGaussianBlur  in="shadowOffsetOuter1" result="shadowBlurOuter1" stdDeviation="8"></feGaussianBlur>
	
		<feColorMatrix  in="shadowBlurOuter1" type="matrix" values="0 0 0 0 0.117647059   0 0 0 0 0.349019608   0 0 0 0 0.360784314  0 0 0 0.2 0">
		</feColorMatrix>
</filter>
<g id="_x30_1-Desktop">
	<g id="_x30_4-OCF-Website-Desktop" transform="translate(-768.000000, -3772.000000)">
		<g id="Initiatives" transform="translate(691.000000, 3620.000000)">
			<g id="Bgd-Donors-Desktop" transform="translate(93.000000, 167.000000)">
				<g id="Mask">
					<g class="st0">
						<path id="path-2_8_" class="st1" d="M10.4,26.3C165.6-1.2,321.7-15,478.6-15c157,0,314,13.8,470.9,41.4
							c15.3,2.7,26.5,16,26.5,31.5V430c0,17.7-14.3,32-32,32H16c-17.7,0-32-14.3-32-32V57.8C-16,42.3-4.9,29,10.4,26.3z"/>
					</g>
					<g>
						<path id="path-2_2_" class="st2" d="M10.4,26.3C165.6-1.2,321.7-15,478.6-15c157,0,314,13.8,470.9,41.4
							c15.3,2.7,26.5,16,26.5,31.5V430c0,17.7-14.3,32-32,32H16c-17.7,0-32-14.3-32-32V57.8C-16,42.3-4.9,29,10.4,26.3z"/>
					</g>
					<g>
						
							<linearGradient id="path-2_8_" gradientUnits="userSpaceOnUse" x1="174.2923" y1="619.7146" x2="174.2923" y2="620.7044" gradientTransform="matrix(992 0 0 -477 -172418 296061)">
							<stop  offset="0" style="stop-color:#045257"/>
							<stop  offset="1" style="stop-color:#4E908D"/>
						</linearGradient>
						<path id="path-2_3_" class="st3" d="M10.4,26.3C165.6-1.2,321.7-15,478.6-15c157,0,314,13.8,470.9,41.4
							c15.3,2.7,26.5,16,26.5,31.5V430c0,17.7-14.3,32-32,32H16c-17.7,0-32-14.3-32-32V57.8C-16,42.3-4.9,29,10.4,26.3z"/>
					</g>
				</g>
				<defs>
					<filter id="Adobe_OpacityMaskFilter" filterUnits="userSpaceOnUse" x="-40.8" y="-38.4" width="1041" height="526">
						<feColorMatrix  type="matrix" values="1 0 0 0 0  0 1 0 0 0  0 0 1 0 0  0 0 0 1 0"/>
					</filter>
				</defs>
				<mask maskUnits="userSpaceOnUse" x="-40.8" y="-38.4" width="1041" height="526" id="mask-3_1_">
					<g class="st4">
						<path id="path-2_4_" class="st5" d="M10.4,26.3C165.6-1.2,321.7-15,478.6-15c157,0,314,13.8,470.9,41.4
							c15.3,2.7,26.5,16,26.5,31.5V430c0,17.7-14.3,32-32,32H16c-17.7,0-32-14.3-32-32V57.8C-16,42.3-4.9,29,10.4,26.3z"/>
					</g>
				</mask>
				<g id="Bgd" class="st6">
					<g class="st7">
						<path id="path-5_3_" class="st1" d="M10.4,26.3C165.6-1.2,321.7-15,478.6-15c157,0,314,13.8,470.9,41.4
							c15.3,2.7,26.5,16,26.5,31.5V430c0,17.7-14.3,32-32,32H16c-17.7,0-32-14.3-32-32V57.8C-16,42.3-4.9,29,10.4,26.3z"/>
					</g>
					<g>
						<path id="path-5_1_" class="st2" d="M10.4,26.3C165.6-1.2,321.7-15,478.6-15c157,0,314,13.8,470.9,41.4
							c15.3,2.7,26.5,16,26.5,31.5V430c0,17.7-14.3,32-32,32H16c-17.7,0-32-14.3-32-32V57.8C-16,42.3-4.9,29,10.4,26.3z"/>
					</g>
					<g>
						
							<linearGradient id="path-5_3_" gradientUnits="userSpaceOnUse" x1="174.2923" y1="619.7146" x2="174.2923" y2="620.7044" gradientTransform="matrix(992 0 0 -477 -172418 296061)">
							<stop  offset="0" style="stop-color:#045257"/>
							<stop  offset="1" style="stop-color:#4E908D"/>
						</linearGradient>
						<path id="path-5_2_" class="st8" d="M10.4,26.3C165.6-1.2,321.7-15,478.6-15c157,0,314,13.8,470.9,41.4
							c15.3,2.7,26.5,16,26.5,31.5V430c0,17.7-14.3,32-32,32H16c-17.7,0-32-14.3-32-32V57.8C-16,42.3-4.9,29,10.4,26.3z"/>
					</g>
				</g>
				<defs>
					<filter id="Adobe_OpacityMaskFilter_1_" filterUnits="userSpaceOnUse" x="678.9" y="-300.6" width="499.1" height="522.6">
						<feColorMatrix  type="matrix" values="1 0 0 0 0  0 1 0 0 0  0 0 1 0 0  0 0 0 1 0"/>
					</filter>
				</defs>
				<mask maskUnits="userSpaceOnUse" x="678.9" y="-300.6" width="499.1" height="522.6" id="mask-3_2_">
					<g class="st9">
						<path id="path-2_5_" class="st5" d="M10.4,26.3C165.6-1.2,321.7-15,478.6-15c157,0,314,13.8,470.9,41.4
							c15.3,2.7,26.5,16,26.5,31.5V430c0,17.7-14.3,32-32,32H16c-17.7,0-32-14.3-32-32V57.8C-16,42.3-4.9,29,10.4,26.3z"/>
					</g>
				</mask>
				<path id="Polygon" class="st10" d="M681.4-1l34.1-174.8c5.4-27.8,25.2-50.7,52-60.2l167.9-59c27.5-9.7,58-3.6,79.7,15.7
					l135.1,120.2c21,18.7,30.6,47,25.4,74.6l-34.4,181.8c-5.3,28-25.1,51.1-52.1,60.6l-166.5,58.6c-28,9.9-59.2,3.4-81-16.9
					L705.4,72.9C685.2,54.1,676.1,26.2,681.4-1z"/>
				<defs>
					<filter id="Adobe_OpacityMaskFilter_2_" filterUnits="userSpaceOnUse" x="625" y="369.4" width="242.9" height="252.7">
						<feColorMatrix  type="matrix" values="1 0 0 0 0  0 1 0 0 0  0 0 1 0 0  0 0 0 1 0"/>
					</filter>
				</defs>
				<mask maskUnits="userSpaceOnUse" x="625" y="369.4" width="242.9" height="252.7" id="mask-3_3_">
					<g class="st11">
						<path id="path-2_6_" class="st5" d="M10.4,26.3C165.6-1.2,321.7-15,478.6-15c157,0,314,13.8,470.9,41.4
							c15.3,2.7,26.5,16,26.5,31.5V430c0,17.7-14.3,32-32,32H16c-17.7,0-32-14.3-32-32V57.8C-16,42.3-4.9,29,10.4,26.3z"/>
					</g>
				</mask>
				<path id="Polygon_1_" class="st12" d="M626,505.8l13.3-68.2c3.8-19.5,17.6-35.5,36.4-42.1l65-22.9c19.2-6.8,40.6-2.5,55.8,11
					l52.6,46.8c14.7,13.1,21.5,32.9,17.8,52.3L853.3,554c-3.7,19.6-17.6,35.8-36.4,42.4l-64,22.5c-19.6,6.9-41.5,2.4-56.7-11.8
					l-53.4-49.6C628.6,544.3,622.3,524.8,626,505.8z"/>
				<defs>
					<filter id="Adobe_OpacityMaskFilter_3_" filterUnits="userSpaceOnUse" x="-176.4" y="143.8" width="259.3" height="266.2">
						<feColorMatrix  type="matrix" values="1 0 0 0 0  0 1 0 0 0  0 0 1 0 0  0 0 0 1 0"/>
					</filter>
				</defs>
				<mask maskUnits="userSpaceOnUse" x="-176.4" y="143.8" width="259.3" height="266.2" id="mask-3_4_">
					<g class="st13">
						<path id="path-2_7_" class="st5" d="M10.4,26.3C165.6-1.2,321.7-15,478.6-15c157,0,314,13.8,470.9,41.4
							c15.3,2.7,26.5,16,26.5,31.5V430c0,17.7-14.3,32-32,32H16c-17.7,0-32-14.3-32-32V57.8C-16,42.3-4.9,29,10.4,26.3z"/>
					</g>
				</mask>
				<path id="Polygon_2_" class="st14" d="M-161.5,217.6l57.9-58.5c12.2-12.3,30.1-17.1,46.8-12.5l81.1,22.2
					c16.5,4.5,29.4,17.5,33.8,34.1l22.2,84.7c4.3,16.3-0.3,33.7-12.1,45.7l-60,61.3c-12.2,12.5-30.2,17.3-47,12.7l-80.3-22
					c-16.9-4.6-29.9-18.1-34-35.1l-21-87.7C-177.9,246.4-173.1,229.4-161.5,217.6z"/>
			</g>
		</g>
	</g>
</g>
</svg>
