<?xml version="1.0" encoding="UTF-8"?>
<svg width="2560px" height="702px" viewBox="0 0 2560 702" version="1.1" xmlns="http://www.w3.org/2000/svg" xmlns:xlink="http://www.w3.org/1999/xlink">
    <title>Bgd-White-Desktop</title>
    <defs>
        <rect id="path-1" x="0" y="0" width="2560" height="702"></rect>
    </defs>
    <g id="01-Desktop" stroke="none" stroke-width="1" fill="none" fill-rule="evenodd">
        <g id="04-OCF-Website-2560-max-width-backgrounds-Desktop" transform="translate(0.000000, -1391.000000)">
            <g id="Bgd-White-Desktop" transform="translate(0.000000, 1391.000000)">
                <mask id="mask-2" fill="white">
                    <use xlink:href="#path-1"></use>
                </mask>
                <g id="Mask"></g>
                <path d="M2000,-1303 L2000,505.288637 C2000,522.273887 1991.02345,537.994434 1976.39548,546.627004 L1736.31329,688.309436 L1736.31329,688.309436 C1704.00426,707.376292 1664.0031,706.468468 1632.55308,685.954605 L1341.584,496.164314 L1286.24288,528.824744 C1253.97085,547.869768 1214.02071,546.98739 1182.58291,526.535208 L581.824691,135.705295 C568.211758,126.84925 560,111.710439 560,95.4703197 L560,-1303 L560,-1303 L2000,-1303 Z" id="Shadow" fill-opacity="0.1" fill="#1E595C" mask="url(#mask-2)"></path>
                <path d="M2000,-1351 L2000,449.288637 C2000,466.273887 1991.02345,481.994434 1976.39548,490.627004 L1736.31329,632.309436 L1736.31329,632.309436 C1704.00426,651.376292 1664.0031,650.468468 1632.55308,629.954605 L1341.584,440.164314 L1286.24288,472.824744 C1253.97085,491.869768 1214.02071,490.98739 1182.58291,470.535208 L581.824691,79.7052947 C568.211758,70.8492504 560,55.7104386 560,39.4703197 L560,-1351 L560,-1351 L2000,-1351 Z" id="Bgd" fill="#FFFFFF" mask="url(#mask-2)"></path>
            </g>
        </g>
    </g>
</svg>