<?xml version="1.0" encoding="UTF-8"?>
<svg width="112px" height="129px" viewBox="0 0 112 129" version="1.1" xmlns="http://www.w3.org/2000/svg" xmlns:xlink="http://www.w3.org/1999/xlink">
    <title>community-features</title>
    <g id="01-Desktop" stroke="none" stroke-width="1" fill="none" fill-rule="evenodd">
        <g id="04-OCF-Website-Desktop" transform="translate(-1568.000000, -2672.000000)">
            <g id="Features" transform="translate(728.000000, 2201.000000)">
                <g id="community-features" transform="translate(840.000000, 471.000000)">
                    <path d="M65.6286488,4.57604199 L104.077968,27.0646519 C108.984399,29.9343726 112,35.1917055 112,40.8757498 L112,87.1010387 C112,92.8181012 108.949557,98.1007558 103.998029,100.958583 L63.9980293,124.045009 C59.0486138,126.901617 52.9513862,126.901617 48.0019707,124.045009 L8.00197073,100.958583 C3.05044296,98.1007558 1.49109929e-14,92.8181012 0,87.1010387 L0,41.1720742 C2.837243e-15,35.3298128 3.18430246,29.9520067 8.30691772,27.1429443 L49.857598,4.35801001 C54.7877358,1.65449555 60.7751322,1.73727024 65.6286488,4.57604199 Z" id="Polygon" fill="#CDDADB" transform="translate(56.000000, 64.330579) rotate(-360.000000) translate(-56.000000, -64.330579) "></path>
                    <g id="Icn-Social" transform="translate(34.000000, 42.000000)" stroke="#4E908D" stroke-linecap="square" stroke-width="3">
                        <path d="M6.5,13 C4.01375,13 2,10.98625 2,8.5 C2,6.01375 4.01375,4 6.5,4 C8.98625,4 11,6.01375 11,8.5 C11,10.98625 8.98625,13 6.5,13 Z" id="Path"></path>
                        <path d="M8.56039219,40 L6.4,40 C5.2954305,40 4.4,39.1045695 4.4,38 L4.4,34 C4.4,32.8954305 3.5045695,32 2.4,32 L2,32 C0.8954305,32 1.3527075e-16,31.1045695 0,30 L0,22 L0,22 C0,19.79 1.969,18 4.4,18 L6.6,18" id="Path"></path>
                        <path d="M37.5,13 C39.98625,13 42,10.98625 42,8.5 C42,6.01375 39.98625,4 37.5,4 C35.01375,4 33,6.01375 33,8.5 C33,10.98625 35.01375,13 37.5,13 Z" id="Path"></path>
                        <path d="M35.4396078,40 L37.6,40 C38.7045695,40 39.6,39.1045695 39.6,38 L39.6,34 C39.6,32.8954305 40.4954305,32 41.6,32 L42,32 C43.1045695,32 44,31.1045695 44,30 L44,22 L44,22 C44,19.79 42.031,18 39.6,18 L37.4,18" id="Path"></path>
                        <path d="M22.5,11 C19.4621667,11 17,8.53783333 17,5.5 C17,2.46216667 19.4621667,0 22.5,0 C25.5378333,0 28,2.46216667 28,5.5 C28,8.53783333 25.5378333,11 22.5,11 Z" id="Path"></path>
                        <path d="M26,44 L18,44 C16.8954305,44 16,43.1045695 16,42 L16,34 C16,32.8954305 15.1045695,32 14,32 C12.8954305,32 12,31.1045695 12,30 L12,22 L12,22 C12,19.79 13.79,18 16,18 L28,18 C30.21,18 32,19.79 32,22 L32,32 C32,33.1045695 31.1045695,34 30,34 C28.8954305,34 28,34.8954305 28,36 L28,42 C28,43.1045695 27.1045695,44 26,44 Z" id="Path"></path>
                    </g>
                </g>
            </g>
        </g>
    </g>
</svg>