<?xml version="1.0" encoding="UTF-8"?>
<svg width="112px" height="129px" viewBox="0 0 112 129" version="1.1" xmlns="http://www.w3.org/2000/svg" xmlns:xlink="http://www.w3.org/1999/xlink">
    <title>financial-admin</title>
    <g id="01-Desktop" stroke="none" stroke-width="1" fill="none" fill-rule="evenodd">
        <g id="04-OCF-Website-Desktop" transform="translate(-880.000000, -2305.000000)">
            <g id="Features" transform="translate(728.000000, 2201.000000)">
                <g id="financial-admin" transform="translate(152.000000, 104.000000)">
                    <path d="M65.6286488,4.57604199 L104.077968,27.0646519 C108.984399,29.9343726 112,35.1917055 112,40.8757498 L112,87.1010387 C112,92.8181012 108.949557,98.1007558 103.998029,100.958583 L63.9980293,124.045009 C59.0486138,126.901617 52.9513862,126.901617 48.0019707,124.045009 L8.00197073,100.958583 C3.05044296,98.1007558 1.49109929e-14,92.8181012 0,87.1010387 L0,41.1720742 C2.837243e-15,35.3298128 3.18430246,29.9520067 8.30691772,27.1429443 L49.857598,4.35801001 C54.7877358,1.65449555 60.7751322,1.73727024 65.6286488,4.57604199 Z" id="Polygon" fill="#CDDADB" transform="translate(56.000000, 64.330579) rotate(-360.000000) translate(-56.000000, -64.330579) "></path>
                    <g id="bank" transform="translate(34.000000, 40.000000)" fill="#4E908D" fill-rule="nonzero">
                        <path d="M2.56666667,18.0169231 L41.5066667,18.0169231 C42.3133333,18.0169231 43.0466667,17.4138462 43.4866667,16.5846154 C43.9266667,15.7553846 43.4866667,14.7753846 42.68,14.3984615 L23.32,0.376923077 C22.7333333,-7.00828284e-15 21.78,-7.00828284e-15 20.9733333,0.376923077 L1.61333333,14.3984615 C0.806666667,15.0015385 0.66,15.8307692 0.806666667,16.5846154 C0.953333333,17.3384615 1.76,18.0169231 2.56666667,18.0169231 Z M21.9266667,4.37230769 L35.2,14.0215385 L8.65333333,14.0215385 L21.9266667,4.37230769 Z" id="Shape"></path>
                        <path d="M2.34666667,22.0876923 L2.34666667,32.1138462 C2.34666667,33.32 3.15333333,34.1492308 4.32666667,34.1492308 C5.5,34.1492308 6.30666667,33.32 6.30666667,32.1138462 L6.30666667,22.0876923 C6.30666667,20.8815385 5.5,20.0523077 4.32666667,20.0523077 C3.15333333,20.0523077 2.34666667,20.8815385 2.34666667,22.0876923 Z" id="Path"></path>
                        <path d="M14.08,22.0876923 L14.08,32.1138462 C14.08,33.32 14.8866667,34.1492308 16.06,34.1492308 C17.2333333,34.1492308 18.04,33.32 18.04,32.1138462 L18.04,22.0876923 C18.04,20.8815385 17.2333333,20.0523077 16.06,20.0523077 C14.8866667,20.0523077 14.08,20.8815385 14.08,22.0876923 Z" id="Path"></path>
                        <path d="M39.5266667,20.0523077 C38.3533333,20.0523077 37.5466667,20.8815385 37.5466667,22.0876923 L37.5466667,32.1138462 C37.5466667,33.32 38.3533333,34.1492308 39.5266667,34.1492308 C40.7,34.1492308 41.5066667,33.32 41.5066667,32.1138462 L41.5066667,22.0876923 C41.5066667,20.8815385 40.7,20.0523077 39.5266667,20.0523077 Z" id="Path"></path>
                        <path d="M41.5066667,36.1092308 L2.34666667,36.1092308 C1.17333333,36.1092308 0.366666667,36.9384615 0.366666667,38.1446154 L0.366666667,46.2107692 C0.366666667,47.4169231 1.17333333,48.2461538 2.34666667,48.2461538 L41.4333333,48.2461538 C42.6066667,48.2461538 43.4133333,47.4169231 43.4133333,46.2107692 L43.4133333,38.1446154 C43.4133333,36.9384615 42.68,36.1092308 41.5066667,36.1092308 Z M39.5266667,44.1753846 L4.32666667,44.1753846 L4.32666667,40.18 L39.5266667,40.18 L39.5266667,44.1753846 Z" id="Shape"></path>
                        <path d="M25.8133333,22.0876923 L25.8133333,32.1138462 C25.8133333,33.32 26.62,34.1492308 27.7933333,34.1492308 C28.9666667,34.1492308 29.7733333,33.32 29.7733333,32.1138462 L29.7733333,22.0876923 C29.7733333,20.8815385 28.9666667,20.0523077 27.7933333,20.0523077 C26.62,20.0523077 25.8133333,20.8815385 25.8133333,22.0876923 Z" id="Path"></path>
                    </g>
                </g>
            </g>
        </g>
    </g>
</svg>