<?xml version="1.0" encoding="UTF-8"?>
<svg width="2560px" height="2169px" viewBox="0 0 2560 2169" version="1.1" xmlns="http://www.w3.org/2000/svg" xmlns:xlink="http://www.w3.org/1999/xlink">
    <title>Bgd-White-Desktop</title>
    <defs>
        <rect id="path-1" x="0" y="1057" width="2560" height="1112"></rect>
    </defs>
    <g id="01-Desktop" stroke="none" stroke-width="1" fill="none" fill-rule="evenodd">
        <g id="04-OCF-Website-Desktop" transform="translate(0.000000, -41.000000)">
            <g id="Bgd-White-Desktop" transform="translate(0.000000, 41.000000)">
                <mask id="mask-2" fill="white">
                    <use xlink:href="#path-1"></use>
                </mask>
                <g id="Mask"></g>
                <path d="M814.265781,73 L1143.245,287.58325 L1264.26578,216.164578 L2377,941.966353 L2377,1701.16132 C2377,1737.70243 2357.93288,1771.4667 2326.98345,1789.7312 L1736.31329,2138.30944 C1704.00426,2157.37629 1664.0031,2156.46847 1632.55308,2135.9546 L1341.584,1946.16431 L1286.24288,1978.82474 C1253.97085,1997.86977 1214.02071,1996.98739 1182.58291,1976.53521 L46.323481,1237.32997 C17.4723457,1218.56057 0,1186.01725 0,1151.04962 L0,334.828583 L814.265781,73 Z" id="Shadow" fill-opacity="0.1" fill="#1E595C" mask="url(#mask-2)"></path>
                <path d="M2203.203,4.54747351e-13 L2560,232.80083 L2560,1688.47007 C2560,1725.00938 2540.93705,1758.77263 2509.993,1777.03972 L1877.69335,2150.30297 C1845.37937,2169.37877 1805.36843,2168.47057 1773.91389,2147.94729 L1454.842,1939.76114 L1392.69336,1976.44967 C1360.37937,1995.52547 1320.36843,1994.61725 1288.9139,1974.09397 L46.2135169,1163.26356 C17.4253837,1144.48004 0,1111.97198 0,1077.04959 L0,4.54747351e-13 L2203.203,4.54747351e-13 Z" id="Bgd" fill="#FFFFFF" mask="url(#mask-2)"></path>
            </g>
        </g>
    </g>
</svg>