<?xml version="1.0" encoding="UTF-8"?>
<svg width="520" height="275px" viewBox="0 0 520 275" version="1.1" xmlns="http://www.w3.org/2000/svg" xmlns:xlink="http://www.w3.org/1999/xlink">
    <title>Bgd-White-Mobile</title>
    <defs>
        <rect id="path-1" x="0" y="0" width="520" height="275"></rect>
    </defs>
    <g id="02-Mobile" stroke="none" stroke-width="1" fill="none" fill-rule="evenodd">
        <g id="04-OCF-Website-Mobile" transform="translate(0.000000, -3244.000000)">
            <g id="Bgd-White-Mobile" transform="translate(0.000000, 3244.000000)">
                <mask id="mask-2" fill="white">
                    <use xlink:href="#path-1"></use>
                </mask>
                <g id="Mask"></g>
                <path d="M-289.734219,-3180 L39.245,-3180 L160.265781,-3180 L1273,-3180 L1273,-165.828331 C1273,-130.094945 1253.93288,-97.0770169 1222.98345,-79.2162377 L632.313288,261.656855 C600.004264,280.302248 560.003099,279.414491 528.553083,259.354076 L237.584,73.759 L182.242879,105.697489 C149.970848,124.321532 110.020707,123.458659 78.58291,103.458562 L-1057.67652,-619.406929 C-1086.52765,-637.761444 -1104,-669.585415 -1104,-703.780096 L-1104,-3180 L-289.734219,-3180 Z" id="Shadow" fill-opacity="0.1" fill="#1E595C" mask="url(#mask-2)"></path>
                <path d="M1083,-3220 L1439.797,-3220 L1440,-170.953419 C1440,-135.22397 1420.93705,-102.209057 1389.993,-84.346835 L757.69335,280.643351 C725.379366,299.296354 685.368427,298.408282 653.913892,278.33989 L334.842,74.768 L272.693357,110.643367 C240.379368,129.29636 200.368431,128.408278 168.913902,108.339878 L-1073.78648,-684.519174 C-1102.57462,-702.886378 -1120,-734.673918 -1120,-768.822283 L-1120.203,-3220 L1083,-3220 Z" id="Bgd" fill="#FFFFFF" mask="url(#mask-2)"></path>
            </g>
        </g>
    </g>
</svg>