<?xml version="1.0" encoding="UTF-8"?>
<svg width="2560px" height="2117px" viewBox="0 0 2560 2117" version="1.1" xmlns="http://www.w3.org/2000/svg" xmlns:xlink="http://www.w3.org/1999/xlink">
    <title>top-bgd</title>
    <g id="01-Desktop" stroke="none" stroke-width="1" fill="none" fill-rule="evenodd">
        <g id="04-OCF-Website-Desktop" transform="translate(0.000000, -40.000000)">
            <g id="top-bgd" transform="translate(0.000000, 40.000000)">
                <path d="M814.265781,72 L1143.245,281.84 L1264.26578,212 L2377,921.758308 L2377,1664.17167 C2377,1699.90505 2357.93288,1732.92298 2326.98345,1750.78376 L1736.31329,2091.65686 C1704.00426,2110.30225 1664.0031,2109.41449 1632.55308,2089.35408 L1341.584,1903.759 L1286.24288,1935.69749 C1253.97085,1954.32153 1214.02071,1953.45866 1182.58291,1933.45856 L46.323481,1210.59307 C17.4723457,1192.23856 0,1160.41458 0,1126.2199 L0,328.041 L814.265781,72 Z" id="Shadow" fill-opacity="0.1" fill="#1E595C"></path>
                <path d="M2203.203,0 L2560,227.641 L2560,1651.04658 C2560,1686.77603 2540.93705,1719.79094 2509.993,1737.65317 L1877.69335,2102.64335 C1845.37937,2121.29635 1805.36843,2120.40828 1773.91389,2100.33989 L1454.842,1896.768 L1392.69336,1932.64337 C1360.37937,1951.29636 1320.36843,1950.40828 1288.9139,1930.33988 L46.2135169,1137.48083 C17.4253837,1119.11362 0,1087.32608 0,1053.17772 L0,0 L2203.203,0 Z" id="Bgd" fill="#FFFFFF"></path>
            </g>
        </g>
    </g>
</svg>