<?xml version="1.0" encoding="UTF-8"?>
<svg width="768px" height="429px" viewBox="0 0 768 429" version="1.1" xmlns="http://www.w3.org/2000/svg" xmlns:xlink="http://www.w3.org/1999/xlink">
    <title>Bgd-White-Tablet</title>
    <defs>
        <rect id="path-1" x="0" y="0" width="768" height="429"></rect>
    </defs>
    <g id="03-Tablet" stroke="none" stroke-width="1" fill="none" fill-rule="evenodd">
        <g id="04-OCF-Website-Tablet" transform="translate(0.000000, -2020.000000)">
            <g id="Bgd-White-Tablet" transform="translate(0.000000, 2020.000000)">
                <mask id="mask-2" fill="white">
                    <use xlink:href="#path-1"></use>
                </mask>
                <g id="Mask"></g>
                <path d="M-77.7342187,-1500 L251.245,-1290.16 L372.265781,-1360 L1485,-650.241692 L1485,-11.8283313 C1485,23.905055 1465.93288,56.9229831 1434.98345,74.7837623 L844.313288,415.656855 C812.004264,434.302248 772.003099,433.414491 740.553083,413.354076 L449.584,227.759 L394.242879,259.697489 C361.970848,278.321532 322.020707,277.458659 290.58291,257.458562 L-845.676519,-465.406929 C-874.527654,-483.761444 -892,-515.585415 -892,-549.780096 L-892,-1243.959 L-77.7342187,-1500 Z" id="Shadow" fill-opacity="0.1" fill="#1E595C" mask="url(#mask-2)"></path>
                <path d="M1307.203,-2116 L1664,-1888.359 L1664,-24.9534191 C1664,10.7760295 1644.93705,43.7909435 1613.993,61.653165 L981.69335,426.643351 C949.379366,445.296354 909.368427,444.408282 877.913892,424.33989 L558.842,220.768 L496.693357,256.643367 C464.379368,275.29636 424.368431,274.408278 392.913902,254.339878 L-849.786483,-538.519174 C-878.574616,-556.886378 -896,-588.673918 -896,-622.822283 L-896,-2116 L1307.203,-2116 Z" id="Bgd" fill="#FFFFFF" mask="url(#mask-2)"></path>
            </g>
        </g>
    </g>
</svg>