<?xml version="1.0" encoding="UTF-8"?>
<svg width="224px" height="128px" viewBox="0 0 224 128" version="1.1" xmlns="http://www.w3.org/2000/svg" xmlns:xlink="http://www.w3.org/1999/xlink">
    <title>plant-03</title>
    <defs>
        <path d="M0,0 L192,0 C209.673112,8.897665e-15 224,14.326888 224,32 L224,80 C224,97.673112 209.673112,112 192,112 L0,112 L0,112 L0,0 Z" id="path-1"></path>
    </defs>
    <g id="01-Desktop" stroke="none" stroke-width="1" fill="none" fill-rule="evenodd">
        <g id="04-OCF-Website-Desktop" transform="translate(-1160.000000, -3291.000000)">
            <g id="Fees" transform="translate(680.000000, 3035.000000)">
                <g id="plant-03" transform="translate(480.000000, 256.000000)">
                    <mask id="mask-2" fill="white">
                        <use xlink:href="#path-1"></use>
                    </mask>
                    <g id="Bgd-Top"></g>
                    <path d="M118.458241,41.1373896 C120.676615,41.8221707 123.100129,41.736308 125.2374,40.8151396 C127.399718,39.8833708 129.009828,38.2201795 129.752864,36.2421585 C130.408835,34.4952245 130.406449,34.3924014 128.557805,33.765922 C123.72986,32.1324116 118.818429,34.0086695 117.134373,37.977432 C116.260143,40.0338955 116.194546,40.437768 118.458241,41.1373896" id="Fill-1" fill="#05464A" mask="url(#mask-2)"></path>
                    <path d="M109.989884,39.2936341 C107.711,39.3153677 105.511976,38.6040874 103.863865,37.2269696 C102.197236,35.8350335 101.291007,33.9412496 101.293317,31.9980712 C101.295636,30.2830953 101.33383,30.1912216 103.25161,30.125033 C108.259599,29.9501765 112.129882,32.9000142 112.304646,36.848608 C112.394922,38.8974905 112.31622,39.2719006 109.989884,39.2936341" id="Fill-3" fill="#05464A" mask="url(#mask-2)"></path>
                    <path d="M114.322499,34.8928784 C112.844965,33.6775059 111.915231,31.9869961 111.79083,30.1302902 C111.663155,28.2511529 112.36482,26.4311529 113.684125,25.0669176 C114.847383,23.8627608 114.933591,23.8189176 116.210338,24.8079373 C119.542974,27.3926431 120.028574,31.5567216 117.464169,34.425898 C116.135043,35.9145255 115.831679,36.1347608 114.322499,34.8928784" id="Fill-5" fill="#05464A" mask="url(#mask-2)"></path>
                    <path d="M116.997195,52.5665632 C119.493686,53.3137635 122.218696,53.2207346 124.623319,52.2162202 C127.056651,51.1988401 128.868731,49.3837865 129.702426,47.2263074 C130.440808,45.3211939 130.43966,45.2073819 128.358868,44.5254997 C122.927221,42.7431052 117.402559,44.7907311 115.50665,49.1195448 C114.52482,51.3631252 114.449029,51.8035281 116.997195,52.5665632" id="Fill-8" fill="#05464A" mask="url(#mask-2)"></path>
                    <path d="M96.2672615,42.0203881 C96.536835,44.3579619 97.8041805,46.5158009 99.9094212,48.0180164 C102.038002,49.5365713 104.754742,50.2095556 107.421303,49.9430171 C109.773944,49.7091576 109.894143,49.6580966 109.731933,47.6840772 C109.310651,42.5289559 104.753575,38.9648962 99.3142589,39.3182386 C96.4924896,39.5030795 95.9918531,39.6337957 96.2672615,42.0203881" id="Fill-10" fill="#05464A" mask="url(#mask-2)"></path>
                    <path d="M114.569648,63.9958609 C117.203394,64.8057983 120.080624,64.7046825 122.618348,63.6166768 C125.186936,62.5145148 127.099374,60.5488241 127.980718,58.2100162 C128.759182,56.1462432 128.758039,56.0238931 126.562108,55.2847368 C120.829367,53.3544366 114.997175,55.5719056 112.995573,60.2616553 C111.958765,62.6934897 111.879889,63.169745 114.569648,63.9958609" id="Fill-12" fill="#05464A" mask="url(#mask-2)"></path>
                    <path d="M93.6650409,52.0116697 C93.7592306,54.6028676 94.9055875,57.0612108 96.9777598,58.852092 C99.0729052,60.6631672 101.848054,61.5793331 104.646176,61.4602953 C107.114634,61.3540116 107.243283,61.3061839 107.234094,59.1209899 C107.207675,53.4188666 102.748599,49.1983388 97.0547197,49.2355381 C94.1026782,49.2536063 93.568554,49.3662671 93.6650409,52.0116697" id="Fill-14" fill="#05464A" mask="url(#mask-2)"></path>
                    <path d="M109.780847,127.105561 C109.601778,127.743186 108.895702,128.126807 108.203227,127.961651 C107.511884,127.796496 107.097079,127.145282 107.276148,126.507657 C111.947808,109.961806 110.76006,95.4354504 109.634645,81.6596108 C108.436696,67.020364 107.309015,53.214211 113.216025,38.5404697 C113.465361,37.9237502 114.209971,37.6101641 114.87978,37.8401273 C115.548455,38.0690451 115.889593,38.7568441 115.640256,39.3725182 C109.936116,53.5403406 111.04453,67.1018964 112.219812,81.481912 C113.361093,95.4417222 114.564709,110.162501 109.780847,127.105561" id="Fill-16" fill="#05464A" mask="url(#mask-2)"></path>
                    <path d="M115.536709,75.4256493 C118.308635,76.2978103 121.33788,76.1886602 124.009865,75.0160767 C126.712866,73.8299793 128.725471,71.7135076 129.653658,69.19474 C130.472714,66.9722368 130.471566,66.8402172 128.159138,66.0439415 C122.124771,63.9659323 115.987017,66.3526803 113.880216,71.4037294 C112.787757,74.0222913 112.705048,74.5358164 115.536709,75.4256493" id="Fill-18" fill="#05464A" mask="url(#mask-2)"></path>
                    <path d="M90.7712106,68.0056777 C91.8063112,70.4756478 93.8352459,72.4981297 96.5359071,73.5956645 C99.2686644,74.7066343 102.348748,74.7479727 105.073481,73.7858212 C107.478399,72.9352834 107.58959,72.8495062 106.78604,70.745381 C104.686035,65.2546064 98.7379318,62.5355723 93.1165216,64.2986556 C90.201504,65.213268 89.7143304,65.4830011 90.7712106,68.0056777" id="Fill-20" fill="#05464A" mask="url(#mask-2)"></path>
                    <path d="M117.351603,87.6202908 C120.262677,88.5536599 123.443875,88.4380591 126.248291,87.181436 C129.086328,85.9098276 131.200944,83.6427682 132.17478,80.945417 C133.035002,78.5638272 133.033842,78.4225374 130.607367,77.5683761 C124.270476,75.3409207 117.823449,77.9001932 115.612609,83.3109512 C114.466033,86.1164105 114.379084,86.6655141 117.351603,87.6202908" id="Fill-22" fill="#05464A" mask="url(#mask-2)"></path>
                    <path d="M89.4281878,80.5788081 C90.9318852,82.9949824 93.3857718,84.8050265 96.37241,85.5582553 C99.3959487,86.3219166 102.588999,85.9244371 105.240073,84.534824 C107.578646,83.306915 107.678969,83.203633 106.477395,81.1338188 C103.342001,75.7318541 96.7114338,73.7601057 91.2051799,76.3943198 C88.3488468,77.7609814 87.8922025,78.1115145 89.4281878,80.5788081" id="Fill-24" fill="#05464A" mask="url(#mask-2)"></path>
                </g>
            </g>
        </g>
    </g>
</svg>