<?xml version="1.0" encoding="UTF-8"?>
<svg width="224px" height="112px" viewBox="0 0 224 112" version="1.1" xmlns="http://www.w3.org/2000/svg" xmlns:xlink="http://www.w3.org/1999/xlink">
    <title>plant-01</title>
    <defs>
        <path d="M0,0 L192,0 C209.673112,8.897665e-15 224,14.326888 224,32 L224,80 C224,97.673112 209.673112,112 192,112 L0,112 L0,112 L0,0 Z" id="path-1"></path>
    </defs>
    <g id="01-Desktop" stroke="none" stroke-width="1" fill="none" fill-rule="evenodd">
        <g id="04-OCF-Website-Desktop" transform="translate(-1160.000000, -3291.000000)">
            <g id="Fees" transform="translate(680.000000, 3035.000000)">
                <g id="plant-01" transform="translate(480.000000, 256.000000)">
                    <mask id="mask-2" fill="white">
                        <use xlink:href="#path-1"></use>
                    </mask>
                    <g id="Bgd-Top"></g>
                    <path d="M37.3534209,69.7320148 C38.8236425,70.1390525 40.4298201,70.0880153 41.8462917,69.5404676 C43.2793625,68.986619 44.3464589,67.9980088 44.8389041,66.822262 C45.273647,65.7838747 45.2720661,65.7227561 44.0468815,65.3503732 C40.8471733,64.3794055 37.5921343,65.4946637 36.4760306,67.8537183 C35.8966368,69.0760917 35.8531625,69.3161558 37.3534209,69.7320148" id="Fill-1" fill="#05464A" mask="url(#mask-2)"></path>
                    <path d="M31.4079174,67.9996839 C29.7555966,68.0138943 28.1611784,67.5488264 26.9662039,66.6484032 C25.7578027,65.7382911 25.1007345,64.5000478 25.1024096,63.2295081 C25.1040912,62.1081777 25.1317837,62.0481064 26.5222842,62.0048292 C30.153362,61.8905001 32.9595381,63.81924 33.0862524,66.4010129 C33.1517075,67.7406669 33.0946441,67.9854734 31.4079174,67.9996839" id="Fill-3" fill="#05464A" mask="url(#mask-2)"></path>
                    <path d="M34.2051323,65.425049 C33.1128298,64.5965994 32.4255021,63.4442761 32.3335357,62.1786664 C32.2391491,60.8977666 32.7578718,59.6571772 33.7331996,58.7272564 C34.5931659,57.9064519 34.656897,57.8765666 35.6007626,58.5507244 C38.0644937,60.3125698 38.4234853,63.1509827 36.5276869,65.1067353 C35.5450987,66.1214471 35.3208298,66.2715688 34.2051323,65.425049" id="Fill-5" fill="#05464A" mask="url(#mask-2)"></path>
                    <path d="M36.4927369,76.6781375 C38.1268534,77.1666915 39.9105509,77.1058649 41.4845343,76.4490671 C43.0773092,75.783857 44.2634343,74.5970912 44.809142,73.1864317 C45.2924616,71.9407806 45.2917099,71.8663651 43.9296957,71.420519 C40.3743273,70.2551072 36.7580741,71.5939396 35.5170777,74.4243178 C34.8744054,75.8912742 34.8247956,76.1792299 36.4927369,76.6781375" id="Fill-8" fill="#05464A" mask="url(#mask-2)"></path>
                    <path d="M22.1464039,70.7825615 C22.3250631,72.3109751 23.1649932,73.7218698 24.5602362,74.7040876 C25.9709476,75.6969889 27.7714607,76.1370172 29.538717,75.9627419 C31.0979243,75.8098338 31.1775862,75.7764477 31.0700813,74.4857428 C30.790878,71.1150866 27.7706873,68.7847399 24.1657939,69.0157714 C22.2956732,69.1366289 21.9638776,69.2220972 22.1464039,70.7825615" id="Fill-10" fill="#05464A" mask="url(#mask-2)"></path>
                    <path d="M34.632226,85.6243044 C36.4287728,86.1946154 38.3914066,86.1234155 40.1224543,85.3573049 C41.8745552,84.5812264 43.179079,83.197101 43.7802672,81.5502481 C44.3112778,80.0970588 44.310498,80.010907 42.8125959,79.490436 C38.9021436,78.1312305 34.923853,79.6926436 33.5585086,82.9948934 C32.8512743,84.7072502 32.7974714,85.0426015 34.632226,85.6243044" id="Fill-12" fill="#05464A" mask="url(#mask-2)"></path>
                    <path d="M20.1092887,76.8153225 C20.1717126,78.5095673 20.9314578,80.1169455 22.3047849,81.2879063 C23.6933373,82.4720708 25.5325602,83.0711024 27.3870085,82.99327 C29.022973,82.9237768 29.1082349,82.8925048 29.1021448,81.4637242 C29.0846356,77.7354128 26.1293942,74.9758369 22.3557898,75.0001595 C20.3993317,75.0119734 20.0453422,75.0856362 20.1092887,76.8153225" id="Fill-14" fill="#05464A" mask="url(#mask-2)"></path>
                    <path d="M31.9025052,127.39535 C31.7759158,127.826391 31.2767692,128.085723 30.7872369,127.974076 C30.2985058,127.862429 30.0052672,127.422202 30.1318565,126.991161 C33.4343967,115.805993 32.5947407,105.986025 31.7991506,96.6734136 C30.9522838,86.77713 30.1550913,77.4440266 34.3309378,67.5244244 C34.5072015,67.1075156 35.0335889,66.8955281 35.5070972,67.0509856 C35.9798043,67.2057365 36.220965,67.6706958 36.0447014,68.0868979 C32.0122694,77.6644936 32.7958415,86.8322468 33.6266843,96.5532873 C34.4334912,105.990265 35.284364,115.941665 31.9025052,127.39535" id="Fill-16" fill="#05464A" mask="url(#mask-2)"></path>
                    <path d="M35.7715004,92.624463 C37.73106,93.1947221 39.8725264,93.1233547 41.7614347,92.3566655 C43.6722692,91.5811403 45.095041,90.1972935 45.7512052,88.5504069 C46.3302213,87.0972318 46.3294093,87.0109113 44.6946834,86.4902695 C40.4288042,85.1315711 36.0898374,86.6921371 34.6004747,89.9947461 C33.8281825,91.7068828 33.7697124,92.0426492 35.7715004,92.624463" id="Fill-18" fill="#05464A" mask="url(#mask-2)"></path>
                    <path d="M18.4640097,86.7729431 C19.1957541,88.3879236 20.6300704,89.7103155 22.5392507,90.4279345 C24.4711207,91.1543378 26.6485262,91.1813668 28.5747238,90.5522677 C30.2748343,89.9961468 30.353438,89.9400617 29.785384,88.5642876 C28.3008261,84.9741657 24.0959295,83.1963357 20.1219821,84.349121 C18.0612667,84.9471367 17.7168687,85.1235007 18.4640097,86.7729431" id="Fill-20" fill="#05464A" mask="url(#mask-2)"></path>
                    <path d="M35.9101267,101.571075 C38.0333857,102.22204 40.3536654,102.141416 42.3991307,101.265002 C44.4691179,100.378136 46.0114613,98.7970075 46.721751,96.915778 C47.3491736,95.2547718 47.3483281,95.1562312 45.5785228,94.5605085 C40.9565661,93.0070011 36.254279,94.7919296 34.6417522,98.5655865 C33.8054707,100.522214 33.7420519,100.905179 35.9101267,101.571075" id="Fill-22" fill="#05464A" mask="url(#mask-2)"></path>
                    <path d="M16.7053104,96.4938361 C17.752214,98.0736423 19.4606579,99.2571327 21.5400141,99.7496285 C23.6450611,100.248945 25.8681256,99.989055 27.7138552,99.0804618 C29.3420152,98.2775983 29.4118623,98.2100677 28.5753028,96.8567277 C26.3923803,93.3246738 21.7760491,92.0354537 17.9424871,93.7578245 C15.9538519,94.6514109 15.6359272,94.8806056 16.7053104,96.4938361" id="Fill-24" fill="#05464A" mask="url(#mask-2)"></path>
                </g>
            </g>
        </g>
    </g>
</svg>