<?xml version="1.0" encoding="UTF-8"?>
<svg width="224px" height="112px" viewBox="0 0 224 112" version="1.1" xmlns="http://www.w3.org/2000/svg" xmlns:xlink="http://www.w3.org/1999/xlink">
    <title>plant-02</title>
    <defs>
        <path d="M0,0 L192,0 C209.673112,8.897665e-15 224,14.326888 224,32 L224,80 C224,97.673112 209.673112,112 192,112 L0,112 L0,112 L0,0 Z" id="path-1"></path>
    </defs>
    <g id="01-Desktop" stroke="none" stroke-width="1" fill="none" fill-rule="evenodd">
        <g id="04-OCF-Website-Desktop" transform="translate(-1160.000000, -3291.000000)">
            <g id="Fees" transform="translate(680.000000, 3035.000000)">
                <g id="plant-02" transform="translate(480.000000, 256.000000)">
                    <mask id="mask-2" fill="white">
                        <use xlink:href="#path-1"></use>
                    </mask>
                    <g id="Bgd-Top"></g>
                    <path d="M74.668015,51.6248207 C76.6283105,52.1946735 78.7698806,52.1232214 80.6585094,51.3566546 C82.5692705,50.5812666 83.9920656,49.1972123 84.6486592,47.5511668 C85.2283165,46.0974246 85.2262087,46.0118585 83.5926291,45.4905225 C79.3263516,44.1311677 74.9862995,45.6925292 73.4981612,48.9952057 C72.7256362,50.7065284 72.6676705,51.0426181 74.668015,51.6248207" id="Fill-1" fill="#05464A" mask="url(#mask-2)"></path>
                    <path d="M66.8818847,49.9995785 C64.8164837,50.0185257 62.8234609,49.3984351 61.3297428,48.1978709 C59.8192413,46.9843882 58.9979061,45.3333971 59,43.6393441 C59.0021019,42.1442369 59.0367176,42.0641419 60.7748433,42.006439 C65.3136905,41.8540001 68.8214106,44.4256534 68.9798034,47.8680172 C69.0616223,49.6542225 68.990293,49.9806313 66.8818847,49.9995785" id="Fill-3" fill="#05464A" mask="url(#mask-2)"></path>
                    <path d="M70.4349614,45.3039458 C69.0221488,44.2551652 68.1331411,42.7963748 68.0141894,41.194169 C67.8921073,39.5726064 68.5630368,38.0020752 69.8245512,36.8248366 C70.9368543,35.7857344 71.0192857,35.7479009 72.2401061,36.6013548 C75.4267604,38.8317732 75.8910896,42.4250784 73.4390144,44.9009747 C72.168109,46.1855549 71.8780338,46.3756024 70.4349614,45.3039458" id="Fill-5" fill="#05464A" mask="url(#mask-2)"></path>
                    <path d="M72.9464582,61.5708499 C75.2342213,62.2222554 77.7313978,62.1411532 79.9349745,61.2654227 C82.1648594,60.378476 83.8254345,58.7961216 84.5894252,56.9152423 C85.2660727,55.2543741 85.2650204,55.1551534 83.3582004,54.560692 C78.3806847,53.0068097 73.3179303,54.7919194 71.5805353,58.565757 C70.6807941,60.5216989 70.6113404,60.9056399 72.9464582,61.5708499" id="Fill-8" fill="#05464A" mask="url(#mask-2)"></path>
                    <path d="M55.058659,51.5465164 C55.2968712,53.7299644 56.4167781,55.7455284 58.2771021,57.1486966 C60.1580506,58.567127 62.5587348,59.1957388 64.9150765,58.9467742 C66.9940195,58.728334 67.1002354,58.6806396 66.9568955,56.8367754 C66.5846245,52.0215523 62.5577036,48.6924855 57.751179,49.0225305 C55.2576848,49.1951841 54.8152907,49.3172817 55.058659,51.5465164" id="Fill-10" fill="#05464A" mask="url(#mask-2)"></path>
                    <path d="M71.0861132,71.5169629 C73.5359498,72.2502198 76.2122686,72.1586771 78.5727881,71.1736778 C80.9620167,70.1758625 82.7409128,68.3962727 83.5607148,66.2788904 C84.2848202,64.4105042 84.2837569,64.2997376 82.2411631,63.6305605 C76.9087282,61.8830107 71.4837864,63.8905418 69.6219531,68.1362915 C68.6575427,70.3378931 68.5841752,70.7690591 71.0861132,71.5169629" id="Fill-12" fill="#05464A" mask="url(#mask-2)"></path>
                    <path d="M52.009172,61.2691531 C52.092404,63.3869591 53.1053976,65.3961819 54.9365003,66.8598829 C56.7879036,68.3400886 59.2402008,69.088878 61.7127985,68.9915875 C63.8940844,68.904721 64.0077671,68.8656311 63.9996469,67.0796552 C63.9763013,62.419266 60.0359794,58.9697961 55.0045069,59.0001994 C52.395896,59.0149667 51.92391,59.1070452 52.009172,61.2691531" id="Fill-14" fill="#05464A" mask="url(#mask-2)"></path>
                    <path d="M67.4001274,127.207016 C67.2313416,127.772316 66.5658127,128.112423 65.913103,127.966001 C65.2614616,127.819579 64.8704767,127.242232 65.0392625,126.676932 C69.4426494,112.00786 68.323108,99.1292129 67.2623213,86.9159522 C66.1331655,73.9372197 65.0702422,61.6970841 70.6380375,48.6877697 C70.8730558,48.1410041 71.5749056,47.8629877 72.20625,48.0668664 C72.8365262,48.2698184 73.1580738,48.879601 72.9230556,49.4254399 C67.5464796,61.9862211 68.5912425,74.0095039 69.6990329,86.7584096 C70.7747754,99.1347732 71.9092725,112.18579 67.4001274,127.207016" id="Fill-16" fill="#05464A" mask="url(#mask-2)"></path>
                    <path d="M72.2254543,81.4635186 C74.8382004,82.2781744 77.6934891,82.1762211 80.2120334,81.0809507 C82.7598128,79.9730576 84.6568418,77.9961335 85.5317274,75.6434385 C86.3037489,73.567474 86.3026662,73.444159 84.1230317,72.700385 C78.4351928,70.7593873 72.6499037,72.9887673 70.6640868,77.7067802 C69.6343638,80.1526897 69.5564037,80.632356 72.2254543,81.4635186" id="Fill-18" fill="#05464A" mask="url(#mask-2)"></path>
                    <path d="M49.4821335,73.9613473 C50.4577927,76.2684623 52.3702143,78.1575936 54.915788,79.1827635 C57.4916147,80.2204826 60.3948221,80.2590954 62.9630855,79.3603824 C65.2298995,78.565924 65.3347045,78.4858025 64.5772991,76.5204108 C62.5978886,71.3916653 56.9913598,68.8519082 51.6927633,70.4987442 C48.9451427,71.3530525 48.4859454,71.605001 49.4821335,73.9613473" id="Fill-20" fill="#05464A" mask="url(#mask-2)"></path>
                    <path d="M74.2248826,92.4638432 C76.8381244,93.2775497 79.6938533,93.1767695 82.211349,92.0812519 C84.7590256,90.9726702 86.6572944,88.9962594 87.5314971,86.6447225 C88.3037095,84.5684647 88.3026688,84.445289 86.124447,83.7006356 C80.4358849,81.7587514 74.6484546,83.989912 72.6638063,88.7069831 C71.6345366,91.1527681 71.5564828,91.6314738 74.2248826,92.4638432" id="Fill-22" fill="#05464A" mask="url(#mask-2)"></path>
                    <path d="M48.7420316,85.9911944 C50.0305284,88.2480604 52.1332287,89.938761 54.6924362,90.6423264 C57.2832633,91.3556364 60.0193427,90.9843643 62.29101,89.686374 C64.2948991,88.5394261 64.3808648,88.4429539 63.3512531,86.509611 C60.6645792,81.4638198 54.9829409,79.6220768 50.2647107,82.0826064 C47.8171597,83.3591585 47.4258678,83.6865795 48.7420316,85.9911944" id="Fill-24" fill="#05464A" mask="url(#mask-2)"></path>
                </g>
            </g>
        </g>
    </g>
</svg>