<svg xmlns="http://www.w3.org/2000/svg" width="94" height="85" viewBox="0 0 94 85">
    <g fill="none" fill-rule="evenodd">
        <g fill="#05464A">
            <g>
                <g>
                    <g>
                        <g>
                            <path d="M23.598 14.625c1.797.57 3.76.498 5.491-.268 1.752-.776 3.056-2.16 3.658-3.806.531-1.454.53-1.54-.968-2.06-3.91-1.36-7.89.202-9.253 3.504-.708 1.712-.761 2.048 1.072 2.63M17.163 13c-1.859.016-3.653-.526-4.997-1.577-1.36-1.062-2.099-2.506-2.097-3.989.002-1.308.033-1.378 1.598-1.428 4.084-.134 7.241 2.116 7.384 5.129.074 1.562.01 1.848-1.888 1.865M20.808 9.374c-1.009-.944-1.644-2.257-1.729-3.7-.087-1.459.392-2.872 1.293-3.932.795-.935.854-.969 1.726-.2 2.276 2.007 2.608 5.24.856 7.469-.908 1.156-1.115 1.327-2.146.363M22.738 22.624c1.96.57 4.1.5 5.99-.267 1.911-.776 3.334-2.16 3.99-3.806.58-1.453.578-1.54-1.056-2.06-4.267-1.36-8.606.202-10.095 3.504-.771 1.711-.831 2.047 1.17 2.63M6.123 15.292c.218 1.965 1.245 3.779 2.95 5.042 1.724 1.276 3.925 1.842 6.085 1.618 1.906-.196 2.003-.24 1.872-1.899-.342-4.334-4.033-7.33-8.439-7.033-2.286.156-2.691.266-2.468 2.272M20.877 32.57c2.123.652 4.443.571 6.489-.305 2.07-.886 3.612-2.468 4.322-4.35.628-1.661.627-1.76-1.143-2.355-4.622-1.553-9.323.232-10.937 4.006-.836 1.957-.9 2.34 1.27 3.005M4.078 23.27c.076 2.117 1.004 4.126 2.683 5.59 1.697 1.48 3.945 2.229 6.212 2.132 2-.087 2.103-.126 2.096-1.912-.022-4.66-3.634-8.11-8.246-8.08-2.39.015-2.824.107-2.745 2.27" transform="translate(-32 -5464) translate(16 4976) translate(0 424) translate(16 64)"/>
                            <path d="M16.87 84.276c-.127.516-.626.827-1.116.693-.489-.134-.782-.66-.655-1.176C18.4 70.407 17.56 58.655 16.766 47.51c-.847-11.843-1.644-23.012 2.532-34.883.176-.5.702-.753 1.176-.567.473.185.714.742.537 1.24-4.032 11.461-3.248 22.433-2.418 34.066.807 11.293 1.658 23.203-1.724 36.91" transform="translate(-32 -5464) translate(16 4976) translate(0 424) translate(16 64)"/>
                            <path d="M22.016 41.517c2.287.733 4.785.642 6.989-.344 2.229-.997 3.889-2.776 4.654-4.894.676-1.868.675-1.98-1.232-2.649-4.977-1.747-10.04.26-11.777 4.506-.9 2.201-.969 2.633 1.366 3.381M2.491 36.565c.854 2.077 2.527 3.777 4.754 4.7 2.254.933 4.795.968 7.042.16 1.983-.716 2.075-.788 1.412-2.557-1.732-4.616-6.637-6.901-11.274-5.42-2.404.77-2.806.997-1.934 3.117M23.016 51.517c2.287.733 4.785.642 6.988-.344 2.23-.998 3.89-2.776 4.655-4.893.676-1.868.675-1.98-1.231-2.65-4.977-1.747-10.041.26-11.778 4.506-.9 2.201-.969 2.632 1.366 3.381" transform="translate(-32 -5464) translate(16 4976) translate(0 424) translate(16 64)"/>
                            <path d="M1.718 46.492c1.128 2.031 2.968 3.553 5.207 4.186 2.267.642 4.661.308 6.649-.86 1.753-1.033 1.828-1.12.927-2.86-2.35-4.54-7.322-6.198-11.45-3.984-2.142 1.15-2.484 1.444-1.333 3.518" transform="translate(-32 -5464) translate(16 4976) translate(0 424) translate(16 64)"/>
                        </g>
                        <g>
                            <path d="M21.289 12.732c1.634.407 3.418.356 4.992-.192 1.592-.553 2.778-1.542 3.325-2.718.483-1.038.481-1.1-.88-1.472-3.555-.97-7.172.145-8.412 2.504-.644 1.222-.692 1.462.975 1.878M15.204 12c-1.652.014-3.246-.451-4.441-1.352C9.554 9.738 8.897 8.5 8.899 7.23c.002-1.122.03-1.182 1.42-1.225 3.63-.114 6.437 1.814 6.564 4.396.065 1.34.008 1.584-1.679 1.599M18.638 8.443c-1.009-.839-1.644-2.006-1.729-3.288-.087-1.297.392-2.553 1.293-3.495.795-.831.854-.862 1.726-.179 2.276 1.784 2.607 4.66.856 6.64-.908 1.027-1.115 1.18-2.146.322M19.428 21.678c1.798.489 3.76.428 5.491-.229 1.752-.665 3.057-1.852 3.657-3.263.532-1.245.531-1.32-.967-1.765-3.911-1.166-7.889.173-9.254 3.003-.707 1.467-.761 1.755 1.073 2.254M5.948 14.037c.198 1.747 1.132 3.36 2.682 4.482 1.567 1.135 3.568 1.638 5.531 1.438 1.733-.174 1.821-.212 1.702-1.688-.31-3.852-3.666-6.515-7.671-6.251-2.078.138-2.447.236-2.244 2.02M17.568 29.624c1.96.57 4.1.5 5.99-.267 1.91-.776 3.334-2.16 3.99-3.807.579-1.453.578-1.54-1.056-2.06-4.266-1.359-8.606.203-10.096 3.505-.771 1.712-.83 2.048 1.172 2.63M2.907 21.815c.069 1.695.913 3.302 2.439 4.473 1.543 1.184 3.586 1.783 5.647 1.705 1.818-.07 1.912-.1 1.906-1.53-.02-3.728-3.303-6.487-7.496-6.463-2.174.012-2.567.086-2.496 1.815" transform="translate(-32 -5464) translate(16 4976) translate(0 424) translate(16 64) translate(36.17 9)"/>
                            <path d="M15.699 75.356c-.127.459-.626.735-1.115.616s-.782-.588-.656-1.047c3.303-11.919 2.463-22.383 1.668-32.306-.847-10.545-1.644-20.49 2.531-31.06.177-.444.703-.67 1.177-.505.472.165.713.66.537 1.104-4.032 10.206-3.249 19.975-2.418 30.333.807 10.056 1.658 20.66-1.724 32.865" transform="translate(-32 -5464) translate(16 4976) translate(0 424) translate(16 64) translate(36.17 9)"/>
                            <path d="M18.707 37.57c2.123.653 4.443.571 6.49-.305 2.07-.887 3.61-2.468 4.321-4.35.628-1.661.627-1.76-1.144-2.355-4.621-1.552-9.322.231-10.935 4.005-.837 1.957-.9 2.34 1.268 3.006M1.29 31.17c.793 1.845 2.347 3.356 4.416 4.176 2.092.83 4.451.861 6.538.142 1.842-.635 1.927-.7 1.311-2.272-1.608-4.103-6.163-6.134-10.468-4.817-2.233.683-2.606.885-1.796 2.77M20.707 46.571c2.123.651 4.443.57 6.489-.306 2.07-.887 3.612-2.468 4.322-4.35.628-1.66.627-1.759-1.143-2.354-4.622-1.554-9.324.23-10.937 4.005-.836 1.956-.9 2.34 1.269 3.005M.502 40.993c1.047 1.805 2.755 3.158 4.835 3.72 2.105.572 4.328.274 6.173-.764 1.629-.917 1.698-.995.862-2.541-2.183-4.037-6.8-5.51-10.633-3.542C-.25 38.887-.568 39.15.502 40.993" transform="translate(-32 -5464) translate(16 4976) translate(0 424) translate(16 64) translate(36.17 9)"/>
                        </g>
                        <g>
                            <path d="M17.223 10.732c1.144.407 2.393.356 3.494-.192 1.115-.553 1.945-1.542 2.328-2.718.338-1.038.337-1.1-.616-1.472-2.489-.97-5.02.145-5.888 2.504-.451 1.222-.485 1.462.682 1.878M11.98 8c-1.24.012-2.436-.376-3.332-1.126-.906-.759-1.4-1.79-1.398-2.85.001-.934.022-.984 1.065-1.02 2.723-.095 4.828 1.512 4.923 3.664.049 1.116.006 1.32-1.259 1.332" transform="translate(-32 -5464) translate(16 4976) translate(0 424) translate(16 64) translate(67.82 25)"/>
                            <path d="M13.99 6.582c-1.01-.629-1.645-1.504-1.73-2.465-.087-.973.392-1.916 1.293-2.622.795-.624.854-.646 1.726-.134 2.276 1.338 2.607 3.494.856 4.98-.908.77-1.115.884-2.146.241M16.362 15.732c1.308.407 2.735.356 3.994-.191 1.274-.554 2.223-1.543 2.66-2.719.386-1.038.385-1.1-.704-1.472-2.844-.97-5.737.145-6.73 2.504-.514 1.222-.554 1.462.78 1.878M4.284 11.273c.14 1.092.792 2.1 1.878 2.801 1.097.71 2.497 1.024 3.872.9 1.213-.11 1.274-.134 1.19-1.056-.216-2.407-2.565-4.072-5.37-3.907-1.454.087-1.712.148-1.57 1.262M14.502 22.732c1.47.407 3.075.356 4.492-.191 1.433-.554 2.5-1.543 2.992-2.72.435-1.037.434-1.099-.791-1.47-3.2-.972-6.455.144-7.572 2.502-.578 1.224-.622 1.463.879 1.879M3.255 16.361c.049 1.271.64 2.477 1.708 3.355 1.08.888 2.51 1.337 3.953 1.279 1.272-.052 1.339-.076 1.334-1.147-.014-2.796-2.312-4.866-5.247-4.848-1.522.009-1.797.064-1.748 1.361" transform="translate(-32 -5464) translate(16 4976) translate(0 424) translate(16 64) translate(67.82 25)"/>
                            <path d="M11.75 57.504c-.105.354-.521.566-.93.475-.407-.092-.651-.453-.545-.806 2.752-9.168 2.052-17.217 1.389-24.85-.706-8.112-1.37-15.762 2.11-23.893.147-.342.585-.516.98-.388.394.127.595.508.448.849-3.36 7.85-2.707 15.365-2.015 23.333.672 7.735 1.381 15.892-1.437 25.28" transform="translate(-32 -5464) translate(16 4976) translate(0 424) translate(16 64) translate(67.82 25)"/>
                            <path d="M15.64 28.732c1.634.407 3.418.356 4.993-.192 1.592-.553 2.778-1.542 3.324-2.718.483-1.038.482-1.1-.88-1.472-3.555-.97-7.17.144-8.412 2.503-.644 1.223-.692 1.463.976 1.879M2.551 23.98c.61 1.154 1.805 2.099 3.396 2.611 1.61.52 3.425.539 5.03.09 1.417-.398 1.482-.438 1.009-1.42-1.237-2.565-4.741-3.835-8.053-3.012-1.717.428-2.004.554-1.382 1.732M15.64 35.678c1.634.489 3.419.428 4.992-.23 1.592-.664 2.779-1.85 3.325-3.261.483-1.246.482-1.32-.88-1.767-3.555-1.165-7.172.174-8.412 3.004-.643 1.468-.692 1.755.976 2.254M.714 31.496c.805 1.128 2.12 1.973 3.719 2.325 1.619.357 3.33.171 4.749-.478 1.252-.573 1.306-.622.663-1.588-1.68-2.523-5.23-3.444-8.18-2.214-1.53.639-1.774.802-.951 1.955" transform="translate(-32 -5464) translate(16 4976) translate(0 424) translate(16 64) translate(67.82 25)"/>
                        </g>
                    </g>
                </g>
            </g>
        </g>
    </g>
</svg>
