<?xml version="1.0" encoding="UTF-8"?>
<svg width="56px" height="55px" viewBox="0 0 56 55" version="1.1" xmlns="http://www.w3.org/2000/svg" xmlns:xlink="http://www.w3.org/1999/xlink">
    <title>opencollective-icon</title>
    <g id="01-Desktop" stroke="none" stroke-width="1" fill="none" fill-rule="evenodd" opacity="0.2">
        <g id="04-OCF-Website-Desktop" transform="translate(-1432.000000, -3326.000000)" fill-rule="nonzero">
            <g id="Fees" transform="translate(680.000000, 3035.000000)">
                <g id="Fee-02" transform="translate(736.000000, 256.000000)">
                    <g id="opencollective-icon" transform="translate(16.000000, 35.000000)">
                        <path d="M45.8068183,27.5 C45.8068183,30.9434782 44.7727272,34.2434783 43,36.9695652 L50.2386363,44 C53.7840909,39.4086957 56,33.6695652 56,27.5 C56,21.3304348 53.7840909,15.5913044 50.2386363,11 L43,18.0304348 C44.7727272,20.7565218 45.8068183,23.9130435 45.8068183,27.5 L45.8068183,27.5 Z" id="Shape" fill="#B8D3F4"></path>
                        <path d="M27.9967427,45.0393701 C18.1758958,45.0393701 10.1140065,37.0997376 10.1140065,27.4278216 C10.1140065,17.7559056 18.1758958,9.81627297 27.9967427,9.81627297 C31.6612378,9.81627297 34.8859935,10.8267717 37.6710097,12.7034121 L44.8534203,5.62992126 C40.1628664,2.16535432 34.2996743,0 27.9967427,0 C12.6058632,0 0,12.2703412 0,27.5721785 C0,42.8740157 12.6058632,55 27.9967427,55 C34.4462541,55 40.3094463,52.8346456 45,49.3700788 L37.8175896,42.296588 C35.0325734,44.0288714 31.6612378,45.0393701 27.9967427,45.0393701 L27.9967427,45.0393701 Z" id="Shape" fill="#FFFFFF"></path>
                    </g>
                </g>
            </g>
        </g>
    </g>
</svg>