<?xml version="1.0" encoding="UTF-8"?>
<svg width="112px" height="129px" viewBox="0 0 112 129" version="1.1" xmlns="http://www.w3.org/2000/svg" xmlns:xlink="http://www.w3.org/1999/xlink">
    <title>pay-expenses</title>
    <g id="01-Desktop" stroke="none" stroke-width="1" fill="none" fill-rule="evenodd">
        <g id="04-OCF-Website-Desktop" transform="translate(-881.000000, -2672.000000)">
            <g id="Features" transform="translate(728.000000, 2201.000000)">
                <g id="pay-expenses" transform="translate(153.000000, 471.000000)">
                    <path d="M65.6286488,4.57604199 L104.077968,27.0646519 C108.984399,29.9343726 112,35.1917055 112,40.8757498 L112,87.1010387 C112,92.8181012 108.949557,98.1007558 103.998029,100.958583 L63.9980293,124.045009 C59.0486138,126.901617 52.9513862,126.901617 48.0019707,124.045009 L8.00197073,100.958583 C3.05044296,98.1007558 1.49109929e-14,92.8181012 0,87.1010387 L0,41.1720742 C2.837243e-15,35.3298128 3.18430246,29.9520067 8.30691772,27.1429443 L49.857598,4.35801001 C54.7877358,1.65449555 60.7751322,1.73727024 65.6286488,4.57604199 Z" id="Polygon" fill="#CDDADB" transform="translate(56.000000, 64.330579) rotate(-360.000000) translate(-56.000000, -64.330579) "></path>
                    <g id="wallet" transform="translate(35.000000, 45.000000)" fill="#4E908D" fill-rule="nonzero">
                        <path d="M37.6569231,11.1888889 L36.9630769,11.1888889 L36.9630769,3.51851852 C36.9630769,2.6037037 36.6476923,1.61851852 35.7646154,1.05555556 C35.0707692,0.492592593 34.2507692,0.281481481 33.4307692,0.703703704 L1.82923077,11.1888889 C1.51384615,11.4 1.13538462,11.5407407 1.00923077,11.7518519 C0.315384615,12.3148148 0,13.0888889 0,14.0037037 L0,34.4814815 C0,36.1703704 1.19846154,37.5074074 2.71230769,37.5074074 L37.72,37.5074074 C39.2338462,37.5074074 40.4323077,36.1703704 40.4323077,34.4814815 L40.4323077,14.2148148 C40.3692308,12.5259259 39.1707692,11.1888889 37.6569231,11.1888889 Z M33.62,4.43333333 L33.62,11.1888889 L13.6246154,11.1888889 L33.62,4.43333333 L33.62,4.43333333 Z M3.34307692,33.7074074 L3.34307692,14.9888889 L36.9630769,14.9888889 L36.9630769,18.7185185 L29.5830769,18.7185185 C26.7446154,18.7185185 24.5369231,21.1814815 24.5369231,24.3481481 C24.5369231,27.5148148 26.7446154,29.9777778 29.5830769,29.9777778 L36.9630769,29.9777778 L36.9630769,33.7074074 L3.34307692,33.7074074 Z M37.0261538,22.4481481 L37.0261538,26.1777778 L29.5830769,26.1777778 C28.5738462,26.1777778 27.88,25.4037037 27.88,24.2777778 C27.88,23.1518519 28.5738462,22.3777778 29.5830769,22.3777778 L37.0261538,22.3777778 L37.0261538,22.4481481 Z" id="Shape"></path>
                    </g>
                </g>
            </g>
        </g>
    </g>
</svg>