<?xml version="1.0" encoding="UTF-8"?>
<svg width="112px" height="129px" viewBox="0 0 112 129" version="1.1" xmlns="http://www.w3.org/2000/svg" xmlns:xlink="http://www.w3.org/1999/xlink">
    <title>tax-deductible</title>
    <g id="01-Desktop" stroke="none" stroke-width="1" fill="none" fill-rule="evenodd">
        <g id="04-OCF-Website-Desktop" transform="translate(-1568.000000, -2305.000000)">
            <g id="Features" transform="translate(728.000000, 2201.000000)">
                <g id="tax-deductible" transform="translate(840.000000, 104.000000)">
                    <path d="M65.6286488,4.57604199 L104.077968,27.0646519 C108.984399,29.9343726 112,35.1917055 112,40.8757498 L112,87.1010387 C112,92.8181012 108.949557,98.1007558 103.998029,100.958583 L63.9980293,124.045009 C59.0486138,126.901617 52.9513862,126.901617 48.0019707,124.045009 L8.00197073,100.958583 C3.05044296,98.1007558 1.49109929e-14,92.8181012 0,87.1010387 L0,41.1720742 C2.837243e-15,35.3298128 3.18430246,29.9520067 8.30691772,27.1429443 L49.857598,4.35801001 C54.7877358,1.65449555 60.7751322,1.73727024 65.6286488,4.57604199 Z" id="Polygon" fill="#CDDADB" transform="translate(56.000000, 64.330579) rotate(-360.000000) translate(-56.000000, -64.330579) "></path>
                    <g id="money-protection" transform="translate(37.000000, 39.000000)" fill="#4E908D" fill-rule="nonzero">
                        <path d="M35.0444444,5.37878788 L19.9148148,0.909090909 C19.3518519,0.681818182 18.5777778,0.681818182 17.8740741,0.909090909 L2.81481481,5.37878788 C1.33703704,5.75757576 0.140740741,7.42424242 0.140740741,9.24242424 L0.140740741,20.9848485 C0.140740741,33.4090909 6.96666667,44.3181818 17.5222222,49.0151515 C17.9444444,49.2424242 18.5074074,49.2424242 19,49.2424242 C19.4925926,49.2424242 19.9148148,49.2424242 20.4777778,49.0151515 C31.0333333,44.5454545 37.8592593,33.4090909 37.8592593,20.9848485 L37.8592593,9.24242424 C37.8592593,7.42424242 36.7333333,5.75757576 35.0444444,5.37878788 Z M34.0592593,20.9848485 C34.0592593,31.5151515 28.0074074,41.2878788 19,45.3787879 C9.78148148,41.2878788 3.94074074,31.7424242 3.94074074,20.9848485 L3.94074074,9.24242424 L19,4.77272727 L34.0592593,9.24242424 L34.0592593,20.9848485 Z" id="Shape"></path>
                        <path d="M17.1703704,10.6818182 L17.1703704,12.7272727 L16.3962963,12.7272727 C13.1592593,12.7272727 10.7666667,15.6060606 10.7666667,18.7878788 C10.7666667,21.969697 13.2296296,24.8484848 16.3962963,24.8484848 L21.6740741,24.8484848 C22.8,24.8484848 23.5740741,25.8333333 23.5740741,26.8939394 C23.5740741,28.1060606 22.8,28.9393939 21.6740741,28.9393939 L13.4407407,28.9393939 C12.3148148,28.9393939 11.5407407,29.7727273 11.5407407,30.9848485 C11.5407407,32.1969697 12.3148148,33.030303 13.4407407,33.030303 L17.2407407,33.030303 L17.2407407,35.0757576 C17.2407407,36.2878788 18.0148148,37.1212121 19.1407407,37.1212121 C20.2666667,37.1212121 21.0407407,36.2878788 21.0407407,35.0757576 L21.0407407,33.030303 L21.8148148,33.030303 C25.0518519,33.030303 27.4444444,30.1515152 27.4444444,26.969697 C27.4444444,23.4848485 24.9814815,20.9090909 21.8148148,20.9090909 L16.537037,20.9090909 C15.4111111,20.9090909 14.637037,19.9242424 14.637037,18.8636364 C14.637037,17.8787879 15.4111111,16.8181818 16.537037,16.8181818 L24.6296296,16.8181818 C25.7555556,16.8181818 26.5296296,15.9848485 26.5296296,14.7727273 C26.5296296,13.5606061 25.7555556,12.7272727 24.6296296,12.7272727 L20.8296296,12.7272727 L20.8296296,10.6818182 C20.8296296,9.46969697 20.0555556,8.63636364 18.9296296,8.63636364 C17.9444444,8.63636364 17.1703704,9.62121212 17.1703704,10.6818182 L17.1703704,10.6818182 Z" id="Path"></path>
                    </g>
                </g>
            </g>
        </g>
    </g>
</svg>