<?xml version="1.0" encoding="utf-8"?>
<!-- Generator: Adobe Illustrator 15.0.0, SVG Export Plug-In  -->
<!DOCTYPE svg PUBLIC "-//W3C//DTD SVG 1.1//EN" "http://www.w3.org/Graphics/SVG/1.1/DTD/svg11.dtd" [
	<!ENTITY ns_flows "http://ns.adobe.com/Flows/1.0/">
]>
<svg version="1.1"
	 xmlns="http://www.w3.org/2000/svg" xmlns:xlink="http://www.w3.org/1999/xlink" xmlns:a="http://ns.adobe.com/AdobeSVGViewerExtensions/3.0/"
	 x="0px" y="0px" width="339px" height="64px" viewBox="244 241 339 64" overflow="visible" enable-background="new 244 241 339 64"
	 xml:space="preserve">
<defs>
</defs>
<rect x="248.28" y="256.716" fill="#0066B3" width="55.711" height="44.604"/>
<g>
	<defs>
		<rect id="SVGID_3_" x="248.28" y="245.609" width="328.361" height="60"/>
	</defs>
	<clipPath id="SVGID_4_">
		<use xlink:href="#SVGID_3_"  overflow="visible"/>
	</clipPath>
	<path clip-path="url(#SVGID_4_)" fill="#FFFFFF" d="M266.205,277.991c2.74-1.239,4.446-4.149,4.446-7.025
		c0-2.676-0.869-4.349-2.039-5.62l1.605-1.873l-1.069-0.936l-1.605,1.874c-1.27-0.904-3.011-1.507-4.683-1.507
		c-4.283,0-7.763,2.91-7.763,8.062c0,4.414,2.978,7.994,7.763,7.994c3.077,0,6.255,1.406,6.255,4.952
		c0,3.511-2.944,4.981-6.255,4.981c-3.313,0-6.189-1.605-6.189-4.981h-1.637c0,4.18,3.443,6.589,7.826,6.589
		c4.381,0,7.859-2.141,7.859-6.589C270.719,281.067,269.115,279.026,266.205,277.991 M256.736,270.966
		c0-4.315,2.745-6.422,6.124-6.422c3.413,0,6.187,2.24,6.187,6.422c0,3.411-2.774,6.356-6.187,6.356
		C259.078,277.322,256.736,274.377,256.736,270.966"/>
	<path clip-path="url(#SVGID_4_)" fill="#FFFFFF" d="M262.86,291.555c-5.23,0-8.883-3.144-8.883-7.644v-1.053h3.748v1.053
		c0,2.896,2.651,3.93,5.135,3.93c1.562,0,5.2-0.385,5.2-3.93c0-3.707-4.333-3.895-5.2-3.895c-5.107,0-8.814-3.806-8.814-9.051
		c0-5.365,3.622-9.115,8.814-9.115c1.499,0,3.111,0.435,4.471,1.186l1.708-1.993l2.658,2.324l-1.706,1.99
		c1.166,1.554,1.715,3.363,1.715,5.608c0,2.696-1.275,5.268-3.308,6.903c2.191,1.345,3.373,3.437,3.373,6.043
		C271.771,288.554,268.275,291.555,262.86,291.555 M262.86,265.598c-3.174,0-5.069,2.007-5.069,5.367
		c0,2.635,1.741,5.303,5.069,5.303c2.782,0,5.132-2.428,5.132-5.303C267.992,267.008,265.342,265.598,262.86,265.598"/>
	<rect x="274.764" y="263.14" clip-path="url(#SVGID_4_)" fill="#FFFFFF" width="1.638" height="16.589"/>
	<rect x="273.711" y="262.088" clip-path="url(#SVGID_4_)" fill="#FFFFFF" width="3.746" height="18.696"/>
	<path clip-path="url(#SVGID_4_)" fill="#FFFFFF" d="M295.6,263.206v3.612c-1.369-2.576-4.079-3.812-6.755-3.812
		c-4.617,0-8.397,3.411-8.397,8.461c0,5.052,3.78,8.53,8.397,8.53c2.676,0,5.15-1.205,6.755-3.779v3.511h1.639v-16.523H295.6z
		 M288.845,278.391c-3.748,0-6.759-2.774-6.759-6.924c0-4.147,3.011-6.89,6.759-6.89
		C298.042,264.577,298.042,278.391,288.845,278.391"/>
	<path clip-path="url(#SVGID_4_)" fill="#FFFFFF" d="M288.844,281.051c-5.389,0-9.453-4.12-9.453-9.583
		c0-5.424,4.064-9.517,9.453-9.517c2.162,0,4.168,0.717,5.701,1.967v-1.765h3.746v18.632h-3.746v-1.746
		C292.979,280.351,291.025,281.051,288.844,281.051 M288.844,265.632c-3.306,0-5.704,2.454-5.704,5.836c0,3.4,2.398,5.87,5.704,5.87
		c1.821,0,3.337-0.624,4.385-1.805c0.941-1.06,1.459-2.498,1.459-4.048C294.688,268.666,292.858,265.632,288.844,265.632
		 M295.574,267.088c0.238,0.388,0.441,0.794,0.609,1.212v-1.364L295.574,267.088z"/>
	<path clip-path="url(#SVGID_4_)" fill="#0066B3" d="M279.756,249.787c0,2.308-1.87,4.179-4.177,4.179
		c-2.308,0-4.18-1.871-4.18-4.179s1.872-4.177,4.18-4.177C277.886,245.61,279.756,247.479,279.756,249.787"/>
</g>
<g>
	<defs>
		<rect id="SVGID_2_" width="792" height="612"/>
	</defs>
	<clipPath id="SVGID_5_">
		<use xlink:href="#SVGID_2_"  overflow="visible"/>
	</clipPath>
	<path clip-path="url(#SVGID_5_)" fill="#0066B3" d="M346.331,279.977c-1.178,0.446-3.41,1.059-5.641,1.059
		c-3.083,0-5.315-0.864-6.869-2.536c-1.554-1.616-2.407-4.067-2.382-6.826c0.025-6.241,4.112-9.808,9.652-9.808
		c2.181,0,3.861,0.474,4.689,0.92l-0.803,3.399c-0.927-0.446-2.081-0.808-3.936-0.808c-3.184,0-5.59,2.006-5.59,6.074
		c0,3.873,2.181,6.158,5.315,6.158c0.877,0,1.579-0.112,1.88-0.279v-3.929h-2.607v-3.315h6.292V279.977z"/>
	<path clip-path="url(#SVGID_5_)" fill="#0066B3" d="M348.51,271.702c0-2.006-0.05-3.316-0.1-4.486h3.284l0.125,2.507h0.101
		c0.626-1.978,2.131-2.813,3.309-2.813c0.351,0,0.526,0,0.802,0.055v3.985c-0.276-0.056-0.602-0.112-1.028-0.112
		c-1.404,0-2.356,0.836-2.607,2.145c-0.05,0.279-0.075,0.614-0.075,0.948v6.91h-3.811V271.702z"/>
	<path clip-path="url(#SVGID_5_)" fill="#0066B3" d="M363.482,280.841l-0.226-1.365h-0.076c-0.802,1.086-2.055,1.672-3.509,1.672
		c-2.482,0-3.961-2.007-3.961-4.18c0-3.539,2.858-5.238,7.195-5.21v-0.195c0-0.724-0.351-1.756-2.231-1.756
		c-1.254,0-2.582,0.474-3.385,1.032l-0.702-2.731c0.853-0.53,2.532-1.198,4.763-1.198c4.087,0,5.39,2.675,5.39,5.879v4.737
		c0,1.309,0.051,2.563,0.176,3.315H363.482z M363.03,274.405c-2.005-0.028-3.56,0.501-3.56,2.145c0,1.087,0.652,1.616,1.504,1.616
		c0.953,0,1.73-0.697,1.981-1.56c0.05-0.223,0.075-0.474,0.075-0.724V274.405z"/>
	<path clip-path="url(#SVGID_5_)" fill="#0066B3" d="M368.49,271.562c0-1.7-0.05-3.148-0.1-4.347h3.309l0.175,1.868h0.075
		c0.502-0.864,1.755-2.174,3.786-2.174c2.507,0,4.387,1.839,4.387,5.851v8.08h-3.81v-7.55c0-1.756-0.551-2.954-1.93-2.954
		c-1.054,0-1.68,0.808-1.931,1.588c-0.1,0.251-0.15,0.669-0.15,1.059v7.857h-3.811V271.562z"/>
	<path clip-path="url(#SVGID_5_)" fill="#0066B3" d="M386.565,263.315v3.9h2.733v3.121h-2.733v4.932
		c0,1.644,0.351,2.396,1.504,2.396c0.477,0,0.853-0.056,1.129-0.111l0.025,3.204c-0.502,0.223-1.404,0.362-2.482,0.362
		c-1.229,0-2.257-0.473-2.858-1.17c-0.702-0.808-1.053-2.118-1.053-4.04v-5.573h-1.63v-3.121h1.63v-2.953L386.565,263.315z"/>
	<path clip-path="url(#SVGID_5_)" fill="#0066B3" d="M390.777,271.562c0-1.7-0.05-3.148-0.1-4.347h3.209l0.175,1.84h0.075
		c0.527-0.864,1.605-2.146,3.71-2.146c1.58,0,2.833,0.892,3.359,2.313h0.05c0.452-0.697,1.004-1.254,1.58-1.644
		c0.677-0.446,1.429-0.669,2.332-0.669c2.356,0,4.137,1.839,4.137,5.907v8.024h-3.711v-7.411c0-1.978-0.576-3.121-1.805-3.121
		c-0.878,0-1.505,0.669-1.755,1.477c-0.101,0.306-0.151,0.752-0.151,1.087v7.968h-3.71v-7.634c0-1.727-0.552-2.898-1.755-2.898
		c-0.978,0-1.555,0.836-1.78,1.533c-0.126,0.334-0.151,0.724-0.151,1.058v7.941h-3.71V271.562z"/>
	<path clip-path="url(#SVGID_5_)" fill="#0066B3" d="M418.579,280.841l-0.226-1.365h-0.075c-0.803,1.086-2.056,1.672-3.51,1.672
		c-2.482,0-3.962-2.007-3.962-4.18c0-3.539,2.858-5.238,7.195-5.21v-0.195c0-0.724-0.352-1.756-2.23-1.756
		c-1.254,0-2.583,0.474-3.385,1.032l-0.702-2.731c0.853-0.53,2.532-1.198,4.764-1.198c4.086,0,5.39,2.675,5.39,5.879v4.737
		c0,1.309,0.05,2.563,0.176,3.315H418.579z M418.128,274.405c-2.006-0.028-3.562,0.501-3.562,2.145c0,1.087,0.653,1.616,1.506,1.616
		c0.951,0,1.729-0.697,1.98-1.56c0.05-0.223,0.075-0.474,0.075-0.724V274.405z"/>
	<path clip-path="url(#SVGID_5_)" fill="#0066B3" d="M427.831,272.956h0.05c0.276-0.557,0.577-1.114,0.878-1.644l2.481-4.096h4.588
		l-4.387,5.517l5.014,8.108h-4.688l-2.959-5.6l-0.978,1.337v4.263h-3.811v-19.782h3.811V272.956z"/>
	<path clip-path="url(#SVGID_5_)" fill="#0066B3" d="M438.938,275.38c0.125,1.755,1.68,2.591,3.459,2.591
		c1.304,0,2.356-0.195,3.385-0.557l0.501,2.87c-1.254,0.557-2.782,0.836-4.437,0.836c-4.162,0-6.544-2.675-6.544-6.938
		c0-3.455,1.931-7.272,6.192-7.272c3.961,0,5.466,3.426,5.466,6.798c0,0.725-0.075,1.365-0.126,1.672H438.938z M443.425,272.482
		c0-1.031-0.401-2.758-2.156-2.758c-1.604,0-2.256,1.616-2.356,2.758H443.425z"/>
	<path clip-path="url(#SVGID_5_)" fill="#0066B3" d="M448.488,271.702c0-2.006-0.05-3.316-0.101-4.486h3.284l0.126,2.507h0.1
		c0.627-1.978,2.131-2.813,3.31-2.813c0.351,0,0.526,0,0.803,0.055v3.985c-0.276-0.056-0.603-0.112-1.028-0.112
		c-1.404,0-2.356,0.836-2.607,2.145c-0.05,0.279-0.075,0.614-0.075,0.948v6.91h-3.811V271.702z"/>
	<path clip-path="url(#SVGID_5_)" fill="#0066B3" d="M457.263,277.135c0.702,0.474,2.156,1.031,3.284,1.031
		c1.152,0,1.63-0.446,1.63-1.143c0-0.696-0.376-1.031-1.805-1.56c-2.532-0.947-3.51-2.48-3.485-4.096
		c0-2.535,1.956-4.458,4.989-4.458c1.429,0,2.708,0.363,3.46,0.78l-0.678,2.926c-0.551-0.334-1.604-0.78-2.657-0.78
		c-0.928,0-1.454,0.418-1.454,1.114c0,0.641,0.477,0.976,1.98,1.561c2.332,0.891,3.31,2.201,3.335,4.207
		c0,2.535-1.806,4.402-5.315,4.402c-1.604,0-3.033-0.39-3.961-0.947L457.263,277.135z"/>
	<path clip-path="url(#SVGID_5_)" fill="#0066B3" d="M475.714,263.427c0,1.17-0.802,2.117-2.056,2.117
		c-1.203,0-2.005-0.947-1.98-2.117c-0.024-1.226,0.777-2.146,2.006-2.146S475.689,262.201,475.714,263.427 M471.778,267.216h3.811
		v13.625h-3.811V267.216z"/>
	<path clip-path="url(#SVGID_5_)" fill="#0066B3" d="M477.92,271.562c0-1.7-0.05-3.148-0.101-4.347h3.31l0.176,1.868h0.075
		c0.501-0.864,1.755-2.174,3.785-2.174c2.507,0,4.388,1.839,4.388,5.851v8.08h-3.811v-7.55c0-1.756-0.552-2.954-1.931-2.954
		c-1.053,0-1.68,0.808-1.931,1.588c-0.101,0.251-0.15,0.669-0.15,1.059v7.857h-3.811V271.562z"/>
	<path clip-path="url(#SVGID_5_)" fill="#0066B3" d="M500.457,263.315v3.9h2.732v3.121h-2.732v4.932
		c0,1.644,0.352,2.396,1.505,2.396c0.475,0,0.851-0.056,1.128-0.111l0.024,3.204c-0.501,0.223-1.403,0.362-2.481,0.362
		c-1.229,0-2.257-0.473-2.858-1.17c-0.702-0.808-1.053-2.118-1.053-4.04v-5.573h-1.63v-3.121h1.63v-2.953L500.457,263.315z"/>
	<path clip-path="url(#SVGID_5_)" fill="#0066B3" d="M504.669,261.059h3.811v7.773h0.05c0.401-0.585,0.903-1.03,1.505-1.393
		c0.552-0.334,1.278-0.529,1.98-0.529c2.432,0,4.287,1.867,4.287,5.962v7.969h-3.811v-7.495c0-1.783-0.552-3.009-1.98-3.009
		c-1.003,0-1.63,0.724-1.906,1.477c-0.1,0.278-0.125,0.641-0.125,0.947v8.08h-3.811V261.059z"/>
	<path clip-path="url(#SVGID_5_)" fill="#0066B3" d="M521.566,275.38c0.125,1.755,1.68,2.591,3.459,2.591
		c1.304,0,2.356-0.195,3.385-0.557l0.501,2.87c-1.254,0.557-2.782,0.836-4.437,0.836c-4.162,0-6.544-2.675-6.544-6.938
		c0-3.455,1.931-7.272,6.192-7.272c3.961,0,5.466,3.426,5.466,6.798c0,0.725-0.075,1.365-0.126,1.672H521.566z M526.054,272.482
		c0-1.031-0.401-2.758-2.156-2.758c-1.604,0-2.256,1.616-2.356,2.758H526.054z"/>
	<path clip-path="url(#SVGID_5_)" fill="#0066B3" d="M539.319,276.02l-1.203,4.821h-3.962l5.165-18.78h5.014l5.24,18.78h-4.113
		l-1.302-4.821H539.319z M543.606,272.844l-1.054-3.984c-0.301-1.115-0.602-2.508-0.852-3.622h-0.051
		c-0.25,1.114-0.501,2.535-0.777,3.622l-1.002,3.984H543.606z"/>
	<path clip-path="url(#SVGID_5_)" fill="#0066B3" d="M550.3,271.702c0-2.006-0.05-3.316-0.101-4.486h3.284l0.126,2.507h0.1
		c0.627-1.978,2.131-2.813,3.31-2.813c0.351,0,0.526,0,0.802,0.055v3.985c-0.275-0.056-0.602-0.112-1.027-0.112
		c-1.404,0-2.356,0.836-2.607,2.145c-0.05,0.279-0.075,0.614-0.075,0.948v6.91H550.3V271.702z"/>
	<path clip-path="url(#SVGID_5_)" fill="#0066B3" d="M563.888,263.315v3.9h2.732v3.121h-2.732v4.932
		c0,1.644,0.352,2.396,1.505,2.396c0.475,0,0.852-0.056,1.128-0.111l0.024,3.204c-0.501,0.223-1.403,0.362-2.481,0.362
		c-1.229,0-2.257-0.473-2.858-1.17c-0.701-0.808-1.053-2.118-1.053-4.04v-5.573h-1.63v-3.121h1.63v-2.953L563.888,263.315z"/>
	<path clip-path="url(#SVGID_5_)" fill="#0066B3" d="M568.073,277.135c0.702,0.474,2.156,1.031,3.284,1.031
		c1.152,0,1.63-0.446,1.63-1.143c0-0.696-0.376-1.031-1.806-1.56c-2.531-0.947-3.509-2.48-3.484-4.096
		c0-2.535,1.956-4.458,4.989-4.458c1.429,0,2.708,0.363,3.46,0.78l-0.678,2.926c-0.551-0.334-1.604-0.78-2.657-0.78
		c-0.928,0-1.454,0.418-1.454,1.114c0,0.641,0.477,0.976,1.98,1.561c2.332,0.891,3.31,2.201,3.335,4.207
		c0,2.535-1.806,4.402-5.315,4.402c-1.604,0-3.033-0.39-3.961-0.947L568.073,277.135z"/>
</g>
<g>
	<defs>
		<rect id="SVGID_1_" x="248.28" y="245.609" width="328.361" height="60"/>
	</defs>
	<clipPath id="SVGID_6_">
		<use xlink:href="#SVGID_1_"  overflow="visible"/>
	</clipPath>
	<path clip-path="url(#SVGID_6_)" fill="#0066B3" d="M333.42,299.442c0.608,0.416,1.497,0.763,2.433,0.763
		c1.388,0,2.198-0.815,2.198-1.994c0-1.092-0.561-1.716-1.98-2.322c-1.715-0.676-2.776-1.664-2.776-3.311
		c0-1.82,1.357-3.173,3.4-3.173c1.076,0,1.855,0.278,2.324,0.573l-0.375,1.23c-0.343-0.208-1.045-0.555-1.996-0.555
		c-1.435,0-1.98,0.954-1.98,1.751c0,1.092,0.639,1.63,2.089,2.254c1.778,0.763,2.683,1.716,2.683,3.432
		c0,1.803-1.201,3.363-3.681,3.363c-1.013,0-2.121-0.33-2.682-0.746L333.42,299.442z"/>
	<path clip-path="url(#SVGID_6_)" fill="#0066B3" d="M347.566,298.991c0,0.867,0.016,1.629,0.062,2.288h-1.216l-0.078-1.369h-0.031
		c-0.359,0.676-1.154,1.56-2.495,1.56c-1.185,0-2.604-0.728-2.604-3.675v-4.906h1.372v4.646c0,1.595,0.436,2.669,1.684,2.669
		c0.92,0,1.559-0.71,1.809-1.386c0.078-0.225,0.125-0.503,0.125-0.78v-5.149h1.372V298.991z"/>
	<path clip-path="url(#SVGID_6_)" fill="#0066B3" d="M349.845,295.628c0-1.075-0.031-1.941-0.062-2.739h1.232l0.062,1.439h0.031
		c0.562-1.023,1.451-1.629,2.683-1.629c1.824,0,3.197,1.716,3.197,4.264c0,3.016-1.654,4.506-3.431,4.506
		c-0.998,0-1.872-0.485-2.324-1.317h-0.031v4.559h-1.357V295.628z M351.202,297.864c0,0.226,0.031,0.434,0.062,0.624
		c0.25,1.058,1.076,1.786,2.059,1.786c1.45,0,2.292-1.318,2.292-3.242c0-1.681-0.795-3.12-2.246-3.12
		c-0.935,0-1.808,0.745-2.073,1.889c-0.047,0.191-0.094,0.417-0.094,0.625V297.864z"/>
	<path clip-path="url(#SVGID_6_)" fill="#0066B3" d="M358.721,295.628c0-1.075-0.031-1.941-0.062-2.739h1.232l0.062,1.439h0.031
		c0.562-1.023,1.451-1.629,2.683-1.629c1.824,0,3.197,1.716,3.197,4.264c0,3.016-1.654,4.506-3.431,4.506
		c-0.998,0-1.872-0.485-2.324-1.317h-0.031v4.559h-1.357V295.628z M360.078,297.864c0,0.226,0.031,0.434,0.062,0.624
		c0.25,1.058,1.076,1.786,2.059,1.786c1.45,0,2.292-1.318,2.292-3.242c0-1.681-0.795-3.12-2.246-3.12
		c-0.935,0-1.808,0.745-2.073,1.889c-0.047,0.191-0.094,0.417-0.094,0.625V297.864z"/>
	<path clip-path="url(#SVGID_6_)" fill="#0066B3" d="M374.427,297.016c0,3.103-1.933,4.454-3.758,4.454
		c-2.043,0-3.618-1.664-3.618-4.316c0-2.808,1.653-4.454,3.743-4.454C372.961,292.7,374.427,294.45,374.427,297.016
		 M368.439,297.102c0,1.838,0.951,3.225,2.292,3.225c1.311,0,2.293-1.37,2.293-3.259c0-1.422-0.64-3.225-2.261-3.225
		C369.141,293.843,368.439,295.507,368.439,297.102"/>
	<path clip-path="url(#SVGID_6_)" fill="#0066B3" d="M376.16,295.507c0-0.988-0.016-1.837-0.062-2.617h1.201l0.047,1.646h0.062
		c0.343-1.126,1.169-1.837,2.089-1.837c0.156,0,0.266,0.017,0.391,0.052v1.439c-0.141-0.035-0.281-0.052-0.469-0.052
		c-0.967,0-1.653,0.814-1.84,1.959c-0.031,0.208-0.062,0.45-0.062,0.71v4.472h-1.357V295.507z"/>
	<path clip-path="url(#SVGID_6_)" fill="#0066B3" d="M383.273,290.48v2.409h1.965v1.161h-1.965v4.525
		c0,1.04,0.265,1.629,1.029,1.629c0.359,0,0.624-0.052,0.795-0.104l0.063,1.144c-0.265,0.122-0.686,0.208-1.217,0.208
		c-0.639,0-1.153-0.225-1.481-0.641c-0.39-0.451-0.53-1.196-0.53-2.185v-4.576h-1.17v-1.161h1.17v-2.011L383.273,290.48z"/>
	<path clip-path="url(#SVGID_6_)" fill="#0066B3" d="M388.312,290.532c0.015,0.52-0.328,0.936-0.874,0.936
		c-0.483,0-0.826-0.416-0.826-0.936c0-0.537,0.359-0.953,0.858-0.953C387.984,289.579,388.312,289.995,388.312,290.532
		 M386.783,292.89h1.373v8.39h-1.373V292.89z"/>
	<path clip-path="url(#SVGID_6_)" fill="#0066B3" d="M390.433,295.16c0-0.866-0.015-1.577-0.062-2.271h1.216l0.078,1.387h0.031
		c0.375-0.797,1.248-1.577,2.495-1.577c1.045,0,2.667,0.693,2.667,3.57v5.01h-1.372v-4.836c0-1.352-0.452-2.479-1.747-2.479
		c-0.904,0-1.606,0.711-1.84,1.56c-0.062,0.191-0.093,0.451-0.093,0.711v5.044h-1.373V295.16z"/>
	<path clip-path="url(#SVGID_6_)" fill="#0066B3" d="M405.594,292.889c-0.031,0.607-0.062,1.283-0.062,2.306v4.871
		c0,1.924-0.344,3.103-1.076,3.83c-0.733,0.763-1.793,1.006-2.745,1.006c-0.904,0-1.902-0.243-2.511-0.693l0.344-1.162
		c0.499,0.347,1.277,0.659,2.214,0.659c1.404,0,2.433-0.815,2.433-2.93v-0.935h-0.03c-0.421,0.779-1.232,1.403-2.402,1.403
		c-1.871,0-3.212-1.768-3.212-4.09c0-2.843,1.668-4.455,3.399-4.455c1.31,0,2.027,0.763,2.354,1.456h0.031l0.062-1.266H405.594z
		 M404.175,296.2c0-0.26-0.016-0.485-0.078-0.693c-0.25-0.884-0.92-1.612-1.918-1.612c-1.311,0-2.246,1.231-2.246,3.172
		c0,1.647,0.749,3.016,2.23,3.016c0.842,0,1.605-0.589,1.902-1.56c0.078-0.26,0.109-0.554,0.109-0.815V296.2z"/>
	<path clip-path="url(#SVGID_6_)" fill="#0066B3" d="M415.296,301.279l-0.108-1.057h-0.047c-0.422,0.659-1.233,1.248-2.309,1.248
		c-1.528,0-2.308-1.196-2.308-2.409c0-2.029,1.622-3.138,4.538-3.121v-0.173c0-0.693-0.172-1.941-1.716-1.941
		c-0.701,0-1.435,0.242-1.965,0.624l-0.312-1.006c0.624-0.45,1.528-0.745,2.479-0.745c2.308,0,2.869,1.751,2.869,3.432v3.138
		c0,0.728,0.03,1.438,0.125,2.01H415.296z M415.094,296.998c-1.497-0.035-3.197,0.26-3.197,1.889c0,0.988,0.593,1.456,1.295,1.456
		c0.982,0,1.605-0.693,1.824-1.404c0.047-0.156,0.078-0.329,0.078-0.485V296.998z"/>
	<path clip-path="url(#SVGID_6_)" fill="#0066B3" d="M429.335,300.898c-0.499,0.277-1.497,0.555-2.776,0.555
		c-2.963,0-5.192-2.08-5.192-5.911c0-3.658,2.229-6.137,5.49-6.137c1.309,0,2.136,0.313,2.494,0.521l-0.327,1.23
		c-0.515-0.277-1.248-0.485-2.121-0.485c-2.463,0-4.102,1.751-4.102,4.819c0,2.86,1.481,4.698,4.039,4.698
		c0.826,0,1.669-0.191,2.214-0.486L429.335,300.898z"/>
	<path clip-path="url(#SVGID_6_)" fill="#0066B3" d="M430.959,295.507c0-0.988-0.016-1.837-0.062-2.617h1.199l0.047,1.646h0.062
		c0.344-1.126,1.17-1.837,2.09-1.837c0.156,0,0.265,0.017,0.39,0.052v1.439c-0.14-0.035-0.28-0.052-0.468-0.052
		c-0.967,0-1.653,0.814-1.84,1.959c-0.031,0.208-0.062,0.45-0.062,0.71v4.472h-1.356V295.507z"/>
	<path clip-path="url(#SVGID_6_)" fill="#0066B3" d="M436.684,297.361c0.031,2.063,1.217,2.912,2.588,2.912
		c0.983,0,1.576-0.191,2.091-0.433l0.233,1.092c-0.483,0.243-1.31,0.52-2.511,0.52c-2.323,0-3.711-1.699-3.711-4.229
		c0-2.531,1.341-4.524,3.54-4.524c2.464,0,3.118,2.409,3.118,3.952c0,0.311-0.03,0.555-0.046,0.71H436.684z M440.707,296.27
		c0.016-0.971-0.358-2.479-1.902-2.479c-1.388,0-1.996,1.422-2.105,2.479H440.707z"/>
	<path clip-path="url(#SVGID_6_)" fill="#0066B3" d="M447.913,301.279l-0.108-1.057h-0.047c-0.422,0.659-1.232,1.248-2.309,1.248
		c-1.528,0-2.308-1.196-2.308-2.409c0-2.029,1.622-3.138,4.538-3.121v-0.173c0-0.693-0.172-1.941-1.716-1.941
		c-0.701,0-1.435,0.242-1.965,0.624l-0.312-1.006c0.624-0.45,1.528-0.745,2.479-0.745c2.308,0,2.869,1.751,2.869,3.432v3.138
		c0,0.728,0.03,1.438,0.125,2.01H447.913z M447.711,296.998c-1.497-0.035-3.197,0.26-3.197,1.889c0,0.988,0.593,1.456,1.295,1.456
		c0.982,0,1.605-0.693,1.824-1.404c0.047-0.156,0.078-0.329,0.078-0.485V296.998z"/>
	<path clip-path="url(#SVGID_6_)" fill="#0066B3" d="M452.858,290.48v2.409h1.965v1.161h-1.965v4.525
		c0,1.04,0.266,1.629,1.029,1.629c0.359,0,0.624-0.052,0.796-0.104l0.062,1.144c-0.266,0.122-0.687,0.208-1.217,0.208
		c-0.64,0-1.154-0.225-1.481-0.641c-0.39-0.451-0.53-1.196-0.53-2.185v-4.576h-1.17v-1.161h1.17v-2.011L452.858,290.48z"/>
	<path clip-path="url(#SVGID_6_)" fill="#0066B3" d="M457.897,290.532c0.016,0.52-0.328,0.936-0.874,0.936
		c-0.483,0-0.826-0.416-0.826-0.936c0-0.537,0.358-0.953,0.857-0.953C457.569,289.579,457.897,289.995,457.897,290.532
		 M456.369,292.89h1.372v8.39h-1.372V292.89z"/>
	<path clip-path="url(#SVGID_6_)" fill="#0066B3" d="M460.55,292.89l1.481,4.715c0.248,0.763,0.452,1.456,0.607,2.149h0.047
		c0.172-0.693,0.391-1.386,0.64-2.149l1.466-4.715h1.435l-2.963,8.39h-1.31l-2.869-8.39H460.55z"/>
	<path clip-path="url(#SVGID_6_)" fill="#0066B3" d="M468.146,297.361c0.031,2.063,1.217,2.912,2.589,2.912
		c0.982,0,1.575-0.191,2.09-0.433l0.233,1.092c-0.483,0.243-1.31,0.52-2.511,0.52c-2.323,0-3.711-1.699-3.711-4.229
		c0-2.531,1.341-4.524,3.54-4.524c2.464,0,3.118,2.409,3.118,3.952c0,0.311-0.03,0.555-0.046,0.71H468.146z M472.169,296.27
		c0.016-0.971-0.358-2.479-1.902-2.479c-1.388,0-1.996,1.422-2.105,2.479H472.169z"/>
	<path clip-path="url(#SVGID_6_)" fill="#0066B3" d="M480.25,297.605l-1.092,3.675h-1.403l3.571-11.684h1.638l3.586,11.684h-1.45
		l-1.122-3.675H480.25z M483.696,296.426l-1.029-3.363c-0.233-0.762-0.39-1.456-0.546-2.132h-0.03
		c-0.156,0.693-0.328,1.404-0.53,2.115l-1.029,3.38H483.696z"/>
	<path clip-path="url(#SVGID_6_)" fill="#0066B3" d="M488.02,295.16c0-0.866-0.016-1.577-0.062-2.271h1.2l0.062,1.353h0.047
		c0.421-0.798,1.123-1.543,2.37-1.543c1.028,0,1.81,0.693,2.137,1.681h0.031c0.234-0.468,0.529-0.832,0.842-1.092
		c0.453-0.381,0.952-0.589,1.669-0.589c0.998,0,2.479,0.728,2.479,3.64v4.94h-1.341v-4.749c0-1.612-0.53-2.583-1.638-2.583
		c-0.779,0-1.388,0.641-1.622,1.387c-0.062,0.208-0.108,0.485-0.108,0.763v5.182h-1.342v-5.027c0-1.334-0.53-2.305-1.575-2.305
		c-0.857,0-1.481,0.763-1.699,1.525c-0.078,0.226-0.109,0.486-0.109,0.746v5.061h-1.341V295.16z"/>
	<path clip-path="url(#SVGID_6_)" fill="#0066B3" d="M501.793,297.361c0.031,2.063,1.217,2.912,2.589,2.912
		c0.982,0,1.575-0.191,2.09-0.433l0.233,1.092c-0.483,0.243-1.31,0.52-2.511,0.52c-2.323,0-3.711-1.699-3.711-4.229
		c0-2.531,1.341-4.524,3.54-4.524c2.464,0,3.118,2.409,3.118,3.952c0,0.311-0.03,0.555-0.046,0.71H501.793z M505.816,296.27
		c0.016-0.971-0.358-2.479-1.902-2.479c-1.388,0-1.996,1.422-2.105,2.479H505.816z"/>
	<path clip-path="url(#SVGID_6_)" fill="#0066B3" d="M508.844,295.507c0-0.988-0.016-1.837-0.062-2.617h1.2l0.047,1.646h0.062
		c0.344-1.126,1.17-1.837,2.09-1.837c0.156,0,0.265,0.017,0.39,0.052v1.439c-0.14-0.035-0.28-0.052-0.468-0.052
		c-0.967,0-1.654,0.814-1.84,1.959c-0.031,0.208-0.063,0.45-0.063,0.71v4.472h-1.355V295.507z"/>
	<path clip-path="url(#SVGID_6_)" fill="#0066B3" d="M515.52,290.532c0.016,0.52-0.328,0.936-0.873,0.936
		c-0.484,0-0.827-0.416-0.827-0.936c0-0.537,0.358-0.953,0.857-0.953C515.191,289.579,515.52,289.995,515.52,290.532
		 M513.991,292.89h1.372v8.39h-1.372V292.89z"/>
	<path clip-path="url(#SVGID_6_)" fill="#0066B3" d="M523.021,300.967c-0.358,0.208-1.154,0.485-2.168,0.485
		c-2.276,0-3.758-1.716-3.758-4.281c0-2.583,1.591-4.455,4.055-4.455c0.811,0,1.528,0.225,1.902,0.433l-0.312,1.179
		c-0.327-0.208-0.842-0.399-1.59-0.399c-1.732,0-2.667,1.422-2.667,3.172c0,1.942,1.123,3.138,2.62,3.138
		c0.779,0,1.294-0.226,1.684-0.416L523.021,300.967z"/>
	<path clip-path="url(#SVGID_6_)" fill="#0066B3" d="M528.809,301.279l-0.108-1.057h-0.047c-0.421,0.659-1.233,1.248-2.309,1.248
		c-1.528,0-2.308-1.196-2.308-2.409c0-2.029,1.622-3.138,4.538-3.121v-0.173c0-0.693-0.172-1.941-1.716-1.941
		c-0.701,0-1.435,0.242-1.965,0.624l-0.312-1.006c0.624-0.45,1.528-0.745,2.479-0.745c2.308,0,2.869,1.751,2.869,3.432v3.138
		c0,0.728,0.03,1.438,0.125,2.01H528.809z M528.606,296.998c-1.497-0.035-3.197,0.26-3.197,1.889c0,0.988,0.593,1.456,1.295,1.456
		c0.982,0,1.605-0.693,1.824-1.404c0.047-0.156,0.078-0.329,0.078-0.485V296.998z"/>
</g>
</svg>
