<svg class="justice-funders-logo" viewBox="0 0 3379 736" version="1" xmlns="http://www.w3.org/2000/svg"><defs><linearGradient x1="9%" y1="30%" x2="111%" y2="59%" id="a"><stop stop-color="#D3B537" offset="0%"></stop><stop stop-color="#D3AE37" offset="20%"></stop><stop stop-color="#D29937" offset="40%"></stop><stop stop-color="#D27837" offset="70%"></stop><stop stop-color="#D14A37" offset="100%"></stop><stop stop-color="#D14637" offset="100%"></stop></linearGradient><linearGradient x1="12%" y1="37%" x2="106%" y2="75%" id="b"><stop stop-color="#D6D0B9" offset="0%"></stop><stop stop-color="#D3B537" offset="100%"></stop></linearGradient><linearGradient x1="3%" y1="5%" y2="82%" id="c"><stop stop-color="#D6D0B9" offset="0%"></stop><stop stop-color="#D3B537" offset="100%"></stop></linearGradient><linearGradient x1="-8%" y1="15%" x2="112%" y2="73%" id="d"><stop stop-color="#D14637" offset="0%"></stop><stop stop-color="#A52666" offset="60%"></stop><stop stop-color="#870257" offset="100%"></stop></linearGradient></defs><g fill="none" fill-rule="evenodd"><g fill="#FFF"><path d="M1347 547h143v56h-143v122h-65V425h227v56h-162zM1620 714c-20-9-36-25-47-44-12-20-17-43-17-67V426h65v177c0 18 3 32 11 42 8 11 17 18 27 23a79 79 0 0 0 62 0c11-5 21-13 27-23 8-12 12-27 11-42V426h65v177c0 26-6 48-16 67-11 19-28 35-47 44-22 11-46 17-71 16-24 0-48-5-70-16zM1956 725h-64V416l207 182V426h64v308l-207-180zM2231 425h124c45 0 81 13 109 38 16 13 28 30 35 48 8 20 13 42 12 64 0 22-4 43-12 63-8 19-20 36-35 49-14 13-30 22-48 28-20 6-40 10-61 9h-124V425zm124 244c23 0 46-7 64-21 18-13 26-37 26-73 0-35-8-60-26-73-18-14-41-21-64-20h-59v187h59zM2617 548h143v57h-143v64h162v56h-227V425h227v56h-162v67zM2840 725V425h133c21 0 40 5 56 13 16 9 29 21 38 37 9 17 14 35 14 54 0 22-6 41-17 58a96 96 0 0 1-44 37l77 101h-77l-72-94h-44v94h-64zm133-150c11 0 21-4 30-12 9-9 14-21 13-34 0-11-3-22-9-33-6-10-18-15-34-15h-69v94h69zM3206 661c19 7 37 11 53 11 17 0 30-3 40-10 10-6 15-14 15-23 0-7-3-13-8-18-7-5-15-9-23-10l-36-8c-18-3-36-7-54-13-16-5-32-14-44-27a69 69 0 0 1-20-52c0-32 11-55 35-69a184 184 0 0 1 202 19l-36 49c-14-10-28-17-42-23-14-5-29-8-43-8-13 0-24 2-35 7-11 4-17 12-17 23 0 6 3 11 9 15 5 4 12 7 18 9l33 8 14 2 57 15c15 5 28 15 38 27 11 12 17 30 17 52 0 31-11 54-32 69-22 16-51 24-87 24-54 0-99-15-136-47l35-49c12 10 27 19 47 27z"></path><path d="M1475 197c0 23-5 43-15 60-9 17-24 30-41 39-19 10-39 14-61 14s-44-6-63-17c-19-12-33-29-42-49l59-25c4 9 10 18 18 24 7 6 17 10 28 10 20 0 34-6 41-17 7-12 11-25 11-39V5h65v192zm128 97c-19-10-36-25-47-44-11-21-17-44-16-67V5h64v178c0 18 4 32 12 42 7 11 16 18 27 22 10 5 20 7 31 7 10 0 21-2 31-7 11-4 20-12 27-22 8-12 12-27 11-42V5h65v178c0 25-6 48-17 67s-27 34-46 44c-22 11-47 16-71 15-24 1-49-4-71-15zm327-54c19 8 37 12 53 12 17 0 31-3 41-10s15-14 15-23c0-8-3-14-9-18-7-5-15-9-23-11l-35-7c-19-3-37-8-55-13-16-5-32-15-44-27a69 69 0 0 1-20-52c0-32 12-55 35-69a185 185 0 0 1 202 19l-36 49c-13-10-27-17-42-23-14-5-29-8-43-8-12 0-24 2-35 7-11 4-16 12-16 22 0 7 2 12 8 16l18 9 33 7 15 3c19 4 38 8 56 15 15 5 28 14 39 26 11 13 16 30 16 53 0 30-11 53-32 69s-50 24-87 24c-54 0-99-16-135-47l34-49c12 10 27 18 47 26zm334-179v243h-65V61h-87V5h239v56h-87zm134 243V5h65v299h-65zm365-17a163 163 0 0 1-222-55 147 147 0 0 1 0-155 163 163 0 0 1 222-55c25 15 45 35 60 60l-60 23c-10-13-22-25-37-33a92 92 0 0 0-94 0c-14 9-26 21-35 35a94 94 0 0 0 0 95c9 15 21 27 35 36 15 9 32 14 49 13 15 0 31-4 45-13 15-9 27-20 37-34l60 23c-14 25-35 46-60 60zm169-159h143v56h-143v64h162v56h-227V5h227v56h-162v67z" fill-rule="nonzero"></path></g><path d="M383 394l-13-56 231-212c11-10 26-14 40-9 13 4 24 15 27 29l9 37-42 39-12-49-240 221zm-76 69l-13-56-86 79 55 17 44-40zm489 222l-96-402-42 38 85 360-471-140-38 40 511 152c13 5 29 1 39-9 11-10 15-25 12-39z" fill="url(#a)" fill-rule="nonzero"></path><path d="M402 559l-62-259c-3-13-12-23-25-27-12-4-26-1-36 8L1 537l56 17 240-221 49 210 56 16z" fill="url(#b)" fill-rule="nonzero"></path><path d="M432 689l-7-31-55-16 8 36-314-93-39 40 361 108a37 37 0 0 0 46-44z" fill="url(#c)" fill-rule="nonzero"></path><path d="M1092 717a40 40 0 0 1-39 9l-245-72-13-56 255 76L907 67 482 456l-55-18L885 18a40 40 0 0 1 66 21l152 640c3 14-1 28-11 38zM697 568l-207-61-38 41 258 77-13-57z" fill="url(#d)" fill-rule="nonzero"></path></g></svg>