<svg enable-background="new 0 0 145.008 66.759" viewBox="0 0 145.008 66.759" xmlns="http://www.w3.org/2000/svg"><g fill="#f04c54"><path d="m12.419 13.565h-1.72l-.191-.191-.191-.955h-.191c-.382.382-1.337 1.338-3.439 1.338-3.821 0-6.305-2.866-6.305-6.878s2.484-6.879 6.496-6.879c3.821 0 5.35 2.102 5.732 4.012l-.191.191h-2.293l-.191-.191c-.382-.764-.955-1.719-3.057-1.719-2.484 0-3.821 1.911-3.821 4.585 0 2.675 1.338 4.586 3.821 4.586 2.102 0 3.057-1.146 3.057-2.675l-.191-.191h-3.248l-.191-.191v-1.911l.191-.191h5.923l.191.191v6.878z"/><path d="m28.849 8.407c0 3.439-1.911 5.35-5.35 5.35s-5.35-1.911-5.35-5.35v-8.025l.191-.191h2.293l.191.191v8.025c0 1.911.764 3.057 2.675 3.057s2.675-1.146 2.675-3.057v-8.025l.191-.191h2.293l.191.191z"/><path d="m37.255 13.565h-2.293l-.191-.191v-12.992l.191-.191h2.293l.191.191v12.992z"/><path d="m52.157 13.565h-8.598l-.191-.191v-12.992l.191-.191h2.293l.191.191v10.699l.191.191h5.923l.191.191v1.911z"/><path d="m61.327 13.565h-4.203l-.191-.191v-12.992l.191-.191h4.203c4.776 0 6.496 2.484 6.496 6.687s-1.719 6.687-6.496 6.687zm.191-11.081h-1.72l-.191.191v8.407l.191.191h1.72c2.675 0 3.63-1.338 3.63-4.394s-.955-4.395-3.63-4.395z"/><path d="m9.935 29.097h-5.923l-.191.191v2.866l.191.191h5.541l.191.191v1.911l-.191.191h-5.541l-.191.191v5.159l-.191.19h-2.292l-.191-.191v-12.992l.191-.191h8.598l.191.191v1.911z"/><path d="m25.602 35.02c0 3.439-1.911 5.35-5.35 5.35s-5.35-1.911-5.35-5.35v-8.025l.191-.191h2.293l.191.191v8.025c0 1.911.764 3.057 2.675 3.057s2.675-1.146 2.675-3.057v-8.025l.191-.191h2.293l.191.191z"/><path d="m40.885 29.097h-3.821l-.191.191v10.7l-.191.191h-2.293l-.191-.191v-10.7l-.191-.191h-3.821l-.191-.191v-1.911l.191-.191h10.699l.191.191v1.911z"/><path d="m56.17 35.02c0 3.439-1.911 5.35-5.35 5.35s-5.35-1.911-5.35-5.35v-8.025l.191-.191h2.293l.191.191v8.025c0 1.911.764 3.057 2.675 3.057s2.675-1.146 2.675-3.057v-8.025l.191-.191h2.293l.191.191z"/><path d="m69.925 34.638v.191l2.484 3.248v1.911l-.191.191h-1.146l-.382-.191-3.821-4.968-.382-.191h-1.911l-.191.191v4.968l-.191.191h-2.294l-.191-.191v-12.993l.191-.191h6.305c2.675 0 4.586 1.338 4.586 4.012 0 2.102-1.338 3.44-2.866 3.822zm-1.72-5.541h-3.63l-.191.191v3.057l.191.191h3.63c1.146 0 1.911-.382 1.911-1.719 0-1.338-.764-1.72-1.911-1.72z"/><path d="m86.737 40.178h-8.98l-.191-.191v-12.992l.191-.191h8.98l.191.191v1.911l-.191.191h-6.305l-.191.191v2.675l.191.191h5.923l.191.191v1.911l-.191.191h-5.923l-.191.191v3.057l.191.191h6.305l.191.191v1.911z"/><path d="m11.464 66.568h-1.72l-.191-.191-.955-2.484-.382-.191h-4.777l-.382.191-.955 2.484-.191.191h-1.72l-.191-.192v-1.911l4.394-11.082.191-.191h2.484l.191.191 4.394 11.082v1.911zm-5.541-9.936h-.191l-1.72 4.586.191.191h3.248l.191-.191z"/><path d="m24.646 61.027v.191l2.484 3.248v1.911l-.191.191h-1.146l-.382-.191-3.821-4.968-.382-.191h-1.911l-.191.191v4.968l-.191.191h-2.293l-.191-.191v-12.993l.191-.191h6.305c2.675 0 4.586 1.338 4.586 4.012-.001 2.102-1.338 3.44-2.867 3.822zm-1.719-5.541h-3.63l-.191.191v3.057l.191.191h3.63c1.146 0 1.911-.382 1.911-1.719s-.765-1.72-1.911-1.72z"/><path d="m41.268 62.555.191-.191h2.293l.191.191c-.382 2.675-2.484 4.203-5.541 4.203-4.203 0-6.496-2.866-6.496-6.878s2.293-6.878 6.496-6.878c3.057 0 5.159 1.529 5.541 4.012l-.191.191h-2.293l-.191-.191c-.382-1.146-1.337-1.719-2.866-1.719-2.675 0-3.821 1.911-3.821 4.585 0 2.675 1.146 4.586 3.821 4.586 1.528 0 2.484-.573 2.866-1.911z"/><path d="m59.8 66.568h-2.293l-.191-.191v-5.35l-.191-.191h-5.159l-.191.191v5.35l-.191.191h-2.293l-.191-.192v-12.992l.191-.191h2.293l.191.191v4.968l.191.191h5.159l.191-.191v-4.968l.191-.191h2.293l.191.191v12.992z"/><path d="m68.396 66.568h-2.293l-.191-.191v-12.993l.191-.191h2.293l.191.191v12.992z"/><path d="m84.254 55.486h-3.821l-.191.191v10.7l-.191.191h-2.293l-.191-.191v-10.7l-.191-.191h-3.821l-.191-.191v-1.911l.191-.191h10.7l.191.191v1.911z"/><path d="m98.392 66.568h-8.98l-.191-.191v-12.993l.191-.191h8.98l.191.191v1.911l-.191.191h-6.305l-.191.191v2.675l.191.191h5.923l.191.191v1.911l-.191.191h-5.923l-.191.191v3.057l.191.191h6.305l.191.191v1.911z"/><path d="m112.72 62.555.191-.191h2.293l.191.191c-.382 2.675-2.484 4.203-5.541 4.203-4.203 0-6.496-2.866-6.496-6.878s2.293-6.878 6.496-6.878c3.057 0 5.159 1.529 5.541 4.012l-.191.191h-2.293l-.191-.191c-.382-1.146-1.338-1.719-2.866-1.719-2.675 0-3.821 1.911-3.821 4.585 0 2.675 1.146 4.586 3.821 4.586 1.529 0 2.484-.573 2.866-1.911z"/><path d="m129.915 55.486h-3.821l-.191.191v10.7l-.191.191h-2.293l-.191-.191v-10.7l-.191-.191h-3.821l-.191-.191v-1.911l.191-.191h10.7l.191.191v1.911z"/><path d="m139.467 66.759c-3.821 0-5.541-1.911-5.541-4.394l.191-.191h2.293l.191.191c0 1.338.764 2.102 3.057 2.102 1.719 0 2.675-.573 2.675-1.72 0-1.337-.764-1.719-3.439-2.101s-4.776-1.338-4.776-4.013c0-1.911 1.529-3.63 5.159-3.63s5.159 1.719 5.159 4.012l-.191.191h-2.293l-.191-.191c0-1.146-.573-1.719-2.675-1.719-1.719 0-2.293.573-2.293 1.337 0 1.146.764 1.529 3.439 1.911s4.776 1.528 4.776 4.203c0 2.101-1.528 4.012-5.541 4.012z"/></g><path d="m78.638 3.801c0-2.164 1.546-3.504 3.71-3.504s3.71 1.34 3.71 3.504-1.546 3.504-3.71 3.504-3.71-1.34-3.71-3.504zm6.183 0c0-1.34-1.03-2.061-2.473-2.061s-2.473.722-2.473 2.061 1.031 2.061 2.473 2.061 2.473-.721 2.473-2.061z" fill="#a8a8d1"/><path d="m84.718 13.701v-3.195l-.103-.103h-1.546l-.103.103v2.988l-.103.103h-1.031l-.103-.103v-2.988l-.103-.103h-2.782l-.103-.103v-1.236l.103-.103h7.008l.103.103v4.637l-.103.103h-1.031z" fill="#a8a8d1"/><path d="m75.724.38v13.324" fill="none" stroke="#a8a8d1" stroke-miterlimit="10" stroke-width="1.2569"/></svg>