<svg xmlns="http://www.w3.org/2000/svg" width="200" height="24" viewBox="0 0 200 24" fill="none"><path d="M7.72478 4.96538H0V0H21.208V4.96538H13.4515V24H7.72478V4.96538Z" fill="black"></path><path d="M44.8793 0V24H39.1862V14.1677H29.2654V24H23.5723V0H29.2654V9.16883H39.1862V0H44.8793Z" fill="black"></path><path d="M48.8296 0H67.3405V4.96538H54.5227V9.16883H66.6415V14.1677H54.5227V19.0012H67.3405V24H48.8296V0Z" fill="black"></path><path d="M106.354 0H124.135V4.96538H112.048V9.16883H123.4V14.1677H112.048V24H106.354V0Z" fill="black"></path><path d="M132.114 24H126.421V0H132.114V24Z" fill="black"></path><path d="M136.41 0H154.921V4.96538H142.103V9.16883H154.222V14.1677H142.103V19.0012H154.921V24H136.41V0Z" fill="black"></path><path d="M164.176 19.0012H175.762V24H158.483V0H164.176V19.0012Z" fill="black"></path><path d="M185.883 0C193.774 0 200 2.88039 200 11.9842C200 21.1216 193.774 24 185.883 24H177.927V0H185.883ZM185.984 4.76653H183.62V19.2335H185.984C190.147 19.2335 193.974 18.3396 193.974 11.9842C193.974 5.62888 190.145 4.76653 185.984 4.76653Z" fill="black"></path><path d="M76.2544 9.33398H97.6591V14.0007H76.2544V9.33398Z" fill="#7DFFBE"></path></svg>